<svg width="791" height="135" viewBox="0 0 791 135" fill="none" xmlns="http://www.w3.org/2000/svg">
<path d="M25.8438 102.504C25.8438 103.309 25.5703 103.926 25.0234 104.355C24.4766 104.785 23.6816 105 22.6387 105H19.4219V96.4102H22.4805C23.3945 96.4102 24.1133 96.6055 24.6367 96.9961C25.1602 97.3867 25.4219 97.9219 25.4219 98.6016C25.4219 99.4297 25.0098 100.043 24.1855 100.441C24.7402 100.582 25.1543 100.842 25.4277 101.221C25.7051 101.596 25.8438 102.023 25.8438 102.504ZM20.5586 100.008H22.4688C23.0977 100.008 23.5605 99.9082 23.8574 99.709C24.1543 99.5059 24.3027 99.1699 24.3027 98.7012C24.3027 98.2793 24.1582 97.9629 23.8691 97.752C23.5801 97.5371 23.0781 97.4297 22.3633 97.4297H20.5586V100.008ZM20.5586 103.98H22.627C23.9863 103.98 24.666 103.488 24.666 102.504C24.666 101.992 24.5078 101.619 24.1914 101.385C23.8789 101.146 23.3086 101.027 22.4805 101.027H20.5586V103.98ZM31.2168 103.365V101.988H30.4609C28.8594 101.988 28.0586 102.424 28.0586 103.295C28.0586 103.611 28.1758 103.855 28.4102 104.027C28.6445 104.195 28.9609 104.279 29.3594 104.279C29.7227 104.279 30.0742 104.197 30.4141 104.033C30.7539 103.869 31.0215 103.646 31.2168 103.365ZM31.2168 104.361C30.6543 104.885 29.9297 105.146 29.043 105.146C28.4258 105.146 27.918 104.98 27.5195 104.648C27.1211 104.312 26.9219 103.881 26.9219 103.354C26.9219 101.9 28.1738 101.174 30.6777 101.174H31.2168C31.2168 100.729 31.1934 100.406 31.1465 100.207C31.0996 100.004 30.9688 99.8359 30.7539 99.7031C30.5391 99.5703 30.1973 99.5039 29.7285 99.5039C28.7441 99.5039 28.2363 99.8555 28.2051 100.559H27.1035C27.1855 99.2812 28.0801 98.6426 29.7871 98.6426C30.584 98.6426 31.2051 98.8008 31.6504 99.1172C32.0957 99.4336 32.3184 100.055 32.3184 100.98V105H31.2168V104.361ZM36.4785 105.146C35.5957 105.146 34.8887 104.863 34.3574 104.297C33.8301 103.727 33.5664 102.926 33.5664 101.895C33.5664 100.859 33.8301 100.059 34.3574 99.4922C34.8887 98.9258 35.5957 98.6426 36.4785 98.6426C37.1582 98.6426 37.7246 98.8145 38.1777 99.1582C38.6348 99.502 38.9043 99.998 38.9863 100.646H37.8496C37.834 100.275 37.6934 99.9922 37.4277 99.7969C37.166 99.6016 36.8496 99.5039 36.4785 99.5039C35.9512 99.5039 35.5234 99.7051 35.1953 100.107C34.8672 100.506 34.7031 101.102 34.7031 101.895C34.7031 102.684 34.8672 103.279 35.1953 103.682C35.5234 104.08 35.9512 104.279 36.4785 104.279C36.8496 104.279 37.166 104.182 37.4277 103.986C37.6934 103.791 37.834 103.51 37.8496 103.143H38.9863C38.9043 103.791 38.6348 104.287 38.1777 104.631C37.7246 104.975 37.1582 105.146 36.4785 105.146ZM45.0977 105H43.7793L41.7578 101.842L41.0664 102.527V105H39.959V96.4102H41.0664V101.279L43.4629 98.7832H44.8574L42.502 101.098L45.0977 105ZM50.998 104.52C50.998 106.52 50.0957 107.52 48.291 107.52C47.5098 107.52 46.8926 107.35 46.4395 107.01C45.9902 106.67 45.7656 106.213 45.7656 105.639H46.9082C46.9082 106.318 47.3652 106.658 48.2793 106.658C48.7949 106.658 49.1934 106.516 49.4746 106.23C49.7559 105.949 49.8965 105.395 49.8965 104.566V104.256C49.4043 104.85 48.8125 105.146 48.1211 105.146C47.3086 105.146 46.6797 104.857 46.2344 104.279C45.7891 103.701 45.5664 102.922 45.5664 101.941C45.5664 100.926 45.8145 100.123 46.3105 99.5332C46.8105 98.9395 47.4375 98.6426 48.1914 98.6426C48.8633 98.6426 49.4316 98.8496 49.8965 99.2637V98.7832H50.998V104.52ZM49.8965 103.213V100.26C49.4199 99.7559 48.875 99.5039 48.2617 99.5039C47.7891 99.5039 47.4102 99.709 47.125 100.119C46.8438 100.525 46.7031 101.133 46.7031 101.941C46.7031 102.707 46.8359 103.289 47.1016 103.688C47.3711 104.082 47.7422 104.279 48.2148 104.279C48.832 104.279 49.3926 103.924 49.8965 103.213ZM55.8672 99.791C55.7109 99.7441 55.4863 99.7207 55.1934 99.7207C54.6309 99.7207 54.1484 100.016 53.7461 100.605V105H52.6387V98.7832H53.7461V99.6504C54.2109 98.9785 54.75 98.6426 55.3633 98.6426C55.5195 98.6426 55.6875 98.6582 55.8672 98.6895V99.791ZM59.1543 98.6426C60.041 98.6426 60.748 98.9258 61.2754 99.4922C61.8066 100.059 62.0723 100.859 62.0723 101.895C62.0723 102.926 61.8066 103.727 61.2754 104.297C60.748 104.863 60.041 105.146 59.1543 105.146C58.2715 105.146 57.5645 104.863 57.0332 104.297C56.5059 103.727 56.2422 102.926 56.2422 101.895C56.2422 100.859 56.5059 100.059 57.0332 99.4922C57.5645 98.9258 58.2715 98.6426 59.1543 98.6426ZM59.1543 104.279C59.6816 104.279 60.1094 104.08 60.4375 103.682C60.7656 103.279 60.9297 102.684 60.9297 101.895C60.9297 101.102 60.7656 100.506 60.4375 100.107C60.1094 99.7051 59.6816 99.5039 59.1543 99.5039C58.627 99.5039 58.1992 99.7051 57.8711 100.107C57.543 100.506 57.3789 101.102 57.3789 101.895C57.3789 102.684 57.543 103.279 57.8711 103.682C58.1992 104.08 58.627 104.279 59.1543 104.279ZM67.252 104.209C66.7012 104.834 66.082 105.146 65.3945 105.146C63.9922 105.146 63.291 104.381 63.291 102.85V98.7832H64.3984V102.803C64.3984 103.311 64.4883 103.676 64.668 103.898C64.8477 104.121 65.1445 104.232 65.5586 104.232C66.1758 104.232 66.7402 103.9 67.252 103.236V98.7832H68.3535V105H67.252V104.209ZM71.1016 99.5742C71.6523 98.9531 72.2715 98.6426 72.959 98.6426C74.3613 98.6426 75.0625 99.4062 75.0625 100.934V105H73.9551V100.98C73.9551 100.473 73.8633 100.107 73.6797 99.8848C73.5 99.6621 73.2031 99.5508 72.7891 99.5508C72.2266 99.5508 71.6641 99.8828 71.1016 100.547V105H69.9941V98.7832H71.1016V99.5742ZM80.6113 103.213V100.26C80.1348 99.7559 79.5898 99.5039 78.9766 99.5039C78.5039 99.5039 78.125 99.709 77.8398 100.119C77.5586 100.525 77.418 101.133 77.418 101.941C77.418 102.707 77.5508 103.289 77.8164 103.688C78.0859 104.082 78.457 104.279 78.9297 104.279C79.5469 104.279 80.1074 103.924 80.6113 103.213ZM80.6113 104.256C80.1191 104.85 79.5273 105.146 78.8359 105.146C78.0234 105.146 77.3945 104.857 76.9492 104.279C76.5039 103.701 76.2812 102.922 76.2812 101.941C76.2812 100.926 76.5293 100.123 77.0254 99.5332C77.5254 98.9395 78.1523 98.6426 78.9062 98.6426C79.5781 98.6426 80.1465 98.8496 80.6113 99.2637V96.4102H81.7129V105H80.6113V104.256ZM32.9277 119H31.6973L30.8887 116.709C30.7441 116.303 30.5039 115.971 30.168 115.713C29.832 115.455 29.4453 115.326 29.0078 115.326H26.9043V119H25.7676V110.41H29.5703C30.2344 110.41 30.7773 110.475 31.1992 110.604C31.6211 110.732 31.9648 111.004 32.2305 111.418C32.4961 111.832 32.6289 112.299 32.6289 112.818C32.6289 113.412 32.457 113.908 32.1133 114.307C31.7695 114.705 31.2988 114.965 30.7012 115.086V115.109C31.2988 115.301 31.7539 115.818 32.0664 116.662L32.9277 119ZM26.9043 114.307H29.4414C30.1484 114.307 30.6602 114.195 30.9766 113.973C31.2969 113.75 31.457 113.365 31.457 112.818C31.457 111.842 30.8438 111.354 29.6172 111.354H26.9043V114.307ZM36.9355 119.146C36.0215 119.146 35.2871 118.861 34.7324 118.291C34.1777 117.717 33.9004 116.918 33.9004 115.895C33.9004 114.879 34.168 114.084 34.7031 113.51C35.2422 112.932 35.9453 112.643 36.8125 112.643C37.6992 112.643 38.4062 112.926 38.9336 113.492C39.4648 114.059 39.7305 114.859 39.7305 115.895V116.158H35.0488C35.0957 116.877 35.293 117.41 35.6406 117.758C35.9922 118.105 36.4238 118.279 36.9355 118.279C37.3223 118.279 37.6699 118.182 37.9785 117.986C38.291 117.787 38.4551 117.506 38.4707 117.143H39.6133C39.5273 117.783 39.2363 118.277 38.7402 118.625C38.248 118.973 37.6465 119.146 36.9355 119.146ZM38.5645 115.291C38.4746 114.693 38.2734 114.246 37.9609 113.949C37.6484 113.652 37.2656 113.504 36.8125 113.504C36.3711 113.504 35.9922 113.652 35.6758 113.949C35.3594 114.242 35.1582 114.689 35.0723 115.291H38.5645ZM43.1934 119.146C41.4941 119.146 40.6055 118.479 40.5273 117.143H41.6348C41.6426 117.9 42.1582 118.279 43.1816 118.279C43.6387 118.279 43.9863 118.186 44.2246 117.998C44.4668 117.807 44.5879 117.568 44.5879 117.283C44.5879 117.002 44.4707 116.805 44.2363 116.691C44.002 116.574 43.5176 116.424 42.7832 116.24C42.0527 116.057 41.5176 115.852 41.1777 115.625C40.8418 115.398 40.6738 115 40.6738 114.43C40.6738 113.914 40.8828 113.488 41.3008 113.152C41.7227 112.812 42.2852 112.643 42.9883 112.643C44.6172 112.643 45.4492 113.223 45.4844 114.383H44.3828C44.3438 113.797 43.9043 113.504 43.0645 113.504C42.6934 113.504 42.3848 113.574 42.1387 113.715C41.8965 113.855 41.7754 114.061 41.7754 114.33C41.7754 114.572 41.8691 114.748 42.0566 114.857C42.2441 114.963 42.7129 115.107 43.4629 115.291C44.2168 115.471 44.7754 115.682 45.1387 115.924C45.5059 116.166 45.6895 116.584 45.6895 117.178C45.6895 117.744 45.4629 118.215 45.0098 118.59C44.5605 118.961 43.9551 119.146 43.1934 119.146ZM49.6152 119.146C48.7012 119.146 47.9668 118.861 47.4121 118.291C46.8574 117.717 46.5801 116.918 46.5801 115.895C46.5801 114.879 46.8477 114.084 47.3828 113.51C47.9219 112.932 48.625 112.643 49.4922 112.643C50.3789 112.643 51.0859 112.926 51.6133 113.492C52.1445 114.059 52.4102 114.859 52.4102 115.895V116.158H47.7285C47.7754 116.877 47.9727 117.41 48.3203 117.758C48.6719 118.105 49.1035 118.279 49.6152 118.279C50.002 118.279 50.3496 118.182 50.6582 117.986C50.9707 117.787 51.1348 117.506 51.1504 117.143H52.293C52.207 117.783 51.916 118.277 51.4199 118.625C50.9277 118.973 50.3262 119.146 49.6152 119.146ZM51.2441 115.291C51.1543 114.693 50.9531 114.246 50.6406 113.949C50.3281 113.652 49.9453 113.504 49.4922 113.504C49.0508 113.504 48.6719 113.652 48.3555 113.949C48.0391 114.242 47.8379 114.689 47.752 115.291H51.2441ZM57.5898 117.365V115.988H56.834C55.2324 115.988 54.4316 116.424 54.4316 117.295C54.4316 117.611 54.5488 117.855 54.7832 118.027C55.0176 118.195 55.334 118.279 55.7324 118.279C56.0957 118.279 56.4473 118.197 56.7871 118.033C57.127 117.869 57.3945 117.646 57.5898 117.365ZM57.5898 118.361C57.0273 118.885 56.3027 119.146 55.416 119.146C54.7988 119.146 54.291 118.98 53.8926 118.648C53.4941 118.312 53.2949 117.881 53.2949 117.354C53.2949 115.9 54.5469 115.174 57.0508 115.174H57.5898C57.5898 114.729 57.5664 114.406 57.5195 114.207C57.4727 114.004 57.3418 113.836 57.127 113.703C56.9121 113.57 56.5703 113.504 56.1016 113.504C55.1172 113.504 54.6094 113.855 54.5781 114.559H53.4766C53.5586 113.281 54.4531 112.643 56.1602 112.643C56.957 112.643 57.5781 112.801 58.0234 113.117C58.4688 113.434 58.6914 114.055 58.6914 114.98V119H57.5898V118.361ZM63.5605 113.791C63.4043 113.744 63.1797 113.721 62.8867 113.721C62.3242 113.721 61.8418 114.016 61.4395 114.605V119H60.332V112.783H61.4395V113.65C61.9043 112.979 62.4434 112.643 63.0566 112.643C63.2129 112.643 63.3809 112.658 63.5605 112.689V113.791ZM66.8477 119.146C65.9648 119.146 65.2578 118.863 64.7266 118.297C64.1992 117.727 63.9355 116.926 63.9355 115.895C63.9355 114.859 64.1992 114.059 64.7266 113.492C65.2578 112.926 65.9648 112.643 66.8477 112.643C67.5273 112.643 68.0938 112.814 68.5469 113.158C69.0039 113.502 69.2734 113.998 69.3555 114.646H68.2188C68.2031 114.275 68.0625 113.992 67.7969 113.797C67.5352 113.602 67.2188 113.504 66.8477 113.504C66.3203 113.504 65.8926 113.705 65.5645 114.107C65.2363 114.506 65.0723 115.102 65.0723 115.895C65.0723 116.684 65.2363 117.279 65.5645 117.682C65.8926 118.08 66.3203 118.279 66.8477 118.279C67.2188 118.279 67.5352 118.182 67.7969 117.986C68.0625 117.791 68.2031 117.51 68.2188 117.143H69.3555C69.2734 117.791 69.0039 118.287 68.5469 118.631C68.0938 118.975 67.5273 119.146 66.8477 119.146ZM71.4355 113.574C71.9863 112.953 72.6055 112.643 73.293 112.643C74.6953 112.643 75.3965 113.406 75.3965 114.934V119H74.2891V114.98C74.2891 114.473 74.1973 114.107 74.0137 113.885C73.834 113.662 73.5371 113.551 73.123 113.551C72.5605 113.551 71.998 113.883 71.4355 114.547V119H70.3281V110.41H71.4355V113.574Z" fill="black"/>
<path d="M84.101 65.0528L73.5812 54.5314C76.1228 51.1823 77.7094 47.1678 78.1164 42.9589C78.6147 37.7935 77.3281 32.5747 74.4934 28.2633C74.182 27.7901 73.5459 27.6587 73.0733 27.9701C72.6001 28.2814 72.4688 28.9175 72.7801 29.3907C78.1447 37.5489 77.0194 48.4901 70.1045 55.4056C62.0279 63.4827 48.8875 63.4827 40.8115 55.4056C32.7349 47.3286 32.7349 34.186 40.8115 26.1089C48.8875 18.0318 62.0285 18.0318 70.1018 26.1062L70.1579 26.1628C70.5574 26.5644 71.2062 26.5671 71.6079 26.1676C72.01 25.7687 72.0121 25.1193 71.6132 24.7177L71.5544 24.6584C62.6784 15.7818 48.237 15.7818 39.361 24.6584C39.0822 24.9372 38.8125 25.2213 38.5514 25.5107H16.0254C15.4593 25.5107 15 25.97 15 26.5361V31.0713C15 31.638 15.4593 32.0973 16.0254 32.0973C16.592 32.0973 17.0508 31.638 17.0508 31.0713V27.5621H36.9065C36.123 28.6627 35.449 29.8174 34.8845 31.0121H22.1094C21.5433 31.0121 21.084 31.4708 21.084 32.0375C21.084 32.6041 21.5433 33.0628 22.1094 33.0628H34.0359C33.7416 33.8864 33.4965 34.7232 33.3 35.5697H22.1094C21.5433 35.5697 21.084 36.0285 21.084 36.5951C21.084 37.1612 21.5433 37.6205 22.1094 37.6205H32.9208C32.806 38.452 32.7371 39.2889 32.7141 40.1268H22.1094C21.5433 40.1268 21.084 40.5861 21.084 41.1527C21.084 41.7188 21.5433 42.1781 22.1094 42.1781H32.7499C32.9347 45.1571 33.6989 48.1061 35.0453 50.8389H33.3208C32.7542 50.8389 32.2954 51.2982 32.2954 51.8648V82.2206C32.2954 82.7872 32.7542 83.2465 33.3208 83.2465H41.5239C42.0906 83.2465 42.5493 82.7872 42.5493 82.2206V59.512C43.4727 60.1481 44.4324 60.7088 45.4204 61.1932V82.2206C45.4204 82.7872 45.8797 83.2465 46.4458 83.2465H54.6489C55.2155 83.2465 55.6743 82.7872 55.6743 82.2206V63.5115C56.4738 63.5035 57.2722 63.4549 58.0674 63.3641V79.2037C58.0674 79.7704 58.5261 80.2296 59.0928 80.2296C59.6589 80.2296 60.1182 79.7704 60.1182 79.2037V63.0341C63.3594 62.3612 66.4809 60.978 69.2313 58.8839L79.749 69.4033C80.3306 69.9843 81.1034 70.3047 81.9248 70.3047C82.7467 70.3047 83.5195 69.9843 84.1005 69.4033C85.2995 68.2048 85.3 66.2534 84.101 65.0528V65.0528ZM40.4985 81.1952H34.3462V52.8902H36.1935C37.0806 54.2985 38.1359 55.6305 39.361 56.8561C39.7306 57.2257 40.1108 57.5787 40.4985 57.9173V81.1952ZM47.4717 81.1952V62.0755C49.4605 62.8173 51.5327 63.2712 53.624 63.4389V81.1952H47.4717ZM82.6511 67.9528C82.4572 68.1466 82.1993 68.2534 81.9253 68.2534C81.6513 68.2534 81.3934 68.1466 81.2 67.9528L70.8121 57.5643C71.0637 57.3341 71.3115 57.0991 71.5544 56.8561C71.7969 56.6137 72.033 56.3664 72.2631 56.1138L82.65 66.5028C83.05 66.9028 83.0505 67.5538 82.6511 67.9528V67.9528Z" fill="black"/>
<path d="M59.0929 82.599C58.5268 82.599 58.0675 83.0578 58.0675 83.6244V85.9492H17.0508V35.5149C17.0508 34.9483 16.592 34.4895 16.0254 34.4895C15.4593 34.4895 15 34.9483 15 35.5149V86.9745C15 87.5412 15.4593 87.9999 16.0254 87.9999H59.0929C59.6595 87.9999 60.1183 87.5412 60.1183 86.9745V83.6244C60.1183 83.0578 59.6595 82.599 59.0929 82.599V82.599Z" fill="black"/>
<path d="M19.4434 60.0677V82.2199C19.4434 82.786 19.9026 83.2453 20.4688 83.2453H28.6724C29.2385 83.2453 29.6978 82.786 29.6978 82.2199V60.0677C29.6978 59.5016 29.2385 59.0424 28.6724 59.0424H20.4688C19.9026 59.0424 19.4434 59.5016 19.4434 60.0677V60.0677ZM21.4941 61.0937H27.647V81.194H21.4941V61.0937Z" fill="black"/>
<path d="M29.7768 46.736C30.3435 46.736 30.8022 46.2767 30.8022 45.7101C30.8022 45.144 30.3435 44.6847 29.7768 44.6847H22.1094C21.5433 44.6847 21.084 45.144 21.084 45.7101C21.084 46.2767 21.5433 46.736 22.1094 46.736H29.7768Z" fill="black"/>
<path d="M55.4581 22.1C50.4678 22.1 45.7809 24.0386 42.2615 27.5586C38.7421 31.0786 36.8034 35.766 36.8034 40.7567C36.8034 45.7475 38.7421 50.4349 42.2615 53.9549C45.7815 57.4749 50.4678 59.4135 55.4581 59.4135C60.4483 59.4135 65.1347 57.4749 68.6546 53.9549C72.1741 50.4349 74.1122 45.7475 74.1122 40.7567C74.1122 35.766 72.1741 31.0786 68.6546 27.5586C65.1347 24.0386 60.4483 22.1 55.4581 22.1V22.1ZM67.2041 52.5044C64.0719 55.6372 59.9004 57.3622 55.4581 57.3622C51.0152 57.3622 46.8443 55.6372 43.712 52.5044C40.5792 49.3716 38.8542 45.1996 38.8542 40.7567C38.8542 36.3134 40.5792 32.1413 43.712 29.0085C46.95 25.77 51.2043 24.1502 55.4581 24.1502C59.7118 24.1502 63.9661 25.77 67.2041 29.0085C70.3364 32.1413 72.0614 36.3134 72.0614 40.7567C72.0614 45.1996 70.3364 49.3716 67.2041 52.5044V52.5044Z" fill="black"/>
<path d="M715.762 105.41H718.967C719.67 105.41 720.258 105.477 720.73 105.609C721.207 105.738 721.584 106.021 721.861 106.459C722.139 106.893 722.277 107.379 722.277 107.918C722.277 108.785 722.002 109.443 721.451 109.893C720.9 110.342 720.104 110.566 719.061 110.566H716.898V114H715.762V105.41ZM716.898 109.547H719.072C719.803 109.547 720.322 109.41 720.631 109.137C720.943 108.863 721.1 108.469 721.1 107.953C721.1 107.609 721.014 107.305 720.842 107.039C720.67 106.773 720.451 106.605 720.186 106.535C719.924 106.465 719.545 106.43 719.049 106.43H716.898V109.547ZM726.848 108.791C726.691 108.744 726.467 108.721 726.174 108.721C725.611 108.721 725.129 109.016 724.727 109.605V114H723.619V107.783H724.727V108.65C725.191 107.979 725.73 107.643 726.344 107.643C726.5 107.643 726.668 107.658 726.848 107.689V108.791ZM730.135 107.643C731.021 107.643 731.729 107.926 732.256 108.492C732.787 109.059 733.053 109.859 733.053 110.895C733.053 111.926 732.787 112.727 732.256 113.297C731.729 113.863 731.021 114.146 730.135 114.146C729.252 114.146 728.545 113.863 728.014 113.297C727.486 112.727 727.223 111.926 727.223 110.895C727.223 109.859 727.486 109.059 728.014 108.492C728.545 107.926 729.252 107.643 730.135 107.643ZM730.135 113.279C730.662 113.279 731.09 113.08 731.418 112.682C731.746 112.279 731.91 111.684 731.91 110.895C731.91 110.102 731.746 109.506 731.418 109.107C731.09 108.705 730.662 108.504 730.135 108.504C729.607 108.504 729.18 108.705 728.852 109.107C728.523 109.506 728.359 110.102 728.359 110.895C728.359 111.684 728.523 112.279 728.852 112.682C729.18 113.08 729.607 113.279 730.135 113.279ZM736.709 114.012C736.467 114.059 736.203 114.082 735.918 114.082C735.465 114.082 735.133 114.002 734.922 113.842C734.711 113.678 734.58 113.469 734.529 113.215C734.479 112.961 734.453 112.615 734.453 112.178V108.65H733.686V107.783H734.453V106.236H735.555V107.783H736.562V108.65H735.555V112.236C735.555 112.662 735.607 112.934 735.713 113.051C735.822 113.164 735.971 113.221 736.158 113.221C736.35 113.221 736.533 113.205 736.709 113.174V114.012ZM740.154 107.643C741.041 107.643 741.748 107.926 742.275 108.492C742.807 109.059 743.072 109.859 743.072 110.895C743.072 111.926 742.807 112.727 742.275 113.297C741.748 113.863 741.041 114.146 740.154 114.146C739.271 114.146 738.564 113.863 738.033 113.297C737.506 112.727 737.242 111.926 737.242 110.895C737.242 109.859 737.506 109.059 738.033 108.492C738.564 107.926 739.271 107.643 740.154 107.643ZM740.154 113.279C740.682 113.279 741.109 113.08 741.438 112.682C741.766 112.279 741.93 111.684 741.93 110.895C741.93 110.102 741.766 109.506 741.438 109.107C741.109 108.705 740.682 108.504 740.154 108.504C739.627 108.504 739.199 108.705 738.871 109.107C738.543 109.506 738.379 110.102 738.379 110.895C738.379 111.684 738.543 112.279 738.871 112.682C739.199 113.08 739.627 113.279 740.154 113.279ZM746.729 114.012C746.486 114.059 746.223 114.082 745.938 114.082C745.484 114.082 745.152 114.002 744.941 113.842C744.73 113.678 744.6 113.469 744.549 113.215C744.498 112.961 744.473 112.615 744.473 112.178V108.65H743.705V107.783H744.473V106.236H745.574V107.783H746.582V108.65H745.574V112.236C745.574 112.662 745.627 112.934 745.732 113.051C745.842 113.164 745.99 113.221 746.178 113.221C746.369 113.221 746.553 113.205 746.729 113.174V114.012ZM748.006 115.5C748.553 115.5 749 115 749.348 114L746.998 107.783H748.193L749.84 112.646L751.486 107.783H752.682L750.332 114C750.105 114.594 749.912 115.051 749.752 115.371C749.596 115.695 749.389 115.967 749.131 116.186C748.877 116.408 748.564 116.52 748.193 116.52C747.916 116.52 747.678 116.492 747.479 116.438V115.418C747.65 115.473 747.826 115.5 748.006 115.5ZM754.762 108.527C755.254 107.938 755.846 107.643 756.537 107.643C757.35 107.643 757.979 107.932 758.424 108.51C758.869 109.084 759.092 109.861 759.092 110.842C759.092 111.861 758.842 112.668 758.342 113.262C757.846 113.852 757.219 114.146 756.461 114.146C755.789 114.146 755.223 113.938 754.762 113.52V116.391H753.654V107.783H754.762V108.527ZM754.762 112.523C755.234 113.027 755.777 113.279 756.391 113.279C756.867 113.279 757.246 113.076 757.527 112.67C757.809 112.26 757.949 111.65 757.949 110.842C757.949 110.076 757.816 109.496 757.551 109.102C757.285 108.703 756.914 108.504 756.438 108.504C755.824 108.504 755.266 108.859 754.762 109.57V112.523ZM762.977 114.146C762.062 114.146 761.328 113.861 760.773 113.291C760.219 112.717 759.941 111.918 759.941 110.895C759.941 109.879 760.209 109.084 760.744 108.51C761.283 107.932 761.986 107.643 762.854 107.643C763.74 107.643 764.447 107.926 764.975 108.492C765.506 109.059 765.771 109.859 765.771 110.895V111.158H761.09C761.137 111.877 761.334 112.41 761.682 112.758C762.033 113.105 762.465 113.279 762.977 113.279C763.363 113.279 763.711 113.182 764.02 112.986C764.332 112.787 764.496 112.506 764.512 112.143H765.654C765.568 112.783 765.277 113.277 764.781 113.625C764.289 113.973 763.688 114.146 762.977 114.146ZM764.605 110.291C764.516 109.693 764.314 109.246 764.002 108.949C763.689 108.652 763.307 108.504 762.854 108.504C762.412 108.504 762.033 108.652 761.717 108.949C761.4 109.242 761.199 109.689 761.113 110.291H764.605Z" fill="black"/>
<path d="M756.039 18H725.961C723.134 18 720.834 20.2999 720.834 23.127V82.873C720.834 85.7001 723.134 88 725.961 88H756.039C758.866 88 761.166 85.7001 761.166 82.873V23.127C761.166 20.2999 758.866 18 756.039 18ZM759.115 73.6445H730.062C729.496 73.6445 729.037 74.1036 729.037 74.6699C729.037 75.2362 729.496 75.6953 730.062 75.6953H759.115V82.873C759.115 84.5693 757.735 85.9492 756.039 85.9492H725.961C724.265 85.9492 722.885 84.5693 722.885 82.873V75.6953H725.961C726.527 75.6953 726.986 75.2362 726.986 74.6699C726.986 74.1036 726.527 73.6445 725.961 73.6445H722.885V28.2539H759.115V73.6445ZM759.115 26.2031H722.885V23.127C722.885 21.4307 724.265 20.0508 725.961 20.0508H756.039C757.735 20.0508 759.115 21.4307 759.115 23.127V26.2031Z" fill="black"/>
<path d="M745.102 22.1016H741C740.434 22.1016 739.975 22.5607 739.975 23.127C739.975 23.6932 740.434 24.1523 741 24.1523H745.102C745.668 24.1523 746.127 23.6932 746.127 23.127C746.127 22.5607 745.668 22.1016 745.102 22.1016Z" fill="black"/>
<path d="M741 77.7461C739.304 77.7461 737.924 79.126 737.924 80.8223C737.924 82.5185 739.304 83.8984 741 83.8984C742.696 83.8984 744.076 82.5185 744.076 80.8223C744.076 79.126 742.696 77.7461 741 77.7461ZM741 81.8477C740.435 81.8477 739.975 81.3877 739.975 80.8223C739.975 80.2568 740.435 79.7969 741 79.7969C741.565 79.7969 742.025 80.2568 742.025 80.8223C742.025 81.3877 741.565 81.8477 741 81.8477Z" fill="black"/>
<path d="M736.898 24.1523C737.465 24.1523 737.924 23.6933 737.924 23.127C737.924 22.5606 737.465 22.1016 736.898 22.1016C736.332 22.1016 735.873 22.5606 735.873 23.127C735.873 23.6933 736.332 24.1523 736.898 24.1523Z" fill="black"/>
<g clip-path="url(#clip0)">
<path d="M430 65.0093L413.598 47.5186V58.8565H407C407.694 56.8904 408.5 54.6048 408.5 52.5C408.5 42.3221 401.215 34.2454 391.037 34.2454C380.859 34.2454 372.579 42.5258 372.579 52.7037C372.579 54.8602 372.952 56.9311 373.635 58.8565H360V71.1621H413.598V82.5L430 65.0093ZM362.5 68.72V61.22H374.5C375.5 63.72 378 67.22 381.5 68.72H362.5ZM388.5 68.72C380.584 68.72 375 60.6199 375 52.7037C375 44.7876 381.5 36 391.037 36.5C398.953 36.5 406.5 43.239 406.5 52.5C406.5 54.636 405.407 56.9442 404.5 58.8565H397C399 57.5 400 55.0105 400 52.7037C400 48 397.051 43.72 391.037 43.72C385.5 43.72 382 47.5186 382 52.22C382 57.8744 385.383 61.22 391.037 61.22H416V53.72L426.5 65.0093L416 76.72V68.72H388.5ZM391.037 58.8565C387 58.8565 384.5 56.0964 384.5 52.7037C384.5 48 387.5 46 391.037 46C395 46 397.5 49.1074 397.5 52.5C397.5 55.8926 394.43 58.8565 391.037 58.8565Z" fill="black"/>
<path d="M388.986 22.7198H391.036V30.9236H388.986V22.7198Z" fill="black"/>
<path d="M377.374 25.8413L379.273 25.0544L382.415 32.6346L380.516 33.4215L377.374 25.8413Z" fill="black"/>
<path d="M367.831 33.1803L369.285 31.7272L375.085 37.5272L373.631 38.9803L367.831 33.1803Z" fill="black"/>
<path d="M397.789 31.8545L400.931 24.2743L402.825 25.0592L399.683 32.6395L397.789 31.8545Z" fill="black"/>
<path d="M405.533 36.0845L411.333 30.2845L412.783 31.734L406.983 37.534L405.533 36.0845Z" fill="black"/>
</g>
<path d="M376.006 114H374.863V105.41H376.006V114ZM380.33 114.012C380.088 114.059 379.824 114.082 379.539 114.082C379.086 114.082 378.754 114.002 378.543 113.842C378.332 113.678 378.201 113.469 378.15 113.215C378.1 112.961 378.074 112.615 378.074 112.178V108.65H377.307V107.783H378.074V106.236H379.176V107.783H380.184V108.65H379.176V112.236C379.176 112.662 379.229 112.934 379.334 113.051C379.443 113.164 379.592 113.221 379.779 113.221C379.971 113.221 380.154 113.205 380.33 113.174V114.012ZM383.898 114.146C382.984 114.146 382.25 113.861 381.695 113.291C381.141 112.717 380.863 111.918 380.863 110.895C380.863 109.879 381.131 109.084 381.666 108.51C382.205 107.932 382.908 107.643 383.775 107.643C384.662 107.643 385.369 107.926 385.896 108.492C386.428 109.059 386.693 109.859 386.693 110.895V111.158H382.012C382.059 111.877 382.256 112.41 382.604 112.758C382.955 113.105 383.387 113.279 383.898 113.279C384.285 113.279 384.633 113.182 384.941 112.986C385.254 112.787 385.418 112.506 385.434 112.143H386.576C386.49 112.783 386.199 113.277 385.703 113.625C385.211 113.973 384.609 114.146 383.898 114.146ZM385.527 110.291C385.438 109.693 385.236 109.246 384.924 108.949C384.611 108.652 384.229 108.504 383.775 108.504C383.334 108.504 382.955 108.652 382.639 108.949C382.322 109.242 382.121 109.689 382.035 110.291H385.527ZM391.164 108.791C391.008 108.744 390.783 108.721 390.49 108.721C389.928 108.721 389.445 109.016 389.043 109.605V114H387.936V107.783H389.043V108.65C389.508 107.979 390.047 107.643 390.66 107.643C390.816 107.643 390.984 107.658 391.164 107.689V108.791ZM395.869 112.365V110.988H395.113C393.512 110.988 392.711 111.424 392.711 112.295C392.711 112.611 392.828 112.855 393.062 113.027C393.297 113.195 393.613 113.279 394.012 113.279C394.375 113.279 394.727 113.197 395.066 113.033C395.406 112.869 395.674 112.646 395.869 112.365ZM395.869 113.361C395.307 113.885 394.582 114.146 393.695 114.146C393.078 114.146 392.57 113.98 392.172 113.648C391.773 113.312 391.574 112.881 391.574 112.354C391.574 110.9 392.826 110.174 395.33 110.174H395.869C395.869 109.729 395.846 109.406 395.799 109.207C395.752 109.004 395.621 108.836 395.406 108.703C395.191 108.57 394.85 108.504 394.381 108.504C393.396 108.504 392.889 108.855 392.857 109.559H391.756C391.838 108.281 392.732 107.643 394.439 107.643C395.236 107.643 395.857 107.801 396.303 108.117C396.748 108.434 396.971 109.055 396.971 109.98V114H395.869V113.361ZM401.025 114.012C400.783 114.059 400.52 114.082 400.234 114.082C399.781 114.082 399.449 114.002 399.238 113.842C399.027 113.678 398.896 113.469 398.846 113.215C398.795 112.961 398.77 112.615 398.77 112.178V108.65H398.002V107.783H398.77V106.236H399.871V107.783H400.879V108.65H399.871V112.236C399.871 112.662 399.924 112.934 400.029 113.051C400.139 113.164 400.287 113.221 400.475 113.221C400.666 113.221 400.85 113.205 401.025 113.174V114.012ZM403.059 114H401.951V107.783H403.059V114ZM403.059 106.605H401.951V105.41H403.059V106.605ZM407.213 107.643C408.1 107.643 408.807 107.926 409.334 108.492C409.865 109.059 410.131 109.859 410.131 110.895C410.131 111.926 409.865 112.727 409.334 113.297C408.807 113.863 408.1 114.146 407.213 114.146C406.33 114.146 405.623 113.863 405.092 113.297C404.564 112.727 404.301 111.926 404.301 110.895C404.301 109.859 404.564 109.059 405.092 108.492C405.623 107.926 406.33 107.643 407.213 107.643ZM407.213 113.279C407.74 113.279 408.168 113.08 408.496 112.682C408.824 112.279 408.988 111.684 408.988 110.895C408.988 110.102 408.824 109.506 408.496 109.107C408.168 108.705 407.74 108.504 407.213 108.504C406.686 108.504 406.258 108.705 405.93 109.107C405.602 109.506 405.438 110.102 405.438 110.895C405.438 111.684 405.602 112.279 405.93 112.682C406.258 113.08 406.686 113.279 407.213 113.279ZM412.48 108.574C413.031 107.953 413.65 107.643 414.338 107.643C415.74 107.643 416.441 108.406 416.441 109.934V114H415.334V109.98C415.334 109.473 415.242 109.107 415.059 108.885C414.879 108.662 414.582 108.551 414.168 108.551C413.605 108.551 413.043 108.883 412.48 109.547V114H411.373V107.783H412.48V108.574Z" fill="black"/>
<path d="M536.834 114.146C535.838 114.146 535.092 113.953 534.596 113.566C534.104 113.18 533.791 112.725 533.658 112.201C533.529 111.678 533.465 111.07 533.465 110.379V105.41H534.602V110.361C534.602 111.49 534.791 112.232 535.17 112.588C535.549 112.943 536.104 113.121 536.834 113.121C537.564 113.121 538.119 112.943 538.498 112.588C538.877 112.232 539.066 111.49 539.066 110.361V105.41H540.209V110.379C540.209 111.418 540.084 112.184 539.834 112.676C539.588 113.168 539.215 113.537 538.715 113.783C538.215 114.025 537.588 114.146 536.834 114.146ZM544.211 114.146C542.512 114.146 541.623 113.479 541.545 112.143H542.652C542.66 112.9 543.176 113.279 544.199 113.279C544.656 113.279 545.004 113.186 545.242 112.998C545.484 112.807 545.605 112.568 545.605 112.283C545.605 112.002 545.488 111.805 545.254 111.691C545.02 111.574 544.535 111.424 543.801 111.24C543.07 111.057 542.535 110.852 542.195 110.625C541.859 110.398 541.691 110 541.691 109.43C541.691 108.914 541.9 108.488 542.318 108.152C542.74 107.812 543.303 107.643 544.006 107.643C545.635 107.643 546.467 108.223 546.502 109.383H545.4C545.361 108.797 544.922 108.504 544.082 108.504C543.711 108.504 543.402 108.574 543.156 108.715C542.914 108.855 542.793 109.061 542.793 109.33C542.793 109.572 542.887 109.748 543.074 109.857C543.262 109.963 543.73 110.107 544.48 110.291C545.234 110.471 545.793 110.682 546.156 110.924C546.523 111.166 546.707 111.584 546.707 112.178C546.707 112.744 546.48 113.215 546.027 113.59C545.578 113.961 544.973 114.146 544.211 114.146ZM550.633 114.146C549.719 114.146 548.984 113.861 548.43 113.291C547.875 112.717 547.598 111.918 547.598 110.895C547.598 109.879 547.865 109.084 548.4 108.51C548.939 107.932 549.643 107.643 550.51 107.643C551.396 107.643 552.104 107.926 552.631 108.492C553.162 109.059 553.428 109.859 553.428 110.895V111.158H548.746C548.793 111.877 548.99 112.41 549.338 112.758C549.689 113.105 550.121 113.279 550.633 113.279C551.02 113.279 551.367 113.182 551.676 112.986C551.988 112.787 552.152 112.506 552.168 112.143H553.311C553.225 112.783 552.934 113.277 552.438 113.625C551.945 113.973 551.344 114.146 550.633 114.146ZM552.262 110.291C552.172 109.693 551.971 109.246 551.658 108.949C551.346 108.652 550.963 108.504 550.51 108.504C550.068 108.504 549.689 108.652 549.373 108.949C549.057 109.242 548.855 109.689 548.77 110.291H552.262ZM557.898 108.791C557.742 108.744 557.518 108.721 557.225 108.721C556.662 108.721 556.18 109.016 555.777 109.605V114H554.67V107.783H555.777V108.65C556.242 107.979 556.781 107.643 557.395 107.643C557.551 107.643 557.719 107.658 557.898 107.689V108.791ZM568.105 106.43H565.264V114H564.121V106.43H561.303V105.41H568.105V106.43ZM571.832 114.146C570.918 114.146 570.184 113.861 569.629 113.291C569.074 112.717 568.797 111.918 568.797 110.895C568.797 109.879 569.064 109.084 569.6 108.51C570.139 107.932 570.842 107.643 571.709 107.643C572.596 107.643 573.303 107.926 573.83 108.492C574.361 109.059 574.627 109.859 574.627 110.895V111.158H569.945C569.992 111.877 570.189 112.41 570.537 112.758C570.889 113.105 571.32 113.279 571.832 113.279C572.219 113.279 572.566 113.182 572.875 112.986C573.188 112.787 573.352 112.506 573.367 112.143H574.51C574.424 112.783 574.133 113.277 573.637 113.625C573.145 113.973 572.543 114.146 571.832 114.146ZM573.461 110.291C573.371 109.693 573.17 109.246 572.857 108.949C572.545 108.652 572.162 108.504 571.709 108.504C571.268 108.504 570.889 108.652 570.572 108.949C570.256 109.242 570.055 109.689 569.969 110.291H573.461ZM578.09 114.146C576.391 114.146 575.502 113.479 575.424 112.143H576.531C576.539 112.9 577.055 113.279 578.078 113.279C578.535 113.279 578.883 113.186 579.121 112.998C579.363 112.807 579.484 112.568 579.484 112.283C579.484 112.002 579.367 111.805 579.133 111.691C578.898 111.574 578.414 111.424 577.68 111.24C576.949 111.057 576.414 110.852 576.074 110.625C575.738 110.398 575.57 110 575.57 109.43C575.57 108.914 575.779 108.488 576.197 108.152C576.619 107.812 577.182 107.643 577.885 107.643C579.514 107.643 580.346 108.223 580.381 109.383H579.279C579.24 108.797 578.801 108.504 577.961 108.504C577.59 108.504 577.281 108.574 577.035 108.715C576.793 108.855 576.672 109.061 576.672 109.33C576.672 109.572 576.766 109.748 576.953 109.857C577.141 109.963 577.609 110.107 578.359 110.291C579.113 110.471 579.672 110.682 580.035 110.924C580.402 111.166 580.586 111.584 580.586 112.178C580.586 112.744 580.359 113.215 579.906 113.59C579.457 113.961 578.852 114.146 578.09 114.146ZM584.283 114.012C584.041 114.059 583.777 114.082 583.492 114.082C583.039 114.082 582.707 114.002 582.496 113.842C582.285 113.678 582.154 113.469 582.104 113.215C582.053 112.961 582.027 112.615 582.027 112.178V108.65H581.26V107.783H582.027V106.236H583.129V107.783H584.137V108.65H583.129V112.236C583.129 112.662 583.182 112.934 583.287 113.051C583.396 113.164 583.545 113.221 583.732 113.221C583.924 113.221 584.107 113.205 584.283 113.174V114.012ZM586.316 114H585.209V107.783H586.316V114ZM586.316 106.605H585.209V105.41H586.316V106.605ZM589.059 108.574C589.609 107.953 590.229 107.643 590.916 107.643C592.318 107.643 593.02 108.406 593.02 109.934V114H591.912V109.98C591.912 109.473 591.82 109.107 591.637 108.885C591.457 108.662 591.16 108.551 590.746 108.551C590.184 108.551 589.621 108.883 589.059 109.547V114H587.951V107.783H589.059V108.574ZM599.67 113.52C599.67 115.52 598.768 116.52 596.963 116.52C596.182 116.52 595.564 116.35 595.111 116.01C594.662 115.67 594.438 115.213 594.438 114.639H595.58C595.58 115.318 596.037 115.658 596.951 115.658C597.467 115.658 597.865 115.516 598.146 115.23C598.428 114.949 598.568 114.395 598.568 113.566V113.256C598.076 113.85 597.484 114.146 596.793 114.146C595.98 114.146 595.352 113.857 594.906 113.279C594.461 112.701 594.238 111.922 594.238 110.941C594.238 109.926 594.486 109.123 594.982 108.533C595.482 107.939 596.109 107.643 596.863 107.643C597.535 107.643 598.104 107.85 598.568 108.264V107.783H599.67V113.52ZM598.568 112.213V109.26C598.092 108.756 597.547 108.504 596.934 108.504C596.461 108.504 596.082 108.709 595.797 109.119C595.516 109.525 595.375 110.133 595.375 110.941C595.375 111.707 595.508 112.289 595.773 112.688C596.043 113.082 596.414 113.279 596.887 113.279C597.504 113.279 598.064 112.924 598.568 112.213Z" fill="black"/>
<g clip-path="url(#clip1)">
<path d="M555.505 72.3561C556.123 71.2558 556.477 69.9884 556.477 68.6392V65.5141C556.477 61.314 553.06 57.897 548.859 57.897C544.659 57.897 541.242 61.314 541.242 65.5141V68.6392C541.242 69.9884 541.596 71.2559 542.214 72.3562C538.693 74.6151 536.555 78.4678 536.555 82.7016V86.6329C536.555 87.388 537.167 88.0001 537.922 88.0001H559.797C560.552 88.0001 561.164 87.388 561.164 86.6329V82.7016C561.164 78.4692 559.026 74.6151 555.505 72.3561V72.3561ZM543.977 65.5141C543.977 62.8217 546.167 60.6313 548.859 60.6313C551.552 60.6313 553.742 62.8217 553.742 65.5141V68.6392C553.742 71.3316 551.552 73.522 548.859 73.522C546.167 73.522 543.976 71.3316 543.976 68.6392V65.5141H543.977ZM558.43 85.2657H539.289V82.7016C539.289 79.2988 541.068 76.2111 543.978 74.4807C545.301 75.5881 547.003 76.2564 548.859 76.2564C550.716 76.2564 552.418 75.5881 553.741 74.4807C556.65 76.2113 558.43 79.3 558.43 82.7016V85.2657Z" fill="black"/>
<path d="M572.475 44.2955C573.058 43.4204 574.192 42.2469 575.224 41.2143C576.184 40.2549 576.937 39.13 577.463 37.871C577.988 36.6138 578.254 35.2905 578.254 33.938C578.254 31.1995 577.187 28.6245 575.25 26.6876C573.313 24.7507 570.739 23.6842 568 23.6842C565.261 23.6842 562.686 24.7509 560.75 26.6876C558.813 28.6245 557.746 31.1994 557.746 33.938C557.746 36.1996 559.586 38.0395 561.848 38.0395C564.109 38.0395 565.949 36.1996 565.949 33.938C565.949 33.39 566.162 32.875 566.55 32.4878C566.937 32.1005 567.452 31.8873 568 31.8873C568.548 31.8873 569.063 32.1006 569.45 32.4878C569.838 32.875 570.051 33.39 570.051 33.938C570.051 34.2165 569.999 34.4806 569.898 34.7236C569.795 34.9707 569.635 35.2032 569.424 35.4141C567.56 37.2783 566.466 38.5399 565.649 39.7688C564.455 41.5635 563.898 43.2663 563.898 45.1274C563.898 46.1772 564.295 47.1357 564.946 47.862C564.295 48.5883 563.898 49.5471 563.898 50.5974C563.898 52.859 565.738 54.699 568 54.699C570.262 54.699 572.102 52.859 572.102 50.5974V50.5963C572.102 49.5466 571.705 48.5881 571.054 47.862C571.705 47.1357 572.102 46.1772 572.102 45.1276C572.102 45.0041 572.167 44.7598 572.475 44.2955ZM567.925 41.2833C568.636 40.2154 569.63 39.0752 571.358 37.3476C571.822 36.8833 572.18 36.3549 572.421 35.7774C572.663 35.1991 572.785 34.5801 572.785 33.9378C572.785 32.6594 572.288 31.4578 571.384 30.554C570.48 29.6505 569.278 29.1527 568 29.1527C566.722 29.1527 565.52 29.6503 564.616 30.554C563.713 31.4578 563.215 32.6594 563.215 33.9378C563.215 34.6917 562.602 35.305 561.848 35.305C561.094 35.305 560.481 34.6917 560.481 33.9378C560.481 31.9296 561.263 30.0414 562.683 28.621C564.104 27.2006 565.992 26.4183 568 26.4183C570.008 26.4183 571.897 27.2006 573.317 28.6208C574.737 30.0414 575.52 31.9296 575.52 33.9377C575.52 34.9266 575.324 35.8952 574.94 36.8169C574.552 37.7456 573.997 38.5745 573.291 39.2807C571.671 40.9005 570.775 41.9145 570.199 42.7807C569.632 43.6334 569.367 44.379 569.367 45.1273C569.367 45.8812 568.754 46.4945 568 46.4945C567.246 46.4945 566.633 45.8812 566.633 45.1273C566.633 43.8122 567.032 42.6267 567.925 41.2833V41.2833ZM569.367 50.5973C569.367 51.3511 568.754 51.9645 568 51.9645C567.246 51.9645 566.633 51.3511 566.633 50.5962C566.633 49.8423 567.246 49.229 568 49.229C568.754 49.229 569.367 49.8423 569.367 50.5962V50.5973Z" fill="black"/>
<path d="M589.191 39.1913C589.191 27.5063 579.685 18 568 18C564.594 18 561.34 18.7842 558.329 20.331C557.657 20.6761 557.393 21.5003 557.738 22.172C558.083 22.8435 558.907 23.1083 559.579 22.7633C562.199 21.417 565.032 20.7344 568 20.7344C578.177 20.7344 586.457 29.0142 586.457 39.1913C586.457 49.3685 578.177 57.6483 568 57.6483C557.823 57.6483 549.543 49.3685 549.543 39.1913C549.543 36.2234 550.226 33.3895 551.572 30.7689C551.917 30.0972 551.653 29.2731 550.981 28.928C550.31 28.5829 549.485 28.8476 549.14 29.5192C547.593 32.5303 546.809 35.7844 546.809 39.1913C546.809 50.8762 556.315 60.3826 568 60.3826C579.685 60.3826 589.191 50.8764 589.191 39.1913Z" fill="black"/>
<path d="M593.786 72.3561C594.404 71.2558 594.758 69.9884 594.758 68.6392V65.5141C594.758 61.314 591.341 57.897 587.141 57.897C582.94 57.897 579.523 61.314 579.523 65.5141V68.6392C579.523 69.9884 579.878 71.2559 580.496 72.3562C576.974 74.6151 574.836 78.4678 574.836 82.7016V86.6329C574.836 87.388 575.448 88.0001 576.203 88.0001H598.078C598.833 88.0001 599.445 87.388 599.445 86.6329V82.7016C599.445 78.4692 597.307 74.6151 593.786 72.3561V72.3561ZM582.258 65.5141C582.258 62.8217 584.448 60.6313 587.14 60.6313C589.833 60.6313 592.023 62.8217 592.023 65.5141V68.6392C592.023 71.3316 589.833 73.522 587.14 73.522C584.448 73.522 582.258 71.3316 582.258 68.6392V65.5141H582.258ZM596.711 85.2657H577.57V82.7016C577.57 79.2988 579.349 76.2111 582.259 74.4807C583.582 75.5881 585.284 76.2564 587.141 76.2564C588.997 76.2564 590.7 75.5881 592.022 74.4807C594.932 76.2113 596.711 79.3 596.711 82.7016V85.2657Z" fill="black"/>
<path d="M553.982 26.5408C554.354 26.5408 554.724 26.3899 554.994 26.0933L554.995 26.0926C555.503 25.534 555.461 24.6696 554.902 24.1617C554.344 23.6538 553.479 23.6952 552.971 24.254C552.463 24.8126 552.504 25.6774 553.063 26.1853C553.325 26.4233 553.654 26.5408 553.982 26.5408V26.5408Z" fill="black"/>
</g>
<path d="M175.811 114H174.668V105.41H175.811V114ZM178.828 108.574C179.379 107.953 179.998 107.643 180.686 107.643C182.088 107.643 182.789 108.406 182.789 109.934V114H181.682V109.98C181.682 109.473 181.59 109.107 181.406 108.885C181.227 108.662 180.93 108.551 180.516 108.551C179.953 108.551 179.391 108.883 178.828 109.547V114H177.721V107.783H178.828V108.574ZM186.814 114.012C186.572 114.059 186.309 114.082 186.023 114.082C185.57 114.082 185.238 114.002 185.027 113.842C184.816 113.678 184.686 113.469 184.635 113.215C184.584 112.961 184.559 112.615 184.559 112.178V108.65H183.791V107.783H184.559V106.236H185.66V107.783H186.668V108.65H185.66V112.236C185.66 112.662 185.713 112.934 185.818 113.051C185.928 113.164 186.076 113.221 186.264 113.221C186.455 113.221 186.639 113.205 186.814 113.174V114.012ZM190.383 114.146C189.469 114.146 188.734 113.861 188.18 113.291C187.625 112.717 187.348 111.918 187.348 110.895C187.348 109.879 187.615 109.084 188.15 108.51C188.689 107.932 189.393 107.643 190.26 107.643C191.146 107.643 191.854 107.926 192.381 108.492C192.912 109.059 193.178 109.859 193.178 110.895V111.158H188.496C188.543 111.877 188.74 112.41 189.088 112.758C189.439 113.105 189.871 113.279 190.383 113.279C190.77 113.279 191.117 113.182 191.426 112.986C191.738 112.787 191.902 112.506 191.918 112.143H193.061C192.975 112.783 192.684 113.277 192.188 113.625C191.695 113.973 191.094 114.146 190.383 114.146ZM192.012 110.291C191.922 109.693 191.721 109.246 191.408 108.949C191.096 108.652 190.713 108.504 190.26 108.504C189.818 108.504 189.439 108.652 189.123 108.949C188.807 109.242 188.605 109.689 188.52 110.291H192.012ZM197.648 108.791C197.492 108.744 197.268 108.721 196.975 108.721C196.412 108.721 195.93 109.016 195.527 109.605V114H194.42V107.783H195.527V108.65C195.992 107.979 196.531 107.643 197.145 107.643C197.301 107.643 197.469 107.658 197.648 107.689V108.791ZM203.443 107.783L201.094 114H200.109L197.76 107.783H198.955L200.602 112.646L202.248 107.783H203.443ZM205.523 114H204.416V107.783H205.523V114ZM205.523 106.605H204.416V105.41H205.523V106.605ZM209.801 114.146C208.887 114.146 208.152 113.861 207.598 113.291C207.043 112.717 206.766 111.918 206.766 110.895C206.766 109.879 207.033 109.084 207.568 108.51C208.107 107.932 208.811 107.643 209.678 107.643C210.564 107.643 211.271 107.926 211.799 108.492C212.33 109.059 212.596 109.859 212.596 110.895V111.158H207.914C207.961 111.877 208.158 112.41 208.506 112.758C208.857 113.105 209.289 113.279 209.801 113.279C210.188 113.279 210.535 113.182 210.844 112.986C211.156 112.787 211.32 112.506 211.336 112.143H212.479C212.393 112.783 212.102 113.277 211.605 113.625C211.113 113.973 210.512 114.146 209.801 114.146ZM211.43 110.291C211.34 109.693 211.139 109.246 210.826 108.949C210.514 108.652 210.131 108.504 209.678 108.504C209.236 108.504 208.857 108.652 208.541 108.949C208.225 109.242 208.023 109.689 207.938 110.291H211.43ZM221.625 107.783L219.756 114H218.701L217.354 109.43L216.012 114H214.957L213.082 107.783H214.307L215.449 112.523L216.85 107.783H217.857L219.264 112.523L220.406 107.783H221.625ZM232.277 113.426L231.422 114.146L230.678 113.209C229.998 113.834 229.146 114.146 228.123 114.146C227.334 114.146 226.682 113.902 226.166 113.414C225.654 112.926 225.398 112.334 225.398 111.639C225.398 111.107 225.562 110.643 225.891 110.244C226.219 109.846 226.719 109.457 227.391 109.078C226.781 108.297 226.477 107.666 226.477 107.186C226.477 106.639 226.678 106.182 227.08 105.814C227.486 105.447 227.998 105.264 228.615 105.264C229.189 105.264 229.664 105.443 230.039 105.803C230.418 106.158 230.607 106.59 230.607 107.098C230.607 107.551 230.469 107.943 230.191 108.275C229.914 108.604 229.492 108.932 228.926 109.26L230.654 111.41C230.822 110.98 230.918 110.496 230.941 109.957H232.084C232.033 110.859 231.805 111.65 231.398 112.33L232.277 113.426ZM228.363 108.562C228.766 108.344 229.061 108.127 229.248 107.912C229.436 107.693 229.529 107.43 229.529 107.121C229.529 106.824 229.432 106.586 229.236 106.406C229.045 106.223 228.818 106.131 228.557 106.131C228.275 106.131 228.039 106.219 227.848 106.395C227.656 106.566 227.561 106.793 227.561 107.074C227.561 107.391 227.736 107.771 228.088 108.217L228.363 108.562ZM230.057 112.418L227.965 109.799C227.469 110.092 227.107 110.369 226.881 110.631C226.654 110.889 226.541 111.199 226.541 111.562C226.541 112 226.691 112.385 226.992 112.717C227.297 113.045 227.678 113.209 228.135 113.209C228.924 113.209 229.564 112.945 230.057 112.418ZM240.275 114.146C239.064 114.146 238.158 113.875 237.557 113.332C236.959 112.789 236.645 112.092 236.613 111.24H237.709C237.768 111.881 238.033 112.355 238.506 112.664C238.982 112.969 239.557 113.121 240.229 113.121C240.865 113.121 241.377 112.99 241.764 112.729C242.154 112.467 242.35 112.111 242.35 111.662C242.35 111.189 242.148 110.846 241.746 110.631C241.344 110.416 240.65 110.205 239.666 109.998C238.686 109.787 237.98 109.496 237.551 109.125C237.125 108.754 236.912 108.26 236.912 107.643C236.912 106.947 237.189 106.377 237.744 105.932C238.303 105.486 239.043 105.264 239.965 105.264C240.934 105.264 241.715 105.488 242.309 105.938C242.902 106.387 243.217 107.021 243.252 107.842H242.145C242.031 106.803 241.32 106.283 240.012 106.283C239.379 106.283 238.889 106.402 238.541 106.641C238.193 106.879 238.02 107.195 238.02 107.59C238.02 107.949 238.158 108.219 238.436 108.398C238.717 108.578 239.238 108.752 240 108.92C240.766 109.088 241.373 109.254 241.822 109.418C242.271 109.582 242.656 109.838 242.977 110.186C243.297 110.529 243.457 110.992 243.457 111.574C243.457 112.312 243.162 112.926 242.572 113.414C241.986 113.902 241.221 114.146 240.275 114.146ZM248.83 113.209C248.279 113.834 247.66 114.146 246.973 114.146C245.57 114.146 244.869 113.381 244.869 111.85V107.783H245.977V111.803C245.977 112.311 246.066 112.676 246.246 112.898C246.426 113.121 246.723 113.232 247.137 113.232C247.754 113.232 248.318 112.9 248.83 112.236V107.783H249.932V114H248.83V113.209ZM254.801 108.791C254.645 108.744 254.42 108.721 254.127 108.721C253.564 108.721 253.082 109.016 252.68 109.605V114H251.572V107.783H252.68V108.65C253.145 107.979 253.684 107.643 254.297 107.643C254.453 107.643 254.621 107.658 254.801 107.689V108.791ZM260.596 107.783L258.246 114H257.262L254.912 107.783H256.107L257.754 112.646L259.4 107.783H260.596ZM264.211 114.146C263.297 114.146 262.562 113.861 262.008 113.291C261.453 112.717 261.176 111.918 261.176 110.895C261.176 109.879 261.443 109.084 261.979 108.51C262.518 107.932 263.221 107.643 264.088 107.643C264.975 107.643 265.682 107.926 266.209 108.492C266.74 109.059 267.006 109.859 267.006 110.895V111.158H262.324C262.371 111.877 262.568 112.41 262.916 112.758C263.268 113.105 263.699 113.279 264.211 113.279C264.598 113.279 264.945 113.182 265.254 112.986C265.566 112.787 265.73 112.506 265.746 112.143H266.889C266.803 112.783 266.512 113.277 266.016 113.625C265.523 113.973 264.922 114.146 264.211 114.146ZM265.84 110.291C265.75 109.693 265.549 109.246 265.236 108.949C264.924 108.652 264.541 108.504 264.088 108.504C263.646 108.504 263.268 108.652 262.951 108.949C262.635 109.242 262.434 109.689 262.348 110.291H265.84ZM268.6 115.5C269.146 115.5 269.594 115 269.941 114L267.592 107.783H268.787L270.434 112.646L272.08 107.783H273.275L270.926 114C270.699 114.594 270.506 115.051 270.346 115.371C270.189 115.695 269.982 115.967 269.725 116.186C269.471 116.408 269.158 116.52 268.787 116.52C268.51 116.52 268.271 116.492 268.072 116.438V115.418C268.244 115.473 268.42 115.5 268.6 115.5Z" fill="black"/>
<g clip-path="url(#clip2)">
<path d="M230.876 41.3755H219.74C219.174 41.3755 218.715 40.9165 218.715 40.3501C218.715 39.7837 219.174 39.3247 219.74 39.3247H230.876C231.442 39.3247 231.901 39.7837 231.901 40.3501C231.901 40.9165 231.442 41.3755 230.876 41.3755Z" fill="black"/>
<path d="M242.011 36.1122H219.74C219.174 36.1122 218.715 35.6532 218.715 35.0868C218.715 34.5204 219.174 34.0614 219.74 34.0614H242.011C242.577 34.0614 243.036 34.5204 243.036 35.0868C243.036 35.6532 242.577 36.1122 242.011 36.1122Z" fill="black"/>
<path d="M230.876 58.5592H219.74C219.174 58.5592 218.715 58.1002 218.715 57.5338C218.715 56.9674 219.174 56.5084 219.74 56.5084H230.876C231.442 56.5084 231.901 56.9674 231.901 57.5338C231.901 58.1002 231.442 58.5592 230.876 58.5592Z" fill="black"/>
<path d="M242.011 53.2958H219.74C219.174 53.2958 218.715 52.8368 218.715 52.2704C218.715 51.704 219.174 51.245 219.74 51.245H242.011C242.577 51.245 243.036 51.704 243.036 52.2704C243.036 52.8368 242.577 53.2958 242.011 53.2958Z" fill="black"/>
<path d="M230.876 75.743H219.74C219.174 75.743 218.715 75.2841 218.715 74.7177C218.715 74.1512 219.174 73.6923 219.74 73.6923H230.876C231.442 73.6923 231.901 74.1512 231.901 74.7177C231.901 75.2841 231.442 75.743 230.876 75.743Z" fill="black"/>
<path d="M242.011 70.4796H219.74C219.174 70.4796 218.715 70.0206 218.715 69.4542C218.715 68.8878 219.174 68.4288 219.74 68.4288H242.011C242.577 68.4288 243.036 68.8878 243.036 69.4542C243.036 70.0206 242.577 70.4796 242.011 70.4796Z" fill="black"/>
<path d="M231.866 27.6593H214.134C212.448 27.6593 211.077 26.2882 211.077 24.6027V21.0568C211.077 19.3713 212.448 18 214.134 18H231.866C233.552 18 234.923 19.3713 234.923 21.0568V24.6027C234.923 26.2882 233.552 27.6593 231.866 27.6593ZM214.134 20.0508C213.579 20.0508 213.128 20.5021 213.128 21.0568V24.6027C213.128 25.1574 213.579 25.6085 214.134 25.6085H231.866C232.421 25.6085 232.872 25.1572 232.872 24.6027V21.0568C232.872 20.502 232.421 20.0508 231.866 20.0508H214.134Z" fill="black"/>
<path d="M210.274 42.7499H205.717C204.199 42.7499 202.964 41.515 202.964 39.997V35.4399C202.964 33.9219 204.199 32.6869 205.717 32.6869H210.274C211.792 32.6869 213.027 33.9219 213.027 35.4399V39.9971C213.027 41.515 211.792 42.7499 210.274 42.7499ZM205.717 34.7377C205.329 34.7377 205.014 35.0527 205.014 35.4399V39.9971C205.014 40.3843 205.329 40.6993 205.717 40.6993H210.274C210.661 40.6993 210.976 40.3843 210.976 39.9971V35.4399C210.976 35.0527 210.661 34.7377 210.274 34.7377H205.717Z" fill="black"/>
<path d="M210.274 59.9337H205.717C204.199 59.9337 202.964 58.6987 202.964 57.1807V52.6235C202.964 51.1055 204.199 49.8705 205.717 49.8705H210.274C211.792 49.8705 213.027 51.1055 213.027 52.6235V57.1807C213.027 58.6987 211.792 59.9337 210.274 59.9337ZM205.717 51.9213C205.329 51.9213 205.014 52.2363 205.014 52.6235V57.1807C205.014 57.5679 205.329 57.8829 205.717 57.8829H210.274C210.661 57.8829 210.976 57.5679 210.976 57.1807V52.6235C210.976 52.2363 210.661 51.9213 210.274 51.9213H205.717Z" fill="black"/>
<path d="M210.274 77.1175H205.717C204.199 77.1175 202.964 75.8825 202.964 74.3644V69.8073C202.964 68.2892 204.199 67.0542 205.717 67.0542H210.274C211.792 67.0542 213.027 68.2892 213.027 69.8073V74.3644C213.027 75.8825 211.792 77.1175 210.274 77.1175ZM205.717 69.1051C205.329 69.1051 205.014 69.4203 205.014 69.8074V74.3645C205.014 74.7517 205.329 75.0669 205.717 75.0669H210.274C210.661 75.0669 210.976 74.7517 210.976 74.3645V69.8074C210.976 69.4203 210.661 69.1051 210.274 69.1051H205.717Z" fill="black"/>
<path d="M244.814 88H201.186C198.737 88 196.744 86.0073 196.744 83.5579V26.2463C196.744 23.797 198.737 21.8043 201.186 21.8043H207.331C207.898 21.8043 208.357 22.2633 208.357 22.8297C208.357 23.3961 207.898 23.8551 207.331 23.8551H201.186C199.868 23.8551 198.795 24.9278 198.795 26.2463V83.5577C198.795 84.8764 199.868 85.9491 201.186 85.9491H244.814C246.132 85.9491 247.205 84.8762 247.205 83.5577V26.2463C247.205 24.9277 246.132 23.8551 244.814 23.8551H238.669C238.102 23.8551 237.643 23.3961 237.643 22.8297C237.643 22.2633 238.102 21.8043 238.669 21.8043H244.814C247.263 21.8043 249.256 23.797 249.256 26.2463V83.5577C249.256 86.0073 247.263 88 244.814 88Z" fill="black"/>
</g>
<path d="M159.398 59.3536C159.593 59.1583 159.593 58.8417 159.398 58.6464L156.216 55.4645C156.021 55.2692 155.704 55.2692 155.509 55.4645C155.314 55.6597 155.314 55.9763 155.509 56.1716L158.337 59L155.509 61.8284C155.314 62.0237 155.314 62.3403 155.509 62.5355C155.704 62.7308 156.021 62.7308 156.216 62.5355L159.398 59.3536ZM114 59.5H159.044V58.5H114V59.5Z" fill="black"/>
<path d="M319.398 59.3536C319.593 59.1583 319.593 58.8417 319.398 58.6464L316.216 55.4645C316.021 55.2692 315.704 55.2692 315.509 55.4645C315.314 55.6597 315.314 55.9763 315.509 56.1716L318.337 59L315.509 61.8284C315.314 62.0237 315.314 62.3403 315.509 62.5355C315.704 62.7308 316.021 62.7308 316.216 62.5355L319.398 59.3536ZM274 59.5H319.044V58.5H274V59.5Z" fill="black"/>
<path d="M504.398 59.3536C504.593 59.1583 504.593 58.8417 504.398 58.6464L501.216 55.4645C501.021 55.2692 500.704 55.2692 500.509 55.4645C500.314 55.6597 500.314 55.9763 500.509 56.1716L503.337 59L500.509 61.8284C500.314 62.0237 500.314 62.3403 500.509 62.5355C500.704 62.7308 501.021 62.7308 501.216 62.5355L504.398 59.3536ZM459 59.5H504.044V58.5H459V59.5Z" fill="black"/>
<path d="M684.398 59.3536C684.593 59.1583 684.593 58.8417 684.398 58.6464L681.216 55.4645C681.021 55.2692 680.704 55.2692 680.509 55.4645C680.314 55.6597 680.314 55.9763 680.509 56.1716L683.337 59L680.509 61.8284C680.314 62.0237 680.314 62.3403 680.509 62.5355C680.704 62.7308 681.021 62.7308 681.216 62.5355L684.398 59.3536ZM639 59.5H684.044V58.5H639V59.5Z" fill="black"/>
<defs>
<clipPath id="clip0">
<rect width="70" height="70" fill="white" transform="translate(360 18)"/>
</clipPath>
<clipPath id="clip1">
<rect width="70" height="70" fill="white" transform="translate(533 18)"/>
</clipPath>
<clipPath id="clip2">
<rect width="70" height="70" fill="white" transform="translate(188 18)"/>
</clipPath>
</defs>
</svg>
