<svg width="791" height="135" viewBox="0 0 791 135" fill="none" xmlns="http://www.w3.org/2000/svg">
<path d="M19.2839 102.692C19.5879 102.74 19.8639 102.864 20.1119 103.064C20.3679 103.264 20.5679 103.512 20.7119 103.808C20.8639 104.104 20.9399 104.42 20.9399 104.756C20.9399 105.18 20.8319 105.564 20.6159 105.908C20.3999 106.244 20.0839 106.512 19.6679 106.712C19.2599 106.904 18.7759 107 18.2159 107H15.0959V98.636H18.0959C18.6639 98.636 19.1479 98.732 19.5479 98.924C19.9479 99.108 20.2479 99.36 20.4479 99.68C20.6479 100 20.7479 100.36 20.7479 100.76C20.7479 101.256 20.6119 101.668 20.3399 101.996C20.0759 102.316 19.7239 102.548 19.2839 102.692ZM16.1879 102.248H18.0239C18.5359 102.248 18.9319 102.128 19.2119 101.888C19.4919 101.648 19.6319 101.316 19.6319 100.892C19.6319 100.468 19.4919 100.136 19.2119 99.896C18.9319 99.656 18.5279 99.536 17.9999 99.536H16.1879V102.248ZM18.1199 106.1C18.6639 106.1 19.0879 105.972 19.3919 105.716C19.6959 105.46 19.8479 105.104 19.8479 104.648C19.8479 104.184 19.6879 103.82 19.3679 103.556C19.0479 103.284 18.6199 103.148 18.0839 103.148H16.1879V106.1H18.1199ZM22.0473 103.688C22.0473 103.016 22.1833 102.428 22.4553 101.924C22.7273 101.412 23.0993 101.016 23.5713 100.736C24.0513 100.456 24.5833 100.316 25.1673 100.316C25.7433 100.316 26.2433 100.44 26.6673 100.688C27.0913 100.936 27.4073 101.248 27.6153 101.624V100.424H28.7193V107H27.6153V105.776C27.3993 106.16 27.0753 106.48 26.6433 106.736C26.2193 106.984 25.7233 107.108 25.1553 107.108C24.5713 107.108 24.0433 106.964 23.5713 106.676C23.0993 106.388 22.7273 105.984 22.4553 105.464C22.1833 104.944 22.0473 104.352 22.0473 103.688ZM27.6153 103.7C27.6153 103.204 27.5153 102.772 27.3153 102.404C27.1153 102.036 26.8433 101.756 26.4993 101.564C26.1633 101.364 25.7913 101.264 25.3833 101.264C24.9753 101.264 24.6033 101.36 24.2673 101.552C23.9313 101.744 23.6633 102.024 23.4633 102.392C23.2633 102.76 23.1633 103.192 23.1633 103.688C23.1633 104.192 23.2633 104.632 23.4633 105.008C23.6633 105.376 23.9313 105.66 24.2673 105.86C24.6033 106.052 24.9753 106.148 25.3833 106.148C25.7913 106.148 26.1633 106.052 26.4993 105.86C26.8433 105.66 27.1153 105.376 27.3153 105.008C27.5153 104.632 27.6153 104.196 27.6153 103.7ZM30.1566 103.7C30.1566 103.02 30.2926 102.428 30.5646 101.924C30.8366 101.412 31.2126 101.016 31.6926 100.736C32.1806 100.456 32.7366 100.316 33.3606 100.316C34.1686 100.316 34.8326 100.512 35.3526 100.904C35.8806 101.296 36.2286 101.84 36.3966 102.536H35.2206C35.1086 102.136 34.8886 101.82 34.5606 101.588C34.2406 101.356 33.8406 101.24 33.3606 101.24C32.7366 101.24 32.2326 101.456 31.8486 101.888C31.4646 102.312 31.2726 102.916 31.2726 103.7C31.2726 104.492 31.4646 105.104 31.8486 105.536C32.2326 105.968 32.7366 106.184 33.3606 106.184C33.8406 106.184 34.2406 106.072 34.5606 105.848C34.8806 105.624 35.1006 105.304 35.2206 104.888H36.3966C36.2206 105.56 35.8686 106.1 35.3406 106.508C34.8126 106.908 34.1526 107.108 33.3606 107.108C32.7366 107.108 32.1806 106.968 31.6926 106.688C31.2126 106.408 30.8366 106.012 30.5646 105.5C30.2926 104.988 30.1566 104.388 30.1566 103.7ZM41.5257 107L38.9457 104.096V107H37.8537V98.12H38.9457V103.34L41.4777 100.424H43.0017L39.9057 103.7L43.0137 107H41.5257ZM46.7415 100.316C47.3095 100.316 47.8055 100.44 48.2295 100.688C48.6615 100.936 48.9815 101.248 49.1895 101.624V100.424H50.2935V107.144C50.2935 107.744 50.1655 108.276 49.9095 108.74C49.6535 109.212 49.2855 109.58 48.8055 109.844C48.3335 110.108 47.7815 110.24 47.1495 110.24C46.2855 110.24 45.5655 110.036 44.9895 109.628C44.4135 109.22 44.0735 108.664 43.9695 107.96H45.0495C45.1695 108.36 45.4175 108.68 45.7935 108.92C46.1695 109.168 46.6215 109.292 47.1495 109.292C47.7495 109.292 48.2375 109.104 48.6135 108.728C48.9975 108.352 49.1895 107.824 49.1895 107.144V105.764C48.9735 106.148 48.6535 106.468 48.2295 106.724C47.8055 106.98 47.3095 107.108 46.7415 107.108C46.1575 107.108 45.6255 106.964 45.1455 106.676C44.6735 106.388 44.3015 105.984 44.0295 105.464C43.7575 104.944 43.6215 104.352 43.6215 103.688C43.6215 103.016 43.7575 102.428 44.0295 101.924C44.3015 101.412 44.6735 101.016 45.1455 100.736C45.6255 100.456 46.1575 100.316 46.7415 100.316ZM49.1895 103.7C49.1895 103.204 49.0895 102.772 48.8895 102.404C48.6895 102.036 48.4175 101.756 48.0735 101.564C47.7375 101.364 47.3655 101.264 46.9575 101.264C46.5495 101.264 46.1775 101.36 45.8415 101.552C45.5055 101.744 45.2375 102.024 45.0375 102.392C44.8375 102.76 44.7375 103.192 44.7375 103.688C44.7375 104.192 44.8375 104.632 45.0375 105.008C45.2375 105.376 45.5055 105.66 45.8415 105.86C46.1775 106.052 46.5495 106.148 46.9575 106.148C47.3655 106.148 47.7375 106.052 48.0735 105.86C48.4175 105.66 48.6895 105.376 48.8895 105.008C49.0895 104.632 49.1895 104.196 49.1895 103.7ZM53.2308 101.492C53.4228 101.116 53.6948 100.824 54.0468 100.616C54.4068 100.408 54.8428 100.304 55.3548 100.304V101.432H55.0668C53.8428 101.432 53.2308 102.096 53.2308 103.424V107H52.1388V100.424H53.2308V101.492ZM59.4834 107.108C58.8674 107.108 58.3074 106.968 57.8034 106.688C57.3074 106.408 56.9154 106.012 56.6274 105.5C56.3474 104.98 56.2074 104.38 56.2074 103.7C56.2074 103.028 56.3514 102.436 56.6394 101.924C56.9354 101.404 57.3354 101.008 57.8394 100.736C58.3434 100.456 58.9074 100.316 59.5314 100.316C60.1554 100.316 60.7194 100.456 61.2234 100.736C61.7274 101.008 62.1234 101.4 62.4114 101.912C62.7074 102.424 62.8554 103.02 62.8554 103.7C62.8554 104.38 62.7034 104.98 62.3994 105.5C62.1034 106.012 61.6994 106.408 61.1874 106.688C60.6754 106.968 60.1074 107.108 59.4834 107.108ZM59.4834 106.148C59.8754 106.148 60.2434 106.056 60.5874 105.872C60.9314 105.688 61.2074 105.412 61.4154 105.044C61.6314 104.676 61.7394 104.228 61.7394 103.7C61.7394 103.172 61.6354 102.724 61.4274 102.356C61.2194 101.988 60.9474 101.716 60.6114 101.54C60.2754 101.356 59.9114 101.264 59.5194 101.264C59.1194 101.264 58.7514 101.356 58.4154 101.54C58.0874 101.716 57.8234 101.988 57.6234 102.356C57.4234 102.724 57.3234 103.172 57.3234 103.7C57.3234 104.236 57.4194 104.688 57.6114 105.056C57.8114 105.424 58.0754 105.7 58.4034 105.884C58.7314 106.06 59.0914 106.148 59.4834 106.148ZM70.1232 100.424V107H69.0312V106.028C68.8232 106.364 68.5312 106.628 68.1552 106.82C67.7872 107.004 67.3792 107.096 66.9312 107.096C66.4192 107.096 65.9592 106.992 65.5512 106.784C65.1432 106.568 64.8192 106.248 64.5792 105.824C64.3472 105.4 64.2312 104.884 64.2312 104.276V100.424H65.3112V104.132C65.3112 104.78 65.4752 105.28 65.8032 105.632C66.1312 105.976 66.5792 106.148 67.1472 106.148C67.7312 106.148 68.1912 105.968 68.5272 105.608C68.8632 105.248 69.0312 104.724 69.0312 104.036V100.424H70.1232ZM75.171 100.304C75.971 100.304 76.619 100.548 77.115 101.036C77.611 101.516 77.859 102.212 77.859 103.124V107H76.779V103.28C76.779 102.624 76.615 102.124 76.287 101.78C75.959 101.428 75.511 101.252 74.943 101.252C74.367 101.252 73.907 101.432 73.563 101.792C73.227 102.152 73.059 102.676 73.059 103.364V107H71.967V100.424H73.059V101.36C73.275 101.024 73.567 100.764 73.935 100.58C74.311 100.396 74.723 100.304 75.171 100.304ZM79.2348 103.688C79.2348 103.016 79.3708 102.428 79.6428 101.924C79.9148 101.412 80.2868 101.016 80.7588 100.736C81.2388 100.456 81.7748 100.316 82.3668 100.316C82.8788 100.316 83.3548 100.436 83.7948 100.676C84.2348 100.908 84.5708 101.216 84.8028 101.6V98.12H85.9068V107H84.8028V105.764C84.5868 106.156 84.2668 106.48 83.8428 106.736C83.4188 106.984 82.9228 107.108 82.3548 107.108C81.7708 107.108 81.2388 106.964 80.7588 106.676C80.2868 106.388 79.9148 105.984 79.6428 105.464C79.3708 104.944 79.2348 104.352 79.2348 103.688ZM84.8028 103.7C84.8028 103.204 84.7028 102.772 84.5028 102.404C84.3028 102.036 84.0308 101.756 83.6868 101.564C83.3508 101.364 82.9788 101.264 82.5708 101.264C82.1628 101.264 81.7908 101.36 81.4548 101.552C81.1188 101.744 80.8508 102.024 80.6508 102.392C80.4508 102.76 80.3508 103.192 80.3508 103.688C80.3508 104.192 80.4508 104.632 80.6508 105.008C80.8508 105.376 81.1188 105.66 81.4548 105.86C81.7908 106.052 82.1628 106.148 82.5708 106.148C82.9788 106.148 83.3508 106.052 83.6868 105.86C84.0308 105.66 84.3028 105.376 84.5028 105.008C84.7028 104.632 84.8028 104.196 84.8028 103.7ZM27.826 125L25.834 121.58H24.514V125H23.422V116.636H26.122C26.754 116.636 27.286 116.744 27.718 116.96C28.158 117.176 28.486 117.468 28.702 117.836C28.918 118.204 29.026 118.624 29.026 119.096C29.026 119.672 28.858 120.18 28.522 120.62C28.194 121.06 27.698 121.352 27.034 121.496L29.134 125H27.826ZM24.514 120.704H26.122C26.714 120.704 27.158 120.56 27.454 120.272C27.75 119.976 27.898 119.584 27.898 119.096C27.898 118.6 27.75 118.216 27.454 117.944C27.166 117.672 26.722 117.536 26.122 117.536H24.514V120.704ZM36.7228 121.46C36.7228 121.668 36.7108 121.888 36.6868 122.12H31.4308C31.4708 122.768 31.6908 123.276 32.0908 123.644C32.4988 124.004 32.9908 124.184 33.5668 124.184C34.0388 124.184 34.4308 124.076 34.7428 123.86C35.0628 123.636 35.2868 123.34 35.4148 122.972H36.5908C36.4148 123.604 36.0628 124.12 35.5348 124.52C35.0068 124.912 34.3508 125.108 33.5668 125.108C32.9428 125.108 32.3828 124.968 31.8868 124.688C31.3988 124.408 31.0148 124.012 30.7348 123.5C30.4548 122.98 30.3148 122.38 30.3148 121.7C30.3148 121.02 30.4508 120.424 30.7228 119.912C30.9948 119.4 31.3748 119.008 31.8628 118.736C32.3588 118.456 32.9268 118.316 33.5668 118.316C34.1908 118.316 34.7428 118.452 35.2228 118.724C35.7028 118.996 36.0708 119.372 36.3268 119.852C36.5908 120.324 36.7228 120.86 36.7228 121.46ZM35.5948 121.232C35.5948 120.816 35.5028 120.46 35.3188 120.164C35.1348 119.86 34.8828 119.632 34.5628 119.48C34.2508 119.32 33.9028 119.24 33.5188 119.24C32.9668 119.24 32.4948 119.416 32.1028 119.768C31.7188 120.12 31.4988 120.608 31.4428 121.232H35.5948ZM40.4922 125.108C39.9882 125.108 39.5362 125.024 39.1362 124.856C38.7362 124.68 38.4202 124.44 38.1882 124.136C37.9562 123.824 37.8282 123.468 37.8042 123.068H38.9322C38.9642 123.396 39.1162 123.664 39.3882 123.872C39.6682 124.08 40.0322 124.184 40.4802 124.184C40.8962 124.184 41.2242 124.092 41.4642 123.908C41.7042 123.724 41.8242 123.492 41.8242 123.212C41.8242 122.924 41.6962 122.712 41.4402 122.576C41.1842 122.432 40.7882 122.292 40.2522 122.156C39.7642 122.028 39.3642 121.9 39.0522 121.772C38.7482 121.636 38.4842 121.44 38.2602 121.184C38.0442 120.92 37.9362 120.576 37.9362 120.152C37.9362 119.816 38.0362 119.508 38.2362 119.228C38.4362 118.948 38.7202 118.728 39.0882 118.568C39.4562 118.4 39.8762 118.316 40.3482 118.316C41.0762 118.316 41.6642 118.5 42.1122 118.868C42.5602 119.236 42.8002 119.74 42.8322 120.38H41.7402C41.7162 120.036 41.5762 119.76 41.3202 119.552C41.0722 119.344 40.7362 119.24 40.3122 119.24C39.9202 119.24 39.6082 119.324 39.3762 119.492C39.1442 119.66 39.0282 119.88 39.0282 120.152C39.0282 120.368 39.0962 120.548 39.2322 120.692C39.3762 120.828 39.5522 120.94 39.7602 121.028C39.9762 121.108 40.2722 121.2 40.6482 121.304C41.1202 121.432 41.5042 121.56 41.8002 121.688C42.0962 121.808 42.3482 121.992 42.5562 122.24C42.7722 122.488 42.8842 122.812 42.8922 123.212C42.8922 123.572 42.7922 123.896 42.5922 124.184C42.3922 124.472 42.1082 124.7 41.7402 124.868C41.3802 125.028 40.9642 125.108 40.4922 125.108ZM50.4338 121.46C50.4338 121.668 50.4218 121.888 50.3978 122.12H45.1418C45.1818 122.768 45.4018 123.276 45.8018 123.644C46.2098 124.004 46.7018 124.184 47.2778 124.184C47.7498 124.184 48.1418 124.076 48.4538 123.86C48.7738 123.636 48.9978 123.34 49.1258 122.972H50.3018C50.1258 123.604 49.7738 124.12 49.2458 124.52C48.7178 124.912 48.0618 125.108 47.2778 125.108C46.6538 125.108 46.0938 124.968 45.5978 124.688C45.1098 124.408 44.7258 124.012 44.4458 123.5C44.1658 122.98 44.0258 122.38 44.0258 121.7C44.0258 121.02 44.1618 120.424 44.4338 119.912C44.7058 119.4 45.0858 119.008 45.5738 118.736C46.0698 118.456 46.6378 118.316 47.2778 118.316C47.9018 118.316 48.4538 118.452 48.9338 118.724C49.4138 118.996 49.7818 119.372 50.0378 119.852C50.3018 120.324 50.4338 120.86 50.4338 121.46ZM49.3058 121.232C49.3058 120.816 49.2138 120.46 49.0298 120.164C48.8458 119.86 48.5938 119.632 48.2738 119.48C47.9618 119.32 47.6138 119.24 47.2298 119.24C46.6778 119.24 46.2058 119.416 45.8138 119.768C45.4298 120.12 45.2098 120.608 45.1538 121.232H49.3058ZM51.4672 121.688C51.4672 121.016 51.6032 120.428 51.8752 119.924C52.1472 119.412 52.5192 119.016 52.9912 118.736C53.4712 118.456 54.0032 118.316 54.5872 118.316C55.1632 118.316 55.6632 118.44 56.0872 118.688C56.5112 118.936 56.8272 119.248 57.0352 119.624V118.424H58.1392V125H57.0352V123.776C56.8192 124.16 56.4952 124.48 56.0632 124.736C55.6392 124.984 55.1432 125.108 54.5752 125.108C53.9912 125.108 53.4632 124.964 52.9912 124.676C52.5192 124.388 52.1472 123.984 51.8752 123.464C51.6032 122.944 51.4672 122.352 51.4672 121.688ZM57.0352 121.7C57.0352 121.204 56.9352 120.772 56.7352 120.404C56.5352 120.036 56.2632 119.756 55.9192 119.564C55.5832 119.364 55.2112 119.264 54.8032 119.264C54.3952 119.264 54.0232 119.36 53.6872 119.552C53.3512 119.744 53.0832 120.024 52.8832 120.392C52.6832 120.76 52.5832 121.192 52.5832 121.688C52.5832 122.192 52.6832 122.632 52.8832 123.008C53.0832 123.376 53.3512 123.66 53.6872 123.86C54.0232 124.052 54.3952 124.148 54.8032 124.148C55.2112 124.148 55.5832 124.052 55.9192 123.86C56.2632 123.66 56.5352 123.376 56.7352 123.008C56.9352 122.632 57.0352 122.196 57.0352 121.7ZM61.0765 119.492C61.2685 119.116 61.5405 118.824 61.8925 118.616C62.2525 118.408 62.6885 118.304 63.2005 118.304V119.432H62.9125C61.6885 119.432 61.0765 120.096 61.0765 121.424V125H59.9845V118.424H61.0765V119.492ZM64.0531 121.7C64.0531 121.02 64.1891 120.428 64.4611 119.924C64.7331 119.412 65.1091 119.016 65.5891 118.736C66.0771 118.456 66.6331 118.316 67.2571 118.316C68.0651 118.316 68.7291 118.512 69.2491 118.904C69.7771 119.296 70.1251 119.84 70.2931 120.536H69.1171C69.0051 120.136 68.7851 119.82 68.4571 119.588C68.1371 119.356 67.7371 119.24 67.2571 119.24C66.6331 119.24 66.1291 119.456 65.7451 119.888C65.3611 120.312 65.1691 120.916 65.1691 121.7C65.1691 122.492 65.3611 123.104 65.7451 123.536C66.1291 123.968 66.6331 124.184 67.2571 124.184C67.7371 124.184 68.1371 124.072 68.4571 123.848C68.7771 123.624 68.9971 123.304 69.1171 122.888H70.2931C70.1171 123.56 69.7651 124.1 69.2371 124.508C68.7091 124.908 68.0491 125.108 67.2571 125.108C66.6331 125.108 66.0771 124.968 65.5891 124.688C65.1091 124.408 64.7331 124.012 64.4611 123.5C64.1891 122.988 64.0531 122.388 64.0531 121.7ZM75.0142 118.304C75.5102 118.304 75.9582 118.412 76.3582 118.628C76.7582 118.836 77.0702 119.152 77.2942 119.576C77.5262 120 77.6422 120.516 77.6422 121.124V125H76.5622V121.28C76.5622 120.624 76.3982 120.124 76.0702 119.78C75.7422 119.428 75.2942 119.252 74.7262 119.252C74.1502 119.252 73.6902 119.432 73.3462 119.792C73.0102 120.152 72.8422 120.676 72.8422 121.364V125H71.7502V116.12H72.8422V119.36C73.0582 119.024 73.3542 118.764 73.7302 118.58C74.1142 118.396 74.5422 118.304 75.0142 118.304Z" fill="black"/>
<path d="M84.101 65.0528L73.5812 54.5314C76.1228 51.1823 77.7094 47.1678 78.1164 42.9589C78.6147 37.7935 77.3281 32.5747 74.4934 28.2633C74.182 27.7901 73.5459 27.6587 73.0733 27.9701C72.6001 28.2814 72.4688 28.9175 72.7801 29.3907C78.1447 37.5489 77.0194 48.4901 70.1045 55.4056C62.0279 63.4827 48.8875 63.4827 40.8115 55.4056C32.7349 47.3286 32.7349 34.186 40.8115 26.1089C48.8875 18.0318 62.0285 18.0318 70.1018 26.1062L70.1579 26.1628C70.5574 26.5644 71.2062 26.5671 71.6079 26.1676C72.01 25.7687 72.0121 25.1193 71.6132 24.7177L71.5544 24.6584C62.6784 15.7818 48.237 15.7818 39.361 24.6584C39.0822 24.9372 38.8125 25.2213 38.5514 25.5107H16.0254C15.4593 25.5107 15 25.97 15 26.5361V31.0713C15 31.638 15.4593 32.0973 16.0254 32.0973C16.592 32.0973 17.0508 31.638 17.0508 31.0713V27.5621H36.9065C36.123 28.6627 35.449 29.8174 34.8845 31.0121H22.1094C21.5433 31.0121 21.084 31.4708 21.084 32.0375C21.084 32.6041 21.5433 33.0628 22.1094 33.0628H34.0359C33.7416 33.8864 33.4965 34.7232 33.3 35.5697H22.1094C21.5433 35.5697 21.084 36.0285 21.084 36.5951C21.084 37.1612 21.5433 37.6205 22.1094 37.6205H32.9208C32.806 38.452 32.7371 39.2889 32.7141 40.1268H22.1094C21.5433 40.1268 21.084 40.5861 21.084 41.1527C21.084 41.7188 21.5433 42.1781 22.1094 42.1781H32.7499C32.9347 45.1571 33.6989 48.1061 35.0453 50.8389H33.3208C32.7542 50.8389 32.2954 51.2982 32.2954 51.8648V82.2206C32.2954 82.7872 32.7542 83.2465 33.3208 83.2465H41.5239C42.0906 83.2465 42.5493 82.7872 42.5493 82.2206V59.512C43.4727 60.1481 44.4324 60.7088 45.4204 61.1932V82.2206C45.4204 82.7872 45.8797 83.2465 46.4458 83.2465H54.6489C55.2155 83.2465 55.6743 82.7872 55.6743 82.2206V63.5115C56.4738 63.5035 57.2722 63.4549 58.0674 63.3641V79.2037C58.0674 79.7704 58.5261 80.2296 59.0928 80.2296C59.6589 80.2296 60.1182 79.7704 60.1182 79.2037V63.0341C63.3594 62.3612 66.4809 60.978 69.2313 58.8839L79.749 69.4033C80.3306 69.9843 81.1034 70.3047 81.9248 70.3047C82.7467 70.3047 83.5195 69.9843 84.1005 69.4033C85.2995 68.2048 85.3 66.2534 84.101 65.0528V65.0528ZM40.4985 81.1952H34.3462V52.8902H36.1935C37.0806 54.2985 38.1359 55.6305 39.361 56.8561C39.7306 57.2257 40.1108 57.5787 40.4985 57.9173V81.1952ZM47.4717 81.1952V62.0755C49.4605 62.8173 51.5327 63.2712 53.624 63.4389V81.1952H47.4717ZM82.6511 67.9528C82.4572 68.1466 82.1993 68.2534 81.9253 68.2534C81.6513 68.2534 81.3934 68.1466 81.2 67.9528L70.8121 57.5643C71.0637 57.3341 71.3115 57.0991 71.5544 56.8561C71.7969 56.6137 72.033 56.3664 72.2631 56.1138L82.65 66.5028C83.05 66.9028 83.0505 67.5538 82.6511 67.9528V67.9528Z" fill="black"/>
<path d="M59.0929 82.599C58.5268 82.599 58.0675 83.0578 58.0675 83.6244V85.9492H17.0508V35.5149C17.0508 34.9483 16.592 34.4895 16.0254 34.4895C15.4593 34.4895 15 34.9483 15 35.5149V86.9745C15 87.5412 15.4593 87.9999 16.0254 87.9999H59.0929C59.6595 87.9999 60.1183 87.5412 60.1183 86.9745V83.6244C60.1183 83.0578 59.6595 82.599 59.0929 82.599V82.599Z" fill="black"/>
<path d="M19.4434 60.0677V82.2199C19.4434 82.786 19.9026 83.2453 20.4688 83.2453H28.6724C29.2385 83.2453 29.6978 82.786 29.6978 82.2199V60.0677C29.6978 59.5016 29.2385 59.0424 28.6724 59.0424H20.4688C19.9026 59.0424 19.4434 59.5016 19.4434 60.0677V60.0677ZM21.4941 61.0937H27.647V81.194H21.4941V61.0937Z" fill="black"/>
<path d="M29.7768 46.736C30.3435 46.736 30.8022 46.2767 30.8022 45.7101C30.8022 45.144 30.3435 44.6847 29.7768 44.6847H22.1094C21.5433 44.6847 21.084 45.144 21.084 45.7101C21.084 46.2767 21.5433 46.736 22.1094 46.736H29.7768Z" fill="black"/>
<path d="M55.4581 22.1C50.4678 22.1 45.7809 24.0386 42.2615 27.5586C38.7421 31.0786 36.8034 35.766 36.8034 40.7567C36.8034 45.7475 38.7421 50.4349 42.2615 53.9549C45.7815 57.4749 50.4678 59.4135 55.4581 59.4135C60.4483 59.4135 65.1347 57.4749 68.6546 53.9549C72.1741 50.4349 74.1122 45.7475 74.1122 40.7567C74.1122 35.766 72.1741 31.0786 68.6546 27.5586C65.1347 24.0386 60.4483 22.1 55.4581 22.1V22.1ZM67.2041 52.5044C64.0719 55.6372 59.9004 57.3622 55.4581 57.3622C51.0152 57.3622 46.8443 55.6372 43.712 52.5044C40.5792 49.3716 38.8542 45.1996 38.8542 40.7567C38.8542 36.3134 40.5792 32.1413 43.712 29.0085C46.95 25.77 51.2043 24.1502 55.4581 24.1502C59.7118 24.1502 63.9661 25.77 67.2041 29.0085C70.3364 32.1413 72.0614 36.3134 72.0614 40.7567C72.0614 45.1996 70.3364 49.3716 67.2041 52.5044V52.5044Z" fill="black"/>
<path d="M718.1 110.084C718.1 110.78 717.86 111.36 717.38 111.824C716.908 112.28 716.184 112.508 715.208 112.508H713.6V116H712.508V107.636H715.208C716.152 107.636 716.868 107.864 717.356 108.32C717.852 108.776 718.1 109.364 718.1 110.084ZM715.208 111.608C715.816 111.608 716.264 111.476 716.552 111.212C716.84 110.948 716.984 110.572 716.984 110.084C716.984 109.052 716.392 108.536 715.208 108.536H713.6V111.608H715.208ZM720.549 110.492C720.741 110.116 721.013 109.824 721.365 109.616C721.725 109.408 722.161 109.304 722.673 109.304V110.432H722.385C721.161 110.432 720.549 111.096 720.549 112.424V116H719.457V109.424H720.549V110.492ZM726.802 116.108C726.186 116.108 725.626 115.968 725.122 115.688C724.626 115.408 724.234 115.012 723.946 114.5C723.666 113.98 723.526 113.38 723.526 112.7C723.526 112.028 723.67 111.436 723.958 110.924C724.254 110.404 724.654 110.008 725.158 109.736C725.662 109.456 726.226 109.316 726.85 109.316C727.474 109.316 728.038 109.456 728.542 109.736C729.046 110.008 729.442 110.4 729.73 110.912C730.026 111.424 730.174 112.02 730.174 112.7C730.174 113.38 730.022 113.98 729.718 114.5C729.422 115.012 729.018 115.408 728.506 115.688C727.994 115.968 727.426 116.108 726.802 116.108ZM726.802 115.148C727.194 115.148 727.562 115.056 727.906 114.872C728.25 114.688 728.526 114.412 728.734 114.044C728.95 113.676 729.058 113.228 729.058 112.7C729.058 112.172 728.954 111.724 728.746 111.356C728.538 110.988 728.266 110.716 727.93 110.54C727.594 110.356 727.23 110.264 726.838 110.264C726.438 110.264 726.07 110.356 725.734 110.54C725.406 110.716 725.142 110.988 724.942 111.356C724.742 111.724 724.642 112.172 724.642 112.7C724.642 113.236 724.738 113.688 724.93 114.056C725.13 114.424 725.394 114.7 725.722 114.884C726.05 115.06 726.41 115.148 726.802 115.148ZM732.942 110.324V114.2C732.942 114.52 733.01 114.748 733.146 114.884C733.282 115.012 733.518 115.076 733.854 115.076H734.658V116H733.674C733.066 116 732.61 115.86 732.306 115.58C732.002 115.3 731.85 114.84 731.85 114.2V110.324H730.998V109.424H731.85V107.768H732.942V109.424H734.658V110.324H732.942ZM738.849 116.108C738.233 116.108 737.673 115.968 737.169 115.688C736.673 115.408 736.281 115.012 735.993 114.5C735.713 113.98 735.573 113.38 735.573 112.7C735.573 112.028 735.717 111.436 736.005 110.924C736.301 110.404 736.701 110.008 737.205 109.736C737.709 109.456 738.273 109.316 738.897 109.316C739.521 109.316 740.085 109.456 740.589 109.736C741.093 110.008 741.489 110.4 741.777 110.912C742.073 111.424 742.221 112.02 742.221 112.7C742.221 113.38 742.069 113.98 741.765 114.5C741.469 115.012 741.065 115.408 740.553 115.688C740.041 115.968 739.473 116.108 738.849 116.108ZM738.849 115.148C739.241 115.148 739.609 115.056 739.953 114.872C740.297 114.688 740.573 114.412 740.781 114.044C740.997 113.676 741.105 113.228 741.105 112.7C741.105 112.172 741.001 111.724 740.793 111.356C740.585 110.988 740.313 110.716 739.977 110.54C739.641 110.356 739.277 110.264 738.885 110.264C738.485 110.264 738.117 110.356 737.781 110.54C737.453 110.716 737.189 110.988 736.989 111.356C736.789 111.724 736.689 112.172 736.689 112.7C736.689 113.236 736.785 113.688 736.977 114.056C737.177 114.424 737.441 114.7 737.769 114.884C738.097 115.06 738.457 115.148 738.849 115.148ZM744.988 110.324V114.2C744.988 114.52 745.056 114.748 745.192 114.884C745.328 115.012 745.564 115.076 745.9 115.076H746.704V116H745.72C745.112 116 744.656 115.86 744.352 115.58C744.048 115.3 743.896 114.84 743.896 114.2V110.324H743.044V109.424H743.896V107.768H744.988V109.424H746.704V110.324H744.988ZM753.692 109.424L749.732 119.096H748.604L749.9 115.928L747.248 109.424H748.46L750.524 114.752L752.564 109.424H753.692ZM755.881 110.636C756.097 110.26 756.417 109.948 756.841 109.7C757.273 109.444 757.773 109.316 758.341 109.316C758.925 109.316 759.453 109.456 759.925 109.736C760.405 110.016 760.781 110.412 761.053 110.924C761.325 111.428 761.461 112.016 761.461 112.688C761.461 113.352 761.325 113.944 761.053 114.464C760.781 114.984 760.405 115.388 759.925 115.676C759.453 115.964 758.925 116.108 758.341 116.108C757.781 116.108 757.285 115.984 756.853 115.736C756.429 115.48 756.105 115.164 755.881 114.788V119.12H754.789V109.424H755.881V110.636ZM760.345 112.688C760.345 112.192 760.245 111.76 760.045 111.392C759.845 111.024 759.573 110.744 759.229 110.552C758.893 110.36 758.521 110.264 758.113 110.264C757.713 110.264 757.341 110.364 756.997 110.564C756.661 110.756 756.389 111.04 756.181 111.416C755.981 111.784 755.881 112.212 755.881 112.7C755.881 113.196 755.981 113.632 756.181 114.008C756.389 114.376 756.661 114.66 756.997 114.86C757.341 115.052 757.713 115.148 758.113 115.148C758.521 115.148 758.893 115.052 759.229 114.86C759.573 114.66 759.845 114.376 760.045 114.008C760.245 113.632 760.345 113.192 760.345 112.688ZM768.899 112.46C768.899 112.668 768.887 112.888 768.863 113.12H763.607C763.647 113.768 763.867 114.276 764.267 114.644C764.675 115.004 765.167 115.184 765.743 115.184C766.215 115.184 766.607 115.076 766.919 114.86C767.239 114.636 767.463 114.34 767.591 113.972H768.767C768.591 114.604 768.239 115.12 767.711 115.52C767.183 115.912 766.527 116.108 765.743 116.108C765.119 116.108 764.559 115.968 764.063 115.688C763.575 115.408 763.191 115.012 762.911 114.5C762.631 113.98 762.491 113.38 762.491 112.7C762.491 112.02 762.627 111.424 762.899 110.912C763.171 110.4 763.551 110.008 764.039 109.736C764.535 109.456 765.103 109.316 765.743 109.316C766.367 109.316 766.919 109.452 767.399 109.724C767.879 109.996 768.247 110.372 768.503 110.852C768.767 111.324 768.899 111.86 768.899 112.46ZM767.771 112.232C767.771 111.816 767.679 111.46 767.495 111.164C767.311 110.86 767.059 110.632 766.739 110.48C766.427 110.32 766.079 110.24 765.695 110.24C765.143 110.24 764.671 110.416 764.279 110.768C763.895 111.12 763.675 111.608 763.619 112.232H767.771Z" fill="black"/>
<path d="M756.039 18H725.961C723.134 18 720.834 20.2999 720.834 23.127V82.873C720.834 85.7001 723.134 88 725.961 88H756.039C758.866 88 761.166 85.7001 761.166 82.873V23.127C761.166 20.2999 758.866 18 756.039 18ZM759.115 73.6445H730.062C729.496 73.6445 729.037 74.1036 729.037 74.6699C729.037 75.2362 729.496 75.6953 730.062 75.6953H759.115V82.873C759.115 84.5693 757.735 85.9492 756.039 85.9492H725.961C724.265 85.9492 722.885 84.5693 722.885 82.873V75.6953H725.961C726.527 75.6953 726.986 75.2362 726.986 74.6699C726.986 74.1036 726.527 73.6445 725.961 73.6445H722.885V28.2539H759.115V73.6445ZM759.115 26.2031H722.885V23.127C722.885 21.4307 724.265 20.0508 725.961 20.0508H756.039C757.735 20.0508 759.115 21.4307 759.115 23.127V26.2031Z" fill="black"/>
<path d="M745.102 22.1016H741C740.434 22.1016 739.975 22.5607 739.975 23.127C739.975 23.6932 740.434 24.1523 741 24.1523H745.102C745.668 24.1523 746.127 23.6932 746.127 23.127C746.127 22.5607 745.668 22.1016 745.102 22.1016Z" fill="black"/>
<path d="M741 77.7461C739.304 77.7461 737.924 79.126 737.924 80.8223C737.924 82.5185 739.304 83.8984 741 83.8984C742.696 83.8984 744.076 82.5185 744.076 80.8223C744.076 79.126 742.696 77.7461 741 77.7461ZM741 81.8477C740.435 81.8477 739.975 81.3877 739.975 80.8223C739.975 80.2568 740.435 79.7969 741 79.7969C741.565 79.7969 742.025 80.2568 742.025 80.8223C742.025 81.3877 741.565 81.8477 741 81.8477Z" fill="black"/>
<path d="M736.898 24.1523C737.465 24.1523 737.924 23.6933 737.924 23.127C737.924 22.5606 737.465 22.1016 736.898 22.1016C736.332 22.1016 735.873 22.5606 735.873 23.127C735.873 23.6933 736.332 24.1523 736.898 24.1523Z" fill="black"/>
<g clip-path="url(#clip0)">
<path d="M430 65.0093L413.598 47.5186V58.8565H407C407.694 56.8904 408.5 54.6048 408.5 52.5C408.5 42.3221 401.215 34.2454 391.037 34.2454C380.859 34.2454 372.579 42.5258 372.579 52.7037C372.579 54.8602 372.952 56.9311 373.635 58.8565H360V71.1621H413.598V82.5L430 65.0093ZM362.5 68.72V61.22H374.5C375.5 63.72 378 67.22 381.5 68.72H362.5ZM388.5 68.72C380.584 68.72 375 60.6199 375 52.7037C375 44.7876 381.5 36 391.037 36.5C398.953 36.5 406.5 43.239 406.5 52.5C406.5 54.636 405.407 56.9442 404.5 58.8565H397C399 57.5 400 55.0105 400 52.7037C400 48 397.051 43.72 391.037 43.72C385.5 43.72 382 47.5186 382 52.22C382 57.8744 385.383 61.22 391.037 61.22H416V53.72L426.5 65.0093L416 76.72V68.72H388.5ZM391.037 58.8565C387 58.8565 384.5 56.0964 384.5 52.7037C384.5 48 387.5 46 391.037 46C395 46 397.5 49.1074 397.5 52.5C397.5 55.8926 394.43 58.8565 391.037 58.8565Z" fill="black"/>
<path d="M388.986 22.7198H391.036V30.9236H388.986V22.7198Z" fill="black"/>
<path d="M377.374 25.8413L379.273 25.0544L382.415 32.6346L380.516 33.4215L377.374 25.8413Z" fill="black"/>
<path d="M367.831 33.1803L369.285 31.7272L375.085 37.5272L373.631 38.9803L367.831 33.1803Z" fill="black"/>
<path d="M397.789 31.8545L400.931 24.2743L402.825 25.0592L399.683 32.6395L397.789 31.8545Z" fill="black"/>
<path d="M405.533 36.0845L411.333 30.2845L412.783 31.734L406.983 37.534L405.533 36.0845Z" fill="black"/>
</g>
<path d="M372.502 107.636V116H371.41V107.636H372.502ZM375.695 110.324V114.2C375.695 114.52 375.763 114.748 375.899 114.884C376.035 115.012 376.271 115.076 376.607 115.076H377.411V116H376.427C375.819 116 375.363 115.86 375.059 115.58C374.755 115.3 374.603 114.84 374.603 114.2V110.324H373.751V109.424H374.603V107.768H375.695V109.424H377.411V110.324H375.695ZM384.735 112.46C384.735 112.668 384.723 112.888 384.699 113.12H379.443C379.483 113.768 379.703 114.276 380.103 114.644C380.511 115.004 381.003 115.184 381.579 115.184C382.051 115.184 382.443 115.076 382.755 114.86C383.075 114.636 383.299 114.34 383.427 113.972H384.603C384.427 114.604 384.075 115.12 383.547 115.52C383.019 115.912 382.363 116.108 381.579 116.108C380.955 116.108 380.395 115.968 379.899 115.688C379.411 115.408 379.027 115.012 378.747 114.5C378.467 113.98 378.327 113.38 378.327 112.7C378.327 112.02 378.463 111.424 378.735 110.912C379.007 110.4 379.387 110.008 379.875 109.736C380.371 109.456 380.939 109.316 381.579 109.316C382.203 109.316 382.755 109.452 383.235 109.724C383.715 109.996 384.083 110.372 384.339 110.852C384.603 111.324 384.735 111.86 384.735 112.46ZM383.607 112.232C383.607 111.816 383.515 111.46 383.331 111.164C383.147 110.86 382.895 110.632 382.575 110.48C382.263 110.32 381.915 110.24 381.531 110.24C380.979 110.24 380.507 110.416 380.115 110.768C379.731 111.12 379.511 111.608 379.455 112.232H383.607ZM387.268 110.492C387.46 110.116 387.732 109.824 388.084 109.616C388.444 109.408 388.88 109.304 389.392 109.304V110.432H389.104C387.88 110.432 387.268 111.096 387.268 112.424V116H386.176V109.424H387.268V110.492ZM390.245 112.688C390.245 112.016 390.381 111.428 390.653 110.924C390.925 110.412 391.297 110.016 391.769 109.736C392.249 109.456 392.781 109.316 393.365 109.316C393.941 109.316 394.441 109.44 394.865 109.688C395.289 109.936 395.605 110.248 395.813 110.624V109.424H396.917V116H395.813V114.776C395.597 115.16 395.273 115.48 394.841 115.736C394.417 115.984 393.921 116.108 393.353 116.108C392.769 116.108 392.241 115.964 391.769 115.676C391.297 115.388 390.925 114.984 390.653 114.464C390.381 113.944 390.245 113.352 390.245 112.688ZM395.813 112.7C395.813 112.204 395.713 111.772 395.513 111.404C395.313 111.036 395.041 110.756 394.697 110.564C394.361 110.364 393.989 110.264 393.581 110.264C393.173 110.264 392.801 110.36 392.465 110.552C392.129 110.744 391.861 111.024 391.661 111.392C391.461 111.76 391.361 112.192 391.361 112.688C391.361 113.192 391.461 113.632 391.661 114.008C391.861 114.376 392.129 114.66 392.465 114.86C392.801 115.052 393.173 115.148 393.581 115.148C393.989 115.148 394.361 115.052 394.697 114.86C395.041 114.66 395.313 114.376 395.513 114.008C395.713 113.632 395.813 113.196 395.813 112.7ZM400.094 110.324V114.2C400.094 114.52 400.162 114.748 400.298 114.884C400.434 115.012 400.67 115.076 401.006 115.076H401.81V116H400.826C400.218 116 399.762 115.86 399.458 115.58C399.154 115.3 399.002 114.84 399.002 114.2V110.324H398.15V109.424H399.002V107.768H400.094V109.424H401.81V110.324H400.094ZM403.697 108.356C403.489 108.356 403.313 108.284 403.169 108.14C403.025 107.996 402.953 107.82 402.953 107.612C402.953 107.404 403.025 107.228 403.169 107.084C403.313 106.94 403.489 106.868 403.697 106.868C403.897 106.868 404.065 106.94 404.201 107.084C404.345 107.228 404.417 107.404 404.417 107.612C404.417 107.82 404.345 107.996 404.201 108.14C404.065 108.284 403.897 108.356 403.697 108.356ZM404.225 109.424V116H403.133V109.424H404.225ZM408.954 116.108C408.338 116.108 407.778 115.968 407.274 115.688C406.778 115.408 406.386 115.012 406.098 114.5C405.818 113.98 405.678 113.38 405.678 112.7C405.678 112.028 405.822 111.436 406.11 110.924C406.406 110.404 406.806 110.008 407.31 109.736C407.814 109.456 408.378 109.316 409.002 109.316C409.626 109.316 410.19 109.456 410.694 109.736C411.198 110.008 411.594 110.4 411.882 110.912C412.178 111.424 412.326 112.02 412.326 112.7C412.326 113.38 412.174 113.98 411.87 114.5C411.574 115.012 411.17 115.408 410.658 115.688C410.146 115.968 409.578 116.108 408.954 116.108ZM408.954 115.148C409.346 115.148 409.714 115.056 410.058 114.872C410.402 114.688 410.678 114.412 410.886 114.044C411.102 113.676 411.21 113.228 411.21 112.7C411.21 112.172 411.106 111.724 410.898 111.356C410.69 110.988 410.418 110.716 410.082 110.54C409.746 110.356 409.382 110.264 408.99 110.264C408.59 110.264 408.222 110.356 407.886 110.54C407.558 110.716 407.294 110.988 407.094 111.356C406.894 111.724 406.794 112.172 406.794 112.7C406.794 113.236 406.89 113.688 407.082 114.056C407.282 114.424 407.546 114.7 407.874 114.884C408.202 115.06 408.562 115.148 408.954 115.148ZM416.966 109.304C417.766 109.304 418.414 109.548 418.91 110.036C419.406 110.516 419.654 111.212 419.654 112.124V116H418.574V112.28C418.574 111.624 418.41 111.124 418.082 110.78C417.754 110.428 417.306 110.252 416.738 110.252C416.162 110.252 415.702 110.432 415.358 110.792C415.022 111.152 414.854 111.676 414.854 112.364V116H413.762V109.424H414.854V110.36C415.07 110.024 415.362 109.764 415.73 109.58C416.106 109.396 416.518 109.304 416.966 109.304Z" fill="black"/>
<path d="M532.094 107.636V112.928C532.094 113.672 532.274 114.224 532.634 114.584C533.002 114.944 533.51 115.124 534.158 115.124C534.798 115.124 535.298 114.944 535.658 114.584C536.026 114.224 536.21 113.672 536.21 112.928V107.636H537.302V112.916C537.302 113.612 537.162 114.2 536.882 114.68C536.602 115.152 536.222 115.504 535.742 115.736C535.27 115.968 534.738 116.084 534.146 116.084C533.554 116.084 533.018 115.968 532.538 115.736C532.066 115.504 531.69 115.152 531.41 114.68C531.138 114.2 531.002 113.612 531.002 112.916V107.636H532.094ZM541.451 116.108C540.947 116.108 540.495 116.024 540.095 115.856C539.695 115.68 539.379 115.44 539.147 115.136C538.915 114.824 538.787 114.468 538.763 114.068H539.891C539.923 114.396 540.075 114.664 540.347 114.872C540.627 115.08 540.991 115.184 541.439 115.184C541.855 115.184 542.183 115.092 542.423 114.908C542.663 114.724 542.783 114.492 542.783 114.212C542.783 113.924 542.655 113.712 542.399 113.576C542.143 113.432 541.747 113.292 541.211 113.156C540.723 113.028 540.323 112.9 540.011 112.772C539.707 112.636 539.443 112.44 539.219 112.184C539.003 111.92 538.895 111.576 538.895 111.152C538.895 110.816 538.995 110.508 539.195 110.228C539.395 109.948 539.679 109.728 540.047 109.568C540.415 109.4 540.835 109.316 541.307 109.316C542.035 109.316 542.623 109.5 543.071 109.868C543.519 110.236 543.759 110.74 543.791 111.38H542.699C542.675 111.036 542.535 110.76 542.279 110.552C542.031 110.344 541.695 110.24 541.271 110.24C540.879 110.24 540.567 110.324 540.335 110.492C540.103 110.66 539.987 110.88 539.987 111.152C539.987 111.368 540.055 111.548 540.191 111.692C540.335 111.828 540.511 111.94 540.719 112.028C540.935 112.108 541.231 112.2 541.607 112.304C542.079 112.432 542.463 112.56 542.759 112.688C543.055 112.808 543.307 112.992 543.515 113.24C543.731 113.488 543.843 113.812 543.851 114.212C543.851 114.572 543.751 114.896 543.551 115.184C543.351 115.472 543.067 115.7 542.699 115.868C542.339 116.028 541.923 116.108 541.451 116.108ZM551.393 112.46C551.393 112.668 551.381 112.888 551.357 113.12H546.101C546.141 113.768 546.361 114.276 546.761 114.644C547.169 115.004 547.661 115.184 548.237 115.184C548.709 115.184 549.101 115.076 549.413 114.86C549.733 114.636 549.957 114.34 550.085 113.972H551.261C551.085 114.604 550.733 115.12 550.205 115.52C549.677 115.912 549.021 116.108 548.237 116.108C547.613 116.108 547.053 115.968 546.557 115.688C546.069 115.408 545.685 115.012 545.405 114.5C545.125 113.98 544.985 113.38 544.985 112.7C544.985 112.02 545.121 111.424 545.393 110.912C545.665 110.4 546.045 110.008 546.533 109.736C547.029 109.456 547.597 109.316 548.237 109.316C548.861 109.316 549.413 109.452 549.893 109.724C550.373 109.996 550.741 110.372 550.997 110.852C551.261 111.324 551.393 111.86 551.393 112.46ZM550.265 112.232C550.265 111.816 550.173 111.46 549.989 111.164C549.805 110.86 549.553 110.632 549.233 110.48C548.921 110.32 548.573 110.24 548.189 110.24C547.637 110.24 547.165 110.416 546.773 110.768C546.389 111.12 546.169 111.608 546.113 112.232H550.265ZM553.926 110.492C554.118 110.116 554.39 109.824 554.742 109.616C555.102 109.408 555.538 109.304 556.05 109.304V110.432H555.762C554.538 110.432 553.926 111.096 553.926 112.424V116H552.834V109.424H553.926V110.492ZM565.658 107.636V108.524H563.378V116H562.286V108.524H559.994V107.636H565.658ZM573.002 112.46C573.002 112.668 572.99 112.888 572.966 113.12H567.71C567.75 113.768 567.97 114.276 568.37 114.644C568.778 115.004 569.27 115.184 569.846 115.184C570.318 115.184 570.71 115.076 571.022 114.86C571.342 114.636 571.566 114.34 571.694 113.972H572.87C572.694 114.604 572.342 115.12 571.814 115.52C571.286 115.912 570.63 116.108 569.846 116.108C569.222 116.108 568.662 115.968 568.166 115.688C567.678 115.408 567.294 115.012 567.014 114.5C566.734 113.98 566.594 113.38 566.594 112.7C566.594 112.02 566.73 111.424 567.002 110.912C567.274 110.4 567.654 110.008 568.142 109.736C568.638 109.456 569.206 109.316 569.846 109.316C570.47 109.316 571.022 109.452 571.502 109.724C571.982 109.996 572.35 110.372 572.606 110.852C572.87 111.324 573.002 111.86 573.002 112.46ZM571.874 112.232C571.874 111.816 571.782 111.46 571.598 111.164C571.414 110.86 571.162 110.632 570.842 110.48C570.53 110.32 570.182 110.24 569.798 110.24C569.246 110.24 568.774 110.416 568.382 110.768C567.998 111.12 567.778 111.608 567.722 112.232H571.874ZM576.772 116.108C576.268 116.108 575.816 116.024 575.416 115.856C575.016 115.68 574.7 115.44 574.468 115.136C574.236 114.824 574.108 114.468 574.084 114.068H575.212C575.244 114.396 575.396 114.664 575.668 114.872C575.948 115.08 576.312 115.184 576.76 115.184C577.176 115.184 577.504 115.092 577.744 114.908C577.984 114.724 578.104 114.492 578.104 114.212C578.104 113.924 577.976 113.712 577.72 113.576C577.464 113.432 577.068 113.292 576.532 113.156C576.044 113.028 575.644 112.9 575.332 112.772C575.028 112.636 574.764 112.44 574.54 112.184C574.324 111.92 574.216 111.576 574.216 111.152C574.216 110.816 574.316 110.508 574.516 110.228C574.716 109.948 575 109.728 575.368 109.568C575.736 109.4 576.156 109.316 576.628 109.316C577.356 109.316 577.944 109.5 578.392 109.868C578.84 110.236 579.08 110.74 579.112 111.38H578.02C577.996 111.036 577.856 110.76 577.6 110.552C577.352 110.344 577.016 110.24 576.592 110.24C576.2 110.24 575.888 110.324 575.656 110.492C575.424 110.66 575.308 110.88 575.308 111.152C575.308 111.368 575.376 111.548 575.512 111.692C575.656 111.828 575.832 111.94 576.04 112.028C576.256 112.108 576.552 112.2 576.928 112.304C577.4 112.432 577.784 112.56 578.08 112.688C578.376 112.808 578.628 112.992 578.836 113.24C579.052 113.488 579.164 113.812 579.172 114.212C579.172 114.572 579.072 114.896 578.872 115.184C578.672 115.472 578.388 115.7 578.02 115.868C577.66 116.028 577.244 116.108 576.772 116.108ZM582.045 110.324V114.2C582.045 114.52 582.113 114.748 582.249 114.884C582.385 115.012 582.621 115.076 582.957 115.076H583.761V116H582.777C582.169 116 581.713 115.86 581.409 115.58C581.105 115.3 580.953 114.84 580.953 114.2V110.324H580.101V109.424H580.953V107.768H582.045V109.424H583.761V110.324H582.045ZM585.648 108.356C585.44 108.356 585.264 108.284 585.12 108.14C584.976 107.996 584.904 107.82 584.904 107.612C584.904 107.404 584.976 107.228 585.12 107.084C585.264 106.94 585.44 106.868 585.648 106.868C585.848 106.868 586.016 106.94 586.152 107.084C586.296 107.228 586.368 107.404 586.368 107.612C586.368 107.82 586.296 107.996 586.152 108.14C586.016 108.284 585.848 108.356 585.648 108.356ZM586.176 109.424V116H585.084V109.424H586.176ZM591.241 109.304C592.041 109.304 592.689 109.548 593.185 110.036C593.681 110.516 593.929 111.212 593.929 112.124V116H592.849V112.28C592.849 111.624 592.685 111.124 592.357 110.78C592.029 110.428 591.581 110.252 591.013 110.252C590.437 110.252 589.977 110.432 589.633 110.792C589.297 111.152 589.129 111.676 589.129 112.364V116H588.037V109.424H589.129V110.36C589.345 110.024 589.637 109.764 590.005 109.58C590.381 109.396 590.793 109.304 591.241 109.304ZM598.425 109.316C598.993 109.316 599.489 109.44 599.913 109.688C600.345 109.936 600.665 110.248 600.873 110.624V109.424H601.977V116.144C601.977 116.744 601.849 117.276 601.593 117.74C601.337 118.212 600.969 118.58 600.489 118.844C600.017 119.108 599.465 119.24 598.833 119.24C597.969 119.24 597.249 119.036 596.673 118.628C596.097 118.22 595.757 117.664 595.653 116.96H596.733C596.853 117.36 597.101 117.68 597.477 117.92C597.853 118.168 598.305 118.292 598.833 118.292C599.433 118.292 599.921 118.104 600.297 117.728C600.681 117.352 600.873 116.824 600.873 116.144V114.764C600.657 115.148 600.337 115.468 599.913 115.724C599.489 115.98 598.993 116.108 598.425 116.108C597.841 116.108 597.309 115.964 596.829 115.676C596.357 115.388 595.985 114.984 595.713 114.464C595.441 113.944 595.305 113.352 595.305 112.688C595.305 112.016 595.441 111.428 595.713 110.924C595.985 110.412 596.357 110.016 596.829 109.736C597.309 109.456 597.841 109.316 598.425 109.316ZM600.873 112.7C600.873 112.204 600.773 111.772 600.573 111.404C600.373 111.036 600.101 110.756 599.757 110.564C599.421 110.364 599.049 110.264 598.641 110.264C598.233 110.264 597.861 110.36 597.525 110.552C597.189 110.744 596.921 111.024 596.721 111.392C596.521 111.76 596.421 112.192 596.421 112.688C596.421 113.192 596.521 113.632 596.721 114.008C596.921 114.376 597.189 114.66 597.525 114.86C597.861 115.052 598.233 115.148 598.641 115.148C599.049 115.148 599.421 115.052 599.757 114.86C600.101 114.66 600.373 114.376 600.573 114.008C600.773 113.632 600.873 113.196 600.873 112.7Z" fill="black"/>
<g clip-path="url(#clip1)">
<path d="M555.505 72.3561C556.123 71.2558 556.477 69.9884 556.477 68.6392V65.5141C556.477 61.314 553.06 57.897 548.859 57.897C544.659 57.897 541.242 61.314 541.242 65.5141V68.6392C541.242 69.9884 541.596 71.2559 542.214 72.3562C538.693 74.6151 536.555 78.4678 536.555 82.7016V86.6329C536.555 87.388 537.167 88.0001 537.922 88.0001H559.797C560.552 88.0001 561.164 87.388 561.164 86.6329V82.7016C561.164 78.4692 559.026 74.6151 555.505 72.3561V72.3561ZM543.977 65.5141C543.977 62.8217 546.167 60.6313 548.859 60.6313C551.552 60.6313 553.742 62.8217 553.742 65.5141V68.6392C553.742 71.3316 551.552 73.522 548.859 73.522C546.167 73.522 543.976 71.3316 543.976 68.6392V65.5141H543.977ZM558.43 85.2657H539.289V82.7016C539.289 79.2988 541.068 76.2111 543.978 74.4807C545.301 75.5881 547.003 76.2564 548.859 76.2564C550.716 76.2564 552.418 75.5881 553.741 74.4807C556.65 76.2113 558.43 79.3 558.43 82.7016V85.2657Z" fill="black"/>
<path d="M572.475 44.2955C573.058 43.4204 574.192 42.2469 575.224 41.2143C576.184 40.2549 576.937 39.13 577.463 37.871C577.988 36.6138 578.254 35.2905 578.254 33.938C578.254 31.1995 577.187 28.6245 575.25 26.6876C573.313 24.7507 570.739 23.6842 568 23.6842C565.261 23.6842 562.686 24.7509 560.75 26.6876C558.813 28.6245 557.746 31.1994 557.746 33.938C557.746 36.1996 559.586 38.0395 561.848 38.0395C564.109 38.0395 565.949 36.1996 565.949 33.938C565.949 33.39 566.162 32.875 566.55 32.4878C566.937 32.1005 567.452 31.8873 568 31.8873C568.548 31.8873 569.063 32.1006 569.45 32.4878C569.838 32.875 570.051 33.39 570.051 33.938C570.051 34.2165 569.999 34.4806 569.898 34.7236C569.795 34.9707 569.635 35.2032 569.424 35.4141C567.56 37.2783 566.466 38.5399 565.649 39.7688C564.455 41.5635 563.898 43.2663 563.898 45.1274C563.898 46.1772 564.295 47.1357 564.946 47.862C564.295 48.5883 563.898 49.5471 563.898 50.5974C563.898 52.859 565.738 54.699 568 54.699C570.262 54.699 572.102 52.859 572.102 50.5974V50.5963C572.102 49.5466 571.705 48.5881 571.054 47.862C571.705 47.1357 572.102 46.1772 572.102 45.1276C572.102 45.0041 572.167 44.7598 572.475 44.2955ZM567.925 41.2833C568.636 40.2154 569.63 39.0752 571.358 37.3476C571.822 36.8833 572.18 36.3549 572.421 35.7774C572.663 35.1991 572.785 34.5801 572.785 33.9378C572.785 32.6594 572.288 31.4578 571.384 30.554C570.48 29.6505 569.278 29.1527 568 29.1527C566.722 29.1527 565.52 29.6503 564.616 30.554C563.713 31.4578 563.215 32.6594 563.215 33.9378C563.215 34.6917 562.602 35.305 561.848 35.305C561.094 35.305 560.481 34.6917 560.481 33.9378C560.481 31.9296 561.263 30.0414 562.683 28.621C564.104 27.2006 565.992 26.4183 568 26.4183C570.008 26.4183 571.897 27.2006 573.317 28.6208C574.737 30.0414 575.52 31.9296 575.52 33.9377C575.52 34.9266 575.324 35.8952 574.94 36.8169C574.552 37.7456 573.997 38.5745 573.291 39.2807C571.671 40.9005 570.775 41.9145 570.199 42.7807C569.632 43.6334 569.367 44.379 569.367 45.1273C569.367 45.8812 568.754 46.4945 568 46.4945C567.246 46.4945 566.633 45.8812 566.633 45.1273C566.633 43.8122 567.032 42.6267 567.925 41.2833V41.2833ZM569.367 50.5973C569.367 51.3511 568.754 51.9645 568 51.9645C567.246 51.9645 566.633 51.3511 566.633 50.5962C566.633 49.8423 567.246 49.229 568 49.229C568.754 49.229 569.367 49.8423 569.367 50.5962V50.5973Z" fill="black"/>
<path d="M589.191 39.1913C589.191 27.5063 579.685 18 568 18C564.594 18 561.34 18.7842 558.329 20.331C557.657 20.6761 557.393 21.5003 557.738 22.172C558.083 22.8435 558.907 23.1083 559.579 22.7633C562.199 21.417 565.032 20.7344 568 20.7344C578.177 20.7344 586.457 29.0142 586.457 39.1913C586.457 49.3685 578.177 57.6483 568 57.6483C557.823 57.6483 549.543 49.3685 549.543 39.1913C549.543 36.2234 550.226 33.3895 551.572 30.7689C551.917 30.0972 551.653 29.2731 550.981 28.928C550.31 28.5829 549.485 28.8476 549.14 29.5192C547.593 32.5303 546.809 35.7844 546.809 39.1913C546.809 50.8762 556.315 60.3826 568 60.3826C579.685 60.3826 589.191 50.8764 589.191 39.1913Z" fill="black"/>
<path d="M593.786 72.3561C594.404 71.2558 594.758 69.9884 594.758 68.6392V65.5141C594.758 61.314 591.341 57.897 587.141 57.897C582.94 57.897 579.523 61.314 579.523 65.5141V68.6392C579.523 69.9884 579.878 71.2559 580.496 72.3562C576.974 74.6151 574.836 78.4678 574.836 82.7016V86.6329C574.836 87.388 575.448 88.0001 576.203 88.0001H598.078C598.833 88.0001 599.445 87.388 599.445 86.6329V82.7016C599.445 78.4692 597.307 74.6151 593.786 72.3561V72.3561ZM582.258 65.5141C582.258 62.8217 584.448 60.6313 587.14 60.6313C589.833 60.6313 592.023 62.8217 592.023 65.5141V68.6392C592.023 71.3316 589.833 73.522 587.14 73.522C584.448 73.522 582.258 71.3316 582.258 68.6392V65.5141H582.258ZM596.711 85.2657H577.57V82.7016C577.57 79.2988 579.349 76.2111 582.259 74.4807C583.582 75.5881 585.284 76.2564 587.141 76.2564C588.997 76.2564 590.7 75.5881 592.022 74.4807C594.932 76.2113 596.711 79.3 596.711 82.7016V85.2657Z" fill="black"/>
<path d="M553.982 26.5408C554.354 26.5408 554.724 26.3899 554.994 26.0933L554.995 26.0926C555.503 25.534 555.461 24.6696 554.902 24.1617C554.344 23.6538 553.479 23.6952 552.971 24.254C552.463 24.8126 552.504 25.6774 553.063 26.1853C553.325 26.4233 553.654 26.5408 553.982 26.5408V26.5408Z" fill="black"/>
</g>
<path d="M192.539 98.636V107H191.447V98.636H192.539ZM197.605 100.304C198.405 100.304 199.053 100.548 199.549 101.036C200.045 101.516 200.293 102.212 200.293 103.124V107H199.213V103.28C199.213 102.624 199.049 102.124 198.721 101.78C198.393 101.428 197.945 101.252 197.377 101.252C196.801 101.252 196.341 101.432 195.997 101.792C195.661 102.152 195.493 102.676 195.493 103.364V107H194.401V100.424H195.493V101.36C195.709 101.024 196.001 100.764 196.369 100.58C196.745 100.396 197.157 100.304 197.605 100.304ZM203.408 101.324V105.2C203.408 105.52 203.476 105.748 203.612 105.884C203.748 106.012 203.984 106.076 204.32 106.076H205.124V107H204.14C203.532 107 203.076 106.86 202.772 106.58C202.468 106.3 202.316 105.84 202.316 105.2V101.324H201.464V100.424H202.316V98.768H203.408V100.424H205.124V101.324H203.408ZM212.447 103.46C212.447 103.668 212.435 103.888 212.411 104.12H207.155C207.195 104.768 207.415 105.276 207.815 105.644C208.223 106.004 208.715 106.184 209.291 106.184C209.763 106.184 210.155 106.076 210.467 105.86C210.787 105.636 211.011 105.34 211.139 104.972H212.315C212.139 105.604 211.787 106.12 211.259 106.52C210.731 106.912 210.075 107.108 209.291 107.108C208.667 107.108 208.107 106.968 207.611 106.688C207.123 106.408 206.739 106.012 206.459 105.5C206.179 104.98 206.039 104.38 206.039 103.7C206.039 103.02 206.175 102.424 206.447 101.912C206.719 101.4 207.099 101.008 207.587 100.736C208.083 100.456 208.651 100.316 209.291 100.316C209.915 100.316 210.467 100.452 210.947 100.724C211.427 100.996 211.795 101.372 212.051 101.852C212.315 102.324 212.447 102.86 212.447 103.46ZM211.319 103.232C211.319 102.816 211.227 102.46 211.043 102.164C210.859 101.86 210.607 101.632 210.287 101.48C209.975 101.32 209.627 101.24 209.243 101.24C208.691 101.24 208.219 101.416 207.827 101.768C207.443 102.12 207.223 102.608 207.167 103.232H211.319ZM214.981 101.492C215.173 101.116 215.445 100.824 215.797 100.616C216.157 100.408 216.593 100.304 217.105 100.304V101.432H216.817C215.593 101.432 214.981 102.096 214.981 103.424V107H213.889V100.424H214.981V101.492ZM220.813 105.992L222.853 100.424H224.017L221.437 107H220.165L217.585 100.424H218.761L220.813 105.992ZM225.656 99.356C225.448 99.356 225.272 99.284 225.128 99.14C224.984 98.996 224.912 98.82 224.912 98.612C224.912 98.404 224.984 98.228 225.128 98.084C225.272 97.94 225.448 97.868 225.656 97.868C225.856 97.868 226.024 97.94 226.16 98.084C226.304 98.228 226.376 98.404 226.376 98.612C226.376 98.82 226.304 98.996 226.16 99.14C226.024 99.284 225.856 99.356 225.656 99.356ZM226.184 100.424V107H225.092V100.424H226.184ZM234.045 103.46C234.045 103.668 234.033 103.888 234.009 104.12H228.753C228.793 104.768 229.013 105.276 229.413 105.644C229.821 106.004 230.313 106.184 230.889 106.184C231.361 106.184 231.753 106.076 232.065 105.86C232.385 105.636 232.609 105.34 232.737 104.972H233.913C233.737 105.604 233.385 106.12 232.857 106.52C232.329 106.912 231.673 107.108 230.889 107.108C230.265 107.108 229.705 106.968 229.209 106.688C228.721 106.408 228.337 106.012 228.057 105.5C227.777 104.98 227.637 104.38 227.637 103.7C227.637 103.02 227.773 102.424 228.045 101.912C228.317 101.4 228.697 101.008 229.185 100.736C229.681 100.456 230.249 100.316 230.889 100.316C231.513 100.316 232.065 100.452 232.545 100.724C233.025 100.996 233.393 101.372 233.649 101.852C233.913 102.324 234.045 102.86 234.045 103.46ZM232.917 103.232C232.917 102.816 232.825 102.46 232.641 102.164C232.457 101.86 232.205 101.632 231.885 101.48C231.573 101.32 231.225 101.24 230.841 101.24C230.289 101.24 229.817 101.416 229.425 101.768C229.041 102.12 228.821 102.608 228.765 103.232H232.917ZM244.247 100.424L242.195 107H241.067L239.483 101.78L237.899 107H236.771L234.707 100.424H235.823L237.335 105.944L238.967 100.424H240.083L241.679 105.956L243.167 100.424H244.247ZM254.949 107L253.857 105.896C253.449 106.32 253.013 106.636 252.549 106.844C252.085 107.044 251.561 107.144 250.977 107.144C250.401 107.144 249.889 107.04 249.441 106.832C249.001 106.624 248.657 106.328 248.409 105.944C248.169 105.56 248.049 105.112 248.049 104.6C248.049 104.016 248.213 103.504 248.541 103.064C248.877 102.616 249.369 102.264 250.017 102.008C249.761 101.704 249.577 101.424 249.465 101.168C249.353 100.912 249.297 100.632 249.297 100.328C249.297 99.976 249.385 99.66 249.561 99.38C249.745 99.092 250.005 98.868 250.341 98.708C250.677 98.548 251.065 98.468 251.505 98.468C251.937 98.468 252.313 98.552 252.633 98.72C252.953 98.888 253.193 99.124 253.353 99.428C253.513 99.724 253.585 100.056 253.569 100.424H252.477C252.485 100.096 252.393 99.84 252.201 99.656C252.009 99.464 251.761 99.368 251.457 99.368C251.137 99.368 250.877 99.46 250.677 99.644C250.485 99.82 250.389 100.048 250.389 100.328C250.389 100.568 250.453 100.8 250.581 101.024C250.717 101.248 250.941 101.524 251.253 101.852L253.749 104.36L253.965 104.024L254.781 102.656H255.957L254.973 104.36C254.837 104.6 254.677 104.852 254.493 105.116L256.377 107H254.949ZM250.977 106.208C251.409 106.208 251.797 106.124 252.141 105.956C252.493 105.788 252.825 105.528 253.137 105.176L250.677 102.704C249.653 103.096 249.141 103.716 249.141 104.564C249.141 105.036 249.309 105.428 249.645 105.74C249.989 106.052 250.433 106.208 250.977 106.208ZM207.014 125.084C206.462 125.084 205.966 124.988 205.526 124.796C205.094 124.596 204.754 124.324 204.506 123.98C204.258 123.628 204.13 123.224 204.122 122.768H205.286C205.326 123.16 205.486 123.492 205.766 123.764C206.054 124.028 206.47 124.16 207.014 124.16C207.534 124.16 207.942 124.032 208.238 123.776C208.542 123.512 208.694 123.176 208.694 122.768C208.694 122.448 208.606 122.188 208.43 121.988C208.254 121.788 208.034 121.636 207.77 121.532C207.506 121.428 207.15 121.316 206.702 121.196C206.15 121.052 205.706 120.908 205.37 120.764C205.042 120.62 204.758 120.396 204.518 120.092C204.286 119.78 204.17 119.364 204.17 118.844C204.17 118.388 204.286 117.984 204.518 117.632C204.75 117.28 205.074 117.008 205.49 116.816C205.914 116.624 206.398 116.528 206.942 116.528C207.726 116.528 208.366 116.724 208.862 117.116C209.366 117.508 209.65 118.028 209.714 118.676H208.514C208.474 118.356 208.306 118.076 208.01 117.836C207.714 117.588 207.322 117.464 206.834 117.464C206.378 117.464 206.006 117.584 205.718 117.824C205.43 118.056 205.286 118.384 205.286 118.808C205.286 119.112 205.37 119.36 205.538 119.552C205.714 119.744 205.926 119.892 206.174 119.996C206.43 120.092 206.786 120.204 207.242 120.332C207.794 120.484 208.238 120.636 208.574 120.788C208.91 120.932 209.198 121.16 209.438 121.472C209.678 121.776 209.798 122.192 209.798 122.72C209.798 123.128 209.69 123.512 209.474 123.872C209.258 124.232 208.938 124.524 208.514 124.748C208.09 124.972 207.59 125.084 207.014 125.084ZM217.236 118.424V125H216.144V124.028C215.936 124.364 215.644 124.628 215.268 124.82C214.9 125.004 214.492 125.096 214.044 125.096C213.532 125.096 213.072 124.992 212.664 124.784C212.256 124.568 211.932 124.248 211.692 123.824C211.46 123.4 211.344 122.884 211.344 122.276V118.424H212.424V122.132C212.424 122.78 212.588 123.28 212.916 123.632C213.244 123.976 213.692 124.148 214.26 124.148C214.844 124.148 215.304 123.968 215.64 123.608C215.976 123.248 216.144 122.724 216.144 122.036V118.424H217.236ZM220.172 119.492C220.364 119.116 220.636 118.824 220.988 118.616C221.348 118.408 221.784 118.304 222.296 118.304V119.432H222.008C220.784 119.432 220.172 120.096 220.172 121.424V125H219.08V118.424H220.172V119.492ZM226.005 123.992L228.045 118.424H229.209L226.629 125H225.357L222.777 118.424H223.953L226.005 123.992ZM236.283 121.46C236.283 121.668 236.271 121.888 236.247 122.12H230.991C231.031 122.768 231.251 123.276 231.651 123.644C232.059 124.004 232.551 124.184 233.127 124.184C233.599 124.184 233.991 124.076 234.303 123.86C234.623 123.636 234.847 123.34 234.975 122.972H236.151C235.975 123.604 235.623 124.12 235.095 124.52C234.567 124.912 233.911 125.108 233.127 125.108C232.503 125.108 231.943 124.968 231.447 124.688C230.959 124.408 230.575 124.012 230.295 123.5C230.015 122.98 229.875 122.38 229.875 121.7C229.875 121.02 230.011 120.424 230.283 119.912C230.555 119.4 230.935 119.008 231.423 118.736C231.919 118.456 232.487 118.316 233.127 118.316C233.751 118.316 234.303 118.452 234.783 118.724C235.263 118.996 235.631 119.372 235.887 119.852C236.151 120.324 236.283 120.86 236.283 121.46ZM235.155 121.232C235.155 120.816 235.063 120.46 234.879 120.164C234.695 119.86 234.443 119.632 234.123 119.48C233.811 119.32 233.463 119.24 233.079 119.24C232.527 119.24 232.055 119.416 231.663 119.768C231.279 120.12 231.059 120.608 231.003 121.232H235.155ZM243.389 118.424L239.429 128.096H238.301L239.597 124.928L236.945 118.424H238.157L240.221 123.752L242.261 118.424H243.389Z" fill="black"/>
<g clip-path="url(#clip2)">
<path d="M230.876 41.3755H219.74C219.174 41.3755 218.715 40.9165 218.715 40.3501C218.715 39.7837 219.174 39.3247 219.74 39.3247H230.876C231.442 39.3247 231.901 39.7837 231.901 40.3501C231.901 40.9165 231.442 41.3755 230.876 41.3755Z" fill="black"/>
<path d="M242.011 36.1122H219.74C219.174 36.1122 218.715 35.6532 218.715 35.0868C218.715 34.5204 219.174 34.0614 219.74 34.0614H242.011C242.577 34.0614 243.036 34.5204 243.036 35.0868C243.036 35.6532 242.577 36.1122 242.011 36.1122Z" fill="black"/>
<path d="M230.876 58.5592H219.74C219.174 58.5592 218.715 58.1002 218.715 57.5338C218.715 56.9674 219.174 56.5084 219.74 56.5084H230.876C231.442 56.5084 231.901 56.9674 231.901 57.5338C231.901 58.1002 231.442 58.5592 230.876 58.5592Z" fill="black"/>
<path d="M242.011 53.2958H219.74C219.174 53.2958 218.715 52.8368 218.715 52.2704C218.715 51.704 219.174 51.245 219.74 51.245H242.011C242.577 51.245 243.036 51.704 243.036 52.2704C243.036 52.8368 242.577 53.2958 242.011 53.2958Z" fill="black"/>
<path d="M230.876 75.743H219.74C219.174 75.743 218.715 75.2841 218.715 74.7177C218.715 74.1512 219.174 73.6923 219.74 73.6923H230.876C231.442 73.6923 231.901 74.1512 231.901 74.7177C231.901 75.2841 231.442 75.743 230.876 75.743Z" fill="black"/>
<path d="M242.011 70.4796H219.74C219.174 70.4796 218.715 70.0206 218.715 69.4542C218.715 68.8878 219.174 68.4288 219.74 68.4288H242.011C242.577 68.4288 243.036 68.8878 243.036 69.4542C243.036 70.0206 242.577 70.4796 242.011 70.4796Z" fill="black"/>
<path d="M231.866 27.6593H214.134C212.448 27.6593 211.077 26.2882 211.077 24.6027V21.0568C211.077 19.3713 212.448 18 214.134 18H231.866C233.552 18 234.923 19.3713 234.923 21.0568V24.6027C234.923 26.2882 233.552 27.6593 231.866 27.6593ZM214.134 20.0508C213.579 20.0508 213.128 20.5021 213.128 21.0568V24.6027C213.128 25.1574 213.579 25.6085 214.134 25.6085H231.866C232.421 25.6085 232.872 25.1572 232.872 24.6027V21.0568C232.872 20.502 232.421 20.0508 231.866 20.0508H214.134Z" fill="black"/>
<path d="M210.274 42.7499H205.717C204.199 42.7499 202.964 41.515 202.964 39.997V35.4399C202.964 33.9219 204.199 32.6869 205.717 32.6869H210.274C211.792 32.6869 213.027 33.9219 213.027 35.4399V39.9971C213.027 41.515 211.792 42.7499 210.274 42.7499ZM205.717 34.7377C205.329 34.7377 205.014 35.0527 205.014 35.4399V39.9971C205.014 40.3843 205.329 40.6993 205.717 40.6993H210.274C210.661 40.6993 210.976 40.3843 210.976 39.9971V35.4399C210.976 35.0527 210.661 34.7377 210.274 34.7377H205.717Z" fill="black"/>
<path d="M210.274 59.9337H205.717C204.199 59.9337 202.964 58.6987 202.964 57.1807V52.6235C202.964 51.1055 204.199 49.8705 205.717 49.8705H210.274C211.792 49.8705 213.027 51.1055 213.027 52.6235V57.1807C213.027 58.6987 211.792 59.9337 210.274 59.9337ZM205.717 51.9213C205.329 51.9213 205.014 52.2363 205.014 52.6235V57.1807C205.014 57.5679 205.329 57.8829 205.717 57.8829H210.274C210.661 57.8829 210.976 57.5679 210.976 57.1807V52.6235C210.976 52.2363 210.661 51.9213 210.274 51.9213H205.717Z" fill="black"/>
<path d="M210.274 77.1175H205.717C204.199 77.1175 202.964 75.8825 202.964 74.3644V69.8073C202.964 68.2892 204.199 67.0542 205.717 67.0542H210.274C211.792 67.0542 213.027 68.2892 213.027 69.8073V74.3644C213.027 75.8825 211.792 77.1175 210.274 77.1175ZM205.717 69.1051C205.329 69.1051 205.014 69.4203 205.014 69.8074V74.3645C205.014 74.7517 205.329 75.0669 205.717 75.0669H210.274C210.661 75.0669 210.976 74.7517 210.976 74.3645V69.8074C210.976 69.4203 210.661 69.1051 210.274 69.1051H205.717Z" fill="black"/>
<path d="M244.814 88H201.186C198.737 88 196.744 86.0073 196.744 83.5579V26.2463C196.744 23.797 198.737 21.8043 201.186 21.8043H207.331C207.898 21.8043 208.357 22.2633 208.357 22.8297C208.357 23.3961 207.898 23.8551 207.331 23.8551H201.186C199.868 23.8551 198.795 24.9278 198.795 26.2463V83.5577C198.795 84.8764 199.868 85.9491 201.186 85.9491H244.814C246.132 85.9491 247.205 84.8762 247.205 83.5577V26.2463C247.205 24.9277 246.132 23.8551 244.814 23.8551H238.669C238.102 23.8551 237.643 23.3961 237.643 22.8297C237.643 22.2633 238.102 21.8043 238.669 21.8043H244.814C247.263 21.8043 249.256 23.797 249.256 26.2463V83.5577C249.256 86.0073 247.263 88 244.814 88Z" fill="black"/>
</g>
<path d="M159.398 59.3536C159.593 59.1583 159.593 58.8417 159.398 58.6464L156.216 55.4645C156.021 55.2692 155.704 55.2692 155.509 55.4645C155.314 55.6597 155.314 55.9763 155.509 56.1716L158.337 59L155.509 61.8284C155.314 62.0237 155.314 62.3403 155.509 62.5355C155.704 62.7308 156.021 62.7308 156.216 62.5355L159.398 59.3536ZM114 59.5H159.044V58.5H114V59.5Z" fill="black"/>
<path d="M319.398 59.3536C319.593 59.1583 319.593 58.8417 319.398 58.6464L316.216 55.4645C316.021 55.2692 315.704 55.2692 315.509 55.4645C315.314 55.6597 315.314 55.9763 315.509 56.1716L318.337 59L315.509 61.8284C315.314 62.0237 315.314 62.3403 315.509 62.5355C315.704 62.7308 316.021 62.7308 316.216 62.5355L319.398 59.3536ZM274 59.5H319.044V58.5H274V59.5Z" fill="black"/>
<path d="M504.398 59.3536C504.593 59.1583 504.593 58.8417 504.398 58.6464L501.216 55.4645C501.021 55.2692 500.704 55.2692 500.509 55.4645C500.314 55.6597 500.314 55.9763 500.509 56.1716L503.337 59L500.509 61.8284C500.314 62.0237 500.314 62.3403 500.509 62.5355C500.704 62.7308 501.021 62.7308 501.216 62.5355L504.398 59.3536ZM459 59.5H504.044V58.5H459V59.5Z" fill="black"/>
<path d="M684.398 59.3536C684.593 59.1583 684.593 58.8417 684.398 58.6464L681.216 55.4645C681.021 55.2692 680.704 55.2692 680.509 55.4645C680.314 55.6597 680.314 55.9763 680.509 56.1716L683.337 59L680.509 61.8284C680.314 62.0237 680.314 62.3403 680.509 62.5355C680.704 62.7308 681.021 62.7308 681.216 62.5355L684.398 59.3536ZM639 59.5H684.044V58.5H639V59.5Z" fill="black"/>
<defs>
<clipPath id="clip0">
<rect width="70" height="70" fill="white" transform="translate(360 18)"/>
</clipPath>
<clipPath id="clip1">
<rect width="70" height="70" fill="white" transform="translate(533 18)"/>
</clipPath>
<clipPath id="clip2">
<rect width="70" height="70" fill="white" transform="translate(188 18)"/>
</clipPath>
</defs>
</svg>
