<svg width="791" height="128" viewBox="0 0 791 128" fill="none" xmlns="http://www.w3.org/2000/svg">
<path d="M428.79 101.691H426.422V108H425.47V101.691H423.121V100.842H428.79V101.691ZM432.496 108.122C431.734 108.122 431.122 107.884 430.66 107.409C430.198 106.931 429.966 106.265 429.966 105.412C429.966 104.566 430.189 103.903 430.635 103.425C431.085 102.943 431.671 102.702 432.393 102.702C433.132 102.702 433.721 102.938 434.161 103.41C434.603 103.882 434.825 104.549 434.825 105.412V105.632H430.923C430.962 106.231 431.127 106.675 431.417 106.965C431.71 107.255 432.069 107.399 432.496 107.399C432.818 107.399 433.108 107.318 433.365 107.155C433.625 106.989 433.762 106.755 433.775 106.452H434.727C434.656 106.986 434.413 107.398 434 107.688C433.589 107.977 433.088 108.122 432.496 108.122ZM433.853 104.909C433.778 104.411 433.611 104.038 433.35 103.791C433.09 103.544 432.771 103.42 432.393 103.42C432.025 103.42 431.71 103.544 431.446 103.791C431.182 104.035 431.015 104.408 430.943 104.909H433.853ZM438.56 108.122C437.824 108.122 437.235 107.886 436.792 107.414C436.353 106.939 436.133 106.271 436.133 105.412C436.133 104.549 436.353 103.882 436.792 103.41C437.235 102.938 437.824 102.702 438.56 102.702C439.126 102.702 439.598 102.845 439.976 103.132C440.356 103.418 440.581 103.832 440.649 104.372H439.702C439.689 104.063 439.572 103.827 439.351 103.664C439.132 103.501 438.869 103.42 438.56 103.42C438.12 103.42 437.764 103.588 437.49 103.923C437.217 104.255 437.08 104.751 437.08 105.412C437.08 106.07 437.217 106.566 437.49 106.901C437.764 107.233 438.12 107.399 438.56 107.399C438.869 107.399 439.132 107.318 439.351 107.155C439.572 106.993 439.689 106.758 439.702 106.452H440.649C440.581 106.993 440.356 107.406 439.976 107.692C439.598 107.979 439.126 108.122 438.56 108.122ZM442.983 103.479C443.442 102.961 443.958 102.702 444.531 102.702C445.699 102.702 446.284 103.339 446.284 104.611V108H445.361V104.65C445.361 104.227 445.284 103.923 445.131 103.737C444.982 103.552 444.734 103.459 444.389 103.459C443.92 103.459 443.452 103.736 442.983 104.289V108H442.06V100.842H442.983V103.479ZM449.149 103.479C449.608 102.961 450.124 102.702 450.697 102.702C451.866 102.702 452.45 103.339 452.45 104.611V108H451.527V104.65C451.527 104.227 451.451 103.923 451.298 103.737C451.148 103.552 450.901 103.459 450.555 103.459C450.087 103.459 449.618 103.736 449.149 104.289V108H448.226V102.819H449.149V103.479ZM456.492 102.702C457.231 102.702 457.821 102.938 458.26 103.41C458.703 103.882 458.924 104.549 458.924 105.412C458.924 106.271 458.703 106.939 458.26 107.414C457.821 107.886 457.231 108.122 456.492 108.122C455.757 108.122 455.168 107.886 454.725 107.414C454.285 106.939 454.066 106.271 454.066 105.412C454.066 104.549 454.285 103.882 454.725 103.41C455.168 102.938 455.757 102.702 456.492 102.702ZM456.492 107.399C456.932 107.399 457.288 107.233 457.562 106.901C457.835 106.566 457.972 106.07 457.972 105.412C457.972 104.751 457.835 104.255 457.562 103.923C457.288 103.588 456.932 103.42 456.492 103.42C456.053 103.42 455.696 103.588 455.423 103.923C455.15 104.255 455.013 104.751 455.013 105.412C455.013 106.07 455.15 106.566 455.423 106.901C455.696 107.233 456.053 107.399 456.492 107.399ZM461.482 108H460.559V100.842H461.482V108ZM465.544 102.702C466.283 102.702 466.872 102.938 467.312 103.41C467.754 103.882 467.976 104.549 467.976 105.412C467.976 106.271 467.754 106.939 467.312 107.414C466.872 107.886 466.283 108.122 465.544 108.122C464.808 108.122 464.219 107.886 463.776 107.414C463.337 106.939 463.117 106.271 463.117 105.412C463.117 104.549 463.337 103.882 463.776 103.41C464.219 102.938 464.808 102.702 465.544 102.702ZM465.544 107.399C465.983 107.399 466.34 107.233 466.613 106.901C466.887 106.566 467.023 106.07 467.023 105.412C467.023 104.751 466.887 104.255 466.613 103.923C466.34 103.588 465.983 103.42 465.544 103.42C465.104 103.42 464.748 103.588 464.475 103.923C464.201 104.255 464.064 104.751 464.064 105.412C464.064 106.07 464.201 106.566 464.475 106.901C464.748 107.233 465.104 107.399 465.544 107.399ZM473.81 107.6C473.81 109.266 473.058 110.1 471.554 110.1C470.903 110.1 470.389 109.958 470.011 109.675C469.637 109.392 469.45 109.011 469.45 108.532H470.402C470.402 109.099 470.783 109.382 471.544 109.382C471.974 109.382 472.306 109.263 472.54 109.025C472.775 108.791 472.892 108.329 472.892 107.639V107.38C472.482 107.875 471.989 108.122 471.412 108.122C470.735 108.122 470.211 107.881 469.84 107.399C469.469 106.918 469.284 106.268 469.284 105.451C469.284 104.605 469.49 103.936 469.904 103.444C470.32 102.95 470.843 102.702 471.471 102.702C472.031 102.702 472.505 102.875 472.892 103.22V102.819H473.81V107.6ZM472.892 106.511V104.05C472.495 103.63 472.041 103.42 471.53 103.42C471.136 103.42 470.82 103.591 470.582 103.933C470.348 104.271 470.231 104.777 470.231 105.451C470.231 106.089 470.342 106.574 470.563 106.906C470.787 107.235 471.097 107.399 471.491 107.399C472.005 107.399 472.472 107.103 472.892 106.511ZM476.07 109.25C476.526 109.25 476.899 108.833 477.188 108L475.23 102.819H476.226L477.598 106.872L478.971 102.819H479.967L478.009 108C477.82 108.495 477.659 108.876 477.525 109.143C477.395 109.413 477.222 109.639 477.008 109.821C476.796 110.007 476.536 110.1 476.226 110.1C475.995 110.1 475.797 110.077 475.631 110.031V109.182C475.774 109.227 475.92 109.25 476.07 109.25Z" fill="black"/>
<g clip-path="url(#clip0)">
<path d="M419.095 80.9054C414.969 76.7799 414.968 70.1018 419.095 65.9756L439.866 45.2037C442.524 42.5465 443.979 38.9586 443.965 35.101C443.944 29.481 446.097 24.201 450.025 20.2337C454.75 15.4631 461.433 13.2413 468.082 14.231C470.721 14.624 471.799 17.8496 469.911 19.7376L458.131 31.5176C457.504 32.1445 457.315 33.08 457.651 33.9008L459.75 39.0458C459.972 39.5892 460.411 40.0279 460.954 40.2496L466.099 42.3494C466.92 42.6845 467.855 42.4957 468.482 41.8688L472.089 38.2626C472.489 37.8623 473.138 37.862 473.539 38.2626C473.939 38.663 473.939 39.3122 473.539 39.7126L469.932 43.319C468.72 44.5313 466.911 44.896 465.324 44.2481L460.179 42.1484C459.129 41.7196 458.28 40.8714 457.852 39.8209L455.752 34.6759C455.104 33.0887 455.469 31.2798 456.681 30.0678L468.461 18.2878C469.156 17.593 468.763 16.4059 467.78 16.2596C461.967 15.3938 455.885 17.2311 451.483 21.6769C447.939 25.2557 445.997 30.0205 446.016 35.0937C446.032 39.5019 444.363 43.6075 441.317 46.654L420.545 67.4258C417.22 70.7502 417.22 76.1308 420.545 79.4555C423.869 82.7797 429.25 82.7801 432.574 79.4555L453.322 58.7072C456.376 55.6544 460.478 53.991 464.874 54.0083C469.986 54.0369 474.78 52.0609 478.39 48.4507C482.802 44.0394 484.599 37.983 483.74 32.2184C483.594 31.2382 482.408 30.8428 481.712 31.539L476.922 36.3298C476.521 36.7304 475.872 36.7301 475.472 36.3298C475.071 35.9293 475.071 35.2802 475.472 34.8797L480.262 30.089C482.149 28.202 485.376 29.277 485.769 31.9162C486.751 38.51 484.576 45.1659 479.841 49.9009C475.867 53.8748 470.591 56.0593 464.974 56.0594C464.937 56.0594 464.901 56.0594 464.863 56.0591C461.02 56.0424 457.436 57.4948 454.773 60.1574L434.024 80.9054C429.899 85.0309 423.221 85.0319 419.095 80.9054Z" fill="black"/>
<path d="M423.346 76.6538C421.57 74.8775 421.57 71.9871 423.346 70.2108C425.127 68.4305 428.009 68.4299 429.789 70.2108C431.57 71.9913 431.57 74.8732 429.789 76.654H429.789C429.789 76.654 429.789 76.654 429.789 76.654C428.009 78.4343 425.127 78.4346 423.346 76.6538ZM424.796 71.6609C423.819 72.6377 423.819 74.2271 424.796 75.2038C425.775 76.1827 427.36 76.1831 428.339 75.2038H428.339C429.318 74.2248 429.318 72.6401 428.339 71.661C427.36 70.6818 425.776 70.6817 424.796 71.6609Z" fill="#7D5CD2"/>
<path d="M431.9 68.1002C430.119 66.3197 430.119 63.4376 431.9 61.657L432.827 60.7298C433.227 60.3295 433.877 60.3295 434.277 60.7298C434.678 61.1302 434.678 61.7794 434.277 62.1798L433.35 63.1069C432.371 64.086 432.371 65.6707 433.35 66.6498C434.329 67.6289 435.914 67.629 436.893 66.6498L450.276 53.267C451.255 52.2879 451.255 50.7034 450.276 49.7239C449.296 48.7449 447.712 48.7447 446.733 49.7239L437.669 58.7874C437.269 59.1879 436.62 59.1879 436.219 58.7874C435.819 58.387 435.819 57.7378 436.219 57.3374L445.283 48.2739C447.063 46.4935 449.945 46.493 451.726 48.2739C453.506 50.0544 453.507 52.9364 451.726 54.717L438.343 68.0999C436.563 69.8805 433.68 69.8811 431.9 68.1002Z" fill="#7D5CD2"/>
</g>
<path d="M609.909 104.122C609.079 104.122 608.457 103.961 608.044 103.639C607.634 103.316 607.373 102.937 607.263 102.501C607.155 102.065 607.101 101.559 607.101 100.982V96.8418H608.049V100.968C608.049 101.909 608.207 102.527 608.522 102.823C608.838 103.119 609.3 103.268 609.909 103.268C610.518 103.268 610.98 103.119 611.296 102.823C611.611 102.527 611.769 101.909 611.769 100.968V96.8418H612.721V100.982C612.721 101.848 612.617 102.486 612.409 102.896C612.204 103.307 611.893 103.614 611.476 103.819C611.06 104.021 610.537 104.122 609.909 104.122ZM616.656 104.122C615.24 104.122 614.5 103.565 614.435 102.452H615.358C615.364 103.084 615.794 103.399 616.647 103.399C617.028 103.399 617.317 103.321 617.516 103.165C617.718 103.006 617.819 102.807 617.819 102.569C617.819 102.335 617.721 102.171 617.526 102.076C617.33 101.979 616.927 101.853 616.315 101.7C615.706 101.547 615.26 101.376 614.977 101.188C614.697 100.999 614.557 100.667 614.557 100.191C614.557 99.7617 614.731 99.4069 615.079 99.127C615.431 98.8438 615.9 98.7021 616.486 98.7021C617.843 98.7021 618.536 99.1855 618.566 100.152H617.648C617.615 99.6641 617.249 99.4199 616.549 99.4199C616.24 99.4199 615.983 99.4785 615.778 99.5957C615.576 99.7129 615.475 99.8838 615.475 100.108C615.475 100.31 615.553 100.457 615.709 100.548C615.865 100.636 616.256 100.756 616.881 100.909C617.509 101.059 617.975 101.235 618.278 101.437C618.584 101.638 618.737 101.987 618.737 102.481C618.737 102.953 618.548 103.346 618.17 103.658C617.796 103.967 617.291 104.122 616.656 104.122ZM622.608 104.122C621.846 104.122 621.234 103.884 620.772 103.409C620.31 102.931 620.079 102.265 620.079 101.412C620.079 100.566 620.302 99.9033 620.748 99.4248C621.197 98.943 621.783 98.7021 622.505 98.7021C623.244 98.7021 623.834 98.9382 624.273 99.4102C624.716 99.8822 624.937 100.549 624.937 101.412V101.632H621.036C621.075 102.231 621.239 102.675 621.529 102.965C621.822 103.255 622.182 103.399 622.608 103.399C622.93 103.399 623.22 103.318 623.477 103.155C623.738 102.989 623.874 102.755 623.887 102.452H624.839C624.768 102.986 624.525 103.398 624.112 103.688C623.702 103.977 623.2 104.122 622.608 104.122ZM623.965 100.909C623.891 100.411 623.723 100.038 623.463 99.791C623.202 99.5436 622.883 99.4199 622.505 99.4199C622.138 99.4199 621.822 99.5436 621.558 99.791C621.295 100.035 621.127 100.408 621.055 100.909H623.965ZM631.928 98.7021C632.667 98.7021 633.256 98.9382 633.696 99.4102C634.138 99.8822 634.36 100.549 634.36 101.412C634.36 102.271 634.138 102.939 633.696 103.414C633.256 103.886 632.667 104.122 631.928 104.122C631.192 104.122 630.603 103.886 630.161 103.414C629.721 102.939 629.501 102.271 629.501 101.412C629.501 100.549 629.721 99.8822 630.161 99.4102C630.603 98.9382 631.192 98.7021 631.928 98.7021ZM631.928 103.399C632.368 103.399 632.724 103.233 632.997 102.901C633.271 102.566 633.408 102.07 633.408 101.412C633.408 100.751 633.271 100.255 632.997 99.9229C632.724 99.5876 632.368 99.4199 631.928 99.4199C631.489 99.4199 631.132 99.5876 630.859 99.9229C630.585 100.255 630.449 100.751 630.449 101.412C630.449 102.07 630.585 102.566 630.859 102.901C631.132 103.233 631.489 103.399 631.928 103.399ZM637.074 99.542V104H636.156V99.542H635.394V98.8193H636.156V98.3604C636.156 97.2666 636.639 96.7197 637.606 96.7197C637.902 96.7197 638.132 96.7393 638.295 96.7783V97.5791C638.112 97.5465 637.927 97.5303 637.738 97.5303C637.513 97.5303 637.346 97.5938 637.235 97.7207C637.128 97.8444 637.074 98.0609 637.074 98.3701V98.8193H638.055V99.542H637.074ZM596.854 115H595.901V107.842H596.854V115ZM599.968 110.479C600.427 109.961 600.943 109.702 601.516 109.702C602.685 109.702 603.269 110.339 603.269 111.611V115H602.346V111.65C602.346 111.227 602.27 110.923 602.117 110.737C601.967 110.552 601.719 110.459 601.374 110.459C600.906 110.459 600.437 110.736 599.968 111.289V115H599.045V109.819H599.968V110.479ZM608.493 113.511V111.05C608.096 110.63 607.642 110.42 607.131 110.42C606.737 110.42 606.421 110.591 606.183 110.933C605.949 111.271 605.832 111.777 605.832 112.451C605.832 113.089 605.943 113.574 606.164 113.906C606.388 114.235 606.698 114.399 607.092 114.399C607.606 114.399 608.073 114.103 608.493 113.511ZM608.493 114.38C608.083 114.875 607.59 115.122 607.013 115.122C606.336 115.122 605.812 114.881 605.441 114.399C605.07 113.918 604.885 113.268 604.885 112.451C604.885 111.605 605.091 110.936 605.505 110.444C605.921 109.95 606.444 109.702 607.072 109.702C607.632 109.702 608.106 109.875 608.493 110.22V107.842H609.411V115H608.493V114.38ZM612.301 115H611.378V109.819H612.301V115ZM612.301 108.838H611.378V107.842H612.301V108.838ZM618.463 114.6C618.463 116.266 617.711 117.1 616.207 117.1C615.556 117.1 615.041 116.958 614.664 116.675C614.289 116.392 614.102 116.011 614.102 115.532H615.054C615.054 116.099 615.435 116.382 616.197 116.382C616.627 116.382 616.959 116.263 617.193 116.025C617.427 115.791 617.545 115.329 617.545 114.639V114.38C617.134 114.875 616.641 115.122 616.065 115.122C615.388 115.122 614.864 114.881 614.493 114.399C614.122 113.918 613.936 113.268 613.936 112.451C613.936 111.605 614.143 110.936 614.556 110.444C614.973 109.95 615.495 109.702 616.124 109.702C616.684 109.702 617.157 109.875 617.545 110.22V109.819H618.463V114.6ZM617.545 113.511V111.05C617.147 110.63 616.693 110.42 616.182 110.42C615.788 110.42 615.473 110.591 615.235 110.933C615.001 111.271 614.883 111.777 614.883 112.451C614.883 113.089 614.994 113.574 615.215 113.906C615.44 114.235 615.749 114.399 616.143 114.399C616.657 114.399 617.125 114.103 617.545 113.511ZM622.632 115.122C621.87 115.122 621.258 114.884 620.796 114.409C620.334 113.931 620.103 113.265 620.103 112.412C620.103 111.566 620.326 110.903 620.771 110.425C621.221 109.943 621.807 109.702 622.529 109.702C623.268 109.702 623.857 109.938 624.297 110.41C624.74 110.882 624.961 111.549 624.961 112.412V112.632H621.06C621.099 113.231 621.263 113.675 621.553 113.965C621.846 114.255 622.205 114.399 622.632 114.399C622.954 114.399 623.244 114.318 623.501 114.155C623.761 113.989 623.898 113.755 623.911 113.452H624.863C624.792 113.986 624.549 114.398 624.136 114.688C623.726 114.977 623.224 115.122 622.632 115.122ZM623.989 111.909C623.914 111.411 623.747 111.038 623.486 110.791C623.226 110.544 622.907 110.42 622.529 110.42C622.161 110.42 621.846 110.544 621.582 110.791C621.318 111.035 621.151 111.408 621.079 111.909H623.989ZM627.519 110.479C627.978 109.961 628.494 109.702 629.067 109.702C630.235 109.702 630.82 110.339 630.82 111.611V115H629.897V111.65C629.897 111.227 629.82 110.923 629.667 110.737C629.518 110.552 629.27 110.459 628.925 110.459C628.456 110.459 627.988 110.736 627.519 111.289V115H626.596V109.819H627.519V110.479ZM634.862 109.702C635.601 109.702 636.19 109.938 636.63 110.41C637.072 110.882 637.294 111.549 637.294 112.412C637.294 113.271 637.072 113.939 636.63 114.414C636.19 114.886 635.601 115.122 634.862 115.122C634.126 115.122 633.537 114.886 633.095 114.414C632.655 113.939 632.435 113.271 632.435 112.412C632.435 111.549 632.655 110.882 633.095 110.41C633.537 109.938 634.126 109.702 634.862 109.702ZM634.862 114.399C635.302 114.399 635.658 114.233 635.931 113.901C636.205 113.566 636.342 113.07 636.342 112.412C636.342 111.751 636.205 111.255 635.931 110.923C635.658 110.588 635.302 110.42 634.862 110.42C634.423 110.42 634.066 110.588 633.793 110.923C633.519 111.255 633.383 111.751 633.383 112.412C633.383 113.07 633.519 113.566 633.793 113.901C634.066 114.233 634.423 114.399 634.862 114.399ZM642.21 114.341C641.751 114.862 641.235 115.122 640.662 115.122C639.494 115.122 638.909 114.484 638.909 113.208V109.819H639.832V113.169C639.832 113.592 639.907 113.896 640.057 114.082C640.207 114.268 640.454 114.36 640.799 114.36C641.313 114.36 641.784 114.084 642.21 113.53V109.819H643.128V115H642.21V114.341ZM646.946 115.122C645.53 115.122 644.789 114.565 644.724 113.452H645.647C645.654 114.084 646.083 114.399 646.936 114.399C647.317 114.399 647.607 114.321 647.805 114.165C648.007 114.006 648.108 113.807 648.108 113.569C648.108 113.335 648.01 113.171 647.815 113.076C647.62 112.979 647.216 112.853 646.604 112.7C645.995 112.547 645.549 112.376 645.266 112.188C644.986 111.999 644.846 111.667 644.846 111.191C644.846 110.762 645.02 110.407 645.369 110.127C645.72 109.844 646.189 109.702 646.775 109.702C648.132 109.702 648.826 110.186 648.855 111.152H647.937C647.905 110.664 647.538 110.42 646.838 110.42C646.529 110.42 646.272 110.479 646.067 110.596C645.865 110.713 645.764 110.884 645.764 111.108C645.764 111.31 645.842 111.457 645.999 111.548C646.155 111.636 646.546 111.756 647.171 111.909C647.799 112.059 648.264 112.235 648.567 112.437C648.873 112.638 649.026 112.987 649.026 113.481C649.026 113.953 648.837 114.346 648.46 114.658C648.085 114.967 647.581 115.122 646.946 115.122ZM608.817 119.691H606.449V126H605.497V119.691H603.148V118.842H608.817V119.691ZM611.244 121.479C611.703 120.961 612.218 120.702 612.791 120.702C613.96 120.702 614.544 121.339 614.544 122.611V126H613.621V122.65C613.621 122.227 613.545 121.923 613.392 121.737C613.242 121.552 612.995 121.459 612.65 121.459C612.181 121.459 611.712 121.736 611.244 122.289V126H610.321V118.842H611.244V121.479ZM618.689 126.122C617.928 126.122 617.316 125.884 616.853 125.409C616.391 124.931 616.16 124.265 616.16 123.412C616.16 122.566 616.383 121.903 616.829 121.425C617.278 120.943 617.864 120.702 618.587 120.702C619.326 120.702 619.915 120.938 620.354 121.41C620.797 121.882 621.018 122.549 621.018 123.412V123.632H617.117C617.156 124.231 617.32 124.675 617.61 124.965C617.903 125.255 618.263 125.399 618.689 125.399C619.012 125.399 619.301 125.318 619.558 125.155C619.819 124.989 619.956 124.755 619.969 124.452H620.921C620.849 124.986 620.607 125.398 620.193 125.688C619.783 125.977 619.282 126.122 618.689 126.122ZM620.047 122.909C619.972 122.411 619.804 122.038 619.544 121.791C619.283 121.544 618.964 121.42 618.587 121.42C618.219 121.42 617.903 121.544 617.639 121.791C617.376 122.035 617.208 122.408 617.137 122.909H620.047ZM629.655 126H628.733V122.65C628.733 122.221 628.671 121.915 628.547 121.732C628.423 121.55 628.217 121.459 627.927 121.459C627.481 121.459 627.043 121.736 626.613 122.289V126H625.696V122.65C625.696 122.221 625.634 121.915 625.51 121.732C625.386 121.55 625.178 121.459 624.885 121.459C624.439 121.459 624.003 121.736 623.576 122.289V126H622.654V120.819H623.576V121.479C624.013 120.961 624.496 120.702 625.027 120.702C625.785 120.702 626.268 121.015 626.477 121.64C626.822 121.233 627.115 120.976 627.356 120.868C627.597 120.757 627.833 120.702 628.064 120.702C629.125 120.702 629.655 121.339 629.655 122.611V126ZM633.786 126.122C633.024 126.122 632.412 125.884 631.95 125.409C631.488 124.931 631.256 124.265 631.256 123.412C631.256 122.566 631.479 121.903 631.925 121.425C632.375 120.943 632.961 120.702 633.683 120.702C634.422 120.702 635.011 120.938 635.451 121.41C635.893 121.882 636.115 122.549 636.115 123.412V123.632H632.213C632.253 124.231 632.417 124.675 632.707 124.965C633 125.255 633.359 125.399 633.786 125.399C634.108 125.399 634.398 125.318 634.655 125.155C634.915 124.989 635.052 124.755 635.065 124.452H636.017C635.946 124.986 635.703 125.398 635.29 125.688C634.879 125.977 634.378 126.122 633.786 126.122ZM635.143 122.909C635.068 122.411 634.901 122.038 634.64 121.791C634.38 121.544 634.061 121.42 633.683 121.42C633.315 121.42 633 121.544 632.736 121.791C632.472 122.035 632.305 122.408 632.233 122.909H635.143ZM639.601 126.122C638.185 126.122 637.444 125.565 637.379 124.452H638.302C638.308 125.084 638.738 125.399 639.591 125.399C639.972 125.399 640.261 125.321 640.46 125.165C640.662 125.006 640.763 124.807 640.763 124.569C640.763 124.335 640.665 124.171 640.47 124.076C640.274 123.979 639.871 123.853 639.259 123.7C638.65 123.547 638.204 123.376 637.921 123.188C637.641 122.999 637.501 122.667 637.501 122.191C637.501 121.762 637.675 121.407 638.023 121.127C638.375 120.844 638.844 120.702 639.43 120.702C640.787 120.702 641.48 121.186 641.51 122.152H640.592C640.559 121.664 640.193 121.42 639.493 121.42C639.184 121.42 638.927 121.479 638.722 121.596C638.52 121.713 638.419 121.884 638.419 122.108C638.419 122.31 638.497 122.457 638.653 122.548C638.81 122.636 639.2 122.756 639.825 122.909C640.453 123.059 640.919 123.235 641.222 123.437C641.528 123.638 641.681 123.987 641.681 124.481C641.681 124.953 641.492 125.346 641.114 125.658C640.74 125.967 640.235 126.122 639.601 126.122Z" fill="black"/>
<path d="M657.716 81.7996L650.343 72.2069C650.113 71.9073 649.77 71.7167 649.394 71.6793C644.391 71.1831 641.72 70.1209 639.573 69.2669C637.674 68.5118 635.711 67.731 633.177 67.731C629.318 67.731 626.368 69.7887 624.367 72.1209V72.0702C625.482 69.5003 628.453 65.4452 633.068 65.4452C635.054 65.4452 636.6 66.0605 638.391 66.7729C639.886 67.3673 641.747 68.1075 644.467 68.6789C645.206 68.8344 645.931 68.3612 646.086 67.622C646.241 66.8834 645.768 66.1582 645.029 66.0033C642.539 65.4799 640.873 64.8172 639.401 64.2319C637.521 63.4842 635.578 62.7109 633.068 62.7109C628.263 62.7109 624.881 65.9307 623 68.8632C621.118 65.9307 617.737 62.7109 612.931 62.7109C610.422 62.7109 608.478 63.4842 606.597 64.2324C604.476 65.0762 601.835 66.1267 596.888 66.617C596.137 66.6917 595.588 67.3609 595.663 68.1123C595.737 68.8637 596.407 69.4122 597.159 69.338C602.487 68.8093 605.447 67.6322 607.608 66.7729C609.399 66.0605 610.946 65.4452 612.931 65.4452C617.547 65.4452 620.519 69.5009 621.633 72.0707V72.1209C619.631 69.7887 616.682 67.7305 612.822 67.7305C610.289 67.7305 608.325 68.5118 606.425 69.2675C604.279 70.1209 601.609 71.1831 596.606 71.6793C596.23 71.7167 595.887 71.9073 595.657 72.2069L588.284 81.7996C587.966 82.2125 587.911 82.77 588.141 83.2373C588.371 83.7041 588.847 84 589.367 84H656.633C657.153 84 657.629 83.7041 657.859 83.2373C658.089 82.77 658.034 82.2125 657.716 81.7996V81.7996ZM633.177 70.4648C635.187 70.4648 636.751 71.087 638.564 71.808C640.666 72.6443 643.516 73.7776 648.532 74.3378L653.843 81.2469C644.706 81.0498 640.369 79.3248 637.442 78.1606C635.743 77.485 634.621 77.0385 633.177 77.0385C630.651 77.0385 628.919 78.935 628.201 80.5638C628.195 80.5767 628.188 80.5895 628.182 80.6028L627.871 81.2656H624.367V77.1742C625.494 74.5733 628.502 70.4648 633.177 70.4648V70.4648ZM597.468 74.3378C602.484 73.7776 605.333 72.6438 607.437 71.8074C609.248 71.087 610.813 70.4648 612.822 70.4648C617.497 70.4648 620.506 74.5733 621.633 77.1742V81.2656H618.129L617.818 80.6028C617.812 80.5895 617.805 80.5767 617.799 80.5638C617.08 78.935 615.349 77.0385 612.822 77.0385C611.379 77.0385 610.257 77.485 608.558 78.1606C605.631 79.3248 601.294 81.0498 592.157 81.2469L597.468 74.3378ZM609.569 80.7011C611.074 80.1024 611.903 79.7729 612.822 79.7729C614.002 79.7729 614.742 80.7011 615.084 81.2656H608.122C608.642 81.0696 609.121 80.8795 609.569 80.7011V80.7011ZM630.916 81.2656C631.258 80.7011 631.998 79.7729 633.177 79.7729C634.097 79.7729 634.926 80.1024 636.431 80.7016C636.879 80.8795 637.358 81.0696 637.878 81.2656H630.916Z" fill="black"/>
<path d="M648.793 69.3332L648.843 69.338C648.888 69.3423 648.933 69.3449 648.978 69.3449C649.673 69.3449 650.267 68.8173 650.337 68.1113C650.411 67.3598 649.862 66.6907 649.11 66.617L649.061 66.6122C648.31 66.5374 647.641 67.0869 647.567 67.8384C647.492 68.5898 648.041 69.2589 648.793 69.3332V69.3332Z" fill="black"/>
<path d="M618.385 47.6381C618.03 47.6686 617.698 47.8368 617.464 48.1097C617.204 48.4125 617.09 48.8136 617.15 49.2077C617.717 52.8986 619.681 55.4204 622.549 56.2851C622.484 56.802 622.423 57.3195 622.368 57.8386L621.64 64.7809C621.562 65.5317 622.107 66.2047 622.857 66.2832C622.906 66.2885 622.954 66.2906 623.002 66.2906C623.693 66.2906 624.286 65.7689 624.36 65.066L625.088 58.1238C625.14 57.6191 625.2 57.1166 625.263 56.6151C631.622 56.5366 635.505 52.4815 637.448 43.9072C637.665 42.9534 637.927 41.8426 638.229 40.6051C638.324 40.2131 638.242 39.7992 638.003 39.4735C637.915 39.3528 637.808 39.2486 637.688 39.1643L638.226 38.8566C638.549 38.6724 638.783 38.3637 638.873 38.0027C641.262 28.4965 644.759 15.859 644.794 15.7325C644.912 15.3074 644.818 14.8518 644.541 14.5089C644.264 14.1656 643.837 13.976 643.398 14.0027C642.935 14.0288 631.952 14.8224 622.924 29.5106C622.811 29.6927 622.703 29.8733 622.595 30.0543C622.429 30.3309 622.366 30.6578 622.417 30.9761L623.102 35.1914H620.78C620.233 35.1914 619.738 35.5182 619.523 36.0219C618.059 39.4521 617.218 42.6719 617.022 45.5932C616.996 45.9815 617.137 46.3628 617.409 46.6411L618.385 47.6381ZM636.364 36.7717L632.712 38.8582C632.189 39.1573 631.923 39.764 632.058 40.3515C632.193 40.9389 632.697 41.3688 633.299 41.4094L635.192 41.5365C635.041 42.171 634.904 42.7611 634.781 43.3027C632.808 52.0099 629.164 53.7291 625.663 53.8743C627.669 41.7785 632.745 30.5456 640.512 21.0271C639.319 25.4278 637.691 31.5171 636.364 36.7717V36.7717ZM621.694 37.9263H624.709C625.11 37.9263 625.49 37.7501 625.75 37.4446C626.01 37.1391 626.123 36.7354 626.059 36.3396L625.197 31.0338C625.215 31.0033 625.234 30.9734 625.253 30.943C629.563 23.9303 634.315 20.4402 637.542 18.7472C638.307 18.3462 639.023 18.0252 639.678 17.7667C634.973 23.229 631.113 29.3349 628.198 35.9364C625.71 41.5707 623.952 47.471 622.95 53.5283C621.461 52.9184 620.663 51.6131 620.235 50.3672H621.633C622.183 50.3672 622.68 50.0371 622.893 49.5298C623.106 49.023 622.995 48.4371 622.61 48.0435L619.8 45.1745C620.022 42.9529 620.657 40.5208 621.694 37.9263V37.9263Z" fill="#7D5CD2"/>
<path d="M114.841 104.691H112.473V111H111.521V104.691H109.172V103.842H114.841V104.691ZM117.267 111H116.345V105.819H117.267V111ZM117.267 104.838H116.345V103.842H117.267V104.838ZM126.232 111H125.309V107.65C125.309 107.221 125.247 106.915 125.123 106.732C125 106.55 124.793 106.459 124.503 106.459C124.057 106.459 123.619 106.736 123.19 107.289V111H122.272V107.65C122.272 107.221 122.21 106.915 122.086 106.732C121.962 106.55 121.754 106.459 121.461 106.459C121.015 106.459 120.579 106.736 120.153 107.289V111H119.23V105.819H120.153V106.479C120.589 105.961 121.072 105.702 121.603 105.702C122.361 105.702 122.845 106.015 123.053 106.64C123.398 106.233 123.691 105.976 123.932 105.868C124.173 105.757 124.409 105.702 124.64 105.702C125.701 105.702 126.232 106.339 126.232 107.611V111ZM130.362 111.122C129.6 111.122 128.988 110.884 128.526 110.409C128.064 109.931 127.833 109.265 127.833 108.412C127.833 107.566 128.056 106.903 128.502 106.425C128.951 105.943 129.537 105.702 130.259 105.702C130.998 105.702 131.588 105.938 132.027 106.41C132.47 106.882 132.691 107.549 132.691 108.412V108.632H128.79C128.829 109.231 128.993 109.675 129.283 109.965C129.576 110.255 129.935 110.399 130.362 110.399C130.684 110.399 130.974 110.318 131.231 110.155C131.491 109.989 131.628 109.755 131.641 109.452H132.593C132.522 109.986 132.279 110.398 131.866 110.688C131.456 110.977 130.954 111.122 130.362 111.122ZM131.719 107.909C131.644 107.411 131.477 107.038 131.216 106.791C130.956 106.544 130.637 106.42 130.259 106.42C129.892 106.42 129.576 106.544 129.312 106.791C129.048 107.035 128.881 107.408 128.809 107.909H131.719Z" fill="black"/>
<path d="M148.531 27.3898H150.694C151.448 27.3898 152.06 26.778 152.06 26.0235C152.06 25.269 151.448 24.6572 150.694 24.6572H145.502C144.748 24.6572 144.136 25.269 144.136 26.0235V31.2154C144.136 31.9699 144.748 32.5817 145.502 32.5817C146.257 32.5817 146.868 31.9699 146.868 31.2154V29.7121C151.014 35.2621 153.267 41.9961 153.267 49C153.267 66.7924 138.792 81.2674 121 81.2674C103.208 81.2674 88.7326 66.7924 88.7326 49C88.7326 31.2076 103.208 16.7326 121 16.7326C122.316 16.7326 123.64 16.8125 124.937 16.97C125.685 17.0605 126.367 16.5278 126.458 15.7786C126.549 15.0296 126.016 14.3484 125.266 14.2574C123.861 14.0866 122.426 14 121 14C111.651 14 102.862 17.6406 96.2513 24.2513C89.6406 30.8618 86 39.6512 86 49C86 58.3488 89.6406 67.1382 96.2513 73.7487C102.862 80.3594 111.651 84 121 84C130.349 84 139.138 80.3594 145.749 73.7487C152.359 67.1382 156 58.3488 156 49C156 41.1109 153.364 33.5373 148.531 27.3898Z" fill="black"/>
<path d="M100.82 34.6328C100.183 34.2292 99.3388 34.4191 98.9351 35.0563C95.816 39.9826 94.4352 45.9071 95.0472 51.7386C95.6682 57.6566 98.3318 63.2373 102.547 67.453C107.635 72.5404 114.317 75.0841 121 75.0841C127.683 75.0841 134.365 72.5405 139.453 67.453C149.628 57.2781 149.628 40.7222 139.453 30.5474C135.244 26.3384 129.672 23.6758 123.764 23.05C117.943 22.4332 112.025 23.8031 107.101 26.907C106.463 27.3093 106.272 28.153 106.674 28.7913C107.076 29.4298 107.92 29.621 108.558 29.2187C117.84 23.3683 129.75 24.709 137.521 32.4796C146.63 41.5891 146.63 56.4112 137.521 65.5207C128.411 74.6303 113.589 74.6303 104.48 65.5207C96.8164 57.8574 95.4556 45.6601 101.244 36.5183C101.647 35.8806 101.458 35.0365 100.82 34.6328Z" fill="black"/>
<path d="M138.762 50.3884H140.447C141.201 50.3884 141.813 49.7766 141.813 49.0221C141.813 48.2677 141.201 47.6559 140.447 47.6559H138.762C138.007 47.6559 137.396 48.2677 137.396 49.0221C137.396 49.7766 138.007 50.3884 138.762 50.3884Z" fill="black"/>
<path d="M100.187 48.9779C100.187 49.7323 100.799 50.3442 101.553 50.3442H103.238C103.993 50.3442 104.604 49.7323 104.604 48.9779C104.604 48.2234 103.993 47.6116 103.238 47.6116H101.553C100.799 47.6116 100.187 48.2233 100.187 48.9779Z" fill="black"/>
<path d="M122.388 31.2381V29.5532C122.388 28.7987 121.777 28.1869 121.022 28.1869C120.268 28.1869 119.656 28.7987 119.656 29.5532V31.2381C119.656 31.9926 120.268 32.6044 121.022 32.6044C121.777 32.6044 122.388 31.9926 122.388 31.2381Z" fill="black"/>
<path d="M119.612 66.7619V68.4468C119.612 69.2013 120.223 69.8131 120.978 69.8131C121.732 69.8131 122.344 69.2013 122.344 68.4468V66.7619C122.344 66.0075 121.732 65.3956 120.978 65.3956C120.223 65.3956 119.612 66.0073 119.612 66.7619Z" fill="black"/>
<path d="M114.152 40.2193C113.618 39.6859 112.753 39.6859 112.219 40.2193C111.686 40.7528 111.686 41.6179 112.219 42.1516L116.85 46.7821C116.495 47.4434 116.293 48.1985 116.293 49C116.293 51.5954 118.405 53.7069 121 53.7069C123.595 53.7069 125.707 51.5954 125.707 49C125.707 48.1985 125.505 47.4434 125.15 46.7821L134.493 37.439C135.027 36.9055 135.027 36.0403 134.493 35.5066C133.96 34.9732 133.095 34.9732 132.561 35.5066L123.218 44.8498C122.557 44.4949 121.801 44.2931 121 44.2931C120.199 44.2931 119.443 44.4951 118.782 44.8498L114.152 40.2193ZM122.974 49C122.974 50.0887 122.089 50.9743 121 50.9743C119.911 50.9743 119.026 50.0887 119.026 49C119.026 47.9113 119.911 47.0257 121 47.0257C122.089 47.0257 122.974 47.9113 122.974 49Z" fill="#7D5CD2"/>
<path d="M104.479 32.4788C104.734 32.2247 104.88 31.8722 104.88 31.5129C104.88 31.1535 104.734 30.8024 104.479 30.5469C104.225 30.2929 103.873 30.1466 103.513 30.1466C103.153 30.1466 102.801 30.2928 102.547 30.5469C102.293 30.801 102.147 31.1535 102.147 31.5129C102.147 31.8736 102.293 32.2247 102.547 32.4788C102.801 32.7328 103.153 32.8791 103.513 32.8791C103.873 32.8791 104.225 32.7328 104.479 32.4788Z" fill="black"/>
<path d="M130.464 18.0822C130.825 18.0822 131.178 17.9372 131.432 17.6819C131.686 17.4278 131.832 17.0765 131.832 16.7159C131.832 16.3566 131.686 16.0041 131.432 15.7499C131.178 15.496 130.825 15.3496 130.464 15.3496C130.105 15.3496 129.752 15.4958 129.498 15.7499C129.244 16.0041 129.098 16.3566 129.098 16.7159C129.098 17.0766 129.244 17.4278 129.498 17.6819C129.752 17.9372 130.105 18.0822 130.464 18.0822Z" fill="black"/>
<path d="M274.793 108.92C274.793 109.59 274.565 110.105 274.109 110.463C273.654 110.821 272.991 111 272.122 111H269.441V103.842H271.99C272.752 103.842 273.351 104.005 273.787 104.33C274.223 104.656 274.441 105.102 274.441 105.668C274.441 106.358 274.098 106.869 273.411 107.201C273.873 107.318 274.218 107.535 274.446 107.851C274.677 108.163 274.793 108.52 274.793 108.92ZM270.389 106.84H271.98C272.505 106.84 272.89 106.757 273.138 106.591C273.385 106.422 273.509 106.142 273.509 105.751C273.509 105.399 273.388 105.136 273.147 104.96C272.907 104.781 272.488 104.691 271.893 104.691H270.389V106.84ZM270.389 110.15H272.112C273.245 110.15 273.812 109.74 273.812 108.92C273.812 108.493 273.68 108.183 273.416 107.987C273.156 107.789 272.68 107.689 271.99 107.689H270.389V110.15ZM279.871 110.341C279.412 110.862 278.896 111.122 278.323 111.122C277.154 111.122 276.57 110.484 276.57 109.208V105.819H277.493V109.169C277.493 109.592 277.567 109.896 277.717 110.082C277.867 110.268 278.114 110.36 278.459 110.36C278.974 110.36 279.444 110.084 279.871 109.53V105.819H280.788V111H279.871V110.341ZM286.037 109.511V107.05C285.64 106.63 285.186 106.42 284.675 106.42C284.281 106.42 283.965 106.591 283.727 106.933C283.493 107.271 283.376 107.777 283.376 108.451C283.376 109.089 283.486 109.574 283.708 109.906C283.932 110.235 284.242 110.399 284.636 110.399C285.15 110.399 285.617 110.103 286.037 109.511ZM286.037 110.38C285.627 110.875 285.134 111.122 284.557 111.122C283.88 111.122 283.356 110.881 282.985 110.399C282.614 109.918 282.429 109.268 282.429 108.451C282.429 107.605 282.635 106.936 283.049 106.444C283.465 105.95 283.988 105.702 284.616 105.702C285.176 105.702 285.65 105.875 286.037 106.22V103.842H286.955V111H286.037V110.38ZM293.121 110.6C293.121 112.266 292.369 113.1 290.865 113.1C290.214 113.1 289.7 112.958 289.322 112.675C288.948 112.392 288.761 112.011 288.761 111.532H289.713C289.713 112.099 290.094 112.382 290.856 112.382C291.285 112.382 291.617 112.263 291.852 112.025C292.086 111.791 292.203 111.329 292.203 110.639V110.38C291.793 110.875 291.3 111.122 290.724 111.122C290.047 111.122 289.523 110.881 289.152 110.399C288.78 109.918 288.595 109.268 288.595 108.451C288.595 107.605 288.802 106.936 289.215 106.444C289.632 105.95 290.154 105.702 290.782 105.702C291.342 105.702 291.816 105.875 292.203 106.22V105.819H293.121V110.6ZM292.203 109.511V107.05C291.806 106.63 291.352 106.42 290.841 106.42C290.447 106.42 290.131 106.591 289.894 106.933C289.659 107.271 289.542 107.777 289.542 108.451C289.542 109.089 289.653 109.574 289.874 109.906C290.099 110.235 290.408 110.399 290.802 110.399C291.316 110.399 291.783 110.103 292.203 109.511ZM297.291 111.122C296.529 111.122 295.917 110.884 295.455 110.409C294.992 109.931 294.761 109.265 294.761 108.412C294.761 107.566 294.984 106.903 295.43 106.425C295.879 105.943 296.465 105.702 297.188 105.702C297.927 105.702 298.516 105.938 298.956 106.41C299.398 106.882 299.62 107.549 299.62 108.412V108.632H295.718C295.757 109.231 295.922 109.675 296.212 109.965C296.504 110.255 296.864 110.399 297.291 110.399C297.613 110.399 297.903 110.318 298.16 110.155C298.42 109.989 298.557 109.755 298.57 109.452H299.522C299.45 109.986 299.208 110.398 298.795 110.688C298.384 110.977 297.883 111.122 297.291 111.122ZM298.648 107.909C298.573 107.411 298.406 107.038 298.145 106.791C297.885 106.544 297.566 106.42 297.188 106.42C296.82 106.42 296.504 106.544 296.241 106.791C295.977 107.035 295.81 107.408 295.738 107.909H298.648ZM303.267 111.01C303.065 111.049 302.845 111.068 302.607 111.068C302.23 111.068 301.953 111.002 301.777 110.868C301.602 110.731 301.493 110.557 301.45 110.346C301.408 110.134 301.387 109.846 301.387 109.481V106.542H300.747V105.819H301.387V104.53H302.305V105.819H303.145V106.542H302.305V109.53C302.305 109.885 302.349 110.111 302.437 110.209C302.528 110.303 302.651 110.351 302.808 110.351C302.967 110.351 303.12 110.338 303.267 110.312V111.01Z" fill="black"/>
<path d="M310.749 24.2512C304.138 17.6405 295.349 14 286 14C276.651 14 267.862 17.6405 261.251 24.2512C254.641 30.8618 251 39.6512 251 49C251 58.3488 254.641 67.1382 261.251 73.7488C267.862 80.3595 276.651 84 286 84C295.349 84 304.138 80.3595 310.749 73.7488C317.359 67.1382 321 58.3488 321 49C321 39.6512 317.359 30.8618 310.749 24.2512ZM286 81C268.963 81 254 66.0375 254 49C254 31.9625 268.963 17 286 17C303.037 17 318 31.9625 318 49C318 66.0375 303.037 81 286 81Z" fill="black"/>
<path d="M288.197 46.8202H283.949C281.446 46.8202 278 45.3202 278 41.8202C278 38.3202 281.446 35.8202 283.949 35.8202H292.5C293.633 35.8202 294.5 35.6528 294.5 34.5202C294.5 33.3876 293.722 33.0898 292.59 33.0898H287.5V28.5508C287.5 27.4182 287.133 26.5 286 26.5C284.867 26.5 284.5 27.4182 284.5 28.5508V33.0898H283.803C279.039 33.0898 275.163 36.9661 275.163 41.7305C275.163 46.4948 279.185 49.6259 283.949 49.6259H288.197C290.7 49.6259 292.736 52.4072 292.736 54.91C292.736 57.4128 290.7 59.4491 288.197 59.4491H279.41C278.278 59.4491 277.5 59.6876 277.5 60.8202C277.5 61.9528 278.367 62.3202 279.5 62.3202H284.5V68.0898C284.5 69.2224 284.867 70.1406 286 70.1406C287.133 70.1406 287.5 69.2224 287.5 68.0898V63.8202V62.3202C292.264 62.3202 295.5 59.5846 295.5 54.8202C295.5 50.8202 293 47.1373 288.197 46.8202Z" fill="#7D5CD2"/>
<defs>
<clipPath id="clip0">
<rect width="70" height="70" fill="white" transform="translate(416 14)"/>
</clipPath>
</defs>
</svg>
