<svg width="791" height="231" viewBox="0 0 791 231" fill="none" xmlns="http://www.w3.org/2000/svg">
<g clip-path="url(#clip0)">
<circle cx="592" cy="128" r="103" fill="#7D5CD2" fill-opacity="0.3"/>
<path d="M470.485 169.842H473.156C473.742 169.842 474.232 169.897 474.625 170.008C475.023 170.115 475.337 170.351 475.568 170.716C475.799 171.077 475.914 171.482 475.914 171.932C475.914 172.654 475.685 173.203 475.226 173.577C474.767 173.951 474.103 174.139 473.234 174.139H471.432V177H470.485V169.842ZM471.432 173.289H473.244C473.852 173.289 474.285 173.175 474.542 172.947C474.803 172.719 474.933 172.391 474.933 171.961C474.933 171.674 474.861 171.421 474.718 171.199C474.575 170.978 474.393 170.838 474.171 170.779C473.953 170.721 473.637 170.691 473.224 170.691H471.432V173.289ZM480.323 172.659C480.193 172.62 480.006 172.601 479.762 172.601C479.293 172.601 478.891 172.846 478.555 173.338V177H477.633V171.819H478.555V172.542C478.943 171.982 479.392 171.702 479.903 171.702C480.033 171.702 480.173 171.715 480.323 171.741V172.659ZM483.662 171.702C484.401 171.702 484.99 171.938 485.43 172.41C485.873 172.882 486.094 173.549 486.094 174.412C486.094 175.271 485.873 175.939 485.43 176.414C484.99 176.886 484.401 177.122 483.662 177.122C482.927 177.122 482.337 176.886 481.895 176.414C481.455 175.939 481.236 175.271 481.236 174.412C481.236 173.549 481.455 172.882 481.895 172.41C482.337 171.938 482.927 171.702 483.662 171.702ZM483.662 176.399C484.102 176.399 484.458 176.233 484.732 175.901C485.005 175.566 485.142 175.07 485.142 174.412C485.142 173.751 485.005 173.255 484.732 172.923C484.458 172.588 484.102 172.42 483.662 172.42C483.223 172.42 482.866 172.588 482.593 172.923C482.32 173.255 482.183 173.751 482.183 174.412C482.183 175.07 482.32 175.566 482.593 175.901C482.866 176.233 483.223 176.399 483.662 176.399ZM489.741 177.01C489.539 177.049 489.319 177.068 489.082 177.068C488.704 177.068 488.427 177.002 488.252 176.868C488.076 176.731 487.967 176.557 487.924 176.346C487.882 176.134 487.861 175.846 487.861 175.481V172.542H487.221V171.819H487.861V170.53H488.779V171.819H489.619V172.542H488.779V175.53C488.779 175.885 488.823 176.111 488.911 176.209C489.002 176.303 489.126 176.351 489.282 176.351C489.441 176.351 489.594 176.338 489.741 176.312V177.01ZM493.212 171.702C493.951 171.702 494.54 171.938 494.979 172.41C495.422 172.882 495.644 173.549 495.644 174.412C495.644 175.271 495.422 175.939 494.979 176.414C494.54 176.886 493.951 177.122 493.212 177.122C492.476 177.122 491.887 176.886 491.444 176.414C491.005 175.939 490.785 175.271 490.785 174.412C490.785 173.549 491.005 172.882 491.444 172.41C491.887 171.938 492.476 171.702 493.212 171.702ZM493.212 176.399C493.651 176.399 494.008 176.233 494.281 175.901C494.555 175.566 494.691 175.07 494.691 174.412C494.691 173.751 494.555 173.255 494.281 172.923C494.008 172.588 493.651 172.42 493.212 172.42C492.772 172.42 492.416 172.588 492.143 172.923C491.869 173.255 491.732 173.751 491.732 174.412C491.732 175.07 491.869 175.566 492.143 175.901C492.416 176.233 492.772 176.399 493.212 176.399ZM499.29 177.01C499.089 177.049 498.869 177.068 498.631 177.068C498.254 177.068 497.977 177.002 497.801 176.868C497.625 176.731 497.516 176.557 497.474 176.346C497.432 176.134 497.411 175.846 497.411 175.481V172.542H496.771V171.819H497.411V170.53H498.329V171.819H499.168V172.542H498.329V175.53C498.329 175.885 498.372 176.111 498.46 176.209C498.551 176.303 498.675 176.351 498.831 176.351C498.991 176.351 499.144 176.338 499.29 176.312V177.01ZM500.955 178.25C501.411 178.25 501.783 177.833 502.073 177L500.115 171.819H501.111L502.483 175.872L503.855 171.819H504.851L502.893 177C502.705 177.495 502.543 177.876 502.41 178.143C502.28 178.413 502.107 178.639 501.892 178.821C501.681 179.007 501.42 179.1 501.111 179.1C500.88 179.1 500.681 179.077 500.515 179.031V178.182C500.659 178.227 500.805 178.25 500.955 178.25ZM507.185 172.439C507.595 171.948 508.088 171.702 508.664 171.702C509.341 171.702 509.865 171.943 510.237 172.425C510.608 172.903 510.793 173.551 510.793 174.368C510.793 175.218 510.585 175.89 510.168 176.385C509.755 176.876 509.232 177.122 508.601 177.122C508.041 177.122 507.569 176.948 507.185 176.6V178.992H506.262V171.819H507.185V172.439ZM507.185 175.77C507.579 176.189 508.031 176.399 508.542 176.399C508.939 176.399 509.255 176.23 509.489 175.892C509.724 175.55 509.841 175.042 509.841 174.368C509.841 173.73 509.73 173.247 509.509 172.918C509.288 172.586 508.978 172.42 508.581 172.42C508.07 172.42 507.605 172.716 507.185 173.309V175.77ZM514.63 177.122C513.869 177.122 513.257 176.884 512.795 176.409C512.332 175.931 512.101 175.265 512.101 174.412C512.101 173.566 512.324 172.903 512.77 172.425C513.219 171.943 513.805 171.702 514.528 171.702C515.267 171.702 515.856 171.938 516.296 172.41C516.738 172.882 516.96 173.549 516.96 174.412V174.632H513.058C513.097 175.231 513.262 175.675 513.551 175.965C513.844 176.255 514.204 176.399 514.63 176.399C514.953 176.399 515.242 176.318 515.5 176.155C515.76 175.989 515.897 175.755 515.91 175.452H516.862C516.79 175.986 516.548 176.398 516.134 176.688C515.724 176.977 515.223 177.122 514.63 177.122ZM515.988 173.909C515.913 173.411 515.745 173.038 515.485 172.791C515.225 172.544 514.906 172.42 514.528 172.42C514.16 172.42 513.844 172.544 513.581 172.791C513.317 173.035 513.149 173.408 513.078 173.909H515.988Z" fill="black"/>
<path d="M509.039 85H478.961C476.134 85 473.834 87.2999 473.834 90.127V149.873C473.834 152.7 476.134 155 478.961 155H509.039C511.866 155 514.166 152.7 514.166 149.873V90.127C514.166 87.2999 511.866 85 509.039 85ZM512.115 140.645H483.062C482.496 140.645 482.037 141.104 482.037 141.67C482.037 142.236 482.496 142.695 483.062 142.695H512.115V149.873C512.115 151.569 510.735 152.949 509.039 152.949H478.961C477.265 152.949 475.885 151.569 475.885 149.873V142.695H478.961C479.527 142.695 479.986 142.236 479.986 141.67C479.986 141.104 479.527 140.645 478.961 140.645H475.885V95.2539H512.115V140.645ZM512.115 93.2031H475.885V90.127C475.885 88.4307 477.265 87.0508 478.961 87.0508H509.039C510.735 87.0508 512.115 88.4307 512.115 90.127V93.2031Z" fill="black"/>
<path d="M498.102 89.1016H494C493.434 89.1016 492.975 89.5607 492.975 90.127C492.975 90.6932 493.434 91.1523 494 91.1523H498.102C498.668 91.1523 499.127 90.6932 499.127 90.127C499.127 89.5607 498.668 89.1016 498.102 89.1016Z" fill="black"/>
<path d="M494 144.746C492.304 144.746 490.924 146.126 490.924 147.822C490.924 149.519 492.304 150.898 494 150.898C495.696 150.898 497.076 149.519 497.076 147.822C497.076 146.126 495.696 144.746 494 144.746ZM494 148.848C493.435 148.848 492.975 148.388 492.975 147.822C492.975 147.257 493.435 146.797 494 146.797C494.565 146.797 495.025 147.257 495.025 147.822C495.025 148.388 494.565 148.848 494 148.848Z" fill="black"/>
<path d="M489.898 91.1523C490.465 91.1523 490.924 90.6933 490.924 90.127C490.924 89.5606 490.465 89.1016 489.898 89.1016C489.332 89.1016 488.873 89.5606 488.873 90.127C488.873 90.6933 489.332 91.1523 489.898 91.1523Z" fill="black"/>
<path d="M431.354 128.354C431.549 128.158 431.549 127.842 431.354 127.646L428.172 124.464C427.976 124.269 427.66 124.269 427.464 124.464C427.269 124.66 427.269 124.976 427.464 125.172L430.293 128L427.464 130.828C427.269 131.024 427.269 131.34 427.464 131.536C427.66 131.731 427.976 131.731 428.172 131.536L431.354 128.354ZM361 128.5H431V127.5H361V128.5Z" fill="black"/>
<path d="M627.354 128.354C627.549 128.158 627.549 127.842 627.354 127.646L624.172 124.464C623.976 124.269 623.66 124.269 623.464 124.464C623.269 124.66 623.269 124.976 623.464 125.172L626.293 128L623.464 130.828C623.269 131.024 623.269 131.34 623.464 131.536C623.66 131.731 623.976 131.731 624.172 131.536L627.354 128.354ZM557 128.5H627V127.5H557V128.5Z" fill="black"/>
<path d="M233.354 128.354C233.549 128.158 233.549 127.842 233.354 127.646L230.172 124.464C229.976 124.269 229.66 124.269 229.464 124.464C229.269 124.66 229.269 124.976 229.464 125.172L232.293 128L229.464 130.828C229.269 131.024 229.269 131.34 229.464 131.536C229.66 131.731 229.976 131.731 230.172 131.536L233.354 128.354ZM163 128.5H233V127.5H163V128.5Z" fill="black"/>
<path d="M74.9531 168.92C74.9531 169.59 74.7253 170.105 74.2695 170.463C73.8138 170.821 73.1514 171 72.2822 171H69.6016V163.842H72.1504C72.9121 163.842 73.5111 164.005 73.9473 164.33C74.3835 164.656 74.6016 165.102 74.6016 165.668C74.6016 166.358 74.2581 166.869 73.5713 167.201C74.0335 167.318 74.3786 167.535 74.6064 167.851C74.8376 168.163 74.9531 168.52 74.9531 168.92ZM70.5488 166.84H72.1406C72.6647 166.84 73.0505 166.757 73.2979 166.591C73.5452 166.422 73.6689 166.142 73.6689 165.751C73.6689 165.399 73.5485 165.136 73.3076 164.96C73.0667 164.781 72.6484 164.691 72.0527 164.691H70.5488V166.84ZM70.5488 170.15H72.2725C73.4053 170.15 73.9717 169.74 73.9717 168.92C73.9717 168.493 73.8398 168.183 73.5762 167.987C73.3158 167.789 72.8405 167.689 72.1504 167.689H70.5488V170.15ZM80.0307 169.638V168.49H79.4008C78.0661 168.49 77.3988 168.853 77.3988 169.579C77.3988 169.843 77.4965 170.046 77.6918 170.189C77.8871 170.329 78.1508 170.399 78.4828 170.399C78.7855 170.399 79.0785 170.331 79.3617 170.194C79.6449 170.058 79.8679 169.872 80.0307 169.638ZM80.0307 170.468C79.5619 170.904 78.9581 171.122 78.2191 171.122C77.7048 171.122 77.2816 170.984 76.9496 170.707C76.6176 170.427 76.4516 170.067 76.4516 169.628C76.4516 168.417 77.4949 167.812 79.5814 167.812H80.0307C80.0307 167.44 80.0111 167.172 79.9721 167.006C79.933 166.837 79.824 166.697 79.6449 166.586C79.4659 166.475 79.1811 166.42 78.7904 166.42C77.9701 166.42 77.5469 166.713 77.5209 167.299H76.6029C76.6713 166.234 77.4167 165.702 78.8393 165.702C79.5033 165.702 80.0209 165.834 80.392 166.098C80.7631 166.361 80.9486 166.879 80.9486 167.65V171H80.0307V170.468ZM85.0154 171.122C84.2798 171.122 83.6906 170.886 83.2479 170.414C82.8084 169.939 82.5887 169.271 82.5887 168.412C82.5887 167.549 82.8084 166.882 83.2479 166.41C83.6906 165.938 84.2798 165.702 85.0154 165.702C85.5818 165.702 86.0538 165.845 86.4314 166.132C86.8123 166.418 87.0369 166.832 87.1053 167.372H86.158C86.145 167.063 86.0278 166.827 85.8064 166.664C85.5883 166.501 85.3247 166.42 85.0154 166.42C84.576 166.42 84.2195 166.588 83.9461 166.923C83.6727 167.255 83.5359 167.751 83.5359 168.412C83.5359 169.07 83.6727 169.566 83.9461 169.901C84.2195 170.233 84.576 170.399 85.0154 170.399C85.3247 170.399 85.5883 170.318 85.8064 170.155C86.0278 169.993 86.145 169.758 86.158 169.452H87.1053C87.0369 169.993 86.8123 170.406 86.4314 170.692C86.0538 170.979 85.5818 171.122 85.0154 171.122ZM92.798 171H91.6994L90.0148 168.368L89.4387 168.939V171H88.5158V163.842H89.4387V167.899L91.4357 165.819H92.5979L90.635 167.748L92.798 171ZM98.315 170.6C98.315 172.266 97.5631 173.1 96.0592 173.1C95.4081 173.1 94.8938 172.958 94.5162 172.675C94.1419 172.392 93.9547 172.011 93.9547 171.532H94.9068C94.9068 172.099 95.2877 172.382 96.0494 172.382C96.4791 172.382 96.8111 172.263 97.0455 172.025C97.2799 171.791 97.3971 171.329 97.3971 170.639V170.38C96.9869 170.875 96.4938 171.122 95.9176 171.122C95.2405 171.122 94.7164 170.881 94.3453 170.399C93.9742 169.918 93.7887 169.268 93.7887 168.451C93.7887 167.605 93.9954 166.936 94.4088 166.444C94.8255 165.95 95.3479 165.702 95.9762 165.702C96.5361 165.702 97.0097 165.875 97.3971 166.22V165.819H98.315V170.6ZM97.3971 169.511V167.05C96.9999 166.63 96.5458 166.42 96.0348 166.42C95.6409 166.42 95.3251 166.591 95.0875 166.933C94.8531 167.271 94.7359 167.777 94.7359 168.451C94.7359 169.089 94.8466 169.574 95.068 169.906C95.2926 170.235 95.6018 170.399 95.9957 170.399C96.51 170.399 96.9771 170.103 97.3971 169.511ZM102.973 166.659C102.842 166.62 102.655 166.601 102.411 166.601C101.942 166.601 101.54 166.846 101.205 167.338V171H100.282V165.819H101.205V166.542C101.592 165.982 102.042 165.702 102.553 165.702C102.683 165.702 102.823 165.715 102.973 165.741V166.659ZM106.312 165.702C107.051 165.702 107.64 165.938 108.079 166.41C108.522 166.882 108.744 167.549 108.744 168.412C108.744 169.271 108.522 169.939 108.079 170.414C107.64 170.886 107.051 171.122 106.312 171.122C105.576 171.122 104.987 170.886 104.544 170.414C104.105 169.939 103.885 169.271 103.885 168.412C103.885 167.549 104.105 166.882 104.544 166.41C104.987 165.938 105.576 165.702 106.312 165.702ZM106.312 170.399C106.751 170.399 107.108 170.233 107.381 169.901C107.655 169.566 107.791 169.07 107.791 168.412C107.791 167.751 107.655 167.255 107.381 166.923C107.108 166.588 106.751 166.42 106.312 166.42C105.872 166.42 105.516 166.588 105.243 166.923C104.969 167.255 104.832 167.751 104.832 168.412C104.832 169.07 104.969 169.566 105.243 169.901C105.516 170.233 105.872 170.399 106.312 170.399ZM113.66 170.341C113.201 170.862 112.685 171.122 112.112 171.122C110.943 171.122 110.359 170.484 110.359 169.208V165.819H111.282V169.169C111.282 169.592 111.357 169.896 111.507 170.082C111.656 170.268 111.904 170.36 112.249 170.36C112.763 170.36 113.234 170.084 113.66 169.53V165.819H114.578V171H113.66V170.341ZM117.468 166.479C117.927 165.961 118.443 165.702 119.016 165.702C120.184 165.702 120.769 166.339 120.769 167.611V171H119.846V167.65C119.846 167.227 119.769 166.923 119.616 166.737C119.467 166.552 119.219 166.459 118.874 166.459C118.405 166.459 117.937 166.736 117.468 167.289V171H116.545V165.819H117.468V166.479ZM125.993 169.511V167.05C125.596 166.63 125.142 166.42 124.63 166.42C124.237 166.42 123.921 166.591 123.683 166.933C123.449 167.271 123.332 167.777 123.332 168.451C123.332 169.089 123.442 169.574 123.664 169.906C123.888 170.235 124.198 170.399 124.591 170.399C125.106 170.399 125.573 170.103 125.993 169.511ZM125.993 170.38C125.583 170.875 125.089 171.122 124.513 171.122C123.836 171.122 123.312 170.881 122.941 170.399C122.57 169.918 122.384 169.268 122.384 168.451C122.384 167.605 122.591 166.936 123.004 166.444C123.421 165.95 123.944 165.702 124.572 165.702C125.132 165.702 125.605 165.875 125.993 166.22V163.842H126.911V171H125.993V170.38ZM81.7564 182H80.7311L80.0572 180.091C79.9368 179.752 79.7366 179.476 79.4566 179.261C79.1767 179.046 78.8544 178.938 78.4898 178.938H76.7369V182H75.7896V174.842H78.9586C79.512 174.842 79.9645 174.896 80.316 175.003C80.6676 175.11 80.954 175.337 81.1754 175.682C81.3967 176.027 81.5074 176.416 81.5074 176.849C81.5074 177.343 81.3642 177.757 81.0777 178.089C80.7913 178.421 80.399 178.637 79.901 178.738V178.758C80.399 178.917 80.7783 179.349 81.0387 180.052L81.7564 182ZM76.7369 178.089H78.8512C79.4404 178.089 79.8668 177.996 80.1305 177.811C80.3974 177.625 80.5309 177.304 80.5309 176.849C80.5309 176.035 80.0198 175.628 78.9977 175.628H76.7369V178.089ZM85.6963 182.122C84.9346 182.122 84.3226 181.884 83.8604 181.409C83.3981 180.931 83.167 180.265 83.167 179.412C83.167 178.566 83.39 177.903 83.8359 177.425C84.2852 176.943 84.8711 176.702 85.5938 176.702C86.3327 176.702 86.9219 176.938 87.3613 177.41C87.804 177.882 88.0254 178.549 88.0254 179.412V179.632H84.124C84.1631 180.231 84.3275 180.675 84.6172 180.965C84.9102 181.255 85.2699 181.399 85.6963 181.399C86.0186 181.399 86.3083 181.318 86.5654 181.155C86.8258 180.989 86.9626 180.755 86.9756 180.452H87.9277C87.8561 180.986 87.6136 181.398 87.2002 181.688C86.79 181.977 86.2887 182.122 85.6963 182.122ZM87.0537 178.909C86.9788 178.411 86.8112 178.038 86.5508 177.791C86.2904 177.544 85.9714 177.42 85.5938 177.42C85.2259 177.42 84.9102 177.544 84.6465 177.791C84.3828 178.035 84.2152 178.408 84.1436 178.909H87.0537ZM91.5111 182.122C90.0951 182.122 89.3546 181.565 89.2895 180.452H90.2123C90.2188 181.084 90.6485 181.399 91.5014 181.399C91.8822 181.399 92.1719 181.321 92.3705 181.165C92.5723 181.006 92.6732 180.807 92.6732 180.569C92.6732 180.335 92.5756 180.171 92.3803 180.076C92.185 179.979 91.7813 179.853 91.1693 179.7C90.5606 179.547 90.1146 179.376 89.8314 179.188C89.5515 178.999 89.4115 178.667 89.4115 178.191C89.4115 177.762 89.5857 177.407 89.934 177.127C90.2855 176.844 90.7543 176.702 91.3402 176.702C92.6977 176.702 93.391 177.186 93.4203 178.152H92.5023C92.4698 177.664 92.1036 177.42 91.4037 177.42C91.0945 177.42 90.8373 177.479 90.6322 177.596C90.4304 177.713 90.3295 177.884 90.3295 178.108C90.3295 178.31 90.4076 178.457 90.5639 178.548C90.7201 178.636 91.1107 178.756 91.7357 178.909C92.364 179.059 92.8295 179.235 93.1322 179.437C93.4382 179.638 93.5912 179.987 93.5912 180.481C93.5912 180.953 93.4024 181.346 93.0248 181.658C92.6505 181.967 92.1459 182.122 91.5111 182.122ZM97.4627 182.122C96.701 182.122 96.089 181.884 95.6268 181.409C95.1645 180.931 94.9334 180.265 94.9334 179.412C94.9334 178.566 95.1564 177.903 95.6023 177.425C96.0516 176.943 96.6375 176.702 97.3602 176.702C98.0991 176.702 98.6883 176.938 99.1277 177.41C99.5704 177.882 99.7918 178.549 99.7918 179.412V179.632H95.8904C95.9295 180.231 96.0939 180.675 96.3836 180.965C96.6766 181.255 97.0363 181.399 97.4627 181.399C97.785 181.399 98.0747 181.318 98.3318 181.155C98.5922 180.989 98.729 180.755 98.742 180.452H99.6941C99.6225 180.986 99.38 181.398 98.9666 181.688C98.5564 181.977 98.0551 182.122 97.4627 182.122ZM98.8201 178.909C98.7452 178.411 98.5776 178.038 98.3172 177.791C98.0568 177.544 97.7378 177.42 97.3602 177.42C96.9923 177.42 96.6766 177.544 96.4129 177.791C96.1492 178.035 95.9816 178.408 95.91 178.909H98.8201ZM104.708 180.638V179.49H104.078C102.744 179.49 102.076 179.853 102.076 180.579C102.076 180.843 102.174 181.046 102.369 181.189C102.565 181.329 102.828 181.399 103.16 181.399C103.463 181.399 103.756 181.331 104.039 181.194C104.322 181.058 104.545 180.872 104.708 180.638ZM104.708 181.468C104.239 181.904 103.636 182.122 102.897 182.122C102.382 182.122 101.959 181.984 101.627 181.707C101.295 181.427 101.129 181.067 101.129 180.628C101.129 179.417 102.172 178.812 104.259 178.812H104.708C104.708 178.44 104.689 178.172 104.65 178.006C104.611 177.837 104.501 177.697 104.322 177.586C104.143 177.475 103.859 177.42 103.468 177.42C102.648 177.42 102.224 177.713 102.198 178.299H101.28C101.349 177.234 102.094 176.702 103.517 176.702C104.181 176.702 104.698 176.834 105.07 177.098C105.441 177.361 105.626 177.879 105.626 178.65V182H104.708V181.468ZM110.284 177.659C110.154 177.62 109.966 177.601 109.722 177.601C109.254 177.601 108.851 177.846 108.516 178.338V182H107.593V176.819H108.516V177.542C108.904 176.982 109.353 176.702 109.864 176.702C109.994 176.702 110.134 176.715 110.284 176.741V177.659ZM113.623 182.122C112.887 182.122 112.298 181.886 111.855 181.414C111.416 180.939 111.196 180.271 111.196 179.412C111.196 178.549 111.416 177.882 111.855 177.41C112.298 176.938 112.887 176.702 113.623 176.702C114.189 176.702 114.661 176.845 115.039 177.132C115.42 177.418 115.645 177.832 115.713 178.372H114.766C114.753 178.063 114.635 177.827 114.414 177.664C114.196 177.501 113.932 177.42 113.623 177.42C113.184 177.42 112.827 177.588 112.554 177.923C112.28 178.255 112.144 178.751 112.144 179.412C112.144 180.07 112.28 180.566 112.554 180.901C112.827 181.233 113.184 181.399 113.623 181.399C113.932 181.399 114.196 181.318 114.414 181.155C114.635 180.993 114.753 180.758 114.766 180.452H115.713C115.645 180.993 115.42 181.406 115.039 181.692C114.661 181.979 114.189 182.122 113.623 182.122ZM118.046 177.479C118.505 176.961 119.021 176.702 119.594 176.702C120.763 176.702 121.347 177.339 121.347 178.611V182H120.424V178.65C120.424 178.227 120.348 177.923 120.195 177.737C120.045 177.552 119.798 177.459 119.453 177.459C118.984 177.459 118.515 177.736 118.046 178.289V182H117.123V174.842H118.046V177.479Z" fill="black"/>
<path d="M132.101 132.053L121.581 121.531C124.123 118.182 125.709 114.168 126.116 109.959C126.615 104.794 125.328 99.5747 122.493 95.2633C122.182 94.7901 121.546 94.6587 121.073 94.9701C120.6 95.2814 120.469 95.9175 120.78 96.3907C126.145 104.549 125.019 115.49 118.104 122.406C110.028 130.483 96.8875 130.483 88.8115 122.406C80.7349 114.329 80.7349 101.186 88.8115 93.1089C96.8875 85.0318 110.028 85.0318 118.102 93.1062L118.158 93.1628C118.557 93.5644 119.206 93.5671 119.608 93.1676C120.01 92.7687 120.012 92.1193 119.613 91.7177L119.554 91.6584C110.678 82.7818 96.237 82.7818 87.361 91.6584C87.0822 91.9372 86.8125 92.2213 86.5514 92.5107H64.0254C63.4593 92.5107 63 92.97 63 93.5361V98.0713C63 98.638 63.4593 99.0973 64.0254 99.0973C64.592 99.0973 65.0508 98.638 65.0508 98.0713V94.5621H84.9065C84.123 95.6627 83.449 96.8174 82.8845 98.0121H70.1094C69.5433 98.0121 69.084 98.4708 69.084 99.0375C69.084 99.6041 69.5433 100.063 70.1094 100.063H82.0359C81.7416 100.886 81.4965 101.723 81.3 102.57H70.1094C69.5433 102.57 69.084 103.028 69.084 103.595C69.084 104.161 69.5433 104.62 70.1094 104.62H80.9208C80.806 105.452 80.7371 106.289 80.7141 107.127H70.1094C69.5433 107.127 69.084 107.586 69.084 108.153C69.084 108.719 69.5433 109.178 70.1094 109.178H80.7499C80.9347 112.157 81.6989 115.106 83.0453 117.839C82.4786 117.839 83 118 83.5 118.5L84.6733 120.62C85.0111 121.088 85.6257 121.859 86.0304 122.406L88.4985 124.917C88.8863 125.256 90 126 90.5 126.5L90.5493 126.512C91.4727 127.148 92.4324 127.709 93.4204 128.193L94 128.5C94 129.067 94.9056 129.075 95.4717 129.075L97.8985 129.809C98.5 130 100.5 130.5 103 130.5L103.674 130.512C104.474 130.504 105.272 130.455 106.067 130.364V146.204C106.067 146.77 106.526 147.23 107.093 147.23C107.659 147.23 108.118 146.77 108.118 146.204V130.034C111.359 129.361 114.481 127.978 117.231 125.884L127.749 136.403C128.331 136.984 129.103 137.305 129.925 137.305C130.747 137.305 131.519 136.984 132.101 136.403C133.299 135.205 133.3 133.253 132.101 132.053ZM86.7738 123.247L84.9391 121L84.1935 119.89C85.2112 121.333 86.1359 122.63 87.361 123.856C87.7306 124.226 88.1108 124.579 88.4985 124.917L86.7738 123.247ZM97 129.584L95.4717 129.075C97.4605 129.817 99.5327 130.271 101.624 130.439L98.797 130.034L97 129.584ZM130.651 134.953C130.457 135.147 130.199 135.253 129.925 135.253C129.651 135.253 129.393 135.147 129.2 134.953L118.812 124.564C119.064 124.334 119.311 124.099 119.554 123.856C119.797 123.614 120.033 123.366 120.263 123.114L130.65 133.503C131.05 133.903 131.051 134.554 130.651 134.953Z" fill="url(#paint0_linear)"/>
<path d="M107.093 149.599C106.527 149.599 106.067 150.058 106.067 150.624V152.949H65.0508V102.515C65.0508 101.948 64.592 101.49 64.0254 101.49C63.4593 101.49 63 101.948 63 102.515V153.975C63 154.541 63.4593 155 64.0254 155H107.093C107.66 155 108.118 154.541 108.118 153.975V150.624C108.118 150.058 107.66 149.599 107.093 149.599Z" fill="black"/>
<path d="M67.4434 127.068V149.22C67.4434 149.786 67.9026 150.245 68.4688 150.245H76.6724C77.2385 150.245 77.6978 149.786 77.6978 149.22V127.068C77.6978 126.502 77.2385 126.042 76.6724 126.042H68.4688C67.9026 126.042 67.4434 126.502 67.4434 127.068V127.068ZM69.4941 128.094H75.647V148.194H69.4941V128.094Z" fill="#7D5CD2"/>
<path d="M77.7768 113.736C78.3435 113.736 78.8022 113.277 78.8022 112.71C78.8022 112.144 78.3435 111.685 77.7768 111.685H70.1094C69.5433 111.685 69.084 112.144 69.084 112.71C69.084 113.277 69.5433 113.736 70.1094 113.736H77.7768Z" fill="black"/>
<path d="M103.458 89.1C98.4678 89.1 93.7809 91.0386 90.2615 94.5586C86.7421 98.0786 84.8034 102.766 84.8034 107.757C84.8034 112.748 86.7421 117.435 90.2615 120.955C93.7815 124.475 98.4678 126.414 103.458 126.414C108.448 126.414 113.135 124.475 116.655 120.955C120.174 117.435 122.112 112.748 122.112 107.757C122.112 102.766 120.174 98.0786 116.655 94.5586C113.135 91.0386 108.448 89.1 103.458 89.1ZM115.204 119.504C112.072 122.637 107.9 124.362 103.458 124.362C99.0152 124.362 94.8443 122.637 91.712 119.504C88.5792 116.372 86.8542 112.2 86.8542 107.757C86.8542 103.313 88.5792 99.1413 91.712 96.0085C94.95 92.77 99.2043 91.1502 103.458 91.1502C107.712 91.1502 111.966 92.77 115.204 96.0085C118.336 99.1413 120.061 103.313 120.061 107.757C120.061 112.2 118.336 116.372 115.204 119.504Z" fill="black"/>
<path d="M83.1046 117.8L81.3 117.8C80.7477 117.8 80.3 118.248 80.3 118.8V149.3C80.3 149.852 80.7477 150.3 81.3 150.3H89.6C90.1523 150.3 90.6 149.852 90.6 149.3V126.457C89.8569 125.941 89.1458 125.383 88.47 124.785V148.2H82.35V119.9H84.2935C83.862 119.223 83.4648 118.522 83.1046 117.8Z" fill="#7D5CD2"/>
<path d="M95.48 129.048C94.7809 128.786 94.097 128.493 93.43 128.17V149.3C93.43 149.852 93.8777 150.3 94.43 150.3H102.73C103.282 150.3 103.73 149.852 103.73 149.3V130.598C103.012 130.588 102.302 130.547 101.6 130.476V148.2H95.48V129.048Z" fill="#7D5CD2"/>
<path d="M572.855 9H571.903V1.8418H572.855V9ZM577.058 9.00977C576.857 9.04883 576.637 9.06836 576.399 9.06836C576.022 9.06836 575.745 9.00163 575.569 8.86816C575.393 8.73145 575.284 8.55729 575.242 8.3457C575.2 8.13411 575.179 7.84603 575.179 7.48145V4.54199H574.539V3.81934H575.179V2.53027H576.096V3.81934H576.936V4.54199H576.096V7.53027C576.096 7.88509 576.14 8.11133 576.228 8.20898C576.319 8.30339 576.443 8.35059 576.599 8.35059C576.759 8.35059 576.912 8.33757 577.058 8.31152V9.00977ZM580.632 9.12207C579.87 9.12207 579.258 8.88444 578.796 8.40918C578.334 7.93066 578.103 7.26497 578.103 6.41211C578.103 5.56576 578.326 4.90332 578.772 4.4248C579.221 3.94303 579.807 3.70215 580.529 3.70215C581.268 3.70215 581.858 3.93815 582.297 4.41016C582.74 4.88216 582.961 5.54948 582.961 6.41211V6.63184H579.06C579.099 7.23079 579.263 7.67513 579.553 7.96484C579.846 8.25456 580.206 8.39941 580.632 8.39941C580.954 8.39941 581.244 8.31803 581.501 8.15527C581.762 7.98926 581.898 7.75488 581.911 7.45215H582.863C582.792 7.986 582.549 8.39779 582.136 8.6875C581.726 8.97721 581.224 9.12207 580.632 9.12207ZM581.989 5.90918C581.915 5.41113 581.747 5.03841 581.487 4.79102C581.226 4.54362 580.907 4.41992 580.529 4.41992C580.162 4.41992 579.846 4.54362 579.582 4.79102C579.319 5.03516 579.151 5.40788 579.079 5.90918H581.989ZM587.287 4.65918C587.157 4.62012 586.969 4.60059 586.725 4.60059C586.256 4.60059 585.854 4.84635 585.519 5.33789V9H584.596V3.81934H585.519V4.54199C585.907 3.9821 586.356 3.70215 586.867 3.70215C586.997 3.70215 587.137 3.71517 587.287 3.74121V4.65918ZM591.808 7.6377V6.49023H591.178C589.843 6.49023 589.176 6.85319 589.176 7.5791C589.176 7.84277 589.273 8.04622 589.469 8.18945C589.664 8.32943 589.928 8.39941 590.26 8.39941C590.562 8.39941 590.855 8.33105 591.139 8.19434C591.422 8.05762 591.645 7.87207 591.808 7.6377ZM591.808 8.46777C591.339 8.90397 590.735 9.12207 589.996 9.12207C589.482 9.12207 589.059 8.98372 588.727 8.70703C588.395 8.42708 588.229 8.06738 588.229 7.62793C588.229 6.41699 589.272 5.81152 591.358 5.81152H591.808C591.808 5.44043 591.788 5.17188 591.749 5.00586C591.71 4.83659 591.601 4.69661 591.422 4.58594C591.243 4.47526 590.958 4.41992 590.567 4.41992C589.747 4.41992 589.324 4.71289 589.298 5.29883H588.38C588.448 4.23438 589.194 3.70215 590.616 3.70215C591.28 3.70215 591.798 3.83398 592.169 4.09766C592.54 4.36133 592.726 4.87891 592.726 5.65039V9H591.808V8.46777ZM596.704 9.00977C596.503 9.04883 596.283 9.06836 596.045 9.06836C595.668 9.06836 595.391 9.00163 595.215 8.86816C595.039 8.73145 594.93 8.55729 594.888 8.3457C594.846 8.13411 594.825 7.84603 594.825 7.48145V4.54199H594.185V3.81934H594.825V2.53027H595.743V3.81934H596.582V4.54199H595.743V7.53027C595.743 7.88509 595.787 8.11133 595.874 8.20898C595.966 8.30339 596.089 8.35059 596.246 8.35059C596.405 8.35059 596.558 8.33757 596.704 8.31152V9.00977ZM598.999 9H598.076V3.81934H598.999V9ZM598.999 2.83789H598.076V1.8418H598.999V2.83789ZM603.061 3.70215C603.8 3.70215 604.389 3.93815 604.828 4.41016C605.271 4.88216 605.492 5.54948 605.492 6.41211C605.492 7.27148 605.271 7.9388 604.828 8.41406C604.389 8.88607 603.8 9.12207 603.061 9.12207C602.325 9.12207 601.736 8.88607 601.293 8.41406C600.854 7.9388 600.634 7.27148 600.634 6.41211C600.634 5.54948 600.854 4.88216 601.293 4.41016C601.736 3.93815 602.325 3.70215 603.061 3.70215ZM603.061 8.39941C603.5 8.39941 603.857 8.2334 604.13 7.90137C604.404 7.56608 604.54 7.06966 604.54 6.41211C604.54 5.7513 604.404 5.25488 604.13 4.92285C603.857 4.58757 603.5 4.41992 603.061 4.41992C602.621 4.41992 602.265 4.58757 601.991 4.92285C601.718 5.25488 601.581 5.7513 601.581 6.41211C601.581 7.06966 601.718 7.56608 601.991 7.90137C602.265 8.2334 602.621 8.39941 603.061 8.39941ZM608.05 4.47852C608.509 3.96094 609.025 3.70215 609.598 3.70215C610.767 3.70215 611.351 4.33854 611.351 5.61133V9H610.428V5.65039C610.428 5.22721 610.352 4.92285 610.199 4.7373C610.049 4.55176 609.802 4.45898 609.457 4.45898C608.988 4.45898 608.519 4.73568 608.05 5.28906V9H607.128V3.81934H608.05V4.47852Z" fill="#7D5CD2"/>
<path d="M278.428 177H277.476V169.842H278.428V177ZM283.901 175.511V173.05C283.504 172.63 283.05 172.42 282.539 172.42C282.145 172.42 281.829 172.591 281.592 172.933C281.357 173.271 281.24 173.777 281.24 174.451C281.24 175.089 281.351 175.574 281.572 175.906C281.797 176.235 282.106 176.399 282.5 176.399C283.014 176.399 283.481 176.103 283.901 175.511ZM283.901 176.38C283.491 176.875 282.998 177.122 282.422 177.122C281.745 177.122 281.221 176.881 280.85 176.399C280.479 175.918 280.293 175.268 280.293 174.451C280.293 173.605 280.5 172.936 280.913 172.444C281.33 171.95 281.852 171.702 282.48 171.702C283.04 171.702 283.514 171.875 283.901 172.22V169.842H284.819V177H283.901V176.38ZM288.989 177.122C288.227 177.122 287.615 176.884 287.153 176.409C286.69 175.931 286.459 175.265 286.459 174.412C286.459 173.566 286.682 172.903 287.128 172.425C287.578 171.943 288.163 171.702 288.886 171.702C289.625 171.702 290.214 171.938 290.654 172.41C291.096 172.882 291.318 173.549 291.318 174.412V174.632H287.416C287.455 175.231 287.62 175.675 287.91 175.965C288.203 176.255 288.562 176.399 288.989 176.399C289.311 176.399 289.601 176.318 289.858 176.155C290.118 175.989 290.255 175.755 290.268 175.452H291.22C291.149 175.986 290.906 176.398 290.493 176.688C290.082 176.977 289.581 177.122 288.989 177.122ZM290.346 173.909C290.271 173.411 290.104 173.038 289.843 172.791C289.583 172.544 289.264 172.42 288.886 172.42C288.518 172.42 288.203 172.544 287.939 172.791C287.675 173.035 287.508 173.408 287.436 173.909H290.346ZM296.234 175.638V174.49H295.604C294.27 174.49 293.602 174.853 293.602 175.579C293.602 175.843 293.7 176.046 293.895 176.189C294.091 176.329 294.354 176.399 294.686 176.399C294.989 176.399 295.282 176.331 295.565 176.194C295.848 176.058 296.071 175.872 296.234 175.638ZM296.234 176.468C295.765 176.904 295.162 177.122 294.423 177.122C293.908 177.122 293.485 176.984 293.153 176.707C292.821 176.427 292.655 176.067 292.655 175.628C292.655 174.417 293.698 173.812 295.785 173.812H296.234C296.234 173.44 296.215 173.172 296.176 173.006C296.137 172.837 296.027 172.697 295.848 172.586C295.669 172.475 295.385 172.42 294.994 172.42C294.174 172.42 293.75 172.713 293.724 173.299H292.806C292.875 172.234 293.62 171.702 295.043 171.702C295.707 171.702 296.224 171.834 296.596 172.098C296.967 172.361 297.152 172.879 297.152 173.65V177H296.234V176.468ZM301.131 177.01C300.929 177.049 300.71 177.068 300.472 177.068C300.094 177.068 299.818 177.002 299.642 176.868C299.466 176.731 299.357 176.557 299.315 176.346C299.272 176.134 299.251 175.846 299.251 175.481V172.542H298.612V171.819H299.251V170.53H300.169V171.819H301.009V172.542H300.169V175.53C300.169 175.885 300.213 176.111 300.301 176.209C300.392 176.303 300.516 176.351 300.672 176.351C300.832 176.351 300.985 176.338 301.131 176.312V177.01ZM303.425 177H302.503V171.819H303.425V177ZM303.425 170.838H302.503V169.842H303.425V170.838ZM307.487 171.702C308.226 171.702 308.815 171.938 309.255 172.41C309.698 172.882 309.919 173.549 309.919 174.412C309.919 175.271 309.698 175.939 309.255 176.414C308.815 176.886 308.226 177.122 307.487 177.122C306.752 177.122 306.162 176.886 305.72 176.414C305.28 175.939 305.061 175.271 305.061 174.412C305.061 173.549 305.28 172.882 305.72 172.41C306.162 171.938 306.752 171.702 307.487 171.702ZM307.487 176.399C307.927 176.399 308.283 176.233 308.557 175.901C308.83 175.566 308.967 175.07 308.967 174.412C308.967 173.751 308.83 173.255 308.557 172.923C308.283 172.588 307.927 172.42 307.487 172.42C307.048 172.42 306.691 172.588 306.418 172.923C306.145 173.255 306.008 173.751 306.008 174.412C306.008 175.07 306.145 175.566 306.418 175.901C306.691 176.233 307.048 176.399 307.487 176.399ZM312.477 172.479C312.936 171.961 313.452 171.702 314.025 171.702C315.193 171.702 315.778 172.339 315.778 173.611V177H314.855V173.65C314.855 173.227 314.778 172.923 314.625 172.737C314.476 172.552 314.228 172.459 313.883 172.459C313.414 172.459 312.946 172.736 312.477 173.289V177H311.554V171.819H312.477V172.479Z" fill="black"/>
<g clip-path="url(#clip1)">
<path d="M295 93.9842C295.568 93.9842 296.028 93.5242 296.028 92.9564V86.0277C296.028 85.46 295.568 85 295 85C294.432 85 293.972 85.46 293.972 86.0277V92.9564C293.972 93.5242 294.432 93.9842 295 93.9842Z" fill="black"/>
<path d="M275.825 101.325C276.227 101.726 276.877 101.726 277.279 101.325C277.68 100.923 277.68 100.273 277.279 99.8713L272.379 94.9718C271.978 94.5707 271.327 94.5704 270.926 94.9718C270.525 95.3733 270.525 96.0239 270.926 96.4252L275.825 101.325Z" fill="black"/>
<path d="M268.911 118.018H261.982C261.414 118.018 260.954 118.478 260.954 119.046C260.954 119.614 261.414 120.074 261.982 120.074H268.911C269.478 120.074 269.938 119.614 269.938 119.046C269.938 118.478 269.478 118.018 268.911 118.018Z" fill="black"/>
<path d="M275.825 136.767L270.926 141.666C270.525 142.068 270.525 142.718 270.926 143.12C271.327 143.521 271.978 143.521 272.379 143.12L277.279 138.22C277.68 137.819 277.68 137.168 277.279 136.767C276.877 136.366 276.227 136.366 275.825 136.767Z" fill="black"/>
<path d="M314.175 136.767C313.773 136.366 313.123 136.366 312.721 136.767C312.32 137.168 312.32 137.819 312.721 138.22L317.621 143.12C318.022 143.521 318.673 143.521 319.074 143.12C319.475 142.718 319.475 142.068 319.074 141.666L314.175 136.767Z" fill="black"/>
<path d="M328.018 118.018H321.089C320.522 118.018 320.062 118.478 320.062 119.046C320.062 119.614 320.522 120.074 321.089 120.074H328.018C328.586 120.074 329.046 119.614 329.046 119.046C329.046 118.478 328.586 118.018 328.018 118.018Z" fill="black"/>
<path d="M317.621 94.9718L312.721 99.8713C312.32 100.273 312.32 100.923 312.721 101.325C313.123 101.726 313.773 101.726 314.175 101.325L319.074 96.4252C319.475 96.0237 319.475 95.3731 319.074 94.9718C318.673 94.5705 318.022 94.5705 317.621 94.9718Z" fill="black"/>
<path d="M315.303 116.968C315.303 105.612 306.195 96.3736 295 96.3736C291.079 96.3736 287.272 97.51 283.993 99.6599C280.803 101.752 278.26 104.694 276.638 108.17C276.398 108.684 276.621 109.296 277.135 109.536C277.65 109.776 278.261 109.553 278.501 109.039C281.507 102.594 287.984 98.4291 295 98.4291C305.062 98.4291 313.247 106.746 313.247 116.968C313.247 121.824 311.413 126.415 308.081 129.894C306.161 131.9 304.526 133.816 304.106 136.501H286.163C285.633 133.713 283.732 131.758 282.023 130.002C278.625 126.509 276.753 121.88 276.753 116.968C276.753 115.756 276.869 114.543 277.098 113.363C277.206 112.806 276.842 112.266 276.284 112.158C275.727 112.051 275.188 112.414 275.08 112.972C274.826 114.28 274.697 115.625 274.697 116.968C274.697 122.419 276.776 127.557 280.55 131.436C282.718 133.663 284.252 135.441 284.252 138.047C284.252 138.057 284.253 138.066 284.253 138.075L284.312 144.106C284.312 146.063 285.356 147.78 286.915 148.731V149.861C286.915 152.695 289.221 155 292.054 155H298.357C301.191 155 303.496 152.695 303.496 149.861V148.731C305.056 147.78 306.1 146.063 306.1 144.106C306.1 144.106 306.092 137.388 306.079 137.321C306.274 134.939 307.718 133.246 309.566 131.316C313.265 127.451 315.303 122.356 315.303 116.968ZM301.441 149.861C301.441 151.561 300.057 152.945 298.357 152.945H292.054C290.354 152.945 288.971 151.561 288.971 149.861V149.465C289.217 149.5 289.469 149.519 289.724 149.519H300.687C300.943 149.519 301.194 149.5 301.441 149.465V149.861ZM300.687 147.463H289.724C287.873 147.463 286.367 145.957 286.367 144.106V144.038H296.781C297.349 144.038 297.809 143.578 297.809 143.01C297.809 142.442 297.349 141.982 296.781 141.982H286.367V138.556H304.012L304.044 141.982H301.578C301.01 141.982 300.55 142.442 300.55 143.01C300.55 143.578 301.01 144.038 301.578 144.038H304.044V144.106C304.044 145.957 302.538 147.463 300.687 147.463Z" fill="black"/>
<path d="M301.682 117.104C301.334 117.553 301.415 118.198 301.863 118.546C302.311 118.894 302.957 118.813 303.305 118.365L305.34 115.745C305.879 115.051 306.115 114.189 306.005 113.317C305.895 112.446 305.453 111.669 304.759 111.13C304.065 110.591 303.203 110.354 302.332 110.465C301.46 110.574 300.683 111.017 300.145 111.711L293.507 120.259L289.697 116.044C288.481 114.699 286.397 114.594 285.052 115.81C284.401 116.399 284.017 117.207 283.973 118.084C283.929 118.961 284.229 119.803 284.818 120.455L291.258 127.581C292.555 129.085 295.117 128.992 296.296 127.392L300.363 122.154C300.712 121.706 300.63 121.06 300.182 120.712C299.734 120.364 299.088 120.445 298.74 120.893L294.672 126.132C294.231 126.732 293.267 126.767 292.783 126.202L286.343 119.077C285.887 118.572 285.926 117.791 286.431 117.335C286.935 116.879 287.717 116.918 288.173 117.423L292.804 122.547C293.208 123.016 294.011 122.989 294.379 122.489L301.768 112.972C302.164 112.44 302.984 112.336 303.499 112.754C304.031 113.15 304.134 113.969 303.716 114.484L301.682 117.104Z" fill="#7D5CD2"/>
</g>
<path d="M658.478 177.122C657.648 177.122 657.026 176.961 656.613 176.639C656.203 176.316 655.943 175.937 655.832 175.501C655.724 175.065 655.671 174.559 655.671 173.982V169.842H656.618V173.968C656.618 174.909 656.776 175.527 657.092 175.823C657.407 176.119 657.87 176.268 658.478 176.268C659.087 176.268 659.549 176.119 659.865 175.823C660.181 175.527 660.339 174.909 660.339 173.968V169.842H661.291V173.982C661.291 174.848 661.187 175.486 660.978 175.896C660.773 176.307 660.462 176.614 660.046 176.819C659.629 177.021 659.107 177.122 658.478 177.122ZM665.226 177.122C663.81 177.122 663.069 176.565 663.004 175.452H663.927C663.933 176.084 664.363 176.399 665.216 176.399C665.597 176.399 665.887 176.321 666.085 176.165C666.287 176.006 666.388 175.807 666.388 175.569C666.388 175.335 666.29 175.171 666.095 175.076C665.9 174.979 665.496 174.853 664.884 174.7C664.275 174.547 663.829 174.376 663.546 174.188C663.266 173.999 663.126 173.667 663.126 173.191C663.126 172.762 663.3 172.407 663.649 172.127C664 171.844 664.469 171.702 665.055 171.702C666.412 171.702 667.106 172.186 667.135 173.152H666.217C666.184 172.664 665.818 172.42 665.118 172.42C664.809 172.42 664.552 172.479 664.347 172.596C664.145 172.713 664.044 172.884 664.044 173.108C664.044 173.31 664.122 173.457 664.279 173.548C664.435 173.636 664.825 173.756 665.45 173.909C666.079 174.059 666.544 174.235 666.847 174.437C667.153 174.638 667.306 174.987 667.306 175.481C667.306 175.953 667.117 176.346 666.739 176.658C666.365 176.967 665.861 177.122 665.226 177.122ZM671.177 177.122C670.416 177.122 669.804 176.884 669.341 176.409C668.879 175.931 668.648 175.265 668.648 174.412C668.648 173.566 668.871 172.903 669.317 172.425C669.766 171.943 670.352 171.702 671.075 171.702C671.814 171.702 672.403 171.938 672.842 172.41C673.285 172.882 673.506 173.549 673.506 174.412V174.632H669.605C669.644 175.231 669.809 175.675 670.098 175.965C670.391 176.255 670.751 176.399 671.177 176.399C671.5 176.399 671.789 176.318 672.046 176.155C672.307 175.989 672.444 175.755 672.457 175.452H673.409C673.337 175.986 673.095 176.398 672.681 176.688C672.271 176.977 671.77 177.122 671.177 177.122ZM672.535 173.909C672.46 173.411 672.292 173.038 672.032 172.791C671.771 172.544 671.452 172.42 671.075 172.42C670.707 172.42 670.391 172.544 670.128 172.791C669.864 173.035 669.696 173.408 669.625 173.909H672.535ZM677.832 172.659C677.702 172.62 677.515 172.601 677.271 172.601C676.802 172.601 676.4 172.846 676.064 173.338V177H675.142V171.819H676.064V172.542C676.452 171.982 676.901 171.702 677.412 171.702C677.542 171.702 677.682 171.715 677.832 171.741V172.659ZM687.538 170.691H685.17V177H684.218V170.691H681.869V169.842H687.538V170.691ZM691.243 177.122C690.482 177.122 689.87 176.884 689.407 176.409C688.945 175.931 688.714 175.265 688.714 174.412C688.714 173.566 688.937 172.903 689.383 172.425C689.832 171.943 690.418 171.702 691.141 171.702C691.88 171.702 692.469 171.938 692.908 172.41C693.351 172.882 693.572 173.549 693.572 174.412V174.632H689.671C689.71 175.231 689.875 175.675 690.164 175.965C690.457 176.255 690.817 176.399 691.243 176.399C691.566 176.399 691.855 176.318 692.112 176.155C692.373 175.989 692.51 175.755 692.523 175.452H693.475C693.403 175.986 693.161 176.398 692.747 176.688C692.337 176.977 691.836 177.122 691.243 177.122ZM692.601 173.909C692.526 173.411 692.358 173.038 692.098 172.791C691.837 172.544 691.518 172.42 691.141 172.42C690.773 172.42 690.457 172.544 690.194 172.791C689.93 173.035 689.762 173.408 689.691 173.909H692.601ZM697.058 177.122C695.642 177.122 694.902 176.565 694.837 175.452H695.759C695.766 176.084 696.196 176.399 697.048 176.399C697.429 176.399 697.719 176.321 697.918 176.165C698.119 176.006 698.22 175.807 698.22 175.569C698.22 175.335 698.123 175.171 697.927 175.076C697.732 174.979 697.328 174.853 696.716 174.7C696.108 174.547 695.662 174.376 695.379 174.188C695.099 173.999 694.959 173.667 694.959 173.191C694.959 172.762 695.133 172.407 695.481 172.127C695.833 171.844 696.301 171.702 696.887 171.702C698.245 171.702 698.938 172.186 698.967 173.152H698.049C698.017 172.664 697.651 172.42 696.951 172.42C696.642 172.42 696.384 172.479 696.179 172.596C695.977 172.713 695.877 172.884 695.877 173.108C695.877 173.31 695.955 173.457 696.111 173.548C696.267 173.636 696.658 173.756 697.283 173.909C697.911 174.059 698.377 174.235 698.679 174.437C698.985 174.638 699.138 174.987 699.138 175.481C699.138 175.953 698.949 176.346 698.572 176.658C698.198 176.967 697.693 177.122 697.058 177.122ZM702.819 177.01C702.618 177.049 702.398 177.068 702.16 177.068C701.783 177.068 701.506 177.002 701.33 176.868C701.154 176.731 701.045 176.557 701.003 176.346C700.961 176.134 700.939 175.846 700.939 175.481V172.542H700.3V171.819H700.939V170.53H701.857V171.819H702.697V172.542H701.857V175.53C701.857 175.885 701.901 176.111 701.989 176.209C702.08 176.303 702.204 176.351 702.36 176.351C702.52 176.351 702.673 176.338 702.819 176.312V177.01ZM705.114 177H704.191V171.819H705.114V177ZM705.114 170.838H704.191V169.842H705.114V170.838ZM707.999 172.479C708.458 171.961 708.974 171.702 709.547 171.702C710.715 171.702 711.3 172.339 711.3 173.611V177H710.377V173.65C710.377 173.227 710.3 172.923 710.147 172.737C709.998 172.552 709.75 172.459 709.405 172.459C708.936 172.459 708.468 172.736 707.999 173.289V177H707.076V171.819H707.999V172.479ZM717.442 176.6C717.442 178.266 716.69 179.1 715.186 179.1C714.535 179.1 714.02 178.958 713.643 178.675C713.268 178.392 713.081 178.011 713.081 177.532H714.033C714.033 178.099 714.414 178.382 715.176 178.382C715.606 178.382 715.938 178.263 716.172 178.025C716.406 177.791 716.524 177.329 716.524 176.639V176.38C716.113 176.875 715.62 177.122 715.044 177.122C714.367 177.122 713.843 176.881 713.472 176.399C713.101 175.918 712.915 175.268 712.915 174.451C712.915 173.605 713.122 172.936 713.535 172.444C713.952 171.95 714.474 171.702 715.103 171.702C715.663 171.702 716.136 171.875 716.524 172.22V171.819H717.442V176.6ZM716.524 175.511V173.05C716.127 172.63 715.672 172.42 715.161 172.42C714.767 172.42 714.452 172.591 714.214 172.933C713.98 173.271 713.863 173.777 713.863 174.451C713.863 175.089 713.973 175.574 714.195 175.906C714.419 176.235 714.728 176.399 715.122 176.399C715.637 176.399 716.104 176.103 716.524 175.511Z" fill="black"/>
<g clip-path="url(#clip2)">
<path d="M675.505 135.356C676.123 134.256 676.477 132.988 676.477 131.639V128.514C676.477 124.314 673.06 120.897 668.859 120.897C664.659 120.897 661.242 124.314 661.242 128.514V131.639C661.242 132.988 661.596 134.256 662.214 135.356C658.693 137.615 656.555 141.468 656.555 145.702V149.633C656.555 150.388 657.167 151 657.922 151H679.797C680.552 151 681.164 150.388 681.164 149.633V145.702C681.164 141.469 679.026 137.615 675.505 135.356ZM663.977 128.514C663.977 125.822 666.167 123.631 668.859 123.631C671.552 123.631 673.742 125.822 673.742 128.514V131.639C673.742 134.332 671.552 136.522 668.859 136.522C666.167 136.522 663.976 134.332 663.976 131.639V128.514H663.977ZM678.43 148.266H659.289V145.702C659.289 142.299 661.068 139.211 663.978 137.481C665.301 138.588 667.003 139.256 668.859 139.256C670.716 139.256 672.418 138.588 673.741 137.481C676.65 139.211 678.43 142.3 678.43 145.702V148.266Z" fill="black"/>
<path d="M692.475 107.296C693.058 106.42 694.192 105.247 695.224 104.214C696.184 103.255 696.937 102.13 697.463 100.871C697.988 99.6138 698.254 98.2905 698.254 96.938C698.254 94.1995 697.187 91.6245 695.25 89.6876C693.313 87.7507 690.739 86.6842 688 86.6842C685.261 86.6842 682.686 87.7509 680.75 89.6876C678.813 91.6245 677.746 94.1994 677.746 96.938C677.746 99.1996 679.586 101.04 681.848 101.04C684.109 101.04 685.949 99.1996 685.949 96.938C685.949 96.39 686.162 95.875 686.55 95.4878C686.937 95.1005 687.452 94.8873 688 94.8873C688.548 94.8873 689.063 95.1006 689.45 95.4878C689.838 95.875 690.051 96.39 690.051 96.938C690.051 97.2165 689.999 97.4806 689.898 97.7236C689.795 97.9707 689.635 98.2032 689.424 98.4141C687.56 100.278 686.466 101.54 685.649 102.769C684.455 104.563 683.898 106.266 683.898 108.127C683.898 109.177 684.295 110.136 684.946 110.862C684.295 111.588 683.898 112.547 683.898 113.597C683.898 115.859 685.738 117.699 688 117.699C690.262 117.699 692.102 115.859 692.102 113.597V113.596C692.102 112.547 691.705 111.588 691.054 110.862C691.705 110.136 692.102 109.177 692.102 108.128C692.102 108.004 692.167 107.76 692.475 107.296ZM687.925 104.283C688.636 103.215 689.63 102.075 691.358 100.348C691.822 99.8833 692.18 99.3549 692.421 98.7774C692.663 98.1991 692.785 97.5801 692.785 96.9378C692.785 95.6594 692.288 94.4578 691.384 93.554C690.48 92.6505 689.278 92.1527 688 92.1527C686.722 92.1527 685.52 92.6503 684.616 93.554C683.713 94.4578 683.215 95.6594 683.215 96.9378C683.215 97.6917 682.602 98.305 681.848 98.305C681.094 98.305 680.481 97.6917 680.481 96.9378C680.481 94.9296 681.263 93.0413 682.683 91.621C684.104 90.2006 685.992 89.4183 688 89.4183C690.008 89.4183 691.897 90.2006 693.317 91.6208C694.737 93.0414 695.52 94.9296 695.52 96.9377C695.52 97.9266 695.324 98.8952 694.94 99.8169C694.552 100.746 693.997 101.575 693.291 102.281C691.671 103.901 690.775 104.915 690.199 105.781C689.632 106.633 689.367 107.379 689.367 108.127C689.367 108.881 688.754 109.494 688 109.494C687.246 109.494 686.633 108.881 686.633 108.127C686.633 106.812 687.032 105.627 687.925 104.283ZM689.367 113.597C689.367 114.351 688.754 114.964 688 114.964C687.246 114.964 686.633 114.351 686.633 113.596C686.633 112.842 687.246 112.229 688 112.229C688.754 112.229 689.367 112.842 689.367 113.596V113.597Z" fill="#7D5CD2"/>
<path d="M709.191 102.191C709.191 90.5063 699.685 81 688 81C684.594 81 681.34 81.7842 678.329 83.331C677.657 83.6761 677.393 84.5003 677.738 85.172C678.083 85.8435 678.907 86.1083 679.579 85.7633C682.199 84.417 685.032 83.7344 688 83.7344C698.177 83.7344 706.457 92.0142 706.457 102.191C706.457 112.368 698.177 120.648 688 120.648C677.823 120.648 669.543 112.368 669.543 102.191C669.543 99.2234 670.226 96.3895 671.572 93.7689C671.917 93.0972 671.653 92.2731 670.981 91.928C670.31 91.5829 669.485 91.8476 669.14 92.5192C667.593 95.5303 666.809 98.7844 666.809 102.191C666.809 113.876 676.315 123.383 688 123.383C699.685 123.383 709.191 113.876 709.191 102.191Z" fill="black"/>
<path d="M713.786 135.356C714.404 134.256 714.758 132.988 714.758 131.639V128.514C714.758 124.314 711.341 120.897 707.141 120.897C702.94 120.897 699.523 124.314 699.523 128.514V131.639C699.523 132.988 699.878 134.256 700.496 135.356C696.974 137.615 694.836 141.468 694.836 145.702V149.633C694.836 150.388 695.448 151 696.203 151H718.078C718.833 151 719.445 150.388 719.445 149.633V145.702C719.445 141.469 717.307 137.615 713.786 135.356ZM702.258 128.514C702.258 125.822 704.448 123.631 707.14 123.631C709.833 123.631 712.023 125.822 712.023 128.514V131.639C712.023 134.332 709.833 136.522 707.14 136.522C704.448 136.522 702.258 134.332 702.258 131.639V128.514H702.258ZM716.711 148.266H697.57V145.702C697.57 142.299 699.349 139.211 702.259 137.481C703.582 138.588 705.284 139.256 707.141 139.256C708.997 139.256 710.7 138.588 712.022 137.481C714.932 139.211 716.711 142.3 716.711 145.702V148.266Z" fill="black"/>
<path d="M673.982 89.5408C674.354 89.5408 674.724 89.39 674.994 89.0933L674.995 89.0926C675.503 88.534 675.461 87.6697 674.902 87.1618C674.344 86.6539 673.479 86.6953 672.971 87.2541C672.463 87.8127 672.504 88.6774 673.063 89.1853C673.325 89.4234 673.654 89.5408 673.982 89.5408Z" fill="black"/>
</g>
</g>
<defs>
<linearGradient id="paint0_linear" x1="118.5" y1="123" x2="92.5" y2="149.5" gradientUnits="userSpaceOnUse">
<stop offset="0.696983"/>
<stop offset="0.697511"/>
<stop offset="0.697511" stop-color="#06CAA6"/>
</linearGradient>
<clipPath id="clip0">
<rect width="791" height="231" fill="white"/>
</clipPath>
<clipPath id="clip1">
<rect width="70" height="70" fill="white" transform="translate(260 85)"/>
</clipPath>
<clipPath id="clip2">
<rect width="70" height="70" fill="white" transform="translate(653 81)"/>
</clipPath>
</defs>
</svg>
