<svg width="1631" height="1217" xmlns="http://www.w3.org/2000/svg" xmlns:xlink="http://www.w3.org/1999/xlink" overflow="hidden"><defs><clipPath id="clip0"><path d="M153-37 1784-37 1784 1180 153 1180Z" fill-rule="evenodd" clip-rule="evenodd"/></clipPath><clipPath id="clip1"><path d="M154 26 487 26 487 272 154 272Z" fill-rule="evenodd" clip-rule="evenodd"/></clipPath><clipPath id="clip2"><path d="M154 111 487 111 487 357 154 357Z" fill-rule="evenodd" clip-rule="evenodd"/></clipPath><clipPath id="clip3"><path d="M154 202 487 202 487 448 154 448Z" fill-rule="evenodd" clip-rule="evenodd"/></clipPath><clipPath id="clip4"><path d="M154 293 487 293 487 539 154 539Z" fill-rule="evenodd" clip-rule="evenodd"/></clipPath><clipPath id="clip5"><path d="M154 378 487 378 487 624 154 624Z" fill-rule="evenodd" clip-rule="evenodd"/></clipPath><clipPath id="clip6"><path d="M154 463 487 463 487 709 154 709Z" fill-rule="evenodd" clip-rule="evenodd"/></clipPath><clipPath id="clip7"><path d="M154 554 487 554 487 800 154 800Z" fill-rule="evenodd" clip-rule="evenodd"/></clipPath><clipPath id="clip8"><path d="M154 652 487 652 487 898 154 898Z" fill-rule="evenodd" clip-rule="evenodd"/></clipPath><clipPath id="clip9"><path d="M154 743 487 743 487 989 154 989Z" fill-rule="evenodd" clip-rule="evenodd"/></clipPath><clipPath id="clip10"><path d="M154 828 487 828 487 1074 154 1074Z" fill-rule="evenodd" clip-rule="evenodd"/></clipPath><clipPath id="clip11"><path d="M154 913 487 913 487 1159 154 1159Z" fill-rule="evenodd" clip-rule="evenodd"/></clipPath><clipPath id="clip12"><path d="M154 1004 487 1004 487 1250 154 1250Z" fill-rule="evenodd" clip-rule="evenodd"/></clipPath><clipPath id="clip13"><path d="M615 120 674 120 674 179 615 179Z" fill-rule="evenodd" clip-rule="evenodd"/></clipPath><clipPath id="clip14"><path d="M615 120 674 120 674 179 615 179Z" fill-rule="evenodd" clip-rule="evenodd"/></clipPath><clipPath id="clip15"><path d="M615 120 674 120 674 179 615 179Z" fill-rule="evenodd" clip-rule="evenodd"/></clipPath><clipPath id="clip16"><path d="M615 203 674 203 674 262 615 262Z" fill-rule="evenodd" clip-rule="evenodd"/></clipPath><clipPath id="clip17"><path d="M615 203 674 203 674 262 615 262Z" fill-rule="evenodd" clip-rule="evenodd"/></clipPath><clipPath id="clip18"><path d="M615 203 674 203 674 262 615 262Z" fill-rule="evenodd" clip-rule="evenodd"/></clipPath><clipPath id="clip19"><path d="M615 295 674 295 674 354 615 354Z" fill-rule="evenodd" clip-rule="evenodd"/></clipPath><clipPath id="clip20"><path d="M615 295 674 295 674 354 615 354Z" fill-rule="evenodd" clip-rule="evenodd"/></clipPath><clipPath id="clip21"><path d="M615 295 674 295 674 354 615 354Z" fill-rule="evenodd" clip-rule="evenodd"/></clipPath><clipPath id="clip22"><path d="M615 386 674 386 674 445 615 445Z" fill-rule="evenodd" clip-rule="evenodd"/></clipPath><clipPath id="clip23"><path d="M615 386 674 386 674 445 615 445Z" fill-rule="evenodd" clip-rule="evenodd"/></clipPath><clipPath id="clip24"><path d="M615 386 674 386 674 445 615 445Z" fill-rule="evenodd" clip-rule="evenodd"/></clipPath><clipPath id="clip25"><path d="M615 474 674 474 674 533 615 533Z" fill-rule="evenodd" clip-rule="evenodd"/></clipPath><clipPath id="clip26"><path d="M615 474 674 474 674 533 615 533Z" fill-rule="evenodd" clip-rule="evenodd"/></clipPath><clipPath id="clip27"><path d="M615 474 674 474 674 533 615 533Z" fill-rule="evenodd" clip-rule="evenodd"/></clipPath><clipPath id="clip28"><path d="M615 556 674 556 674 615 615 615Z" fill-rule="evenodd" clip-rule="evenodd"/></clipPath><clipPath id="clip29"><path d="M615 556 674 556 674 615 615 615Z" fill-rule="evenodd" clip-rule="evenodd"/></clipPath><clipPath id="clip30"><path d="M615 556 674 556 674 615 615 615Z" fill-rule="evenodd" clip-rule="evenodd"/></clipPath><clipPath id="clip31"><path d="M615 646 674 646 674 705 615 705Z" fill-rule="evenodd" clip-rule="evenodd"/></clipPath><clipPath id="clip32"><path d="M615 646 674 646 674 705 615 705Z" fill-rule="evenodd" clip-rule="evenodd"/></clipPath><clipPath id="clip33"><path d="M615 646 674 646 674 705 615 705Z" fill-rule="evenodd" clip-rule="evenodd"/></clipPath><clipPath id="clip34"><path d="M615 836 674 836 674 895 615 895Z" fill-rule="evenodd" clip-rule="evenodd"/></clipPath><clipPath id="clip35"><path d="M615 836 674 836 674 895 615 895Z" fill-rule="evenodd" clip-rule="evenodd"/></clipPath><clipPath id="clip36"><path d="M615 836 674 836 674 895 615 895Z" fill-rule="evenodd" clip-rule="evenodd"/></clipPath><clipPath id="clip37"><path d="M615 919 674 919 674 978 615 978Z" fill-rule="evenodd" clip-rule="evenodd"/></clipPath><clipPath id="clip38"><path d="M615 919 674 919 674 978 615 978Z" fill-rule="evenodd" clip-rule="evenodd"/></clipPath><clipPath id="clip39"><path d="M615 919 674 919 674 978 615 978Z" fill-rule="evenodd" clip-rule="evenodd"/></clipPath><clipPath id="clip40"><path d="M615 1002 674 1002 674 1061 615 1061Z" fill-rule="evenodd" clip-rule="evenodd"/></clipPath><clipPath id="clip41"><path d="M615 1002 674 1002 674 1061 615 1061Z" fill-rule="evenodd" clip-rule="evenodd"/></clipPath><clipPath id="clip42"><path d="M615 1002 674 1002 674 1061 615 1061Z" fill-rule="evenodd" clip-rule="evenodd"/></clipPath><clipPath id="clip43"><path d="M1267 120 1326 120 1326 179 1267 179Z" fill-rule="evenodd" clip-rule="evenodd"/></clipPath><clipPath id="clip44"><path d="M1267 120 1326 120 1326 179 1267 179Z" fill-rule="evenodd" clip-rule="evenodd"/></clipPath><clipPath id="clip45"><path d="M1267 120 1326 120 1326 179 1267 179Z" fill-rule="evenodd" clip-rule="evenodd"/></clipPath><clipPath id="clip46"><path d="M1267 203 1326 203 1326 262 1267 262Z" fill-rule="evenodd" clip-rule="evenodd"/></clipPath><clipPath id="clip47"><path d="M1267 203 1326 203 1326 262 1267 262Z" fill-rule="evenodd" clip-rule="evenodd"/></clipPath><clipPath id="clip48"><path d="M1267 203 1326 203 1326 262 1267 262Z" fill-rule="evenodd" clip-rule="evenodd"/></clipPath><clipPath id="clip49"><path d="M1267 295 1326 295 1326 354 1267 354Z" fill-rule="evenodd" clip-rule="evenodd"/></clipPath><clipPath id="clip50"><path d="M1267 295 1326 295 1326 354 1267 354Z" fill-rule="evenodd" clip-rule="evenodd"/></clipPath><clipPath id="clip51"><path d="M1267 295 1326 295 1326 354 1267 354Z" fill-rule="evenodd" clip-rule="evenodd"/></clipPath><clipPath id="clip52"><path d="M1267 385 1326 385 1326 444 1267 444Z" fill-rule="evenodd" clip-rule="evenodd"/></clipPath><clipPath id="clip53"><path d="M1267 385 1326 385 1326 444 1267 444Z" fill-rule="evenodd" clip-rule="evenodd"/></clipPath><clipPath id="clip54"><path d="M1267 385 1326 385 1326 444 1267 444Z" fill-rule="evenodd" clip-rule="evenodd"/></clipPath><clipPath id="clip55"><path d="M1267 474 1326 474 1326 533 1267 533Z" fill-rule="evenodd" clip-rule="evenodd"/></clipPath><clipPath id="clip56"><path d="M1267 474 1326 474 1326 533 1267 533Z" fill-rule="evenodd" clip-rule="evenodd"/></clipPath><clipPath id="clip57"><path d="M1267 474 1326 474 1326 533 1267 533Z" fill-rule="evenodd" clip-rule="evenodd"/></clipPath><clipPath id="clip58"><path d="M1267 646 1326 646 1326 705 1267 705Z" fill-rule="evenodd" clip-rule="evenodd"/></clipPath><clipPath id="clip59"><path d="M1267 646 1326 646 1326 705 1267 705Z" fill-rule="evenodd" clip-rule="evenodd"/></clipPath><clipPath id="clip60"><path d="M1267 646 1326 646 1326 705 1267 705Z" fill-rule="evenodd" clip-rule="evenodd"/></clipPath><clipPath id="clip61"><path d="M947 126 994 126 994 173 947 173Z" fill-rule="evenodd" clip-rule="evenodd"/></clipPath><clipPath id="clip62"><path d="M947 126 994 126 994 173 947 173Z" fill-rule="evenodd" clip-rule="evenodd"/></clipPath><clipPath id="clip63"><path d="M947 126 994 126 994 173 947 173Z" fill-rule="evenodd" clip-rule="evenodd"/></clipPath><clipPath id="clip64"><path d="M947 208 994 208 994 256 947 256Z" fill-rule="evenodd" clip-rule="evenodd"/></clipPath><clipPath id="clip65"><path d="M947 208 994 208 994 256 947 256Z" fill-rule="evenodd" clip-rule="evenodd"/></clipPath><clipPath id="clip66"><path d="M947 208 994 208 994 256 947 256Z" fill-rule="evenodd" clip-rule="evenodd"/></clipPath><clipPath id="clip67"><path d="M947 300 994 300 994 347 947 347Z" fill-rule="evenodd" clip-rule="evenodd"/></clipPath><clipPath id="clip68"><path d="M947 300 994 300 994 347 947 347Z" fill-rule="evenodd" clip-rule="evenodd"/></clipPath><clipPath id="clip69"><path d="M947 300 994 300 994 347 947 347Z" fill-rule="evenodd" clip-rule="evenodd"/></clipPath><clipPath id="clip70"><path d="M947 563 994 563 994 610 947 610Z" fill-rule="evenodd" clip-rule="evenodd"/></clipPath><clipPath id="clip71"><path d="M947 563 994 563 994 610 947 610Z" fill-rule="evenodd" clip-rule="evenodd"/></clipPath><clipPath id="clip72"><path d="M947 563 994 563 994 610 947 610Z" fill-rule="evenodd" clip-rule="evenodd"/></clipPath><clipPath id="clip73"><path d="M947 652 994 652 994 699 947 699Z" fill-rule="evenodd" clip-rule="evenodd"/></clipPath><clipPath id="clip74"><path d="M947 652 994 652 994 699 947 699Z" fill-rule="evenodd" clip-rule="evenodd"/></clipPath><clipPath id="clip75"><path d="M947 652 994 652 994 699 947 699Z" fill-rule="evenodd" clip-rule="evenodd"/></clipPath><clipPath id="clip76"><path d="M947 752 994 752 994 799 947 799Z" fill-rule="evenodd" clip-rule="evenodd"/></clipPath><clipPath id="clip77"><path d="M947 752 994 752 994 799 947 799Z" fill-rule="evenodd" clip-rule="evenodd"/></clipPath><clipPath id="clip78"><path d="M947 752 994 752 994 799 947 799Z" fill-rule="evenodd" clip-rule="evenodd"/></clipPath><clipPath id="clip79"><path d="M947 1012 994 1012 994 1059 947 1059Z" fill-rule="evenodd" clip-rule="evenodd"/></clipPath><clipPath id="clip80"><path d="M947 1012 994 1012 994 1059 947 1059Z" fill-rule="evenodd" clip-rule="evenodd"/></clipPath><clipPath id="clip81"><path d="M947 1012 994 1012 994 1059 947 1059Z" fill-rule="evenodd" clip-rule="evenodd"/></clipPath><clipPath id="clip82"><path d="M947 1105 994 1105 994 1152 947 1152Z" fill-rule="evenodd" clip-rule="evenodd"/></clipPath><clipPath id="clip83"><path d="M947 1105 994 1105 994 1152 947 1152Z" fill-rule="evenodd" clip-rule="evenodd"/></clipPath><clipPath id="clip84"><path d="M947 1105 994 1105 994 1152 947 1152Z" fill-rule="evenodd" clip-rule="evenodd"/></clipPath><clipPath id="clip85"><path d="M621 752 668 752 668 799 621 799Z" fill-rule="evenodd" clip-rule="evenodd"/></clipPath><clipPath id="clip86"><path d="M621 752 668 752 668 799 621 799Z" fill-rule="evenodd" clip-rule="evenodd"/></clipPath><clipPath id="clip87"><path d="M621 752 668 752 668 799 621 799Z" fill-rule="evenodd" clip-rule="evenodd"/></clipPath><clipPath id="clip88"><path d="M1273 752 1320 752 1320 799 1273 799Z" fill-rule="evenodd" clip-rule="evenodd"/></clipPath><clipPath id="clip89"><path d="M1273 752 1320 752 1320 799 1273 799Z" fill-rule="evenodd" clip-rule="evenodd"/></clipPath><clipPath id="clip90"><path d="M1273 752 1320 752 1320 799 1273 799Z" fill-rule="evenodd" clip-rule="evenodd"/></clipPath><clipPath id="clip91"><path d="M621 1101 668 1101 668 1149 621 1149Z" fill-rule="evenodd" clip-rule="evenodd"/></clipPath><clipPath id="clip92"><path d="M621 1101 668 1101 668 1149 621 1149Z" fill-rule="evenodd" clip-rule="evenodd"/></clipPath><clipPath id="clip93"><path d="M621 1101 668 1101 668 1149 621 1149Z" fill-rule="evenodd" clip-rule="evenodd"/></clipPath><clipPath id="clip94"><path d="M1272 839 1320 839 1320 886 1272 886Z" fill-rule="evenodd" clip-rule="evenodd"/></clipPath><clipPath id="clip95"><path d="M1272 839 1320 839 1320 886 1272 886Z" fill-rule="evenodd" clip-rule="evenodd"/></clipPath><clipPath id="clip96"><path d="M1272 839 1320 839 1320 886 1272 886Z" fill-rule="evenodd" clip-rule="evenodd"/></clipPath><clipPath id="clip97"><path d="M1272 922 1320 922 1320 969 1272 969Z" fill-rule="evenodd" clip-rule="evenodd"/></clipPath><clipPath id="clip98"><path d="M1272 922 1320 922 1320 969 1272 969Z" fill-rule="evenodd" clip-rule="evenodd"/></clipPath><clipPath id="clip99"><path d="M1272 922 1320 922 1320 969 1272 969Z" fill-rule="evenodd" clip-rule="evenodd"/></clipPath><clipPath id="clip100"><path d="M1273 1008 1320 1008 1320 1055 1273 1055Z" fill-rule="evenodd" clip-rule="evenodd"/></clipPath><clipPath id="clip101"><path d="M1273 1008 1320 1008 1320 1055 1273 1055Z" fill-rule="evenodd" clip-rule="evenodd"/></clipPath><clipPath id="clip102"><path d="M1273 1008 1320 1008 1320 1055 1273 1055Z" fill-rule="evenodd" clip-rule="evenodd"/></clipPath><clipPath id="clip103"><path d="M1272 1101 1320 1101 1320 1148 1272 1148Z" fill-rule="evenodd" clip-rule="evenodd"/></clipPath><clipPath id="clip104"><path d="M1272 1101 1320 1101 1320 1148 1272 1148Z" fill-rule="evenodd" clip-rule="evenodd"/></clipPath><clipPath id="clip105"><path d="M1272 1101 1320 1101 1320 1148 1272 1148Z" fill-rule="evenodd" clip-rule="evenodd"/></clipPath><clipPath id="clip106"><path d="M1267 563 1314 563 1314 610 1267 610Z" fill-rule="evenodd" clip-rule="evenodd"/></clipPath><clipPath id="clip107"><path d="M1267 563 1314 563 1314 610 1267 610Z" fill-rule="evenodd" clip-rule="evenodd"/></clipPath><clipPath id="clip108"><path d="M1267 563 1314 563 1314 610 1267 610Z" fill-rule="evenodd" clip-rule="evenodd"/></clipPath><clipPath id="clip109"><path d="M1591 561 1639 561 1639 609 1591 609Z" fill-rule="evenodd" clip-rule="evenodd"/></clipPath><clipPath id="clip110"><path d="M1591 561 1639 561 1639 609 1591 609Z" fill-rule="evenodd" clip-rule="evenodd"/></clipPath><clipPath id="clip111"><path d="M1591 561 1639 561 1639 609 1591 609Z" fill-rule="evenodd" clip-rule="evenodd"/></clipPath><clipPath id="clip112"><path d="M1592 842 1640 842 1640 889 1592 889Z" fill-rule="evenodd" clip-rule="evenodd"/></clipPath><clipPath id="clip113"><path d="M1592 842 1640 842 1640 889 1592 889Z" fill-rule="evenodd" clip-rule="evenodd"/></clipPath><clipPath id="clip114"><path d="M1592 842 1640 842 1640 889 1592 889Z" fill-rule="evenodd" clip-rule="evenodd"/></clipPath><clipPath id="clip115"><path d="M942 470 1001 470 1001 529 942 529Z" fill-rule="evenodd" clip-rule="evenodd"/></clipPath><clipPath id="clip116"><path d="M942 470 1001 470 1001 529 942 529Z" fill-rule="evenodd" clip-rule="evenodd"/></clipPath><clipPath id="clip117"><path d="M942 470 1001 470 1001 529 942 529Z" fill-rule="evenodd" clip-rule="evenodd"/></clipPath><clipPath id="clip118"><path d="M1009 464 1033 464 1033 488 1009 488Z" fill-rule="evenodd" clip-rule="evenodd"/></clipPath><clipPath id="clip119"><path d="M1009 464 1033 464 1033 488 1009 488Z" fill-rule="evenodd" clip-rule="evenodd"/></clipPath><clipPath id="clip120"><path d="M1009 464 1033 464 1033 488 1009 488Z" fill-rule="evenodd" clip-rule="evenodd"/></clipPath><clipPath id="clip121"><path d="M941 385 1000 385 1000 444 941 444Z" fill-rule="evenodd" clip-rule="evenodd"/></clipPath><clipPath id="clip122"><path d="M941 385 1000 385 1000 444 941 444Z" fill-rule="evenodd" clip-rule="evenodd"/></clipPath><clipPath id="clip123"><path d="M941 385 1000 385 1000 444 941 444Z" fill-rule="evenodd" clip-rule="evenodd"/></clipPath><clipPath id="clip124"><path d="M1008 379 1032 379 1032 403 1008 403Z" fill-rule="evenodd" clip-rule="evenodd"/></clipPath><clipPath id="clip125"><path d="M1008 379 1032 379 1032 403 1008 403Z" fill-rule="evenodd" clip-rule="evenodd"/></clipPath><clipPath id="clip126"><path d="M1008 379 1032 379 1032 403 1008 403Z" fill-rule="evenodd" clip-rule="evenodd"/></clipPath><clipPath id="clip127"><path d="M942 835 1001 835 1001 894 942 894Z" fill-rule="evenodd" clip-rule="evenodd"/></clipPath><clipPath id="clip128"><path d="M942 835 1001 835 1001 894 942 894Z" fill-rule="evenodd" clip-rule="evenodd"/></clipPath><clipPath id="clip129"><path d="M942 835 1001 835 1001 894 942 894Z" fill-rule="evenodd" clip-rule="evenodd"/></clipPath><clipPath id="clip130"><path d="M1009 829 1033 829 1033 853 1009 853Z" fill-rule="evenodd" clip-rule="evenodd"/></clipPath><clipPath id="clip131"><path d="M1009 829 1033 829 1033 853 1009 853Z" fill-rule="evenodd" clip-rule="evenodd"/></clipPath><clipPath id="clip132"><path d="M1009 829 1033 829 1033 853 1009 853Z" fill-rule="evenodd" clip-rule="evenodd"/></clipPath><clipPath id="clip133"><path d="M944 919 1003 919 1003 978 944 978Z" fill-rule="evenodd" clip-rule="evenodd"/></clipPath><clipPath id="clip134"><path d="M944 919 1003 919 1003 978 944 978Z" fill-rule="evenodd" clip-rule="evenodd"/></clipPath><clipPath id="clip135"><path d="M944 919 1003 919 1003 978 944 978Z" fill-rule="evenodd" clip-rule="evenodd"/></clipPath><clipPath id="clip136"><path d="M1011 913 1035 913 1035 937 1011 937Z" fill-rule="evenodd" clip-rule="evenodd"/></clipPath><clipPath id="clip137"><path d="M1011 913 1035 913 1035 937 1011 937Z" fill-rule="evenodd" clip-rule="evenodd"/></clipPath><clipPath id="clip138"><path d="M1011 913 1035 913 1035 937 1011 937Z" fill-rule="evenodd" clip-rule="evenodd"/></clipPath></defs><g clip-path="url(#clip0)" transform="translate(-153 37)"><path d="M486.178-35.4452 486.178 1176.76" stroke="#000000" stroke-width="2.08333" stroke-linejoin="round" stroke-miterlimit="10" fill="none" fill-rule="evenodd"/><path d="M809.914-35.4452 809.914 1176.76" stroke="#000000" stroke-width="2.08333" stroke-linejoin="round" stroke-miterlimit="10" fill="none" fill-rule="evenodd"/><path d="M1133.65-35.4452 1133.65 1176.76" stroke="#000000" stroke-width="2.08333" stroke-linejoin="round" stroke-miterlimit="10" fill="none" fill-rule="evenodd"/><path d="M1457.39-35.4452 1457.39 1176.76" stroke="#000000" stroke-width="2.08333" stroke-linejoin="round" stroke-miterlimit="10" fill="none" fill-rule="evenodd"/><path d="M153.821 106.75 1782.17 106.75" stroke="#000000" stroke-width="2.08333" stroke-linejoin="round" stroke-miterlimit="10" fill="none" fill-rule="evenodd"/><path d="M153.821 191.481 1782.17 191.481" stroke="#000000" stroke-width="2.08333" stroke-linejoin="round" stroke-miterlimit="10" fill="none" fill-rule="evenodd"/><path d="M153.821 276.211 1782.17 276.211" stroke="#000000" stroke-width="2.08333" stroke-linejoin="round" stroke-miterlimit="10" fill="none" fill-rule="evenodd"/><path d="M153.821 373.991 1782.17 373.991" stroke="#000000" stroke-width="2.08333" stroke-linejoin="round" stroke-miterlimit="10" fill="none" fill-rule="evenodd"/><path d="M153.821 458.722 1782.17 458.722" stroke="#000000" stroke-width="2.08333" stroke-linejoin="round" stroke-miterlimit="10" fill="none" fill-rule="evenodd"/><path d="M153.821 543.452 1782.17 543.452" stroke="#000000" stroke-width="2.08333" stroke-linejoin="round" stroke-miterlimit="10" fill="none" fill-rule="evenodd"/><path d="M153.821 628.183 1782.17 628.183" stroke="#000000" stroke-width="2.08333" stroke-linejoin="round" stroke-miterlimit="10" fill="none" fill-rule="evenodd"/><path d="M153.821 725.963 1782.17 725.963" stroke="#000000" stroke-width="2.08333" stroke-linejoin="round" stroke-miterlimit="10" fill="none" fill-rule="evenodd"/><path d="M153.821 823.743 1782.17 823.743" stroke="#000000" stroke-width="2.08333" stroke-linejoin="round" stroke-miterlimit="10" fill="none" fill-rule="evenodd"/><path d="M153.821 908.473 1782.17 908.473" stroke="#000000" stroke-width="2.08333" stroke-linejoin="round" stroke-miterlimit="10" fill="none" fill-rule="evenodd"/><path d="M153.821 993.204 1782.17 993.204" stroke="#000000" stroke-width="2.08333" stroke-linejoin="round" stroke-miterlimit="10" fill="none" fill-rule="evenodd"/><path d="M153.821 1077.93 1782.17 1077.93" stroke="#000000" stroke-width="2.08333" stroke-linejoin="round" stroke-miterlimit="10" fill="none" fill-rule="evenodd"/><path d="M154.863-35.4452 154.863 1176.76" stroke="#000000" stroke-width="2.08333" stroke-linejoin="round" stroke-miterlimit="10" fill="none" fill-rule="evenodd"/><path d="M1781.12-35.4452 1781.12 1176.76" stroke="#000000" stroke-width="2.08333" stroke-linejoin="round" stroke-miterlimit="10" fill="none" fill-rule="evenodd"/><path d="M153.821-34.4035 1782.17-34.4035" stroke="#000000" stroke-width="2.08333" stroke-linejoin="round" stroke-miterlimit="10" fill="none" fill-rule="evenodd"/><path d="M153.821 1175.71 1782.17 1175.71" stroke="#000000" stroke-width="2.08333" stroke-linejoin="round" stroke-miterlimit="10" fill="none" fill-rule="evenodd"/><text fill="#3E4043" font-family="Lato,Lato_MSFontService,sans-serif" font-weight="400" font-size="29" transform="translate(591.411 30)">Provide <tspan x="-30.6041" y="35">instructions</tspan><tspan x="255.762" y="0">Have options for </tspan><tspan x="261.492" y="35">different spaces</tspan><tspan x="571.556" y="18">Schedule workout</tspan><tspan x="890.996" y="18">Provide Incentives</tspan></text><g clip-path="url(#clip1)"><text fill="#3E4043" font-family="Lato,Lato_MSFontService,sans-serif" font-weight="400" font-size="29" transform="translate(169.863 161)">Nike Training Club</text></g><text fill="#3E4043" font-family="Lato,Lato_MSFontService,sans-serif" font-weight="400" font-size="29" transform="translate(1495.04 161)">Support network</text><g clip-path="url(#clip2)"><text fill="#3E4043" font-family="Lato,Lato_MSFontService,sans-serif" font-weight="400" font-size="29" transform="translate(169.863 245)">8Fit</text></g><text fill="#3E4043" font-family="Lato,Lato_MSFontService,sans-serif" font-weight="400" font-size="29" transform="translate(1571.86 245)">Award</text><g clip-path="url(#clip3)"><text fill="#3E4043" font-family="Lato,Lato_MSFontService,sans-serif" font-weight="400" font-size="29" transform="translate(169.863 337)">Tone &amp; Sculpt</text></g><text fill="#3E4043" font-family="Lato,Lato_MSFontService,sans-serif" font-weight="400" font-size="29" transform="translate(1495.04 319)">Support network<tspan x="76.823" y="35">Award</tspan></text><g clip-path="url(#clip4)"><text fill="#3E4043" font-family="Lato,Lato_MSFontService,sans-serif" font-weight="400" font-size="29" transform="translate(169.863 428)">Peloton</text></g><text fill="#3E4043" font-family="Lato,Lato_MSFontService,sans-serif" font-weight="400" font-size="29" transform="translate(1495.04 428)">Support network</text><g clip-path="url(#clip5)"><text fill="#3E4043" font-family="Lato,Lato_MSFontService,sans-serif" font-weight="400" font-size="29" transform="translate(169.863 513)">ClassPass</text></g><text fill="#3E4043" font-family="Lato,Lato_MSFontService,sans-serif" font-weight="400" font-size="29" transform="translate(1495.04 513)">Support network</text><g clip-path="url(#clip6)"><text fill="#3E4043" font-family="Lato,Lato_MSFontService,sans-serif" font-weight="400" font-size="29" transform="translate(169.863 597)">Strong</text></g><g clip-path="url(#clip7)"><text fill="#3E4043" font-family="Lato,Lato_MSFontService,sans-serif" font-weight="400" font-size="29" transform="translate(169.863 689)">Yoga International</text></g><text fill="#3E4043" font-family="Lato,Lato_MSFontService,sans-serif" font-weight="400" font-size="29" transform="translate(1495.04 671)">Support network<tspan x="45.573" y="35">Certificate</tspan></text><g clip-path="url(#clip8)"><text fill="#3E4043" font-family="Lato,Lato_MSFontService,sans-serif" font-weight="400" font-size="29" transform="translate(169.863 786)">Charity Miles</text></g><text fill="#3E4043" font-family="Lato,Lato_MSFontService,sans-serif" font-weight="400" font-size="29" transform="translate(1495.04 769)">Support network<tspan x="76.823" y="35">Award</tspan></text><g clip-path="url(#clip9)"><text fill="#3E4043" font-family="Lato,Lato_MSFontService,sans-serif" font-weight="400" font-size="29" transform="translate(169.863 878)">Youtube</text></g><g clip-path="url(#clip10)"><text fill="#3E4043" font-family="Lato,Lato_MSFontService,sans-serif" font-weight="400" font-size="29" transform="translate(169.863 962)">Instagram</text></g><text fill="#3E4043" font-family="Lato,Lato_MSFontService,sans-serif" font-weight="400" font-size="29" transform="translate(1495.04 962)">Support network</text><g clip-path="url(#clip11)"><text fill="#3E4043" font-family="Lato,Lato_MSFontService,sans-serif" font-weight="400" font-size="29" transform="translate(169.863 1047)">Ring Fit</text></g><text fill="#3E4043" font-family="Lato,Lato_MSFontService,sans-serif" font-weight="400" font-size="29" transform="translate(1571.86 1047)">Award</text><g clip-path="url(#clip12)"><text fill="#3E4043" font-family="Lato,Lato_MSFontService,sans-serif" font-weight="400" font-size="29" transform="translate(169.863 1138)">Smart Rope</text></g><text fill="#3E4043" font-family="Lato,Lato_MSFontService,sans-serif" font-weight="400" font-size="29" transform="translate(1495.04 1121)">Support network<tspan x="76.823" y="35">Award</tspan></text><g clip-path="url(#clip13)"><g clip-path="url(#clip14)"><g clip-path="url(#clip15)"><path d="M673.136 128.7C671.984 127.548 670.116 127.548 668.964 128.7L633.621 164.043 620.036 150.458C618.884 149.306 617.016 149.306 615.864 150.458 614.712 151.61 614.712 153.477 615.864 154.63L631.535 170.301C632.687 171.452 634.556 171.452 635.707 170.301L673.136 132.872C674.288 131.72 674.288 129.852 673.136 128.7Z" fill="#06CAA6"/></g></g></g><g clip-path="url(#clip16)"><g clip-path="url(#clip17)"><g clip-path="url(#clip18)"><path d="M673.136 211.7C671.984 210.548 670.116 210.548 668.964 211.7L633.621 247.043 620.036 233.458C618.884 232.306 617.016 232.306 615.864 233.458 614.712 234.61 614.712 236.477 615.864 237.63L631.535 253.301C632.687 254.452 634.556 254.452 635.707 253.301L673.136 215.872C674.288 214.72 674.288 212.852 673.136 211.7Z" fill="#06CAA6"/></g></g></g><g clip-path="url(#clip19)"><g clip-path="url(#clip20)"><g clip-path="url(#clip21)"><path d="M673.136 303.7C671.984 302.548 670.116 302.548 668.964 303.7L633.621 339.043 620.036 325.458C618.884 324.306 617.016 324.306 615.864 325.458 614.712 326.61 614.712 328.477 615.864 329.63L631.535 345.301C632.687 346.452 634.556 346.452 635.707 345.301L673.136 307.872C674.288 306.72 674.288 304.852 673.136 303.7Z" fill="#06CAA6"/></g></g></g><g clip-path="url(#clip22)"><g clip-path="url(#clip23)"><g clip-path="url(#clip24)"><path d="M673.136 394.7C671.984 393.548 670.116 393.548 668.964 394.7L633.621 430.043 620.036 416.458C618.884 415.306 617.016 415.306 615.864 416.458 614.712 417.61 614.712 419.477 615.864 420.63L631.535 436.301C632.687 437.452 634.556 437.452 635.707 436.301L673.136 398.872C674.288 397.72 674.288 395.852 673.136 394.7Z" fill="#06CAA6"/></g></g></g><g clip-path="url(#clip25)"><g clip-path="url(#clip26)"><g clip-path="url(#clip27)"><path d="M673.136 482.7C671.984 481.548 670.116 481.548 668.964 482.7L633.621 518.043 620.036 504.458C618.884 503.306 617.016 503.306 615.864 504.458 614.712 505.61 614.712 507.477 615.864 508.63L631.535 524.3C632.687 525.453 634.556 525.452 635.707 524.3L673.136 486.872C674.288 485.72 674.288 483.852 673.136 482.7Z" fill="#06CAA6"/></g></g></g><g clip-path="url(#clip28)"><g clip-path="url(#clip29)"><g clip-path="url(#clip30)"><path d="M673.136 564.7C671.984 563.548 670.116 563.548 668.964 564.7L633.621 600.043 620.036 586.458C618.884 585.306 617.016 585.306 615.864 586.458 614.712 587.61 614.712 589.477 615.864 590.63L631.535 606.3C632.687 607.453 634.556 607.452 635.707 606.3L673.136 568.872C674.288 567.72 674.288 565.852 673.136 564.7Z" fill="#06CAA6"/></g></g></g><g clip-path="url(#clip31)"><g clip-path="url(#clip32)"><g clip-path="url(#clip33)"><path d="M673.136 654.7C671.984 653.548 670.116 653.548 668.964 654.7L633.621 690.043 620.036 676.458C618.884 675.306 617.016 675.306 615.864 676.458 614.712 677.61 614.712 679.477 615.864 680.63L631.535 696.3C632.687 697.453 634.556 697.452 635.707 696.3L673.136 658.872C674.288 657.72 674.288 655.852 673.136 654.7Z" fill="#06CAA6"/></g></g></g><g clip-path="url(#clip34)"><g clip-path="url(#clip35)"><g clip-path="url(#clip36)"><path d="M673.136 844.7C671.984 843.548 670.116 843.548 668.964 844.7L633.621 880.043 620.036 866.458C618.884 865.306 617.016 865.306 615.864 866.458 614.712 867.61 614.712 869.477 615.864 870.63L631.535 886.3C632.687 887.453 634.556 887.452 635.707 886.3L673.136 848.872C674.288 847.72 674.288 845.852 673.136 844.7Z" fill="#06CAA6"/></g></g></g><g clip-path="url(#clip37)"><g clip-path="url(#clip38)"><g clip-path="url(#clip39)"><path d="M673.136 927.7C671.984 926.548 670.116 926.548 668.964 927.7L633.621 963.043 620.036 949.458C618.884 948.306 617.016 948.306 615.864 949.458 614.712 950.61 614.712 952.477 615.864 953.63L631.535 969.3C632.687 970.453 634.556 970.452 635.707 969.3L673.136 931.872C674.288 930.72 674.288 928.852 673.136 927.7Z" fill="#06CAA6"/></g></g></g><g clip-path="url(#clip40)"><g clip-path="url(#clip41)"><g clip-path="url(#clip42)"><path d="M673.136 1010.7C671.984 1009.55 670.116 1009.55 668.964 1010.7L633.621 1046.04 620.036 1032.46C618.884 1031.31 617.016 1031.31 615.864 1032.46 614.712 1033.61 614.712 1035.48 615.864 1036.63L631.535 1052.3C632.687 1053.45 634.556 1053.45 635.707 1052.3L673.136 1014.87C674.288 1013.72 674.288 1011.85 673.136 1010.7Z" fill="#06CAA6"/></g></g></g><g clip-path="url(#clip43)"><g clip-path="url(#clip44)"><g clip-path="url(#clip45)"><path d="M1325.14 128.7C1323.98 127.548 1322.12 127.548 1320.96 128.7L1285.62 164.043 1272.04 150.458C1270.88 149.306 1269.02 149.306 1267.86 150.458 1266.71 151.61 1266.71 153.477 1267.86 154.63L1283.54 170.301C1284.69 171.452 1286.56 171.452 1287.71 170.301L1325.14 132.872C1326.29 131.72 1326.29 129.852 1325.14 128.7Z" fill="#06CAA6"/></g></g></g><g clip-path="url(#clip46)"><g clip-path="url(#clip47)"><g clip-path="url(#clip48)"><path d="M1325.14 211.7C1323.98 210.548 1322.12 210.548 1320.96 211.7L1285.62 247.043 1272.04 233.458C1270.88 232.306 1269.02 232.306 1267.86 233.458 1266.71 234.61 1266.71 236.477 1267.86 237.63L1283.54 253.301C1284.69 254.452 1286.56 254.452 1287.71 253.301L1325.14 215.872C1326.29 214.72 1326.29 212.852 1325.14 211.7Z" fill="#06CAA6"/></g></g></g><g clip-path="url(#clip49)"><g clip-path="url(#clip50)"><g clip-path="url(#clip51)"><path d="M1325.14 303.7C1323.98 302.548 1322.12 302.548 1320.96 303.7L1285.62 339.043 1272.04 325.458C1270.88 324.306 1269.02 324.306 1267.86 325.458 1266.71 326.61 1266.71 328.477 1267.86 329.63L1283.54 345.301C1284.69 346.452 1286.56 346.452 1287.71 345.301L1325.14 307.872C1326.29 306.72 1326.29 304.852 1325.14 303.7Z" fill="#06CAA6"/></g></g></g><g clip-path="url(#clip52)"><g clip-path="url(#clip53)"><g clip-path="url(#clip54)"><path d="M1325.14 393.7C1323.98 392.548 1322.12 392.548 1320.96 393.7L1285.62 429.043 1272.04 415.458C1270.88 414.306 1269.02 414.306 1267.86 415.458 1266.71 416.61 1266.71 418.477 1267.86 419.63L1283.54 435.301C1284.69 436.452 1286.56 436.452 1287.71 435.301L1325.14 397.872C1326.29 396.72 1326.29 394.852 1325.14 393.7Z" fill="#06CAA6"/></g></g></g><g clip-path="url(#clip55)"><g clip-path="url(#clip56)"><g clip-path="url(#clip57)"><path d="M1325.14 482.7C1323.98 481.548 1322.12 481.548 1320.96 482.7L1285.62 518.043 1272.04 504.458C1270.88 503.306 1269.02 503.306 1267.86 504.458 1266.71 505.61 1266.71 507.477 1267.86 508.63L1283.54 524.3C1284.69 525.453 1286.56 525.452 1287.71 524.3L1325.14 486.872C1326.29 485.72 1326.29 483.852 1325.14 482.7Z" fill="#06CAA6"/></g></g></g><g clip-path="url(#clip58)"><g clip-path="url(#clip59)"><g clip-path="url(#clip60)"><path d="M1325.14 654.7C1323.98 653.548 1322.12 653.548 1320.96 654.7L1285.62 690.043 1272.04 676.458C1270.88 675.306 1269.02 675.306 1267.86 676.458 1266.71 677.61 1266.71 679.477 1267.86 680.63L1283.54 696.3C1284.69 697.453 1286.56 697.452 1287.71 696.3L1325.14 658.872C1326.29 657.72 1326.29 655.852 1325.14 654.7Z" fill="#06CAA6"/></g></g></g><g clip-path="url(#clip61)"><g clip-path="url(#clip62)"><g clip-path="url(#clip63)"><path d="M973.998 149.5 993.276 130.223C994.242 129.257 994.242 127.691 993.276 126.725 992.309 125.759 990.743 125.759 989.777 126.725L970.5 146.002 951.223 126.725C950.257 125.759 948.691 125.759 947.725 126.725 946.759 127.691 946.758 129.257 947.725 130.223L967.002 149.5 947.725 168.777C946.758 169.743 946.758 171.309 947.725 172.275 948.691 173.242 950.257 173.241 951.223 172.275L970.5 152.998 989.777 172.275C990.743 173.242 992.309 173.241 993.275 172.275 994.241 171.309 994.241 169.743 993.275 168.777L973.998 149.5Z"/></g></g></g><g clip-path="url(#clip64)"><g clip-path="url(#clip65)"><g clip-path="url(#clip66)"><path d="M26.9984 23.5 46.2755 4.22292C47.2415 3.25686 47.2415 1.69062 46.2755 0.724643 45.3095-0.241425 43.7431-0.241425 42.7772 0.724643L23.5 20.0018 4.22283 0.724643C3.25676-0.241425 1.69053-0.241425 0.724551 0.724643-0.241425 1.69071-0.241517 3.25695 0.724551 4.22292L20.0017 23.5 0.724551 42.7772C-0.241517 43.7432-0.241517 45.3095 0.724551 46.2754 1.69062 47.2415 3.25686 47.2414 4.22283 46.2754L23.5 26.9983 42.777 46.2754C43.7431 47.2415 45.3094 47.2414 46.2754 46.2754 47.2413 45.3094 47.2413 43.7431 46.2754 42.7772L26.9984 23.5Z" transform="matrix(1 0 -0 1.02128 947 208)"/></g></g></g><g clip-path="url(#clip67)"><g clip-path="url(#clip68)"><g clip-path="url(#clip69)"><path d="M973.998 323.5 993.276 304.223C994.242 303.257 994.242 301.691 993.276 300.725 992.309 299.759 990.743 299.759 989.777 300.725L970.5 320.002 951.223 300.725C950.257 299.759 948.691 299.759 947.725 300.725 946.759 301.691 946.758 303.257 947.725 304.223L967.002 323.5 947.725 342.777C946.758 343.743 946.758 345.309 947.725 346.275 948.691 347.242 950.257 347.241 951.223 346.275L970.5 326.998 989.777 346.275C990.743 347.242 992.309 347.241 993.275 346.275 994.241 345.309 994.241 343.743 993.275 342.777L973.998 323.5Z"/></g></g></g><g clip-path="url(#clip70)"><g clip-path="url(#clip71)"><g clip-path="url(#clip72)"><path d="M973.998 586.5 993.276 567.223C994.242 566.257 994.242 564.691 993.276 563.725 992.309 562.759 990.743 562.759 989.777 563.725L970.5 583.002 951.223 563.725C950.257 562.759 948.691 562.759 947.725 563.725 946.759 564.691 946.758 566.257 947.725 567.223L967.002 586.5 947.725 605.777C946.758 606.743 946.758 608.309 947.725 609.275 948.691 610.242 950.257 610.241 951.223 609.275L970.5 589.998 989.777 609.275C990.743 610.242 992.309 610.241 993.275 609.275 994.241 608.309 994.241 606.743 993.275 605.777L973.998 586.5Z"/></g></g></g><g clip-path="url(#clip73)"><g clip-path="url(#clip74)"><g clip-path="url(#clip75)"><path d="M973.998 675.5 993.276 656.223C994.242 655.257 994.242 653.691 993.276 652.725 992.309 651.759 990.743 651.759 989.777 652.725L970.5 672.002 951.223 652.725C950.257 651.759 948.691 651.759 947.725 652.725 946.759 653.691 946.758 655.257 947.725 656.223L967.002 675.5 947.725 694.777C946.758 695.743 946.758 697.309 947.725 698.275 948.691 699.242 950.257 699.241 951.223 698.275L970.5 678.998 989.777 698.275C990.743 699.242 992.309 699.241 993.275 698.275 994.241 697.309 994.241 695.743 993.275 694.777L973.998 675.5Z"/></g></g></g><g clip-path="url(#clip76)"><g clip-path="url(#clip77)"><g clip-path="url(#clip78)"><path d="M973.998 775.5 993.276 756.223C994.242 755.257 994.242 753.691 993.276 752.725 992.309 751.759 990.743 751.759 989.777 752.725L970.5 772.002 951.223 752.725C950.257 751.759 948.691 751.759 947.725 752.725 946.759 753.691 946.758 755.257 947.725 756.223L967.002 775.5 947.725 794.777C946.758 795.743 946.758 797.309 947.725 798.275 948.691 799.242 950.257 799.241 951.223 798.275L970.5 778.998 989.777 798.275C990.743 799.242 992.309 799.241 993.275 798.275 994.241 797.309 994.241 795.743 993.275 794.777L973.998 775.5Z"/></g></g></g><g clip-path="url(#clip79)"><g clip-path="url(#clip80)"><g clip-path="url(#clip81)"><path d="M973.998 1035.5 993.276 1016.22C994.242 1015.26 994.242 1013.69 993.276 1012.72 992.309 1011.76 990.743 1011.76 989.777 1012.72L970.5 1032 951.223 1012.72C950.257 1011.76 948.691 1011.76 947.725 1012.72 946.759 1013.69 946.758 1015.26 947.725 1016.22L967.002 1035.5 947.725 1054.78C946.758 1055.74 946.758 1057.31 947.725 1058.28 948.691 1059.24 950.257 1059.24 951.223 1058.28L970.5 1039 989.777 1058.28C990.743 1059.24 992.309 1059.24 993.275 1058.28 994.241 1057.31 994.241 1055.74 993.275 1054.78L973.998 1035.5Z"/></g></g></g><g clip-path="url(#clip82)"><g clip-path="url(#clip83)"><g clip-path="url(#clip84)"><path d="M973.998 1128.5 993.276 1109.22C994.242 1108.26 994.242 1106.69 993.276 1105.72 992.309 1104.76 990.743 1104.76 989.777 1105.72L970.5 1125 951.223 1105.72C950.257 1104.76 948.691 1104.76 947.725 1105.72 946.759 1106.69 946.758 1108.26 947.725 1109.22L967.002 1128.5 947.725 1147.78C946.758 1148.74 946.758 1150.31 947.725 1151.28 948.691 1152.24 950.257 1152.24 951.223 1151.28L970.5 1132 989.777 1151.28C990.743 1152.24 992.309 1152.24 993.275 1151.28 994.241 1150.31 994.241 1148.74 993.275 1147.78L973.998 1128.5Z"/></g></g></g><g clip-path="url(#clip85)"><g clip-path="url(#clip86)"><g clip-path="url(#clip87)"><path d="M647.998 775.5 667.276 756.223C668.242 755.257 668.242 753.691 667.276 752.725 666.309 751.759 664.743 751.759 663.777 752.725L644.5 772.002 625.223 752.725C624.257 751.759 622.691 751.759 621.725 752.725 620.759 753.691 620.758 755.257 621.725 756.223L641.002 775.5 621.725 794.777C620.758 795.743 620.758 797.309 621.725 798.275 622.691 799.242 624.257 799.241 625.223 798.275L644.5 778.998 663.777 798.275C664.743 799.242 666.309 799.241 667.275 798.275 668.241 797.309 668.241 795.743 667.275 794.777L647.998 775.5Z"/></g></g></g><g clip-path="url(#clip88)"><g clip-path="url(#clip89)"><g clip-path="url(#clip90)"><path d="M1300 775.5 1319.28 756.223C1320.24 755.257 1320.24 753.691 1319.28 752.725 1318.31 751.759 1316.74 751.759 1315.78 752.725L1296.5 772.002 1277.22 752.725C1276.26 751.759 1274.69 751.759 1273.72 752.725 1272.76 753.691 1272.76 755.257 1273.72 756.223L1293 775.5 1273.72 794.777C1272.76 795.743 1272.76 797.309 1273.72 798.275 1274.69 799.242 1276.26 799.241 1277.22 798.275L1296.5 778.998 1315.78 798.275C1316.74 799.242 1318.31 799.241 1319.28 798.275 1320.24 797.309 1320.24 795.743 1319.28 794.777L1300 775.5Z"/></g></g></g><g clip-path="url(#clip91)"><g clip-path="url(#clip92)"><g clip-path="url(#clip93)"><path d="M26.9984 23.5 46.2755 4.22292C47.2415 3.25686 47.2415 1.69062 46.2755 0.724643 45.3095-0.241425 43.7431-0.241425 42.7772 0.724643L23.5 20.0018 4.22283 0.724643C3.25676-0.241425 1.69053-0.241425 0.724551 0.724643-0.241425 1.69071-0.241517 3.25695 0.724551 4.22292L20.0017 23.5 0.724551 42.7772C-0.241517 43.7432-0.241517 45.3095 0.724551 46.2754 1.69062 47.2415 3.25686 47.2414 4.22283 46.2754L23.5 26.9983 42.777 46.2754C43.7431 47.2415 45.3094 47.2414 46.2754 46.2754 47.2413 45.3094 47.2413 43.7431 46.2754 42.7772L26.9984 23.5Z" transform="matrix(1 0 -0 1.02128 621 1101)"/></g></g></g><g clip-path="url(#clip94)"><g clip-path="url(#clip95)"><g clip-path="url(#clip96)"><path d="M26.9984 23.5 46.2755 4.22292C47.2415 3.25686 47.2415 1.69062 46.2755 0.724643 45.3095-0.241425 43.7431-0.241425 42.7772 0.724643L23.5 20.0018 4.22283 0.724643C3.25676-0.241425 1.69053-0.241425 0.724551 0.724643-0.241425 1.69071-0.241517 3.25695 0.724551 4.22292L20.0017 23.5 0.724551 42.7772C-0.241517 43.7432-0.241517 45.3095 0.724551 46.2754 1.69062 47.2415 3.25686 47.2414 4.22283 46.2754L23.5 26.9983 42.777 46.2754C43.7431 47.2415 45.3094 47.2414 46.2754 46.2754 47.2413 45.3094 47.2413 43.7431 46.2754 42.7772L26.9984 23.5Z" transform="matrix(1.02128 0 -0 1 1272 839)"/></g></g></g><g clip-path="url(#clip97)"><g clip-path="url(#clip98)"><g clip-path="url(#clip99)"><path d="M26.9984 23.5 46.2755 4.22292C47.2415 3.25686 47.2415 1.69062 46.2755 0.724643 45.3095-0.241425 43.7431-0.241425 42.7772 0.724643L23.5 20.0018 4.22283 0.724643C3.25676-0.241425 1.69053-0.241425 0.724551 0.724643-0.241425 1.69071-0.241517 3.25695 0.724551 4.22292L20.0017 23.5 0.724551 42.7772C-0.241517 43.7432-0.241517 45.3095 0.724551 46.2754 1.69062 47.2415 3.25686 47.2414 4.22283 46.2754L23.5 26.9983 42.777 46.2754C43.7431 47.2415 45.3094 47.2414 46.2754 46.2754 47.2413 45.3094 47.2413 43.7431 46.2754 42.7772L26.9984 23.5Z" transform="matrix(1.02128 0 -0 1 1272 922)"/></g></g></g><g clip-path="url(#clip100)"><g clip-path="url(#clip101)"><g clip-path="url(#clip102)"><path d="M1300 1031.5 1319.28 1012.22C1320.24 1011.26 1320.24 1009.69 1319.28 1008.72 1318.31 1007.76 1316.74 1007.76 1315.78 1008.72L1296.5 1028 1277.22 1008.72C1276.26 1007.76 1274.69 1007.76 1273.72 1008.72 1272.76 1009.69 1272.76 1011.26 1273.72 1012.22L1293 1031.5 1273.72 1050.78C1272.76 1051.74 1272.76 1053.31 1273.72 1054.28 1274.69 1055.24 1276.26 1055.24 1277.22 1054.28L1296.5 1035 1315.78 1054.28C1316.74 1055.24 1318.31 1055.24 1319.28 1054.28 1320.24 1053.31 1320.24 1051.74 1319.28 1050.78L1300 1031.5Z"/></g></g></g><g clip-path="url(#clip103)"><g clip-path="url(#clip104)"><g clip-path="url(#clip105)"><path d="M26.9984 23.5 46.2755 4.22292C47.2415 3.25686 47.2415 1.69062 46.2755 0.724643 45.3095-0.241425 43.7431-0.241425 42.7772 0.724643L23.5 20.0018 4.22283 0.724643C3.25676-0.241425 1.69053-0.241425 0.724551 0.724643-0.241425 1.69071-0.241517 3.25695 0.724551 4.22292L20.0017 23.5 0.724551 42.7772C-0.241517 43.7432-0.241517 45.3095 0.724551 46.2754 1.69062 47.2415 3.25686 47.2414 4.22283 46.2754L23.5 26.9983 42.777 46.2754C43.7431 47.2415 45.3094 47.2414 46.2754 46.2754 47.2413 45.3094 47.2413 43.7431 46.2754 42.7772L26.9984 23.5Z" transform="matrix(1.02128 0 -0 1 1272 1101)"/></g></g></g><g clip-path="url(#clip106)"><g clip-path="url(#clip107)"><g clip-path="url(#clip108)"><path d="M1294 586.5 1313.28 567.223C1314.24 566.257 1314.24 564.691 1313.28 563.725 1312.31 562.759 1310.74 562.759 1309.78 563.725L1290.5 583.002 1271.22 563.725C1270.26 562.759 1268.69 562.759 1267.72 563.725 1266.76 564.691 1266.76 566.257 1267.72 567.223L1287 586.5 1267.72 605.777C1266.76 606.743 1266.76 608.309 1267.72 609.275 1268.69 610.242 1270.26 610.241 1271.22 609.275L1290.5 589.998 1309.78 609.275C1310.74 610.242 1312.31 610.241 1313.28 609.275 1314.24 608.309 1314.24 606.743 1313.28 605.777L1294 586.5Z"/></g></g></g><g clip-path="url(#clip109)"><g clip-path="url(#clip110)"><g clip-path="url(#clip111)"><path d="M1618.57 585 1638.26 565.313C1639.25 564.326 1639.25 562.727 1638.26 561.74 1637.27 560.753 1635.67 560.753 1634.69 561.74L1615 581.427 1595.31 561.74C1594.33 560.753 1592.73 560.753 1591.74 561.74 1590.75 562.727 1590.75 564.326 1591.74 565.313L1611.43 585 1591.74 604.687C1590.75 605.674 1590.75 607.273 1591.74 608.26 1592.73 609.247 1594.33 609.247 1595.31 608.26L1615 588.573 1634.69 608.26C1635.67 609.247 1637.27 609.247 1638.26 608.26 1639.25 607.273 1639.25 605.674 1638.26 604.687L1618.57 585Z"/></g></g></g><g clip-path="url(#clip112)"><g clip-path="url(#clip113)"><g clip-path="url(#clip114)"><path d="M26.9984 23.5 46.2755 4.22292C47.2415 3.25686 47.2415 1.69062 46.2755 0.724643 45.3095-0.241425 43.7431-0.241425 42.7772 0.724643L23.5 20.0018 4.22283 0.724643C3.25676-0.241425 1.69053-0.241425 0.724551 0.724643-0.241425 1.69071-0.241517 3.25695 0.724551 4.22292L20.0017 23.5 0.724551 42.7772C-0.241517 43.7432-0.241517 45.3095 0.724551 46.2754 1.69062 47.2415 3.25686 47.2414 4.22283 46.2754L23.5 26.9983 42.777 46.2754C43.7431 47.2415 45.3094 47.2414 46.2754 46.2754 47.2413 45.3094 47.2413 43.7431 46.2754 42.7772L26.9984 23.5Z" transform="matrix(1.02128 0 -0 1 1592 842)"/></g></g></g><g clip-path="url(#clip115)"><g clip-path="url(#clip116)"><g clip-path="url(#clip117)"><path d="M1000.14 478.7C998.984 477.548 997.116 477.548 995.964 478.7L960.621 514.043 947.036 500.458C945.884 499.306 944.016 499.306 942.864 500.458 941.712 501.61 941.712 503.477 942.864 504.63L958.535 520.3C959.687 521.453 961.556 521.452 962.707 520.3L1000.14 482.872C1001.29 481.72 1001.29 479.852 1000.14 478.7Z" fill="#06CAA6"/></g></g></g><g clip-path="url(#clip118)"><g clip-path="url(#clip119)"><g clip-path="url(#clip120)"><path d="M1032.03 480.004 1025.49 476 1032.03 471.996C1032.15 471.927 1032.23 471.816 1032.26 471.687 1032.29 471.559 1032.27 471.423 1032.2 471.311L1030.27 468.166C1030.13 467.932 1029.82 467.858 1029.59 468.001L1023.34 471.824 1023.34 464.498C1023.34 464.223 1023.12 464 1022.84 464L1019.16 464C1018.88 464 1018.66 464.223 1018.66 464.498L1018.66 471.824 1012.41 468.001C1012.17 467.858 1011.87 467.932 1011.73 468.167L1009.8 471.311C1009.73 471.423 1009.71 471.559 1009.74 471.688 1009.77 471.816 1009.85 471.927 1009.97 471.996L1016.51 476 1009.97 480.004C1009.85 480.073 1009.77 480.184 1009.74 480.312 1009.71 480.441 1009.73 480.577 1009.8 480.689L1011.73 483.833C1011.87 484.068 1012.17 484.142 1012.41 483.999L1018.66 480.176 1018.66 487.501C1018.66 487.777 1018.88 488 1019.16 488L1022.84 488C1023.12 488 1023.34 487.777 1023.34 487.501L1023.34 480.176 1029.59 483.998C1029.82 484.142 1030.13 484.068 1030.27 483.833L1032.2 480.689C1032.27 480.577 1032.29 480.441 1032.26 480.313 1032.23 480.184 1032.15 480.073 1032.03 480.004Z" fill="#06CAA6"/></g></g></g><g clip-path="url(#clip121)"><g clip-path="url(#clip122)"><g clip-path="url(#clip123)"><path d="M999.136 393.7C997.984 392.548 996.116 392.548 994.964 393.7L959.621 429.043 946.036 415.458C944.884 414.306 943.016 414.306 941.864 415.458 940.712 416.61 940.712 418.477 941.864 419.63L957.535 435.301C958.687 436.452 960.556 436.452 961.707 435.301L999.136 397.872C1000.29 396.72 1000.29 394.852 999.136 393.7Z" fill="#06CAA6"/></g></g></g><g clip-path="url(#clip124)"><g clip-path="url(#clip125)"><g clip-path="url(#clip126)"><path d="M1031.03 395.004 1024.49 391 1031.03 386.996C1031.15 386.927 1031.23 386.816 1031.26 386.687 1031.29 386.559 1031.27 386.423 1031.2 386.311L1029.27 383.166C1029.13 382.932 1028.82 382.858 1028.59 383.001L1022.34 386.824 1022.34 379.498C1022.34 379.223 1022.12 379 1021.84 379L1018.16 379C1017.88 379 1017.66 379.223 1017.66 379.498L1017.66 386.824 1011.41 383.001C1011.17 382.858 1010.87 382.932 1010.73 383.167L1008.8 386.311C1008.73 386.423 1008.71 386.559 1008.74 386.688 1008.77 386.816 1008.85 386.927 1008.97 386.996L1015.51 391 1008.97 395.004C1008.85 395.073 1008.77 395.184 1008.74 395.312 1008.71 395.441 1008.73 395.577 1008.8 395.689L1010.73 398.833C1010.87 399.068 1011.17 399.142 1011.41 398.999L1017.66 395.176 1017.66 402.501C1017.66 402.777 1017.88 403 1018.16 403L1021.84 403C1022.12 403 1022.34 402.777 1022.34 402.501L1022.34 395.176 1028.59 398.998C1028.82 399.142 1029.13 399.068 1029.27 398.833L1031.2 395.689C1031.27 395.577 1031.29 395.441 1031.26 395.313 1031.23 395.184 1031.15 395.073 1031.03 395.004Z" fill="#06CAA6"/></g></g></g><g clip-path="url(#clip127)"><g clip-path="url(#clip128)"><g clip-path="url(#clip129)"><path d="M1000.14 843.7C998.984 842.548 997.116 842.548 995.964 843.7L960.621 879.043 947.036 865.458C945.884 864.306 944.016 864.306 942.864 865.458 941.712 866.61 941.712 868.477 942.864 869.63L958.535 885.3C959.687 886.453 961.556 886.452 962.707 885.3L1000.14 847.872C1001.29 846.72 1001.29 844.852 1000.14 843.7Z" fill="#06CAA6"/></g></g></g><g clip-path="url(#clip130)"><g clip-path="url(#clip131)"><g clip-path="url(#clip132)"><path d="M1032.03 845.004 1025.49 841 1032.03 836.996C1032.15 836.927 1032.23 836.816 1032.26 836.687 1032.29 836.559 1032.27 836.423 1032.2 836.311L1030.27 833.166C1030.13 832.932 1029.82 832.858 1029.59 833.001L1023.34 836.824 1023.34 829.498C1023.34 829.223 1023.12 829 1022.84 829L1019.16 829C1018.88 829 1018.66 829.223 1018.66 829.498L1018.66 836.824 1012.41 833.001C1012.17 832.858 1011.87 832.932 1011.73 833.167L1009.8 836.311C1009.73 836.423 1009.71 836.559 1009.74 836.688 1009.77 836.816 1009.85 836.927 1009.97 836.996L1016.51 841 1009.97 845.004C1009.85 845.073 1009.77 845.184 1009.74 845.312 1009.71 845.441 1009.73 845.577 1009.8 845.689L1011.73 848.833C1011.87 849.068 1012.17 849.142 1012.41 848.999L1018.66 845.176 1018.66 852.502C1018.66 852.777 1018.88 853 1019.16 853L1022.84 853C1023.12 853 1023.34 852.777 1023.34 852.502L1023.34 845.176 1029.59 848.998C1029.82 849.142 1030.13 849.068 1030.27 848.833L1032.2 845.689C1032.27 845.577 1032.29 845.441 1032.26 845.313 1032.23 845.184 1032.15 845.073 1032.03 845.004Z" fill="#06CAA6"/></g></g></g><g clip-path="url(#clip133)"><g clip-path="url(#clip134)"><g clip-path="url(#clip135)"><path d="M1002.14 927.7C1000.98 926.548 999.116 926.548 997.964 927.7L962.621 963.043 949.036 949.458C947.884 948.306 946.016 948.306 944.864 949.458 943.712 950.61 943.712 952.477 944.864 953.63L960.535 969.3C961.687 970.453 963.556 970.452 964.707 969.3L1002.14 931.872C1003.29 930.72 1003.29 928.852 1002.14 927.7Z" fill="#06CAA6"/></g></g></g><g clip-path="url(#clip136)"><g clip-path="url(#clip137)"><g clip-path="url(#clip138)"><path d="M1034.03 929.004 1027.49 925 1034.03 920.996C1034.15 920.927 1034.23 920.816 1034.26 920.687 1034.29 920.559 1034.27 920.423 1034.2 920.311L1032.27 917.166C1032.13 916.932 1031.82 916.858 1031.59 917.001L1025.34 920.824 1025.34 913.498C1025.34 913.223 1025.12 913 1024.84 913L1021.16 913C1020.88 913 1020.66 913.223 1020.66 913.498L1020.66 920.824 1014.41 917.001C1014.17 916.858 1013.87 916.932 1013.73 917.167L1011.8 920.311C1011.73 920.423 1011.71 920.559 1011.74 920.688 1011.77 920.816 1011.85 920.927 1011.97 920.996L1018.51 925 1011.97 929.004C1011.85 929.073 1011.77 929.184 1011.74 929.312 1011.71 929.441 1011.73 929.577 1011.8 929.689L1013.73 932.833C1013.87 933.068 1014.17 933.142 1014.41 932.999L1020.66 929.176 1020.66 936.502C1020.66 936.777 1020.88 937 1021.16 937L1024.84 937C1025.12 937 1025.34 936.777 1025.34 936.502L1025.34 929.176 1031.59 932.998C1031.82 933.142 1032.13 933.068 1032.27 932.833L1034.2 929.689C1034.27 929.577 1034.29 929.441 1034.26 929.313 1034.23 929.184 1034.15 929.073 1034.03 929.004Z" fill="#06CAA6"/></g></g></g></g></svg>