<svg width="70" height="70" viewBox="0 0 70 70" fill="none" xmlns="http://www.w3.org/2000/svg">
<g clip-path="url(#clip0)">
<path d="M65.8984 28.1641H64.5312V22.0117C64.5312 18.9959 62.0773 16.543 59.0625 16.543C58.0083 16.543 57.0224 16.8426 56.1871 17.3617C55.628 14.9365 53.4501 13.125 50.8594 13.125H50.8578C47.8436 13.125 45.389 15.5779 45.389 18.5938V28.1641H24.611V18.5938C24.611 15.5779 22.1564 13.125 19.1406 13.125C16.5499 13.125 14.372 14.9365 13.8129 17.3617C12.9776 16.8426 11.9917 16.543 10.9375 16.543C7.92274 16.543 5.46875 18.9959 5.46875 22.0117V28.1641H4.10156C1.84036 28.1641 0 30.0044 0 32.2656V37.7344C0 39.9956 1.84036 41.8359 4.10156 41.8359H5.46875V47.9883C5.46875 51.0041 7.92274 53.457 10.9375 53.457C11.9917 53.457 12.9776 53.1574 13.8129 52.6383C14.372 55.0635 16.5499 56.875 19.1406 56.875H19.1422C22.1564 56.875 24.611 54.4221 24.611 51.4062V41.8359H45.389V51.4062C45.389 54.4221 47.8436 56.875 50.8594 56.875C53.4501 56.875 55.628 55.0635 56.1871 52.6383C57.0224 53.1574 58.0083 53.457 59.0625 53.457C62.0773 53.457 64.5312 51.0041 64.5312 47.9883V41.8359H65.8984C68.1596 41.8359 70 39.9956 70 37.7344V32.2656C70 30.0044 68.1596 28.1641 65.8984 28.1641V28.1641ZM5.46875 39.1016H4.10156C3.34801 39.1016 2.73438 38.4879 2.73438 37.7344V32.2656C2.73438 31.5121 3.34801 30.8984 4.10156 30.8984H5.46875V39.1016ZM13.6719 47.9883C13.6719 48.7429 13.3659 49.4265 12.8708 49.9216C12.3757 50.4166 11.6921 50.7227 10.9375 50.7227C9.42932 50.7227 8.20312 49.4965 8.20312 47.9883V22.0117C8.20312 20.5035 9.42932 19.2773 10.9375 19.2773C12.4457 19.2773 13.6719 20.5035 13.6719 22.0117V47.9883ZM21.8766 51.4062C21.8766 52.9144 20.6488 54.1406 19.1422 54.1406H19.1406C17.634 54.1406 16.4062 52.9144 16.4062 51.4062V18.5938C16.4062 17.0856 17.634 15.8594 19.1422 15.8594C20.6488 15.8594 21.8766 17.0856 21.8766 18.5938V51.4062ZM45.381 33.6328H35.8203C35.0657 33.6328 34.4531 34.2454 34.4531 35C34.4531 35.7546 35.0657 36.3672 35.8203 36.3672H45.381V39.1016H24.604V30.8984H45.381V33.6328ZM53.5938 51.4062C53.5938 52.9144 52.366 54.1406 50.8578 54.1406C49.3512 54.1406 48.1234 52.9144 48.1234 51.4062V35.07C48.1223 35.0999 48.1197 35.1298 48.1154 35.1586V34.8414C48.1197 34.8702 48.1223 34.9001 48.1234 34.93V18.5938C48.1234 17.0856 49.3512 15.8594 50.8578 15.8594H50.8594C52.366 15.8594 53.5938 17.0856 53.5938 18.5938V51.4062ZM61.7969 47.9883C61.7969 49.4965 60.5707 50.7227 59.0625 50.7227C57.5543 50.7227 56.3281 49.4965 56.3281 47.9883V22.0117C56.3281 20.5035 57.5543 19.2773 59.0625 19.2773C60.5707 19.2773 61.7969 20.5035 61.7969 22.0117V47.9883ZM67.2656 37.7344C67.2656 38.4879 66.652 39.1016 65.8984 39.1016H64.5312V30.8984H65.8984C66.652 30.8984 67.2656 31.5121 67.2656 32.2656V37.7344Z" fill="#06CAA6"/>
<path d="M30.3542 36.3672C29.5991 36.3672 28.9865 35.7552 28.9865 35C28.9865 34.2448 29.598 33.6328 30.3532 33.6328H30.3542C31.1094 33.6328 31.7214 34.2448 31.7214 35C31.7214 35.7552 31.1094 36.3672 30.3542 36.3672Z" fill="#06CAA6"/>
</g>
<defs>
<clipPath id="clip0">
<rect width="70" height="70" fill="white"/>
</clipPath>
</defs>
</svg>
