<svg width="791" height="142" viewBox="0 0 791 142" fill="none" xmlns="http://www.w3.org/2000/svg">
<g clip-path="url(#clip0)">
<path d="M85.7922 39.5948C85.3492 36.936 82.1 35.8858 80.2009 37.7845L74.4937 43.4917C74.3276 43.6578 74.0836 43.7229 73.8568 43.6625L70.5077 42.7652C70.2808 42.7043 70.1021 42.5256 70.0413 42.2988L69.1439 38.9496C69.0832 38.7229 69.1485 38.4789 69.3146 38.3129L72.2216 35.4058C72.622 35.0052 72.622 34.3561 72.2216 33.9556C71.8211 33.5553 71.1718 33.5553 70.7715 33.9556L67.8646 36.8627C67.1821 37.5452 66.9133 38.5483 67.1631 39.4805L68.0605 42.8297C68.3104 43.7619 69.0446 44.4962 69.9769 44.7461L73.326 45.6435C74.2583 45.8936 75.2614 45.6244 75.9439 44.9422L81.651 39.2349C82.3746 38.5115 83.6001 38.9165 83.7694 39.9321C84.4729 44.1547 83.0892 48.4795 80.0675 51.5009C76.8188 54.7498 72.2011 56.0765 67.7155 55.0507C66.7362 54.8268 65.7298 55.1147 65.0237 55.8206L46.3985 74.4452C44.1774 76.6663 40.5823 76.6666 38.361 74.4452C36.14 72.2246 36.1396 68.629 38.361 66.4078L57.0002 47.7685C57.7039 47.0646 57.9927 46.0627 57.7727 45.0883C56.7422 40.523 58.1871 35.7022 61.5432 32.5069C64.59 29.6061 68.7239 28.3424 72.8852 29.0387C73.7177 29.1783 74.1298 30.0401 73.854 30.7321C73.6444 31.2582 73.9009 31.8546 74.427 32.0642C74.9531 32.2741 75.5495 32.0173 75.7592 31.4914C76.5202 29.5815 75.3432 27.3713 73.2242 27.0162C68.491 26.2237 63.5958 27.721 60.1292 31.0219C56.2535 34.7118 54.5841 40.275 55.7725 45.54C55.8366 45.8242 55.7535 46.1151 55.5503 46.3183L51.321 50.5476L51.378 48.1736C51.4241 46.257 49.8864 44.6823 47.9697 44.6823H36.7901C34.8772 44.6823 33.3357 46.2536 33.3818 48.1734L33.4774 52.1514C33.4857 52.496 33.3241 52.8229 33.0453 53.0256L28.715 56.1716C28.4362 56.3743 28.0754 56.4268 27.7503 56.3125L23.9964 54.9922C22.188 54.3565 20.2152 55.332 19.6228 57.1549L16.1682 67.7873C15.5759 69.6103 16.5987 71.5594 18.4353 72.1077L22.2482 73.246C22.5784 73.3446 22.8392 73.5992 22.9458 73.9269L24.5998 79.0173C24.7063 79.3451 24.6451 79.7044 24.4358 79.9784L22.0203 83.1406C20.8567 84.6637 21.175 86.8418 22.7257 87.9685L27.5325 91.4607C27.989 91.7927 28.6308 91.6936 28.9648 91.2339C29.2977 90.7759 29.196 90.1345 28.7378 89.8018L23.9311 86.3095C23.3132 85.8605 23.1863 84.9928 23.65 84.3857L26.0655 81.2235C26.6837 80.4143 26.865 79.3528 26.5503 78.3838L24.8962 73.2933C24.5815 72.3245 23.8108 71.5723 22.8349 71.2809L19.0219 70.1426C18.2901 69.924 17.8826 69.1474 18.1186 68.421L21.5733 57.7887C21.809 57.0635 22.5939 56.6732 23.316 56.9268L27.0701 58.2471C28.0307 58.5851 29.0966 58.4292 29.9204 57.8305L34.2509 54.6843C35.0748 54.0855 35.5521 53.1202 35.5276 52.1019L35.4321 48.1239C35.4137 47.3618 36.025 46.7328 36.7901 46.7328H47.9697C48.7319 46.7328 49.3462 47.359 49.3278 48.1239C49.2453 52.2275 49.1961 52.1175 49.2643 52.604L44.3685 57.4998C36.398 56.2827 29.3015 62.4752 29.3015 70.4263C29.3015 77.6377 35.1685 83.5047 42.3799 83.5047C49.5915 83.5047 55.4584 77.6377 55.4584 70.4263C55.4584 69.7616 55.4069 69.0949 55.3065 68.4376L63.8656 59.8785L66.6412 68.4206C66.8772 69.1471 66.4696 69.9236 65.7379 70.1422L61.925 71.2805C60.949 71.5719 60.1784 72.3241 59.8637 73.2929L58.2095 78.3834C57.8948 79.3522 58.0761 80.4137 58.6945 81.2231L61.11 84.3853C61.5727 84.9911 61.448 85.8593 60.8289 86.3091L51.7845 92.88C51.1672 93.329 50.302 93.1815 49.8681 92.5528L47.6073 89.2785C47.0287 88.4402 46.0749 87.9398 45.0563 87.9398H39.7039C38.6852 87.9398 37.7316 88.4402 37.153 89.2784L34.892 92.5528C34.4583 93.1809 33.5936 93.3291 32.9757 92.8801L32.6428 92.6382C32.1847 92.3051 31.5435 92.4067 31.2104 92.8648C30.8775 93.3228 30.9791 93.9642 31.4371 94.2973L31.7701 94.5392C33.3215 95.6658 35.4899 95.296 36.5795 93.7181L38.8405 90.4435C39.0363 90.1598 39.3589 89.9906 39.7036 89.9906H45.0561C45.4007 89.9906 45.7234 90.1598 45.9193 90.4437L48.1803 93.7181C49.2695 95.2956 51.4391 95.6655 52.9897 94.5391L62.0343 87.9679C63.585 86.8411 63.903 84.6633 62.7395 83.1401L60.3239 79.9778C60.1146 79.7039 60.0533 79.3446 60.1597 79.0168L61.8137 73.9263C61.9202 73.5986 62.181 73.3439 62.5113 73.2455L66.3243 72.1071C68.1611 71.5589 69.1837 69.6095 68.5914 67.7868L65.4929 58.2507L66.4736 57.27C66.6777 57.0658 66.9708 56.9833 67.2581 57.0492C72.4361 58.2334 77.7668 56.7012 81.5175 52.9503C85.0064 49.4621 86.6044 44.4693 85.7922 39.5948V39.5948ZM42.3798 81.4542C36.2991 81.4542 31.3522 76.5071 31.3522 70.4266C31.3522 64.3565 36.3062 59.3515 42.468 59.4005L36.9108 64.9576C33.8885 67.9801 33.8878 72.8726 36.9108 75.8954C39.9329 78.9179 44.8257 78.9184 47.8487 75.8955L53.4059 70.3384C53.4061 70.3678 53.4075 70.3972 53.4075 70.4266C53.4075 76.5071 48.4604 81.4542 42.3798 81.4542Z" fill="black"/>
</g>
<path d="M11.459 113.146C10.5762 113.146 9.86914 112.863 9.33789 112.297C8.81055 111.727 8.54688 110.926 8.54688 109.895C8.54688 108.859 8.81055 108.059 9.33789 107.492C9.86914 106.926 10.5762 106.643 11.459 106.643C12.1387 106.643 12.7051 106.814 13.1582 107.158C13.6152 107.502 13.8848 107.998 13.9668 108.646H12.8301C12.8145 108.275 12.6738 107.992 12.4082 107.797C12.1465 107.602 11.8301 107.504 11.459 107.504C10.9316 107.504 10.5039 107.705 10.1758 108.107C9.84766 108.506 9.68359 109.102 9.68359 109.895C9.68359 110.684 9.84766 111.279 10.1758 111.682C10.5039 112.08 10.9316 112.279 11.459 112.279C11.8301 112.279 12.1465 112.182 12.4082 111.986C12.6738 111.791 12.8145 111.51 12.8301 111.143H13.9668C13.8848 111.791 13.6152 112.287 13.1582 112.631C12.7051 112.975 12.1387 113.146 11.459 113.146ZM18.877 112.209C18.3262 112.834 17.707 113.146 17.0195 113.146C15.6172 113.146 14.916 112.381 14.916 110.85V106.783H16.0234V110.803C16.0234 111.311 16.1133 111.676 16.293 111.898C16.4727 112.121 16.7695 112.232 17.1836 112.232C17.8008 112.232 18.3652 111.9 18.877 111.236V106.783H19.9785V113H18.877V112.209ZM23.8398 113.146C22.1406 113.146 21.252 112.479 21.1738 111.143H22.2812C22.2891 111.9 22.8047 112.279 23.8281 112.279C24.2852 112.279 24.6328 112.186 24.8711 111.998C25.1133 111.807 25.2344 111.568 25.2344 111.283C25.2344 111.002 25.1172 110.805 24.8828 110.691C24.6484 110.574 24.1641 110.424 23.4297 110.24C22.6992 110.057 22.1641 109.852 21.8242 109.625C21.4883 109.398 21.3203 109 21.3203 108.43C21.3203 107.914 21.5293 107.488 21.9473 107.152C22.3691 106.812 22.9316 106.643 23.6348 106.643C25.2637 106.643 26.0957 107.223 26.1309 108.383H25.0293C24.9902 107.797 24.5508 107.504 23.7109 107.504C23.3398 107.504 23.0312 107.574 22.7852 107.715C22.543 107.855 22.4219 108.061 22.4219 108.33C22.4219 108.572 22.5156 108.748 22.7031 108.857C22.8906 108.963 23.3594 109.107 24.1094 109.291C24.8633 109.471 25.4219 109.682 25.7852 109.924C26.1523 110.166 26.3359 110.584 26.3359 111.178C26.3359 111.744 26.1094 112.215 25.6562 112.59C25.207 112.961 24.6016 113.146 23.8398 113.146ZM30.0332 113.012C29.791 113.059 29.5273 113.082 29.2422 113.082C28.7891 113.082 28.457 113.002 28.2461 112.842C28.0352 112.678 27.9043 112.469 27.8535 112.215C27.8027 111.961 27.7773 111.615 27.7773 111.178V107.65H27.0098V106.783H27.7773V105.236H28.8789V106.783H29.8867V107.65H28.8789V111.236C28.8789 111.662 28.9316 111.934 29.0371 112.051C29.1465 112.164 29.2949 112.221 29.4824 112.221C29.6738 112.221 29.8574 112.205 30.0332 112.174V113.012ZM33.4785 106.643C34.3652 106.643 35.0723 106.926 35.5996 107.492C36.1309 108.059 36.3965 108.859 36.3965 109.895C36.3965 110.926 36.1309 111.727 35.5996 112.297C35.0723 112.863 34.3652 113.146 33.4785 113.146C32.5957 113.146 31.8887 112.863 31.3574 112.297C30.8301 111.727 30.5664 110.926 30.5664 109.895C30.5664 108.859 30.8301 108.059 31.3574 107.492C31.8887 106.926 32.5957 106.643 33.4785 106.643ZM33.4785 112.279C34.0059 112.279 34.4336 112.08 34.7617 111.682C35.0898 111.279 35.2539 110.684 35.2539 109.895C35.2539 109.102 35.0898 108.506 34.7617 108.107C34.4336 107.705 34.0059 107.504 33.4785 107.504C32.9512 107.504 32.5234 107.705 32.1953 108.107C31.8672 108.506 31.7031 109.102 31.7031 109.895C31.7031 110.684 31.8672 111.279 32.1953 111.682C32.5234 112.08 32.9512 112.279 33.4785 112.279ZM46.041 113H44.9336V108.98C44.9336 108.465 44.8594 108.098 44.7109 107.879C44.5625 107.66 44.3145 107.551 43.9668 107.551C43.4316 107.551 42.9062 107.883 42.3906 108.547V113H41.2891V108.98C41.2891 108.465 41.2148 108.098 41.0664 107.879C40.918 107.66 40.668 107.551 40.3164 107.551C39.7812 107.551 39.2578 107.883 38.7461 108.547V113H37.6387V106.783H38.7461V107.574C39.2695 106.953 39.8496 106.643 40.4863 106.643C41.3965 106.643 41.9766 107.018 42.2266 107.768C42.6406 107.279 42.9922 106.971 43.2812 106.842C43.5703 106.709 43.8535 106.643 44.1309 106.643C45.4043 106.643 46.041 107.406 46.041 108.934V113ZM48.7422 113H47.6348V106.783H48.7422V113ZM48.7422 105.605H47.6348V104.41H48.7422V105.605ZM55.3105 113H49.8027V112.062L53.6758 107.721H50.0312V106.783H55.1172V107.721L51.2441 112.062H55.3105V113ZM60.3145 111.365V109.988H59.5586C57.957 109.988 57.1562 110.424 57.1562 111.295C57.1562 111.611 57.2734 111.855 57.5078 112.027C57.7422 112.195 58.0586 112.279 58.457 112.279C58.8203 112.279 59.1719 112.197 59.5117 112.033C59.8516 111.869 60.1191 111.646 60.3145 111.365ZM60.3145 112.361C59.752 112.885 59.0273 113.146 58.1406 113.146C57.5234 113.146 57.0156 112.98 56.6172 112.648C56.2188 112.312 56.0195 111.881 56.0195 111.354C56.0195 109.9 57.2715 109.174 59.7754 109.174H60.3145C60.3145 108.729 60.291 108.406 60.2441 108.207C60.1973 108.004 60.0664 107.836 59.8516 107.703C59.6367 107.57 59.2949 107.504 58.8262 107.504C57.8418 107.504 57.334 107.855 57.3027 108.559H56.2012C56.2832 107.281 57.1777 106.643 58.8848 106.643C59.6816 106.643 60.3027 106.801 60.748 107.117C61.1934 107.434 61.416 108.055 61.416 108.98V113H60.3145V112.361ZM65.4707 113.012C65.2285 113.059 64.9648 113.082 64.6797 113.082C64.2266 113.082 63.8945 113.002 63.6836 112.842C63.4727 112.678 63.3418 112.469 63.291 112.215C63.2402 111.961 63.2148 111.615 63.2148 111.178V107.65H62.4473V106.783H63.2148V105.236H64.3164V106.783H65.3242V107.65H64.3164V111.236C64.3164 111.662 64.3691 111.934 64.4746 112.051C64.584 112.164 64.7324 112.221 64.9199 112.221C65.1113 112.221 65.2949 112.205 65.4707 112.174V113.012ZM67.5039 113H66.3965V106.783H67.5039V113ZM67.5039 105.605H66.3965V104.41H67.5039V105.605ZM71.6582 106.643C72.5449 106.643 73.252 106.926 73.7793 107.492C74.3105 108.059 74.5762 108.859 74.5762 109.895C74.5762 110.926 74.3105 111.727 73.7793 112.297C73.252 112.863 72.5449 113.146 71.6582 113.146C70.7754 113.146 70.0684 112.863 69.5371 112.297C69.0098 111.727 68.7461 110.926 68.7461 109.895C68.7461 108.859 69.0098 108.059 69.5371 107.492C70.0684 106.926 70.7754 106.643 71.6582 106.643ZM71.6582 112.279C72.1855 112.279 72.6133 112.08 72.9414 111.682C73.2695 111.279 73.4336 110.684 73.4336 109.895C73.4336 109.102 73.2695 108.506 72.9414 108.107C72.6133 107.705 72.1855 107.504 71.6582 107.504C71.1309 107.504 70.7031 107.705 70.375 108.107C70.0469 108.506 69.8828 109.102 69.8828 109.895C69.8828 110.684 70.0469 111.279 70.375 111.682C70.7031 112.08 71.1309 112.279 71.6582 112.279ZM76.9258 107.574C77.4766 106.953 78.0957 106.643 78.7832 106.643C80.1855 106.643 80.8867 107.406 80.8867 108.934V113H79.7793V108.98C79.7793 108.473 79.6875 108.107 79.5039 107.885C79.3242 107.662 79.0273 107.551 78.6133 107.551C78.0508 107.551 77.4883 107.883 76.9258 108.547V113H75.8184V106.783H76.9258V107.574ZM92.2656 112.426L91.4102 113.146L90.666 112.209C89.9863 112.834 89.1348 113.146 88.1113 113.146C87.3223 113.146 86.6699 112.902 86.1543 112.414C85.6426 111.926 85.3867 111.334 85.3867 110.639C85.3867 110.107 85.5508 109.643 85.8789 109.244C86.207 108.846 86.707 108.457 87.3789 108.078C86.7695 107.297 86.4648 106.666 86.4648 106.186C86.4648 105.639 86.666 105.182 87.0684 104.814C87.4746 104.447 87.9863 104.264 88.6035 104.264C89.1777 104.264 89.6523 104.443 90.0273 104.803C90.4062 105.158 90.5957 105.59 90.5957 106.098C90.5957 106.551 90.457 106.943 90.1797 107.275C89.9023 107.604 89.4805 107.932 88.9141 108.26L90.6426 110.41C90.8105 109.98 90.9062 109.496 90.9297 108.957H92.0723C92.0215 109.859 91.793 110.65 91.3867 111.33L92.2656 112.426ZM88.3516 107.562C88.7539 107.344 89.0488 107.127 89.2363 106.912C89.4238 106.693 89.5176 106.43 89.5176 106.121C89.5176 105.824 89.4199 105.586 89.2246 105.406C89.0332 105.223 88.8066 105.131 88.5449 105.131C88.2637 105.131 88.0273 105.219 87.8359 105.395C87.6445 105.566 87.5488 105.793 87.5488 106.074C87.5488 106.391 87.7246 106.771 88.0762 107.217L88.3516 107.562ZM90.0449 111.418L87.9531 108.799C87.457 109.092 87.0957 109.369 86.8691 109.631C86.6426 109.889 86.5293 110.199 86.5293 110.562C86.5293 111 86.6797 111.385 86.9805 111.717C87.2852 112.045 87.666 112.209 88.123 112.209C88.9121 112.209 89.5527 111.945 90.0449 111.418ZM11.9219 121.527C12.4141 120.938 13.0059 120.643 13.6973 120.643C14.5098 120.643 15.1387 120.932 15.584 121.51C16.0293 122.084 16.252 122.861 16.252 123.842C16.252 124.861 16.002 125.668 15.502 126.262C15.0059 126.852 14.3789 127.146 13.6211 127.146C12.9492 127.146 12.3828 126.938 11.9219 126.52V129.391H10.8145V120.783H11.9219V121.527ZM11.9219 125.523C12.3945 126.027 12.9375 126.279 13.5508 126.279C14.0273 126.279 14.4062 126.076 14.6875 125.67C14.9688 125.26 15.1094 124.65 15.1094 123.842C15.1094 123.076 14.9766 122.496 14.7109 122.102C14.4453 121.703 14.0742 121.504 13.5977 121.504C12.9844 121.504 12.4258 121.859 11.9219 122.57V125.523ZM20.1367 127.146C19.2227 127.146 18.4883 126.861 17.9336 126.291C17.3789 125.717 17.1016 124.918 17.1016 123.895C17.1016 122.879 17.3691 122.084 17.9043 121.51C18.4434 120.932 19.1465 120.643 20.0137 120.643C20.9004 120.643 21.6074 120.926 22.1348 121.492C22.666 122.059 22.9316 122.859 22.9316 123.895V124.158H18.25C18.2969 124.877 18.4941 125.41 18.8418 125.758C19.1934 126.105 19.625 126.279 20.1367 126.279C20.5234 126.279 20.8711 126.182 21.1797 125.986C21.4922 125.787 21.6562 125.506 21.6719 125.143H22.8145C22.7285 125.783 22.4375 126.277 21.9414 126.625C21.4492 126.973 20.8477 127.146 20.1367 127.146ZM21.7656 123.291C21.6758 122.693 21.4746 122.246 21.1621 121.949C20.8496 121.652 20.4668 121.504 20.0137 121.504C19.5723 121.504 19.1934 121.652 18.877 121.949C18.5605 122.242 18.3594 122.689 18.2734 123.291H21.7656ZM27.4023 121.791C27.2461 121.744 27.0215 121.721 26.7285 121.721C26.166 121.721 25.6836 122.016 25.2812 122.605V127H24.1738V120.783H25.2812V121.65C25.7461 120.979 26.2852 120.643 26.8984 120.643C27.0547 120.643 27.2227 120.658 27.4023 120.689V121.791ZM30.3906 127.146C28.6914 127.146 27.8027 126.479 27.7246 125.143H28.832C28.8398 125.9 29.3555 126.279 30.3789 126.279C30.8359 126.279 31.1836 126.186 31.4219 125.998C31.6641 125.807 31.7852 125.568 31.7852 125.283C31.7852 125.002 31.668 124.805 31.4336 124.691C31.1992 124.574 30.7148 124.424 29.9805 124.24C29.25 124.057 28.7148 123.852 28.375 123.625C28.0391 123.398 27.8711 123 27.8711 122.43C27.8711 121.914 28.0801 121.488 28.498 121.152C28.9199 120.812 29.4824 120.643 30.1855 120.643C31.8145 120.643 32.6465 121.223 32.6816 122.383H31.5801C31.541 121.797 31.1016 121.504 30.2617 121.504C29.8906 121.504 29.582 121.574 29.3359 121.715C29.0938 121.855 28.9727 122.061 28.9727 122.33C28.9727 122.572 29.0664 122.748 29.2539 122.857C29.4414 122.963 29.9102 123.107 30.6602 123.291C31.4141 123.471 31.9727 123.682 32.3359 123.924C32.7031 124.166 32.8867 124.584 32.8867 125.178C32.8867 125.744 32.6602 126.215 32.207 126.59C31.7578 126.961 31.1523 127.146 30.3906 127.146ZM36.6895 120.643C37.5762 120.643 38.2832 120.926 38.8105 121.492C39.3418 122.059 39.6074 122.859 39.6074 123.895C39.6074 124.926 39.3418 125.727 38.8105 126.297C38.2832 126.863 37.5762 127.146 36.6895 127.146C35.8066 127.146 35.0996 126.863 34.5684 126.297C34.041 125.727 33.7773 124.926 33.7773 123.895C33.7773 122.859 34.041 122.059 34.5684 121.492C35.0996 120.926 35.8066 120.643 36.6895 120.643ZM36.6895 126.279C37.2168 126.279 37.6445 126.08 37.9727 125.682C38.3008 125.279 38.4648 124.684 38.4648 123.895C38.4648 123.102 38.3008 122.506 37.9727 122.107C37.6445 121.705 37.2168 121.504 36.6895 121.504C36.1621 121.504 35.7344 121.705 35.4062 122.107C35.0781 122.506 34.9141 123.102 34.9141 123.895C34.9141 124.684 35.0781 125.279 35.4062 125.682C35.7344 126.08 36.1621 126.279 36.6895 126.279ZM41.957 121.574C42.5078 120.953 43.127 120.643 43.8145 120.643C45.2168 120.643 45.918 121.406 45.918 122.934V127H44.8105V122.98C44.8105 122.473 44.7188 122.107 44.5352 121.885C44.3555 121.662 44.0586 121.551 43.6445 121.551C43.082 121.551 42.5195 121.883 41.957 122.547V127H40.8496V120.783H41.957V121.574ZM51.4668 125.365V123.988H50.7109C49.1094 123.988 48.3086 124.424 48.3086 125.295C48.3086 125.611 48.4258 125.855 48.6602 126.027C48.8945 126.195 49.2109 126.279 49.6094 126.279C49.9727 126.279 50.3242 126.197 50.6641 126.033C51.0039 125.869 51.2715 125.646 51.4668 125.365ZM51.4668 126.361C50.9043 126.885 50.1797 127.146 49.293 127.146C48.6758 127.146 48.168 126.98 47.7695 126.648C47.3711 126.312 47.1719 125.881 47.1719 125.354C47.1719 123.9 48.4238 123.174 50.9277 123.174H51.4668C51.4668 122.729 51.4434 122.406 51.3965 122.207C51.3496 122.004 51.2188 121.836 51.0039 121.703C50.7891 121.57 50.4473 121.504 49.9785 121.504C48.9941 121.504 48.4863 121.855 48.4551 122.559H47.3535C47.4355 121.281 48.3301 120.643 50.0371 120.643C50.834 120.643 51.4551 120.801 51.9004 121.117C52.3457 121.434 52.5684 122.055 52.5684 122.98V127H51.4668V126.361ZM55.3164 127H54.209V118.41H55.3164V127ZM58.0586 127H56.9512V120.783H58.0586V127ZM58.0586 119.605H56.9512V118.41H58.0586V119.605ZM64.627 127H59.1191V126.062L62.9922 121.721H59.3477V120.783H64.4336V121.721L60.5605 126.062H64.627V127ZM69.6309 125.365V123.988H68.875C67.2734 123.988 66.4727 124.424 66.4727 125.295C66.4727 125.611 66.5898 125.855 66.8242 126.027C67.0586 126.195 67.375 126.279 67.7734 126.279C68.1367 126.279 68.4883 126.197 68.8281 126.033C69.168 125.869 69.4355 125.646 69.6309 125.365ZM69.6309 126.361C69.0684 126.885 68.3438 127.146 67.457 127.146C66.8398 127.146 66.332 126.98 65.9336 126.648C65.5352 126.312 65.3359 125.881 65.3359 125.354C65.3359 123.9 66.5879 123.174 69.0918 123.174H69.6309C69.6309 122.729 69.6074 122.406 69.5605 122.207C69.5137 122.004 69.3828 121.836 69.168 121.703C68.9531 121.57 68.6113 121.504 68.1426 121.504C67.1582 121.504 66.6504 121.855 66.6191 122.559H65.5176C65.5996 121.281 66.4941 120.643 68.2012 120.643C68.998 120.643 69.6191 120.801 70.0645 121.117C70.5098 121.434 70.7324 122.055 70.7324 122.98V127H69.6309V126.361ZM74.7871 127.012C74.5449 127.059 74.2812 127.082 73.9961 127.082C73.543 127.082 73.2109 127.002 73 126.842C72.7891 126.678 72.6582 126.469 72.6074 126.215C72.5566 125.961 72.5312 125.615 72.5312 125.178V121.65H71.7637V120.783H72.5312V119.236H73.6328V120.783H74.6406V121.65H73.6328V125.236C73.6328 125.662 73.6855 125.934 73.791 126.051C73.9004 126.164 74.0488 126.221 74.2363 126.221C74.4277 126.221 74.6113 126.205 74.7871 126.174V127.012ZM76.8203 127H75.7129V120.783H76.8203V127ZM76.8203 119.605H75.7129V118.41H76.8203V119.605ZM80.9746 120.643C81.8613 120.643 82.5684 120.926 83.0957 121.492C83.627 122.059 83.8926 122.859 83.8926 123.895C83.8926 124.926 83.627 125.727 83.0957 126.297C82.5684 126.863 81.8613 127.146 80.9746 127.146C80.0918 127.146 79.3848 126.863 78.8535 126.297C78.3262 125.727 78.0625 124.926 78.0625 123.895C78.0625 122.859 78.3262 122.059 78.8535 121.492C79.3848 120.926 80.0918 120.643 80.9746 120.643ZM80.9746 126.279C81.502 126.279 81.9297 126.08 82.2578 125.682C82.5859 125.279 82.75 124.684 82.75 123.895C82.75 123.102 82.5859 122.506 82.2578 122.107C81.9297 121.705 81.502 121.504 80.9746 121.504C80.4473 121.504 80.0195 121.705 79.6914 122.107C79.3633 122.506 79.1992 123.102 79.1992 123.895C79.1992 124.684 79.3633 125.279 79.6914 125.682C80.0195 126.08 80.4473 126.279 80.9746 126.279ZM86.2422 121.574C86.793 120.953 87.4121 120.643 88.0996 120.643C89.502 120.643 90.2031 121.406 90.2031 122.934V127H89.0957V122.98C89.0957 122.473 89.0039 122.107 88.8203 121.885C88.6406 121.662 88.3438 121.551 87.9297 121.551C87.3672 121.551 86.8047 121.883 86.2422 122.547V127H85.1348V120.783H86.2422V121.574Z" fill="black"/>
<path d="M147.416 111.41H150.621C151.324 111.41 151.912 111.477 152.385 111.609C152.861 111.738 153.238 112.021 153.516 112.459C153.793 112.893 153.932 113.379 153.932 113.918C153.932 114.785 153.656 115.443 153.105 115.893C152.555 116.342 151.758 116.566 150.715 116.566H148.553V120H147.416V111.41ZM148.553 115.547H150.727C151.457 115.547 151.977 115.41 152.285 115.137C152.598 114.863 152.754 114.469 152.754 113.953C152.754 113.609 152.668 113.305 152.496 113.039C152.324 112.773 152.105 112.605 151.84 112.535C151.578 112.465 151.199 112.43 150.703 112.43H148.553V115.547ZM157.916 120.146C157.002 120.146 156.268 119.861 155.713 119.291C155.158 118.717 154.881 117.918 154.881 116.895C154.881 115.879 155.148 115.084 155.684 114.51C156.223 113.932 156.926 113.643 157.793 113.643C158.68 113.643 159.387 113.926 159.914 114.492C160.445 115.059 160.711 115.859 160.711 116.895V117.158H156.029C156.076 117.877 156.273 118.41 156.621 118.758C156.973 119.105 157.404 119.279 157.916 119.279C158.303 119.279 158.65 119.182 158.959 118.986C159.271 118.787 159.436 118.506 159.451 118.143H160.594C160.508 118.783 160.217 119.277 159.721 119.625C159.229 119.973 158.627 120.146 157.916 120.146ZM159.545 116.291C159.455 115.693 159.254 115.246 158.941 114.949C158.629 114.652 158.246 114.504 157.793 114.504C157.352 114.504 156.973 114.652 156.656 114.949C156.34 115.242 156.139 115.689 156.053 116.291H159.545ZM165.182 114.791C165.025 114.744 164.801 114.721 164.508 114.721C163.945 114.721 163.463 115.016 163.061 115.605V120H161.953V113.783H163.061V114.65C163.525 113.979 164.064 113.643 164.678 113.643C164.834 113.643 165.002 113.658 165.182 113.689V114.791ZM168.17 120.146C166.471 120.146 165.582 119.479 165.504 118.143H166.611C166.619 118.9 167.135 119.279 168.158 119.279C168.615 119.279 168.963 119.186 169.201 118.998C169.443 118.807 169.564 118.568 169.564 118.283C169.564 118.002 169.447 117.805 169.213 117.691C168.979 117.574 168.494 117.424 167.76 117.24C167.029 117.057 166.494 116.852 166.154 116.625C165.818 116.398 165.65 116 165.65 115.43C165.65 114.914 165.859 114.488 166.277 114.152C166.699 113.812 167.262 113.643 167.965 113.643C169.594 113.643 170.426 114.223 170.461 115.383H169.359C169.32 114.797 168.881 114.504 168.041 114.504C167.67 114.504 167.361 114.574 167.115 114.715C166.873 114.855 166.752 115.061 166.752 115.33C166.752 115.572 166.846 115.748 167.033 115.857C167.221 115.963 167.689 116.107 168.439 116.291C169.193 116.471 169.752 116.682 170.115 116.924C170.482 117.166 170.666 117.584 170.666 118.178C170.666 118.744 170.439 119.215 169.986 119.59C169.537 119.961 168.932 120.146 168.17 120.146ZM174.469 113.643C175.355 113.643 176.062 113.926 176.59 114.492C177.121 115.059 177.387 115.859 177.387 116.895C177.387 117.926 177.121 118.727 176.59 119.297C176.062 119.863 175.355 120.146 174.469 120.146C173.586 120.146 172.879 119.863 172.348 119.297C171.82 118.727 171.557 117.926 171.557 116.895C171.557 115.859 171.82 115.059 172.348 114.492C172.879 113.926 173.586 113.643 174.469 113.643ZM174.469 119.279C174.996 119.279 175.424 119.08 175.752 118.682C176.08 118.279 176.244 117.684 176.244 116.895C176.244 116.102 176.08 115.506 175.752 115.107C175.424 114.705 174.996 114.504 174.469 114.504C173.941 114.504 173.514 114.705 173.186 115.107C172.857 115.506 172.693 116.102 172.693 116.895C172.693 117.684 172.857 118.279 173.186 118.682C173.514 119.08 173.941 119.279 174.469 119.279ZM179.736 114.574C180.287 113.953 180.906 113.643 181.594 113.643C182.996 113.643 183.697 114.406 183.697 115.934V120H182.59V115.98C182.59 115.473 182.498 115.107 182.314 114.885C182.135 114.662 181.838 114.551 181.424 114.551C180.861 114.551 180.299 114.883 179.736 115.547V120H178.629V113.783H179.736V114.574ZM189.246 118.365V116.988H188.49C186.889 116.988 186.088 117.424 186.088 118.295C186.088 118.611 186.205 118.855 186.439 119.027C186.674 119.195 186.99 119.279 187.389 119.279C187.752 119.279 188.104 119.197 188.443 119.033C188.783 118.869 189.051 118.646 189.246 118.365ZM189.246 119.361C188.684 119.885 187.959 120.146 187.072 120.146C186.455 120.146 185.947 119.98 185.549 119.648C185.15 119.312 184.951 118.881 184.951 118.354C184.951 116.9 186.203 116.174 188.707 116.174H189.246C189.246 115.729 189.223 115.406 189.176 115.207C189.129 115.004 188.998 114.836 188.783 114.703C188.568 114.57 188.227 114.504 187.758 114.504C186.773 114.504 186.266 114.855 186.234 115.559H185.133C185.215 114.281 186.109 113.643 187.816 113.643C188.613 113.643 189.234 113.801 189.68 114.117C190.125 114.434 190.348 115.055 190.348 115.98V120H189.246V119.361ZM193.096 120H191.988V111.41H193.096V120ZM201.82 120.146C200.586 120.146 199.584 119.742 198.814 118.934C198.049 118.125 197.666 117.049 197.666 115.705C197.666 114.357 198.045 113.281 198.803 112.477C199.561 111.668 200.555 111.264 201.785 111.264C202.82 111.264 203.68 111.514 204.363 112.014C205.051 112.51 205.436 113.176 205.518 114.012H204.34C204.293 113.457 204.043 113.023 203.59 112.711C203.137 112.395 202.539 112.236 201.797 112.236C200.91 112.236 200.195 112.539 199.652 113.145C199.113 113.75 198.844 114.604 198.844 115.705C198.844 116.803 199.117 117.656 199.664 118.266C200.211 118.871 200.926 119.174 201.809 119.174C203.047 119.174 203.967 118.766 204.568 117.949V116.643H202.301V115.617H205.67V120H204.867L204.568 119.098C203.986 119.797 203.07 120.146 201.82 120.146ZM209.777 113.643C210.664 113.643 211.371 113.926 211.898 114.492C212.43 115.059 212.695 115.859 212.695 116.895C212.695 117.926 212.43 118.727 211.898 119.297C211.371 119.863 210.664 120.146 209.777 120.146C208.895 120.146 208.188 119.863 207.656 119.297C207.129 118.727 206.865 117.926 206.865 116.895C206.865 115.859 207.129 115.059 207.656 114.492C208.188 113.926 208.895 113.643 209.777 113.643ZM209.777 119.279C210.305 119.279 210.732 119.08 211.061 118.682C211.389 118.279 211.553 117.684 211.553 116.895C211.553 116.102 211.389 115.506 211.061 115.107C210.732 114.705 210.305 114.504 209.777 114.504C209.25 114.504 208.822 114.705 208.494 115.107C208.166 115.506 208.002 116.102 208.002 116.895C208.002 117.684 208.166 118.279 208.494 118.682C208.822 119.08 209.25 119.279 209.777 119.279ZM217.875 118.365V116.988H217.119C215.518 116.988 214.717 117.424 214.717 118.295C214.717 118.611 214.834 118.855 215.068 119.027C215.303 119.195 215.619 119.279 216.018 119.279C216.381 119.279 216.732 119.197 217.072 119.033C217.412 118.869 217.68 118.646 217.875 118.365ZM217.875 119.361C217.312 119.885 216.588 120.146 215.701 120.146C215.084 120.146 214.576 119.98 214.178 119.648C213.779 119.312 213.58 118.881 213.58 118.354C213.58 116.9 214.832 116.174 217.336 116.174H217.875C217.875 115.729 217.852 115.406 217.805 115.207C217.758 115.004 217.627 114.836 217.412 114.703C217.197 114.57 216.855 114.504 216.387 114.504C215.402 114.504 214.895 114.855 214.863 115.559H213.762C213.844 114.281 214.738 113.643 216.445 113.643C217.242 113.643 217.863 113.801 218.309 114.117C218.754 114.434 218.977 115.055 218.977 115.98V120H217.875V119.361ZM221.725 120H220.617V111.41H221.725V120ZM225.58 120.146C223.881 120.146 222.992 119.479 222.914 118.143H224.021C224.029 118.9 224.545 119.279 225.568 119.279C226.025 119.279 226.373 119.186 226.611 118.998C226.854 118.807 226.975 118.568 226.975 118.283C226.975 118.002 226.857 117.805 226.623 117.691C226.389 117.574 225.904 117.424 225.17 117.24C224.439 117.057 223.904 116.852 223.564 116.625C223.229 116.398 223.061 116 223.061 115.43C223.061 114.914 223.27 114.488 223.688 114.152C224.109 113.812 224.672 113.643 225.375 113.643C227.004 113.643 227.836 114.223 227.871 115.383H226.77C226.73 114.797 226.291 114.504 225.451 114.504C225.08 114.504 224.771 114.574 224.525 114.715C224.283 114.855 224.162 115.061 224.162 115.33C224.162 115.572 224.256 115.748 224.443 115.857C224.631 115.963 225.1 116.107 225.85 116.291C226.604 116.471 227.162 116.682 227.525 116.924C227.893 117.166 228.076 117.584 228.076 118.178C228.076 118.744 227.85 119.215 227.396 119.59C226.947 119.961 226.342 120.146 225.58 120.146Z" fill="black"/>
<g clip-path="url(#clip1)">
<path d="M221.7 78.9062L208.039 65.2457C206.81 64.017 205.177 63.3404 203.439 63.3404C201.702 63.3404 200.068 64.017 198.839 65.2457L196.863 67.2215L190.05 60.4079C189.471 59.8293 188.768 59.4498 188.025 59.2693V31.4093C188.025 30.843 187.566 30.3839 187 30.3839C186.434 30.3839 185.974 30.843 185.974 31.4093V32.5758H178.232C177.062 32.5758 176.111 33.5273 176.111 34.6971V36.9595H169.465C169.095 36.9595 168.754 37.1583 168.572 37.4798C168.39 37.8013 168.395 38.1957 168.585 38.5125L171.557 43.4648L168.585 48.417C168.395 48.7338 168.39 49.1283 168.572 49.4498C168.754 49.7712 169.095 49.97 169.465 49.97H179.328C179.895 49.97 180.354 49.5109 180.354 48.9446C180.354 48.3783 179.895 47.9192 179.328 47.9192H171.276L173.632 43.9923C173.827 43.6676 173.827 43.2619 173.632 42.9372L171.276 39.0103H176.111V44.5607C176.111 45.127 176.57 45.5861 177.136 45.5861H185.975V59.2693C185.232 59.4498 184.529 59.8293 183.95 60.4079L173.3 71.0575L172.969 70.7255C170.432 68.1892 166.305 68.189 163.769 70.7255L152.3 82.1942C151.9 82.5946 151.9 83.2439 152.3 83.6442C152.5 83.8444 152.763 83.9446 153.025 83.9446C153.288 83.9446 153.55 83.8445 153.75 83.6442L165.219 72.1756C166.956 70.4389 169.782 70.4388 171.518 72.1756L171.85 72.5075L154.492 89.8657C154.092 90.2662 154.092 90.9155 154.492 91.3158C154.893 91.7162 155.542 91.7162 155.942 91.3158L170.561 76.6974L172.122 78.2583C172.749 78.8856 173.573 79.1991 174.397 79.1991C175.22 79.1991 176.044 78.8856 176.672 78.2583L180.374 74.5554C180.38 74.5504 180.395 74.5348 180.424 74.5348C180.454 74.5348 180.469 74.5504 180.474 74.5554L181.985 76.0664C183.24 77.3208 185.281 77.3207 186.535 76.0664L190.625 71.9769C191.043 71.5583 191.725 71.5583 192.143 71.9769C192.544 72.3773 193.193 72.3773 193.593 71.9769C193.994 71.5764 193.994 70.9272 193.593 70.5269C192.375 69.3086 190.393 69.3086 189.174 70.5269L185.085 74.6163C184.63 75.0711 183.89 75.0713 183.435 74.6163L181.924 73.1052C181.524 72.7045 180.991 72.484 180.424 72.484C179.858 72.484 179.325 72.7047 178.924 73.1052L175.221 76.8081C174.767 77.263 174.027 77.263 173.572 76.8081L172.011 75.2472L185.4 61.8578C185.828 61.4305 186.396 61.1951 187 61.1951C187.605 61.1951 188.173 61.4304 188.6 61.8578L201.441 74.6992L200.428 75.7122C199.974 76.1669 199.234 76.1669 198.779 75.7122L196.651 73.584C196.25 73.1836 195.601 73.1836 195.201 73.584C194.8 73.9845 194.8 74.6338 195.201 75.0341L197.329 77.1622C197.956 77.7895 198.78 78.103 199.604 78.103C200.428 78.103 201.252 77.7895 201.879 77.1622L202.892 76.1493L218.058 91.3156C218.258 91.5158 218.521 91.616 218.783 91.616C219.045 91.616 219.308 91.5159 219.508 91.3156C219.909 90.9152 219.909 90.2659 219.508 89.8656L198.314 68.6717L200.29 66.6959C201.131 65.8546 202.25 65.3913 203.439 65.3913C204.629 65.3913 205.748 65.8546 206.589 66.6959L220.25 80.3564C220.45 80.5565 220.712 80.6568 220.975 80.6568C221.237 80.6568 221.5 80.5567 221.7 80.3564C222.1 79.9559 222.1 79.3067 221.7 78.9062V78.9062ZM178.162 43.5353V34.6971C178.162 34.6581 178.193 34.6266 178.232 34.6266H185.975V43.5354H178.162V43.5353Z" fill="black"/>
</g>
<path d="M326 26C313.351 26 303.061 36.2839 303.061 48.9246C303.061 61.0731 323.908 93.9454 324.795 95.3389C325.057 95.7506 325.512 96 326 96C326.488 96 326.943 95.7506 327.205 95.3389C328.092 93.9454 348.939 61.073 348.939 48.9246C348.939 36.2839 338.649 26 326 26ZM326 91.8753C324.113 88.8234 320.285 82.5057 316.493 75.5056C309.575 62.7316 305.918 53.5401 305.918 48.9246C305.918 37.8593 314.927 28.8571 326 28.8571C337.074 28.8571 346.082 37.8593 346.082 48.9246C346.082 53.5401 342.425 62.7316 335.507 75.5056C331.716 82.5056 327.887 88.8234 326 91.8753Z" fill="black"/>
<path d="M326 36.8672C320.016 36.8672 315.149 41.6028 315.149 47.4235C315.149 53.2441 320.016 57.9794 326 57.9794C331.983 57.9794 336.851 53.2441 336.851 47.4235C336.851 41.6028 331.983 36.8672 326 36.8672ZM326 55.1221C321.592 55.1221 318.006 51.6685 318.006 47.4234C318.006 43.1781 321.592 39.7242 326 39.7242C330.408 39.7242 333.994 43.1781 333.994 47.4234C333.994 51.6685 330.408 55.1221 326 55.1221Z" fill="black"/>
<path d="M289.312 120.146C288.102 120.146 287.195 119.875 286.594 119.332C285.996 118.789 285.682 118.092 285.65 117.24H286.746C286.805 117.881 287.07 118.355 287.543 118.664C288.02 118.969 288.594 119.121 289.266 119.121C289.902 119.121 290.414 118.99 290.801 118.729C291.191 118.467 291.387 118.111 291.387 117.662C291.387 117.189 291.186 116.846 290.783 116.631C290.381 116.416 289.688 116.205 288.703 115.998C287.723 115.787 287.018 115.496 286.588 115.125C286.162 114.754 285.949 114.26 285.949 113.643C285.949 112.947 286.227 112.377 286.781 111.932C287.34 111.486 288.08 111.264 289.002 111.264C289.971 111.264 290.752 111.488 291.346 111.938C291.939 112.387 292.254 113.021 292.289 113.842H291.182C291.068 112.803 290.357 112.283 289.049 112.283C288.416 112.283 287.926 112.402 287.578 112.641C287.23 112.879 287.057 113.195 287.057 113.59C287.057 113.949 287.195 114.219 287.473 114.398C287.754 114.578 288.275 114.752 289.037 114.92C289.803 115.088 290.41 115.254 290.859 115.418C291.309 115.582 291.693 115.838 292.014 116.186C292.334 116.529 292.494 116.992 292.494 117.574C292.494 118.312 292.199 118.926 291.609 119.414C291.023 119.902 290.258 120.146 289.312 120.146ZM297.867 119.209C297.316 119.834 296.697 120.146 296.01 120.146C294.607 120.146 293.906 119.381 293.906 117.85V113.783H295.014V117.803C295.014 118.311 295.104 118.676 295.283 118.898C295.463 119.121 295.76 119.232 296.174 119.232C296.791 119.232 297.355 118.9 297.867 118.236V113.783H298.969V120H297.867V119.209ZM301.717 120H300.609V113.783H301.717V120ZM301.717 112.605H300.609V111.41H301.717V112.605ZM305.766 120.012C305.523 120.059 305.26 120.082 304.975 120.082C304.521 120.082 304.189 120.002 303.979 119.842C303.768 119.678 303.637 119.469 303.586 119.215C303.535 118.961 303.51 118.615 303.51 118.178V114.65H302.742V113.783H303.51V112.236H304.611V113.783H305.619V114.65H304.611V118.236C304.611 118.662 304.664 118.934 304.77 119.051C304.879 119.164 305.027 119.221 305.215 119.221C305.406 119.221 305.59 119.205 305.766 119.174V120.012ZM310.629 118.365V116.988H309.873C308.271 116.988 307.471 117.424 307.471 118.295C307.471 118.611 307.588 118.855 307.822 119.027C308.057 119.195 308.373 119.279 308.771 119.279C309.135 119.279 309.486 119.197 309.826 119.033C310.166 118.869 310.434 118.646 310.629 118.365ZM310.629 119.361C310.066 119.885 309.342 120.146 308.455 120.146C307.838 120.146 307.33 119.98 306.932 119.648C306.533 119.312 306.334 118.881 306.334 118.354C306.334 116.9 307.586 116.174 310.09 116.174H310.629C310.629 115.729 310.605 115.406 310.559 115.207C310.512 115.004 310.381 114.836 310.166 114.703C309.951 114.57 309.609 114.504 309.141 114.504C308.156 114.504 307.648 114.855 307.617 115.559H306.516C306.598 114.281 307.492 113.643 309.199 113.643C309.996 113.643 310.617 113.801 311.062 114.117C311.508 114.434 311.73 115.055 311.73 115.98V120H310.629V119.361ZM314.479 114.527C314.971 113.938 315.562 113.643 316.254 113.643C317.066 113.643 317.695 113.932 318.141 114.51C318.586 115.084 318.809 115.861 318.809 116.842C318.809 117.861 318.559 118.668 318.059 119.262C317.562 119.852 316.936 120.146 316.178 120.146C315.506 120.146 314.939 119.938 314.479 119.52V120H313.371V111.41H314.479V114.527ZM314.479 118.523C314.951 119.027 315.494 119.279 316.107 119.279C316.584 119.279 316.963 119.076 317.244 118.67C317.525 118.26 317.666 117.65 317.666 116.842C317.666 116.076 317.533 115.496 317.268 115.102C317.002 114.703 316.631 114.504 316.154 114.504C315.541 114.504 314.982 114.859 314.479 115.57V118.523ZM321.158 120H320.051V111.41H321.158V120ZM325.436 120.146C324.521 120.146 323.787 119.861 323.232 119.291C322.678 118.717 322.4 117.918 322.4 116.895C322.4 115.879 322.668 115.084 323.203 114.51C323.742 113.932 324.445 113.643 325.312 113.643C326.199 113.643 326.906 113.926 327.434 114.492C327.965 115.059 328.23 115.859 328.23 116.895V117.158H323.549C323.596 117.877 323.793 118.41 324.141 118.758C324.492 119.105 324.924 119.279 325.436 119.279C325.822 119.279 326.17 119.182 326.479 118.986C326.791 118.787 326.955 118.506 326.971 118.143H328.113C328.027 118.783 327.736 119.277 327.24 119.625C326.748 119.973 326.146 120.146 325.436 120.146ZM327.064 116.291C326.975 115.693 326.773 115.246 326.461 114.949C326.148 114.652 325.766 114.504 325.312 114.504C324.871 114.504 324.492 114.652 324.176 114.949C323.859 115.242 323.658 115.689 323.572 116.291H327.064ZM336.047 120.146C334.836 120.146 333.93 119.875 333.328 119.332C332.73 118.789 332.416 118.092 332.385 117.24H333.48C333.539 117.881 333.805 118.355 334.277 118.664C334.754 118.969 335.328 119.121 336 119.121C336.637 119.121 337.148 118.99 337.535 118.729C337.926 118.467 338.121 118.111 338.121 117.662C338.121 117.189 337.92 116.846 337.518 116.631C337.115 116.416 336.422 116.205 335.438 115.998C334.457 115.787 333.752 115.496 333.322 115.125C332.896 114.754 332.684 114.26 332.684 113.643C332.684 112.947 332.961 112.377 333.516 111.932C334.074 111.486 334.814 111.264 335.736 111.264C336.705 111.264 337.486 111.488 338.08 111.938C338.674 112.387 338.988 113.021 339.023 113.842H337.916C337.803 112.803 337.092 112.283 335.783 112.283C335.15 112.283 334.66 112.402 334.312 112.641C333.965 112.879 333.791 113.195 333.791 113.59C333.791 113.949 333.93 114.219 334.207 114.398C334.488 114.578 335.01 114.752 335.771 114.92C336.537 115.088 337.145 115.254 337.594 115.418C338.043 115.582 338.428 115.838 338.748 116.186C339.068 116.529 339.229 116.992 339.229 117.574C339.229 118.312 338.934 118.926 338.344 119.414C337.758 119.902 336.992 120.146 336.047 120.146ZM341.771 114.527C342.264 113.938 342.855 113.643 343.547 113.643C344.359 113.643 344.988 113.932 345.434 114.51C345.879 115.084 346.102 115.861 346.102 116.842C346.102 117.861 345.852 118.668 345.352 119.262C344.855 119.852 344.229 120.146 343.471 120.146C342.799 120.146 342.232 119.938 341.771 119.52V122.391H340.664V113.783H341.771V114.527ZM341.771 118.523C342.244 119.027 342.787 119.279 343.4 119.279C343.877 119.279 344.256 119.076 344.537 118.67C344.818 118.26 344.959 117.65 344.959 116.842C344.959 116.076 344.826 115.496 344.561 115.102C344.295 114.703 343.924 114.504 343.447 114.504C342.834 114.504 342.275 114.859 341.771 115.57V118.523ZM351.281 118.365V116.988H350.525C348.924 116.988 348.123 117.424 348.123 118.295C348.123 118.611 348.24 118.855 348.475 119.027C348.709 119.195 349.025 119.279 349.424 119.279C349.787 119.279 350.139 119.197 350.479 119.033C350.818 118.869 351.086 118.646 351.281 118.365ZM351.281 119.361C350.719 119.885 349.994 120.146 349.107 120.146C348.49 120.146 347.982 119.98 347.584 119.648C347.186 119.312 346.986 118.881 346.986 118.354C346.986 116.9 348.238 116.174 350.742 116.174H351.281C351.281 115.729 351.258 115.406 351.211 115.207C351.164 115.004 351.033 114.836 350.818 114.703C350.604 114.57 350.262 114.504 349.793 114.504C348.809 114.504 348.301 114.855 348.27 115.559H347.168C347.25 114.281 348.145 113.643 349.852 113.643C350.648 113.643 351.27 113.801 351.715 114.117C352.16 114.434 352.383 115.055 352.383 115.98V120H351.281V119.361ZM356.543 120.146C355.66 120.146 354.953 119.863 354.422 119.297C353.895 118.727 353.631 117.926 353.631 116.895C353.631 115.859 353.895 115.059 354.422 114.492C354.953 113.926 355.66 113.643 356.543 113.643C357.223 113.643 357.789 113.814 358.242 114.158C358.699 114.502 358.969 114.998 359.051 115.646H357.914C357.898 115.275 357.758 114.992 357.492 114.797C357.23 114.602 356.914 114.504 356.543 114.504C356.016 114.504 355.588 114.705 355.26 115.107C354.932 115.506 354.768 116.102 354.768 116.895C354.768 117.684 354.932 118.279 355.26 118.682C355.588 119.08 356.016 119.279 356.543 119.279C356.914 119.279 357.23 119.182 357.492 118.986C357.758 118.791 357.898 118.51 357.914 118.143H359.051C358.969 118.791 358.699 119.287 358.242 119.631C357.789 119.975 357.223 120.146 356.543 120.146ZM362.666 120.146C361.752 120.146 361.018 119.861 360.463 119.291C359.908 118.717 359.631 117.918 359.631 116.895C359.631 115.879 359.898 115.084 360.434 114.51C360.973 113.932 361.676 113.643 362.543 113.643C363.43 113.643 364.137 113.926 364.664 114.492C365.195 115.059 365.461 115.859 365.461 116.895V117.158H360.779C360.826 117.877 361.023 118.41 361.371 118.758C361.723 119.105 362.154 119.279 362.666 119.279C363.053 119.279 363.4 119.182 363.709 118.986C364.021 118.787 364.186 118.506 364.201 118.143H365.344C365.258 118.783 364.967 119.277 364.471 119.625C363.979 119.973 363.377 120.146 362.666 120.146ZM364.295 116.291C364.205 115.693 364.004 115.246 363.691 114.949C363.379 114.652 362.996 114.504 362.543 114.504C362.102 114.504 361.723 114.652 361.406 114.949C361.09 115.242 360.889 115.689 360.803 116.291H364.295Z" fill="black"/>
<path d="M420.432 111.41H423.156C426.074 111.41 427.533 112.826 427.533 115.658C427.533 118.553 426.074 120 423.156 120H420.432V111.41ZM421.568 118.98H423.133C424.379 118.98 425.229 118.691 425.682 118.113C426.135 117.531 426.361 116.713 426.361 115.658C426.361 114.631 426.135 113.836 425.682 113.273C425.232 112.711 424.383 112.43 423.133 112.43H421.568V118.98ZM430.064 120H428.957V113.783H430.064V120ZM430.064 112.605H428.957V111.41H430.064V112.605ZM436.727 113.783L434.377 120H433.393L431.043 113.783H432.238L433.885 118.646L435.531 113.783H436.727ZM440.342 120.146C439.428 120.146 438.693 119.861 438.139 119.291C437.584 118.717 437.307 117.918 437.307 116.895C437.307 115.879 437.574 115.084 438.109 114.51C438.648 113.932 439.352 113.643 440.219 113.643C441.105 113.643 441.812 113.926 442.34 114.492C442.871 115.059 443.137 115.859 443.137 116.895V117.158H438.455C438.502 117.877 438.699 118.41 439.047 118.758C439.398 119.105 439.83 119.279 440.342 119.279C440.729 119.279 441.076 119.182 441.385 118.986C441.697 118.787 441.861 118.506 441.877 118.143H443.02C442.934 118.783 442.643 119.277 442.146 119.625C441.654 119.973 441.053 120.146 440.342 120.146ZM441.971 116.291C441.881 115.693 441.68 115.246 441.367 114.949C441.055 114.652 440.672 114.504 440.219 114.504C439.777 114.504 439.398 114.652 439.082 114.949C438.766 115.242 438.564 115.689 438.479 116.291H441.971ZM447.607 114.791C447.451 114.744 447.227 114.721 446.934 114.721C446.371 114.721 445.889 115.016 445.486 115.605V120H444.379V113.783H445.486V114.65C445.951 113.979 446.49 113.643 447.104 113.643C447.26 113.643 447.428 113.658 447.607 113.689V114.791ZM450.596 120.146C448.896 120.146 448.008 119.479 447.93 118.143H449.037C449.045 118.9 449.561 119.279 450.584 119.279C451.041 119.279 451.389 119.186 451.627 118.998C451.869 118.807 451.99 118.568 451.99 118.283C451.99 118.002 451.873 117.805 451.639 117.691C451.404 117.574 450.92 117.424 450.186 117.24C449.455 117.057 448.92 116.852 448.58 116.625C448.244 116.398 448.076 116 448.076 115.43C448.076 114.914 448.285 114.488 448.703 114.152C449.125 113.812 449.688 113.643 450.391 113.643C452.02 113.643 452.852 114.223 452.887 115.383H451.785C451.746 114.797 451.307 114.504 450.467 114.504C450.096 114.504 449.787 114.574 449.541 114.715C449.299 114.855 449.178 115.061 449.178 115.33C449.178 115.572 449.271 115.748 449.459 115.857C449.646 115.963 450.115 116.107 450.865 116.291C451.619 116.471 452.178 116.682 452.541 116.924C452.908 117.166 453.092 117.584 453.092 118.178C453.092 118.744 452.865 119.215 452.412 119.59C451.963 119.961 451.357 120.146 450.596 120.146ZM457.018 120.146C456.104 120.146 455.369 119.861 454.814 119.291C454.26 118.717 453.982 117.918 453.982 116.895C453.982 115.879 454.25 115.084 454.785 114.51C455.324 113.932 456.027 113.643 456.895 113.643C457.781 113.643 458.488 113.926 459.016 114.492C459.547 115.059 459.812 115.859 459.812 116.895V117.158H455.131C455.178 117.877 455.375 118.41 455.723 118.758C456.074 119.105 456.506 119.279 457.018 119.279C457.404 119.279 457.752 119.182 458.061 118.986C458.373 118.787 458.537 118.506 458.553 118.143H459.695C459.609 118.783 459.318 119.277 458.822 119.625C458.33 119.973 457.729 120.146 457.018 120.146ZM458.646 116.291C458.557 115.693 458.355 115.246 458.043 114.949C457.73 114.652 457.348 114.504 456.895 114.504C456.453 114.504 456.074 114.652 455.758 114.949C455.441 115.242 455.24 115.689 455.154 116.291H458.646ZM470.793 120H464.389V111.41H470.594V112.43H465.525V115.055H470.266V116.074H465.525V118.98H470.793V120ZM477.35 120H475.979L474.432 117.574L472.885 120H471.514L473.811 116.771L471.695 113.783H473.066L474.432 115.957L475.797 113.783H477.168L475.053 116.76L477.35 120ZM480.889 120.146C479.975 120.146 479.24 119.861 478.686 119.291C478.131 118.717 477.854 117.918 477.854 116.895C477.854 115.879 478.121 115.084 478.656 114.51C479.195 113.932 479.898 113.643 480.766 113.643C481.652 113.643 482.359 113.926 482.887 114.492C483.418 115.059 483.684 115.859 483.684 116.895V117.158H479.002C479.049 117.877 479.246 118.41 479.594 118.758C479.945 119.105 480.377 119.279 480.889 119.279C481.275 119.279 481.623 119.182 481.932 118.986C482.244 118.787 482.408 118.506 482.424 118.143H483.566C483.48 118.783 483.189 119.277 482.693 119.625C482.201 119.973 481.6 120.146 480.889 120.146ZM482.518 116.291C482.428 115.693 482.227 115.246 481.914 114.949C481.602 114.652 481.219 114.504 480.766 114.504C480.324 114.504 479.945 114.652 479.629 114.949C479.312 115.242 479.111 115.689 479.025 116.291H482.518ZM488.154 114.791C487.998 114.744 487.773 114.721 487.48 114.721C486.918 114.721 486.436 115.016 486.033 115.605V120H484.926V113.783H486.033V114.65C486.498 113.979 487.037 113.643 487.65 113.643C487.807 113.643 487.975 113.658 488.154 113.689V114.791ZM491.441 120.146C490.559 120.146 489.852 119.863 489.32 119.297C488.793 118.727 488.529 117.926 488.529 116.895C488.529 115.859 488.793 115.059 489.32 114.492C489.852 113.926 490.559 113.643 491.441 113.643C492.121 113.643 492.688 113.814 493.141 114.158C493.598 114.502 493.867 114.998 493.949 115.646H492.812C492.797 115.275 492.656 114.992 492.391 114.797C492.129 114.602 491.812 114.504 491.441 114.504C490.914 114.504 490.486 114.705 490.158 115.107C489.83 115.506 489.666 116.102 489.666 116.895C489.666 117.684 489.83 118.279 490.158 118.682C490.486 119.08 490.914 119.279 491.441 119.279C491.812 119.279 492.129 119.182 492.391 118.986C492.656 118.791 492.797 118.51 492.812 118.143H493.949C493.867 118.791 493.598 119.287 493.141 119.631C492.688 119.975 492.121 120.146 491.441 120.146ZM496.029 120H494.922V113.783H496.029V120ZM496.029 112.605H494.922V111.41H496.029V112.605ZM499.885 120.146C498.186 120.146 497.297 119.479 497.219 118.143H498.326C498.334 118.9 498.85 119.279 499.873 119.279C500.33 119.279 500.678 119.186 500.916 118.998C501.158 118.807 501.279 118.568 501.279 118.283C501.279 118.002 501.162 117.805 500.928 117.691C500.693 117.574 500.209 117.424 499.475 117.24C498.744 117.057 498.209 116.852 497.869 116.625C497.533 116.398 497.365 116 497.365 115.43C497.365 114.914 497.574 114.488 497.992 114.152C498.414 113.812 498.977 113.643 499.68 113.643C501.309 113.643 502.141 114.223 502.176 115.383H501.074C501.035 114.797 500.596 114.504 499.756 114.504C499.385 114.504 499.076 114.574 498.83 114.715C498.588 114.855 498.467 115.061 498.467 115.33C498.467 115.572 498.561 115.748 498.748 115.857C498.936 115.963 499.404 116.107 500.154 116.291C500.908 116.471 501.467 116.682 501.83 116.924C502.197 117.166 502.381 117.584 502.381 118.178C502.381 118.744 502.154 119.215 501.701 119.59C501.252 119.961 500.646 120.146 499.885 120.146ZM506.307 120.146C505.393 120.146 504.658 119.861 504.104 119.291C503.549 118.717 503.271 117.918 503.271 116.895C503.271 115.879 503.539 115.084 504.074 114.51C504.613 113.932 505.316 113.643 506.184 113.643C507.07 113.643 507.777 113.926 508.305 114.492C508.836 115.059 509.102 115.859 509.102 116.895V117.158H504.42C504.467 117.877 504.664 118.41 505.012 118.758C505.363 119.105 505.795 119.279 506.307 119.279C506.693 119.279 507.041 119.182 507.35 118.986C507.662 118.787 507.826 118.506 507.842 118.143H508.984C508.898 118.783 508.607 119.277 508.111 119.625C507.619 119.973 507.018 120.146 506.307 120.146ZM507.936 116.291C507.846 115.693 507.645 115.246 507.332 114.949C507.02 114.652 506.637 114.504 506.184 114.504C505.742 114.504 505.363 114.652 505.047 114.949C504.73 115.242 504.529 115.689 504.443 116.291H507.936Z" fill="black"/>
<path d="M483.529 55.2375V48.6471C483.529 44.1061 479.835 40.4118 475.294 40.4118H471.176V26H430V67.1765H444.412V71.2941C444.412 75.8351 448.106 79.5294 452.647 79.5294H459.237C461.15 88.9155 469.469 96 479.412 96C490.764 96 500 86.7641 500 75.4118C500 65.4692 492.915 57.1503 483.529 55.2375ZM444.412 48.6471V64.5H432.5V28.5H468.5V40.4118H452.647C448.106 40.4118 444.412 44.1061 444.412 48.6471ZM452.647 77C450.377 77 447 73.5646 447 71.2941V48.6471C447 46.3766 450.377 43 452.647 43H475.294C477.565 43 481 46.3766 481 48.6471V55.2375C466 55.2375 459 65.6476 459 77H452.647ZM480 93.5C470.847 93.5 461.5 86.0068 461.5 77C461.279 66.5 469 57.5 482 58C490.541 58.3285 497.5 66.9398 497.5 75.4118C497.5 84.4936 489.082 93.5 480 93.5Z" fill="black"/>
<path d="M584.096 113H583.018V105.693L580.568 113H579.549L577.1 105.693V113H576.021V104.41H577.727L580.053 111.57L582.391 104.41H584.096V113ZM588.391 106.643C589.277 106.643 589.984 106.926 590.512 107.492C591.043 108.059 591.309 108.859 591.309 109.895C591.309 110.926 591.043 111.727 590.512 112.297C589.984 112.863 589.277 113.146 588.391 113.146C587.508 113.146 586.801 112.863 586.27 112.297C585.742 111.727 585.479 110.926 585.479 109.895C585.479 108.859 585.742 108.059 586.27 107.492C586.801 106.926 587.508 106.643 588.391 106.643ZM588.391 112.279C588.918 112.279 589.346 112.08 589.674 111.682C590.002 111.279 590.166 110.684 590.166 109.895C590.166 109.102 590.002 108.506 589.674 108.107C589.346 107.705 588.918 107.504 588.391 107.504C587.863 107.504 587.436 107.705 587.107 108.107C586.779 108.506 586.615 109.102 586.615 109.895C586.615 110.684 586.779 111.279 587.107 111.682C587.436 112.08 587.863 112.279 588.391 112.279ZM594.965 113.012C594.723 113.059 594.459 113.082 594.174 113.082C593.721 113.082 593.389 113.002 593.178 112.842C592.967 112.678 592.836 112.469 592.785 112.215C592.734 111.961 592.709 111.615 592.709 111.178V107.65H591.941V106.783H592.709V105.236H593.811V106.783H594.818V107.65H593.811V111.236C593.811 111.662 593.863 111.934 593.969 112.051C594.078 112.164 594.227 112.221 594.414 112.221C594.605 112.221 594.789 112.205 594.965 112.174V113.012ZM596.998 113H595.891V106.783H596.998V113ZM596.998 105.605H595.891V104.41H596.998V105.605ZM603.66 106.783L601.311 113H600.326L597.977 106.783H599.172L600.818 111.646L602.465 106.783H603.66ZM608.57 111.365V109.988H607.814C606.213 109.988 605.412 110.424 605.412 111.295C605.412 111.611 605.529 111.855 605.764 112.027C605.998 112.195 606.314 112.279 606.713 112.279C607.076 112.279 607.428 112.197 607.768 112.033C608.107 111.869 608.375 111.646 608.57 111.365ZM608.57 112.361C608.008 112.885 607.283 113.146 606.396 113.146C605.779 113.146 605.271 112.98 604.873 112.648C604.475 112.312 604.275 111.881 604.275 111.354C604.275 109.9 605.527 109.174 608.031 109.174H608.57C608.57 108.729 608.547 108.406 608.5 108.207C608.453 108.004 608.322 107.836 608.107 107.703C607.893 107.57 607.551 107.504 607.082 107.504C606.098 107.504 605.59 107.855 605.559 108.559H604.457C604.539 107.281 605.434 106.643 607.141 106.643C607.938 106.643 608.559 106.801 609.004 107.117C609.449 107.434 609.672 108.055 609.672 108.98V113H608.57V112.361ZM613.727 113.012C613.484 113.059 613.221 113.082 612.936 113.082C612.482 113.082 612.15 113.002 611.939 112.842C611.729 112.678 611.598 112.469 611.547 112.215C611.496 111.961 611.471 111.615 611.471 111.178V107.65H610.703V106.783H611.471V105.236H612.572V106.783H613.58V107.65H612.572V111.236C612.572 111.662 612.625 111.934 612.73 112.051C612.84 112.164 612.988 112.221 613.176 112.221C613.367 112.221 613.551 112.205 613.727 112.174V113.012ZM615.76 113H614.652V106.783H615.76V113ZM615.76 105.605H614.652V104.41H615.76V105.605ZM619.914 106.643C620.801 106.643 621.508 106.926 622.035 107.492C622.566 108.059 622.832 108.859 622.832 109.895C622.832 110.926 622.566 111.727 622.035 112.297C621.508 112.863 620.801 113.146 619.914 113.146C619.031 113.146 618.324 112.863 617.793 112.297C617.266 111.727 617.002 110.926 617.002 109.895C617.002 108.859 617.266 108.059 617.793 107.492C618.324 106.926 619.031 106.643 619.914 106.643ZM619.914 112.279C620.441 112.279 620.869 112.08 621.197 111.682C621.525 111.279 621.689 110.684 621.689 109.895C621.689 109.102 621.525 108.506 621.197 108.107C620.869 107.705 620.441 107.504 619.914 107.504C619.387 107.504 618.959 107.705 618.631 108.107C618.303 108.506 618.139 109.102 618.139 109.895C618.139 110.684 618.303 111.279 618.631 111.682C618.959 112.08 619.387 112.279 619.914 112.279ZM625.182 107.574C625.732 106.953 626.352 106.643 627.039 106.643C628.441 106.643 629.143 107.406 629.143 108.934V113H628.035V108.98C628.035 108.473 627.943 108.107 627.76 107.885C627.58 107.662 627.283 107.551 626.869 107.551C626.307 107.551 625.744 107.883 625.182 108.547V113H624.074V106.783H625.182V107.574ZM580.674 127H579.531V118.41H580.674V127ZM583.691 121.574C584.242 120.953 584.861 120.643 585.549 120.643C586.951 120.643 587.652 121.406 587.652 122.934V127H586.545V122.98C586.545 122.473 586.453 122.107 586.27 121.885C586.09 121.662 585.793 121.551 585.379 121.551C584.816 121.551 584.254 121.883 583.691 122.547V127H582.584V120.783H583.691V121.574ZM591.783 127.146C590.9 127.146 590.193 126.863 589.662 126.297C589.135 125.727 588.871 124.926 588.871 123.895C588.871 122.859 589.135 122.059 589.662 121.492C590.193 120.926 590.9 120.643 591.783 120.643C592.463 120.643 593.029 120.814 593.482 121.158C593.939 121.502 594.209 121.998 594.291 122.646H593.154C593.139 122.275 592.998 121.992 592.732 121.797C592.471 121.602 592.154 121.504 591.783 121.504C591.256 121.504 590.828 121.705 590.5 122.107C590.172 122.506 590.008 123.102 590.008 123.895C590.008 124.684 590.172 125.279 590.5 125.682C590.828 126.08 591.256 126.279 591.783 126.279C592.154 126.279 592.471 126.182 592.732 125.986C592.998 125.791 593.139 125.51 593.154 125.143H594.291C594.209 125.791 593.939 126.287 593.482 126.631C593.029 126.975 592.463 127.146 591.783 127.146ZM597.906 127.146C596.992 127.146 596.258 126.861 595.703 126.291C595.148 125.717 594.871 124.918 594.871 123.895C594.871 122.879 595.139 122.084 595.674 121.51C596.213 120.932 596.916 120.643 597.783 120.643C598.67 120.643 599.377 120.926 599.904 121.492C600.436 122.059 600.701 122.859 600.701 123.895V124.158H596.02C596.066 124.877 596.264 125.41 596.611 125.758C596.963 126.105 597.395 126.279 597.906 126.279C598.293 126.279 598.641 126.182 598.949 125.986C599.262 125.787 599.426 125.506 599.441 125.143H600.584C600.498 125.783 600.207 126.277 599.711 126.625C599.219 126.973 598.617 127.146 597.906 127.146ZM599.535 123.291C599.445 122.693 599.244 122.246 598.932 121.949C598.619 121.652 598.236 121.504 597.783 121.504C597.342 121.504 596.963 121.652 596.646 121.949C596.33 122.242 596.129 122.689 596.043 123.291H599.535ZM603.051 121.574C603.602 120.953 604.221 120.643 604.908 120.643C606.311 120.643 607.012 121.406 607.012 122.934V127H605.904V122.98C605.904 122.473 605.812 122.107 605.629 121.885C605.449 121.662 605.152 121.551 604.738 121.551C604.176 121.551 603.613 121.883 603.051 122.547V127H601.943V120.783H603.051V121.574ZM611.037 127.012C610.795 127.059 610.531 127.082 610.246 127.082C609.793 127.082 609.461 127.002 609.25 126.842C609.039 126.678 608.908 126.469 608.857 126.215C608.807 125.961 608.781 125.615 608.781 125.178V121.65H608.014V120.783H608.781V119.236H609.883V120.783H610.891V121.65H609.883V125.236C609.883 125.662 609.936 125.934 610.041 126.051C610.15 126.164 610.299 126.221 610.486 126.221C610.678 126.221 610.861 126.205 611.037 126.174V127.012ZM613.07 127H611.963V120.783H613.07V127ZM613.07 119.605H611.963V118.41H613.07V119.605ZM619.732 120.783L617.383 127H616.398L614.049 120.783H615.244L616.891 125.646L618.537 120.783H619.732ZM623.348 127.146C622.434 127.146 621.699 126.861 621.145 126.291C620.59 125.717 620.312 124.918 620.312 123.895C620.312 122.879 620.58 122.084 621.115 121.51C621.654 120.932 622.357 120.643 623.225 120.643C624.111 120.643 624.818 120.926 625.346 121.492C625.877 122.059 626.143 122.859 626.143 123.895V124.158H621.461C621.508 124.877 621.705 125.41 622.053 125.758C622.404 126.105 622.836 126.279 623.348 126.279C623.734 126.279 624.082 126.182 624.391 125.986C624.703 125.787 624.867 125.506 624.883 125.143H626.025C625.939 125.783 625.648 126.277 625.152 126.625C624.66 126.973 624.059 127.146 623.348 127.146ZM624.977 123.291C624.887 122.693 624.686 122.246 624.373 121.949C624.061 121.652 623.678 121.504 623.225 121.504C622.783 121.504 622.404 121.652 622.088 121.949C621.771 122.242 621.57 122.689 621.484 123.291H624.977Z" fill="black"/>
<path d="M603 74.6719C603 75.427 602.388 76.0391 601.633 76.0391C600.878 76.0391 600.266 75.427 600.266 74.6719C600.266 73.9167 600.878 73.3047 601.633 73.3047C602.388 73.3047 603 73.9167 603 74.6719Z" fill="black"/>
<path d="M616.672 45.1406C615.548 45.1406 614.501 45.4819 613.631 46.0661C612.893 43.9539 610.875 42.4062 608.469 42.4062C606.837 42.4062 605.372 43.1251 604.369 44.2621C603.311 43.0637 601.835 42.4062 600.266 42.4062C598.634 42.4062 597.167 43.1262 596.164 44.2637C595.161 43.1262 593.695 42.4062 592.062 42.4062C589.047 42.4062 586.594 44.8597 586.594 47.875V55.5339C584.891 56.8157 583.859 58.8424 583.859 61C583.859 68.2856 587.291 75.1931 593.156 79.5938C594.171 80.3553 594.797 81.5612 594.797 82.875V94.6328C594.797 95.388 595.409 96 596.164 96H618.039C618.794 96 619.406 95.388 619.406 94.6328V83.095C620.296 80.3884 620.978 77.5916 621.435 74.7782C621.904 71.8905 622.141 68.9452 622.141 66.0244C622.141 64.2561 622.141 52.3873 622.141 50.6094C622.141 47.5882 619.694 45.1406 616.672 45.1406V45.1406ZM616.672 47.875C618.182 47.875 619.406 49.0991 619.406 50.6094V59.6328C619.406 61.1405 618.18 62.3672 616.672 62.3672C615.164 62.3672 613.938 61.1405 613.938 59.6328C613.938 57.3091 613.938 52.7381 613.938 50.6094C613.938 49.1017 615.164 47.875 616.672 47.875ZM608.469 45.1406C609.979 45.1406 611.203 46.3647 611.203 47.875V56.8984C611.203 58.4061 609.976 59.6328 608.469 59.6328C606.961 59.6328 605.734 58.4061 605.734 56.8984V47.875C605.734 46.3674 606.961 45.1406 608.469 45.1406ZM600.266 45.1406C601.776 45.1406 603 46.3647 603 47.875V54.1641H597.531V47.875C597.531 46.3674 598.758 45.1406 600.266 45.1406ZM592.062 45.1406C593.57 45.1406 594.797 46.3674 594.797 47.875V54.1641H590.695C590.234 54.1641 589.777 54.2116 589.328 54.3029V47.875C589.328 46.3674 590.555 45.1406 592.062 45.1406ZM597.531 93.2656V86.9766H616.672V93.2656H597.531ZM618.737 74.3402C617.855 79.7604 616.672 82.2192 616.672 82.875V84.2422H597.531V82.875C597.531 80.7569 596.544 78.7168 594.797 77.4062C589.613 73.5172 586.594 67.4188 586.594 61C586.594 58.7778 588.392 56.8968 590.695 56.8968H602.863C602.228 60.0136 599.465 62.3672 596.164 62.3672H593.43C592.675 62.3672 592.062 62.9792 592.062 63.7344C592.062 64.4895 592.675 65.1016 593.43 65.1016H594.797C597.398 65.1016 599.654 66.9499 600.16 69.4958C600.307 70.2312 601.022 70.7182 601.768 70.5698C602.509 70.4229 602.99 69.703 602.842 68.9623C602.467 67.0744 601.45 65.4428 600.048 64.2748C601.836 63.477 603.339 62.1488 604.348 60.4878C605.351 61.6382 606.826 62.3672 608.469 62.3672C609.594 62.3672 610.641 62.0254 611.511 61.4401C612.259 63.5699 614.289 65.1016 616.672 65.1016C617.667 65.1016 618.601 64.8329 619.406 64.3656V66.0244C619.406 68.7988 619.181 71.5973 618.737 74.3402Z" fill="black"/>
<path d="M605.734 35.5703V27.3672C605.734 26.612 605.122 26 604.367 26C603.612 26 603 26.612 603 27.3672V35.5703C603 36.3255 603.612 36.9375 604.367 36.9375C605.122 36.9375 605.734 36.3255 605.734 35.5703Z" fill="black"/>
<path d="M614.933 37.3097L620.733 31.5083C621.266 30.9742 621.266 30.109 620.732 29.575C620.198 29.0409 619.333 29.0409 618.799 29.575L612.999 35.3759C612.466 35.91 612.466 36.7757 613 37.3097C613.534 37.8433 614.399 37.8438 614.933 37.3097V37.3097Z" fill="black"/>
<path d="M596.536 36.5081C597.07 35.974 597.07 35.1083 596.536 34.5748L590.735 28.775C590.201 28.2414 589.336 28.2414 588.802 28.7755C588.267 29.309 588.268 30.1747 588.802 30.7088L594.602 36.5086C595.137 37.0422 596.002 37.0422 596.536 36.5081Z" fill="black"/>
<path d="M774.633 79.6792C775.388 79.6792 776 79.067 776 78.3121V75.9213C776 72.2721 773.898 69.1064 770.842 67.5653C772.432 66.2194 773.444 64.2113 773.444 61.9702V60.2662C773.444 56.2238 770.155 52.9351 766.113 52.9351C762.07 52.9351 758.782 56.2238 758.782 60.2662V61.9702C758.782 63.9183 759.547 65.6899 760.791 67.0042C758.387 67.5404 756.114 68.5636 754.084 70.0447L741.704 79.0763C741.448 79.2631 741.213 79.4729 741 79.7008C740.787 79.4729 740.552 79.2631 740.296 79.0763L727.916 70.0447C725.886 68.5636 723.613 67.5404 721.209 67.0042C722.453 65.6899 723.218 63.9183 723.218 61.9702V60.2662C723.218 56.2238 719.93 52.9351 715.887 52.9351C711.845 52.9351 708.556 56.2238 708.556 60.2662V61.9702C708.556 64.2113 709.568 66.2194 711.158 67.5653C708.102 69.1064 706 72.2721 706 75.9214V94.6298C706 95.3848 706.612 95.997 707.367 95.997H724.407C725.162 95.997 725.774 95.3848 725.774 94.6298V82.0759L734.72 87.4695C736.298 88.4213 738.199 88.4482 739.804 87.5419C740.257 87.2859 740.657 86.9695 741 86.6083C741.343 86.9696 741.743 87.286 742.196 87.5419C742.977 87.9831 743.828 88.2031 744.678 88.2031C745.574 88.2031 746.47 87.9581 747.28 87.4695L756.226 82.0759V94.6298C756.226 95.3848 756.838 95.997 757.593 95.997H774.633C775.388 95.997 776 95.3848 776 94.6298V89.6902C776 88.9352 775.388 88.323 774.633 88.323C773.878 88.323 773.266 88.9352 773.266 89.6902V93.2626H758.96V80.6456C758.96 80.5748 758.953 80.5057 758.943 80.4378L760.429 79.5417C761.075 79.1518 761.283 78.3117 760.894 77.665C760.504 77.0183 759.663 76.8098 759.017 77.2001L745.868 85.1279C745.145 85.5637 744.275 85.5761 743.541 85.161C742.806 84.746 742.367 83.9945 742.367 83.1505C742.367 82.4157 742.722 81.7183 743.315 81.2851L755.696 72.2535C758.343 70.322 761.475 69.3011 764.752 69.3011H766.645C770.296 69.3011 773.266 72.2709 773.266 75.9213V78.3121C773.266 79.067 773.878 79.6792 774.633 79.6792ZM711.29 60.2662C711.29 57.7316 713.352 55.6694 715.887 55.6694C718.422 55.6694 720.484 57.7316 720.484 60.2662V61.9702C720.484 64.5049 718.422 66.567 715.887 66.567C713.352 66.567 711.29 64.5049 711.29 61.9702V60.2662V60.2662ZM738.459 85.161C737.724 85.5759 736.854 85.5635 736.132 85.1279L722.983 77.2001C722.336 76.8099 721.496 77.0184 721.106 77.665C720.716 78.3115 720.924 79.1518 721.571 79.5417L723.056 80.4368C723.045 80.5049 723.04 80.5746 723.04 80.6456V93.2626H708.734V75.9214C708.734 72.271 711.704 69.3012 715.355 69.3012H717.248C720.525 69.3012 723.657 70.3221 726.304 72.2537L738.685 81.2853C739.278 81.7184 739.633 82.4158 739.633 83.1507C739.633 83.9945 739.194 84.746 738.459 85.161ZM770.71 61.9702C770.71 64.5049 768.647 66.567 766.113 66.567C763.578 66.567 761.516 64.5049 761.516 61.9702V60.2662C761.516 57.7316 763.578 55.6694 766.113 55.6694C768.647 55.6694 770.71 57.7316 770.71 60.2662V61.9702Z" fill="black"/>
<path d="M775.599 82.8667C775.345 82.6125 774.992 82.4674 774.633 82.4674C774.273 82.4674 773.92 82.6125 773.666 82.8667C773.412 83.1223 773.266 83.4737 773.266 83.8333C773.266 84.1942 773.412 84.5456 773.666 84.8012C773.92 85.0555 774.273 85.2018 774.633 85.2018C774.992 85.2018 775.345 85.0557 775.599 84.8012C775.853 84.5456 776 84.1942 776 83.8333C776 83.4737 775.854 83.121 775.599 82.8667Z" fill="black"/>
<path d="M762.471 26.0035H757.959C757.204 26.0035 756.592 26.6156 756.592 27.3707C756.592 28.1258 757.204 28.7379 757.959 28.7379H759.17L743.193 44.715L732.738 34.2597C732.481 34.0033 732.134 33.8592 731.771 33.8592C731.408 33.8592 731.061 34.0033 730.804 34.2597L721.062 44.002C720.528 44.536 720.528 45.4016 721.062 45.9356C721.596 46.4696 722.461 46.4695 722.996 45.9356L731.771 37.1599L742.226 47.6152C742.493 47.8822 742.843 48.0156 743.193 48.0156C743.543 48.0156 743.893 47.8822 744.16 47.6152L761.104 30.6715V31.8824C761.104 32.6375 761.716 33.2496 762.471 33.2496C763.226 33.2496 763.838 32.6375 763.838 31.8824V27.3707C763.838 26.6156 763.226 26.0035 762.471 26.0035Z" fill="black"/>
<path d="M719.545 47.4527C719.29 47.1984 718.938 47.0521 718.578 47.0521C718.218 47.0521 717.866 47.1984 717.611 47.4527C717.357 47.707 717.211 48.0597 717.211 48.4193C717.211 48.7788 717.357 49.1316 717.611 49.3859C717.866 49.6402 718.218 49.7865 718.578 49.7865C718.938 49.7865 719.29 49.6402 719.545 49.3859C719.799 49.1316 719.945 48.7788 719.945 48.4193C719.945 48.0583 719.799 47.707 719.545 47.4527Z" fill="black"/>
<path d="M708.074 111.41L705.695 120H704.605L702.543 112.535L700.475 120H699.385L697.012 111.41H698.207L699.924 118.406L701.857 111.41H703.223L705.156 118.406L706.873 111.41H708.074ZM711.531 113.643C712.418 113.643 713.125 113.926 713.652 114.492C714.184 115.059 714.449 115.859 714.449 116.895C714.449 117.926 714.184 118.727 713.652 119.297C713.125 119.863 712.418 120.146 711.531 120.146C710.648 120.146 709.941 119.863 709.41 119.297C708.883 118.727 708.619 117.926 708.619 116.895C708.619 115.859 708.883 115.059 709.41 114.492C709.941 113.926 710.648 113.643 711.531 113.643ZM711.531 119.279C712.059 119.279 712.486 119.08 712.814 118.682C713.143 118.279 713.307 117.684 713.307 116.895C713.307 116.102 713.143 115.506 712.814 115.107C712.486 114.705 712.059 114.504 711.531 114.504C711.004 114.504 710.576 114.705 710.248 115.107C709.92 115.506 709.756 116.102 709.756 116.895C709.756 117.684 709.92 118.279 710.248 118.682C710.576 119.08 711.004 119.279 711.531 119.279ZM718.92 114.791C718.764 114.744 718.539 114.721 718.246 114.721C717.684 114.721 717.201 115.016 716.799 115.605V120H715.691V113.783H716.799V114.65C717.264 113.979 717.803 113.643 718.416 113.643C718.572 113.643 718.74 113.658 718.92 113.689V114.791ZM724.826 120H723.508L721.486 116.842L720.795 117.527V120H719.688V111.41H720.795V116.279L723.191 113.783H724.586L722.23 116.098L724.826 120ZM728.207 113.643C729.094 113.643 729.801 113.926 730.328 114.492C730.859 115.059 731.125 115.859 731.125 116.895C731.125 117.926 730.859 118.727 730.328 119.297C729.801 119.863 729.094 120.146 728.207 120.146C727.324 120.146 726.617 119.863 726.086 119.297C725.559 118.727 725.295 117.926 725.295 116.895C725.295 115.859 725.559 115.059 726.086 114.492C726.617 113.926 727.324 113.643 728.207 113.643ZM728.207 119.279C728.734 119.279 729.162 119.08 729.49 118.682C729.818 118.279 729.982 117.684 729.982 116.895C729.982 116.102 729.818 115.506 729.49 115.107C729.162 114.705 728.734 114.504 728.207 114.504C727.68 114.504 727.252 114.705 726.924 115.107C726.596 115.506 726.432 116.102 726.432 116.895C726.432 117.684 726.596 118.279 726.924 118.682C727.252 119.08 727.68 119.279 728.207 119.279ZM736.305 119.209C735.754 119.834 735.135 120.146 734.447 120.146C733.045 120.146 732.344 119.381 732.344 117.85V113.783H733.451V117.803C733.451 118.311 733.541 118.676 733.721 118.898C733.9 119.121 734.197 119.232 734.611 119.232C735.229 119.232 735.793 118.9 736.305 118.236V113.783H737.406V120H736.305V119.209ZM741.461 120.012C741.219 120.059 740.955 120.082 740.67 120.082C740.217 120.082 739.885 120.002 739.674 119.842C739.463 119.678 739.332 119.469 739.281 119.215C739.23 118.961 739.205 118.615 739.205 118.178V114.65H738.438V113.783H739.205V112.236H740.307V113.783H741.314V114.65H740.307V118.236C740.307 118.662 740.359 118.934 740.465 119.051C740.574 119.164 740.723 119.221 740.91 119.221C741.102 119.221 741.285 119.205 741.461 119.174V120.012ZM745.721 111.41H748.926C749.629 111.41 750.217 111.477 750.689 111.609C751.166 111.738 751.543 112.021 751.82 112.459C752.098 112.893 752.236 113.379 752.236 113.918C752.236 114.785 751.961 115.443 751.41 115.893C750.859 116.342 750.062 116.566 749.02 116.566H746.857V120H745.721V111.41ZM746.857 115.547H749.031C749.762 115.547 750.281 115.41 750.59 115.137C750.902 114.863 751.059 114.469 751.059 113.953C751.059 113.609 750.973 113.305 750.801 113.039C750.629 112.773 750.41 112.605 750.145 112.535C749.883 112.465 749.504 112.43 749.008 112.43H746.857V115.547ZM757.516 118.365V116.988H756.76C755.158 116.988 754.357 117.424 754.357 118.295C754.357 118.611 754.475 118.855 754.709 119.027C754.943 119.195 755.26 119.279 755.658 119.279C756.021 119.279 756.373 119.197 756.713 119.033C757.053 118.869 757.32 118.646 757.516 118.365ZM757.516 119.361C756.953 119.885 756.229 120.146 755.342 120.146C754.725 120.146 754.217 119.98 753.818 119.648C753.42 119.312 753.221 118.881 753.221 118.354C753.221 116.9 754.473 116.174 756.977 116.174H757.516C757.516 115.729 757.492 115.406 757.445 115.207C757.398 115.004 757.268 114.836 757.053 114.703C756.838 114.57 756.496 114.504 756.027 114.504C755.043 114.504 754.535 114.855 754.504 115.559H753.402C753.484 114.281 754.379 113.643 756.086 113.643C756.883 113.643 757.504 113.801 757.949 114.117C758.395 114.434 758.617 115.055 758.617 115.98V120H757.516V119.361ZM763.486 114.791C763.33 114.744 763.105 114.721 762.812 114.721C762.25 114.721 761.768 115.016 761.365 115.605V120H760.258V113.783H761.365V114.65C761.83 113.979 762.369 113.643 762.982 113.643C763.139 113.643 763.307 113.658 763.486 113.689V114.791ZM766.668 120.012C766.426 120.059 766.162 120.082 765.877 120.082C765.424 120.082 765.092 120.002 764.881 119.842C764.67 119.678 764.539 119.469 764.488 119.215C764.438 118.961 764.412 118.615 764.412 118.178V114.65H763.645V113.783H764.412V112.236H765.514V113.783H766.521V114.65H765.514V118.236C765.514 118.662 765.566 118.934 765.672 119.051C765.781 119.164 765.93 119.221 766.117 119.221C766.309 119.221 766.492 119.205 766.668 119.174V120.012ZM768.701 114.574C769.252 113.953 769.871 113.643 770.559 113.643C771.961 113.643 772.662 114.406 772.662 115.934V120H771.555V115.98C771.555 115.473 771.463 115.107 771.279 114.885C771.1 114.662 770.803 114.551 770.389 114.551C769.826 114.551 769.264 114.883 768.701 115.547V120H767.594V113.783H768.701V114.574ZM776.916 120.146C776.002 120.146 775.268 119.861 774.713 119.291C774.158 118.717 773.881 117.918 773.881 116.895C773.881 115.879 774.148 115.084 774.684 114.51C775.223 113.932 775.926 113.643 776.793 113.643C777.68 113.643 778.387 113.926 778.914 114.492C779.445 115.059 779.711 115.859 779.711 116.895V117.158H775.029C775.076 117.877 775.273 118.41 775.621 118.758C775.973 119.105 776.404 119.279 776.916 119.279C777.303 119.279 777.65 119.182 777.959 118.986C778.271 118.787 778.436 118.506 778.451 118.143H779.594C779.508 118.783 779.217 119.277 778.721 119.625C778.229 119.973 777.627 120.146 776.916 120.146ZM778.545 116.291C778.455 115.693 778.254 115.246 777.941 114.949C777.629 114.652 777.246 114.504 776.793 114.504C776.352 114.504 775.973 114.652 775.656 114.949C775.34 115.242 775.139 115.689 775.053 116.291H778.545ZM784.182 114.791C784.025 114.744 783.801 114.721 783.508 114.721C782.945 114.721 782.463 115.016 782.061 115.605V120H780.953V113.783H782.061V114.65C782.525 113.979 783.064 113.643 783.678 113.643C783.834 113.643 784.002 113.658 784.182 113.689V114.791Z" fill="black"/>
<defs>
<clipPath id="clip0">
<rect width="70" height="70" fill="white" transform="translate(16 26)"/>
</clipPath>
<clipPath id="clip1">
<rect width="70" height="70" fill="white" transform="translate(153 26)"/>
</clipPath>
</defs>
</svg>
