<svg width="791" height="135" viewBox="0 0 791 135" fill="none" xmlns="http://www.w3.org/2000/svg">
<path d="M67.8438 102.504C67.8438 103.309 67.5703 103.926 67.0234 104.355C66.4766 104.785 65.6816 105 64.6387 105H61.4219V96.4102H64.4805C65.3945 96.4102 66.1133 96.6055 66.6367 96.9961C67.1602 97.3867 67.4219 97.9219 67.4219 98.6016C67.4219 99.4297 67.0098 100.043 66.1855 100.441C66.7402 100.582 67.1543 100.842 67.4277 101.221C67.7051 101.596 67.8438 102.023 67.8438 102.504ZM62.5586 100.008H64.4688C65.0977 100.008 65.5605 99.9082 65.8574 99.709C66.1543 99.5059 66.3027 99.1699 66.3027 98.7012C66.3027 98.2793 66.1582 97.9629 65.8691 97.752C65.5801 97.5371 65.0781 97.4297 64.3633 97.4297H62.5586V100.008ZM62.5586 103.98H64.627C65.9863 103.98 66.666 103.488 66.666 102.504C66.666 101.992 66.5078 101.619 66.1914 101.385C65.8789 101.146 65.3086 101.027 64.4805 101.027H62.5586V103.98ZM73.2168 103.365V101.988H72.4609C70.8594 101.988 70.0586 102.424 70.0586 103.295C70.0586 103.611 70.1758 103.855 70.4102 104.027C70.6445 104.195 70.9609 104.279 71.3594 104.279C71.7227 104.279 72.0742 104.197 72.4141 104.033C72.7539 103.869 73.0215 103.646 73.2168 103.365ZM73.2168 104.361C72.6543 104.885 71.9297 105.146 71.043 105.146C70.4258 105.146 69.918 104.98 69.5195 104.648C69.1211 104.312 68.9219 103.881 68.9219 103.354C68.9219 101.9 70.1738 101.174 72.6777 101.174H73.2168C73.2168 100.729 73.1934 100.406 73.1465 100.207C73.0996 100.004 72.9688 99.8359 72.7539 99.7031C72.5391 99.5703 72.1973 99.5039 71.7285 99.5039C70.7441 99.5039 70.2363 99.8555 70.2051 100.559H69.1035C69.1855 99.2812 70.0801 98.6426 71.7871 98.6426C72.584 98.6426 73.2051 98.8008 73.6504 99.1172C74.0957 99.4336 74.3184 100.055 74.3184 100.98V105H73.2168V104.361ZM78.4785 105.146C77.5957 105.146 76.8887 104.863 76.3574 104.297C75.8301 103.727 75.5664 102.926 75.5664 101.895C75.5664 100.859 75.8301 100.059 76.3574 99.4922C76.8887 98.9258 77.5957 98.6426 78.4785 98.6426C79.1582 98.6426 79.7246 98.8145 80.1777 99.1582C80.6348 99.502 80.9043 99.998 80.9863 100.646H79.8496C79.834 100.275 79.6934 99.9922 79.4277 99.7969C79.166 99.6016 78.8496 99.5039 78.4785 99.5039C77.9512 99.5039 77.5234 99.7051 77.1953 100.107C76.8672 100.506 76.7031 101.102 76.7031 101.895C76.7031 102.684 76.8672 103.279 77.1953 103.682C77.5234 104.08 77.9512 104.279 78.4785 104.279C78.8496 104.279 79.166 104.182 79.4277 103.986C79.6934 103.791 79.834 103.51 79.8496 103.143H80.9863C80.9043 103.791 80.6348 104.287 80.1777 104.631C79.7246 104.975 79.1582 105.146 78.4785 105.146ZM87.0977 105H85.7793L83.7578 101.842L83.0664 102.527V105H81.959V96.4102H83.0664V101.279L85.4629 98.7832H86.8574L84.502 101.098L87.0977 105ZM92.998 104.52C92.998 106.52 92.0957 107.52 90.291 107.52C89.5098 107.52 88.8926 107.35 88.4395 107.01C87.9902 106.67 87.7656 106.213 87.7656 105.639H88.9082C88.9082 106.318 89.3652 106.658 90.2793 106.658C90.7949 106.658 91.1934 106.516 91.4746 106.23C91.7559 105.949 91.8965 105.395 91.8965 104.566V104.256C91.4043 104.85 90.8125 105.146 90.1211 105.146C89.3086 105.146 88.6797 104.857 88.2344 104.279C87.7891 103.701 87.5664 102.922 87.5664 101.941C87.5664 100.926 87.8145 100.123 88.3105 99.5332C88.8105 98.9395 89.4375 98.6426 90.1914 98.6426C90.8633 98.6426 91.4316 98.8496 91.8965 99.2637V98.7832H92.998V104.52ZM91.8965 103.213V100.26C91.4199 99.7559 90.875 99.5039 90.2617 99.5039C89.7891 99.5039 89.4102 99.709 89.125 100.119C88.8438 100.525 88.7031 101.133 88.7031 101.941C88.7031 102.707 88.8359 103.289 89.1016 103.688C89.3711 104.082 89.7422 104.279 90.2148 104.279C90.832 104.279 91.3926 103.924 91.8965 103.213ZM97.8672 99.791C97.7109 99.7441 97.4863 99.7207 97.1934 99.7207C96.6309 99.7207 96.1484 100.016 95.7461 100.605V105H94.6387V98.7832H95.7461V99.6504C96.2109 98.9785 96.75 98.6426 97.3633 98.6426C97.5195 98.6426 97.6875 98.6582 97.8672 98.6895V99.791ZM101.154 98.6426C102.041 98.6426 102.748 98.9258 103.275 99.4922C103.807 100.059 104.072 100.859 104.072 101.895C104.072 102.926 103.807 103.727 103.275 104.297C102.748 104.863 102.041 105.146 101.154 105.146C100.271 105.146 99.5645 104.863 99.0332 104.297C98.5059 103.727 98.2422 102.926 98.2422 101.895C98.2422 100.859 98.5059 100.059 99.0332 99.4922C99.5645 98.9258 100.271 98.6426 101.154 98.6426ZM101.154 104.279C101.682 104.279 102.109 104.08 102.438 103.682C102.766 103.279 102.93 102.684 102.93 101.895C102.93 101.102 102.766 100.506 102.438 100.107C102.109 99.7051 101.682 99.5039 101.154 99.5039C100.627 99.5039 100.199 99.7051 99.8711 100.107C99.543 100.506 99.3789 101.102 99.3789 101.895C99.3789 102.684 99.543 103.279 99.8711 103.682C100.199 104.08 100.627 104.279 101.154 104.279ZM109.252 104.209C108.701 104.834 108.082 105.146 107.395 105.146C105.992 105.146 105.291 104.381 105.291 102.85V98.7832H106.398V102.803C106.398 103.311 106.488 103.676 106.668 103.898C106.848 104.121 107.145 104.232 107.559 104.232C108.176 104.232 108.74 103.9 109.252 103.236V98.7832H110.354V105H109.252V104.209ZM113.102 99.5742C113.652 98.9531 114.271 98.6426 114.959 98.6426C116.361 98.6426 117.062 99.4062 117.062 100.934V105H115.955V100.98C115.955 100.473 115.863 100.107 115.68 99.8848C115.5 99.6621 115.203 99.5508 114.789 99.5508C114.227 99.5508 113.664 99.8828 113.102 100.547V105H111.994V98.7832H113.102V99.5742ZM122.611 103.213V100.26C122.135 99.7559 121.59 99.5039 120.977 99.5039C120.504 99.5039 120.125 99.709 119.84 100.119C119.559 100.525 119.418 101.133 119.418 101.941C119.418 102.707 119.551 103.289 119.816 103.688C120.086 104.082 120.457 104.279 120.93 104.279C121.547 104.279 122.107 103.924 122.611 103.213ZM122.611 104.256C122.119 104.85 121.527 105.146 120.836 105.146C120.023 105.146 119.395 104.857 118.949 104.279C118.504 103.701 118.281 102.922 118.281 101.941C118.281 100.926 118.529 100.123 119.025 99.5332C119.525 98.9395 120.152 98.6426 120.906 98.6426C121.578 98.6426 122.146 98.8496 122.611 99.2637V96.4102H123.713V105H122.611V104.256ZM74.9277 119H73.6973L72.8887 116.709C72.7441 116.303 72.5039 115.971 72.168 115.713C71.832 115.455 71.4453 115.326 71.0078 115.326H68.9043V119H67.7676V110.41H71.5703C72.2344 110.41 72.7773 110.475 73.1992 110.604C73.6211 110.732 73.9648 111.004 74.2305 111.418C74.4961 111.832 74.6289 112.299 74.6289 112.818C74.6289 113.412 74.457 113.908 74.1133 114.307C73.7695 114.705 73.2988 114.965 72.7012 115.086V115.109C73.2988 115.301 73.7539 115.818 74.0664 116.662L74.9277 119ZM68.9043 114.307H71.4414C72.1484 114.307 72.6602 114.195 72.9766 113.973C73.2969 113.75 73.457 113.365 73.457 112.818C73.457 111.842 72.8438 111.354 71.6172 111.354H68.9043V114.307ZM78.9355 119.146C78.0215 119.146 77.2871 118.861 76.7324 118.291C76.1777 117.717 75.9004 116.918 75.9004 115.895C75.9004 114.879 76.168 114.084 76.7031 113.51C77.2422 112.932 77.9453 112.643 78.8125 112.643C79.6992 112.643 80.4062 112.926 80.9336 113.492C81.4648 114.059 81.7305 114.859 81.7305 115.895V116.158H77.0488C77.0957 116.877 77.293 117.41 77.6406 117.758C77.9922 118.105 78.4238 118.279 78.9355 118.279C79.3223 118.279 79.6699 118.182 79.9785 117.986C80.291 117.787 80.4551 117.506 80.4707 117.143H81.6133C81.5273 117.783 81.2363 118.277 80.7402 118.625C80.248 118.973 79.6465 119.146 78.9355 119.146ZM80.5645 115.291C80.4746 114.693 80.2734 114.246 79.9609 113.949C79.6484 113.652 79.2656 113.504 78.8125 113.504C78.3711 113.504 77.9922 113.652 77.6758 113.949C77.3594 114.242 77.1582 114.689 77.0723 115.291H80.5645ZM85.1934 119.146C83.4941 119.146 82.6055 118.479 82.5273 117.143H83.6348C83.6426 117.9 84.1582 118.279 85.1816 118.279C85.6387 118.279 85.9863 118.186 86.2246 117.998C86.4668 117.807 86.5879 117.568 86.5879 117.283C86.5879 117.002 86.4707 116.805 86.2363 116.691C86.002 116.574 85.5176 116.424 84.7832 116.24C84.0527 116.057 83.5176 115.852 83.1777 115.625C82.8418 115.398 82.6738 115 82.6738 114.43C82.6738 113.914 82.8828 113.488 83.3008 113.152C83.7227 112.812 84.2852 112.643 84.9883 112.643C86.6172 112.643 87.4492 113.223 87.4844 114.383H86.3828C86.3438 113.797 85.9043 113.504 85.0645 113.504C84.6934 113.504 84.3848 113.574 84.1387 113.715C83.8965 113.855 83.7754 114.061 83.7754 114.33C83.7754 114.572 83.8691 114.748 84.0566 114.857C84.2441 114.963 84.7129 115.107 85.4629 115.291C86.2168 115.471 86.7754 115.682 87.1387 115.924C87.5059 116.166 87.6895 116.584 87.6895 117.178C87.6895 117.744 87.4629 118.215 87.0098 118.59C86.5605 118.961 85.9551 119.146 85.1934 119.146ZM91.6152 119.146C90.7012 119.146 89.9668 118.861 89.4121 118.291C88.8574 117.717 88.5801 116.918 88.5801 115.895C88.5801 114.879 88.8477 114.084 89.3828 113.51C89.9219 112.932 90.625 112.643 91.4922 112.643C92.3789 112.643 93.0859 112.926 93.6133 113.492C94.1445 114.059 94.4102 114.859 94.4102 115.895V116.158H89.7285C89.7754 116.877 89.9727 117.41 90.3203 117.758C90.6719 118.105 91.1035 118.279 91.6152 118.279C92.002 118.279 92.3496 118.182 92.6582 117.986C92.9707 117.787 93.1348 117.506 93.1504 117.143H94.293C94.207 117.783 93.916 118.277 93.4199 118.625C92.9277 118.973 92.3262 119.146 91.6152 119.146ZM93.2441 115.291C93.1543 114.693 92.9531 114.246 92.6406 113.949C92.3281 113.652 91.9453 113.504 91.4922 113.504C91.0508 113.504 90.6719 113.652 90.3555 113.949C90.0391 114.242 89.8379 114.689 89.752 115.291H93.2441ZM99.5898 117.365V115.988H98.834C97.2324 115.988 96.4316 116.424 96.4316 117.295C96.4316 117.611 96.5488 117.855 96.7832 118.027C97.0176 118.195 97.334 118.279 97.7324 118.279C98.0957 118.279 98.4473 118.197 98.7871 118.033C99.127 117.869 99.3945 117.646 99.5898 117.365ZM99.5898 118.361C99.0273 118.885 98.3027 119.146 97.416 119.146C96.7988 119.146 96.291 118.98 95.8926 118.648C95.4941 118.312 95.2949 117.881 95.2949 117.354C95.2949 115.9 96.5469 115.174 99.0508 115.174H99.5898C99.5898 114.729 99.5664 114.406 99.5195 114.207C99.4727 114.004 99.3418 113.836 99.127 113.703C98.9121 113.57 98.5703 113.504 98.1016 113.504C97.1172 113.504 96.6094 113.855 96.5781 114.559H95.4766C95.5586 113.281 96.4531 112.643 98.1602 112.643C98.957 112.643 99.5781 112.801 100.023 113.117C100.469 113.434 100.691 114.055 100.691 114.98V119H99.5898V118.361ZM105.561 113.791C105.404 113.744 105.18 113.721 104.887 113.721C104.324 113.721 103.842 114.016 103.439 114.605V119H102.332V112.783H103.439V113.65C103.904 112.979 104.443 112.643 105.057 112.643C105.213 112.643 105.381 112.658 105.561 112.689V113.791ZM108.848 119.146C107.965 119.146 107.258 118.863 106.727 118.297C106.199 117.727 105.936 116.926 105.936 115.895C105.936 114.859 106.199 114.059 106.727 113.492C107.258 112.926 107.965 112.643 108.848 112.643C109.527 112.643 110.094 112.814 110.547 113.158C111.004 113.502 111.273 113.998 111.355 114.646H110.219C110.203 114.275 110.062 113.992 109.797 113.797C109.535 113.602 109.219 113.504 108.848 113.504C108.32 113.504 107.893 113.705 107.564 114.107C107.236 114.506 107.072 115.102 107.072 115.895C107.072 116.684 107.236 117.279 107.564 117.682C107.893 118.08 108.32 118.279 108.848 118.279C109.219 118.279 109.535 118.182 109.797 117.986C110.062 117.791 110.203 117.51 110.219 117.143H111.355C111.273 117.791 111.004 118.287 110.547 118.631C110.094 118.975 109.527 119.146 108.848 119.146ZM113.436 113.574C113.986 112.953 114.605 112.643 115.293 112.643C116.695 112.643 117.396 113.406 117.396 114.934V119H116.289V114.98C116.289 114.473 116.197 114.107 116.014 113.885C115.834 113.662 115.537 113.551 115.123 113.551C114.561 113.551 113.998 113.883 113.436 114.547V119H112.328V110.41H113.436V113.574Z" fill="black"/>
<path d="M126.101 65.0528L115.581 54.5314C118.123 51.1823 119.709 47.1678 120.116 42.9589C120.615 37.7935 119.328 32.5747 116.493 28.2633C116.182 27.7901 115.546 27.6587 115.073 27.9701C114.6 28.2814 114.469 28.9175 114.78 29.3907C120.145 37.5489 119.019 48.4901 112.104 55.4056C104.028 63.4827 90.8875 63.4827 82.8115 55.4056C74.7349 47.3286 74.7349 34.186 82.8115 26.1089C90.8875 18.0318 104.028 18.0318 112.102 26.1062L112.158 26.1628C112.557 26.5644 113.206 26.5671 113.608 26.1676C114.01 25.7687 114.012 25.1193 113.613 24.7177L113.554 24.6584C104.678 15.7818 90.237 15.7818 81.361 24.6584C81.0822 24.9372 80.8125 25.2213 80.5514 25.5107H58.0254C57.4593 25.5107 57 25.97 57 26.5361V31.0713C57 31.638 57.4593 32.0973 58.0254 32.0973C58.592 32.0973 59.0508 31.638 59.0508 31.0713V27.5621H78.9065C78.123 28.6627 77.449 29.8174 76.8845 31.0121H64.1094C63.5433 31.0121 63.084 31.4708 63.084 32.0375C63.084 32.6041 63.5433 33.0628 64.1094 33.0628H76.0359C75.7416 33.8864 75.4965 34.7232 75.3 35.5697H64.1094C63.5433 35.5697 63.084 36.0285 63.084 36.5951C63.084 37.1612 63.5433 37.6205 64.1094 37.6205H74.9208C74.806 38.452 74.7371 39.2889 74.7141 40.1268H64.1094C63.5433 40.1268 63.084 40.5861 63.084 41.1527C63.084 41.7188 63.5433 42.1781 64.1094 42.1781H74.7499C74.9347 45.1571 75.6989 48.1061 77.0453 50.8389H75.3208C74.7542 50.8389 74.2954 51.2982 74.2954 51.8648V82.2206C74.2954 82.7872 74.7542 83.2465 75.3208 83.2465H83.5239C84.0906 83.2465 84.5493 82.7872 84.5493 82.2206V59.512C85.4727 60.1481 86.4324 60.7088 87.4204 61.1932V82.2206C87.4204 82.7872 87.8797 83.2465 88.4458 83.2465H96.6489C97.2155 83.2465 97.6743 82.7872 97.6743 82.2206V63.5115C98.4738 63.5035 99.2722 63.4549 100.067 63.3641V79.2037C100.067 79.7704 100.526 80.2296 101.093 80.2296C101.659 80.2296 102.118 79.7704 102.118 79.2037V63.0341C105.359 62.3612 108.481 60.978 111.231 58.8839L121.749 69.4033C122.331 69.9843 123.103 70.3047 123.925 70.3047C124.747 70.3047 125.519 69.9843 126.101 69.4033C127.299 68.2048 127.3 66.2534 126.101 65.0528V65.0528ZM82.4985 81.1952H76.3462V52.8902H78.1935C79.0806 54.2985 80.1359 55.6305 81.361 56.8561C81.7306 57.2257 82.1108 57.5787 82.4985 57.9173V81.1952ZM89.4717 81.1952V62.0755C91.4605 62.8173 93.5327 63.2712 95.624 63.4389V81.1952H89.4717ZM124.651 67.9528C124.457 68.1466 124.199 68.2534 123.925 68.2534C123.651 68.2534 123.393 68.1466 123.2 67.9528L112.812 57.5643C113.064 57.3341 113.311 57.0991 113.554 56.8561C113.797 56.6137 114.033 56.3664 114.263 56.1138L124.65 66.5028C125.05 66.9028 125.051 67.5538 124.651 67.9528V67.9528Z" fill="black"/>
<path d="M101.093 82.5991C100.527 82.5991 100.067 83.0578 100.067 83.6245V85.9492H59.0508V35.5149C59.0508 34.9483 58.592 34.4895 58.0254 34.4895C57.4593 34.4895 57 34.9483 57 35.5149V86.9746C57 87.5412 57.4593 88 58.0254 88H101.093C101.66 88 102.118 87.5412 102.118 86.9746V83.6245C102.118 83.0578 101.66 82.5991 101.093 82.5991V82.5991Z" fill="black"/>
<path d="M61.4434 60.0677V82.2199C61.4434 82.786 61.9026 83.2453 62.4688 83.2453H70.6724C71.2385 83.2453 71.6978 82.786 71.6978 82.2199V60.0677C71.6978 59.5016 71.2385 59.0423 70.6724 59.0423H62.4688C61.9026 59.0423 61.4434 59.5016 61.4434 60.0677V60.0677ZM63.4941 61.0936H69.647V81.194H63.4941V61.0936Z" fill="black"/>
<path d="M71.7768 46.736C72.3435 46.736 72.8022 46.2767 72.8022 45.7101C72.8022 45.144 72.3435 44.6847 71.7768 44.6847H64.1094C63.5433 44.6847 63.084 45.144 63.084 45.7101C63.084 46.2767 63.5433 46.736 64.1094 46.736H71.7768Z" fill="black"/>
<path d="M97.4581 22.1C92.4678 22.1 87.7809 24.0386 84.2615 27.5586C80.7421 31.0785 78.8034 35.766 78.8034 40.7567C78.8034 45.7475 80.7421 50.4349 84.2615 53.9549C87.7815 57.4749 92.4678 59.4135 97.4581 59.4135C102.448 59.4135 107.135 57.4749 110.655 53.9549C114.174 50.4349 116.112 45.7475 116.112 40.7567C116.112 35.766 114.174 31.0785 110.655 27.5586C107.135 24.0386 102.448 22.1 97.4581 22.1V22.1ZM109.204 52.5044C106.072 55.6372 101.9 57.3622 97.4581 57.3622C93.0152 57.3622 88.8443 55.6372 85.712 52.5044C82.5792 49.3716 80.8542 45.1996 80.8542 40.7567C80.8542 36.3134 82.5792 32.1413 85.712 29.0085C88.95 25.77 93.2043 24.1502 97.4581 24.1502C101.712 24.1502 105.966 25.77 109.204 29.0085C112.336 32.1413 114.061 36.3134 114.061 40.7567C114.061 45.1996 112.336 49.3716 109.204 52.5044V52.5044Z" fill="black"/>
<path d="M667.762 105.41H670.967C671.67 105.41 672.258 105.477 672.73 105.609C673.207 105.738 673.584 106.021 673.861 106.459C674.139 106.893 674.277 107.379 674.277 107.918C674.277 108.785 674.002 109.443 673.451 109.893C672.9 110.342 672.104 110.566 671.061 110.566H668.898V114H667.762V105.41ZM668.898 109.547H671.072C671.803 109.547 672.322 109.41 672.631 109.137C672.943 108.863 673.1 108.469 673.1 107.953C673.1 107.609 673.014 107.305 672.842 107.039C672.67 106.773 672.451 106.605 672.186 106.535C671.924 106.465 671.545 106.43 671.049 106.43H668.898V109.547ZM678.848 108.791C678.691 108.744 678.467 108.721 678.174 108.721C677.611 108.721 677.129 109.016 676.727 109.605V114H675.619V107.783H676.727V108.65C677.191 107.979 677.73 107.643 678.344 107.643C678.5 107.643 678.668 107.658 678.848 107.689V108.791ZM682.135 107.643C683.021 107.643 683.729 107.926 684.256 108.492C684.787 109.059 685.053 109.859 685.053 110.895C685.053 111.926 684.787 112.727 684.256 113.297C683.729 113.863 683.021 114.146 682.135 114.146C681.252 114.146 680.545 113.863 680.014 113.297C679.486 112.727 679.223 111.926 679.223 110.895C679.223 109.859 679.486 109.059 680.014 108.492C680.545 107.926 681.252 107.643 682.135 107.643ZM682.135 113.279C682.662 113.279 683.09 113.08 683.418 112.682C683.746 112.279 683.91 111.684 683.91 110.895C683.91 110.102 683.746 109.506 683.418 109.107C683.09 108.705 682.662 108.504 682.135 108.504C681.607 108.504 681.18 108.705 680.852 109.107C680.523 109.506 680.359 110.102 680.359 110.895C680.359 111.684 680.523 112.279 680.852 112.682C681.18 113.08 681.607 113.279 682.135 113.279ZM688.709 114.012C688.467 114.059 688.203 114.082 687.918 114.082C687.465 114.082 687.133 114.002 686.922 113.842C686.711 113.678 686.58 113.469 686.529 113.215C686.479 112.961 686.453 112.615 686.453 112.178V108.65H685.686V107.783H686.453V106.236H687.555V107.783H688.562V108.65H687.555V112.236C687.555 112.662 687.607 112.934 687.713 113.051C687.822 113.164 687.971 113.221 688.158 113.221C688.35 113.221 688.533 113.205 688.709 113.174V114.012ZM692.154 107.643C693.041 107.643 693.748 107.926 694.275 108.492C694.807 109.059 695.072 109.859 695.072 110.895C695.072 111.926 694.807 112.727 694.275 113.297C693.748 113.863 693.041 114.146 692.154 114.146C691.271 114.146 690.564 113.863 690.033 113.297C689.506 112.727 689.242 111.926 689.242 110.895C689.242 109.859 689.506 109.059 690.033 108.492C690.564 107.926 691.271 107.643 692.154 107.643ZM692.154 113.279C692.682 113.279 693.109 113.08 693.438 112.682C693.766 112.279 693.93 111.684 693.93 110.895C693.93 110.102 693.766 109.506 693.438 109.107C693.109 108.705 692.682 108.504 692.154 108.504C691.627 108.504 691.199 108.705 690.871 109.107C690.543 109.506 690.379 110.102 690.379 110.895C690.379 111.684 690.543 112.279 690.871 112.682C691.199 113.08 691.627 113.279 692.154 113.279ZM698.729 114.012C698.486 114.059 698.223 114.082 697.938 114.082C697.484 114.082 697.152 114.002 696.941 113.842C696.73 113.678 696.6 113.469 696.549 113.215C696.498 112.961 696.473 112.615 696.473 112.178V108.65H695.705V107.783H696.473V106.236H697.574V107.783H698.582V108.65H697.574V112.236C697.574 112.662 697.627 112.934 697.732 113.051C697.842 113.164 697.99 113.221 698.178 113.221C698.369 113.221 698.553 113.205 698.729 113.174V114.012ZM700.006 115.5C700.553 115.5 701 115 701.348 114L698.998 107.783H700.193L701.84 112.646L703.486 107.783H704.682L702.332 114C702.105 114.594 701.912 115.051 701.752 115.371C701.596 115.695 701.389 115.967 701.131 116.186C700.877 116.408 700.564 116.52 700.193 116.52C699.916 116.52 699.678 116.492 699.479 116.438V115.418C699.65 115.473 699.826 115.5 700.006 115.5ZM706.762 108.527C707.254 107.938 707.846 107.643 708.537 107.643C709.35 107.643 709.979 107.932 710.424 108.51C710.869 109.084 711.092 109.861 711.092 110.842C711.092 111.861 710.842 112.668 710.342 113.262C709.846 113.852 709.219 114.146 708.461 114.146C707.789 114.146 707.223 113.938 706.762 113.52V116.391H705.654V107.783H706.762V108.527ZM706.762 112.523C707.234 113.027 707.777 113.279 708.391 113.279C708.867 113.279 709.246 113.076 709.527 112.67C709.809 112.26 709.949 111.65 709.949 110.842C709.949 110.076 709.816 109.496 709.551 109.102C709.285 108.703 708.914 108.504 708.438 108.504C707.824 108.504 707.266 108.859 706.762 109.57V112.523ZM714.977 114.146C714.062 114.146 713.328 113.861 712.773 113.291C712.219 112.717 711.941 111.918 711.941 110.895C711.941 109.879 712.209 109.084 712.744 108.51C713.283 107.932 713.986 107.643 714.854 107.643C715.74 107.643 716.447 107.926 716.975 108.492C717.506 109.059 717.771 109.859 717.771 110.895V111.158H713.09C713.137 111.877 713.334 112.41 713.682 112.758C714.033 113.105 714.465 113.279 714.977 113.279C715.363 113.279 715.711 113.182 716.02 112.986C716.332 112.787 716.496 112.506 716.512 112.143H717.654C717.568 112.783 717.277 113.277 716.781 113.625C716.289 113.973 715.688 114.146 714.977 114.146ZM716.605 110.291C716.516 109.693 716.314 109.246 716.002 108.949C715.689 108.652 715.307 108.504 714.854 108.504C714.412 108.504 714.033 108.652 713.717 108.949C713.4 109.242 713.199 109.689 713.113 110.291H716.605Z" fill="black"/>
<path d="M708.039 18H677.961C675.134 18 672.834 20.2999 672.834 23.127V82.873C672.834 85.7001 675.134 88 677.961 88H708.039C710.866 88 713.166 85.7001 713.166 82.873V23.127C713.166 20.2999 710.866 18 708.039 18ZM711.115 73.6445H682.062C681.496 73.6445 681.037 74.1036 681.037 74.6699C681.037 75.2362 681.496 75.6953 682.062 75.6953H711.115V82.873C711.115 84.5693 709.735 85.9492 708.039 85.9492H677.961C676.265 85.9492 674.885 84.5693 674.885 82.873V75.6953H677.961C678.527 75.6953 678.986 75.2362 678.986 74.6699C678.986 74.1036 678.527 73.6445 677.961 73.6445H674.885V28.2539H711.115V73.6445ZM711.115 26.2031H674.885V23.127C674.885 21.4307 676.265 20.0508 677.961 20.0508H708.039C709.735 20.0508 711.115 21.4307 711.115 23.127V26.2031Z" fill="black"/>
<path d="M697.102 22.1016H693C692.434 22.1016 691.975 22.5607 691.975 23.127C691.975 23.6932 692.434 24.1523 693 24.1523H697.102C697.668 24.1523 698.127 23.6932 698.127 23.127C698.127 22.5607 697.668 22.1016 697.102 22.1016Z" fill="black"/>
<path d="M693 77.7461C691.304 77.7461 689.924 79.126 689.924 80.8223C689.924 82.5185 691.304 83.8984 693 83.8984C694.696 83.8984 696.076 82.5185 696.076 80.8223C696.076 79.126 694.696 77.7461 693 77.7461ZM693 81.8477C692.435 81.8477 691.975 81.3877 691.975 80.8223C691.975 80.2568 692.435 79.7969 693 79.7969C693.565 79.7969 694.025 80.2568 694.025 80.8223C694.025 81.3877 693.565 81.8477 693 81.8477Z" fill="black"/>
<path d="M688.898 24.1523C689.465 24.1523 689.924 23.6933 689.924 23.127C689.924 22.5606 689.465 22.1016 688.898 22.1016C688.332 22.1016 687.873 22.5606 687.873 23.127C687.873 23.6933 688.332 24.1523 688.898 24.1523Z" fill="black"/>
<g clip-path="url(#clip0)">
<path d="M329 65.0093L312.598 47.5186V58.8565H306C306.694 56.8904 307.5 54.6048 307.5 52.5C307.5 42.3221 300.215 34.2454 290.037 34.2454C279.859 34.2454 271.579 42.5258 271.579 52.7038C271.579 54.8603 271.952 56.9311 272.635 58.8565H259V71.1621H312.598V82.5L329 65.0093ZM261.5 68.7201V61.2201H273.5C274.5 63.7201 277 67.2201 280.5 68.7201H261.5ZM287.5 68.7201C279.584 68.7201 274 60.6199 274 52.7038C274 44.7876 280.5 36 290.037 36.5C297.953 36.5 305.5 43.2391 305.5 52.5C305.5 54.636 304.407 56.9443 303.5 58.8565H296C298 57.5 299 55.0105 299 52.7038C299 48 296.051 43.7201 290.037 43.7201C284.5 43.7201 281 47.5186 281 52.2201C281 57.8745 284.383 61.2201 290.037 61.2201H315V53.7201L325.5 65.0093L315 76.7201V68.7201H287.5ZM290.037 58.8565C286 58.8565 283.5 56.0964 283.5 52.7038C283.5 48 286.5 46 290.037 46C294 46 296.5 49.1074 296.5 52.5C296.5 55.8927 293.43 58.8565 290.037 58.8565Z" fill="black"/>
<path d="M287.986 22.7198H290.036V30.9235H287.986V22.7198Z" fill="black"/>
<path d="M276.374 25.8414L278.273 25.0545L281.415 32.6347L279.516 33.4216L276.374 25.8414Z" fill="black"/>
<path d="M266.831 33.1803L268.285 31.7272L274.085 37.5272L272.631 38.9803L266.831 33.1803Z" fill="black"/>
<path d="M296.789 31.8545L299.931 24.2743L301.825 25.0592L298.683 32.6395L296.789 31.8545Z" fill="black"/>
<path d="M304.533 36.0844L310.333 30.2844L311.783 31.7339L305.983 37.534L304.533 36.0844Z" fill="black"/>
</g>
<path d="M275.006 114H273.863V105.41H275.006V114ZM279.33 114.012C279.088 114.059 278.824 114.082 278.539 114.082C278.086 114.082 277.754 114.002 277.543 113.842C277.332 113.678 277.201 113.469 277.15 113.215C277.1 112.961 277.074 112.615 277.074 112.178V108.65H276.307V107.783H277.074V106.236H278.176V107.783H279.184V108.65H278.176V112.236C278.176 112.662 278.229 112.934 278.334 113.051C278.443 113.164 278.592 113.221 278.779 113.221C278.971 113.221 279.154 113.205 279.33 113.174V114.012ZM282.898 114.146C281.984 114.146 281.25 113.861 280.695 113.291C280.141 112.717 279.863 111.918 279.863 110.895C279.863 109.879 280.131 109.084 280.666 108.51C281.205 107.932 281.908 107.643 282.775 107.643C283.662 107.643 284.369 107.926 284.896 108.492C285.428 109.059 285.693 109.859 285.693 110.895V111.158H281.012C281.059 111.877 281.256 112.41 281.604 112.758C281.955 113.105 282.387 113.279 282.898 113.279C283.285 113.279 283.633 113.182 283.941 112.986C284.254 112.787 284.418 112.506 284.434 112.143H285.576C285.49 112.783 285.199 113.277 284.703 113.625C284.211 113.973 283.609 114.146 282.898 114.146ZM284.527 110.291C284.438 109.693 284.236 109.246 283.924 108.949C283.611 108.652 283.229 108.504 282.775 108.504C282.334 108.504 281.955 108.652 281.639 108.949C281.322 109.242 281.121 109.689 281.035 110.291H284.527ZM290.164 108.791C290.008 108.744 289.783 108.721 289.49 108.721C288.928 108.721 288.445 109.016 288.043 109.605V114H286.936V107.783H288.043V108.65C288.508 107.979 289.047 107.643 289.66 107.643C289.816 107.643 289.984 107.658 290.164 107.689V108.791ZM294.869 112.365V110.988H294.113C292.512 110.988 291.711 111.424 291.711 112.295C291.711 112.611 291.828 112.855 292.062 113.027C292.297 113.195 292.613 113.279 293.012 113.279C293.375 113.279 293.727 113.197 294.066 113.033C294.406 112.869 294.674 112.646 294.869 112.365ZM294.869 113.361C294.307 113.885 293.582 114.146 292.695 114.146C292.078 114.146 291.57 113.98 291.172 113.648C290.773 113.312 290.574 112.881 290.574 112.354C290.574 110.9 291.826 110.174 294.33 110.174H294.869C294.869 109.729 294.846 109.406 294.799 109.207C294.752 109.004 294.621 108.836 294.406 108.703C294.191 108.57 293.85 108.504 293.381 108.504C292.396 108.504 291.889 108.855 291.857 109.559H290.756C290.838 108.281 291.732 107.643 293.439 107.643C294.236 107.643 294.857 107.801 295.303 108.117C295.748 108.434 295.971 109.055 295.971 109.98V114H294.869V113.361ZM300.025 114.012C299.783 114.059 299.52 114.082 299.234 114.082C298.781 114.082 298.449 114.002 298.238 113.842C298.027 113.678 297.896 113.469 297.846 113.215C297.795 112.961 297.77 112.615 297.77 112.178V108.65H297.002V107.783H297.77V106.236H298.871V107.783H299.879V108.65H298.871V112.236C298.871 112.662 298.924 112.934 299.029 113.051C299.139 113.164 299.287 113.221 299.475 113.221C299.666 113.221 299.85 113.205 300.025 113.174V114.012ZM302.059 114H300.951V107.783H302.059V114ZM302.059 106.605H300.951V105.41H302.059V106.605ZM306.213 107.643C307.1 107.643 307.807 107.926 308.334 108.492C308.865 109.059 309.131 109.859 309.131 110.895C309.131 111.926 308.865 112.727 308.334 113.297C307.807 113.863 307.1 114.146 306.213 114.146C305.33 114.146 304.623 113.863 304.092 113.297C303.564 112.727 303.301 111.926 303.301 110.895C303.301 109.859 303.564 109.059 304.092 108.492C304.623 107.926 305.33 107.643 306.213 107.643ZM306.213 113.279C306.74 113.279 307.168 113.08 307.496 112.682C307.824 112.279 307.988 111.684 307.988 110.895C307.988 110.102 307.824 109.506 307.496 109.107C307.168 108.705 306.74 108.504 306.213 108.504C305.686 108.504 305.258 108.705 304.93 109.107C304.602 109.506 304.438 110.102 304.438 110.895C304.438 111.684 304.602 112.279 304.93 112.682C305.258 113.08 305.686 113.279 306.213 113.279ZM311.48 108.574C312.031 107.953 312.65 107.643 313.338 107.643C314.74 107.643 315.441 108.406 315.441 109.934V114H314.334V109.98C314.334 109.473 314.242 109.107 314.059 108.885C313.879 108.662 313.582 108.551 313.168 108.551C312.605 108.551 312.043 108.883 311.48 109.547V114H310.373V107.783H311.48V108.574Z" fill="black"/>
<path d="M467.834 114.146C466.838 114.146 466.092 113.953 465.596 113.566C465.104 113.18 464.791 112.725 464.658 112.201C464.529 111.678 464.465 111.07 464.465 110.379V105.41H465.602V110.361C465.602 111.49 465.791 112.232 466.17 112.588C466.549 112.943 467.104 113.121 467.834 113.121C468.564 113.121 469.119 112.943 469.498 112.588C469.877 112.232 470.066 111.49 470.066 110.361V105.41H471.209V110.379C471.209 111.418 471.084 112.184 470.834 112.676C470.588 113.168 470.215 113.537 469.715 113.783C469.215 114.025 468.588 114.146 467.834 114.146ZM475.211 114.146C473.512 114.146 472.623 113.479 472.545 112.143H473.652C473.66 112.9 474.176 113.279 475.199 113.279C475.656 113.279 476.004 113.186 476.242 112.998C476.484 112.807 476.605 112.568 476.605 112.283C476.605 112.002 476.488 111.805 476.254 111.691C476.02 111.574 475.535 111.424 474.801 111.24C474.07 111.057 473.535 110.852 473.195 110.625C472.859 110.398 472.691 110 472.691 109.43C472.691 108.914 472.9 108.488 473.318 108.152C473.74 107.812 474.303 107.643 475.006 107.643C476.635 107.643 477.467 108.223 477.502 109.383H476.4C476.361 108.797 475.922 108.504 475.082 108.504C474.711 108.504 474.402 108.574 474.156 108.715C473.914 108.855 473.793 109.061 473.793 109.33C473.793 109.572 473.887 109.748 474.074 109.857C474.262 109.963 474.73 110.107 475.48 110.291C476.234 110.471 476.793 110.682 477.156 110.924C477.523 111.166 477.707 111.584 477.707 112.178C477.707 112.744 477.48 113.215 477.027 113.59C476.578 113.961 475.973 114.146 475.211 114.146ZM481.633 114.146C480.719 114.146 479.984 113.861 479.43 113.291C478.875 112.717 478.598 111.918 478.598 110.895C478.598 109.879 478.865 109.084 479.4 108.51C479.939 107.932 480.643 107.643 481.51 107.643C482.396 107.643 483.104 107.926 483.631 108.492C484.162 109.059 484.428 109.859 484.428 110.895V111.158H479.746C479.793 111.877 479.99 112.41 480.338 112.758C480.689 113.105 481.121 113.279 481.633 113.279C482.02 113.279 482.367 113.182 482.676 112.986C482.988 112.787 483.152 112.506 483.168 112.143H484.311C484.225 112.783 483.934 113.277 483.438 113.625C482.945 113.973 482.344 114.146 481.633 114.146ZM483.262 110.291C483.172 109.693 482.971 109.246 482.658 108.949C482.346 108.652 481.963 108.504 481.51 108.504C481.068 108.504 480.689 108.652 480.373 108.949C480.057 109.242 479.855 109.689 479.77 110.291H483.262ZM488.898 108.791C488.742 108.744 488.518 108.721 488.225 108.721C487.662 108.721 487.18 109.016 486.777 109.605V114H485.67V107.783H486.777V108.65C487.242 107.979 487.781 107.643 488.395 107.643C488.551 107.643 488.719 107.658 488.898 107.689V108.791ZM499.105 106.43H496.264V114H495.121V106.43H492.303V105.41H499.105V106.43ZM502.832 114.146C501.918 114.146 501.184 113.861 500.629 113.291C500.074 112.717 499.797 111.918 499.797 110.895C499.797 109.879 500.064 109.084 500.6 108.51C501.139 107.932 501.842 107.643 502.709 107.643C503.596 107.643 504.303 107.926 504.83 108.492C505.361 109.059 505.627 109.859 505.627 110.895V111.158H500.945C500.992 111.877 501.189 112.41 501.537 112.758C501.889 113.105 502.32 113.279 502.832 113.279C503.219 113.279 503.566 113.182 503.875 112.986C504.188 112.787 504.352 112.506 504.367 112.143H505.51C505.424 112.783 505.133 113.277 504.637 113.625C504.145 113.973 503.543 114.146 502.832 114.146ZM504.461 110.291C504.371 109.693 504.17 109.246 503.857 108.949C503.545 108.652 503.162 108.504 502.709 108.504C502.268 108.504 501.889 108.652 501.572 108.949C501.256 109.242 501.055 109.689 500.969 110.291H504.461ZM509.09 114.146C507.391 114.146 506.502 113.479 506.424 112.143H507.531C507.539 112.9 508.055 113.279 509.078 113.279C509.535 113.279 509.883 113.186 510.121 112.998C510.363 112.807 510.484 112.568 510.484 112.283C510.484 112.002 510.367 111.805 510.133 111.691C509.898 111.574 509.414 111.424 508.68 111.24C507.949 111.057 507.414 110.852 507.074 110.625C506.738 110.398 506.57 110 506.57 109.43C506.57 108.914 506.779 108.488 507.197 108.152C507.619 107.812 508.182 107.643 508.885 107.643C510.514 107.643 511.346 108.223 511.381 109.383H510.279C510.24 108.797 509.801 108.504 508.961 108.504C508.59 108.504 508.281 108.574 508.035 108.715C507.793 108.855 507.672 109.061 507.672 109.33C507.672 109.572 507.766 109.748 507.953 109.857C508.141 109.963 508.609 110.107 509.359 110.291C510.113 110.471 510.672 110.682 511.035 110.924C511.402 111.166 511.586 111.584 511.586 112.178C511.586 112.744 511.359 113.215 510.906 113.59C510.457 113.961 509.852 114.146 509.09 114.146ZM515.283 114.012C515.041 114.059 514.777 114.082 514.492 114.082C514.039 114.082 513.707 114.002 513.496 113.842C513.285 113.678 513.154 113.469 513.104 113.215C513.053 112.961 513.027 112.615 513.027 112.178V108.65H512.26V107.783H513.027V106.236H514.129V107.783H515.137V108.65H514.129V112.236C514.129 112.662 514.182 112.934 514.287 113.051C514.396 113.164 514.545 113.221 514.732 113.221C514.924 113.221 515.107 113.205 515.283 113.174V114.012ZM517.316 114H516.209V107.783H517.316V114ZM517.316 106.605H516.209V105.41H517.316V106.605ZM520.059 108.574C520.609 107.953 521.229 107.643 521.916 107.643C523.318 107.643 524.02 108.406 524.02 109.934V114H522.912V109.98C522.912 109.473 522.82 109.107 522.637 108.885C522.457 108.662 522.16 108.551 521.746 108.551C521.184 108.551 520.621 108.883 520.059 109.547V114H518.951V107.783H520.059V108.574ZM530.67 113.52C530.67 115.52 529.768 116.52 527.963 116.52C527.182 116.52 526.564 116.35 526.111 116.01C525.662 115.67 525.438 115.213 525.438 114.639H526.58C526.58 115.318 527.037 115.658 527.951 115.658C528.467 115.658 528.865 115.516 529.146 115.23C529.428 114.949 529.568 114.395 529.568 113.566V113.256C529.076 113.85 528.484 114.146 527.793 114.146C526.98 114.146 526.352 113.857 525.906 113.279C525.461 112.701 525.238 111.922 525.238 110.941C525.238 109.926 525.486 109.123 525.982 108.533C526.482 107.939 527.109 107.643 527.863 107.643C528.535 107.643 529.104 107.85 529.568 108.264V107.783H530.67V113.52ZM529.568 112.213V109.26C529.092 108.756 528.547 108.504 527.934 108.504C527.461 108.504 527.082 108.709 526.797 109.119C526.516 109.525 526.375 110.133 526.375 110.941C526.375 111.707 526.508 112.289 526.773 112.688C527.043 113.082 527.414 113.279 527.887 113.279C528.504 113.279 529.064 112.924 529.568 112.213Z" fill="black"/>
<g clip-path="url(#clip1)">
<path d="M486.505 72.3561C487.123 71.2558 487.477 69.9884 487.477 68.6392V65.5141C487.477 61.314 484.06 57.897 479.86 57.897C475.659 57.897 472.242 61.314 472.242 65.5141V68.6392C472.242 69.9884 472.596 71.2559 473.214 72.3562C469.693 74.6151 467.555 78.4678 467.555 82.7016V86.6329C467.555 87.388 468.167 88.0001 468.922 88.0001H490.797C491.552 88.0001 492.164 87.388 492.164 86.6329V82.7016C492.164 78.4692 490.026 74.6151 486.505 72.3561V72.3561ZM474.977 65.5141C474.977 62.8217 477.167 60.6313 479.859 60.6313C482.552 60.6313 484.742 62.8217 484.742 65.5141V68.6392C484.742 71.3316 482.552 73.522 479.859 73.522C477.167 73.522 474.976 71.3316 474.976 68.6392V65.5141H474.977ZM489.43 85.2657H470.289V82.7016C470.289 79.2988 472.068 76.2111 474.978 74.4807C476.301 75.5881 478.003 76.2564 479.86 76.2564C481.716 76.2564 483.418 75.5881 484.741 74.4807C487.65 76.2113 489.43 79.3 489.43 82.7016V85.2657Z" fill="black"/>
<path d="M503.475 44.2955C504.058 43.4204 505.192 42.2469 506.224 41.2143C507.184 40.2549 507.937 39.13 508.463 37.871C508.988 36.6138 509.254 35.2905 509.254 33.938C509.254 31.1995 508.187 28.6245 506.25 26.6877C504.313 24.7508 501.739 23.6842 499 23.6842C496.261 23.6842 493.686 24.7509 491.75 26.6877C489.813 28.6245 488.746 31.1994 488.746 33.938C488.746 36.1996 490.586 38.0395 492.848 38.0395C495.109 38.0395 496.949 36.1996 496.949 33.938C496.949 33.39 497.162 32.875 497.55 32.4878C497.937 32.1005 498.452 31.8873 499 31.8873C499.548 31.8873 500.063 32.1006 500.45 32.4878C500.838 32.875 501.051 33.39 501.051 33.938C501.051 34.2165 500.999 34.4806 500.898 34.7236C500.795 34.9708 500.635 35.2032 500.424 35.4141C498.56 37.2783 497.466 38.5399 496.649 39.7688C495.455 41.5635 494.898 43.2663 494.898 45.1275C494.898 46.1772 495.295 47.1357 495.946 47.862C495.295 48.5884 494.898 49.5472 494.898 50.5974C494.898 52.859 496.738 54.699 499 54.699C501.262 54.699 503.102 52.859 503.102 50.5974V50.5963C503.102 49.5466 502.705 48.5881 502.054 47.862C502.705 47.1357 503.102 46.1772 503.102 45.1276C503.102 45.0041 503.167 44.7598 503.475 44.2955ZM498.925 41.2833C499.636 40.2154 500.63 39.0752 502.358 37.3476C502.822 36.8833 503.18 36.3549 503.421 35.7774C503.663 35.1991 503.785 34.5802 503.785 33.9378C503.785 32.6594 503.288 31.4578 502.384 30.5541C501.48 29.6505 500.278 29.1527 499 29.1527C497.722 29.1527 496.52 29.6503 495.616 30.5541C494.713 31.4578 494.215 32.6594 494.215 33.9378C494.215 34.6917 493.602 35.305 492.848 35.305C492.094 35.305 491.481 34.6917 491.481 33.9378C491.481 31.9296 492.263 30.0414 493.683 28.621C495.104 27.2006 496.992 26.4183 499 26.4183C501.008 26.4183 502.897 27.2006 504.317 28.6209C505.737 30.0414 506.52 31.9296 506.52 33.9377C506.52 34.9266 506.324 35.8953 505.94 36.8169C505.552 37.7456 504.997 38.5745 504.291 39.2807C502.671 40.9005 501.775 41.9146 501.199 42.7807C500.632 43.6334 500.367 44.3791 500.367 45.1273C500.367 45.8812 499.754 46.4945 499 46.4945C498.246 46.4945 497.633 45.8812 497.633 45.1273C497.633 43.8122 498.032 42.6267 498.925 41.2833V41.2833ZM500.367 50.5973C500.367 51.3512 499.754 51.9645 499 51.9645C498.246 51.9645 497.633 51.3512 497.633 50.5962C497.633 49.8423 498.246 49.229 499 49.229C499.754 49.229 500.367 49.8423 500.367 50.5962V50.5973Z" fill="black"/>
<path d="M520.191 39.1913C520.191 27.5063 510.685 18 499 18C495.594 18 492.34 18.7842 489.329 20.331C488.657 20.6761 488.393 21.5003 488.738 22.172C489.083 22.8435 489.907 23.1083 490.579 22.7633C493.199 21.417 496.032 20.7344 499 20.7344C509.177 20.7344 517.457 29.0142 517.457 39.1913C517.457 49.3685 509.177 57.6483 499 57.6483C488.823 57.6483 480.543 49.3685 480.543 39.1913C480.543 36.2234 481.226 33.3895 482.572 30.7689C482.917 30.0972 482.653 29.2731 481.981 28.928C481.31 28.5829 480.485 28.8476 480.14 29.5192C478.593 32.5303 477.809 35.7844 477.809 39.1913C477.809 50.8762 487.315 60.3826 499 60.3826C510.685 60.3826 520.191 50.8764 520.191 39.1913Z" fill="black"/>
<path d="M524.786 72.3561C525.404 71.2558 525.758 69.9884 525.758 68.6392V65.5141C525.758 61.314 522.341 57.897 518.141 57.897C513.94 57.897 510.523 61.314 510.523 65.5141V68.6392C510.523 69.9884 510.878 71.2559 511.496 72.3562C507.974 74.6151 505.836 78.4678 505.836 82.7016V86.6329C505.836 87.388 506.448 88.0001 507.203 88.0001H529.078C529.833 88.0001 530.445 87.388 530.445 86.6329V82.7016C530.445 78.4692 528.307 74.6151 524.786 72.3561V72.3561ZM513.258 65.5141C513.258 62.8217 515.448 60.6313 518.14 60.6313C520.833 60.6313 523.023 62.8217 523.023 65.5141V68.6392C523.023 71.3316 520.833 73.522 518.14 73.522C515.448 73.522 513.258 71.3316 513.258 68.6392V65.5141H513.258ZM527.711 85.2657H508.57V82.7016C508.57 79.2988 510.349 76.2111 513.259 74.4807C514.582 75.5881 516.284 76.2564 518.141 76.2564C519.997 76.2564 521.7 75.5881 523.022 74.4807C525.932 76.2113 527.711 79.3 527.711 82.7016V85.2657Z" fill="black"/>
<path d="M484.982 26.5408C485.354 26.5408 485.724 26.39 485.994 26.0933L485.995 26.0926C486.503 25.534 486.461 24.6697 485.902 24.1618C485.344 23.6539 484.479 23.6953 483.971 24.2541C483.463 24.8127 483.504 25.6774 484.063 26.1853C484.325 26.4234 484.654 26.5408 484.982 26.5408V26.5408Z" fill="black"/>
</g>
<path d="M431.354 61.3536C431.549 61.1583 431.549 60.8417 431.354 60.6464L428.172 57.4645C427.976 57.2692 427.66 57.2692 427.464 57.4645C427.269 57.6597 427.269 57.9763 427.464 58.1716L430.293 61L427.464 63.8284C427.269 64.0237 427.269 64.3403 427.464 64.5355C427.66 64.7308 427.976 64.7308 428.172 64.5355L431.354 61.3536ZM361 61.5H431V60.5H361V61.5Z" fill="black"/>
<path d="M630.354 61.3536C630.549 61.1583 630.549 60.8417 630.354 60.6464L627.172 57.4645C626.976 57.2692 626.66 57.2692 626.464 57.4645C626.269 57.6597 626.269 57.9763 626.464 58.1716L629.293 61L626.464 63.8284C626.269 64.0237 626.269 64.3403 626.464 64.5355C626.66 64.7308 626.976 64.7308 627.172 64.5355L630.354 61.3536ZM560 61.5H630V60.5H560V61.5Z" fill="black"/>
<path d="M229.354 61.3536C229.549 61.1583 229.549 60.8417 229.354 60.6464L226.172 57.4645C225.976 57.2692 225.66 57.2692 225.464 57.4645C225.269 57.6597 225.269 57.9763 225.464 58.1716L228.293 61L225.464 63.8284C225.269 64.0237 225.269 64.3403 225.464 64.5355C225.66 64.7308 225.976 64.7308 226.172 64.5355L229.354 61.3536ZM159 61.5H229V60.5H159V61.5Z" fill="black"/>
<defs>
<clipPath id="clip0">
<rect width="70" height="70" fill="white" transform="translate(259 18)"/>
</clipPath>
<clipPath id="clip1">
<rect width="70" height="70" fill="white" transform="translate(464 18)"/>
</clipPath>
</defs>
</svg>
