<svg width="70" height="70" viewBox="0 0 70 70" fill="none" xmlns="http://www.w3.org/2000/svg">
<path d="M35 48.6719C35 49.427 34.388 50.0391 33.6328 50.0391C32.8777 50.0391 32.2656 49.427 32.2656 48.6719C32.2656 47.9167 32.8777 47.3047 33.6328 47.3047C34.388 47.3047 35 47.9167 35 48.6719Z" fill="#06CAA6"/>
<path d="M48.6719 19.1406C47.5477 19.1406 46.5015 19.4819 45.6315 20.0661C44.8929 17.9539 42.8747 16.4062 40.4688 16.4062C38.8372 16.4062 37.3717 17.1251 36.3688 18.2621C35.3108 17.0637 33.8352 16.4062 32.2656 16.4062C30.6335 16.4062 29.167 17.1262 28.1641 18.2637C27.1611 17.1262 25.6946 16.4062 24.0625 16.4062C21.0472 16.4062 18.5938 18.8597 18.5938 21.875V29.5339C16.8906 30.8157 15.8594 32.8424 15.8594 35C15.8594 42.2856 19.2907 49.1931 25.1562 53.5938C26.1715 54.3553 26.7969 55.5612 26.7969 56.875V68.6328C26.7969 69.388 27.4089 70 28.1641 70H50.0391C50.7942 70 51.4062 69.388 51.4062 68.6328V57.095C52.296 54.3884 52.978 51.5916 53.4351 48.7782C53.9035 45.8905 54.1406 42.9452 54.1406 40.0244C54.1406 38.2561 54.1406 26.3873 54.1406 24.6094C54.1406 21.5882 51.6936 19.1406 48.6719 19.1406V19.1406ZM48.6719 21.875C50.1822 21.875 51.4062 23.0991 51.4062 24.6094V33.6328C51.4062 35.1405 50.1795 36.3672 48.6719 36.3672C47.1642 36.3672 45.9375 35.1405 45.9375 33.6328C45.9375 31.3091 45.9375 26.7381 45.9375 24.6094C45.9375 23.1017 47.1642 21.875 48.6719 21.875ZM40.4688 19.1406C41.9791 19.1406 43.2031 20.3647 43.2031 21.875V30.8984C43.2031 32.4061 41.9764 33.6328 40.4688 33.6328C38.9611 33.6328 37.7344 32.4061 37.7344 30.8984V21.875C37.7344 20.3674 38.9611 19.1406 40.4688 19.1406ZM32.2656 19.1406C33.7759 19.1406 35 20.3647 35 21.875V28.1641H29.5312V21.875C29.5312 20.3674 30.758 19.1406 32.2656 19.1406ZM24.0625 19.1406C25.5701 19.1406 26.7969 20.3674 26.7969 21.875V28.1641H22.6953C22.2344 28.1641 21.7767 28.2116 21.3281 28.3029V21.875C21.3281 20.3674 22.5549 19.1406 24.0625 19.1406ZM29.5312 67.2656V60.9766H48.6719V67.2656H29.5312ZM50.7365 48.3402C49.8553 53.7604 48.6719 56.2192 48.6719 56.875V58.2422H29.5312V56.875C29.5312 54.7569 28.5443 52.7168 26.7969 51.4062C21.6133 47.5172 18.5938 41.4188 18.5938 35C18.5938 32.7778 20.3919 30.8968 22.6953 30.8968H34.8627C34.2278 34.0136 31.4651 36.3672 28.1641 36.3672H25.4297C24.6745 36.3672 24.0625 36.9792 24.0625 37.7344C24.0625 38.4895 24.6745 39.1016 25.4297 39.1016H26.7969C29.3983 39.1016 31.6541 40.9499 32.1604 43.4958C32.3067 44.2312 33.0224 44.7182 33.7685 44.5698C34.5087 44.4229 34.9899 43.703 34.8425 42.9623C34.467 41.0744 33.4502 39.4428 32.0477 38.2748C33.8363 37.477 35.3386 36.1488 36.348 34.4878C37.3515 35.6382 38.826 36.3672 40.4688 36.3672C41.594 36.3672 42.6408 36.0254 43.5113 35.4401C44.2595 37.5699 46.2894 39.1016 48.6719 39.1016C49.6674 39.1016 50.6014 38.8329 51.4062 38.3656V40.0244C51.4062 42.7988 51.1809 45.5973 50.7365 48.3402Z" fill="#06CAA6"/>
<path d="M37.7344 9.57031V1.36719C37.7344 0.61203 37.1223 0 36.3672 0C35.612 0 35 0.61203 35 1.36719V9.57031C35 10.3255 35.612 10.9375 36.3672 10.9375C37.1223 10.9375 37.7344 10.3255 37.7344 9.57031Z" fill="#06CAA6"/>
<path d="M46.933 11.3097L52.7329 5.50827C53.2664 4.97421 53.2664 4.10904 52.7323 3.57498C52.1983 3.04092 51.3331 3.04092 50.799 3.57498L44.9992 9.37592C44.4656 9.90997 44.4656 10.7757 44.9997 11.3097C45.5338 11.8433 46.3989 11.8438 46.933 11.3097V11.3097Z" fill="#06CAA6"/>
<path d="M28.5363 10.5081C29.0704 9.97405 29.0698 9.10834 28.5363 8.57482L22.7348 2.77495C22.2013 2.24143 21.3356 2.24143 20.8016 2.77549C20.2675 3.30901 20.268 4.17472 20.8016 4.70878L26.6025 10.5086C27.1365 11.0422 28.0023 11.0422 28.5363 10.5081Z" fill="#06CAA6"/>
</svg>
