<svg width="70" height="70" viewBox="0 0 70 70" fill="none" xmlns="http://www.w3.org/2000/svg">
<g clip-path="url(#clip0)">
<path d="M14.6182 38.6935C14.9781 38.6935 15.3306 38.5472 15.5848 38.293C15.839 38.0388 15.9854 37.6858 15.9854 37.3264C15.9854 36.9669 15.839 36.6139 15.5848 36.3597C15.3306 36.1055 14.9781 35.9592 14.6182 35.9592C14.2571 35.9592 13.9057 36.1055 13.6515 36.3597C13.3957 36.6139 13.251 36.9653 13.251 37.3264C13.251 37.6858 13.3957 38.0388 13.6515 38.293C13.9057 38.5472 14.2571 38.6935 14.6182 38.6935Z" fill="black"/>
<path d="M27.5 15.5C27.1045 15.3001 26.9214 15.2445 26.5 15.3001C26.0781 15.3556 25.712 15.6315 25.5 16L16.5 32C16.123 32.6542 16.0153 33.3882 16.6695 33.7652C17.3237 34.1423 18.1595 33.9169 18.5366 33.2632L23.2085 25.1541L44.5227 46.4683L17.5 62.5L7.5 52L13 42.5C13.377 41.8458 13 41.2305 12.5258 40.9574C11.871 40.5803 11.0352 40.8057 10.6582 41.4599L5.06125 51.1744L2.78403 53.4522C0.988538 55.2471 0 57.6338 0 60.1727C0 62.7111 0.988538 65.0978 2.78403 66.8933C4.63668 68.7459 7.07037 69.6725 9.50406 69.6725C11.9383 69.6725 14.372 68.7459 16.2246 66.8933L17.6628 65.4551L20.0218 67.8135C21.4792 69.2714 23.3943 69.9999 25.3089 69.9999C27.224 69.9999 29.1386 69.2714 30.5966 67.8135C33.4255 64.9846 32.6612 60.4314 30 57.5L54 43.5C54.2 43.3 54.2257 43.2179 54.3 43C54.3 42.6299 54.3305 42.4393 54 42L27.5 15.5ZM4.5 65.5C3.22147 64.2209 2.14687 61.981 2.14687 60.1727C2.14687 58.3644 3.22147 56.2785 4.5 55L6 53.5L16 64L14.5 65.4551C11.8607 68.0949 7.13931 68.1398 4.5 65.5ZM28.6633 59.1719C30.5128 61.0213 30.8494 64.6506 29 66.5C27.1506 68.3494 23.3494 68.35 21.5 66.5L19 63.5L28 58.5L28.6633 59.1719ZM46.5 45.5L24.5 23L27.2374 18.1617L51.5151 42.4394L46.5 45.5Z" fill="black"/>
<path d="M34.3 15.5C34.4218 15.5336 34.8798 15.5 34.9999 15.4C35.1201 15.35 35.3333 15.1062 35.5 14.5L37.5 7.5L39.5 9.5C39.837 9.75 40.5 9.55 40.5 9.5C40.7248 9.35 40.8542 8.95395 41 8.5L43.5 1.5C43.7307 0.781158 43.3338 0.198153 42.9211 0.0656987C42.2022 -0.165014 41.4321 0.230722 41.2014 0.949564L39.5207 6.186L38.278 4.94325C37.934 4.59931 37.4331 4.4642 36.962 4.5881C36.4915 4.71253 36.1225 5.0773 35.9933 5.54673L33.6893 13.9015C33.4891 14.63 33.5721 15.2997 34.3 15.5Z" fill="#06CAA6"/>
<path d="M69.8232 22.4288C69.4595 21.7671 68.6617 21.6368 68 22L59 27C58.623 27.2072 58.0603 27.5738 58 28C57.9391 28.4256 57.9382 28.8869 58.2427 29.1907L61.5 32.5L54.2257 34.137C53.4929 34.3201 53.0089 34.6011 53.1921 35.3338C53.3475 35.9549 53.905 36.3693 54.5176 36.3693C54.6271 36.3693 54.7392 36.356 54.8503 36.3282L63.6153 34.137C64.0933 34.0179 64.3186 33.6748 64.45 33.2C64.5254 32.9274 64.3482 32.3482 64 32L60.5 28.5L69 24C69.6617 23.6363 70.1869 23.091 69.8232 22.4288Z" fill="#06CAA6"/>
<path d="M63.0097 15.2313C63.2639 15.4871 63.6164 15.6324 63.9764 15.6324C64.3358 15.6324 64.6883 15.4871 64.943 15.2313C65.1972 14.9771 65.3436 14.6257 65.3436 14.2652C65.3436 13.9052 65.1972 13.5527 64.943 13.2985C64.6883 13.0438 64.3358 12.8975 63.9764 12.8975C63.6164 12.8975 63.2639 13.0438 63.0097 13.2985C62.755 13.5527 62.6086 13.9052 62.6086 14.2652C62.6086 14.6257 62.755 14.9771 63.0097 15.2313Z" fill="#06CAA6"/>
<path d="M60.2129 16.1232C59.8786 15.446 59.0588 15.1683 58.3816 15.5026L53.2776 18.0217C52.8824 18.2167 52.6058 18.5905 52.5342 19.0252C52.4626 19.4605 52.6047 19.9032 52.9161 20.2146L54.8472 22.1457L48.4172 25.3132C47.74 25.647 47.1662 26.3229 47.5001 27C47.6293 27.2622 47.9124 27.3521 48.4171 27.3521C48.6195 27.3521 49.3056 27.0956 49.5 27L56.5 23.5C56.8957 23.3051 57 23.3 57.3623 22.8831C57.5 22.7247 57.5 22.5 57.3623 22.1457L55 19.5L59 17.5C59.6772 17.1657 60.5467 16.8004 60.2129 16.1232Z" fill="#06CAA6"/>
<path d="M43.0001 19.8C43.1595 19.8957 43.3473 19.95 43.6501 19.95C43.7946 19.95 44.2437 19.9272 44.5 19.5L50 10L52.5 12.5C52.7895 12.79 53.6 13.1 54 13C54.4075 12.9599 54.7725 12.3407 55 12L62 2C62.4198 1.37248 62.5661 0.60776 62.002 0.23125C61.374 -0.187986 60.5248 -0.0197575 60.1051 0.60776L53.4539 10.5524L50.7371 7.82769C50.4397 7.52915 50.0204 7.38442 49.6028 7.43622C49.1846 7.48749 48.8135 7.72835 48.5966 8.08991L42.6318 18.0282C42.243 18.676 42.3523 19.4112 43.0001 19.8Z" fill="#06CAA6"/>
</g>
<defs>
<clipPath id="clip0">
<rect width="70" height="70" fill="white"/>
</clipPath>
</defs>
</svg>
