<svg width="70" height="70" viewBox="0 0 70 70" fill="none" xmlns="http://www.w3.org/2000/svg">
<rect width="70" height="70" fill="white"/>
<g clip-path="url(#clip0)">
<path d="M37.233 35.0009L49.5376 22.6964C50.1542 22.0798 50.1542 21.08 49.5376 20.4635C48.9209 19.8468 47.9212 19.8468 47.3046 20.4635L35 32.768L22.6954 20.4635C22.0788 19.8468 21.0791 19.8468 20.4625 20.4635C19.8459 21.0801 19.8458 22.0798 20.4625 22.6964L32.767 35.0009L20.4625 47.3055C19.8458 47.9221 19.8458 48.9219 20.4625 49.5384C21.0791 50.1551 22.0788 50.155 22.6954 49.5384L35 37.2339L47.3045 49.5384C47.9211 50.1551 48.9209 50.155 49.5375 49.5384C50.154 48.9218 50.154 47.9221 49.5375 47.3055L37.233 35.0009Z" fill="#06CAA6"/>
</g>
<defs>
<clipPath id="clip0">
<rect width="30" height="30" fill="white" transform="translate(20 20)"/>
</clipPath>
</defs>
</svg>
