<svg width="791" height="142" viewBox="0 0 791 142" fill="none" xmlns="http://www.w3.org/2000/svg">
<g clip-path="url(#clip0)">
<path d="M112.792 39.5948C112.349 36.936 109.1 35.8858 107.201 37.7845L101.494 43.4917C101.328 43.6578 101.084 43.7229 100.857 43.6625L97.5077 42.7652C97.2808 42.7043 97.1021 42.5256 97.0413 42.2988L96.1439 38.9496C96.0832 38.7229 96.1485 38.4789 96.3146 38.3129L99.2216 35.4058C99.622 35.0052 99.622 34.3561 99.2216 33.9556C98.8211 33.5553 98.1718 33.5553 97.7715 33.9556L94.8646 36.8627C94.1821 37.5452 93.9133 38.5483 94.1631 39.4805L95.0605 42.8297C95.3104 43.7619 96.0446 44.4962 96.9769 44.7461L100.326 45.6435C101.258 45.8936 102.261 45.6244 102.944 44.9422L108.651 39.2349C109.375 38.5115 110.6 38.9165 110.769 39.9321C111.473 44.1547 110.089 48.4795 107.068 51.5009C103.819 54.7498 99.2011 56.0765 94.7156 55.0507C93.7362 54.8268 92.7298 55.1147 92.0237 55.8206L73.3985 74.4452C71.1774 76.6663 67.5823 76.6666 65.361 74.4452C63.14 72.2246 63.1396 68.629 65.361 66.4078L84.0002 47.7685C84.7039 47.0646 84.9927 46.0627 84.7727 45.0883C83.7422 40.523 85.1871 35.7022 88.5432 32.5069C91.59 29.6061 95.7239 28.3424 99.8852 29.0387C100.718 29.1783 101.13 30.0401 100.854 30.7321C100.644 31.2582 100.901 31.8546 101.427 32.0642C101.953 32.2741 102.549 32.0173 102.759 31.4914C103.52 29.5815 102.343 27.3713 100.224 27.0162C95.491 26.2237 90.5958 27.721 87.1292 31.0219C83.2535 34.7118 81.5841 40.275 82.7725 45.5401C82.8366 45.8242 82.7535 46.1151 82.5503 46.3183L78.321 50.5476L78.378 48.1736C78.4241 46.257 76.8864 44.6823 74.9697 44.6823H63.7901C61.8772 44.6823 60.3357 46.2536 60.3818 48.1734L60.4774 52.1514C60.4857 52.496 60.3241 52.8229 60.0453 53.0256L55.715 56.1716C55.4362 56.3743 55.0754 56.4268 54.7503 56.3125L50.9964 54.9922C49.188 54.3565 47.2152 55.332 46.6228 57.1549L43.1682 67.7873C42.5759 69.6103 43.5987 71.5594 45.4353 72.1077L49.2483 73.246C49.5784 73.3446 49.8392 73.5992 49.9458 73.9269L51.5998 79.0173C51.7063 79.3451 51.6451 79.7044 51.4358 79.9784L49.0203 83.1406C47.8567 84.6637 48.175 86.8418 49.7257 87.9685L54.5325 91.4607C54.989 91.7927 55.6308 91.6936 55.9648 91.2339C56.2977 90.7759 56.196 90.1345 55.7378 89.8018L50.9311 86.3095C50.3132 85.8605 50.1863 84.9928 50.65 84.3857L53.0655 81.2235C53.6837 80.4143 53.865 79.3528 53.5503 78.3838L51.8963 73.2933C51.5815 72.3245 50.8108 71.5723 49.8349 71.2809L46.0219 70.1426C45.2901 69.924 44.8826 69.1474 45.1186 68.421L48.5733 57.7887C48.809 57.0635 49.5939 56.6732 50.316 56.9268L54.0701 58.2471C55.0307 58.5851 56.0966 58.4292 56.9205 57.8305L61.2509 54.6843C62.0748 54.0855 62.5521 53.1202 62.5276 52.1019L62.4321 48.1239C62.4137 47.3618 63.025 46.7328 63.7901 46.7328H74.9697C75.7319 46.7328 76.3462 47.359 76.3278 48.1239C76.2453 52.2275 76.1961 52.1175 76.2643 52.604L71.3685 57.4998C63.398 56.2827 56.3015 62.4752 56.3015 70.4263C56.3015 77.6377 62.1685 83.5047 69.3799 83.5047C76.5915 83.5047 82.4584 77.6377 82.4584 70.4263C82.4584 69.7616 82.4069 69.0949 82.3065 68.4376L90.8656 59.8785L93.6412 68.4206C93.8772 69.1471 93.4696 69.9236 92.7379 70.1422L88.925 71.2805C87.949 71.5719 87.1784 72.3241 86.8637 73.2929L85.2095 78.3834C84.8948 79.3522 85.0761 80.4137 85.6945 81.2231L88.1101 84.3853C88.5727 84.9911 88.448 85.8593 87.829 86.3091L78.7845 92.88C78.1672 93.329 77.302 93.1815 76.8681 92.5528L74.6073 89.2785C74.0287 88.4402 73.0749 87.9398 72.0563 87.9398H66.7039C65.6852 87.9398 64.7316 88.4402 64.153 89.2784L61.892 92.5528C61.4583 93.1809 60.5936 93.3291 59.9757 92.8801L59.6428 92.6382C59.1847 92.3051 58.5435 92.4067 58.2104 92.8648C57.8775 93.3228 57.9791 93.9642 58.4371 94.2973L58.7701 94.5392C60.3215 95.6658 62.4899 95.296 63.5795 93.7181L65.8405 90.4435C66.0363 90.1598 66.3589 89.9906 66.7036 89.9906H72.0561C72.4007 89.9906 72.7234 90.1598 72.9193 90.4437L75.1803 93.7181C76.2695 95.2956 78.4391 95.6656 79.9897 94.5391L89.0343 87.9679C90.585 86.8411 90.903 84.6633 89.7395 83.1401L87.3239 79.9778C87.1146 79.7039 87.0533 79.3446 87.1597 79.0168L88.8137 73.9263C88.9203 73.5986 89.181 73.3439 89.5113 73.2455L93.3243 72.1071C95.1611 71.5589 96.1837 69.6095 95.5914 67.7868L92.4929 58.2507L93.4736 57.27C93.6777 57.0658 93.9708 56.9833 94.2581 57.0492C99.4361 58.2334 104.767 56.7012 108.517 52.9503C112.006 49.4621 113.604 44.4693 112.792 39.5948ZM69.3798 81.4542C63.2991 81.4542 58.3522 76.5071 58.3522 70.4266C58.3522 64.3565 63.3062 59.3515 69.468 59.4005L63.9108 64.9576C60.8885 67.9801 60.8878 72.8726 63.9108 75.8954C66.9329 78.9179 71.8257 78.9184 74.8487 75.8955L80.4059 70.3384C80.4061 70.3678 80.4075 70.3972 80.4075 70.4266C80.4075 76.5071 75.4604 81.4542 69.3798 81.4542Z" fill="black"/>
</g>
<path d="M40.4658 111.122C39.7301 111.122 39.141 110.886 38.6982 110.414C38.2588 109.939 38.0391 109.271 38.0391 108.412C38.0391 107.549 38.2588 106.882 38.6982 106.41C39.141 105.938 39.7301 105.702 40.4658 105.702C41.0322 105.702 41.5042 105.845 41.8818 106.132C42.2627 106.418 42.4873 106.832 42.5557 107.372H41.6084C41.5954 107.063 41.4782 106.827 41.2568 106.664C41.0387 106.501 40.7751 106.42 40.4658 106.42C40.0264 106.42 39.6699 106.588 39.3965 106.923C39.123 107.255 38.9863 107.751 38.9863 108.412C38.9863 109.07 39.123 109.566 39.3965 109.901C39.6699 110.233 40.0264 110.399 40.4658 110.399C40.7751 110.399 41.0387 110.318 41.2568 110.155C41.4782 109.993 41.5954 109.758 41.6084 109.452H42.5557C42.4873 109.993 42.2627 110.406 41.8818 110.692C41.5042 110.979 41.0322 111.122 40.4658 111.122ZM47.2475 110.341C46.7885 110.862 46.2725 111.122 45.6996 111.122C44.531 111.122 43.9467 110.484 43.9467 109.208V105.819H44.8695V109.169C44.8695 109.592 44.9444 109.896 45.0941 110.082C45.2439 110.268 45.4913 110.36 45.8363 110.36C46.3507 110.36 46.821 110.084 47.2475 109.53V105.819H48.1654V111H47.2475V110.341ZM51.9832 111.122C50.5672 111.122 49.8266 110.565 49.7615 109.452H50.6844C50.6909 110.084 51.1206 110.399 51.9734 110.399C52.3543 110.399 52.644 110.321 52.8426 110.165C53.0444 110.006 53.1453 109.807 53.1453 109.569C53.1453 109.335 53.0477 109.171 52.8523 109.076C52.657 108.979 52.2534 108.853 51.6414 108.7C51.0327 108.547 50.5867 108.376 50.3035 108.188C50.0236 107.999 49.8836 107.667 49.8836 107.191C49.8836 106.762 50.0577 106.407 50.4061 106.127C50.7576 105.844 51.2264 105.702 51.8123 105.702C53.1697 105.702 53.8631 106.186 53.8924 107.152H52.9744C52.9419 106.664 52.5757 106.42 51.8758 106.42C51.5665 106.42 51.3094 106.479 51.1043 106.596C50.9025 106.713 50.8016 106.884 50.8016 107.108C50.8016 107.31 50.8797 107.457 51.0359 107.548C51.1922 107.636 51.5828 107.756 52.2078 107.909C52.8361 108.059 53.3016 108.235 53.6043 108.437C53.9103 108.638 54.0633 108.987 54.0633 109.481C54.0633 109.953 53.8745 110.346 53.4969 110.658C53.1225 110.967 52.618 111.122 51.9832 111.122ZM57.7443 111.01C57.5425 111.049 57.3228 111.068 57.0852 111.068C56.7076 111.068 56.4309 111.002 56.2551 110.868C56.0793 110.731 55.9702 110.557 55.9279 110.346C55.8856 110.134 55.8645 109.846 55.8645 109.481V106.542H55.2248V105.819H55.8645V104.53H56.7824V105.819H57.6223V106.542H56.7824V109.53C56.7824 109.885 56.8264 110.111 56.9143 110.209C57.0054 110.303 57.1291 110.351 57.2854 110.351C57.4449 110.351 57.5979 110.338 57.7443 110.312V111.01ZM61.2154 105.702C61.9544 105.702 62.5436 105.938 62.983 106.41C63.4257 106.882 63.6471 107.549 63.6471 108.412C63.6471 109.271 63.4257 109.939 62.983 110.414C62.5436 110.886 61.9544 111.122 61.2154 111.122C60.4798 111.122 59.8906 110.886 59.4479 110.414C59.0084 109.939 58.7887 109.271 58.7887 108.412C58.7887 107.549 59.0084 106.882 59.4479 106.41C59.8906 105.938 60.4798 105.702 61.2154 105.702ZM61.2154 110.399C61.6549 110.399 62.0113 110.233 62.2848 109.901C62.5582 109.566 62.6949 109.07 62.6949 108.412C62.6949 107.751 62.5582 107.255 62.2848 106.923C62.0113 106.588 61.6549 106.42 61.2154 106.42C60.776 106.42 60.4195 106.588 60.1461 106.923C59.8727 107.255 59.7359 107.751 59.7359 108.412C59.7359 109.07 59.8727 109.566 60.1461 109.901C60.4195 110.233 60.776 110.399 61.2154 110.399ZM72.2842 111H71.3613V107.65C71.3613 107.221 71.2995 106.915 71.1758 106.732C71.0521 106.55 70.8454 106.459 70.5557 106.459C70.1097 106.459 69.6719 106.736 69.2422 107.289V111H68.3242V107.65C68.3242 107.221 68.2624 106.915 68.1387 106.732C68.015 106.55 67.8066 106.459 67.5137 106.459C67.0677 106.459 66.6315 106.736 66.2051 107.289V111H65.2822V105.819H66.2051V106.479C66.6413 105.961 67.1247 105.702 67.6553 105.702C68.4137 105.702 68.8971 106.015 69.1055 106.64C69.4505 106.233 69.7435 105.976 69.9844 105.868C70.2253 105.757 70.4613 105.702 70.6924 105.702C71.7536 105.702 72.2842 106.339 72.2842 107.611V111ZM75.1352 111H74.2123V105.819H75.1352V111ZM75.1352 104.838H74.2123V103.842H75.1352V104.838ZM81.2088 111H76.6189V110.219L79.8465 106.601H76.8094V105.819H81.0477V106.601L77.8201 110.219H81.2088V111ZM85.9787 109.638V108.49H85.3488C84.0142 108.49 83.3469 108.853 83.3469 109.579C83.3469 109.843 83.4445 110.046 83.6398 110.189C83.8352 110.329 84.0988 110.399 84.4309 110.399C84.7336 110.399 85.0266 110.331 85.3098 110.194C85.593 110.058 85.8159 109.872 85.9787 109.638ZM85.9787 110.468C85.51 110.904 84.9061 111.122 84.1672 111.122C83.6529 111.122 83.2297 110.984 82.8977 110.707C82.5656 110.427 82.3996 110.067 82.3996 109.628C82.3996 108.417 83.4429 107.812 85.5295 107.812H85.9787C85.9787 107.44 85.9592 107.172 85.9201 107.006C85.8811 106.837 85.772 106.697 85.593 106.586C85.4139 106.475 85.1291 106.42 84.7385 106.42C83.9182 106.42 83.495 106.713 83.4689 107.299H82.551C82.6193 106.234 83.3648 105.702 84.7873 105.702C85.4514 105.702 85.9689 105.834 86.34 106.098C86.7111 106.361 86.8967 106.879 86.8967 107.65V111H85.9787V110.468ZM90.8756 111.01C90.6738 111.049 90.454 111.068 90.2164 111.068C89.8388 111.068 89.5621 111.002 89.3863 110.868C89.2105 110.731 89.1015 110.557 89.0592 110.346C89.0169 110.134 88.9957 109.846 88.9957 109.481V106.542H88.3561V105.819H88.9957V104.53H89.9137V105.819H90.7535V106.542H89.9137V109.53C89.9137 109.885 89.9576 110.111 90.0455 110.209C90.1367 110.303 90.2604 110.351 90.4166 110.351C90.5761 110.351 90.7291 110.338 90.8756 110.312V111.01ZM93.1699 111H92.2471V105.819H93.1699V111ZM93.1699 104.838H92.2471V103.842H93.1699V104.838ZM97.2318 105.702C97.9708 105.702 98.56 105.938 98.9994 106.41C99.4421 106.882 99.6635 107.549 99.6635 108.412C99.6635 109.271 99.4421 109.939 98.9994 110.414C98.56 110.886 97.9708 111.122 97.2318 111.122C96.4962 111.122 95.907 110.886 95.4643 110.414C95.0248 109.939 94.8051 109.271 94.8051 108.412C94.8051 107.549 95.0248 106.882 95.4643 106.41C95.907 105.938 96.4962 105.702 97.2318 105.702ZM97.2318 110.399C97.6713 110.399 98.0277 110.233 98.3012 109.901C98.5746 109.566 98.7113 109.07 98.7113 108.412C98.7113 107.751 98.5746 107.255 98.3012 106.923C98.0277 106.588 97.6713 106.42 97.2318 106.42C96.7924 106.42 96.4359 106.588 96.1625 106.923C95.8891 107.255 95.7523 107.751 95.7523 108.412C95.7523 109.07 95.8891 109.566 96.1625 109.901C96.4359 110.233 96.7924 110.399 97.2318 110.399ZM102.221 106.479C102.68 105.961 103.196 105.702 103.769 105.702C104.938 105.702 105.522 106.339 105.522 107.611V111H104.599V107.65C104.599 107.227 104.523 106.923 104.37 106.737C104.22 106.552 103.973 106.459 103.628 106.459C103.159 106.459 102.69 106.736 102.221 107.289V111H101.299V105.819H102.221V106.479ZM116.205 110.521L115.492 111.122L114.872 110.341C114.305 110.862 113.596 111.122 112.743 111.122C112.085 111.122 111.542 110.919 111.112 110.512C110.685 110.105 110.472 109.612 110.472 109.032C110.472 108.59 110.609 108.202 110.882 107.87C111.156 107.538 111.573 107.214 112.132 106.898C111.625 106.247 111.371 105.722 111.371 105.321C111.371 104.866 111.538 104.485 111.874 104.179C112.212 103.873 112.639 103.72 113.153 103.72C113.631 103.72 114.027 103.869 114.339 104.169C114.655 104.465 114.813 104.825 114.813 105.248C114.813 105.626 114.698 105.953 114.466 106.229C114.235 106.503 113.884 106.776 113.412 107.05L114.852 108.842C114.992 108.484 115.072 108.08 115.091 107.631H116.044C116.001 108.383 115.811 109.042 115.472 109.608L116.205 110.521ZM112.943 106.469C113.278 106.286 113.524 106.106 113.68 105.927C113.837 105.744 113.915 105.525 113.915 105.268C113.915 105.02 113.833 104.822 113.671 104.672C113.511 104.519 113.322 104.442 113.104 104.442C112.87 104.442 112.673 104.516 112.513 104.662C112.354 104.805 112.274 104.994 112.274 105.229C112.274 105.492 112.421 105.81 112.713 106.181L112.943 106.469ZM114.354 109.682L112.611 107.499C112.198 107.743 111.896 107.974 111.708 108.192C111.519 108.407 111.424 108.666 111.424 108.969C111.424 109.333 111.55 109.654 111.8 109.931C112.054 110.204 112.372 110.341 112.753 110.341C113.41 110.341 113.944 110.121 114.354 109.682ZM40.8516 117.439C41.2617 116.948 41.7549 116.702 42.3311 116.702C43.0081 116.702 43.5322 116.943 43.9033 117.425C44.2744 117.903 44.46 118.551 44.46 119.368C44.46 120.218 44.2516 120.89 43.835 121.385C43.4215 121.876 42.8991 122.122 42.2676 122.122C41.7077 122.122 41.2357 121.948 40.8516 121.6V123.992H39.9287V116.819H40.8516V117.439ZM40.8516 120.77C41.2454 121.189 41.6979 121.399 42.209 121.399C42.6061 121.399 42.9219 121.23 43.1562 120.892C43.3906 120.55 43.5078 120.042 43.5078 119.368C43.5078 118.73 43.3971 118.247 43.1758 117.918C42.9544 117.586 42.6452 117.42 42.248 117.42C41.737 117.42 41.2715 117.716 40.8516 118.309V120.77ZM48.2973 122.122C47.5355 122.122 46.9236 121.884 46.4613 121.409C45.9991 120.931 45.768 120.265 45.768 119.412C45.768 118.566 45.991 117.903 46.4369 117.425C46.8861 116.943 47.4721 116.702 48.1947 116.702C48.9337 116.702 49.5229 116.938 49.9623 117.41C50.405 117.882 50.6264 118.549 50.6264 119.412V119.632H46.725C46.7641 120.231 46.9285 120.675 47.2182 120.965C47.5111 121.255 47.8708 121.399 48.2973 121.399C48.6195 121.399 48.9092 121.318 49.1664 121.155C49.4268 120.989 49.5635 120.755 49.5766 120.452H50.5287C50.4571 120.986 50.2146 121.398 49.8012 121.688C49.391 121.977 48.8897 122.122 48.2973 122.122ZM49.6547 118.909C49.5798 118.411 49.4122 118.038 49.1518 117.791C48.8913 117.544 48.5723 117.42 48.1947 117.42C47.8269 117.42 47.5111 117.544 47.2475 117.791C46.9838 118.035 46.8161 118.408 46.7445 118.909H49.6547ZM54.952 117.659C54.8217 117.62 54.6346 117.601 54.3904 117.601C53.9217 117.601 53.5197 117.846 53.1844 118.338V122H52.2615V116.819H53.1844V117.542C53.5717 116.982 54.021 116.702 54.532 116.702C54.6622 116.702 54.8022 116.715 54.952 116.741V117.659ZM58.0422 122.122C56.6262 122.122 55.8856 121.565 55.8205 120.452H56.7434C56.7499 121.084 57.1796 121.399 58.0324 121.399C58.4133 121.399 58.703 121.321 58.9016 121.165C59.1034 121.006 59.2043 120.807 59.2043 120.569C59.2043 120.335 59.1066 120.171 58.9113 120.076C58.716 119.979 58.3124 119.853 57.7004 119.7C57.0917 119.547 56.6457 119.376 56.3625 119.188C56.0826 118.999 55.9426 118.667 55.9426 118.191C55.9426 117.762 56.1167 117.407 56.465 117.127C56.8166 116.844 57.2854 116.702 57.8713 116.702C59.2287 116.702 59.9221 117.186 59.9514 118.152H59.0334C59.0008 117.664 58.6346 117.42 57.9348 117.42C57.6255 117.42 57.3684 117.479 57.1633 117.596C56.9615 117.713 56.8605 117.884 56.8605 118.108C56.8605 118.31 56.9387 118.457 57.0949 118.548C57.2512 118.636 57.6418 118.756 58.2668 118.909C58.8951 119.059 59.3605 119.235 59.6633 119.437C59.9693 119.638 60.1223 119.987 60.1223 120.481C60.1223 120.953 59.9335 121.346 59.5559 121.658C59.1815 121.967 58.677 122.122 58.0422 122.122ZM63.8912 116.702C64.6301 116.702 65.2193 116.938 65.6588 117.41C66.1015 117.882 66.3229 118.549 66.3229 119.412C66.3229 120.271 66.1015 120.939 65.6588 121.414C65.2193 121.886 64.6301 122.122 63.8912 122.122C63.1555 122.122 62.5663 121.886 62.1236 121.414C61.6842 120.939 61.4645 120.271 61.4645 119.412C61.4645 118.549 61.6842 117.882 62.1236 117.41C62.5663 116.938 63.1555 116.702 63.8912 116.702ZM63.8912 121.399C64.3307 121.399 64.6871 121.233 64.9605 120.901C65.234 120.566 65.3707 120.07 65.3707 119.412C65.3707 118.751 65.234 118.255 64.9605 117.923C64.6871 117.588 64.3307 117.42 63.8912 117.42C63.4518 117.42 63.0953 117.588 62.8219 117.923C62.5484 118.255 62.4117 118.751 62.4117 119.412C62.4117 120.07 62.5484 120.566 62.8219 120.901C63.0953 121.233 63.4518 121.399 63.8912 121.399ZM68.8809 117.479C69.3398 116.961 69.8558 116.702 70.4287 116.702C71.5973 116.702 72.1816 117.339 72.1816 118.611V122H71.2588V118.65C71.2588 118.227 71.1823 117.923 71.0293 117.737C70.8796 117.552 70.6322 117.459 70.2871 117.459C69.8184 117.459 69.3496 117.736 68.8809 118.289V122H67.958V116.819H68.8809V117.479ZM77.4057 120.638V119.49H76.7758C75.4411 119.49 74.7738 119.853 74.7738 120.579C74.7738 120.843 74.8715 121.046 75.0668 121.189C75.2621 121.329 75.5258 121.399 75.8578 121.399C76.1605 121.399 76.4535 121.331 76.7367 121.194C77.0199 121.058 77.2429 120.872 77.4057 120.638ZM77.4057 121.468C76.9369 121.904 76.3331 122.122 75.5941 122.122C75.0798 122.122 74.6566 121.984 74.3246 121.707C73.9926 121.427 73.8266 121.067 73.8266 120.628C73.8266 119.417 74.8699 118.812 76.9564 118.812H77.4057C77.4057 118.44 77.3861 118.172 77.3471 118.006C77.308 117.837 77.199 117.697 77.0199 117.586C76.8409 117.475 76.5561 117.42 76.1654 117.42C75.3451 117.42 74.9219 117.713 74.8959 118.299H73.9779C74.0463 117.234 74.7917 116.702 76.2143 116.702C76.8783 116.702 77.3959 116.834 77.767 117.098C78.1381 117.361 78.3236 117.879 78.3236 118.65V122H77.4057V121.468ZM81.2137 122H80.2908V114.842H81.2137V122ZM84.0988 122H83.176V116.819H84.0988V122ZM84.0988 115.838H83.176V114.842H84.0988V115.838ZM90.1725 122H85.5826V121.219L88.8102 117.601H85.773V116.819H90.0113V117.601L86.7838 121.219H90.1725V122ZM94.9424 120.638V119.49H94.3125C92.9779 119.49 92.3105 119.853 92.3105 120.579C92.3105 120.843 92.4082 121.046 92.6035 121.189C92.7988 121.329 93.0625 121.399 93.3945 121.399C93.6973 121.399 93.9902 121.331 94.2734 121.194C94.5566 121.058 94.7796 120.872 94.9424 120.638ZM94.9424 121.468C94.4736 121.904 93.8698 122.122 93.1309 122.122C92.6165 122.122 92.1934 121.984 91.8613 121.707C91.5293 121.427 91.3633 121.067 91.3633 120.628C91.3633 119.417 92.4066 118.812 94.4932 118.812H94.9424C94.9424 118.44 94.9229 118.172 94.8838 118.006C94.8447 117.837 94.7357 117.697 94.5566 117.586C94.3776 117.475 94.0928 117.42 93.7021 117.42C92.8818 117.42 92.4587 117.713 92.4326 118.299H91.5146C91.583 117.234 92.3285 116.702 93.751 116.702C94.415 116.702 94.9326 116.834 95.3037 117.098C95.6748 117.361 95.8604 117.879 95.8604 118.65V122H94.9424V121.468ZM99.8393 122.01C99.6374 122.049 99.4177 122.068 99.1801 122.068C98.8025 122.068 98.5258 122.002 98.35 121.868C98.1742 121.731 98.0652 121.557 98.0229 121.346C97.9805 121.134 97.9594 120.846 97.9594 120.481V117.542H97.3197V116.819H97.9594V115.53H98.8773V116.819H99.7172V117.542H98.8773V120.53C98.8773 120.885 98.9213 121.111 99.0092 121.209C99.1003 121.303 99.224 121.351 99.3803 121.351C99.5398 121.351 99.6928 121.338 99.8393 121.312V122.01ZM102.134 122H101.211V116.819H102.134V122ZM102.134 115.838H101.211V114.842H102.134V115.838ZM106.196 116.702C106.934 116.702 107.524 116.938 107.963 117.41C108.406 117.882 108.627 118.549 108.627 119.412C108.627 120.271 108.406 120.939 107.963 121.414C107.524 121.886 106.934 122.122 106.196 122.122C105.46 122.122 104.871 121.886 104.428 121.414C103.988 120.939 103.769 120.271 103.769 119.412C103.769 118.549 103.988 117.882 104.428 117.41C104.871 116.938 105.46 116.702 106.196 116.702ZM106.196 121.399C106.635 121.399 106.991 121.233 107.265 120.901C107.538 120.566 107.675 120.07 107.675 119.412C107.675 118.751 107.538 118.255 107.265 117.923C106.991 117.588 106.635 117.42 106.196 117.42C105.756 117.42 105.4 117.588 105.126 117.923C104.853 118.255 104.716 118.751 104.716 119.412C104.716 120.07 104.853 120.566 105.126 120.901C105.4 121.233 105.756 121.399 106.196 121.399ZM111.185 117.479C111.644 116.961 112.16 116.702 112.733 116.702C113.902 116.702 114.486 117.339 114.486 118.611V122H113.563V118.65C113.563 118.227 113.487 117.923 113.334 117.737C113.184 117.552 112.936 117.459 112.591 117.459C112.123 117.459 111.654 117.736 111.185 118.289V122H110.262V116.819H111.185V117.479Z" fill="black"/>
<path d="M168.197 110.842H170.868C171.454 110.842 171.943 110.897 172.337 111.008C172.734 111.115 173.049 111.351 173.28 111.716C173.511 112.077 173.626 112.482 173.626 112.932C173.626 113.654 173.397 114.203 172.938 114.577C172.479 114.951 171.815 115.139 170.946 115.139H169.144V118H168.197V110.842ZM169.144 114.289H170.955C171.564 114.289 171.997 114.175 172.254 113.947C172.515 113.719 172.645 113.391 172.645 112.961C172.645 112.674 172.573 112.421 172.43 112.199C172.287 111.978 172.105 111.838 171.883 111.779C171.665 111.721 171.349 111.691 170.936 111.691H169.144V114.289ZM177.547 118.122C176.785 118.122 176.173 117.884 175.711 117.409C175.249 116.931 175.017 116.265 175.017 115.412C175.017 114.566 175.24 113.903 175.686 113.425C176.136 112.943 176.721 112.702 177.444 112.702C178.183 112.702 178.772 112.938 179.212 113.41C179.654 113.882 179.876 114.549 179.876 115.412V115.632H175.974C176.013 116.231 176.178 116.675 176.468 116.965C176.761 117.255 177.12 117.399 177.547 117.399C177.869 117.399 178.159 117.318 178.416 117.155C178.676 116.989 178.813 116.755 178.826 116.452H179.778C179.707 116.986 179.464 117.398 179.051 117.688C178.64 117.977 178.139 118.122 177.547 118.122ZM178.904 114.909C178.829 114.411 178.662 114.038 178.401 113.791C178.141 113.544 177.822 113.42 177.444 113.42C177.076 113.42 176.761 113.544 176.497 113.791C176.233 114.035 176.066 114.408 175.994 114.909H178.904ZM184.201 113.659C184.071 113.62 183.884 113.601 183.64 113.601C183.171 113.601 182.769 113.846 182.434 114.338V118H181.511V112.819H182.434V113.542C182.821 112.982 183.27 112.702 183.781 112.702C183.912 112.702 184.052 112.715 184.201 112.741V113.659ZM187.292 118.122C185.876 118.122 185.135 117.565 185.07 116.452H185.993C185.999 117.084 186.429 117.399 187.282 117.399C187.663 117.399 187.952 117.321 188.151 117.165C188.353 117.006 188.454 116.807 188.454 116.569C188.454 116.335 188.356 116.171 188.161 116.076C187.965 115.979 187.562 115.853 186.95 115.7C186.341 115.547 185.895 115.376 185.612 115.188C185.332 114.999 185.192 114.667 185.192 114.191C185.192 113.762 185.366 113.407 185.714 113.127C186.066 112.844 186.535 112.702 187.121 112.702C188.478 112.702 189.171 113.186 189.201 114.152H188.283C188.25 113.664 187.884 113.42 187.184 113.42C186.875 113.42 186.618 113.479 186.413 113.596C186.211 113.713 186.11 113.884 186.11 114.108C186.11 114.31 186.188 114.457 186.344 114.548C186.501 114.636 186.891 114.756 187.516 114.909C188.144 115.059 188.61 115.235 188.913 115.437C189.219 115.638 189.372 115.987 189.372 116.481C189.372 116.953 189.183 117.346 188.805 117.658C188.431 117.967 187.926 118.122 187.292 118.122ZM193.141 112.702C193.88 112.702 194.469 112.938 194.908 113.41C195.351 113.882 195.572 114.549 195.572 115.412C195.572 116.271 195.351 116.939 194.908 117.414C194.469 117.886 193.88 118.122 193.141 118.122C192.405 118.122 191.816 117.886 191.373 117.414C190.934 116.939 190.714 116.271 190.714 115.412C190.714 114.549 190.934 113.882 191.373 113.41C191.816 112.938 192.405 112.702 193.141 112.702ZM193.141 117.399C193.58 117.399 193.937 117.233 194.21 116.901C194.483 116.566 194.62 116.07 194.62 115.412C194.62 114.751 194.483 114.255 194.21 113.923C193.937 113.588 193.58 113.42 193.141 113.42C192.701 113.42 192.345 113.588 192.071 113.923C191.798 114.255 191.661 114.751 191.661 115.412C191.661 116.07 191.798 116.566 192.071 116.901C192.345 117.233 192.701 117.399 193.141 117.399ZM198.13 113.479C198.589 112.961 199.105 112.702 199.678 112.702C200.847 112.702 201.431 113.339 201.431 114.611V118H200.508V114.65C200.508 114.227 200.432 113.923 200.279 113.737C200.129 113.552 199.882 113.459 199.537 113.459C199.068 113.459 198.599 113.736 198.13 114.289V118H197.207V112.819H198.13V113.479ZM206.655 116.638V115.49H206.025C204.691 115.49 204.023 115.853 204.023 116.579C204.023 116.843 204.121 117.046 204.316 117.189C204.512 117.329 204.775 117.399 205.107 117.399C205.41 117.399 205.703 117.331 205.986 117.194C206.269 117.058 206.492 116.872 206.655 116.638ZM206.655 117.468C206.186 117.904 205.582 118.122 204.844 118.122C204.329 118.122 203.906 117.984 203.574 117.707C203.242 117.427 203.076 117.067 203.076 116.628C203.076 115.417 204.119 114.812 206.206 114.812H206.655C206.655 114.44 206.636 114.172 206.596 114.006C206.557 113.837 206.448 113.697 206.269 113.586C206.09 113.475 205.805 113.42 205.415 113.42C204.595 113.42 204.171 113.713 204.145 114.299H203.227C203.296 113.234 204.041 112.702 205.464 112.702C206.128 112.702 206.645 112.834 207.016 113.098C207.387 113.361 207.573 113.879 207.573 114.65V118H206.655V117.468ZM210.463 118H209.54V110.842H210.463V118ZM218.934 118.122C217.905 118.122 217.07 117.785 216.429 117.111C215.791 116.438 215.472 115.541 215.472 114.421C215.472 113.298 215.787 112.401 216.419 111.73C217.05 111.057 217.879 110.72 218.904 110.72C219.767 110.72 220.483 110.928 221.053 111.345C221.626 111.758 221.946 112.313 222.015 113.01H221.033C220.994 112.548 220.786 112.186 220.408 111.926C220.031 111.662 219.533 111.53 218.914 111.53C218.175 111.53 217.579 111.783 217.127 112.287C216.678 112.792 216.453 113.503 216.453 114.421C216.453 115.336 216.681 116.047 217.137 116.555C217.592 117.059 218.188 117.312 218.924 117.312C219.956 117.312 220.722 116.971 221.224 116.291V115.202H219.334V114.348H222.142V118H221.473L221.224 117.248C220.739 117.831 219.975 118.122 218.934 118.122ZM226.164 112.702C226.903 112.702 227.493 112.938 227.932 113.41C228.375 113.882 228.596 114.549 228.596 115.412C228.596 116.271 228.375 116.939 227.932 117.414C227.493 117.886 226.903 118.122 226.164 118.122C225.429 118.122 224.84 117.886 224.397 117.414C223.957 116.939 223.738 116.271 223.738 115.412C223.738 114.549 223.957 113.882 224.397 113.41C224.84 112.938 225.429 112.702 226.164 112.702ZM226.164 117.399C226.604 117.399 226.96 117.233 227.234 116.901C227.507 116.566 227.644 116.07 227.644 115.412C227.644 114.751 227.507 114.255 227.234 113.923C226.96 113.588 226.604 113.42 226.164 113.42C225.725 113.42 225.369 113.588 225.095 113.923C224.822 114.255 224.685 114.751 224.685 115.412C224.685 116.07 224.822 116.566 225.095 116.901C225.369 117.233 225.725 117.399 226.164 117.399ZM233.512 116.638V115.49H232.883C231.548 115.49 230.881 115.853 230.881 116.579C230.881 116.843 230.978 117.046 231.174 117.189C231.369 117.329 231.633 117.399 231.965 117.399C232.267 117.399 232.56 117.331 232.844 117.194C233.127 117.058 233.35 116.872 233.512 116.638ZM233.512 117.468C233.044 117.904 232.44 118.122 231.701 118.122C231.187 118.122 230.763 117.984 230.431 117.707C230.099 117.427 229.933 117.067 229.933 116.628C229.933 115.417 230.977 114.812 233.063 114.812H233.512C233.512 114.44 233.493 114.172 233.454 114.006C233.415 113.837 233.306 113.697 233.127 113.586C232.948 113.475 232.663 113.42 232.272 113.42C231.452 113.42 231.029 113.713 231.003 114.299H230.085C230.153 113.234 230.899 112.702 232.321 112.702C232.985 112.702 233.503 112.834 233.874 113.098C234.245 113.361 234.43 113.879 234.43 114.65V118H233.512V117.468ZM237.321 118H236.398V110.842H237.321V118ZM241.133 118.122C239.717 118.122 238.977 117.565 238.912 116.452H239.835C239.841 117.084 240.271 117.399 241.124 117.399C241.504 117.399 241.794 117.321 241.993 117.165C242.195 117.006 242.296 116.807 242.296 116.569C242.296 116.335 242.198 116.171 242.003 116.076C241.807 115.979 241.404 115.853 240.792 115.7C240.183 115.547 239.737 115.376 239.454 115.188C239.174 114.999 239.034 114.667 239.034 114.191C239.034 113.762 239.208 113.407 239.556 113.127C239.908 112.844 240.377 112.702 240.963 112.702C242.32 112.702 243.013 113.186 243.043 114.152H242.125C242.092 113.664 241.726 113.42 241.026 113.42C240.717 113.42 240.46 113.479 240.254 113.596C240.053 113.713 239.952 113.884 239.952 114.108C239.952 114.31 240.03 114.457 240.186 114.548C240.342 114.636 240.733 114.756 241.358 114.909C241.986 115.059 242.452 115.235 242.754 115.437C243.06 115.638 243.213 115.987 243.213 116.481C243.213 116.953 243.025 117.346 242.647 117.658C242.273 117.967 241.768 118.122 241.133 118.122Z" fill="black"/>
<g clip-path="url(#clip1)">
<path d="M239.7 78.9062L226.039 65.2457C224.81 64.017 223.177 63.3404 221.439 63.3404C219.702 63.3404 218.068 64.017 216.839 65.2457L214.863 67.2215L208.05 60.4079C207.471 59.8293 206.768 59.4498 206.025 59.2693V31.4093C206.025 30.843 205.566 30.3839 205 30.3839C204.434 30.3839 203.974 30.843 203.974 31.4093V32.5758H196.232C195.062 32.5758 194.111 33.5273 194.111 34.6971V36.9595H187.465C187.095 36.9595 186.754 37.1583 186.572 37.4798C186.39 37.8013 186.395 38.1957 186.585 38.5125L189.557 43.4648L186.585 48.417C186.395 48.7338 186.39 49.1283 186.572 49.4498C186.754 49.7712 187.095 49.97 187.465 49.97H197.328C197.895 49.97 198.354 49.5109 198.354 48.9446C198.354 48.3783 197.895 47.9192 197.328 47.9192H189.276L191.632 43.9923C191.827 43.6676 191.827 43.2619 191.632 42.9372L189.276 39.0103H194.111V44.5607C194.111 45.127 194.57 45.5861 195.136 45.5861H203.975V59.2693C203.232 59.4498 202.529 59.8293 201.95 60.4079L191.3 71.0575L190.969 70.7255C188.432 68.1892 184.305 68.189 181.769 70.7255L170.3 82.1942C169.9 82.5946 169.9 83.2439 170.3 83.6442C170.5 83.8444 170.763 83.9446 171.025 83.9446C171.288 83.9446 171.55 83.8445 171.75 83.6442L183.219 72.1756C184.956 70.4389 187.782 70.4388 189.518 72.1756L189.85 72.5075L172.492 89.8657C172.092 90.2662 172.092 90.9155 172.492 91.3158C172.893 91.7162 173.542 91.7162 173.942 91.3158L188.561 76.6974L190.122 78.2583C190.749 78.8856 191.573 79.1991 192.397 79.1991C193.22 79.1991 194.044 78.8856 194.672 78.2583L198.374 74.5554C198.38 74.5504 198.395 74.5348 198.424 74.5348C198.454 74.5348 198.469 74.5504 198.474 74.5554L199.985 76.0664C201.24 77.3208 203.281 77.3207 204.535 76.0664L208.625 71.9769C209.043 71.5583 209.725 71.5583 210.143 71.9769C210.544 72.3773 211.193 72.3773 211.593 71.9769C211.994 71.5765 211.994 70.9272 211.593 70.5269C210.375 69.3086 208.393 69.3086 207.174 70.5269L203.085 74.6163C202.63 75.0711 201.89 75.0713 201.435 74.6163L199.924 73.1052C199.524 72.7045 198.991 72.484 198.424 72.484C197.858 72.484 197.325 72.7047 196.924 73.1052L193.221 76.8081C192.767 77.263 192.027 77.263 191.572 76.8081L190.011 75.2472L203.4 61.8578C203.828 61.4305 204.396 61.1951 205 61.1951C205.605 61.1951 206.173 61.4304 206.6 61.8578L219.441 74.6992L218.428 75.7122C217.974 76.1669 217.234 76.1669 216.779 75.7122L214.651 73.584C214.25 73.1836 213.601 73.1836 213.201 73.584C212.8 73.9845 212.8 74.6338 213.201 75.0341L215.329 77.1622C215.956 77.7895 216.78 78.103 217.604 78.103C218.428 78.103 219.252 77.7895 219.879 77.1622L220.892 76.1493L236.058 91.3156C236.258 91.5158 236.521 91.616 236.783 91.616C237.045 91.616 237.308 91.5159 237.508 91.3156C237.909 90.9152 237.909 90.2659 237.508 89.8656L216.314 68.6717L218.29 66.6959C219.131 65.8546 220.25 65.3913 221.439 65.3913C222.629 65.3913 223.748 65.8546 224.589 66.6959L238.25 80.3564C238.45 80.5565 238.712 80.6568 238.975 80.6568C239.237 80.6568 239.5 80.5567 239.7 80.3564C240.1 79.9559 240.1 79.3067 239.7 78.9062ZM196.162 43.5353V34.6971C196.162 34.6581 196.193 34.6266 196.232 34.6266H203.975V43.5354H196.162V43.5353Z" fill="black"/>
</g>
<path d="M335 29C323.435 29 314.027 38.4024 314.027 49.9596C314.027 61.0669 333.087 91.1215 333.898 92.3955C334.138 92.7719 334.554 93 335 93C335.447 93 335.862 92.7719 336.102 92.3955C336.913 91.1215 355.973 61.0667 355.973 49.9596C355.973 38.4024 346.565 29 335 29ZM335 89.2288C333.275 86.4386 329.775 80.6624 326.308 74.2622C319.983 62.5831 316.639 54.1796 316.639 49.9596C316.639 39.8428 324.876 31.6122 335 31.6122C345.124 31.6122 353.361 39.8428 353.361 49.9596C353.361 54.1796 350.017 62.5831 343.692 74.2622C340.226 80.6622 336.725 86.4386 335 89.2288Z" fill="black"/>
<path d="M335 38.9358C329.529 38.9358 325.079 43.2655 325.079 48.5873C325.079 53.9089 329.529 58.2383 335 58.2383C340.47 58.2383 344.921 53.9089 344.921 48.5873C344.921 43.2655 340.47 38.9358 335 38.9358ZM335 55.6259C330.97 55.6259 327.691 52.4684 327.691 48.5871C327.691 44.7057 330.97 41.5479 335 41.5479C339.03 41.5479 342.309 44.7057 342.309 48.5871C342.309 52.4684 339.03 55.6259 335 55.6259Z" fill="black"/>
<path d="M300.444 118.122C299.435 118.122 298.679 117.896 298.178 117.443C297.68 116.991 297.418 116.41 297.392 115.7H298.305C298.354 116.234 298.575 116.63 298.969 116.887C299.366 117.141 299.845 117.268 300.405 117.268C300.935 117.268 301.362 117.159 301.684 116.94C302.01 116.722 302.172 116.426 302.172 116.052C302.172 115.658 302.005 115.371 301.669 115.192C301.334 115.013 300.756 114.838 299.936 114.665C299.119 114.489 298.531 114.247 298.173 113.938C297.818 113.628 297.641 113.216 297.641 112.702C297.641 112.123 297.872 111.647 298.334 111.276C298.8 110.905 299.417 110.72 300.185 110.72C300.992 110.72 301.643 110.907 302.138 111.281C302.633 111.656 302.895 112.185 302.924 112.868H302.001C301.907 112.002 301.315 111.569 300.224 111.569C299.697 111.569 299.288 111.669 298.998 111.867C298.709 112.066 298.564 112.329 298.564 112.658C298.564 112.958 298.679 113.182 298.911 113.332C299.145 113.482 299.579 113.627 300.214 113.767C300.852 113.907 301.358 114.045 301.733 114.182C302.107 114.318 302.428 114.532 302.695 114.821C302.962 115.108 303.095 115.493 303.095 115.979C303.095 116.594 302.849 117.105 302.358 117.512C301.87 117.919 301.232 118.122 300.444 118.122ZM308.173 117.341C307.714 117.862 307.198 118.122 306.625 118.122C305.456 118.122 304.872 117.484 304.872 116.208V112.819H305.795V116.169C305.795 116.592 305.87 116.896 306.019 117.082C306.169 117.268 306.416 117.36 306.762 117.36C307.276 117.36 307.746 117.084 308.173 116.53V112.819H309.091V118H308.173V117.341ZM311.981 118H311.058V112.819H311.981V118ZM311.981 111.838H311.058V110.842H311.981V111.838ZM315.955 118.01C315.753 118.049 315.533 118.068 315.296 118.068C314.918 118.068 314.641 118.002 314.465 117.868C314.29 117.731 314.181 117.557 314.138 117.346C314.096 117.134 314.075 116.846 314.075 116.481V113.542H313.435V112.819H314.075V111.53H314.993V112.819H315.833V113.542H314.993V116.53C314.993 116.885 315.037 117.111 315.125 117.209C315.216 117.303 315.339 117.351 315.496 117.351C315.655 117.351 315.808 117.338 315.955 117.312V118.01ZM320.607 116.638V115.49H319.978C318.643 115.49 317.976 115.853 317.976 116.579C317.976 116.843 318.073 117.046 318.269 117.189C318.464 117.329 318.728 117.399 319.06 117.399C319.362 117.399 319.655 117.331 319.938 117.194C320.222 117.058 320.445 116.872 320.607 116.638ZM320.607 117.468C320.139 117.904 319.535 118.122 318.796 118.122C318.282 118.122 317.858 117.984 317.526 117.707C317.194 117.427 317.028 117.067 317.028 116.628C317.028 115.417 318.072 114.812 320.158 114.812H320.607C320.607 114.44 320.588 114.172 320.549 114.006C320.51 113.837 320.401 113.697 320.222 113.586C320.043 113.475 319.758 113.42 319.367 113.42C318.547 113.42 318.124 113.713 318.098 114.299H317.18C317.248 113.234 317.993 112.702 319.416 112.702C320.08 112.702 320.598 112.834 320.969 113.098C321.34 113.361 321.525 113.879 321.525 114.65V118H320.607V117.468ZM324.415 113.439C324.826 112.948 325.319 112.702 325.895 112.702C326.572 112.702 327.096 112.943 327.467 113.425C327.838 113.903 328.024 114.551 328.024 115.368C328.024 116.218 327.815 116.89 327.399 117.385C326.985 117.876 326.463 118.122 325.831 118.122C325.272 118.122 324.8 117.948 324.415 117.6V118H323.493V110.842H324.415V113.439ZM324.415 116.77C324.809 117.189 325.262 117.399 325.773 117.399C326.17 117.399 326.486 117.23 326.72 116.892C326.954 116.55 327.072 116.042 327.072 115.368C327.072 114.73 326.961 114.247 326.74 113.918C326.518 113.586 326.209 113.42 325.812 113.42C325.301 113.42 324.835 113.716 324.415 114.309V116.77ZM330.582 118H329.659V110.842H330.582V118ZM334.746 118.122C333.985 118.122 333.373 117.884 332.91 117.409C332.448 116.931 332.217 116.265 332.217 115.412C332.217 114.566 332.44 113.903 332.886 113.425C333.335 112.943 333.921 112.702 334.644 112.702C335.383 112.702 335.972 112.938 336.411 113.41C336.854 113.882 337.075 114.549 337.075 115.412V115.632H333.174C333.213 116.231 333.377 116.675 333.667 116.965C333.96 117.255 334.32 117.399 334.746 117.399C335.069 117.399 335.358 117.318 335.615 117.155C335.876 116.989 336.013 116.755 336.026 116.452H336.978C336.906 116.986 336.664 117.398 336.25 117.688C335.84 117.977 335.339 118.122 334.746 118.122ZM336.104 114.909C336.029 114.411 335.861 114.038 335.601 113.791C335.34 113.544 335.021 113.42 334.644 113.42C334.276 113.42 333.96 113.544 333.696 113.791C333.433 114.035 333.265 114.408 333.194 114.909H336.104ZM344.789 118.122C343.78 118.122 343.025 117.896 342.523 117.443C342.025 116.991 341.763 116.41 341.737 115.7H342.65C342.699 116.234 342.921 116.63 343.314 116.887C343.712 117.141 344.19 117.268 344.75 117.268C345.281 117.268 345.707 117.159 346.029 116.94C346.355 116.722 346.518 116.426 346.518 116.052C346.518 115.658 346.35 115.371 346.015 115.192C345.679 115.013 345.102 114.838 344.281 114.665C343.464 114.489 342.877 114.247 342.519 113.938C342.164 113.628 341.986 113.216 341.986 112.702C341.986 112.123 342.217 111.647 342.68 111.276C343.145 110.905 343.762 110.72 344.53 110.72C345.338 110.72 345.989 110.907 346.483 111.281C346.978 111.656 347.24 112.185 347.27 112.868H346.347C346.252 112.002 345.66 111.569 344.569 111.569C344.042 111.569 343.633 111.669 343.344 111.867C343.054 112.066 342.909 112.329 342.909 112.658C342.909 112.958 343.025 113.182 343.256 113.332C343.49 113.482 343.925 113.627 344.56 113.767C345.198 113.907 345.704 114.045 346.078 114.182C346.452 114.318 346.773 114.532 347.04 114.821C347.307 115.108 347.44 115.493 347.44 115.979C347.44 116.594 347.195 117.105 346.703 117.512C346.215 117.919 345.577 118.122 344.789 118.122ZM350.16 113.439C350.57 112.948 351.063 112.702 351.639 112.702C352.316 112.702 352.84 112.943 353.211 113.425C353.582 113.903 353.768 114.551 353.768 115.368C353.768 116.218 353.56 116.89 353.143 117.385C352.73 117.876 352.207 118.122 351.576 118.122C351.016 118.122 350.544 117.948 350.16 117.6V119.992H349.237V112.819H350.16V113.439ZM350.16 116.77C350.553 117.189 351.006 117.399 351.517 117.399C351.914 117.399 352.23 117.23 352.464 116.892C352.699 116.55 352.816 116.042 352.816 115.368C352.816 114.73 352.705 114.247 352.484 113.918C352.262 113.586 351.953 113.42 351.556 113.42C351.045 113.42 350.579 113.716 350.16 114.309V116.77ZM358.684 116.638V115.49H358.054C356.72 115.49 356.053 115.853 356.053 116.579C356.053 116.843 356.15 117.046 356.346 117.189C356.541 117.329 356.804 117.399 357.137 117.399C357.439 117.399 357.732 117.331 358.015 117.194C358.299 117.058 358.522 116.872 358.684 116.638ZM358.684 117.468C358.216 117.904 357.612 118.122 356.873 118.122C356.359 118.122 355.935 117.984 355.603 117.707C355.271 117.427 355.105 117.067 355.105 116.628C355.105 115.417 356.149 114.812 358.235 114.812H358.684C358.684 114.44 358.665 114.172 358.626 114.006C358.587 113.837 358.478 113.697 358.299 113.586C358.12 113.475 357.835 113.42 357.444 113.42C356.624 113.42 356.201 113.713 356.175 114.299H355.257C355.325 113.234 356.07 112.702 357.493 112.702C358.157 112.702 358.675 112.834 359.046 113.098C359.417 113.361 359.602 113.879 359.602 114.65V118H358.684V117.468ZM363.669 118.122C362.933 118.122 362.344 117.886 361.902 117.414C361.462 116.939 361.242 116.271 361.242 115.412C361.242 114.549 361.462 113.882 361.902 113.41C362.344 112.938 362.933 112.702 363.669 112.702C364.236 112.702 364.708 112.845 365.085 113.132C365.466 113.418 365.691 113.832 365.759 114.372H364.812C364.799 114.063 364.682 113.827 364.46 113.664C364.242 113.501 363.978 113.42 363.669 113.42C363.23 113.42 362.873 113.588 362.6 113.923C362.326 114.255 362.19 114.751 362.19 115.412C362.19 116.07 362.326 116.566 362.6 116.901C362.873 117.233 363.23 117.399 363.669 117.399C363.978 117.399 364.242 117.318 364.46 117.155C364.682 116.993 364.799 116.758 364.812 116.452H365.759C365.691 116.993 365.466 117.406 365.085 117.692C364.708 117.979 364.236 118.122 363.669 118.122ZM369.372 118.122C368.61 118.122 367.998 117.884 367.536 117.409C367.074 116.931 366.842 116.265 366.842 115.412C366.842 114.566 367.065 113.903 367.511 113.425C367.961 112.943 368.546 112.702 369.269 112.702C370.008 112.702 370.597 112.938 371.037 113.41C371.479 113.882 371.701 114.549 371.701 115.412V115.632H367.799C367.838 116.231 368.003 116.675 368.293 116.965C368.586 117.255 368.945 117.399 369.372 117.399C369.694 117.399 369.984 117.318 370.241 117.155C370.501 116.989 370.638 116.755 370.651 116.452H371.603C371.532 116.986 371.289 117.398 370.876 117.688C370.465 117.977 369.964 118.122 369.372 118.122ZM370.729 114.909C370.654 114.411 370.487 114.038 370.226 113.791C369.966 113.544 369.647 113.42 369.269 113.42C368.901 113.42 368.586 113.544 368.322 113.791C368.058 114.035 367.891 114.408 367.819 114.909H370.729Z" fill="black"/>
<path d="M414.276 110.842H416.547C418.979 110.842 420.194 112.022 420.194 114.382C420.194 116.794 418.979 118 416.547 118H414.276V110.842ZM415.224 117.15H416.527C417.566 117.15 418.274 116.91 418.651 116.428C419.029 115.943 419.218 115.261 419.218 114.382C419.218 113.526 419.029 112.863 418.651 112.395C418.277 111.926 417.569 111.691 416.527 111.691H415.224V117.15ZM422.904 118H421.981V112.819H422.904V118ZM422.904 111.838H421.981V110.842H422.904V111.838ZM429.055 112.819L427.097 118H426.277L424.319 112.819H425.315L426.687 116.872L428.059 112.819H429.055ZM432.668 118.122C431.906 118.122 431.294 117.884 430.832 117.409C430.37 116.931 430.139 116.265 430.139 115.412C430.139 114.566 430.362 113.903 430.808 113.425C431.257 112.943 431.843 112.702 432.566 112.702C433.305 112.702 433.894 112.938 434.333 113.41C434.776 113.882 434.997 114.549 434.997 115.412V115.632H431.096C431.135 116.231 431.299 116.675 431.589 116.965C431.882 117.255 432.242 117.399 432.668 117.399C432.99 117.399 433.28 117.318 433.537 117.155C433.798 116.989 433.934 116.755 433.947 116.452H434.9C434.828 116.986 434.585 117.398 434.172 117.688C433.762 117.977 433.261 118.122 432.668 118.122ZM434.026 114.909C433.951 114.411 433.783 114.038 433.523 113.791C433.262 113.544 432.943 113.42 432.566 113.42C432.198 113.42 431.882 113.544 431.618 113.791C431.355 114.035 431.187 114.408 431.115 114.909H434.026ZM439.323 113.659C439.193 113.62 439.005 113.601 438.761 113.601C438.293 113.601 437.891 113.846 437.555 114.338V118H436.632V112.819H437.555V113.542C437.943 112.982 438.392 112.702 438.903 112.702C439.033 112.702 439.173 112.715 439.323 112.741V113.659ZM442.413 118.122C440.997 118.122 440.257 117.565 440.191 116.452H441.114C441.121 117.084 441.55 117.399 442.403 117.399C442.784 117.399 443.074 117.321 443.272 117.165C443.474 117.006 443.575 116.807 443.575 116.569C443.575 116.335 443.478 116.171 443.282 116.076C443.087 115.979 442.683 115.853 442.071 115.7C441.463 115.547 441.017 115.376 440.733 115.188C440.453 114.999 440.313 114.667 440.313 114.191C440.313 113.762 440.488 113.407 440.836 113.127C441.188 112.844 441.656 112.702 442.242 112.702C443.6 112.702 444.293 113.186 444.322 114.152H443.404C443.372 113.664 443.006 113.42 442.306 113.42C441.996 113.42 441.739 113.479 441.534 113.596C441.332 113.713 441.231 113.884 441.231 114.108C441.231 114.31 441.31 114.457 441.466 114.548C441.622 114.636 442.013 114.756 442.638 114.909C443.266 115.059 443.731 115.235 444.034 115.437C444.34 115.638 444.493 115.987 444.493 116.481C444.493 116.953 444.304 117.346 443.927 117.658C443.552 117.967 443.048 118.122 442.413 118.122ZM448.365 118.122C447.603 118.122 446.991 117.884 446.529 117.409C446.066 116.931 445.835 116.265 445.835 115.412C445.835 114.566 446.058 113.903 446.504 113.425C446.954 112.943 447.539 112.702 448.262 112.702C449.001 112.702 449.59 112.938 450.03 113.41C450.472 113.882 450.694 114.549 450.694 115.412V115.632H446.792C446.831 116.231 446.996 116.675 447.286 116.965C447.579 117.255 447.938 117.399 448.365 117.399C448.687 117.399 448.977 117.318 449.234 117.155C449.494 116.989 449.631 116.755 449.644 116.452H450.596C450.524 116.986 450.282 117.398 449.869 117.688C449.458 117.977 448.957 118.122 448.365 118.122ZM449.722 114.909C449.647 114.411 449.48 114.038 449.219 113.791C448.959 113.544 448.64 113.42 448.262 113.42C447.894 113.42 447.579 113.544 447.315 113.791C447.051 114.035 446.884 114.408 446.812 114.909H449.722ZM461.044 118H455.707V110.842H460.878V111.691H456.654V113.879H460.605V114.729H456.654V117.15H461.044V118ZM467.108 118H465.965L464.676 115.979L463.387 118H462.245L464.159 115.31L462.396 112.819H463.539L464.676 114.631L465.814 112.819H466.957L465.194 115.3L467.108 118ZM470.657 118.122C469.896 118.122 469.284 117.884 468.821 117.409C468.359 116.931 468.128 116.265 468.128 115.412C468.128 114.566 468.351 113.903 468.797 113.425C469.246 112.943 469.832 112.702 470.555 112.702C471.294 112.702 471.883 112.938 472.322 113.41C472.765 113.882 472.986 114.549 472.986 115.412V115.632H469.085C469.124 116.231 469.288 116.675 469.578 116.965C469.871 117.255 470.231 117.399 470.657 117.399C470.979 117.399 471.269 117.318 471.526 117.155C471.787 116.989 471.924 116.755 471.937 116.452H472.889C472.817 116.986 472.575 117.398 472.161 117.688C471.751 117.977 471.25 118.122 470.657 118.122ZM472.015 114.909C471.94 114.411 471.772 114.038 471.512 113.791C471.251 113.544 470.932 113.42 470.555 113.42C470.187 113.42 469.871 113.544 469.607 113.791C469.344 114.035 469.176 114.408 469.104 114.909H472.015ZM477.312 113.659C477.182 113.62 476.995 113.601 476.75 113.601C476.282 113.601 475.88 113.846 475.544 114.338V118H474.621V112.819H475.544V113.542C475.932 112.982 476.381 112.702 476.892 112.702C477.022 112.702 477.162 112.715 477.312 112.741V113.659ZM480.651 118.122C479.915 118.122 479.326 117.886 478.884 117.414C478.444 116.939 478.224 116.271 478.224 115.412C478.224 114.549 478.444 113.882 478.884 113.41C479.326 112.938 479.915 112.702 480.651 112.702C481.218 112.702 481.69 112.845 482.067 113.132C482.448 113.418 482.673 113.832 482.741 114.372H481.794C481.781 114.063 481.664 113.827 481.442 113.664C481.224 113.501 480.96 113.42 480.651 113.42C480.212 113.42 479.855 113.588 479.582 113.923C479.308 114.255 479.172 114.751 479.172 115.412C479.172 116.07 479.308 116.566 479.582 116.901C479.855 117.233 480.212 117.399 480.651 117.399C480.96 117.399 481.224 117.318 481.442 117.155C481.664 116.993 481.781 116.758 481.794 116.452H482.741C482.673 116.993 482.448 117.406 482.067 117.692C481.69 117.979 481.218 118.122 480.651 118.122ZM485.074 118H484.152V112.819H485.074V118ZM485.074 111.838H484.152V110.842H485.074V111.838ZM488.887 118.122C487.471 118.122 486.731 117.565 486.666 116.452H487.588C487.595 117.084 488.025 117.399 488.878 117.399C489.258 117.399 489.548 117.321 489.747 117.165C489.949 117.006 490.049 116.807 490.049 116.569C490.049 116.335 489.952 116.171 489.756 116.076C489.561 115.979 489.157 115.853 488.546 115.7C487.937 115.547 487.491 115.376 487.208 115.188C486.928 114.999 486.788 114.667 486.788 114.191C486.788 113.762 486.962 113.407 487.31 113.127C487.662 112.844 488.13 112.702 488.716 112.702C490.074 112.702 490.767 113.186 490.796 114.152H489.879C489.846 113.664 489.48 113.42 488.78 113.42C488.471 113.42 488.213 113.479 488.008 113.596C487.807 113.713 487.706 113.884 487.706 114.108C487.706 114.31 487.784 114.457 487.94 114.548C488.096 114.636 488.487 114.756 489.112 114.909C489.74 115.059 490.206 115.235 490.508 115.437C490.814 115.638 490.967 115.987 490.967 116.481C490.967 116.953 490.779 117.346 490.401 117.658C490.027 117.967 489.522 118.122 488.887 118.122ZM494.839 118.122C494.077 118.122 493.465 117.884 493.003 117.409C492.541 116.931 492.31 116.265 492.31 115.412C492.31 114.566 492.533 113.903 492.979 113.425C493.428 112.943 494.014 112.702 494.736 112.702C495.475 112.702 496.064 112.938 496.504 113.41C496.947 113.882 497.168 114.549 497.168 115.412V115.632H493.267C493.306 116.231 493.47 116.675 493.76 116.965C494.053 117.255 494.412 117.399 494.839 117.399C495.161 117.399 495.451 117.318 495.708 117.155C495.968 116.989 496.105 116.755 496.118 116.452H497.07C496.999 116.986 496.756 117.398 496.343 117.688C495.933 117.977 495.431 118.122 494.839 118.122ZM496.196 114.909C496.121 114.411 495.954 114.038 495.693 113.791C495.433 113.544 495.114 113.42 494.736 113.42C494.368 113.42 494.053 113.544 493.789 113.791C493.525 114.035 493.358 114.408 493.286 114.909H496.196Z" fill="black"/>
<path d="M472.941 55.7314V49.7059C472.941 45.5542 469.563 42.1765 465.412 42.1765H461.647V29H424V66.6471H437.176V70.4118C437.176 74.5635 440.554 77.9412 444.706 77.9412H450.731C452.48 86.5227 460.086 93 469.176 93C479.556 93 488 84.5558 488 74.1765C488 65.0861 481.523 57.4803 472.941 55.7314ZM437.176 49.7059V64.2H426.286V31.2857H459.2V42.1765H444.706C440.554 42.1765 437.176 45.5542 437.176 49.7059ZM444.706 75.6286C442.63 75.6286 439.543 72.4876 439.543 70.4118V49.7059C439.543 47.63 442.63 44.5429 444.706 44.5429H465.412C467.488 44.5429 470.629 47.63 470.629 49.7059V55.7314C456.914 55.7314 450.514 65.2493 450.514 75.6286H444.706ZM469.714 90.7143C461.345 90.7143 452.8 83.8634 452.8 75.6286C452.598 66.0286 459.657 57.8 471.543 58.2571C479.352 58.5575 485.714 66.4307 485.714 74.1765C485.714 82.4799 478.018 90.7143 469.714 90.7143Z" fill="black"/>
<path d="M543.076 118H542.178V111.911L540.137 118H539.287L537.246 111.911V118H536.348V110.842H537.769L539.707 116.809L541.655 110.842H543.076V118ZM547.255 112.702C547.994 112.702 548.584 112.938 549.023 113.41C549.466 113.882 549.687 114.549 549.687 115.412C549.687 116.271 549.466 116.939 549.023 117.414C548.584 117.886 547.994 118.122 547.255 118.122C546.52 118.122 545.931 117.886 545.488 117.414C545.048 116.939 544.829 116.271 544.829 115.412C544.829 114.549 545.048 113.882 545.488 113.41C545.931 112.938 546.52 112.702 547.255 112.702ZM547.255 117.399C547.695 117.399 548.051 117.233 548.325 116.901C548.598 116.566 548.735 116.07 548.735 115.412C548.735 114.751 548.598 114.255 548.325 113.923C548.051 113.588 547.695 113.42 547.255 113.42C546.816 113.42 546.46 113.588 546.186 113.923C545.913 114.255 545.776 114.751 545.776 115.412C545.776 116.07 545.913 116.566 546.186 116.901C546.46 117.233 546.816 117.399 547.255 117.399ZM553.334 118.01C553.132 118.049 552.912 118.068 552.675 118.068C552.297 118.068 552.021 118.002 551.845 117.868C551.669 117.731 551.56 117.557 551.518 117.346C551.475 117.134 551.454 116.846 551.454 116.481V113.542H550.814V112.819H551.454V111.53H552.372V112.819H553.212V113.542H552.372V116.53C552.372 116.885 552.416 117.111 552.504 117.209C552.595 117.303 552.719 117.351 552.875 117.351C553.035 117.351 553.187 117.338 553.334 117.312V118.01ZM555.628 118H554.705V112.819H555.628V118ZM555.628 111.838H554.705V110.842H555.628V111.838ZM561.78 112.819L559.822 118H559.002L557.044 112.819H558.04L559.412 116.872L560.784 112.819H561.78ZM566.472 116.638V115.49H565.842C564.507 115.49 563.84 115.853 563.84 116.579C563.84 116.843 563.938 117.046 564.133 117.189C564.328 117.329 564.592 117.399 564.924 117.399C565.227 117.399 565.52 117.331 565.803 117.194C566.086 117.058 566.309 116.872 566.472 116.638ZM566.472 117.468C566.003 117.904 565.399 118.122 564.66 118.122C564.146 118.122 563.723 117.984 563.391 117.707C563.059 117.427 562.893 117.067 562.893 116.628C562.893 115.417 563.936 114.812 566.023 114.812H566.472C566.472 114.44 566.452 114.172 566.413 114.006C566.374 113.837 566.265 113.697 566.086 113.586C565.907 113.475 565.622 113.42 565.232 113.42C564.411 113.42 563.988 113.713 563.962 114.299H563.044C563.112 113.234 563.858 112.702 565.28 112.702C565.945 112.702 566.462 112.834 566.833 113.098C567.204 113.361 567.39 113.879 567.39 114.65V118H566.472V117.468ZM571.369 118.01C571.167 118.049 570.947 118.068 570.71 118.068C570.332 118.068 570.055 118.002 569.879 117.868C569.704 117.731 569.595 117.557 569.552 117.346C569.51 117.134 569.489 116.846 569.489 116.481V113.542H568.849V112.819H569.489V111.53H570.407V112.819H571.247V113.542H570.407V116.53C570.407 116.885 570.451 117.111 570.539 117.209C570.63 117.303 570.754 117.351 570.91 117.351C571.069 117.351 571.222 117.338 571.369 117.312V118.01ZM573.663 118H572.74V112.819H573.663V118ZM573.663 111.838H572.74V110.842H573.663V111.838ZM577.725 112.702C578.464 112.702 579.053 112.938 579.493 113.41C579.935 113.882 580.157 114.549 580.157 115.412C580.157 116.271 579.935 116.939 579.493 117.414C579.053 117.886 578.464 118.122 577.725 118.122C576.989 118.122 576.4 117.886 575.957 117.414C575.518 116.939 575.298 116.271 575.298 115.412C575.298 114.549 575.518 113.882 575.957 113.41C576.4 112.938 576.989 112.702 577.725 112.702ZM577.725 117.399C578.164 117.399 578.521 117.233 578.794 116.901C579.068 116.566 579.204 116.07 579.204 115.412C579.204 114.751 579.068 114.255 578.794 113.923C578.521 113.588 578.164 113.42 577.725 113.42C577.286 113.42 576.929 113.588 576.656 113.923C576.382 114.255 576.246 114.751 576.246 115.412C576.246 116.07 576.382 116.566 576.656 116.901C576.929 117.233 577.286 117.399 577.725 117.399ZM582.715 113.479C583.174 112.961 583.69 112.702 584.263 112.702C585.431 112.702 586.015 113.339 586.015 114.611V118H585.093V114.65C585.093 114.227 585.016 113.923 584.863 113.737C584.713 113.552 584.466 113.459 584.121 113.459C583.652 113.459 583.183 113.736 582.715 114.289V118H581.792V112.819H582.715V113.479ZM592.406 118H591.454V110.842H592.406V118ZM595.521 113.479C595.979 112.961 596.495 112.702 597.068 112.702C598.237 112.702 598.821 113.339 598.821 114.611V118H597.898V114.65C597.898 114.227 597.822 113.923 597.669 113.737C597.519 113.552 597.272 113.459 596.927 113.459C596.458 113.459 595.989 113.736 595.521 114.289V118H594.598V112.819H595.521V113.479ZM602.864 118.122C602.128 118.122 601.539 117.886 601.096 117.414C600.657 116.939 600.437 116.271 600.437 115.412C600.437 114.549 600.657 113.882 601.096 113.41C601.539 112.938 602.128 112.702 602.864 112.702C603.43 112.702 603.902 112.845 604.28 113.132C604.661 113.418 604.885 113.832 604.954 114.372H604.006C603.993 114.063 603.876 113.827 603.655 113.664C603.437 113.501 603.173 113.42 602.864 113.42C602.424 113.42 602.068 113.588 601.794 113.923C601.521 114.255 601.384 114.751 601.384 115.412C601.384 116.07 601.521 116.566 601.794 116.901C602.068 117.233 602.424 117.399 602.864 117.399C603.173 117.399 603.437 117.318 603.655 117.155C603.876 116.993 603.993 116.758 604.006 116.452H604.954C604.885 116.993 604.661 117.406 604.28 117.692C603.902 117.979 603.43 118.122 602.864 118.122ZM608.566 118.122C607.804 118.122 607.193 117.884 606.73 117.409C606.268 116.931 606.037 116.265 606.037 115.412C606.037 114.566 606.26 113.903 606.706 113.425C607.155 112.943 607.741 112.702 608.464 112.702C609.203 112.702 609.792 112.938 610.231 113.41C610.674 113.882 610.895 114.549 610.895 115.412V115.632H606.994C607.033 116.231 607.197 116.675 607.487 116.965C607.78 117.255 608.14 117.399 608.566 117.399C608.888 117.399 609.178 117.318 609.435 117.155C609.696 116.989 609.832 116.755 609.846 116.452H610.798C610.726 116.986 610.484 117.398 610.07 117.688C609.66 117.977 609.159 118.122 608.566 118.122ZM609.924 114.909C609.849 114.411 609.681 114.038 609.421 113.791C609.16 113.544 608.841 113.42 608.464 113.42C608.096 113.42 607.78 113.544 607.516 113.791C607.253 114.035 607.085 114.408 607.013 114.909H609.924ZM613.453 113.479C613.912 112.961 614.428 112.702 615.001 112.702C616.17 112.702 616.754 113.339 616.754 114.611V118H615.831V114.65C615.831 114.227 615.755 113.923 615.602 113.737C615.452 113.552 615.205 113.459 614.86 113.459C614.391 113.459 613.922 113.736 613.453 114.289V118H612.53V112.819H613.453V113.479ZM620.709 118.01C620.507 118.049 620.287 118.068 620.049 118.068C619.672 118.068 619.395 118.002 619.219 117.868C619.044 117.731 618.934 117.557 618.892 117.346C618.85 117.134 618.829 116.846 618.829 116.481V113.542H618.189V112.819H618.829V111.53H619.747V112.819H620.587V113.542H619.747V116.53C619.747 116.885 619.791 117.111 619.879 117.209C619.97 117.303 620.093 117.351 620.25 117.351C620.409 117.351 620.562 117.338 620.709 117.312V118.01ZM623.003 118H622.08V112.819H623.003V118ZM623.003 111.838H622.08V110.842H623.003V111.838ZM629.155 112.819L627.197 118H626.376L624.418 112.819H625.414L626.787 116.872L628.159 112.819H629.155ZM632.767 118.122C632.006 118.122 631.394 117.884 630.931 117.409C630.469 116.931 630.238 116.265 630.238 115.412C630.238 114.566 630.461 113.903 630.907 113.425C631.356 112.943 631.942 112.702 632.665 112.702C633.404 112.702 633.993 112.938 634.432 113.41C634.875 113.882 635.096 114.549 635.096 115.412V115.632H631.195C631.234 116.231 631.399 116.675 631.688 116.965C631.981 117.255 632.341 117.399 632.767 117.399C633.09 117.399 633.379 117.318 633.637 117.155C633.897 116.989 634.034 116.755 634.047 116.452H634.999C634.927 116.986 634.685 117.398 634.271 117.688C633.861 117.977 633.36 118.122 632.767 118.122ZM634.125 114.909C634.05 114.411 633.882 114.038 633.622 113.791C633.361 113.544 633.042 113.42 632.665 113.42C632.297 113.42 631.981 113.544 631.718 113.791C631.454 114.035 631.286 114.408 631.215 114.909H634.125Z" fill="black"/>
<path d="M585 74.6719C585 75.427 584.388 76.0391 583.633 76.0391C582.878 76.0391 582.266 75.427 582.266 74.6719C582.266 73.9167 582.878 73.3047 583.633 73.3047C584.388 73.3047 585 73.9167 585 74.6719Z" fill="black"/>
<path d="M598.672 45.1406C597.548 45.1406 596.501 45.4819 595.631 46.0661C594.893 43.9539 592.875 42.4062 590.469 42.4062C588.837 42.4062 587.372 43.1251 586.369 44.2621C585.311 43.0637 583.835 42.4062 582.266 42.4062C580.634 42.4062 579.167 43.1262 578.164 44.2637C577.161 43.1262 575.695 42.4062 574.062 42.4062C571.047 42.4062 568.594 44.8597 568.594 47.875V55.5339C566.891 56.8157 565.859 58.8424 565.859 61C565.859 68.2856 569.291 75.1931 575.156 79.5938C576.171 80.3553 576.797 81.5612 576.797 82.875V94.6328C576.797 95.388 577.409 96 578.164 96H600.039C600.794 96 601.406 95.388 601.406 94.6328V83.095C602.296 80.3884 602.978 77.5916 603.435 74.7782C603.904 71.8905 604.141 68.9452 604.141 66.0244C604.141 64.2561 604.141 52.3873 604.141 50.6094C604.141 47.5882 601.694 45.1406 598.672 45.1406ZM598.672 47.875C600.182 47.875 601.406 49.0991 601.406 50.6094V59.6328C601.406 61.1405 600.18 62.3672 598.672 62.3672C597.164 62.3672 595.938 61.1405 595.938 59.6328C595.938 57.3091 595.938 52.7381 595.938 50.6094C595.938 49.1017 597.164 47.875 598.672 47.875ZM590.469 45.1406C591.979 45.1406 593.203 46.3647 593.203 47.875V56.8984C593.203 58.4061 591.976 59.6328 590.469 59.6328C588.961 59.6328 587.734 58.4061 587.734 56.8984V47.875C587.734 46.3674 588.961 45.1406 590.469 45.1406ZM582.266 45.1406C583.776 45.1406 585 46.3647 585 47.875V54.1641H579.531V47.875C579.531 46.3674 580.758 45.1406 582.266 45.1406ZM574.062 45.1406C575.57 45.1406 576.797 46.3674 576.797 47.875V54.1641H572.695C572.234 54.1641 571.777 54.2116 571.328 54.3029V47.875C571.328 46.3674 572.555 45.1406 574.062 45.1406ZM579.531 93.2656V86.9766H598.672V93.2656H579.531ZM600.737 74.3402C599.855 79.7604 598.672 82.2192 598.672 82.875V84.2422H579.531V82.875C579.531 80.7569 578.544 78.7168 576.797 77.4062C571.613 73.5172 568.594 67.4188 568.594 61C568.594 58.7778 570.392 56.8968 572.695 56.8968H584.863C584.228 60.0136 581.465 62.3672 578.164 62.3672H575.43C574.675 62.3672 574.062 62.9792 574.062 63.7344C574.062 64.4895 574.675 65.1016 575.43 65.1016H576.797C579.398 65.1016 581.654 66.9499 582.16 69.4958C582.307 70.2312 583.022 70.7182 583.768 70.5698C584.509 70.4229 584.99 69.703 584.842 68.9623C584.467 67.0744 583.45 65.4428 582.048 64.2748C583.836 63.477 585.339 62.1488 586.348 60.4878C587.351 61.6382 588.826 62.3672 590.469 62.3672C591.594 62.3672 592.641 62.0254 593.511 61.4401C594.259 63.5699 596.289 65.1016 598.672 65.1016C599.667 65.1016 600.601 64.8329 601.406 64.3656V66.0244C601.406 68.7988 601.181 71.5973 600.737 74.3402Z" fill="black"/>
<path d="M587.734 35.5703V27.3672C587.734 26.612 587.122 26 586.367 26C585.612 26 585 26.612 585 27.3672V35.5703C585 36.3255 585.612 36.9375 586.367 36.9375C587.122 36.9375 587.734 36.3255 587.734 35.5703Z" fill="black"/>
<path d="M596.933 37.3097L602.733 31.5083C603.266 30.9742 603.266 30.109 602.732 29.575C602.198 29.0409 601.333 29.0409 600.799 29.575L594.999 35.3759C594.466 35.91 594.466 36.7757 595 37.3097C595.534 37.8433 596.399 37.8438 596.933 37.3097Z" fill="black"/>
<path d="M578.536 36.5081C579.07 35.974 579.07 35.1083 578.536 34.5748L572.735 28.775C572.201 28.2414 571.336 28.2414 570.802 28.7755C570.267 29.309 570.268 30.1747 570.802 30.7088L576.602 36.5086C577.137 37.0422 578.002 37.0422 578.536 36.5081Z" fill="black"/>
<path d="M747.633 79.6792C748.388 79.6792 749 79.067 749 78.3121V75.9213C749 72.2721 746.898 69.1064 743.842 67.5653C745.432 66.2194 746.444 64.2113 746.444 61.9702V60.2662C746.444 56.2238 743.155 52.9351 739.113 52.9351C735.07 52.9351 731.782 56.2238 731.782 60.2662V61.9702C731.782 63.9183 732.547 65.6899 733.791 67.0042C731.387 67.5404 729.114 68.5636 727.084 70.0447L714.704 79.0763C714.448 79.2631 714.213 79.4729 714 79.7008C713.787 79.4729 713.552 79.2631 713.296 79.0763L700.916 70.0447C698.886 68.5636 696.613 67.5404 694.209 67.0042C695.453 65.6899 696.218 63.9183 696.218 61.9702V60.2662C696.218 56.2238 692.93 52.9351 688.887 52.9351C684.845 52.9351 681.556 56.2238 681.556 60.2662V61.9702C681.556 64.2113 682.568 66.2194 684.158 67.5653C681.102 69.1064 679 72.2721 679 75.9214V94.6298C679 95.3848 679.612 95.997 680.367 95.997H697.407C698.162 95.997 698.774 95.3848 698.774 94.6298V82.0759L707.72 87.4695C709.298 88.4213 711.199 88.4482 712.804 87.5419C713.257 87.2859 713.657 86.9695 714 86.6083C714.343 86.9696 714.743 87.286 715.196 87.5419C715.977 87.9831 716.828 88.2031 717.678 88.2031C718.574 88.2031 719.47 87.9581 720.28 87.4695L729.226 82.0759V94.6298C729.226 95.3848 729.838 95.997 730.593 95.997H747.633C748.388 95.997 749 95.3848 749 94.6298V89.6902C749 88.9352 748.388 88.323 747.633 88.323C746.878 88.323 746.266 88.9352 746.266 89.6902V93.2626H731.96V80.6456C731.96 80.5748 731.953 80.5057 731.943 80.4378L733.429 79.5417C734.075 79.1518 734.283 78.3117 733.894 77.665C733.504 77.0183 732.663 76.8098 732.017 77.2001L718.868 85.1279C718.145 85.5637 717.275 85.5761 716.541 85.161C715.806 84.746 715.367 83.9945 715.367 83.1505C715.367 82.4157 715.722 81.7183 716.315 81.2851L728.696 72.2535C731.343 70.322 734.475 69.3011 737.752 69.3011H739.645C743.296 69.3011 746.266 72.2709 746.266 75.9213V78.3121C746.266 79.067 746.878 79.6792 747.633 79.6792ZM684.29 60.2662C684.29 57.7316 686.352 55.6694 688.887 55.6694C691.422 55.6694 693.484 57.7316 693.484 60.2662V61.9702C693.484 64.5049 691.422 66.567 688.887 66.567C686.352 66.567 684.29 64.5049 684.29 61.9702V60.2662ZM711.459 85.161C710.724 85.5759 709.854 85.5635 709.132 85.1279L695.983 77.2001C695.336 76.8099 694.496 77.0184 694.106 77.665C693.716 78.3115 693.924 79.1518 694.571 79.5417L696.056 80.4368C696.045 80.5049 696.04 80.5746 696.04 80.6456V93.2626H681.734V75.9214C681.734 72.271 684.704 69.3012 688.355 69.3012H690.248C693.525 69.3012 696.657 70.3221 699.304 72.2537L711.685 81.2853C712.278 81.7184 712.633 82.4158 712.633 83.1507C712.633 83.9945 712.194 84.746 711.459 85.161ZM743.71 61.9702C743.71 64.5049 741.647 66.567 739.113 66.567C736.578 66.567 734.516 64.5049 734.516 61.9702V60.2662C734.516 57.7316 736.578 55.6694 739.113 55.6694C741.647 55.6694 743.71 57.7316 743.71 60.2662V61.9702Z" fill="black"/>
<path d="M748.599 82.8667C748.345 82.6125 747.992 82.4674 747.633 82.4674C747.273 82.4674 746.92 82.6125 746.666 82.8667C746.412 83.1223 746.266 83.4737 746.266 83.8333C746.266 84.1942 746.412 84.5456 746.666 84.8012C746.92 85.0555 747.273 85.2018 747.633 85.2018C747.992 85.2018 748.345 85.0557 748.599 84.8012C748.853 84.5456 749 84.1942 749 83.8333C749 83.4737 748.854 83.121 748.599 82.8667Z" fill="black"/>
<path d="M735.471 26.0035H730.959C730.204 26.0035 729.592 26.6156 729.592 27.3707C729.592 28.1258 730.204 28.7379 730.959 28.7379H732.17L716.193 44.715L705.738 34.2597C705.481 34.0033 705.134 33.8592 704.771 33.8592C704.408 33.8592 704.061 34.0033 703.804 34.2597L694.062 44.002C693.528 44.536 693.528 45.4016 694.062 45.9356C694.596 46.4696 695.461 46.4695 695.996 45.9356L704.771 37.1599L715.226 47.6152C715.493 47.8822 715.843 48.0156 716.193 48.0156C716.543 48.0156 716.893 47.8822 717.16 47.6152L734.104 30.6715V31.8824C734.104 32.6375 734.716 33.2496 735.471 33.2496C736.226 33.2496 736.838 32.6375 736.838 31.8824V27.3707C736.838 26.6156 736.226 26.0035 735.471 26.0035Z" fill="black"/>
<path d="M692.545 47.4527C692.29 47.1984 691.938 47.0521 691.578 47.0521C691.218 47.0521 690.866 47.1984 690.611 47.4527C690.357 47.707 690.211 48.0597 690.211 48.4193C690.211 48.7788 690.357 49.1316 690.611 49.3859C690.866 49.6402 691.218 49.7865 691.578 49.7865C691.938 49.7865 692.29 49.6402 692.545 49.3859C692.799 49.1316 692.945 48.7788 692.945 48.4193C692.945 48.0583 692.799 47.707 692.545 47.4527Z" fill="black"/>
<path d="M682.279 110.842L680.296 118H679.388L677.669 111.779L675.946 118H675.037L673.06 110.842H674.056L675.487 116.672L677.098 110.842H678.236L679.847 116.672L681.278 110.842H682.279ZM685.759 112.702C686.498 112.702 687.087 112.938 687.527 113.41C687.97 113.882 688.191 114.549 688.191 115.412C688.191 116.271 687.97 116.939 687.527 117.414C687.087 117.886 686.498 118.122 685.759 118.122C685.024 118.122 684.435 117.886 683.992 117.414C683.552 116.939 683.333 116.271 683.333 115.412C683.333 114.549 683.552 113.882 683.992 113.41C684.435 112.938 685.024 112.702 685.759 112.702ZM685.759 117.399C686.199 117.399 686.555 117.233 686.829 116.901C687.102 116.566 687.239 116.07 687.239 115.412C687.239 114.751 687.102 114.255 686.829 113.923C686.555 113.588 686.199 113.42 685.759 113.42C685.32 113.42 684.963 113.588 684.69 113.923C684.417 114.255 684.28 114.751 684.28 115.412C684.28 116.07 684.417 116.566 684.69 116.901C684.963 117.233 685.32 117.399 685.759 117.399ZM692.517 113.659C692.386 113.62 692.199 113.601 691.955 113.601C691.486 113.601 691.084 113.846 690.749 114.338V118H689.826V112.819H690.749V113.542C691.136 112.982 691.586 112.702 692.097 112.702C692.227 112.702 692.367 112.715 692.517 112.741V113.659ZM698.038 118H696.94L695.255 115.368L694.679 115.939V118H693.756V110.842H694.679V114.899L696.676 112.819H697.838L695.875 114.748L698.038 118ZM701.456 112.702C702.195 112.702 702.784 112.938 703.223 113.41C703.666 113.882 703.887 114.549 703.887 115.412C703.887 116.271 703.666 116.939 703.223 117.414C702.784 117.886 702.195 118.122 701.456 118.122C700.72 118.122 700.131 117.886 699.688 117.414C699.249 116.939 699.029 116.271 699.029 115.412C699.029 114.549 699.249 113.882 699.688 113.41C700.131 112.938 700.72 112.702 701.456 112.702ZM701.456 117.399C701.895 117.399 702.252 117.233 702.525 116.901C702.799 116.566 702.935 116.07 702.935 115.412C702.935 114.751 702.799 114.255 702.525 113.923C702.252 113.588 701.895 113.42 701.456 113.42C701.016 113.42 700.66 113.588 700.387 113.923C700.113 114.255 699.976 114.751 699.976 115.412C699.976 116.07 700.113 116.566 700.387 116.901C700.66 117.233 701.016 117.399 701.456 117.399ZM708.804 117.341C708.345 117.862 707.829 118.122 707.256 118.122C706.087 118.122 705.503 117.484 705.503 116.208V112.819H706.426V116.169C706.426 116.592 706.501 116.896 706.651 117.082C706.8 117.268 707.048 117.36 707.393 117.36C707.907 117.36 708.377 117.084 708.804 116.53V112.819H709.722V118H708.804V117.341ZM713.701 118.01C713.499 118.049 713.279 118.068 713.042 118.068C712.664 118.068 712.387 118.002 712.212 117.868C712.036 117.731 711.927 117.557 711.884 117.346C711.842 117.134 711.821 116.846 711.821 116.481V113.542H711.181V112.819H711.821V111.53H712.739V112.819H713.579V113.542H712.739V116.53C712.739 116.885 712.783 117.111 712.871 117.209C712.962 117.303 713.086 117.351 713.242 117.351C713.401 117.351 713.554 117.338 713.701 117.312V118.01ZM718.451 110.842H721.121C721.707 110.842 722.197 110.897 722.591 111.008C722.988 111.115 723.302 111.351 723.534 111.716C723.765 112.077 723.88 112.482 723.88 112.932C723.88 113.654 723.651 114.203 723.192 114.577C722.733 114.951 722.069 115.139 721.2 115.139H719.398V118H718.451V110.842ZM719.398 114.289H721.209C721.818 114.289 722.251 114.175 722.508 113.947C722.769 113.719 722.899 113.391 722.899 112.961C722.899 112.674 722.827 112.421 722.684 112.199C722.541 111.978 722.358 111.838 722.137 111.779C721.919 111.721 721.603 111.691 721.19 111.691H719.398V114.289ZM728.88 116.638V115.49H728.25C726.915 115.49 726.248 115.853 726.248 116.579C726.248 116.843 726.346 117.046 726.541 117.189C726.736 117.329 727 117.399 727.332 117.399C727.635 117.399 727.928 117.331 728.211 117.194C728.494 117.058 728.717 116.872 728.88 116.638ZM728.88 117.468C728.411 117.904 727.807 118.122 727.068 118.122C726.554 118.122 726.131 117.984 725.799 117.707C725.467 117.427 725.301 117.067 725.301 116.628C725.301 115.417 726.344 114.812 728.43 114.812H728.88C728.88 114.44 728.86 114.172 728.821 114.006C728.782 113.837 728.673 113.697 728.494 113.586C728.315 113.475 728.03 113.42 727.639 113.42C726.819 113.42 726.396 113.713 726.37 114.299H725.452C725.52 113.234 726.266 112.702 727.688 112.702C728.352 112.702 728.87 112.834 729.241 113.098C729.612 113.361 729.798 113.879 729.798 114.65V118H728.88V117.468ZM734.455 113.659C734.325 113.62 734.138 113.601 733.894 113.601C733.425 113.601 733.023 113.846 732.688 114.338V118H731.765V112.819H732.688V113.542C733.075 112.982 733.524 112.702 734.035 112.702C734.166 112.702 734.306 112.715 734.455 112.741V113.659ZM737.707 118.01C737.505 118.049 737.285 118.068 737.047 118.068C736.67 118.068 736.393 118.002 736.217 117.868C736.042 117.731 735.933 117.557 735.89 117.346C735.848 117.134 735.827 116.846 735.827 116.481V113.542H735.187V112.819H735.827V111.53H736.745V112.819H737.585V113.542H736.745V116.53C736.745 116.885 736.789 117.111 736.877 117.209C736.968 117.303 737.091 117.351 737.248 117.351C737.407 117.351 737.56 117.338 737.707 117.312V118.01ZM740.001 113.479C740.46 112.961 740.976 112.702 741.549 112.702C742.717 112.702 743.302 113.339 743.302 114.611V118H742.379V114.65C742.379 114.227 742.302 113.923 742.149 113.737C742 113.552 741.752 113.459 741.407 113.459C740.938 113.459 740.47 113.736 740.001 114.289V118H739.078V112.819H740.001V113.479ZM747.447 118.122C746.685 118.122 746.073 117.884 745.611 117.409C745.149 116.931 744.917 116.265 744.917 115.412C744.917 114.566 745.14 113.903 745.586 113.425C746.036 112.943 746.621 112.702 747.344 112.702C748.083 112.702 748.672 112.938 749.112 113.41C749.554 113.882 749.776 114.549 749.776 115.412V115.632H745.874C745.913 116.231 746.078 116.675 746.368 116.965C746.661 117.255 747.02 117.399 747.447 117.399C747.769 117.399 748.059 117.318 748.316 117.155C748.576 116.989 748.713 116.755 748.726 116.452H749.678C749.607 116.986 749.364 117.398 748.951 117.688C748.54 117.977 748.039 118.122 747.447 118.122ZM748.804 114.909C748.729 114.411 748.562 114.038 748.301 113.791C748.041 113.544 747.722 113.42 747.344 113.42C746.976 113.42 746.661 113.544 746.397 113.791C746.133 114.035 745.966 114.408 745.894 114.909H748.804ZM754.101 113.659C753.971 113.62 753.784 113.601 753.54 113.601C753.071 113.601 752.669 113.846 752.334 114.338V118H751.411V112.819H752.334V113.542C752.721 112.982 753.17 112.702 753.681 112.702C753.812 112.702 753.952 112.715 754.101 112.741V113.659Z" fill="black"/>
<defs>
<clipPath id="clip0">
<rect width="70" height="70" fill="white" transform="translate(43 26)"/>
</clipPath>
<clipPath id="clip1">
<rect width="70" height="70" fill="white" transform="translate(171 26)"/>
</clipPath>
</defs>
</svg>
