<svg width="791" height="142" viewBox="0 0 791 142" fill="none" xmlns="http://www.w3.org/2000/svg">
<g clip-path="url(#clip0)">
<path d="M85.7922 39.5948C85.3492 36.936 82.1 35.8858 80.2009 37.7845L74.4937 43.4917C74.3276 43.6578 74.0836 43.7229 73.8568 43.6625L70.5077 42.7652C70.2808 42.7043 70.1021 42.5256 70.0413 42.2988L69.1439 38.9496C69.0832 38.7229 69.1485 38.4789 69.3146 38.3129L72.2216 35.4058C72.622 35.0052 72.622 34.3561 72.2216 33.9556C71.8211 33.5553 71.1718 33.5553 70.7715 33.9556L67.8646 36.8627C67.1821 37.5452 66.9133 38.5483 67.1631 39.4805L68.0605 42.8297C68.3104 43.7619 69.0446 44.4962 69.9769 44.7461L73.326 45.6435C74.2583 45.8936 75.2614 45.6244 75.9439 44.9422L81.651 39.2349C82.3746 38.5115 83.6001 38.9165 83.7694 39.9321C84.4729 44.1547 83.0892 48.4795 80.0675 51.5009C76.8188 54.7498 72.2011 56.0765 67.7155 55.0507C66.7362 54.8268 65.7298 55.1147 65.0237 55.8206L46.3985 74.4452C44.1774 76.6663 40.5823 76.6666 38.361 74.4452C36.14 72.2246 36.1396 68.629 38.361 66.4078L57.0002 47.7685C57.7039 47.0646 57.9927 46.0627 57.7727 45.0883C56.7422 40.523 58.1871 35.7022 61.5432 32.5069C64.59 29.6061 68.7239 28.3424 72.8852 29.0387C73.7177 29.1783 74.1298 30.0401 73.854 30.7321C73.6444 31.2582 73.9009 31.8546 74.427 32.0642C74.9531 32.2741 75.5495 32.0173 75.7592 31.4914C76.5202 29.5815 75.3432 27.3713 73.2242 27.0162C68.491 26.2237 63.5958 27.721 60.1292 31.0219C56.2535 34.7118 54.5841 40.275 55.7725 45.54C55.8366 45.8242 55.7535 46.1151 55.5503 46.3183L51.321 50.5476L51.378 48.1736C51.4241 46.257 49.8864 44.6823 47.9697 44.6823H36.7901C34.8772 44.6823 33.3357 46.2536 33.3818 48.1734L33.4774 52.1514C33.4857 52.496 33.3241 52.8229 33.0453 53.0256L28.715 56.1716C28.4362 56.3743 28.0754 56.4268 27.7503 56.3125L23.9964 54.9922C22.188 54.3565 20.2152 55.332 19.6228 57.1549L16.1682 67.7873C15.5759 69.6103 16.5987 71.5594 18.4353 72.1077L22.2482 73.246C22.5784 73.3446 22.8392 73.5992 22.9458 73.9269L24.5998 79.0173C24.7063 79.3451 24.6451 79.7044 24.4358 79.9784L22.0203 83.1406C20.8567 84.6637 21.175 86.8418 22.7257 87.9685L27.5325 91.4607C27.989 91.7927 28.6308 91.6936 28.9648 91.2339C29.2977 90.7759 29.196 90.1345 28.7378 89.8018L23.9311 86.3095C23.3132 85.8605 23.1863 84.9928 23.65 84.3857L26.0655 81.2235C26.6837 80.4143 26.865 79.3528 26.5503 78.3838L24.8962 73.2933C24.5815 72.3245 23.8108 71.5723 22.8349 71.2809L19.0219 70.1426C18.2901 69.924 17.8826 69.1474 18.1186 68.421L21.5733 57.7887C21.809 57.0635 22.5939 56.6732 23.316 56.9268L27.0701 58.2471C28.0307 58.5851 29.0966 58.4292 29.9204 57.8305L34.2509 54.6843C35.0748 54.0855 35.5521 53.1202 35.5276 52.1019L35.4321 48.1239C35.4137 47.3618 36.025 46.7328 36.7901 46.7328H47.9697C48.7319 46.7328 49.3462 47.359 49.3278 48.1239C49.2453 52.2275 49.1961 52.1175 49.2643 52.604L44.3685 57.4998C36.398 56.2827 29.3015 62.4752 29.3015 70.4263C29.3015 77.6377 35.1685 83.5047 42.3799 83.5047C49.5915 83.5047 55.4584 77.6377 55.4584 70.4263C55.4584 69.7616 55.4069 69.0949 55.3065 68.4376L63.8656 59.8785L66.6412 68.4206C66.8772 69.1471 66.4696 69.9236 65.7379 70.1422L61.925 71.2805C60.949 71.5719 60.1784 72.3241 59.8637 73.2929L58.2095 78.3834C57.8948 79.3522 58.0761 80.4137 58.6945 81.2231L61.11 84.3853C61.5727 84.9911 61.448 85.8593 60.8289 86.3091L51.7845 92.88C51.1672 93.329 50.302 93.1815 49.8681 92.5528L47.6073 89.2785C47.0287 88.4402 46.0749 87.9398 45.0563 87.9398H39.7039C38.6852 87.9398 37.7316 88.4402 37.153 89.2784L34.892 92.5528C34.4583 93.1809 33.5936 93.3291 32.9757 92.8801L32.6428 92.6382C32.1847 92.3051 31.5435 92.4067 31.2104 92.8648C30.8775 93.3228 30.9791 93.9642 31.4371 94.2973L31.7701 94.5392C33.3215 95.6658 35.4899 95.296 36.5795 93.7181L38.8405 90.4435C39.0363 90.1598 39.3589 89.9906 39.7036 89.9906H45.0561C45.4007 89.9906 45.7234 90.1598 45.9193 90.4437L48.1803 93.7181C49.2695 95.2956 51.4391 95.6655 52.9897 94.5391L62.0343 87.9679C63.585 86.8411 63.903 84.6633 62.7395 83.1401L60.3239 79.9778C60.1146 79.7039 60.0533 79.3446 60.1597 79.0168L61.8137 73.9263C61.9202 73.5986 62.181 73.3439 62.5113 73.2455L66.3243 72.1071C68.1611 71.5589 69.1837 69.6095 68.5914 67.7868L65.4929 58.2507L66.4736 57.27C66.6777 57.0658 66.9708 56.9833 67.2581 57.0492C72.4361 58.2334 77.7668 56.7012 81.5175 52.9503C85.0064 49.4621 86.6044 44.4693 85.7922 39.5948V39.5948ZM42.3798 81.4542C36.2991 81.4542 31.3522 76.5071 31.3522 70.4266C31.3522 64.3565 36.3062 59.3515 42.468 59.4005L36.9108 64.9576C33.8885 67.9801 33.8878 72.8726 36.9108 75.8954C39.9329 78.9179 44.8257 78.9184 47.8487 75.8955L53.4059 70.3384C53.4061 70.3678 53.4075 70.3972 53.4075 70.4266C53.4075 76.5071 48.4604 81.4542 42.3798 81.4542Z" fill="black"/>
</g>
<path d="M6.05898 113.146C5.17617 113.146 4.46914 112.863 3.93789 112.297C3.41055 111.727 3.14687 110.926 3.14687 109.895C3.14687 108.859 3.41055 108.059 3.93789 107.492C4.46914 106.926 5.17617 106.643 6.05898 106.643C6.73867 106.643 7.30508 106.814 7.7582 107.158C8.21523 107.502 8.48476 107.998 8.5668 108.646H7.43008C7.41445 108.275 7.27383 107.992 7.0082 107.797C6.74648 107.602 6.43008 107.504 6.05898 107.504C5.53164 107.504 5.1039 107.705 4.77578 108.107C4.44765 108.506 4.28359 109.102 4.28359 109.895C4.28359 110.684 4.44765 111.279 4.77578 111.682C5.1039 112.08 5.53164 112.279 6.05898 112.279C6.43008 112.279 6.74648 112.182 7.0082 111.986C7.27383 111.791 7.41445 111.51 7.43008 111.143H8.5668C8.48476 111.791 8.21523 112.287 7.7582 112.631C7.30508 112.975 6.73867 113.146 6.05898 113.146ZM14.197 112.209C13.6462 112.834 13.027 113.146 12.3395 113.146C10.9372 113.146 10.236 112.381 10.236 110.85V106.783H11.3434V110.803C11.3434 111.311 11.4333 111.676 11.613 111.898C11.7927 112.121 12.0895 112.232 12.5036 112.232C13.1208 112.232 13.6852 111.9 14.197 111.236V106.783H15.2985V113H14.197V112.209ZM19.8798 113.146C18.1806 113.146 17.292 112.479 17.2138 111.143H18.3212C18.3291 111.9 18.8447 112.279 19.8681 112.279C20.3252 112.279 20.6728 112.186 20.9111 111.998C21.1533 111.807 21.2744 111.568 21.2744 111.283C21.2744 111.002 21.1572 110.805 20.9228 110.691C20.6884 110.574 20.2041 110.424 19.4697 110.24C18.7392 110.057 18.2041 109.852 17.8642 109.625C17.5283 109.398 17.3603 109 17.3603 108.43C17.3603 107.914 17.5693 107.488 17.9873 107.152C18.4091 106.812 18.9716 106.643 19.6748 106.643C21.3037 106.643 22.1357 107.223 22.1709 108.383H21.0693C21.0302 107.797 20.5908 107.504 19.7509 107.504C19.3798 107.504 19.0712 107.574 18.8252 107.715C18.583 107.855 18.4619 108.061 18.4619 108.33C18.4619 108.572 18.5556 108.748 18.7431 108.857C18.9306 108.963 19.3994 109.107 20.1494 109.291C20.9033 109.471 21.4619 109.682 21.8252 109.924C22.1923 110.166 22.3759 110.584 22.3759 111.178C22.3759 111.744 22.1494 112.215 21.6962 112.59C21.247 112.961 20.6416 113.146 19.8798 113.146ZM26.7932 113.012C26.551 113.059 26.2873 113.082 26.0022 113.082C25.5491 113.082 25.217 113.002 25.0061 112.842C24.7952 112.678 24.6643 112.469 24.6135 112.215C24.5627 111.961 24.5373 111.615 24.5373 111.178V107.65H23.7698V106.783H24.5373V105.236H25.6389V106.783H26.6467V107.65H25.6389V111.236C25.6389 111.662 25.6916 111.934 25.7971 112.051C25.9065 112.164 26.0549 112.221 26.2424 112.221C26.4338 112.221 26.6174 112.205 26.7932 112.174V113.012ZM30.9585 106.643C31.8452 106.643 32.5523 106.926 33.0796 107.492C33.6109 108.059 33.8765 108.859 33.8765 109.895C33.8765 110.926 33.6109 111.727 33.0796 112.297C32.5523 112.863 31.8452 113.146 30.9585 113.146C30.0757 113.146 29.3687 112.863 28.8374 112.297C28.3101 111.727 28.0464 110.926 28.0464 109.895C28.0464 108.859 28.3101 108.059 28.8374 107.492C29.3687 106.926 30.0757 106.643 30.9585 106.643ZM30.9585 112.279C31.4859 112.279 31.9136 112.08 32.2417 111.682C32.5698 111.279 32.7339 110.684 32.7339 109.895C32.7339 109.102 32.5698 108.506 32.2417 108.107C31.9136 107.705 31.4859 107.504 30.9585 107.504C30.4312 107.504 30.0034 107.705 29.6753 108.107C29.3472 108.506 29.1831 109.102 29.1831 109.895C29.1831 110.684 29.3472 111.279 29.6753 111.682C30.0034 112.08 30.4312 112.279 30.9585 112.279ZM44.241 113H43.1336V108.98C43.1336 108.465 43.0594 108.098 42.9109 107.879C42.7625 107.66 42.5145 107.551 42.1668 107.551C41.6316 107.551 41.1062 107.883 40.5906 108.547V113H39.4891V108.98C39.4891 108.465 39.4148 108.098 39.2664 107.879C39.118 107.66 38.868 107.551 38.5164 107.551C37.9812 107.551 37.4578 107.883 36.9461 108.547V113H35.8387V106.783H36.9461V107.574C37.4695 106.953 38.0496 106.643 38.6863 106.643C39.5965 106.643 40.1766 107.018 40.4266 107.768C40.8406 107.279 41.1922 106.971 41.4812 106.842C41.7703 106.709 42.0535 106.643 42.3309 106.643C43.6043 106.643 44.241 107.406 44.241 108.934V113ZM47.6622 113H46.5548V106.783H47.6622V113ZM47.6622 105.605H46.5548V104.41H47.6622V105.605ZM54.9505 113H49.4427V112.062L53.3158 107.721H49.6712V106.783H54.7572V107.721L50.8841 112.062H54.9505V113ZM60.6745 111.365V109.988H59.9186C58.317 109.988 57.5163 110.424 57.5163 111.295C57.5163 111.611 57.6334 111.855 57.8678 112.027C58.1022 112.195 58.4186 112.279 58.817 112.279C59.1803 112.279 59.5319 112.197 59.8717 112.033C60.2116 111.869 60.4791 111.646 60.6745 111.365ZM60.6745 112.361C60.112 112.885 59.3873 113.146 58.5006 113.146C57.8834 113.146 57.3756 112.98 56.9772 112.648C56.5788 112.312 56.3795 111.881 56.3795 111.354C56.3795 109.9 57.6315 109.174 60.1354 109.174H60.6745C60.6745 108.729 60.651 108.406 60.6041 108.207C60.5573 108.004 60.4264 107.836 60.2116 107.703C59.9967 107.57 59.6549 107.504 59.1862 107.504C58.2018 107.504 57.694 107.855 57.6627 108.559H56.5612C56.6432 107.281 57.5377 106.643 59.2448 106.643C60.0416 106.643 60.6627 106.801 61.108 107.117C61.5534 107.434 61.776 108.055 61.776 108.98V113H60.6745V112.361ZM66.5507 113.012C66.3085 113.059 66.0448 113.082 65.7597 113.082C65.3066 113.082 64.9745 113.002 64.7636 112.842C64.5527 112.678 64.4218 112.469 64.371 112.215C64.3202 111.961 64.2948 111.615 64.2948 111.178V107.65H63.5273V106.783H64.2948V105.236H65.3964V106.783H66.4042V107.65H65.3964V111.236C65.3964 111.662 65.4491 111.934 65.5546 112.051C65.664 112.164 65.8124 112.221 65.9999 112.221C66.1913 112.221 66.3749 112.205 66.5507 112.174V113.012ZM69.3039 113H68.1965V106.783H69.3039V113ZM69.3039 105.605H68.1965V104.41H69.3039V105.605ZM74.1782 106.643C75.0649 106.643 75.7719 106.926 76.2993 107.492C76.8305 108.059 77.0962 108.859 77.0962 109.895C77.0962 110.926 76.8305 111.727 76.2993 112.297C75.7719 112.863 75.0649 113.146 74.1782 113.146C73.2954 113.146 72.5884 112.863 72.0571 112.297C71.5298 111.727 71.2661 110.926 71.2661 109.895C71.2661 108.859 71.5298 108.059 72.0571 107.492C72.5884 106.926 73.2954 106.643 74.1782 106.643ZM74.1782 112.279C74.7055 112.279 75.1333 112.08 75.4614 111.682C75.7895 111.279 75.9536 110.684 75.9536 109.895C75.9536 109.102 75.7895 108.506 75.4614 108.107C75.1333 107.705 74.7055 107.504 74.1782 107.504C73.6509 107.504 73.2231 107.705 72.895 108.107C72.5669 108.506 72.4028 109.102 72.4028 109.895C72.4028 110.684 72.5669 111.279 72.895 111.682C73.2231 112.08 73.6509 112.279 74.1782 112.279ZM80.1658 107.574C80.7166 106.953 81.3357 106.643 82.0232 106.643C83.4255 106.643 84.1267 107.406 84.1267 108.934V113H83.0193V108.98C83.0193 108.473 82.9275 108.107 82.7439 107.885C82.5642 107.662 82.2673 107.551 81.8533 107.551C81.2908 107.551 80.7283 107.883 80.1658 108.547V113H79.0584V106.783H80.1658V107.574ZM96.9456 112.426L96.0902 113.146L95.346 112.209C94.6663 112.834 93.8148 113.146 92.7913 113.146C92.0023 113.146 91.3499 112.902 90.8343 112.414C90.3226 111.926 90.0667 111.334 90.0667 110.639C90.0667 110.107 90.2308 109.643 90.5589 109.244C90.887 108.846 91.387 108.457 92.0589 108.078C91.4495 107.297 91.1448 106.666 91.1448 106.186C91.1448 105.639 91.346 105.182 91.7484 104.814C92.1546 104.447 92.6663 104.264 93.2835 104.264C93.8577 104.264 94.3323 104.443 94.7073 104.803C95.0863 105.158 95.2757 105.59 95.2757 106.098C95.2757 106.551 95.137 106.943 94.8597 107.275C94.5823 107.604 94.1605 107.932 93.5941 108.26L95.3226 110.41C95.4905 109.98 95.5863 109.496 95.6097 108.957H96.7523C96.7015 109.859 96.473 110.65 96.0667 111.33L96.9456 112.426ZM93.0316 107.562C93.4339 107.344 93.7288 107.127 93.9163 106.912C94.1038 106.693 94.1976 106.43 94.1976 106.121C94.1976 105.824 94.0999 105.586 93.9046 105.406C93.7132 105.223 93.4866 105.131 93.2249 105.131C92.9437 105.131 92.7073 105.219 92.5159 105.395C92.3245 105.566 92.2288 105.793 92.2288 106.074C92.2288 106.391 92.4046 106.771 92.7562 107.217L93.0316 107.562ZM94.7249 111.418L92.6331 108.799C92.137 109.092 91.7757 109.369 91.5491 109.631C91.3226 109.889 91.2093 110.199 91.2093 110.562C91.2093 111 91.3597 111.385 91.6605 111.717C91.9652 112.045 92.346 112.209 92.803 112.209C93.5921 112.209 94.2327 111.945 94.7249 111.418ZM6.52187 121.527C7.01406 120.938 7.60586 120.643 8.29726 120.643C9.10976 120.643 9.73867 120.932 10.184 121.51C10.6293 122.084 10.852 122.861 10.852 123.842C10.852 124.861 10.602 125.668 10.102 126.262C9.60586 126.852 8.9789 127.146 8.22109 127.146C7.54922 127.146 6.98281 126.938 6.52187 126.52V129.391H5.41445V120.783H6.52187V121.527ZM6.52187 125.523C6.99453 126.027 7.5375 126.279 8.15078 126.279C8.62734 126.279 9.00625 126.076 9.2875 125.67C9.56875 125.26 9.70937 124.65 9.70937 123.842C9.70937 123.076 9.57656 122.496 9.31094 122.102C9.04531 121.703 8.67422 121.504 8.19765 121.504C7.58437 121.504 7.02578 121.859 6.52187 122.57V125.523ZM15.4567 127.146C14.5427 127.146 13.8083 126.861 13.2536 126.291C12.6989 125.717 12.4216 124.918 12.4216 123.895C12.4216 122.879 12.6891 122.084 13.2243 121.51C13.7634 120.932 14.4665 120.643 15.3337 120.643C16.2204 120.643 16.9274 120.926 17.4548 121.492C17.986 122.059 18.2516 122.859 18.2516 123.895V124.158H13.57C13.6169 124.877 13.8141 125.41 14.1618 125.758C14.5134 126.105 14.945 126.279 15.4567 126.279C15.8434 126.279 16.1911 126.182 16.4997 125.986C16.8122 125.787 16.9762 125.506 16.9919 125.143H18.1345C18.0485 125.783 17.7575 126.277 17.2614 126.625C16.7692 126.973 16.1677 127.146 15.4567 127.146ZM17.0856 123.291C16.9958 122.693 16.7946 122.246 16.4821 121.949C16.1696 121.652 15.7868 121.504 15.3337 121.504C14.8923 121.504 14.5134 121.652 14.197 121.949C13.8805 122.242 13.6794 122.689 13.5934 123.291H17.0856ZM23.4423 121.791C23.2861 121.744 23.0615 121.721 22.7685 121.721C22.206 121.721 21.7236 122.016 21.3212 122.605V127H20.2138V120.783H21.3212V121.65C21.7861 120.979 22.3252 120.643 22.9384 120.643C23.0947 120.643 23.2627 120.658 23.4423 120.689V121.791ZM27.1506 127.146C25.4514 127.146 24.5627 126.479 24.4846 125.143H25.592C25.5998 125.9 26.1155 126.279 27.1389 126.279C27.5959 126.279 27.9436 126.186 28.1819 125.998C28.4241 125.807 28.5452 125.568 28.5452 125.283C28.5452 125.002 28.428 124.805 28.1936 124.691C27.9592 124.574 27.4748 124.424 26.7405 124.24C26.01 124.057 25.4748 123.852 25.135 123.625C24.7991 123.398 24.6311 123 24.6311 122.43C24.6311 121.914 24.8401 121.488 25.258 121.152C25.6799 120.812 26.2424 120.643 26.9455 120.643C28.5745 120.643 29.4065 121.223 29.4416 122.383H28.3401C28.301 121.797 27.8616 121.504 27.0217 121.504C26.6506 121.504 26.342 121.574 26.0959 121.715C25.8537 121.855 25.7327 122.061 25.7327 122.33C25.7327 122.572 25.8264 122.748 26.0139 122.857C26.2014 122.963 26.6702 123.107 27.4202 123.291C28.1741 123.471 28.7327 123.682 29.0959 123.924C29.4631 124.166 29.6467 124.584 29.6467 125.178C29.6467 125.744 29.4202 126.215 28.967 126.59C28.5178 126.961 27.9123 127.146 27.1506 127.146ZM34.1695 120.643C35.0562 120.643 35.7632 120.926 36.2905 121.492C36.8218 122.059 37.0874 122.859 37.0874 123.895C37.0874 124.926 36.8218 125.727 36.2905 126.297C35.7632 126.863 35.0562 127.146 34.1695 127.146C33.2866 127.146 32.5796 126.863 32.0484 126.297C31.521 125.727 31.2573 124.926 31.2573 123.895C31.2573 122.859 31.521 122.059 32.0484 121.492C32.5796 120.926 33.2866 120.643 34.1695 120.643ZM34.1695 126.279C34.6968 126.279 35.1245 126.08 35.4527 125.682C35.7808 125.279 35.9448 124.684 35.9448 123.895C35.9448 123.102 35.7808 122.506 35.4527 122.107C35.1245 121.705 34.6968 121.504 34.1695 121.504C33.6421 121.504 33.2144 121.705 32.8862 122.107C32.5581 122.506 32.3941 123.102 32.3941 123.895C32.3941 124.684 32.5581 125.279 32.8862 125.682C33.2144 126.08 33.6421 126.279 34.1695 126.279ZM40.157 121.574C40.7078 120.953 41.327 120.643 42.0145 120.643C43.4168 120.643 44.118 121.406 44.118 122.934V127H43.0105V122.98C43.0105 122.473 42.9187 122.107 42.7352 121.885C42.5555 121.662 42.2586 121.551 41.8445 121.551C41.282 121.551 40.7195 121.883 40.157 122.547V127H39.0496V120.783H40.157V121.574ZM50.3868 125.365V123.988H49.6309C48.0294 123.988 47.2286 124.424 47.2286 125.295C47.2286 125.611 47.3458 125.855 47.5802 126.027C47.8145 126.195 48.1309 126.279 48.5294 126.279C48.8927 126.279 49.2442 126.197 49.5841 126.033C49.9239 125.869 50.1915 125.646 50.3868 125.365ZM50.3868 126.361C49.8243 126.885 49.0997 127.146 48.213 127.146C47.5958 127.146 47.088 126.98 46.6895 126.648C46.2911 126.312 46.0919 125.881 46.0919 125.354C46.0919 123.9 47.3438 123.174 49.8477 123.174H50.3868C50.3868 122.729 50.3634 122.406 50.3165 122.207C50.2696 122.004 50.1387 121.836 49.9239 121.703C49.7091 121.57 49.3673 121.504 48.8985 121.504C47.9141 121.504 47.4063 121.855 47.3751 122.559H46.2735C46.3555 121.281 47.2501 120.643 48.9571 120.643C49.754 120.643 50.3751 120.801 50.8204 121.117C51.2657 121.434 51.4884 122.055 51.4884 122.98V127H50.3868V126.361ZM54.9564 127H53.849V118.41H54.9564V127ZM58.4186 127H57.3112V120.783H58.4186V127ZM58.4186 119.605H57.3112V118.41H58.4186V119.605ZM65.707 127H60.1991V126.062L64.0722 121.721H60.4277V120.783H65.5136V121.721L61.6405 126.062H65.707V127ZM71.4309 125.365V123.988H70.675C69.0734 123.988 68.2727 124.424 68.2727 125.295C68.2727 125.611 68.3898 125.855 68.6242 126.027C68.8586 126.195 69.175 126.279 69.5734 126.279C69.9367 126.279 70.2883 126.197 70.6281 126.033C70.968 125.869 71.2355 125.646 71.4309 125.365ZM71.4309 126.361C70.8684 126.885 70.1438 127.146 69.257 127.146C68.6398 127.146 68.132 126.98 67.7336 126.648C67.3352 126.312 67.1359 125.881 67.1359 125.354C67.1359 123.9 68.3879 123.174 70.8918 123.174H71.4309C71.4309 122.729 71.4074 122.406 71.3605 122.207C71.3137 122.004 71.1828 121.836 70.968 121.703C70.7531 121.57 70.4113 121.504 69.9426 121.504C68.9582 121.504 68.4504 121.855 68.4191 122.559H67.3176C67.3996 121.281 68.2941 120.643 70.0012 120.643C70.798 120.643 71.4191 120.801 71.8645 121.117C72.3098 121.434 72.5324 122.055 72.5324 122.98V127H71.4309V126.361ZM77.3071 127.012C77.0649 127.059 76.8012 127.082 76.5161 127.082C76.063 127.082 75.7309 127.002 75.52 126.842C75.3091 126.678 75.1782 126.469 75.1274 126.215C75.0766 125.961 75.0512 125.615 75.0512 125.178V121.65H74.2837V120.783H75.0512V119.236H76.1528V120.783H77.1606V121.65H76.1528V125.236C76.1528 125.662 76.2055 125.934 76.311 126.051C76.4204 126.164 76.5688 126.221 76.7563 126.221C76.9477 126.221 77.1313 126.205 77.3071 126.174V127.012ZM80.0603 127H78.9529V120.783H80.0603V127ZM80.0603 119.605H78.9529V118.41H80.0603V119.605ZM84.9346 120.643C85.8213 120.643 86.5284 120.926 87.0557 121.492C87.587 122.059 87.8526 122.859 87.8526 123.895C87.8526 124.926 87.587 125.727 87.0557 126.297C86.5284 126.863 85.8213 127.146 84.9346 127.146C84.0518 127.146 83.3448 126.863 82.8135 126.297C82.2862 125.727 82.0225 124.926 82.0225 123.895C82.0225 122.859 82.2862 122.059 82.8135 121.492C83.3448 120.926 84.0518 120.643 84.9346 120.643ZM84.9346 126.279C85.462 126.279 85.8897 126.08 86.2178 125.682C86.5459 125.279 86.71 124.684 86.71 123.895C86.71 123.102 86.5459 122.506 86.2178 122.107C85.8897 121.705 85.462 121.504 84.9346 121.504C84.4073 121.504 83.9795 121.705 83.6514 122.107C83.3233 122.506 83.1592 123.102 83.1592 123.895C83.1592 124.684 83.3233 125.279 83.6514 125.682C83.9795 126.08 84.4073 126.279 84.9346 126.279ZM90.9222 121.574C91.473 120.953 92.0921 120.643 92.7796 120.643C94.182 120.643 94.8831 121.406 94.8831 122.934V127H93.7757V122.98C93.7757 122.473 93.6839 122.107 93.5003 121.885C93.3206 121.662 93.0238 121.551 92.6097 121.551C92.0472 121.551 91.4847 121.883 90.9222 122.547V127H89.8148V120.783H90.9222V121.574Z" fill="black"/>
<path d="M142.736 111.41H145.941C146.644 111.41 147.232 111.477 147.705 111.609C148.181 111.738 148.558 112.021 148.836 112.459C149.113 112.893 149.252 113.379 149.252 113.918C149.252 114.785 148.976 115.443 148.425 115.893C147.875 116.342 147.078 116.566 146.035 116.566H143.873V120H142.736V111.41ZM143.873 115.547H146.047C146.777 115.547 147.297 115.41 147.605 115.137C147.918 114.863 148.074 114.469 148.074 113.953C148.074 113.609 147.988 113.305 147.816 113.039C147.644 112.773 147.425 112.605 147.16 112.535C146.898 112.465 146.519 112.43 146.023 112.43H143.873V115.547ZM153.956 120.146C153.042 120.146 152.308 119.861 151.753 119.291C151.198 118.717 150.921 117.918 150.921 116.895C150.921 115.879 151.188 115.084 151.724 114.51C152.263 113.932 152.966 113.643 153.833 113.643C154.72 113.643 155.427 113.926 155.954 114.492C156.485 115.059 156.751 115.859 156.751 116.895V117.158H152.069C152.116 117.877 152.313 118.41 152.661 118.758C153.013 119.105 153.444 119.279 153.956 119.279C154.343 119.279 154.69 119.182 154.999 118.986C155.311 118.787 155.476 118.506 155.491 118.143H156.634C156.548 118.783 156.257 119.277 155.761 119.625C155.269 119.973 154.667 120.146 153.956 120.146ZM155.585 116.291C155.495 115.693 155.294 115.246 154.981 114.949C154.669 114.652 154.286 114.504 153.833 114.504C153.392 114.504 153.013 114.652 152.696 114.949C152.38 115.242 152.179 115.689 152.093 116.291H155.585ZM161.942 114.791C161.785 114.744 161.561 114.721 161.268 114.721C160.705 114.721 160.223 115.016 159.821 115.605V120H158.713V113.783H159.821V114.65C160.285 113.979 160.824 113.643 161.438 113.643C161.594 113.643 161.762 113.658 161.942 113.689V114.791ZM165.65 120.146C163.951 120.146 163.062 119.479 162.984 118.143H164.091C164.099 118.9 164.615 119.279 165.638 119.279C166.095 119.279 166.443 119.186 166.681 118.998C166.923 118.807 167.044 118.568 167.044 118.283C167.044 118.002 166.927 117.805 166.693 117.691C166.459 117.574 165.974 117.424 165.24 117.24C164.509 117.057 163.974 116.852 163.634 116.625C163.298 116.398 163.13 116 163.13 115.43C163.13 114.914 163.339 114.488 163.757 114.152C164.179 113.812 164.742 113.643 165.445 113.643C167.074 113.643 167.906 114.223 167.941 115.383H166.839C166.8 114.797 166.361 114.504 165.521 114.504C165.15 114.504 164.841 114.574 164.595 114.715C164.353 114.855 164.232 115.061 164.232 115.33C164.232 115.572 164.326 115.748 164.513 115.857C164.701 115.963 165.169 116.107 165.919 116.291C166.673 116.471 167.232 116.682 167.595 116.924C167.962 117.166 168.146 117.584 168.146 118.178C168.146 118.744 167.919 119.215 167.466 119.59C167.017 119.961 166.412 120.146 165.65 120.146ZM172.669 113.643C173.555 113.643 174.263 113.926 174.79 114.492C175.321 115.059 175.587 115.859 175.587 116.895C175.587 117.926 175.321 118.727 174.79 119.297C174.263 119.863 173.555 120.146 172.669 120.146C171.786 120.146 171.079 119.863 170.548 119.297C170.02 118.727 169.757 117.926 169.757 116.895C169.757 115.859 170.02 115.059 170.548 114.492C171.079 113.926 171.786 113.643 172.669 113.643ZM172.669 119.279C173.196 119.279 173.624 119.08 173.952 118.682C174.28 118.279 174.444 117.684 174.444 116.895C174.444 116.102 174.28 115.506 173.952 115.107C173.624 114.705 173.196 114.504 172.669 114.504C172.141 114.504 171.714 114.705 171.386 115.107C171.057 115.506 170.893 116.102 170.893 116.895C170.893 117.684 171.057 118.279 171.386 118.682C171.714 119.08 172.141 119.279 172.669 119.279ZM178.656 114.574C179.207 113.953 179.826 113.643 180.514 113.643C181.916 113.643 182.617 114.406 182.617 115.934V120H181.51V115.98C181.51 115.473 181.418 115.107 181.234 114.885C181.055 114.662 180.758 114.551 180.344 114.551C179.781 114.551 179.219 114.883 178.656 115.547V120H177.549V113.783H178.656V114.574ZM188.886 118.365V116.988H188.13C186.529 116.988 185.728 117.424 185.728 118.295C185.728 118.611 185.845 118.855 186.079 119.027C186.314 119.195 186.63 119.279 187.029 119.279C187.392 119.279 187.744 119.197 188.083 119.033C188.423 118.869 188.691 118.646 188.886 118.365ZM188.886 119.361C188.324 119.885 187.599 120.146 186.712 120.146C186.095 120.146 185.587 119.98 185.189 119.648C184.79 119.312 184.591 118.881 184.591 118.354C184.591 116.9 185.843 116.174 188.347 116.174H188.886C188.886 115.729 188.863 115.406 188.816 115.207C188.769 115.004 188.638 114.836 188.423 114.703C188.208 114.57 187.867 114.504 187.398 114.504C186.413 114.504 185.906 114.855 185.874 115.559H184.773C184.855 114.281 185.749 113.643 187.456 113.643C188.253 113.643 188.874 113.801 189.32 114.117C189.765 114.434 189.988 115.055 189.988 115.98V120H188.886V119.361ZM193.456 120H192.348V111.41H193.456V120ZM203.62 120.146C202.386 120.146 201.384 119.742 200.614 118.934C199.849 118.125 199.466 117.049 199.466 115.705C199.466 114.357 199.845 113.281 200.603 112.477C201.361 111.668 202.355 111.264 203.585 111.264C204.62 111.264 205.48 111.514 206.163 112.014C206.851 112.51 207.236 113.176 207.318 114.012H206.14C206.093 113.457 205.843 113.023 205.39 112.711C204.937 112.395 204.339 112.236 203.597 112.236C202.71 112.236 201.995 112.539 201.452 113.145C200.913 113.75 200.644 114.604 200.644 115.705C200.644 116.803 200.917 117.656 201.464 118.266C202.011 118.871 202.726 119.174 203.609 119.174C204.847 119.174 205.767 118.766 206.368 117.949V116.643H204.101V115.617H207.47V120H206.667L206.368 119.098C205.786 119.797 204.87 120.146 203.62 120.146ZM212.297 113.643C213.184 113.643 213.891 113.926 214.418 114.492C214.95 115.059 215.215 115.859 215.215 116.895C215.215 117.926 214.95 118.727 214.418 119.297C213.891 119.863 213.184 120.146 212.297 120.146C211.415 120.146 210.707 119.863 210.176 119.297C209.649 118.727 209.385 117.926 209.385 116.895C209.385 115.859 209.649 115.059 210.176 114.492C210.707 113.926 211.415 113.643 212.297 113.643ZM212.297 119.279C212.825 119.279 213.252 119.08 213.581 118.682C213.909 118.279 214.073 117.684 214.073 116.895C214.073 116.102 213.909 115.506 213.581 115.107C213.252 114.705 212.825 114.504 212.297 114.504C211.77 114.504 211.342 114.705 211.014 115.107C210.686 115.506 210.522 116.102 210.522 116.895C210.522 117.684 210.686 118.279 211.014 118.682C211.342 119.08 211.77 119.279 212.297 119.279ZM221.115 118.365V116.988H220.359C218.758 116.988 217.957 117.424 217.957 118.295C217.957 118.611 218.074 118.855 218.308 119.027C218.543 119.195 218.859 119.279 219.258 119.279C219.621 119.279 219.972 119.197 220.312 119.033C220.652 118.869 220.92 118.646 221.115 118.365ZM221.115 119.361C220.552 119.885 219.828 120.146 218.941 120.146C218.324 120.146 217.816 119.98 217.418 119.648C217.019 119.312 216.82 118.881 216.82 118.354C216.82 116.9 218.072 116.174 220.576 116.174H221.115C221.115 115.729 221.092 115.406 221.045 115.207C220.998 115.004 220.867 114.836 220.652 114.703C220.437 114.57 220.095 114.504 219.627 114.504C218.642 114.504 218.135 114.855 218.103 115.559H217.002C217.084 114.281 217.978 113.643 219.685 113.643C220.482 113.643 221.103 113.801 221.549 114.117C221.994 114.434 222.217 115.055 222.217 115.98V120H221.115V119.361ZM225.685 120H224.577V111.41H225.685V120ZM230.26 120.146C228.561 120.146 227.672 119.479 227.594 118.143H228.701C228.709 118.9 229.225 119.279 230.248 119.279C230.705 119.279 231.053 119.186 231.291 118.998C231.534 118.807 231.655 118.568 231.655 118.283C231.655 118.002 231.537 117.805 231.303 117.691C231.069 117.574 230.584 117.424 229.85 117.24C229.119 117.057 228.584 116.852 228.244 116.625C227.909 116.398 227.741 116 227.741 115.43C227.741 114.914 227.95 114.488 228.368 114.152C228.789 113.812 229.352 113.643 230.055 113.643C231.684 113.643 232.516 114.223 232.551 115.383H231.45C231.41 114.797 230.971 114.504 230.131 114.504C229.76 114.504 229.451 114.574 229.205 114.715C228.963 114.855 228.842 115.061 228.842 115.33C228.842 115.572 228.936 115.748 229.123 115.857C229.311 115.963 229.78 116.107 230.53 116.291C231.284 116.471 231.842 116.682 232.205 116.924C232.573 117.166 232.756 117.584 232.756 118.178C232.756 118.744 232.53 119.215 232.076 119.59C231.627 119.961 231.022 120.146 230.26 120.146Z" fill="black"/>
<g clip-path="url(#clip1)">
<path d="M221.7 78.9062L208.039 65.2457C206.81 64.017 205.177 63.3404 203.439 63.3404C201.702 63.3404 200.068 64.017 198.839 65.2457L196.863 67.2215L190.05 60.4079C189.471 59.8293 188.768 59.4498 188.025 59.2693V31.4093C188.025 30.843 187.566 30.3839 187 30.3839C186.434 30.3839 185.974 30.843 185.974 31.4093V32.5758H178.232C177.062 32.5758 176.111 33.5273 176.111 34.6971V36.9595H169.465C169.095 36.9595 168.754 37.1583 168.572 37.4798C168.39 37.8013 168.395 38.1957 168.585 38.5125L171.557 43.4648L168.585 48.417C168.395 48.7338 168.39 49.1283 168.572 49.4498C168.754 49.7712 169.095 49.97 169.465 49.97H179.328C179.895 49.97 180.354 49.5109 180.354 48.9446C180.354 48.3783 179.895 47.9192 179.328 47.9192H171.276L173.632 43.9923C173.827 43.6676 173.827 43.2619 173.632 42.9372L171.276 39.0103H176.111V44.5607C176.111 45.127 176.57 45.5861 177.136 45.5861H185.975V59.2693C185.232 59.4498 184.529 59.8293 183.95 60.4079L173.3 71.0575L172.969 70.7255C170.432 68.1892 166.305 68.189 163.769 70.7255L152.3 82.1942C151.9 82.5946 151.9 83.2439 152.3 83.6442C152.5 83.8444 152.763 83.9446 153.025 83.9446C153.288 83.9446 153.55 83.8445 153.75 83.6442L165.219 72.1756C166.956 70.4389 169.782 70.4388 171.518 72.1756L171.85 72.5075L154.492 89.8657C154.092 90.2662 154.092 90.9155 154.492 91.3158C154.893 91.7162 155.542 91.7162 155.942 91.3158L170.561 76.6974L172.122 78.2583C172.749 78.8856 173.573 79.1991 174.397 79.1991C175.22 79.1991 176.044 78.8856 176.672 78.2583L180.374 74.5554C180.38 74.5504 180.395 74.5348 180.424 74.5348C180.454 74.5348 180.469 74.5504 180.474 74.5554L181.985 76.0664C183.24 77.3208 185.281 77.3207 186.535 76.0664L190.625 71.9769C191.043 71.5583 191.725 71.5583 192.143 71.9769C192.544 72.3773 193.193 72.3773 193.593 71.9769C193.994 71.5764 193.994 70.9272 193.593 70.5269C192.375 69.3086 190.393 69.3086 189.174 70.5269L185.085 74.6163C184.63 75.0711 183.89 75.0713 183.435 74.6163L181.924 73.1052C181.524 72.7045 180.991 72.484 180.424 72.484C179.858 72.484 179.325 72.7047 178.924 73.1052L175.221 76.8081C174.767 77.263 174.027 77.263 173.572 76.8081L172.011 75.2472L185.4 61.8578C185.828 61.4305 186.396 61.1951 187 61.1951C187.605 61.1951 188.173 61.4304 188.6 61.8578L201.441 74.6992L200.428 75.7122C199.974 76.1669 199.234 76.1669 198.779 75.7122L196.651 73.584C196.25 73.1836 195.601 73.1836 195.201 73.584C194.8 73.9845 194.8 74.6338 195.201 75.0341L197.329 77.1622C197.956 77.7895 198.78 78.103 199.604 78.103C200.428 78.103 201.252 77.7895 201.879 77.1622L202.892 76.1493L218.058 91.3156C218.258 91.5158 218.521 91.616 218.783 91.616C219.045 91.616 219.308 91.5159 219.508 91.3156C219.909 90.9152 219.909 90.2659 219.508 89.8656L198.314 68.6717L200.29 66.6959C201.131 65.8546 202.25 65.3913 203.439 65.3913C204.629 65.3913 205.748 65.8546 206.589 66.6959L220.25 80.3564C220.45 80.5565 220.712 80.6568 220.975 80.6568C221.237 80.6568 221.5 80.5567 221.7 80.3564C222.1 79.9559 222.1 79.3067 221.7 78.9062V78.9062ZM178.162 43.5353V34.6971C178.162 34.6581 178.193 34.6266 178.232 34.6266H185.975V43.5354H178.162V43.5353Z" fill="black"/>
</g>
<path d="M326 26C313.351 26 303.061 36.2839 303.061 48.9246C303.061 61.0731 323.908 93.9454 324.795 95.3389C325.057 95.7506 325.512 96 326 96C326.488 96 326.943 95.7506 327.205 95.3389C328.092 93.9454 348.939 61.073 348.939 48.9246C348.939 36.2839 338.649 26 326 26ZM326 91.8753C324.113 88.8234 320.285 82.5057 316.493 75.5056C309.575 62.7316 305.918 53.5401 305.918 48.9246C305.918 37.8593 314.927 28.8571 326 28.8571C337.074 28.8571 346.082 37.8593 346.082 48.9246C346.082 53.5401 342.425 62.7316 335.507 75.5056C331.716 82.5056 327.887 88.8234 326 91.8753Z" fill="black"/>
<path d="M326 36.8672C320.016 36.8672 315.149 41.6028 315.149 47.4235C315.149 53.2441 320.016 57.9794 326 57.9794C331.983 57.9794 336.851 53.2441 336.851 47.4235C336.851 41.6028 331.983 36.8672 326 36.8672ZM326 55.1221C321.592 55.1221 318.006 51.6685 318.006 47.4234C318.006 43.1781 321.592 39.7242 326 39.7242C330.408 39.7242 333.994 43.1781 333.994 47.4234C333.994 51.6685 330.408 55.1221 326 55.1221Z" fill="black"/>
<path d="M284.632 120.146C283.422 120.146 282.515 119.875 281.914 119.332C281.316 118.789 281.002 118.092 280.97 117.24H282.066C282.125 117.881 282.39 118.355 282.863 118.664C283.34 118.969 283.914 119.121 284.586 119.121C285.222 119.121 285.734 118.99 286.121 118.729C286.511 118.467 286.707 118.111 286.707 117.662C286.707 117.189 286.506 116.846 286.103 116.631C285.701 116.416 285.007 116.205 284.023 115.998C283.043 115.787 282.338 115.496 281.908 115.125C281.482 114.754 281.269 114.26 281.269 113.643C281.269 112.947 281.547 112.377 282.101 111.932C282.66 111.486 283.4 111.264 284.322 111.264C285.291 111.264 286.072 111.488 286.666 111.938C287.259 112.387 287.574 113.021 287.609 113.842H286.502C286.388 112.803 285.677 112.283 284.369 112.283C283.736 112.283 283.246 112.402 282.898 112.641C282.55 112.879 282.377 113.195 282.377 113.59C282.377 113.949 282.515 114.219 282.793 114.398C283.074 114.578 283.595 114.752 284.357 114.92C285.123 115.088 285.73 115.254 286.179 115.418C286.629 115.582 287.013 115.838 287.334 116.186C287.654 116.529 287.814 116.992 287.814 117.574C287.814 118.312 287.519 118.926 286.929 119.414C286.343 119.902 285.578 120.146 284.632 120.146ZM293.907 119.209C293.356 119.834 292.737 120.146 292.05 120.146C290.647 120.146 289.946 119.381 289.946 117.85V113.783H291.054V117.803C291.054 118.311 291.144 118.676 291.323 118.898C291.503 119.121 291.8 119.232 292.214 119.232C292.831 119.232 293.395 118.9 293.907 118.236V113.783H295.009V120H293.907V119.209ZM298.477 120H297.369V113.783H298.477V120ZM298.477 112.605H297.369V111.41H298.477V112.605ZM303.246 120.012C303.003 120.059 302.74 120.082 302.455 120.082C302.001 120.082 301.669 120.002 301.459 119.842C301.248 119.678 301.117 119.469 301.066 119.215C301.015 118.961 300.99 118.615 300.99 118.178V114.65H300.222V113.783H300.99V112.236H302.091V113.783H303.099V114.65H302.091V118.236C302.091 118.662 302.144 118.934 302.25 119.051C302.359 119.164 302.507 119.221 302.695 119.221C302.886 119.221 303.07 119.205 303.246 119.174V120.012ZM308.829 118.365V116.988H308.073C306.471 116.988 305.671 117.424 305.671 118.295C305.671 118.611 305.788 118.855 306.022 119.027C306.257 119.195 306.573 119.279 306.971 119.279C307.335 119.279 307.686 119.197 308.026 119.033C308.366 118.869 308.634 118.646 308.829 118.365ZM308.829 119.361C308.266 119.885 307.542 120.146 306.655 120.146C306.038 120.146 305.53 119.98 305.132 119.648C304.733 119.312 304.534 118.881 304.534 118.354C304.534 116.9 305.786 116.174 308.29 116.174H308.829C308.829 115.729 308.805 115.406 308.759 115.207C308.712 115.004 308.581 114.836 308.366 114.703C308.151 114.57 307.809 114.504 307.341 114.504C306.356 114.504 305.848 114.855 305.817 115.559H304.716C304.798 114.281 305.692 113.643 307.399 113.643C308.196 113.643 308.817 113.801 309.263 114.117C309.708 114.434 309.93 115.055 309.93 115.98V120H308.829V119.361ZM313.399 114.527C313.891 113.938 314.482 113.643 315.174 113.643C315.986 113.643 316.615 113.932 317.061 114.51C317.506 115.084 317.729 115.861 317.729 116.842C317.729 117.861 317.479 118.668 316.979 119.262C316.482 119.852 315.856 120.146 315.098 120.146C314.426 120.146 313.859 119.938 313.399 119.52V120H312.291V111.41H313.399V114.527ZM313.399 118.523C313.871 119.027 314.414 119.279 315.027 119.279C315.504 119.279 315.883 119.076 316.164 118.67C316.445 118.26 316.586 117.65 316.586 116.842C316.586 116.076 316.453 115.496 316.188 115.102C315.922 114.703 315.551 114.504 315.074 114.504C314.461 114.504 313.902 114.859 313.399 115.57V118.523ZM320.798 120H319.691V111.41H320.798V120ZM325.796 120.146C324.881 120.146 324.147 119.861 323.592 119.291C323.038 118.717 322.76 117.918 322.76 116.895C322.76 115.879 323.028 115.084 323.563 114.51C324.102 113.932 324.805 113.643 325.673 113.643C326.559 113.643 327.266 113.926 327.794 114.492C328.325 115.059 328.59 115.859 328.59 116.895V117.158H323.909C323.956 117.877 324.153 118.41 324.501 118.758C324.852 119.105 325.284 119.279 325.796 119.279C326.182 119.279 326.53 119.182 326.839 118.986C327.151 118.787 327.315 118.506 327.331 118.143H328.473C328.387 118.783 328.096 119.277 327.6 119.625C327.108 119.973 326.506 120.146 325.796 120.146ZM327.424 116.291C327.335 115.693 327.133 115.246 326.821 114.949C326.508 114.652 326.126 114.504 325.673 114.504C325.231 114.504 324.852 114.652 324.536 114.949C324.219 115.242 324.018 115.689 323.932 116.291H327.424ZM337.847 120.146C336.636 120.146 335.73 119.875 335.128 119.332C334.53 118.789 334.216 118.092 334.185 117.24H335.28C335.339 117.881 335.605 118.355 336.077 118.664C336.554 118.969 337.128 119.121 337.8 119.121C338.437 119.121 338.948 118.99 339.335 118.729C339.726 118.467 339.921 118.111 339.921 117.662C339.921 117.189 339.72 116.846 339.318 116.631C338.915 116.416 338.222 116.205 337.237 115.998C336.257 115.787 335.552 115.496 335.122 115.125C334.696 114.754 334.484 114.26 334.484 113.643C334.484 112.947 334.761 112.377 335.316 111.932C335.874 111.486 336.614 111.264 337.536 111.264C338.505 111.264 339.286 111.488 339.88 111.938C340.474 112.387 340.788 113.021 340.823 113.842H339.716C339.603 112.803 338.892 112.283 337.583 112.283C336.95 112.283 336.46 112.402 336.112 112.641C335.765 112.879 335.591 113.195 335.591 113.59C335.591 113.949 335.73 114.219 336.007 114.398C336.288 114.578 336.81 114.752 337.571 114.92C338.337 115.088 338.945 115.254 339.394 115.418C339.843 115.582 340.228 115.838 340.548 116.186C340.868 116.529 341.029 116.992 341.029 117.574C341.029 118.312 340.734 118.926 340.144 119.414C339.558 119.902 338.792 120.146 337.847 120.146ZM344.291 114.527C344.784 113.938 345.375 113.643 346.067 113.643C346.879 113.643 347.508 113.932 347.954 114.51C348.399 115.084 348.622 115.861 348.622 116.842C348.622 117.861 348.372 118.668 347.872 119.262C347.375 119.852 346.749 120.146 345.991 120.146C345.319 120.146 344.752 119.938 344.291 119.52V122.391H343.184V113.783H344.291V114.527ZM344.291 118.523C344.764 119.027 345.307 119.279 345.92 119.279C346.397 119.279 346.776 119.076 347.057 118.67C347.338 118.26 347.479 117.65 347.479 116.842C347.479 116.076 347.346 115.496 347.081 115.102C346.815 114.703 346.444 114.504 345.967 114.504C345.354 114.504 344.795 114.859 344.291 115.57V118.523ZM354.521 118.365V116.988H353.765C352.164 116.988 351.363 117.424 351.363 118.295C351.363 118.611 351.48 118.855 351.715 119.027C351.949 119.195 352.265 119.279 352.664 119.279C353.027 119.279 353.379 119.197 353.719 119.033C354.058 118.869 354.326 118.646 354.521 118.365ZM354.521 119.361C353.959 119.885 353.234 120.146 352.347 120.146C351.73 120.146 351.222 119.98 350.824 119.648C350.426 119.312 350.226 118.881 350.226 118.354C350.226 116.9 351.478 116.174 353.982 116.174H354.521C354.521 115.729 354.498 115.406 354.451 115.207C354.404 115.004 354.273 114.836 354.058 114.703C353.844 114.57 353.502 114.504 353.033 114.504C352.049 114.504 351.541 114.855 351.51 115.559H350.408C350.49 114.281 351.385 113.643 353.092 113.643C353.888 113.643 354.51 113.801 354.955 114.117C355.4 114.434 355.623 115.055 355.623 115.98V120H354.521V119.361ZM360.503 120.146C359.62 120.146 358.913 119.863 358.382 119.297C357.855 118.727 357.591 117.926 357.591 116.895C357.591 115.859 357.855 115.059 358.382 114.492C358.913 113.926 359.62 113.643 360.503 113.643C361.183 113.643 361.749 113.814 362.202 114.158C362.659 114.502 362.929 114.998 363.011 115.646H361.874C361.858 115.275 361.718 114.992 361.452 114.797C361.19 114.602 360.874 114.504 360.503 114.504C359.976 114.504 359.548 114.705 359.22 115.107C358.892 115.506 358.728 116.102 358.728 116.895C358.728 117.684 358.892 118.279 359.22 118.682C359.548 119.08 359.976 119.279 360.503 119.279C360.874 119.279 361.19 119.182 361.452 118.986C361.718 118.791 361.858 118.51 361.874 118.143H363.011C362.929 118.791 362.659 119.287 362.202 119.631C361.749 119.975 361.183 120.146 360.503 120.146ZM367.346 120.146C366.432 120.146 365.698 119.861 365.143 119.291C364.588 118.717 364.311 117.918 364.311 116.895C364.311 115.879 364.578 115.084 365.114 114.51C365.653 113.932 366.356 113.643 367.223 113.643C368.11 113.643 368.817 113.926 369.344 114.492C369.875 115.059 370.141 115.859 370.141 116.895V117.158H365.459C365.506 117.877 365.703 118.41 366.051 118.758C366.403 119.105 366.834 119.279 367.346 119.279C367.733 119.279 368.08 119.182 368.389 118.986C368.701 118.787 368.866 118.506 368.881 118.143H370.024C369.938 118.783 369.647 119.277 369.151 119.625C368.659 119.973 368.057 120.146 367.346 120.146ZM368.975 116.291C368.885 115.693 368.684 115.246 368.371 114.949C368.059 114.652 367.676 114.504 367.223 114.504C366.782 114.504 366.403 114.652 366.086 114.949C365.77 115.242 365.569 115.689 365.483 116.291H368.975Z" fill="black"/>
<path d="M415.032 111.41H417.756C420.674 111.41 422.133 112.826 422.133 115.658C422.133 118.553 420.674 120 417.756 120H415.032V111.41ZM416.168 118.98H417.733C418.979 118.98 419.829 118.691 420.282 118.113C420.735 117.531 420.961 116.713 420.961 115.658C420.961 114.631 420.735 113.836 420.282 113.273C419.832 112.711 418.983 112.43 417.733 112.43H416.168V118.98ZM425.384 120H424.277V113.783H425.384V120ZM425.384 112.605H424.277V111.41H425.384V112.605ZM432.767 113.783L430.417 120H429.433L427.083 113.783H428.278L429.925 118.646L431.571 113.783H432.767ZM437.102 120.146C436.188 120.146 435.453 119.861 434.899 119.291C434.344 118.717 434.067 117.918 434.067 116.895C434.067 115.879 434.334 115.084 434.869 114.51C435.408 113.932 436.112 113.643 436.979 113.643C437.865 113.643 438.572 113.926 439.1 114.492C439.631 115.059 439.897 115.859 439.897 116.895V117.158H435.215C435.262 117.877 435.459 118.41 435.807 118.758C436.158 119.105 436.59 119.279 437.102 119.279C437.489 119.279 437.836 119.182 438.145 118.986C438.457 118.787 438.621 118.506 438.637 118.143H439.78C439.694 118.783 439.403 119.277 438.906 119.625C438.414 119.973 437.813 120.146 437.102 120.146ZM438.731 116.291C438.641 115.693 438.44 115.246 438.127 114.949C437.815 114.652 437.432 114.504 436.979 114.504C436.537 114.504 436.158 114.652 435.842 114.949C435.526 115.242 435.324 115.689 435.239 116.291H438.731ZM445.087 114.791C444.931 114.744 444.707 114.721 444.414 114.721C443.851 114.721 443.369 115.016 442.966 115.605V120H441.859V113.783H442.966V114.65C443.431 113.979 443.97 113.643 444.584 113.643C444.74 113.643 444.908 113.658 445.087 113.689V114.791ZM448.796 120.146C447.096 120.146 446.208 119.479 446.13 118.143H447.237C447.245 118.9 447.761 119.279 448.784 119.279C449.241 119.279 449.589 119.186 449.827 118.998C450.069 118.807 450.19 118.568 450.19 118.283C450.19 118.002 450.073 117.805 449.839 117.691C449.604 117.574 449.12 117.424 448.386 117.24C447.655 117.057 447.12 116.852 446.78 116.625C446.444 116.398 446.276 116 446.276 115.43C446.276 114.914 446.485 114.488 446.903 114.152C447.325 113.812 447.887 113.643 448.591 113.643C450.22 113.643 451.052 114.223 451.087 115.383H449.985C449.946 114.797 449.507 114.504 448.667 114.504C448.296 114.504 447.987 114.574 447.741 114.715C447.499 114.855 447.378 115.061 447.378 115.33C447.378 115.572 447.471 115.748 447.659 115.857C447.846 115.963 448.315 116.107 449.065 116.291C449.819 116.471 450.378 116.682 450.741 116.924C451.108 117.166 451.292 117.584 451.292 118.178C451.292 118.744 451.065 119.215 450.612 119.59C450.163 119.961 449.557 120.146 448.796 120.146ZM455.938 120.146C455.024 120.146 454.289 119.861 453.734 119.291C453.18 118.717 452.902 117.918 452.902 116.895C452.902 115.879 453.17 115.084 453.705 114.51C454.244 113.932 454.947 113.643 455.815 113.643C456.701 113.643 457.408 113.926 457.936 114.492C458.467 115.059 458.732 115.859 458.732 116.895V117.158H454.051C454.098 117.877 454.295 118.41 454.643 118.758C454.994 119.105 455.426 119.279 455.938 119.279C456.324 119.279 456.672 119.182 456.981 118.986C457.293 118.787 457.457 118.506 457.473 118.143H458.615C458.529 118.783 458.238 119.277 457.742 119.625C457.25 119.973 456.649 120.146 455.938 120.146ZM457.566 116.291C457.477 115.693 457.275 115.246 456.963 114.949C456.65 114.652 456.268 114.504 455.815 114.504C455.373 114.504 454.994 114.652 454.678 114.949C454.361 115.242 454.16 115.689 454.074 116.291H457.566ZM471.153 120H464.749V111.41H470.954V112.43H465.885V115.055H470.626V116.074H465.885V118.98H471.153V120ZM478.43 120H477.059L475.512 117.574L473.965 120H472.594L474.891 116.771L472.775 113.783H474.146L475.512 115.957L476.877 113.783H478.248L476.133 116.76L478.43 120ZM482.689 120.146C481.775 120.146 481.04 119.861 480.486 119.291C479.931 118.717 479.654 117.918 479.654 116.895C479.654 115.879 479.921 115.084 480.456 114.51C480.995 113.932 481.698 113.643 482.566 113.643C483.452 113.643 484.159 113.926 484.687 114.492C485.218 115.059 485.484 115.859 485.484 116.895V117.158H480.802C480.849 117.877 481.046 118.41 481.394 118.758C481.745 119.105 482.177 119.279 482.689 119.279C483.075 119.279 483.423 119.182 483.732 118.986C484.044 118.787 484.208 118.506 484.224 118.143H485.366C485.28 118.783 484.989 119.277 484.493 119.625C484.001 119.973 483.4 120.146 482.689 120.146ZM484.318 116.291C484.228 115.693 484.027 115.246 483.714 114.949C483.402 114.652 483.019 114.504 482.566 114.504C482.124 114.504 481.745 114.652 481.429 114.949C481.112 115.242 480.911 115.689 480.825 116.291H484.318ZM490.674 114.791C490.518 114.744 490.293 114.721 490 114.721C489.438 114.721 488.956 115.016 488.553 115.605V120H487.446V113.783H488.553V114.65C489.018 113.979 489.557 113.643 490.17 113.643C490.327 113.643 490.495 113.658 490.674 113.689V114.791ZM494.681 120.146C493.799 120.146 493.092 119.863 492.56 119.297C492.033 118.727 491.769 117.926 491.769 116.895C491.769 115.859 492.033 115.059 492.56 114.492C493.092 113.926 493.799 113.643 494.681 113.643C495.361 113.643 495.927 113.814 496.381 114.158C496.838 114.502 497.107 114.998 497.189 115.646H496.052C496.037 115.275 495.896 114.992 495.631 114.797C495.369 114.602 495.052 114.504 494.681 114.504C494.154 114.504 493.726 114.705 493.398 115.107C493.07 115.506 492.906 116.102 492.906 116.895C492.906 117.684 493.07 118.279 493.398 118.682C493.726 119.08 494.154 119.279 494.681 119.279C495.052 119.279 495.369 119.182 495.631 118.986C495.896 118.791 496.037 118.51 496.052 118.143H497.189C497.107 118.791 496.838 119.287 496.381 119.631C495.927 119.975 495.361 120.146 494.681 120.146ZM499.989 120H498.882V113.783H499.989V120ZM499.989 112.605H498.882V111.41H499.989V112.605ZM504.565 120.146C502.866 120.146 501.977 119.479 501.899 118.143H503.006C503.014 118.9 503.53 119.279 504.553 119.279C505.01 119.279 505.358 119.186 505.596 118.998C505.838 118.807 505.959 118.568 505.959 118.283C505.959 118.002 505.842 117.805 505.608 117.691C505.373 117.574 504.889 117.424 504.155 117.24C503.424 117.057 502.889 116.852 502.549 116.625C502.213 116.398 502.045 116 502.045 115.43C502.045 114.914 502.254 114.488 502.672 114.152C503.094 113.812 503.657 113.643 504.36 113.643C505.989 113.643 506.821 114.223 506.856 115.383H505.754C505.715 114.797 505.276 114.504 504.436 114.504C504.065 114.504 503.756 114.574 503.51 114.715C503.268 114.855 503.147 115.061 503.147 115.33C503.147 115.572 503.241 115.748 503.428 115.857C503.616 115.963 504.084 116.107 504.834 116.291C505.588 116.471 506.147 116.682 506.51 116.924C506.877 117.166 507.061 117.584 507.061 118.178C507.061 118.744 506.834 119.215 506.381 119.59C505.932 119.961 505.326 120.146 504.565 120.146ZM511.707 120.146C510.793 120.146 510.058 119.861 509.504 119.291C508.949 118.717 508.671 117.918 508.671 116.895C508.671 115.879 508.939 115.084 509.474 114.51C510.013 113.932 510.716 113.643 511.584 113.643C512.47 113.643 513.177 113.926 513.705 114.492C514.236 115.059 514.502 115.859 514.502 116.895V117.158H509.82C509.867 117.877 510.064 118.41 510.412 118.758C510.763 119.105 511.195 119.279 511.707 119.279C512.093 119.279 512.441 119.182 512.75 118.986C513.062 118.787 513.226 118.506 513.242 118.143H514.384C514.298 118.783 514.007 119.277 513.511 119.625C513.019 119.973 512.418 120.146 511.707 120.146ZM513.336 116.291C513.246 115.693 513.045 115.246 512.732 114.949C512.42 114.652 512.037 114.504 511.584 114.504C511.142 114.504 510.763 114.652 510.447 114.949C510.13 115.242 509.929 115.689 509.843 116.291H513.336Z" fill="black"/>
<path d="M483.529 55.2375V48.6471C483.529 44.1061 479.835 40.4118 475.294 40.4118H471.176V26H430V67.1765H444.412V71.2941C444.412 75.8351 448.106 79.5294 452.647 79.5294H459.237C461.15 88.9155 469.469 96 479.412 96C490.764 96 500 86.7641 500 75.4118C500 65.4692 492.915 57.1503 483.529 55.2375ZM444.412 48.6471V64.5H432.5V28.5H468.5V40.4118H452.647C448.106 40.4118 444.412 44.1061 444.412 48.6471ZM452.647 77C450.377 77 447 73.5646 447 71.2941V48.6471C447 46.3766 450.377 43 452.647 43H475.294C477.565 43 481 46.3766 481 48.6471V55.2375C466 55.2375 459 65.6476 459 77H452.647ZM480 93.5C470.847 93.5 461.5 86.0068 461.5 77C461.279 66.5 469 57.5 482 58C490.541 58.3285 497.5 66.9398 497.5 75.4118C497.5 84.4936 489.082 93.5 480 93.5Z" fill="black"/>
<path d="M580.496 113H579.418V105.693L576.968 113H575.949L573.5 105.693V113H572.421V104.41H574.127L576.453 111.57L578.791 104.41H580.496V113ZM585.511 106.643C586.397 106.643 587.104 106.926 587.632 107.492C588.163 108.059 588.429 108.859 588.429 109.895C588.429 110.926 588.163 111.727 587.632 112.297C587.104 112.863 586.397 113.146 585.511 113.146C584.628 113.146 583.921 112.863 583.39 112.297C582.862 111.727 582.599 110.926 582.599 109.895C582.599 108.859 582.862 108.059 583.39 107.492C583.921 106.926 584.628 106.643 585.511 106.643ZM585.511 112.279C586.038 112.279 586.466 112.08 586.794 111.682C587.122 111.279 587.286 110.684 587.286 109.895C587.286 109.102 587.122 108.506 586.794 108.107C586.466 107.705 586.038 107.504 585.511 107.504C584.983 107.504 584.556 107.705 584.227 108.107C583.899 108.506 583.735 109.102 583.735 109.895C583.735 110.684 583.899 111.279 584.227 111.682C584.556 112.08 584.983 112.279 585.511 112.279ZM592.805 113.012C592.563 113.059 592.299 113.082 592.014 113.082C591.561 113.082 591.229 113.002 591.018 112.842C590.807 112.678 590.676 112.469 590.625 112.215C590.574 111.961 590.549 111.615 590.549 111.178V107.65H589.781V106.783H590.549V105.236H591.651V106.783H592.658V107.65H591.651V111.236C591.651 111.662 591.703 111.934 591.809 112.051C591.918 112.164 592.067 112.221 592.254 112.221C592.445 112.221 592.629 112.205 592.805 112.174V113.012ZM595.558 113H594.451V106.783H595.558V113ZM595.558 105.605H594.451V104.41H595.558V105.605ZM602.94 106.783L600.591 113H599.606L597.257 106.783H598.452L600.098 111.646L601.745 106.783H602.94ZM608.57 111.365V109.988H607.814C606.213 109.988 605.412 110.424 605.412 111.295C605.412 111.611 605.529 111.855 605.764 112.027C605.998 112.195 606.314 112.279 606.713 112.279C607.076 112.279 607.428 112.197 607.768 112.033C608.107 111.869 608.375 111.646 608.57 111.365ZM608.57 112.361C608.008 112.885 607.283 113.146 606.396 113.146C605.779 113.146 605.271 112.98 604.873 112.648C604.475 112.312 604.275 111.881 604.275 111.354C604.275 109.9 605.527 109.174 608.031 109.174H608.57C608.57 108.729 608.547 108.406 608.5 108.207C608.453 108.004 608.322 107.836 608.107 107.703C607.893 107.57 607.551 107.504 607.082 107.504C606.098 107.504 605.59 107.855 605.559 108.559H604.457C604.539 107.281 605.434 106.643 607.141 106.643C607.938 106.643 608.559 106.801 609.004 107.117C609.449 107.434 609.672 108.055 609.672 108.98V113H608.57V112.361ZM614.447 113.012C614.204 113.059 613.941 113.082 613.656 113.082C613.202 113.082 612.87 113.002 612.659 112.842C612.449 112.678 612.318 112.469 612.267 112.215C612.216 111.961 612.191 111.615 612.191 111.178V107.65H611.423V106.783H612.191V105.236H613.292V106.783H614.3V107.65H613.292V111.236C613.292 111.662 613.345 111.934 613.45 112.051C613.56 112.164 613.708 112.221 613.896 112.221C614.087 112.221 614.271 112.205 614.447 112.174V113.012ZM617.2 113H616.092V106.783H617.2V113ZM617.2 105.605H616.092V104.41H617.2V105.605ZM622.074 106.643C622.961 106.643 623.668 106.926 624.195 107.492C624.726 108.059 624.992 108.859 624.992 109.895C624.992 110.926 624.726 111.727 624.195 112.297C623.668 112.863 622.961 113.146 622.074 113.146C621.191 113.146 620.484 112.863 619.953 112.297C619.426 111.727 619.162 110.926 619.162 109.895C619.162 108.859 619.426 108.059 619.953 107.492C620.484 106.926 621.191 106.643 622.074 106.643ZM622.074 112.279C622.601 112.279 623.029 112.08 623.357 111.682C623.685 111.279 623.849 110.684 623.849 109.895C623.849 109.102 623.685 108.506 623.357 108.107C623.029 107.705 622.601 107.504 622.074 107.504C621.547 107.504 621.119 107.705 620.791 108.107C620.463 108.506 620.299 109.102 620.299 109.895C620.299 110.684 620.463 111.279 620.791 111.682C621.119 112.08 621.547 112.279 622.074 112.279ZM628.062 107.574C628.612 106.953 629.232 106.643 629.919 106.643C631.321 106.643 632.023 107.406 632.023 108.934V113H630.915V108.98C630.915 108.473 630.823 108.107 630.64 107.885C630.46 107.662 630.163 107.551 629.749 107.551C629.187 107.551 628.624 107.883 628.062 108.547V113H626.954V106.783H628.062V107.574ZM577.794 127H576.651V118.41H577.794V127ZM581.531 121.574C582.082 120.953 582.701 120.643 583.389 120.643C584.791 120.643 585.492 121.406 585.492 122.934V127H584.385V122.98C584.385 122.473 584.293 122.107 584.11 121.885C583.93 121.662 583.633 121.551 583.219 121.551C582.656 121.551 582.094 121.883 581.531 122.547V127H580.424V120.783H581.531V121.574ZM590.343 127.146C589.46 127.146 588.753 126.863 588.222 126.297C587.695 125.727 587.431 124.926 587.431 123.895C587.431 122.859 587.695 122.059 588.222 121.492C588.753 120.926 589.46 120.643 590.343 120.643C591.023 120.643 591.589 120.814 592.042 121.158C592.499 121.502 592.769 121.998 592.851 122.646H591.714C591.699 122.275 591.558 121.992 591.292 121.797C591.031 121.602 590.714 121.504 590.343 121.504C589.816 121.504 589.388 121.705 589.06 122.107C588.732 122.506 588.568 123.102 588.568 123.895C588.568 124.684 588.732 125.279 589.06 125.682C589.388 126.08 589.816 126.279 590.343 126.279C590.714 126.279 591.031 126.182 591.292 125.986C591.558 125.791 591.699 125.51 591.714 125.143H592.851C592.769 125.791 592.499 126.287 592.042 126.631C591.589 126.975 591.023 127.146 590.343 127.146ZM597.186 127.146C596.272 127.146 595.538 126.861 594.983 126.291C594.428 125.717 594.151 124.918 594.151 123.895C594.151 122.879 594.419 122.084 594.954 121.51C595.493 120.932 596.196 120.643 597.063 120.643C597.95 120.643 598.657 120.926 599.184 121.492C599.716 122.059 599.981 122.859 599.981 123.895V124.158H595.3C595.346 124.877 595.544 125.41 595.891 125.758C596.243 126.105 596.675 126.279 597.186 126.279C597.573 126.279 597.921 126.182 598.229 125.986C598.542 125.787 598.706 125.506 598.721 125.143H599.864C599.778 125.783 599.487 126.277 598.991 126.625C598.499 126.973 597.897 127.146 597.186 127.146ZM598.815 123.291C598.725 122.693 598.524 122.246 598.212 121.949C597.899 121.652 597.516 121.504 597.063 121.504C596.622 121.504 596.243 121.652 595.926 121.949C595.61 122.242 595.409 122.689 595.323 123.291H598.815ZM603.051 121.574C603.602 120.953 604.221 120.643 604.908 120.643C606.311 120.643 607.012 121.406 607.012 122.934V127H605.904V122.98C605.904 122.473 605.812 122.107 605.629 121.885C605.449 121.662 605.152 121.551 604.738 121.551C604.176 121.551 603.613 121.883 603.051 122.547V127H601.943V120.783H603.051V121.574ZM611.757 127.012C611.515 127.059 611.251 127.082 610.966 127.082C610.513 127.082 610.181 127.002 609.97 126.842C609.759 126.678 609.628 126.469 609.577 126.215C609.527 125.961 609.501 125.615 609.501 125.178V121.65H608.734V120.783H609.501V119.236H610.603V120.783H611.611V121.65H610.603V125.236C610.603 125.662 610.656 125.934 610.761 126.051C610.87 126.164 611.019 126.221 611.206 126.221C611.398 126.221 611.581 126.205 611.757 126.174V127.012ZM614.51 127H613.403V120.783H614.51V127ZM614.51 119.605H613.403V118.41H614.51V119.605ZM621.892 120.783L619.543 127H618.558L616.209 120.783H617.404L619.051 125.646L620.697 120.783H621.892ZM626.228 127.146C625.314 127.146 624.579 126.861 624.025 126.291C623.47 125.717 623.193 124.918 623.193 123.895C623.193 122.879 623.46 122.084 623.995 121.51C624.534 120.932 625.237 120.643 626.105 120.643C626.991 120.643 627.698 120.926 628.226 121.492C628.757 122.059 629.023 122.859 629.023 123.895V124.158H624.341C624.388 124.877 624.585 125.41 624.933 125.758C625.284 126.105 625.716 126.279 626.228 126.279C626.614 126.279 626.962 126.182 627.271 125.986C627.583 125.787 627.747 125.506 627.763 125.143H628.905C628.819 125.783 628.528 126.277 628.032 126.625C627.54 126.973 626.939 127.146 626.228 127.146ZM627.857 123.291C627.767 122.693 627.566 122.246 627.253 121.949C626.941 121.652 626.558 121.504 626.105 121.504C625.663 121.504 625.284 121.652 624.968 121.949C624.651 122.242 624.45 122.689 624.364 123.291H627.857Z" fill="black"/>
<path d="M603 74.6719C603 75.427 602.388 76.0391 601.633 76.0391C600.878 76.0391 600.266 75.427 600.266 74.6719C600.266 73.9167 600.878 73.3047 601.633 73.3047C602.388 73.3047 603 73.9167 603 74.6719Z" fill="black"/>
<path d="M616.672 45.1406C615.548 45.1406 614.501 45.4819 613.631 46.0661C612.893 43.9539 610.875 42.4062 608.469 42.4062C606.837 42.4062 605.372 43.1251 604.369 44.2621C603.311 43.0637 601.835 42.4062 600.266 42.4062C598.634 42.4062 597.167 43.1262 596.164 44.2637C595.161 43.1262 593.695 42.4062 592.062 42.4062C589.047 42.4062 586.594 44.8597 586.594 47.875V55.5339C584.891 56.8157 583.859 58.8424 583.859 61C583.859 68.2856 587.291 75.1931 593.156 79.5938C594.171 80.3553 594.797 81.5612 594.797 82.875V94.6328C594.797 95.388 595.409 96 596.164 96H618.039C618.794 96 619.406 95.388 619.406 94.6328V83.095C620.296 80.3884 620.978 77.5916 621.435 74.7782C621.904 71.8905 622.141 68.9452 622.141 66.0244C622.141 64.2561 622.141 52.3873 622.141 50.6094C622.141 47.5882 619.694 45.1406 616.672 45.1406V45.1406ZM616.672 47.875C618.182 47.875 619.406 49.0991 619.406 50.6094V59.6328C619.406 61.1405 618.18 62.3672 616.672 62.3672C615.164 62.3672 613.938 61.1405 613.938 59.6328C613.938 57.3091 613.938 52.7381 613.938 50.6094C613.938 49.1017 615.164 47.875 616.672 47.875ZM608.469 45.1406C609.979 45.1406 611.203 46.3647 611.203 47.875V56.8984C611.203 58.4061 609.976 59.6328 608.469 59.6328C606.961 59.6328 605.734 58.4061 605.734 56.8984V47.875C605.734 46.3674 606.961 45.1406 608.469 45.1406ZM600.266 45.1406C601.776 45.1406 603 46.3647 603 47.875V54.1641H597.531V47.875C597.531 46.3674 598.758 45.1406 600.266 45.1406ZM592.062 45.1406C593.57 45.1406 594.797 46.3674 594.797 47.875V54.1641H590.695C590.234 54.1641 589.777 54.2116 589.328 54.3029V47.875C589.328 46.3674 590.555 45.1406 592.062 45.1406ZM597.531 93.2656V86.9766H616.672V93.2656H597.531ZM618.737 74.3402C617.855 79.7604 616.672 82.2192 616.672 82.875V84.2422H597.531V82.875C597.531 80.7569 596.544 78.7168 594.797 77.4062C589.613 73.5172 586.594 67.4188 586.594 61C586.594 58.7778 588.392 56.8968 590.695 56.8968H602.863C602.228 60.0136 599.465 62.3672 596.164 62.3672H593.43C592.675 62.3672 592.062 62.9792 592.062 63.7344C592.062 64.4895 592.675 65.1016 593.43 65.1016H594.797C597.398 65.1016 599.654 66.9499 600.16 69.4958C600.307 70.2312 601.022 70.7182 601.768 70.5698C602.509 70.4229 602.99 69.703 602.842 68.9623C602.467 67.0744 601.45 65.4428 600.048 64.2748C601.836 63.477 603.339 62.1488 604.348 60.4878C605.351 61.6382 606.826 62.3672 608.469 62.3672C609.594 62.3672 610.641 62.0254 611.511 61.4401C612.259 63.5699 614.289 65.1016 616.672 65.1016C617.667 65.1016 618.601 64.8329 619.406 64.3656V66.0244C619.406 68.7988 619.181 71.5973 618.737 74.3402Z" fill="black"/>
<path d="M605.734 35.5703V27.3672C605.734 26.612 605.122 26 604.367 26C603.612 26 603 26.612 603 27.3672V35.5703C603 36.3255 603.612 36.9375 604.367 36.9375C605.122 36.9375 605.734 36.3255 605.734 35.5703Z" fill="black"/>
<path d="M614.933 37.3097L620.733 31.5083C621.266 30.9742 621.266 30.109 620.732 29.575C620.198 29.0409 619.333 29.0409 618.799 29.575L612.999 35.3759C612.466 35.91 612.466 36.7757 613 37.3097C613.534 37.8433 614.399 37.8438 614.933 37.3097V37.3097Z" fill="black"/>
<path d="M596.536 36.5081C597.07 35.974 597.07 35.1083 596.536 34.5748L590.735 28.775C590.201 28.2414 589.336 28.2414 588.802 28.7755C588.267 29.309 588.268 30.1747 588.802 30.7088L594.602 36.5086C595.137 37.0422 596.002 37.0422 596.536 36.5081Z" fill="black"/>
<path d="M774.633 79.6792C775.388 79.6792 776 79.067 776 78.3121V75.9213C776 72.2721 773.898 69.1064 770.842 67.5653C772.432 66.2194 773.444 64.2113 773.444 61.9702V60.2662C773.444 56.2238 770.155 52.9351 766.113 52.9351C762.07 52.9351 758.782 56.2238 758.782 60.2662V61.9702C758.782 63.9183 759.547 65.6899 760.791 67.0042C758.387 67.5404 756.114 68.5636 754.084 70.0447L741.704 79.0763C741.448 79.2631 741.213 79.4729 741 79.7008C740.787 79.4729 740.552 79.2631 740.296 79.0763L727.916 70.0447C725.886 68.5636 723.613 67.5404 721.209 67.0042C722.453 65.6899 723.218 63.9183 723.218 61.9702V60.2662C723.218 56.2238 719.93 52.9351 715.887 52.9351C711.845 52.9351 708.556 56.2238 708.556 60.2662V61.9702C708.556 64.2113 709.568 66.2194 711.158 67.5653C708.102 69.1064 706 72.2721 706 75.9214V94.6298C706 95.3848 706.612 95.997 707.367 95.997H724.407C725.162 95.997 725.774 95.3848 725.774 94.6298V82.0759L734.72 87.4695C736.298 88.4213 738.199 88.4482 739.804 87.5419C740.257 87.2859 740.657 86.9695 741 86.6083C741.343 86.9696 741.743 87.286 742.196 87.5419C742.977 87.9831 743.828 88.2031 744.678 88.2031C745.574 88.2031 746.47 87.9581 747.28 87.4695L756.226 82.0759V94.6298C756.226 95.3848 756.838 95.997 757.593 95.997H774.633C775.388 95.997 776 95.3848 776 94.6298V89.6902C776 88.9352 775.388 88.323 774.633 88.323C773.878 88.323 773.266 88.9352 773.266 89.6902V93.2626H758.96V80.6456C758.96 80.5748 758.953 80.5057 758.943 80.4378L760.429 79.5417C761.075 79.1518 761.283 78.3117 760.894 77.665C760.504 77.0183 759.663 76.8098 759.017 77.2001L745.868 85.1279C745.145 85.5637 744.275 85.5761 743.541 85.161C742.806 84.746 742.367 83.9945 742.367 83.1505C742.367 82.4157 742.722 81.7183 743.315 81.2851L755.696 72.2535C758.343 70.322 761.475 69.3011 764.752 69.3011H766.645C770.296 69.3011 773.266 72.2709 773.266 75.9213V78.3121C773.266 79.067 773.878 79.6792 774.633 79.6792ZM711.29 60.2662C711.29 57.7316 713.352 55.6694 715.887 55.6694C718.422 55.6694 720.484 57.7316 720.484 60.2662V61.9702C720.484 64.5049 718.422 66.567 715.887 66.567C713.352 66.567 711.29 64.5049 711.29 61.9702V60.2662V60.2662ZM738.459 85.161C737.724 85.5759 736.854 85.5635 736.132 85.1279L722.983 77.2001C722.336 76.8099 721.496 77.0184 721.106 77.665C720.716 78.3115 720.924 79.1518 721.571 79.5417L723.056 80.4368C723.045 80.5049 723.04 80.5746 723.04 80.6456V93.2626H708.734V75.9214C708.734 72.271 711.704 69.3012 715.355 69.3012H717.248C720.525 69.3012 723.657 70.3221 726.304 72.2537L738.685 81.2853C739.278 81.7184 739.633 82.4158 739.633 83.1507C739.633 83.9945 739.194 84.746 738.459 85.161ZM770.71 61.9702C770.71 64.5049 768.647 66.567 766.113 66.567C763.578 66.567 761.516 64.5049 761.516 61.9702V60.2662C761.516 57.7316 763.578 55.6694 766.113 55.6694C768.647 55.6694 770.71 57.7316 770.71 60.2662V61.9702Z" fill="black"/>
<path d="M775.599 82.8667C775.345 82.6125 774.992 82.4674 774.633 82.4674C774.273 82.4674 773.92 82.6125 773.666 82.8667C773.412 83.1223 773.266 83.4737 773.266 83.8333C773.266 84.1942 773.412 84.5456 773.666 84.8012C773.92 85.0555 774.273 85.2018 774.633 85.2018C774.992 85.2018 775.345 85.0557 775.599 84.8012C775.853 84.5456 776 84.1942 776 83.8333C776 83.4737 775.854 83.121 775.599 82.8667Z" fill="black"/>
<path d="M762.471 26.0035H757.959C757.204 26.0035 756.592 26.6156 756.592 27.3707C756.592 28.1258 757.204 28.7379 757.959 28.7379H759.17L743.193 44.715L732.738 34.2597C732.481 34.0033 732.134 33.8592 731.771 33.8592C731.408 33.8592 731.061 34.0033 730.804 34.2597L721.062 44.002C720.528 44.536 720.528 45.4016 721.062 45.9356C721.596 46.4696 722.461 46.4695 722.996 45.9356L731.771 37.1599L742.226 47.6152C742.493 47.8822 742.843 48.0156 743.193 48.0156C743.543 48.0156 743.893 47.8822 744.16 47.6152L761.104 30.6715V31.8824C761.104 32.6375 761.716 33.2496 762.471 33.2496C763.226 33.2496 763.838 32.6375 763.838 31.8824V27.3707C763.838 26.6156 763.226 26.0035 762.471 26.0035Z" fill="black"/>
<path d="M719.545 47.4527C719.29 47.1984 718.938 47.0521 718.578 47.0521C718.218 47.0521 717.866 47.1984 717.611 47.4527C717.357 47.707 717.211 48.0597 717.211 48.4193C717.211 48.7788 717.357 49.1316 717.611 49.3859C717.866 49.6402 718.218 49.7865 718.578 49.7865C718.938 49.7865 719.29 49.6402 719.545 49.3859C719.799 49.1316 719.945 48.7788 719.945 48.4193C719.945 48.0583 719.799 47.707 719.545 47.4527Z" fill="black"/>
<path d="M703.034 111.41L700.655 120H699.565L697.503 112.535L695.435 120H694.345L691.972 111.41H693.167L694.884 118.406L696.817 111.41H698.183L700.116 118.406L701.833 111.41H703.034ZM707.211 113.643C708.098 113.643 708.805 113.926 709.332 114.492C709.864 115.059 710.129 115.859 710.129 116.895C710.129 117.926 709.864 118.727 709.332 119.297C708.805 119.863 708.098 120.146 707.211 120.146C706.328 120.146 705.621 119.863 705.09 119.297C704.563 118.727 704.299 117.926 704.299 116.895C704.299 115.859 704.563 115.059 705.09 114.492C705.621 113.926 706.328 113.643 707.211 113.643ZM707.211 119.279C707.739 119.279 708.166 119.08 708.494 118.682C708.823 118.279 708.987 117.684 708.987 116.895C708.987 116.102 708.823 115.506 708.494 115.107C708.166 114.705 707.739 114.504 707.211 114.504C706.684 114.504 706.256 114.705 705.928 115.107C705.6 115.506 705.436 116.102 705.436 116.895C705.436 117.684 705.6 118.279 705.928 118.682C706.256 119.08 706.684 119.279 707.211 119.279ZM715.32 114.791C715.164 114.744 714.939 114.721 714.646 114.721C714.084 114.721 713.601 115.016 713.199 115.605V120H712.091V113.783H713.199V114.65C713.664 113.979 714.203 113.643 714.816 113.643C714.972 113.643 715.14 113.658 715.32 113.689V114.791ZM721.946 120H720.628L718.606 116.842L717.915 117.527V120H716.807V111.41H717.915V116.279L720.311 113.783H721.706L719.35 116.098L721.946 120ZM726.047 113.643C726.934 113.643 727.641 113.926 728.168 114.492C728.699 115.059 728.965 115.859 728.965 116.895C728.965 117.926 728.699 118.727 728.168 119.297C727.641 119.863 726.934 120.146 726.047 120.146C725.164 120.146 724.457 119.863 723.926 119.297C723.399 118.727 723.135 117.926 723.135 116.895C723.135 115.859 723.399 115.059 723.926 114.492C724.457 113.926 725.164 113.643 726.047 113.643ZM726.047 119.279C726.574 119.279 727.002 119.08 727.33 118.682C727.658 118.279 727.822 117.684 727.822 116.895C727.822 116.102 727.658 115.506 727.33 115.107C727.002 114.705 726.574 114.504 726.047 114.504C725.52 114.504 725.092 114.705 724.764 115.107C724.436 115.506 724.272 116.102 724.272 116.895C724.272 117.684 724.436 118.279 724.764 118.682C725.092 119.08 725.52 119.279 726.047 119.279ZM734.865 119.209C734.314 119.834 733.695 120.146 733.007 120.146C731.605 120.146 730.904 119.381 730.904 117.85V113.783H732.011V117.803C732.011 118.311 732.101 118.676 732.281 118.898C732.46 119.121 732.757 119.232 733.171 119.232C733.789 119.232 734.353 118.9 734.865 118.236V113.783H735.966V120H734.865V119.209ZM740.741 120.012C740.499 120.059 740.235 120.082 739.95 120.082C739.497 120.082 739.165 120.002 738.954 119.842C738.743 119.678 738.612 119.469 738.561 119.215C738.51 118.961 738.485 118.615 738.485 118.178V114.65H737.717V113.783H738.485V112.236H739.587V113.783H740.594V114.65H739.587V118.236C739.587 118.662 739.639 118.934 739.745 119.051C739.854 119.164 740.003 119.221 740.19 119.221C740.382 119.221 740.565 119.205 740.741 119.174V120.012ZM746.441 111.41H749.646C750.349 111.41 750.937 111.477 751.409 111.609C751.886 111.738 752.263 112.021 752.54 112.459C752.818 112.893 752.956 113.379 752.956 113.918C752.956 114.785 752.681 115.443 752.13 115.893C751.579 116.342 750.783 116.566 749.74 116.566H747.577V120H746.441V111.41ZM747.577 115.547H749.751C750.482 115.547 751.001 115.41 751.31 115.137C751.622 114.863 751.779 114.469 751.779 113.953C751.779 113.609 751.693 113.305 751.521 113.039C751.349 112.773 751.13 112.605 750.865 112.535C750.603 112.465 750.224 112.43 749.728 112.43H747.577V115.547ZM758.956 118.365V116.988H758.2C756.598 116.988 755.797 117.424 755.797 118.295C755.797 118.611 755.915 118.855 756.149 119.027C756.383 119.195 756.7 119.279 757.098 119.279C757.461 119.279 757.813 119.197 758.153 119.033C758.493 118.869 758.76 118.646 758.956 118.365ZM758.956 119.361C758.393 119.885 757.669 120.146 756.782 120.146C756.165 120.146 755.657 119.98 755.258 119.648C754.86 119.312 754.661 118.881 754.661 118.354C754.661 116.9 755.913 116.174 758.417 116.174H758.956C758.956 115.729 758.932 115.406 758.885 115.207C758.838 115.004 758.708 114.836 758.493 114.703C758.278 114.57 757.936 114.504 757.467 114.504C756.483 114.504 755.975 114.855 755.944 115.559H754.842C754.924 114.281 755.819 113.643 757.526 113.643C758.323 113.643 758.944 113.801 759.389 114.117C759.835 114.434 760.057 115.055 760.057 115.98V120H758.956V119.361ZM765.646 114.791C765.49 114.744 765.265 114.721 764.972 114.721C764.41 114.721 763.928 115.016 763.525 115.605V120H762.418V113.783H763.525V114.65C763.99 113.979 764.529 113.643 765.142 113.643C765.299 113.643 765.467 113.658 765.646 113.689V114.791ZM769.548 120.012C769.306 120.059 769.042 120.082 768.757 120.082C768.304 120.082 767.972 120.002 767.761 119.842C767.55 119.678 767.419 119.469 767.368 119.215C767.317 118.961 767.292 118.615 767.292 118.178V114.65H766.525V113.783H767.292V112.236H768.394V113.783H769.401V114.65H768.394V118.236C768.394 118.662 768.446 118.934 768.552 119.051C768.661 119.164 768.81 119.221 768.997 119.221C769.189 119.221 769.372 119.205 769.548 119.174V120.012ZM772.301 114.574C772.852 113.953 773.471 113.643 774.159 113.643C775.561 113.643 776.262 114.406 776.262 115.934V120H775.155V115.98C775.155 115.473 775.063 115.107 774.879 114.885C774.7 114.662 774.403 114.551 773.989 114.551C773.426 114.551 772.864 114.883 772.301 115.547V120H771.194V113.783H772.301V114.574ZM781.236 120.146C780.322 120.146 779.588 119.861 779.033 119.291C778.478 118.717 778.201 117.918 778.201 116.895C778.201 115.879 778.468 115.084 779.004 114.51C779.543 113.932 780.246 113.643 781.113 113.643C782 113.643 782.707 113.926 783.234 114.492C783.765 115.059 784.031 115.859 784.031 116.895V117.158H779.349C779.396 117.877 779.593 118.41 779.941 118.758C780.293 119.105 780.724 119.279 781.236 119.279C781.623 119.279 781.97 119.182 782.279 118.986C782.591 118.787 782.756 118.506 782.771 118.143H783.914C783.828 118.783 783.537 119.277 783.041 119.625C782.549 119.973 781.947 120.146 781.236 120.146ZM782.865 116.291C782.775 115.693 782.574 115.246 782.261 114.949C781.949 114.652 781.566 114.504 781.113 114.504C780.672 114.504 780.293 114.652 779.976 114.949C779.66 115.242 779.459 115.689 779.373 116.291H782.865ZM789.222 114.791C789.065 114.744 788.841 114.721 788.548 114.721C787.985 114.721 787.503 115.016 787.101 115.605V120H785.993V113.783H787.101V114.65C787.565 113.979 788.104 113.643 788.718 113.643C788.874 113.643 789.042 113.658 789.222 113.689V114.791Z" fill="black"/>
<defs>
<clipPath id="clip0">
<rect width="70" height="70" fill="white" transform="translate(16 26)"/>
</clipPath>
<clipPath id="clip1">
<rect width="70" height="70" fill="white" transform="translate(153 26)"/>
</clipPath>
</defs>
</svg>
