<svg width="70" height="70" viewBox="0 0 70 70" fill="none" xmlns="http://www.w3.org/2000/svg">
<path d="M68.6328 53.6792C69.3878 53.6792 70 53.067 70 52.3121V49.9213C69.9999 46.2721 67.898 43.1064 64.8424 41.5653C66.4321 40.2194 67.4439 38.2113 67.4439 35.9702V34.2662C67.4439 30.2238 64.1552 26.9351 60.1128 26.9351C56.0704 26.9351 52.7817 30.2238 52.7817 34.2662V35.9702C52.7817 37.9183 53.5469 39.6899 54.7906 41.0042C52.387 41.5404 50.1142 42.5636 48.0839 44.0447L35.7038 53.0763C35.4478 53.2631 35.2132 53.4729 34.9999 53.7008C34.7867 53.4729 34.5519 53.2631 34.2961 53.0763L21.916 44.0447C19.8857 42.5636 17.6129 41.5404 15.2092 41.0042C16.453 39.6899 17.2183 37.9183 17.2183 35.9702V34.2662C17.2183 30.2238 13.9296 26.9351 9.88721 26.9351C5.84485 26.9351 2.55609 30.2238 2.55609 34.2662V35.9702C2.55609 38.2113 3.56794 40.2194 5.15757 41.5653C2.10191 43.1064 0 46.2721 0 49.9214V68.6298C0 69.3848 0.612225 69.997 1.36718 69.997H18.4071C19.1621 69.997 19.7743 69.3848 19.7743 68.6298V56.0759L28.7196 61.4695C30.2983 62.4213 32.1988 62.4482 33.8039 61.5419C34.2573 61.2859 34.6568 60.9695 34.9999 60.6083C35.3431 60.9696 35.7426 61.286 36.1959 61.5419C36.977 61.9831 37.8281 62.2031 38.6778 62.2031C39.5744 62.2031 40.4698 61.9581 41.2801 61.4695L50.2256 56.0759V68.6298C50.2256 69.3848 50.8378 69.997 51.5928 69.997H68.6327C69.3876 69.997 69.9999 69.3848 69.9999 68.6298V63.6902C69.9999 62.9352 69.3876 62.323 68.6327 62.323C67.8777 62.323 67.2655 62.9352 67.2655 63.6902V67.2626H52.96V54.6456C52.96 54.5748 52.9529 54.5057 52.9426 54.4378L54.4287 53.5417C55.0754 53.1518 55.2835 52.3117 54.8936 51.665C54.5035 51.0183 53.663 50.8098 53.0168 51.2001L39.8682 59.1279C39.1454 59.5637 38.2752 59.5761 37.5406 59.161C36.8059 58.746 36.3671 57.9945 36.3671 57.1505C36.3671 56.4157 36.7216 55.7183 37.3154 55.2851L49.6955 46.2535C52.3431 44.322 55.4748 43.3011 58.7522 43.3011H60.6453C64.2957 43.3011 67.2656 46.2709 67.2656 49.9213V52.3121C67.2656 53.067 67.8779 53.6792 68.6328 53.6792ZM5.29032 34.2662C5.29032 31.7316 7.35245 29.6694 9.88707 29.6694C12.4217 29.6694 14.4838 31.7316 14.4838 34.2662V35.9702C14.4838 38.5049 12.4217 40.567 9.88707 40.567C7.35245 40.567 5.29032 38.5049 5.29032 35.9702V34.2662V34.2662ZM32.4593 59.161C31.7243 59.5759 30.8542 59.5635 30.1315 59.1279L16.983 51.2001C16.3365 50.8099 15.4961 51.0184 15.1063 51.665C14.7164 52.3115 14.9245 53.1518 15.5711 53.5417L17.0556 54.4368C17.0452 54.5049 17.0398 54.5746 17.0398 54.6456V67.2626H2.73437V49.9214C2.73437 46.271 5.70431 43.3012 9.35469 43.3012H11.2478C14.5252 43.3012 17.6569 44.3221 20.3045 46.2537L32.6846 55.2853C33.2784 55.7184 33.6329 56.4158 33.6329 57.1507C33.6328 57.9945 33.194 58.746 32.4593 59.161ZM64.7095 35.9702C64.7095 38.5049 62.6474 40.567 60.1128 40.567C57.5782 40.567 55.5161 38.5049 55.5161 35.9702V34.2662C55.5161 31.7316 57.5782 29.6694 60.1128 29.6694C62.6474 29.6694 64.7095 31.7316 64.7095 34.2662V35.9702Z" fill="#06CAA6"/>
<path d="M69.5991 56.8667C69.345 56.6125 68.9923 56.4674 68.6327 56.4674C68.2731 56.4674 67.9204 56.6125 67.6661 56.8667C67.4118 57.1223 67.2655 57.4737 67.2655 57.8333C67.2655 58.1942 67.4117 58.5456 67.6661 58.8012C67.9204 59.0555 68.2731 59.2018 68.6327 59.2018C68.9923 59.2018 69.345 59.0557 69.5991 58.8012C69.8534 58.5456 69.9999 58.1942 69.9999 57.8333C69.9999 57.4737 69.8536 57.121 69.5991 56.8667Z" fill="#06CAA6"/>
<path d="M56.4707 0.00354004H51.959C51.2041 0.00354004 50.5918 0.615629 50.5918 1.37072C50.5918 2.12582 51.2041 2.73791 51.959 2.73791H53.1699L37.193 18.715L26.7377 8.25969C26.4812 8.00335 26.1336 7.85925 25.771 7.85925C25.4084 7.85925 25.0607 8.00335 24.8043 8.25969L15.062 18.002C14.5281 18.536 14.5281 19.4016 15.062 19.9356C15.596 20.4696 16.4614 20.4695 16.9956 19.9356L25.7711 11.1599L36.2264 21.6152C36.4934 21.8822 36.8433 22.0156 37.1931 22.0156C37.543 22.0156 37.8929 21.8822 38.1599 21.6152L55.1035 4.67152V5.88243C55.1035 6.63753 55.7158 7.24962 56.4707 7.24962C57.2257 7.24962 57.8379 6.63753 57.8379 5.88243V1.37072C57.8379 0.615629 57.2257 0.00354004 56.4707 0.00354004Z" fill="#06CAA6"/>
<path d="M13.5445 21.4527C13.2904 21.1984 12.9376 21.0521 12.5781 21.0521C12.2185 21.0521 11.8658 21.1984 11.6115 21.4527C11.3572 21.707 11.2109 22.0597 11.2109 22.4193C11.2109 22.7788 11.357 23.1316 11.6115 23.3859C11.8659 23.6402 12.2185 23.7865 12.5781 23.7865C12.9376 23.7865 13.2904 23.6402 13.5445 23.3859C13.7988 23.1316 13.9452 22.7788 13.9452 22.4193C13.9452 22.0583 13.799 21.707 13.5445 21.4527Z" fill="#06CAA6"/>
</svg>
