<svg width="70" height="70" viewBox="0 0 70 70" fill="none" xmlns="http://www.w3.org/2000/svg">
<path d="M67.8125 64.5312H66.7188C66.4287 64.5312 66.1505 64.6465 65.9454 64.8516C65.7402 65.0567 65.625 65.3349 65.625 65.625C65.625 65.9151 65.7402 66.1933 65.9454 66.3984C66.1505 66.6035 66.4287 66.7188 66.7188 66.7188H67.8125C68.1026 66.7188 68.3808 66.6035 68.5859 66.3984C68.791 66.1933 68.9062 65.9151 68.9062 65.625C68.9062 65.3349 68.791 65.0567 68.5859 64.8516C68.3808 64.6465 68.1026 64.5312 67.8125 64.5312Z" fill="#06CAA6"/>
<path d="M20.7812 43.75C21.0713 43.75 21.3495 43.6348 21.5546 43.4296C21.7598 43.2245 21.875 42.9463 21.875 42.6562V36.0938C21.875 35.8037 21.7598 35.5255 21.5546 35.3204C21.3495 35.1152 21.0713 35 20.7812 35H14.2188C13.9287 35 13.6505 35.1152 13.4454 35.3204C13.2402 35.5255 13.125 35.8037 13.125 36.0938V42.6562C13.125 42.9463 13.2402 43.2245 13.4454 43.4296C13.6505 43.6348 13.9287 43.75 14.2188 43.75H20.7812ZM15.3125 37.1875H19.6875V41.5625H15.3125V37.1875Z" fill="#06CAA6"/>
<path d="M25.1562 43.75H31.7188C32.0088 43.75 32.287 43.6348 32.4921 43.4296C32.6973 43.2245 32.8125 42.9463 32.8125 42.6562V36.0938C32.8125 35.8037 32.6973 35.5255 32.4921 35.3204C32.287 35.1152 32.0088 35 31.7188 35H25.1562C24.8662 35 24.588 35.1152 24.3829 35.3204C24.1777 35.5255 24.0625 35.8037 24.0625 36.0938V42.6562C24.0625 42.9463 24.1777 43.2245 24.3829 43.4296C24.588 43.6348 24.8662 43.75 25.1562 43.75ZM26.25 37.1875H30.625V41.5625H26.25V37.1875Z" fill="#06CAA6"/>
<path d="M14.2188 32.8125H20.7812C21.0713 32.8125 21.3495 32.6973 21.5546 32.4921C21.7598 32.287 21.875 32.0088 21.875 31.7188V25.1562C21.875 24.8662 21.7598 24.588 21.5546 24.3829C21.3495 24.1777 21.0713 24.0625 20.7812 24.0625H14.2188C13.9287 24.0625 13.6505 24.1777 13.4454 24.3829C13.2402 24.588 13.125 24.8662 13.125 25.1562V31.7188C13.125 32.0088 13.2402 32.287 13.4454 32.4921C13.6505 32.6973 13.9287 32.8125 14.2188 32.8125ZM15.3125 26.25H19.6875V30.625H15.3125V26.25Z" fill="#06CAA6"/>
<path d="M25.1562 32.8125H31.7188C32.0088 32.8125 32.287 32.6973 32.4921 32.4921C32.6973 32.287 32.8125 32.0088 32.8125 31.7188V25.1562C32.8125 24.8662 32.6973 24.588 32.4921 24.3829C32.287 24.1777 32.0088 24.0625 31.7188 24.0625H25.1562C24.8662 24.0625 24.588 24.1777 24.3829 24.3829C24.1777 24.588 24.0625 24.8662 24.0625 25.1562V31.7188C24.0625 32.0088 24.1777 32.287 24.3829 32.4921C24.588 32.6973 24.8662 32.8125 25.1562 32.8125ZM26.25 26.25H30.625V30.625H26.25V26.25Z" fill="#06CAA6"/>
<path d="M14.2188 21.875H20.7812C21.0713 21.875 21.3495 21.7598 21.5546 21.5546C21.7598 21.3495 21.875 21.0713 21.875 20.7812V14.2188C21.875 13.9287 21.7598 13.6505 21.5546 13.4454C21.3495 13.2402 21.0713 13.125 20.7812 13.125H14.2188C13.9287 13.125 13.6505 13.2402 13.4454 13.4454C13.2402 13.6505 13.125 13.9287 13.125 14.2188V20.7812C13.125 21.0713 13.2402 21.3495 13.4454 21.5546C13.6505 21.7598 13.9287 21.875 14.2188 21.875ZM15.3125 15.3125H19.6875V19.6875H15.3125V15.3125Z" fill="#06CAA6"/>
<path d="M25.1562 21.875H31.7188C32.0088 21.875 32.287 21.7598 32.4921 21.5546C32.6973 21.3495 32.8125 21.0713 32.8125 20.7812V14.2188C32.8125 13.9287 32.6973 13.6505 32.4921 13.4454C32.287 13.2402 32.0088 13.125 31.7188 13.125H25.1562C24.8662 13.125 24.588 13.2402 24.3829 13.4454C24.1777 13.6505 24.0625 13.9287 24.0625 14.2188V20.7812C24.0625 21.0713 24.1777 21.3495 24.3829 21.5546C24.588 21.7598 24.8662 21.875 25.1562 21.875ZM26.25 15.3125H30.625V19.6875H26.25V15.3125Z" fill="#06CAA6"/>
<path d="M47.0312 51.4062C47.3213 51.4062 47.5995 51.291 47.8046 51.0859C48.0098 50.8808 48.125 50.6026 48.125 50.3125V49.2188C48.125 48.9287 48.0098 48.6505 47.8046 48.4454C47.5995 48.2402 47.3213 48.125 47.0312 48.125C46.7412 48.125 46.463 48.2402 46.2579 48.4454C46.0527 48.6505 45.9375 48.9287 45.9375 49.2188V50.3125C45.9375 50.6026 46.0527 50.8808 46.2579 51.0859C46.463 51.291 46.7412 51.4062 47.0312 51.4062Z" fill="#06CAA6"/>
<path d="M66.7188 56.875C66.717 55.4585 66.2536 54.0811 65.3986 52.9517C65.6698 52.0431 65.6979 51.0792 65.4798 50.1564C65.2618 49.2335 64.8053 48.3841 64.1561 47.693C64.404 47.141 64.5318 46.5426 64.5312 45.9375C64.5312 44.7772 64.0703 43.6644 63.2498 42.8439C62.4294 42.0234 61.3166 41.5625 60.1562 41.5625C58.9959 41.5625 57.8831 42.0234 57.0627 42.8439C56.2422 43.6644 55.7812 44.7772 55.7812 45.9375C55.7814 46.5408 55.9093 47.1372 56.1564 47.6875C55.5072 48.3789 55.0507 49.2285 54.8327 50.1515C54.6147 51.0745 54.6427 52.0386 54.9139 52.9473C54.2347 53.8448 53.7989 54.9025 53.6485 56.0179C53.4982 57.1333 53.6385 58.2686 54.0558 59.3139C54.4731 60.3592 55.1532 61.279 56.0304 61.9841C56.9076 62.6893 57.952 63.1561 59.0625 63.3391V64.5312H48.125V58.9641C49.2352 58.7807 50.2792 58.3138 51.156 57.6086C52.0328 56.9034 52.7127 55.9839 53.13 54.9389C53.5472 53.8939 53.6876 52.7589 53.5376 51.6437C53.3875 50.5285 52.9522 49.471 52.2736 48.5734C52.5453 47.6645 52.5735 46.7002 52.3554 45.7769C52.1374 44.8537 51.6807 44.0038 51.0311 43.3125C51.2782 42.7622 51.4061 42.1658 51.4062 41.5625C51.4063 40.4022 50.9453 39.2894 50.1248 38.4689C49.3044 37.6484 48.1916 37.1875 47.0312 37.1875C45.8709 37.1875 44.7581 37.6484 43.9377 38.4689C43.1172 39.2894 42.6562 40.4022 42.6562 41.5625C42.6564 42.1658 42.7843 42.7622 43.0314 43.3125C42.3822 44.0039 41.9257 44.8535 41.7077 45.7765C41.4897 46.6995 41.5177 47.6636 41.7889 48.5723C41.1097 49.4698 40.6739 50.5275 40.5235 51.6429C40.3732 52.7583 40.5135 53.8936 40.9308 54.9389C41.3481 55.9842 42.0282 56.904 42.9054 57.6091C43.7826 58.3143 44.827 58.7811 45.9375 58.9641V60.3006L44.357 59.2462C44.1157 59.0853 43.8203 59.0267 43.5358 59.0835C43.2513 59.1404 43.001 59.3079 42.84 59.5492C42.679 59.7906 42.6205 60.086 42.6773 60.3705C42.7341 60.655 42.9016 60.9053 43.143 61.0663L45.9375 62.9289V64.5312H41.5625V61.25C41.5625 60.9599 41.4473 60.6817 41.2421 60.4766C41.037 60.2715 40.7588 60.1562 40.4688 60.1562H37.1875V9.84375H40.4688C40.7588 9.84375 41.037 9.72852 41.2421 9.5234C41.4473 9.31828 41.5625 9.04008 41.5625 8.75V4.375C41.5625 4.08492 41.4473 3.80672 41.2421 3.6016C41.037 3.39648 40.7588 3.28125 40.4688 3.28125H5.46875C5.17867 3.28125 4.90047 3.39648 4.69535 3.6016C4.49023 3.80672 4.375 4.08492 4.375 4.375V8.75C4.375 9.04008 4.49023 9.31828 4.69535 9.5234C4.90047 9.72852 5.17867 9.84375 5.46875 9.84375H8.75V60.1562H5.46875C5.17867 60.1562 4.90047 60.2715 4.69535 60.4766C4.49023 60.6817 4.375 60.9599 4.375 61.25V64.5312H2.1875C1.89742 64.5312 1.61922 64.6465 1.4141 64.8516C1.20898 65.0567 1.09375 65.3349 1.09375 65.625C1.09375 65.9151 1.20898 66.1933 1.4141 66.3984C1.61922 66.6035 1.89742 66.7188 2.1875 66.7188H63.4375C63.7276 66.7188 64.0058 66.6035 64.2109 66.3984C64.416 66.1933 64.5312 65.9151 64.5312 65.625C64.5312 65.3349 64.416 65.0567 64.2109 64.8516C64.0058 64.6465 63.7276 64.5312 63.4375 64.5312H61.25V63.3391C62.7775 63.0795 64.164 62.2885 65.1648 61.1057C66.1655 59.9228 66.7159 58.4244 66.7188 56.875ZM42.6562 52.5C42.6598 51.3989 43.0808 50.34 43.8342 49.537C43.9794 49.3803 44.0755 49.1845 44.1107 48.9739C44.1459 48.7632 44.1186 48.5468 44.0322 48.3514C43.7299 47.6744 43.6689 46.9142 43.8594 46.1976C44.0499 45.481 44.4803 44.8515 45.0789 44.4139C45.311 44.2399 45.4644 43.9808 45.5054 43.6936C45.5464 43.4064 45.4717 43.1147 45.2977 42.8827C45.0044 42.505 44.8448 42.0407 44.8438 41.5625C44.8437 40.9823 45.0742 40.4259 45.4845 40.0157C45.8947 39.6055 46.4511 39.375 47.0312 39.375C47.6114 39.375 48.1678 39.6055 48.578 40.0157C48.9883 40.4259 49.2188 40.9823 49.2188 41.5625C49.2164 42.0379 49.0572 42.4992 48.7659 42.875C48.5919 43.1071 48.5172 43.3988 48.5582 43.6859C48.5992 43.9731 48.7526 44.2322 48.9847 44.4062C49.5836 44.8436 50.0142 45.4732 50.2045 46.1899C50.3948 46.9066 50.3333 47.6669 50.0303 48.3438C49.9441 48.5392 49.917 48.7557 49.9523 48.9664C49.9877 49.1771 50.084 49.3728 50.2294 49.5294C50.7492 50.0803 51.1157 50.7577 51.2927 51.4942C51.4696 52.2307 51.4508 53.0007 51.238 53.7277C51.0253 54.4546 50.626 55.1133 50.0799 55.6382C49.5338 56.163 48.8598 56.5359 48.125 56.7197V53.5938C48.125 53.3037 48.0098 53.0255 47.8046 52.8204C47.5995 52.6152 47.3213 52.5 47.0312 52.5C46.7412 52.5 46.463 52.6152 46.2579 52.8204C46.0527 53.0255 45.9375 53.3037 45.9375 53.5938V56.7197C45.0011 56.4779 44.1712 55.9327 43.5775 55.1692C42.9838 54.4058 42.6599 53.4671 42.6562 52.5ZM6.5625 5.46875H39.375V7.65625H6.5625V5.46875ZM10.9375 9.84375H35V60.1562H28.4375V48.125C28.4375 47.8349 28.3223 47.5567 28.1171 47.3516C27.912 47.1465 27.6338 47.0312 27.3438 47.0312H18.5938C18.3037 47.0312 18.0255 47.1465 17.8204 47.3516C17.6152 47.5567 17.5 47.8349 17.5 48.125V60.1562H10.9375V9.84375ZM26.25 60.1562H19.6875V49.2188H26.25V60.1562ZM6.5625 64.5312V62.3438H39.375V64.5312H6.5625ZM55.7812 56.875C55.7848 55.7739 56.2058 54.715 56.9592 53.912C57.1044 53.7553 57.2005 53.5595 57.2357 53.3489C57.2709 53.1382 57.2436 52.9218 57.1572 52.7264C56.8549 52.0494 56.7939 51.2892 56.9844 50.5726C57.1749 49.856 57.6053 49.2265 58.2039 48.7889C58.436 48.6149 58.5894 48.3558 58.6304 48.0686C58.6714 47.7814 58.5967 47.4897 58.4227 47.2577C58.1294 46.88 57.9698 46.4157 57.9688 45.9375C57.9687 45.3573 58.1992 44.8009 58.6095 44.3907C59.0197 43.9805 59.5761 43.75 60.1562 43.75C60.7364 43.75 61.2928 43.9805 61.703 44.3907C62.1133 44.8009 62.3438 45.3573 62.3438 45.9375C62.3414 46.4129 62.1822 46.8742 61.8909 47.25C61.7169 47.4821 61.6422 47.7738 61.6832 48.0609C61.7242 48.3481 61.8776 48.6072 62.1097 48.7812C62.7086 49.2186 63.1392 49.8482 63.3295 50.5649C63.5198 51.2816 63.4583 52.0419 63.1553 52.7188C63.0691 52.9142 63.042 53.1307 63.0773 53.3414C63.1127 53.5521 63.209 53.7478 63.3544 53.9044C63.8742 54.4553 64.2407 55.1327 64.4177 55.8692C64.5946 56.6057 64.5758 57.3757 64.363 58.1027C64.1503 58.8296 63.751 59.4883 63.2049 60.0132C62.6588 60.538 61.9848 60.9109 61.25 61.0947V57.9688C61.25 57.6787 61.1348 57.4005 60.9296 57.1954C60.7245 56.9902 60.4463 56.875 60.1562 56.875C59.8662 56.875 59.588 56.9902 59.3829 57.1954C59.1777 57.4005 59.0625 57.6787 59.0625 57.9688V61.0947C58.1261 60.8529 57.2962 60.3077 56.7025 59.5442C56.1088 58.7808 55.7849 57.8421 55.7812 56.875Z" fill="#06CAA6"/>
<path d="M47.0313 29.5313H54.6875C54.8812 29.5316 55.071 29.4766 55.2344 29.3727C56.0817 29.1205 56.8156 28.583 57.3115 27.8512C57.8074 27.1194 58.0348 26.2386 57.9551 25.3582C57.8753 24.4779 57.4934 23.6522 56.874 23.0215C56.2547 22.3907 55.4362 21.9938 54.5574 21.898C54.3454 21.0515 53.8845 20.288 53.2342 19.7061C52.5839 19.1242 51.7741 18.7506 50.9094 18.6336C50.0447 18.5165 49.1647 18.6614 48.3831 19.0495C47.6015 19.4376 46.9543 20.0511 46.5249 20.8108C45.4162 20.9403 44.3989 21.4886 43.6813 22.3436C42.9637 23.1986 42.6 24.2955 42.6647 25.4099C42.7294 26.5242 43.2176 27.5717 44.0294 28.3379C44.8411 29.1041 45.9151 29.531 47.0313 29.5313V29.5313ZM46.993 22.9688L47.1549 22.9863C47.3941 23.004 47.6324 22.9418 47.8324 22.8093C48.0323 22.6769 48.1826 22.4817 48.2596 22.2545C48.4251 21.7693 48.7565 21.3579 49.1954 21.0929C49.6343 20.8279 50.1526 20.7261 50.6592 20.8056C51.1657 20.885 51.628 21.1405 51.9647 21.5272C52.3014 21.9139 52.491 22.4069 52.5 22.9195C52.5 22.9458 52.5 22.9731 52.4946 22.9939C52.4899 23.1587 52.5226 23.3224 52.5901 23.4728C52.6576 23.6231 52.7582 23.7563 52.8844 23.8623C53.0106 23.9684 53.1592 24.0445 53.3189 24.085C53.4787 24.1256 53.6456 24.1295 53.8071 24.0964C54.0451 24.0525 54.2899 24.0608 54.5244 24.1207C54.7589 24.1807 54.9776 24.2909 55.1654 24.4437C55.3531 24.5965 55.5054 24.7882 55.6118 25.0057C55.7181 25.2232 55.776 25.4611 55.7813 25.7031C55.7814 26.0813 55.6508 26.448 55.4116 26.741C55.1724 27.034 54.8394 27.2353 54.4688 27.3109C54.4274 27.3197 54.3865 27.3307 54.3463 27.3438H47.0313C46.4511 27.3488 45.8927 27.1232 45.4789 26.7166C45.0651 26.3099 44.8297 25.7556 44.8246 25.1754C44.8196 24.5952 45.0452 24.0368 45.4518 23.623C45.8585 23.2092 46.4129 22.9738 46.993 22.9688Z" fill="#06CAA6"/>
</svg>
