<svg width="70" height="70" viewBox="0 0 70 70" fill="none" xmlns="http://www.w3.org/2000/svg">
<path d="M35 11.413C35.837 11.413 36.5218 10.7283 36.5218 9.89131V9.13044C36.5218 8.29349 35.837 7.6087 35 7.6087C34.1631 7.6087 33.4783 8.29349 33.4783 9.13044V9.89131C33.4783 10.7283 34.1631 11.413 35 11.413Z" fill="#06CAA6"/>
<path d="M35 58.587C34.1631 58.587 33.4783 59.2718 33.4783 60.1087V60.8696C33.4783 61.7065 34.1631 62.3913 35 62.3913C35.837 62.3913 36.5218 61.7065 36.5218 60.8696V60.1087C36.5218 59.2718 35.837 58.587 35 58.587Z" fill="#06CAA6"/>
<path d="M9.89131 33.4783H9.13044C8.29349 33.4783 7.6087 34.1631 7.6087 35C7.6087 35.837 8.29349 36.5218 9.13044 36.5218H9.89131C10.7283 36.5218 11.413 35.837 11.413 35C11.413 34.1631 10.7283 33.4783 9.89131 33.4783Z" fill="#06CAA6"/>
<path d="M60.8696 33.4783H60.1087C59.2718 33.4783 58.587 34.1631 58.587 35C58.587 35.837 59.2718 36.5218 60.1087 36.5218H60.8696C61.7065 36.5218 62.3913 35.837 62.3913 35C62.3913 34.1631 61.7065 33.4783 60.8696 33.4783Z" fill="#06CAA6"/>
<path d="M17.8044 15.6739C17.1957 15.0652 16.2826 15.0652 15.6739 15.6739C15.0652 16.2826 15.0652 17.1957 15.6739 17.8044L16.2065 18.337C16.5109 18.6413 16.8913 18.7935 17.2718 18.7935C17.6522 18.7935 18.0326 18.6413 18.337 18.337C18.9457 17.7283 18.9457 16.8152 18.337 16.2065L17.8044 15.6739Z" fill="#06CAA6"/>
<path d="M16.2065 51.6631L15.6739 52.1957C15.0652 52.8044 15.0652 53.7174 15.6739 54.3261C15.9783 54.6305 16.3587 54.7826 16.7391 54.7826C17.1196 54.7826 17.5 54.6305 17.8044 54.3261L18.337 53.7935C18.9457 53.1848 18.9457 52.2718 18.337 51.6631C17.7283 51.0544 16.8152 51.0544 16.2065 51.6631Z" fill="#06CAA6"/>
<path d="M52.1957 15.6739L51.6631 16.2065C51.0544 16.8152 51.0544 17.7283 51.6631 18.337C51.9674 18.6413 52.3479 18.7935 52.7283 18.7935C53.1087 18.7935 53.4892 18.6413 53.7935 18.337L54.3261 17.8044C54.9348 17.1957 54.9348 16.2826 54.3261 15.6739C53.7174 15.0652 52.8044 15.0652 52.1957 15.6739Z" fill="#06CAA6"/>
<path d="M36.5217 34.3913V20.5435C36.5217 19.7065 35.837 19.0217 35 19.0217C34.1631 19.0217 33.4783 19.7065 33.4783 20.5435V35C33.4783 35.3804 33.6304 35.7609 33.9348 36.0652L50.5978 52.7283C50.9022 53.0326 51.2826 53.1848 51.663 53.1848C52.0435 53.1848 52.4239 53.0326 52.7283 52.7283C53.3369 52.1196 53.3369 51.2065 52.7283 50.5978L36.5217 34.3913Z" fill="#06CAA6"/>
<path d="M35 0C15.6739 0 0 15.6739 0 35C0 54.3261 15.6739 70 35 70C54.3261 70 70 54.3261 70 35C70 15.6739 54.3261 0 35 0ZM35 66.9565C17.3478 66.9565 3.04348 52.6522 3.04348 35C3.04348 17.3478 17.3478 3.04348 35 3.04348C52.6522 3.04348 66.9565 17.3478 66.9565 35C66.9565 52.6522 52.6522 66.9565 35 66.9565Z" fill="#06CAA6"/>
</svg>
