<svg width="791" height="135" viewBox="0 0 791 135" fill="none" xmlns="http://www.w3.org/2000/svg">
<path d="M64.2438 102.504C64.2438 103.309 63.9703 103.926 63.4234 104.355C62.8766 104.785 62.0816 105 61.0387 105H57.8219V96.4102H60.8805C61.7945 96.4102 62.5133 96.6055 63.0367 96.9961C63.5602 97.3867 63.8219 97.9219 63.8219 98.6016C63.8219 99.4297 63.4098 100.043 62.5855 100.441C63.1402 100.582 63.5543 100.842 63.8277 101.221C64.1051 101.596 64.2438 102.023 64.2438 102.504ZM58.9586 100.008H60.8688C61.4977 100.008 61.9605 99.9082 62.2574 99.709C62.5543 99.5059 62.7027 99.1699 62.7027 98.7012C62.7027 98.2793 62.5582 97.9629 62.2691 97.752C61.9801 97.5371 61.4781 97.4297 60.7633 97.4297H58.9586V100.008ZM58.9586 103.98H61.027C62.3863 103.98 63.066 103.488 63.066 102.504C63.066 101.992 62.9078 101.619 62.5914 101.385C62.2789 101.146 61.7086 101.027 60.8805 101.027H58.9586V103.98ZM70.3368 103.365V101.988H69.5809C67.9794 101.988 67.1786 102.424 67.1786 103.295C67.1786 103.611 67.2958 103.855 67.5302 104.027C67.7645 104.195 68.0809 104.279 68.4794 104.279C68.8427 104.279 69.1942 104.197 69.5341 104.033C69.8739 103.869 70.1415 103.646 70.3368 103.365ZM70.3368 104.361C69.7743 104.885 69.0497 105.146 68.163 105.146C67.5458 105.146 67.038 104.98 66.6395 104.648C66.2411 104.312 66.0419 103.881 66.0419 103.354C66.0419 101.9 67.2938 101.174 69.7977 101.174H70.3368C70.3368 100.729 70.3134 100.406 70.2665 100.207C70.2196 100.004 70.0888 99.8359 69.8739 99.7031C69.6591 99.5703 69.3173 99.5039 68.8485 99.5039C67.8641 99.5039 67.3563 99.8555 67.3251 100.559H66.2235C66.3055 99.2812 67.2001 98.6426 68.9071 98.6426C69.704 98.6426 70.3251 98.8008 70.7704 99.1172C71.2157 99.4336 71.4384 100.055 71.4384 100.98V105H70.3368V104.361ZM76.3185 105.146C75.4357 105.146 74.7287 104.863 74.1974 104.297C73.6701 103.727 73.4064 102.926 73.4064 101.895C73.4064 100.859 73.6701 100.059 74.1974 99.4922C74.7287 98.9258 75.4357 98.6426 76.3185 98.6426C76.9982 98.6426 77.5646 98.8145 78.0177 99.1582C78.4748 99.502 78.7443 99.998 78.8263 100.646H77.6896C77.674 100.275 77.5334 99.9922 77.2677 99.7969C77.006 99.6016 76.6896 99.5039 76.3185 99.5039C75.7912 99.5039 75.3634 99.7051 75.0353 100.107C74.7072 100.506 74.5431 101.102 74.5431 101.895C74.5431 102.684 74.7072 103.279 75.0353 103.682C75.3634 104.08 75.7912 104.279 76.3185 104.279C76.6896 104.279 77.006 104.182 77.2677 103.986C77.5334 103.791 77.674 103.51 77.6896 103.143H78.8263C78.7443 103.791 78.4748 104.287 78.0177 104.631C77.5646 104.975 76.9982 105.146 76.3185 105.146ZM85.6577 105H84.3393L82.3178 101.842L81.6264 102.527V105H80.519V96.4102H81.6264V101.279L84.0229 98.7832H85.4174L83.062 101.098L85.6577 105ZM92.278 104.52C92.278 106.52 91.3757 107.52 89.571 107.52C88.7898 107.52 88.1726 107.35 87.7195 107.01C87.2702 106.67 87.0456 106.213 87.0456 105.639H88.1882C88.1882 106.318 88.6452 106.658 89.5593 106.658C90.0749 106.658 90.4734 106.516 90.7546 106.23C91.0359 105.949 91.1765 105.395 91.1765 104.566V104.256C90.6843 104.85 90.0925 105.146 89.4011 105.146C88.5886 105.146 87.9597 104.857 87.5144 104.279C87.0691 103.701 86.8464 102.922 86.8464 101.941C86.8464 100.926 87.0945 100.123 87.5905 99.5332C88.0905 98.9395 88.7175 98.6426 89.4714 98.6426C90.1433 98.6426 90.7116 98.8496 91.1765 99.2637V98.7832H92.278V104.52ZM91.1765 103.213V100.26C90.6999 99.7559 90.155 99.5039 89.5417 99.5039C89.0691 99.5039 88.6902 99.709 88.405 100.119C88.1238 100.525 87.9831 101.133 87.9831 101.941C87.9831 102.707 88.1159 103.289 88.3816 103.688C88.6511 104.082 89.0222 104.279 89.4948 104.279C90.112 104.279 90.6726 103.924 91.1765 103.213ZM97.8672 99.791C97.7109 99.7441 97.4863 99.7207 97.1934 99.7207C96.6309 99.7207 96.1484 100.016 95.7461 100.605V105H94.6387V98.7832H95.7461V99.6504C96.2109 98.9785 96.75 98.6426 97.3633 98.6426C97.5195 98.6426 97.6875 98.6582 97.8672 98.6895V99.791ZM101.874 98.6426C102.761 98.6426 103.468 98.9258 103.995 99.4922C104.527 100.059 104.792 100.859 104.792 101.895C104.792 102.926 104.527 103.727 103.995 104.297C103.468 104.863 102.761 105.146 101.874 105.146C100.991 105.146 100.284 104.863 99.7532 104.297C99.2259 103.727 98.9622 102.926 98.9622 101.895C98.9622 100.859 99.2259 100.059 99.7532 99.4922C100.284 98.9258 100.991 98.6426 101.874 98.6426ZM101.874 104.279C102.402 104.279 102.829 104.08 103.158 103.682C103.486 103.279 103.65 102.684 103.65 101.895C103.65 101.102 103.486 100.506 103.158 100.107C102.829 99.7051 102.402 99.5039 101.874 99.5039C101.347 99.5039 100.919 99.7051 100.591 100.107C100.263 100.506 100.099 101.102 100.099 101.895C100.099 102.684 100.263 103.279 100.591 103.682C100.919 104.08 101.347 104.279 101.874 104.279ZM110.692 104.209C110.141 104.834 109.522 105.146 108.835 105.146C107.432 105.146 106.731 104.381 106.731 102.85V98.7832H107.838V102.803C107.838 103.311 107.928 103.676 108.108 103.898C108.288 104.121 108.585 104.232 108.999 104.232C109.616 104.232 110.18 103.9 110.692 103.236V98.7832H111.794V105H110.692V104.209ZM115.262 99.5742C115.812 98.9531 116.431 98.6426 117.119 98.6426C118.521 98.6426 119.223 99.4062 119.223 100.934V105H118.115V100.98C118.115 100.473 118.023 100.107 117.84 99.8848C117.66 99.6621 117.363 99.5508 116.949 99.5508C116.387 99.5508 115.824 99.8828 115.262 100.547V105H114.154V98.7832H115.262V99.5742ZM125.491 103.213V100.26C125.015 99.7559 124.47 99.5039 123.857 99.5039C123.384 99.5039 123.005 99.709 122.72 100.119C122.439 100.525 122.298 101.133 122.298 101.941C122.298 102.707 122.431 103.289 122.696 103.688C122.966 104.082 123.337 104.279 123.81 104.279C124.427 104.279 124.987 103.924 125.491 103.213ZM125.491 104.256C124.999 104.85 124.407 105.146 123.716 105.146C122.903 105.146 122.275 104.857 121.829 104.279C121.384 103.701 121.161 102.922 121.161 101.941C121.161 100.926 121.409 100.123 121.905 99.5332C122.405 98.9395 123.032 98.6426 123.786 98.6426C124.458 98.6426 125.026 98.8496 125.491 99.2637V96.4102H126.593V105H125.491V104.256ZM72.4077 119H71.1773L70.3687 116.709C70.2241 116.303 69.9839 115.971 69.648 115.713C69.312 115.455 68.9253 115.326 68.4878 115.326H66.3843V119H65.2476V110.41H69.0503C69.7144 110.41 70.2573 110.475 70.6792 110.604C71.1011 110.732 71.4448 111.004 71.7105 111.418C71.9761 111.832 72.1089 112.299 72.1089 112.818C72.1089 113.412 71.937 113.908 71.5933 114.307C71.2495 114.705 70.7788 114.965 70.1812 115.086V115.109C70.7788 115.301 71.2339 115.818 71.5464 116.662L72.4077 119ZM66.3843 114.307H68.9214C69.6284 114.307 70.1402 114.195 70.4566 113.973C70.7769 113.75 70.937 113.365 70.937 112.818C70.937 111.842 70.3237 111.354 69.0972 111.354H66.3843V114.307ZM77.1355 119.146C76.2215 119.146 75.4871 118.861 74.9324 118.291C74.3777 117.717 74.1004 116.918 74.1004 115.895C74.1004 114.879 74.368 114.084 74.9031 113.51C75.4422 112.932 76.1453 112.643 77.0125 112.643C77.8992 112.643 78.6063 112.926 79.1336 113.492C79.6648 114.059 79.9305 114.859 79.9305 115.895V116.158H75.2488C75.2957 116.877 75.493 117.41 75.8406 117.758C76.1922 118.105 76.6238 118.279 77.1355 118.279C77.5223 118.279 77.8699 118.182 78.1785 117.986C78.491 117.787 78.6551 117.506 78.6707 117.143H79.8133C79.7273 117.783 79.4363 118.277 78.9402 118.625C78.448 118.973 77.8465 119.146 77.1355 119.146ZM78.7645 115.291C78.6746 114.693 78.4734 114.246 78.1609 113.949C77.8484 113.652 77.4656 113.504 77.0125 113.504C76.5711 113.504 76.1922 113.652 75.8758 113.949C75.5594 114.242 75.3582 114.689 75.2723 115.291H78.7645ZM84.1134 119.146C82.4141 119.146 81.5255 118.479 81.4473 117.143H82.5548C82.5626 117.9 83.0782 118.279 84.1016 118.279C84.5587 118.279 84.9063 118.186 85.1446 117.998C85.3868 117.807 85.5079 117.568 85.5079 117.283C85.5079 117.002 85.3907 116.805 85.1563 116.691C84.922 116.574 84.4376 116.424 83.7032 116.24C82.9727 116.057 82.4376 115.852 82.0977 115.625C81.7618 115.398 81.5938 115 81.5938 114.43C81.5938 113.914 81.8028 113.488 82.2208 113.152C82.6427 112.812 83.2052 112.643 83.9083 112.643C85.5372 112.643 86.3692 113.223 86.4044 114.383H85.3028C85.2637 113.797 84.8243 113.504 83.9845 113.504C83.6134 113.504 83.3048 113.574 83.0587 113.715C82.8165 113.855 82.6954 114.061 82.6954 114.33C82.6954 114.572 82.7891 114.748 82.9766 114.857C83.1641 114.963 83.6329 115.107 84.3829 115.291C85.1368 115.471 85.6954 115.682 86.0587 115.924C86.4259 116.166 86.6095 116.584 86.6095 117.178C86.6095 117.744 86.3829 118.215 85.9298 118.59C85.4805 118.961 84.8751 119.146 84.1134 119.146ZM91.2552 119.146C90.3412 119.146 89.6068 118.861 89.0521 118.291C88.4974 117.717 88.2201 116.918 88.2201 115.895C88.2201 114.879 88.4877 114.084 89.0228 113.51C89.5619 112.932 90.265 112.643 91.1322 112.643C92.0189 112.643 92.7259 112.926 93.2533 113.492C93.7845 114.059 94.0502 114.859 94.0502 115.895V116.158H89.3685C89.4154 116.877 89.6127 117.41 89.9603 117.758C90.3119 118.105 90.7435 118.279 91.2552 118.279C91.642 118.279 91.9896 118.182 92.2982 117.986C92.6107 117.787 92.7748 117.506 92.7904 117.143H93.933C93.847 117.783 93.556 118.277 93.0599 118.625C92.5677 118.973 91.9662 119.146 91.2552 119.146ZM92.8841 115.291C92.7943 114.693 92.5931 114.246 92.2806 113.949C91.9681 113.652 91.5853 113.504 91.1322 113.504C90.6908 113.504 90.3119 113.652 89.9955 113.949C89.6791 114.242 89.4779 114.689 89.392 115.291H92.8841ZM99.9498 117.365V115.988H99.194C97.5924 115.988 96.7916 116.424 96.7916 117.295C96.7916 117.611 96.9088 117.855 97.1432 118.027C97.3776 118.195 97.694 118.279 98.0924 118.279C98.4557 118.279 98.8073 118.197 99.1471 118.033C99.487 117.869 99.7545 117.646 99.9498 117.365ZM99.9498 118.361C99.3873 118.885 98.6627 119.146 97.776 119.146C97.1588 119.146 96.651 118.98 96.2526 118.648C95.8541 118.312 95.6549 117.881 95.6549 117.354C95.6549 115.9 96.9069 115.174 99.4108 115.174H99.9498C99.9498 114.729 99.9264 114.406 99.8795 114.207C99.8327 114.004 99.7018 113.836 99.487 113.703C99.2721 113.57 98.9303 113.504 98.4616 113.504C97.4772 113.504 96.9694 113.855 96.9381 114.559H95.8366C95.9186 113.281 96.8131 112.643 98.5202 112.643C99.317 112.643 99.9381 112.801 100.383 113.117C100.829 113.434 101.051 114.055 101.051 114.98V119H99.9498V118.361ZM106.641 113.791C106.484 113.744 106.26 113.721 105.967 113.721C105.404 113.721 104.922 114.016 104.519 114.605V119H103.412V112.783H104.519V113.65C104.984 112.979 105.523 112.643 106.137 112.643C106.293 112.643 106.461 112.658 106.641 112.689V113.791ZM110.648 119.146C109.765 119.146 109.058 118.863 108.527 118.297C107.999 117.727 107.736 116.926 107.736 115.895C107.736 114.859 107.999 114.059 108.527 113.492C109.058 112.926 109.765 112.643 110.648 112.643C111.327 112.643 111.894 112.814 112.347 113.158C112.804 113.502 113.073 113.998 113.155 114.646H112.019C112.003 114.275 111.863 113.992 111.597 113.797C111.335 113.602 111.019 113.504 110.648 113.504C110.12 113.504 109.693 113.705 109.364 114.107C109.036 114.506 108.872 115.102 108.872 115.895C108.872 116.684 109.036 117.279 109.364 117.682C109.693 118.08 110.12 118.279 110.648 118.279C111.019 118.279 111.335 118.182 111.597 117.986C111.863 117.791 112.003 117.51 112.019 117.143H113.155C113.073 117.791 112.804 118.287 112.347 118.631C111.894 118.975 111.327 119.146 110.648 119.146ZM115.956 113.574C116.506 112.953 117.125 112.643 117.813 112.643C119.215 112.643 119.916 113.406 119.916 114.934V119H118.809V114.98C118.809 114.473 118.717 114.107 118.534 113.885C118.354 113.662 118.057 113.551 117.643 113.551C117.081 113.551 116.518 113.883 115.956 114.547V119H114.848V110.41H115.956V113.574Z" fill="black"/>
<path d="M126.101 65.0528L115.581 54.5314C118.123 51.1823 119.709 47.1678 120.116 42.9589C120.615 37.7935 119.328 32.5747 116.493 28.2633C116.182 27.7901 115.546 27.6587 115.073 27.9701C114.6 28.2814 114.469 28.9175 114.78 29.3907C120.145 37.5489 119.019 48.4901 112.104 55.4056C104.028 63.4827 90.8875 63.4827 82.8115 55.4056C74.7349 47.3286 74.7349 34.186 82.8115 26.1089C90.8875 18.0318 104.028 18.0318 112.102 26.1062L112.158 26.1628C112.557 26.5644 113.206 26.5671 113.608 26.1676C114.01 25.7687 114.012 25.1193 113.613 24.7177L113.554 24.6584C104.678 15.7818 90.237 15.7818 81.361 24.6584C81.0822 24.9372 80.8125 25.2213 80.5514 25.5107H58.0254C57.4593 25.5107 57 25.97 57 26.5361V31.0713C57 31.638 57.4593 32.0973 58.0254 32.0973C58.592 32.0973 59.0508 31.638 59.0508 31.0713V27.5621H78.9065C78.123 28.6627 77.449 29.8174 76.8845 31.0121H64.1094C63.5433 31.0121 63.084 31.4708 63.084 32.0375C63.084 32.6041 63.5433 33.0628 64.1094 33.0628H76.0359C75.7416 33.8864 75.4965 34.7232 75.3 35.5697H64.1094C63.5433 35.5697 63.084 36.0285 63.084 36.5951C63.084 37.1612 63.5433 37.6205 64.1094 37.6205H74.9208C74.806 38.452 74.7371 39.2889 74.7141 40.1268H64.1094C63.5433 40.1268 63.084 40.5861 63.084 41.1527C63.084 41.7188 63.5433 42.1781 64.1094 42.1781H74.7499C74.9347 45.1571 75.6989 48.1061 77.0453 50.8389H75.3208C74.7542 50.8389 74.2954 51.2982 74.2954 51.8648V82.2206C74.2954 82.7872 74.7542 83.2465 75.3208 83.2465H83.5239C84.0906 83.2465 84.5493 82.7872 84.5493 82.2206V59.512C85.4727 60.1481 86.4324 60.7088 87.4204 61.1932V82.2206C87.4204 82.7872 87.8797 83.2465 88.4458 83.2465H96.6489C97.2155 83.2465 97.6743 82.7872 97.6743 82.2206V63.5115C98.4738 63.5035 99.2722 63.4549 100.067 63.3641V79.2037C100.067 79.7704 100.526 80.2296 101.093 80.2296C101.659 80.2296 102.118 79.7704 102.118 79.2037V63.0341C105.359 62.3612 108.481 60.978 111.231 58.8839L121.749 69.4033C122.331 69.9843 123.103 70.3047 123.925 70.3047C124.747 70.3047 125.519 69.9843 126.101 69.4033C127.299 68.2048 127.3 66.2534 126.101 65.0528V65.0528ZM82.4985 81.1952H76.3462V52.8902H78.1935C79.0806 54.2985 80.1359 55.6305 81.361 56.8561C81.7306 57.2257 82.1108 57.5787 82.4985 57.9173V81.1952ZM89.4717 81.1952V62.0755C91.4605 62.8173 93.5327 63.2712 95.624 63.4389V81.1952H89.4717ZM124.651 67.9528C124.457 68.1466 124.199 68.2534 123.925 68.2534C123.651 68.2534 123.393 68.1466 123.2 67.9528L112.812 57.5643C113.064 57.3341 113.311 57.0991 113.554 56.8561C113.797 56.6137 114.033 56.3664 114.263 56.1138L124.65 66.5028C125.05 66.9028 125.051 67.5538 124.651 67.9528V67.9528Z" fill="black"/>
<path d="M101.093 82.5991C100.527 82.5991 100.067 83.0578 100.067 83.6245V85.9492H59.0508V35.5149C59.0508 34.9483 58.592 34.4895 58.0254 34.4895C57.4593 34.4895 57 34.9483 57 35.5149V86.9746C57 87.5412 57.4593 88 58.0254 88H101.093C101.66 88 102.118 87.5412 102.118 86.9746V83.6245C102.118 83.0578 101.66 82.5991 101.093 82.5991V82.5991Z" fill="black"/>
<path d="M61.4434 60.0677V82.2199C61.4434 82.786 61.9026 83.2453 62.4688 83.2453H70.6724C71.2385 83.2453 71.6978 82.786 71.6978 82.2199V60.0677C71.6978 59.5016 71.2385 59.0423 70.6724 59.0423H62.4688C61.9026 59.0423 61.4434 59.5016 61.4434 60.0677V60.0677ZM63.4941 61.0936H69.647V81.194H63.4941V61.0936Z" fill="black"/>
<path d="M71.7768 46.736C72.3435 46.736 72.8022 46.2767 72.8022 45.7101C72.8022 45.144 72.3435 44.6847 71.7768 44.6847H64.1094C63.5433 44.6847 63.084 45.144 63.084 45.7101C63.084 46.2767 63.5433 46.736 64.1094 46.736H71.7768Z" fill="black"/>
<path d="M97.4581 22.1C92.4678 22.1 87.7809 24.0386 84.2615 27.5586C80.7421 31.0785 78.8034 35.766 78.8034 40.7567C78.8034 45.7475 80.7421 50.4349 84.2615 53.9549C87.7815 57.4749 92.4678 59.4135 97.4581 59.4135C102.448 59.4135 107.135 57.4749 110.655 53.9549C114.174 50.4349 116.112 45.7475 116.112 40.7567C116.112 35.766 114.174 31.0785 110.655 27.5586C107.135 24.0386 102.448 22.1 97.4581 22.1V22.1ZM109.204 52.5044C106.072 55.6372 101.9 57.3622 97.4581 57.3622C93.0152 57.3622 88.8443 55.6372 85.712 52.5044C82.5792 49.3716 80.8542 45.1996 80.8542 40.7567C80.8542 36.3134 82.5792 32.1413 85.712 29.0085C88.95 25.77 93.2043 24.1502 97.4581 24.1502C101.712 24.1502 105.966 25.77 109.204 29.0085C112.336 32.1413 114.061 36.3134 114.061 40.7567C114.061 45.1996 112.336 49.3716 109.204 52.5044V52.5044Z" fill="black"/>
<path d="M664.882 105.41H668.087C668.79 105.41 669.378 105.477 669.85 105.609C670.327 105.738 670.704 106.021 670.981 106.459C671.259 106.893 671.397 107.379 671.397 107.918C671.397 108.785 671.122 109.443 670.571 109.893C670.02 110.342 669.224 110.566 668.181 110.566H666.018V114H664.882V105.41ZM666.018 109.547H668.192C668.923 109.547 669.442 109.41 669.751 109.137C670.063 108.863 670.22 108.469 670.22 107.953C670.22 107.609 670.134 107.305 669.962 107.039C669.79 106.773 669.571 106.605 669.306 106.535C669.044 106.465 668.665 106.43 668.169 106.43H666.018V109.547ZM676.688 108.791C676.531 108.744 676.307 108.721 676.014 108.721C675.451 108.721 674.969 109.016 674.567 109.605V114H673.459V107.783H674.567V108.65C675.031 107.979 675.57 107.643 676.184 107.643C676.34 107.643 676.508 107.658 676.688 107.689V108.791ZM680.695 107.643C681.581 107.643 682.289 107.926 682.816 108.492C683.347 109.059 683.613 109.859 683.613 110.895C683.613 111.926 683.347 112.727 682.816 113.297C682.289 113.863 681.581 114.146 680.695 114.146C679.812 114.146 679.105 113.863 678.574 113.297C678.046 112.727 677.783 111.926 677.783 110.895C677.783 109.859 678.046 109.059 678.574 108.492C679.105 107.926 679.812 107.643 680.695 107.643ZM680.695 113.279C681.222 113.279 681.65 113.08 681.978 112.682C682.306 112.279 682.47 111.684 682.47 110.895C682.47 110.102 682.306 109.506 681.978 109.107C681.65 108.705 681.222 108.504 680.695 108.504C680.167 108.504 679.74 108.705 679.412 109.107C679.083 109.506 678.919 110.102 678.919 110.895C678.919 111.684 679.083 112.279 679.412 112.682C679.74 113.08 680.167 113.279 680.695 113.279ZM687.989 114.012C687.747 114.059 687.483 114.082 687.198 114.082C686.745 114.082 686.413 114.002 686.202 113.842C685.991 113.678 685.86 113.469 685.809 113.215C685.759 112.961 685.733 112.615 685.733 112.178V108.65H684.966V107.783H685.733V106.236H686.835V107.783H687.842V108.65H686.835V112.236C686.835 112.662 686.887 112.934 686.993 113.051C687.102 113.164 687.251 113.221 687.438 113.221C687.63 113.221 687.813 113.205 687.989 113.174V114.012ZM692.154 107.643C693.041 107.643 693.748 107.926 694.275 108.492C694.807 109.059 695.072 109.859 695.072 110.895C695.072 111.926 694.807 112.727 694.275 113.297C693.748 113.863 693.041 114.146 692.154 114.146C691.271 114.146 690.564 113.863 690.033 113.297C689.506 112.727 689.242 111.926 689.242 110.895C689.242 109.859 689.506 109.059 690.033 108.492C690.564 107.926 691.271 107.643 692.154 107.643ZM692.154 113.279C692.682 113.279 693.109 113.08 693.438 112.682C693.766 112.279 693.93 111.684 693.93 110.895C693.93 110.102 693.766 109.506 693.438 109.107C693.109 108.705 692.682 108.504 692.154 108.504C691.627 108.504 691.199 108.705 690.871 109.107C690.543 109.506 690.379 110.102 690.379 110.895C690.379 111.684 690.543 112.279 690.871 112.682C691.199 113.08 691.627 113.279 692.154 113.279ZM699.449 114.012C699.206 114.059 698.943 114.082 698.657 114.082C698.204 114.082 697.872 114.002 697.661 113.842C697.45 113.678 697.32 113.469 697.269 113.215C697.218 112.961 697.193 112.615 697.193 112.178V108.65H696.425V107.783H697.193V106.236H698.294V107.783H699.302V108.65H698.294V112.236C698.294 112.662 698.347 112.934 698.452 113.051C698.562 113.164 698.71 113.221 698.898 113.221C699.089 113.221 699.273 113.205 699.449 113.174V114.012ZM701.446 115.5C701.993 115.5 702.44 115 702.788 114L700.438 107.783H701.633L703.28 112.646L704.926 107.783H706.122L703.772 114C703.545 114.594 703.352 115.051 703.192 115.371C703.036 115.695 702.829 115.967 702.571 116.186C702.317 116.408 702.004 116.52 701.633 116.52C701.356 116.52 701.118 116.492 700.919 116.438V115.418C701.09 115.473 701.266 115.5 701.446 115.5ZM708.922 108.527C709.414 107.938 710.006 107.643 710.697 107.643C711.51 107.643 712.139 107.932 712.584 108.51C713.029 109.084 713.252 109.861 713.252 110.842C713.252 111.861 713.002 112.668 712.502 113.262C712.006 113.852 711.379 114.146 710.621 114.146C709.949 114.146 709.383 113.938 708.922 113.52V116.391H707.814V107.783H708.922V108.527ZM708.922 112.523C709.394 113.027 709.937 113.279 710.551 113.279C711.027 113.279 711.406 113.076 711.687 112.67C711.969 112.26 712.109 111.65 712.109 110.842C712.109 110.076 711.976 109.496 711.711 109.102C711.445 108.703 711.074 108.504 710.598 108.504C709.984 108.504 709.426 108.859 708.922 109.57V112.523ZM717.857 114.146C716.943 114.146 716.208 113.861 715.653 113.291C715.099 112.717 714.821 111.918 714.821 110.895C714.821 109.879 715.089 109.084 715.624 108.51C716.163 107.932 716.866 107.643 717.734 107.643C718.62 107.643 719.327 107.926 719.855 108.492C720.386 109.059 720.651 109.859 720.651 110.895V111.158H715.97C716.017 111.877 716.214 112.41 716.562 112.758C716.913 113.105 717.345 113.279 717.857 113.279C718.243 113.279 718.591 113.182 718.9 112.986C719.212 112.787 719.376 112.506 719.392 112.143H720.534C720.448 112.783 720.157 113.277 719.661 113.625C719.169 113.973 718.568 114.146 717.857 114.146ZM719.485 110.291C719.396 109.693 719.194 109.246 718.882 108.949C718.569 108.652 718.187 108.504 717.734 108.504C717.292 108.504 716.913 108.652 716.597 108.949C716.28 109.242 716.079 109.689 715.993 110.291H719.485Z" fill="black"/>
<path d="M708.039 18H677.961C675.134 18 672.834 20.2999 672.834 23.127V82.873C672.834 85.7001 675.134 88 677.961 88H708.039C710.866 88 713.166 85.7001 713.166 82.873V23.127C713.166 20.2999 710.866 18 708.039 18ZM711.115 73.6445H682.062C681.496 73.6445 681.037 74.1036 681.037 74.6699C681.037 75.2362 681.496 75.6953 682.062 75.6953H711.115V82.873C711.115 84.5693 709.735 85.9492 708.039 85.9492H677.961C676.265 85.9492 674.885 84.5693 674.885 82.873V75.6953H677.961C678.527 75.6953 678.986 75.2362 678.986 74.6699C678.986 74.1036 678.527 73.6445 677.961 73.6445H674.885V28.2539H711.115V73.6445ZM711.115 26.2031H674.885V23.127C674.885 21.4307 676.265 20.0508 677.961 20.0508H708.039C709.735 20.0508 711.115 21.4307 711.115 23.127V26.2031Z" fill="black"/>
<path d="M697.102 22.1016H693C692.434 22.1016 691.975 22.5607 691.975 23.127C691.975 23.6932 692.434 24.1523 693 24.1523H697.102C697.668 24.1523 698.127 23.6932 698.127 23.127C698.127 22.5607 697.668 22.1016 697.102 22.1016Z" fill="black"/>
<path d="M693 77.7461C691.304 77.7461 689.924 79.126 689.924 80.8223C689.924 82.5185 691.304 83.8984 693 83.8984C694.696 83.8984 696.076 82.5185 696.076 80.8223C696.076 79.126 694.696 77.7461 693 77.7461ZM693 81.8477C692.435 81.8477 691.975 81.3877 691.975 80.8223C691.975 80.2568 692.435 79.7969 693 79.7969C693.565 79.7969 694.025 80.2568 694.025 80.8223C694.025 81.3877 693.565 81.8477 693 81.8477Z" fill="black"/>
<path d="M688.898 24.1523C689.465 24.1523 689.924 23.6933 689.924 23.127C689.924 22.5606 689.465 22.1016 688.898 22.1016C688.332 22.1016 687.873 22.5606 687.873 23.127C687.873 23.6933 688.332 24.1523 688.898 24.1523Z" fill="black"/>
<g clip-path="url(#clip0)">
<path d="M329 65.0093L312.598 47.5186V58.8565H306C306.694 56.8904 307.5 54.6048 307.5 52.5C307.5 42.3221 300.215 34.2454 290.037 34.2454C279.859 34.2454 271.579 42.5258 271.579 52.7038C271.579 54.8603 271.952 56.9311 272.635 58.8565H259V71.1621H312.598V82.5L329 65.0093ZM261.5 68.7201V61.2201H273.5C274.5 63.7201 277 67.2201 280.5 68.7201H261.5ZM287.5 68.7201C279.584 68.7201 274 60.6199 274 52.7038C274 44.7876 280.5 36 290.037 36.5C297.953 36.5 305.5 43.2391 305.5 52.5C305.5 54.636 304.407 56.9443 303.5 58.8565H296C298 57.5 299 55.0105 299 52.7038C299 48 296.051 43.7201 290.037 43.7201C284.5 43.7201 281 47.5186 281 52.2201C281 57.8745 284.383 61.2201 290.037 61.2201H315V53.7201L325.5 65.0093L315 76.7201V68.7201H287.5ZM290.037 58.8565C286 58.8565 283.5 56.0964 283.5 52.7038C283.5 48 286.5 46 290.037 46C294 46 296.5 49.1074 296.5 52.5C296.5 55.8927 293.43 58.8565 290.037 58.8565Z" fill="black"/>
<path d="M287.986 22.7198H290.036V30.9235H287.986V22.7198Z" fill="black"/>
<path d="M276.374 25.8414L278.273 25.0545L281.415 32.6347L279.516 33.4216L276.374 25.8414Z" fill="black"/>
<path d="M266.831 33.1803L268.285 31.7272L274.085 37.5272L272.631 38.9803L266.831 33.1803Z" fill="black"/>
<path d="M296.789 31.8545L299.931 24.2743L301.825 25.0592L298.683 32.6395L296.789 31.8545Z" fill="black"/>
<path d="M304.533 36.0844L310.333 30.2844L311.783 31.7339L305.983 37.534L304.533 36.0844Z" fill="black"/>
</g>
<path d="M272.126 114H270.983V105.41H272.126V114ZM277.17 114.012C276.928 114.059 276.664 114.082 276.379 114.082C275.926 114.082 275.594 114.002 275.383 113.842C275.172 113.678 275.041 113.469 274.99 113.215C274.94 112.961 274.914 112.615 274.914 112.178V108.65H274.147V107.783H274.914V106.236H276.016V107.783H277.024V108.65H276.016V112.236C276.016 112.662 276.069 112.934 276.174 113.051C276.283 113.164 276.432 113.221 276.619 113.221C276.811 113.221 276.994 113.205 277.17 113.174V114.012ZM281.458 114.146C280.544 114.146 279.81 113.861 279.255 113.291C278.701 112.717 278.423 111.918 278.423 110.895C278.423 109.879 278.691 109.084 279.226 108.51C279.765 107.932 280.468 107.643 281.335 107.643C282.222 107.643 282.929 107.926 283.456 108.492C283.988 109.059 284.253 109.859 284.253 110.895V111.158H279.572C279.619 111.877 279.816 112.41 280.164 112.758C280.515 113.105 280.947 113.279 281.458 113.279C281.845 113.279 282.193 113.182 282.501 112.986C282.814 112.787 282.978 112.506 282.994 112.143H284.136C284.05 112.783 283.759 113.277 283.263 113.625C282.771 113.973 282.169 114.146 281.458 114.146ZM283.087 110.291C282.997 109.693 282.796 109.246 282.484 108.949C282.171 108.652 281.789 108.504 281.335 108.504C280.894 108.504 280.515 108.652 280.199 108.949C279.882 109.242 279.681 109.689 279.595 110.291H283.087ZM289.444 108.791C289.288 108.744 289.063 108.721 288.77 108.721C288.208 108.721 287.725 109.016 287.323 109.605V114H286.216V107.783H287.323V108.65C287.788 107.979 288.327 107.643 288.94 107.643C289.096 107.643 289.264 107.658 289.444 107.689V108.791ZM294.869 112.365V110.988H294.113C292.512 110.988 291.711 111.424 291.711 112.295C291.711 112.611 291.828 112.855 292.062 113.027C292.297 113.195 292.613 113.279 293.012 113.279C293.375 113.279 293.727 113.197 294.066 113.033C294.406 112.869 294.674 112.646 294.869 112.365ZM294.869 113.361C294.307 113.885 293.582 114.146 292.695 114.146C292.078 114.146 291.57 113.98 291.172 113.648C290.773 113.312 290.574 112.881 290.574 112.354C290.574 110.9 291.826 110.174 294.33 110.174H294.869C294.869 109.729 294.846 109.406 294.799 109.207C294.752 109.004 294.621 108.836 294.406 108.703C294.191 108.57 293.85 108.504 293.381 108.504C292.396 108.504 291.889 108.855 291.857 109.559H290.756C290.838 108.281 291.732 107.643 293.439 107.643C294.236 107.643 294.857 107.801 295.303 108.117C295.748 108.434 295.971 109.055 295.971 109.98V114H294.869V113.361ZM300.745 114.012C300.503 114.059 300.24 114.082 299.954 114.082C299.501 114.082 299.169 114.002 298.958 113.842C298.747 113.678 298.616 113.469 298.566 113.215C298.515 112.961 298.49 112.615 298.49 112.178V108.65H297.722V107.783H298.49V106.236H299.591V107.783H300.599V108.65H299.591V112.236C299.591 112.662 299.644 112.934 299.749 113.051C299.859 113.164 300.007 113.221 300.195 113.221C300.386 113.221 300.57 113.205 300.745 113.174V114.012ZM303.499 114H302.391V107.783H303.499V114ZM303.499 106.605H302.391V105.41H303.499V106.605ZM308.373 107.643C309.26 107.643 309.967 107.926 310.494 108.492C311.025 109.059 311.291 109.859 311.291 110.895C311.291 111.926 311.025 112.727 310.494 113.297C309.967 113.863 309.26 114.146 308.373 114.146C307.49 114.146 306.783 113.863 306.252 113.297C305.724 112.727 305.461 111.926 305.461 110.895C305.461 109.859 305.724 109.059 306.252 108.492C306.783 107.926 307.49 107.643 308.373 107.643ZM308.373 113.279C308.9 113.279 309.328 113.08 309.656 112.682C309.984 112.279 310.148 111.684 310.148 110.895C310.148 110.102 309.984 109.506 309.656 109.107C309.328 108.705 308.9 108.504 308.373 108.504C307.846 108.504 307.418 108.705 307.09 109.107C306.762 109.506 306.597 110.102 306.597 110.895C306.597 111.684 306.762 112.279 307.09 112.682C307.418 113.08 307.846 113.279 308.373 113.279ZM314.36 108.574C314.911 107.953 315.53 107.643 316.218 107.643C317.62 107.643 318.321 108.406 318.321 109.934V114H317.214V109.98C317.214 109.473 317.122 109.107 316.939 108.885C316.759 108.662 316.462 108.551 316.048 108.551C315.485 108.551 314.923 108.883 314.36 109.547V114H313.253V107.783H314.36V108.574Z" fill="black"/>
<path d="M463.874 114.146C462.878 114.146 462.132 113.953 461.636 113.566C461.144 113.18 460.831 112.725 460.698 112.201C460.569 111.678 460.505 111.07 460.505 110.379V105.41H461.642V110.361C461.642 111.49 461.831 112.232 462.21 112.588C462.589 112.943 463.144 113.121 463.874 113.121C464.604 113.121 465.159 112.943 465.538 112.588C465.917 112.232 466.106 111.49 466.106 110.361V105.41H467.249V110.379C467.249 111.418 467.124 112.184 466.874 112.676C466.628 113.168 466.255 113.537 465.755 113.783C465.255 114.025 464.628 114.146 463.874 114.146ZM471.971 114.146C470.272 114.146 469.383 113.479 469.305 112.143H470.412C470.42 112.9 470.936 113.279 471.959 113.279C472.416 113.279 472.764 113.186 473.002 112.998C473.244 112.807 473.365 112.568 473.365 112.283C473.365 112.002 473.248 111.805 473.014 111.691C472.78 111.574 472.295 111.424 471.561 111.24C470.83 111.057 470.295 110.852 469.955 110.625C469.619 110.398 469.451 110 469.451 109.43C469.451 108.914 469.66 108.488 470.078 108.152C470.5 107.812 471.063 107.643 471.766 107.643C473.395 107.643 474.227 108.223 474.262 109.383H473.16C473.121 108.797 472.682 108.504 471.842 108.504C471.471 108.504 471.162 108.574 470.916 108.715C470.674 108.855 470.553 109.061 470.553 109.33C470.553 109.572 470.647 109.748 470.834 109.857C471.022 109.963 471.49 110.107 472.24 110.291C472.994 110.471 473.553 110.682 473.916 110.924C474.283 111.166 474.467 111.584 474.467 112.178C474.467 112.744 474.24 113.215 473.787 113.59C473.338 113.961 472.733 114.146 471.971 114.146ZM479.113 114.146C478.199 114.146 477.464 113.861 476.91 113.291C476.355 112.717 476.078 111.918 476.078 110.895C476.078 109.879 476.345 109.084 476.88 108.51C477.419 107.932 478.123 107.643 478.99 107.643C479.876 107.643 480.584 107.926 481.111 108.492C481.642 109.059 481.908 109.859 481.908 110.895V111.158H477.226C477.273 111.877 477.47 112.41 477.818 112.758C478.169 113.105 478.601 113.279 479.113 113.279C479.5 113.279 479.847 113.182 480.156 112.986C480.468 112.787 480.632 112.506 480.648 112.143H481.791C481.705 112.783 481.414 113.277 480.918 113.625C480.425 113.973 479.824 114.146 479.113 114.146ZM480.742 110.291C480.652 109.693 480.451 109.246 480.138 108.949C479.826 108.652 479.443 108.504 478.99 108.504C478.548 108.504 478.169 108.652 477.853 108.949C477.537 109.242 477.335 109.689 477.25 110.291H480.742ZM487.098 108.791C486.942 108.744 486.718 108.721 486.425 108.721C485.862 108.721 485.38 109.016 484.977 109.605V114H483.87V107.783H484.977V108.65C485.442 107.979 485.981 107.643 486.595 107.643C486.751 107.643 486.919 107.658 487.098 107.689V108.791ZM498.745 106.43H495.904V114H494.761V106.43H491.943V105.41H498.745V106.43ZM503.192 114.146C502.278 114.146 501.544 113.861 500.989 113.291C500.434 112.717 500.157 111.918 500.157 110.895C500.157 109.879 500.424 109.084 500.96 108.51C501.499 107.932 502.202 107.643 503.069 107.643C503.956 107.643 504.663 107.926 505.19 108.492C505.721 109.059 505.987 109.859 505.987 110.895V111.158H501.305C501.352 111.877 501.549 112.41 501.897 112.758C502.249 113.105 502.68 113.279 503.192 113.279C503.579 113.279 503.926 113.182 504.235 112.986C504.548 112.787 504.712 112.506 504.727 112.143H505.87C505.784 112.783 505.493 113.277 504.997 113.625C504.505 113.973 503.903 114.146 503.192 114.146ZM504.821 110.291C504.731 109.693 504.53 109.246 504.217 108.949C503.905 108.652 503.522 108.504 503.069 108.504C502.628 108.504 502.249 108.652 501.932 108.949C501.616 109.242 501.415 109.689 501.329 110.291H504.821ZM510.17 114.146C508.471 114.146 507.582 113.479 507.504 112.143H508.611C508.619 112.9 509.135 113.279 510.158 113.279C510.615 113.279 510.963 113.186 511.201 112.998C511.443 112.807 511.564 112.568 511.564 112.283C511.564 112.002 511.447 111.805 511.213 111.691C510.978 111.574 510.494 111.424 509.76 111.24C509.029 111.057 508.494 110.852 508.154 110.625C507.818 110.398 507.65 110 507.65 109.43C507.65 108.914 507.859 108.488 508.277 108.152C508.699 107.812 509.262 107.643 509.965 107.643C511.594 107.643 512.426 108.223 512.461 109.383H511.359C511.32 108.797 510.881 108.504 510.041 108.504C509.67 108.504 509.361 108.574 509.115 108.715C508.873 108.855 508.752 109.061 508.752 109.33C508.752 109.572 508.846 109.748 509.033 109.857C509.221 109.963 509.689 110.107 510.439 110.291C511.193 110.471 511.752 110.682 512.115 110.924C512.482 111.166 512.666 111.584 512.666 112.178C512.666 112.744 512.439 113.215 511.986 113.59C511.537 113.961 510.932 114.146 510.17 114.146ZM517.083 114.012C516.841 114.059 516.577 114.082 516.292 114.082C515.839 114.082 515.507 114.002 515.296 113.842C515.085 113.678 514.954 113.469 514.904 113.215C514.853 112.961 514.827 112.615 514.827 112.178V108.65H514.06V107.783H514.827V106.236H515.929V107.783H516.937V108.65H515.929V112.236C515.929 112.662 515.982 112.934 516.087 113.051C516.196 113.164 516.345 113.221 516.532 113.221C516.724 113.221 516.907 113.205 517.083 113.174V114.012ZM519.836 114H518.729V107.783H519.836V114ZM519.836 106.605H518.729V105.41H519.836V106.605ZM523.299 108.574C523.849 107.953 524.469 107.643 525.156 107.643C526.558 107.643 527.26 108.406 527.26 109.934V114H526.152V109.98C526.152 109.473 526.06 109.107 525.877 108.885C525.697 108.662 525.4 108.551 524.986 108.551C524.424 108.551 523.861 108.883 523.299 109.547V114H522.191V107.783H523.299V108.574ZM534.63 113.52C534.63 115.52 533.728 116.52 531.923 116.52C531.142 116.52 530.524 116.35 530.071 116.01C529.622 115.67 529.397 115.213 529.397 114.639H530.54C530.54 115.318 530.997 115.658 531.911 115.658C532.427 115.658 532.825 115.516 533.106 115.23C533.388 114.949 533.528 114.395 533.528 113.566V113.256C533.036 113.85 532.444 114.146 531.753 114.146C530.94 114.146 530.312 113.857 529.866 113.279C529.421 112.701 529.198 111.922 529.198 110.941C529.198 109.926 529.446 109.123 529.942 108.533C530.442 107.939 531.069 107.643 531.823 107.643C532.495 107.643 533.064 107.85 533.528 108.264V107.783H534.63V113.52ZM533.528 112.213V109.26C533.052 108.756 532.507 108.504 531.894 108.504C531.421 108.504 531.042 108.709 530.757 109.119C530.476 109.525 530.335 110.133 530.335 110.941C530.335 111.707 530.468 112.289 530.733 112.688C531.003 113.082 531.374 113.279 531.847 113.279C532.464 113.279 533.024 112.924 533.528 112.213Z" fill="black"/>
<g clip-path="url(#clip1)">
<path d="M486.505 72.3561C487.123 71.2558 487.477 69.9884 487.477 68.6392V65.5141C487.477 61.314 484.06 57.897 479.86 57.897C475.659 57.897 472.242 61.314 472.242 65.5141V68.6392C472.242 69.9884 472.596 71.2559 473.214 72.3562C469.693 74.6151 467.555 78.4678 467.555 82.7016V86.6329C467.555 87.388 468.167 88.0001 468.922 88.0001H490.797C491.552 88.0001 492.164 87.388 492.164 86.6329V82.7016C492.164 78.4692 490.026 74.6151 486.505 72.3561V72.3561ZM474.977 65.5141C474.977 62.8217 477.167 60.6313 479.859 60.6313C482.552 60.6313 484.742 62.8217 484.742 65.5141V68.6392C484.742 71.3316 482.552 73.522 479.859 73.522C477.167 73.522 474.976 71.3316 474.976 68.6392V65.5141H474.977ZM489.43 85.2657H470.289V82.7016C470.289 79.2988 472.068 76.2111 474.978 74.4807C476.301 75.5881 478.003 76.2564 479.86 76.2564C481.716 76.2564 483.418 75.5881 484.741 74.4807C487.65 76.2113 489.43 79.3 489.43 82.7016V85.2657Z" fill="black"/>
<path d="M503.475 44.2955C504.058 43.4204 505.192 42.2469 506.224 41.2143C507.184 40.2549 507.937 39.13 508.463 37.871C508.988 36.6138 509.254 35.2905 509.254 33.938C509.254 31.1995 508.187 28.6245 506.25 26.6877C504.313 24.7508 501.739 23.6842 499 23.6842C496.261 23.6842 493.686 24.7509 491.75 26.6877C489.813 28.6245 488.746 31.1994 488.746 33.938C488.746 36.1996 490.586 38.0395 492.848 38.0395C495.109 38.0395 496.949 36.1996 496.949 33.938C496.949 33.39 497.162 32.875 497.55 32.4878C497.937 32.1005 498.452 31.8873 499 31.8873C499.548 31.8873 500.063 32.1006 500.45 32.4878C500.838 32.875 501.051 33.39 501.051 33.938C501.051 34.2165 500.999 34.4806 500.898 34.7236C500.795 34.9708 500.635 35.2032 500.424 35.4141C498.56 37.2783 497.466 38.5399 496.649 39.7688C495.455 41.5635 494.898 43.2663 494.898 45.1275C494.898 46.1772 495.295 47.1357 495.946 47.862C495.295 48.5884 494.898 49.5472 494.898 50.5974C494.898 52.859 496.738 54.699 499 54.699C501.262 54.699 503.102 52.859 503.102 50.5974V50.5963C503.102 49.5466 502.705 48.5881 502.054 47.862C502.705 47.1357 503.102 46.1772 503.102 45.1276C503.102 45.0041 503.167 44.7598 503.475 44.2955ZM498.925 41.2833C499.636 40.2154 500.63 39.0752 502.358 37.3476C502.822 36.8833 503.18 36.3549 503.421 35.7774C503.663 35.1991 503.785 34.5802 503.785 33.9378C503.785 32.6594 503.288 31.4578 502.384 30.5541C501.48 29.6505 500.278 29.1527 499 29.1527C497.722 29.1527 496.52 29.6503 495.616 30.5541C494.713 31.4578 494.215 32.6594 494.215 33.9378C494.215 34.6917 493.602 35.305 492.848 35.305C492.094 35.305 491.481 34.6917 491.481 33.9378C491.481 31.9296 492.263 30.0414 493.683 28.621C495.104 27.2006 496.992 26.4183 499 26.4183C501.008 26.4183 502.897 27.2006 504.317 28.6209C505.737 30.0414 506.52 31.9296 506.52 33.9377C506.52 34.9266 506.324 35.8953 505.94 36.8169C505.552 37.7456 504.997 38.5745 504.291 39.2807C502.671 40.9005 501.775 41.9146 501.199 42.7807C500.632 43.6334 500.367 44.3791 500.367 45.1273C500.367 45.8812 499.754 46.4945 499 46.4945C498.246 46.4945 497.633 45.8812 497.633 45.1273C497.633 43.8122 498.032 42.6267 498.925 41.2833V41.2833ZM500.367 50.5973C500.367 51.3512 499.754 51.9645 499 51.9645C498.246 51.9645 497.633 51.3512 497.633 50.5962C497.633 49.8423 498.246 49.229 499 49.229C499.754 49.229 500.367 49.8423 500.367 50.5962V50.5973Z" fill="black"/>
<path d="M520.191 39.1913C520.191 27.5063 510.685 18 499 18C495.594 18 492.34 18.7842 489.329 20.331C488.657 20.6761 488.393 21.5003 488.738 22.172C489.083 22.8435 489.907 23.1083 490.579 22.7633C493.199 21.417 496.032 20.7344 499 20.7344C509.177 20.7344 517.457 29.0142 517.457 39.1913C517.457 49.3685 509.177 57.6483 499 57.6483C488.823 57.6483 480.543 49.3685 480.543 39.1913C480.543 36.2234 481.226 33.3895 482.572 30.7689C482.917 30.0972 482.653 29.2731 481.981 28.928C481.31 28.5829 480.485 28.8476 480.14 29.5192C478.593 32.5303 477.809 35.7844 477.809 39.1913C477.809 50.8762 487.315 60.3826 499 60.3826C510.685 60.3826 520.191 50.8764 520.191 39.1913Z" fill="black"/>
<path d="M524.786 72.3561C525.404 71.2558 525.758 69.9884 525.758 68.6392V65.5141C525.758 61.314 522.341 57.897 518.141 57.897C513.94 57.897 510.523 61.314 510.523 65.5141V68.6392C510.523 69.9884 510.878 71.2559 511.496 72.3562C507.974 74.6151 505.836 78.4678 505.836 82.7016V86.6329C505.836 87.388 506.448 88.0001 507.203 88.0001H529.078C529.833 88.0001 530.445 87.388 530.445 86.6329V82.7016C530.445 78.4692 528.307 74.6151 524.786 72.3561V72.3561ZM513.258 65.5141C513.258 62.8217 515.448 60.6313 518.14 60.6313C520.833 60.6313 523.023 62.8217 523.023 65.5141V68.6392C523.023 71.3316 520.833 73.522 518.14 73.522C515.448 73.522 513.258 71.3316 513.258 68.6392V65.5141H513.258ZM527.711 85.2657H508.57V82.7016C508.57 79.2988 510.349 76.2111 513.259 74.4807C514.582 75.5881 516.284 76.2564 518.141 76.2564C519.997 76.2564 521.7 75.5881 523.022 74.4807C525.932 76.2113 527.711 79.3 527.711 82.7016V85.2657Z" fill="black"/>
<path d="M484.982 26.5408C485.354 26.5408 485.724 26.39 485.994 26.0933L485.995 26.0926C486.503 25.534 486.461 24.6697 485.902 24.1618C485.344 23.6539 484.479 23.6953 483.971 24.2541C483.463 24.8127 483.504 25.6774 484.063 26.1853C484.325 26.4234 484.654 26.5408 484.982 26.5408V26.5408Z" fill="black"/>
</g>
<path d="M431.354 61.3536C431.549 61.1583 431.549 60.8417 431.354 60.6464L428.172 57.4645C427.976 57.2692 427.66 57.2692 427.464 57.4645C427.269 57.6597 427.269 57.9763 427.464 58.1716L430.293 61L427.464 63.8284C427.269 64.0237 427.269 64.3403 427.464 64.5355C427.66 64.7308 427.976 64.7308 428.172 64.5355L431.354 61.3536ZM361 61.5H431V60.5H361V61.5Z" fill="black"/>
<path d="M630.354 61.3536C630.549 61.1583 630.549 60.8417 630.354 60.6464L627.172 57.4645C626.976 57.2692 626.66 57.2692 626.464 57.4645C626.269 57.6597 626.269 57.9763 626.464 58.1716L629.293 61L626.464 63.8284C626.269 64.0237 626.269 64.3403 626.464 64.5355C626.66 64.7308 626.976 64.7308 627.172 64.5355L630.354 61.3536ZM560 61.5H630V60.5H560V61.5Z" fill="black"/>
<path d="M229.354 61.3536C229.549 61.1583 229.549 60.8417 229.354 60.6464L226.172 57.4645C225.976 57.2692 225.66 57.2692 225.464 57.4645C225.269 57.6597 225.269 57.9763 225.464 58.1716L228.293 61L225.464 63.8284C225.269 64.0237 225.269 64.3403 225.464 64.5355C225.66 64.7308 225.976 64.7308 226.172 64.5355L229.354 61.3536ZM159 61.5H229V60.5H159V61.5Z" fill="black"/>
<defs>
<clipPath id="clip0">
<rect width="70" height="70" fill="white" transform="translate(259 18)"/>
</clipPath>
<clipPath id="clip1">
<rect width="70" height="70" fill="white" transform="translate(464 18)"/>
</clipPath>
</defs>
</svg>
