<svg width="791" height="135" viewBox="0 0 791 135" fill="none" xmlns="http://www.w3.org/2000/svg">
<path d="M74.9531 104.92C74.9531 105.59 74.7253 106.105 74.2695 106.463C73.8138 106.821 73.1514 107 72.2822 107H69.6016V99.8418H72.1504C72.9121 99.8418 73.5111 100.005 73.9473 100.33C74.3835 100.656 74.6016 101.102 74.6016 101.668C74.6016 102.358 74.2581 102.869 73.5713 103.201C74.0335 103.318 74.3786 103.535 74.6064 103.851C74.8376 104.163 74.9531 104.52 74.9531 104.92ZM70.5488 102.84H72.1406C72.6647 102.84 73.0505 102.757 73.2979 102.591C73.5452 102.422 73.6689 102.142 73.6689 101.751C73.6689 101.399 73.5485 101.136 73.3076 100.96C73.0667 100.781 72.6484 100.691 72.0527 100.691H70.5488V102.84ZM70.5488 106.15H72.2725C73.4053 106.15 73.9717 105.74 73.9717 104.92C73.9717 104.493 73.8398 104.183 73.5762 103.987C73.3158 103.789 72.8405 103.689 72.1504 103.689H70.5488V106.15ZM80.0307 105.638V104.49H79.4008C78.0661 104.49 77.3988 104.853 77.3988 105.579C77.3988 105.843 77.4965 106.046 77.6918 106.189C77.8871 106.329 78.1508 106.399 78.4828 106.399C78.7855 106.399 79.0785 106.331 79.3617 106.194C79.6449 106.058 79.8679 105.872 80.0307 105.638ZM80.0307 106.468C79.5619 106.904 78.9581 107.122 78.2191 107.122C77.7048 107.122 77.2816 106.984 76.9496 106.707C76.6176 106.427 76.4516 106.067 76.4516 105.628C76.4516 104.417 77.4949 103.812 79.5814 103.812H80.0307C80.0307 103.44 80.0111 103.172 79.9721 103.006C79.933 102.837 79.824 102.697 79.6449 102.586C79.4659 102.475 79.1811 102.42 78.7904 102.42C77.9701 102.42 77.5469 102.713 77.5209 103.299H76.6029C76.6713 102.234 77.4167 101.702 78.8393 101.702C79.5033 101.702 80.0209 101.834 80.392 102.098C80.7631 102.361 80.9486 102.879 80.9486 103.65V107H80.0307V106.468ZM85.0154 107.122C84.2798 107.122 83.6906 106.886 83.2479 106.414C82.8084 105.939 82.5887 105.271 82.5887 104.412C82.5887 103.549 82.8084 102.882 83.2479 102.41C83.6906 101.938 84.2798 101.702 85.0154 101.702C85.5818 101.702 86.0538 101.845 86.4314 102.132C86.8123 102.418 87.0369 102.832 87.1053 103.372H86.158C86.145 103.063 86.0278 102.827 85.8064 102.664C85.5883 102.501 85.3247 102.42 85.0154 102.42C84.576 102.42 84.2195 102.588 83.9461 102.923C83.6727 103.255 83.5359 103.751 83.5359 104.412C83.5359 105.07 83.6727 105.566 83.9461 105.901C84.2195 106.233 84.576 106.399 85.0154 106.399C85.3247 106.399 85.5883 106.318 85.8064 106.155C86.0278 105.993 86.145 105.758 86.158 105.452H87.1053C87.0369 105.993 86.8123 106.406 86.4314 106.692C86.0538 106.979 85.5818 107.122 85.0154 107.122ZM92.798 107H91.6994L90.0148 104.368L89.4387 104.939V107H88.5158V99.8418H89.4387V103.899L91.4357 101.819H92.5979L90.635 103.748L92.798 107ZM98.315 106.6C98.315 108.266 97.5631 109.1 96.0592 109.1C95.4081 109.1 94.8938 108.958 94.5162 108.675C94.1419 108.392 93.9547 108.011 93.9547 107.532H94.9068C94.9068 108.099 95.2877 108.382 96.0494 108.382C96.4791 108.382 96.8111 108.263 97.0455 108.025C97.2799 107.791 97.3971 107.329 97.3971 106.639V106.38C96.9869 106.875 96.4938 107.122 95.9176 107.122C95.2405 107.122 94.7164 106.881 94.3453 106.399C93.9742 105.918 93.7887 105.268 93.7887 104.451C93.7887 103.605 93.9954 102.936 94.4088 102.444C94.8255 101.95 95.3479 101.702 95.9762 101.702C96.5361 101.702 97.0097 101.875 97.3971 102.22V101.819H98.315V106.6ZM97.3971 105.511V103.05C96.9999 102.63 96.5458 102.42 96.0348 102.42C95.6409 102.42 95.3251 102.591 95.0875 102.933C94.8531 103.271 94.7359 103.777 94.7359 104.451C94.7359 105.089 94.8466 105.574 95.068 105.906C95.2926 106.235 95.6018 106.399 95.9957 106.399C96.51 106.399 96.9771 106.103 97.3971 105.511ZM102.973 102.659C102.842 102.62 102.655 102.601 102.411 102.601C101.942 102.601 101.54 102.846 101.205 103.338V107H100.282V101.819H101.205V102.542C101.592 101.982 102.042 101.702 102.553 101.702C102.683 101.702 102.823 101.715 102.973 101.741V102.659ZM106.312 101.702C107.051 101.702 107.64 101.938 108.079 102.41C108.522 102.882 108.744 103.549 108.744 104.412C108.744 105.271 108.522 105.939 108.079 106.414C107.64 106.886 107.051 107.122 106.312 107.122C105.576 107.122 104.987 106.886 104.544 106.414C104.105 105.939 103.885 105.271 103.885 104.412C103.885 103.549 104.105 102.882 104.544 102.41C104.987 101.938 105.576 101.702 106.312 101.702ZM106.312 106.399C106.751 106.399 107.108 106.233 107.381 105.901C107.655 105.566 107.791 105.07 107.791 104.412C107.791 103.751 107.655 103.255 107.381 102.923C107.108 102.588 106.751 102.42 106.312 102.42C105.872 102.42 105.516 102.588 105.243 102.923C104.969 103.255 104.832 103.751 104.832 104.412C104.832 105.07 104.969 105.566 105.243 105.901C105.516 106.233 105.872 106.399 106.312 106.399ZM113.66 106.341C113.201 106.862 112.685 107.122 112.112 107.122C110.943 107.122 110.359 106.484 110.359 105.208V101.819H111.282V105.169C111.282 105.592 111.357 105.896 111.507 106.082C111.656 106.268 111.904 106.36 112.249 106.36C112.763 106.36 113.234 106.084 113.66 105.53V101.819H114.578V107H113.66V106.341ZM117.468 102.479C117.927 101.961 118.443 101.702 119.016 101.702C120.184 101.702 120.769 102.339 120.769 103.611V107H119.846V103.65C119.846 103.227 119.769 102.923 119.616 102.737C119.467 102.552 119.219 102.459 118.874 102.459C118.405 102.459 117.937 102.736 117.468 103.289V107H116.545V101.819H117.468V102.479ZM125.993 105.511V103.05C125.596 102.63 125.142 102.42 124.63 102.42C124.237 102.42 123.921 102.591 123.683 102.933C123.449 103.271 123.332 103.777 123.332 104.451C123.332 105.089 123.442 105.574 123.664 105.906C123.888 106.235 124.198 106.399 124.591 106.399C125.106 106.399 125.573 106.103 125.993 105.511ZM125.993 106.38C125.583 106.875 125.089 107.122 124.513 107.122C123.836 107.122 123.312 106.881 122.941 106.399C122.57 105.918 122.384 105.268 122.384 104.451C122.384 103.605 122.591 102.936 123.004 102.444C123.421 101.95 123.944 101.702 124.572 101.702C125.132 101.702 125.605 101.875 125.993 102.22V99.8418H126.911V107H125.993V106.38ZM81.7564 118H80.7311L80.0572 116.091C79.9368 115.752 79.7366 115.476 79.4566 115.261C79.1767 115.046 78.8544 114.938 78.4898 114.938H76.7369V118H75.7896V110.842H78.9586C79.512 110.842 79.9645 110.896 80.316 111.003C80.6676 111.11 80.954 111.337 81.1754 111.682C81.3967 112.027 81.5074 112.416 81.5074 112.849C81.5074 113.343 81.3642 113.757 81.0777 114.089C80.7913 114.421 80.399 114.637 79.901 114.738V114.758C80.399 114.917 80.7783 115.349 81.0387 116.052L81.7564 118ZM76.7369 114.089H78.8512C79.4404 114.089 79.8668 113.996 80.1305 113.811C80.3974 113.625 80.5309 113.304 80.5309 112.849C80.5309 112.035 80.0198 111.628 78.9977 111.628H76.7369V114.089ZM85.6963 118.122C84.9346 118.122 84.3226 117.884 83.8604 117.409C83.3981 116.931 83.167 116.265 83.167 115.412C83.167 114.566 83.39 113.903 83.8359 113.425C84.2852 112.943 84.8711 112.702 85.5938 112.702C86.3327 112.702 86.9219 112.938 87.3613 113.41C87.804 113.882 88.0254 114.549 88.0254 115.412V115.632H84.124C84.1631 116.231 84.3275 116.675 84.6172 116.965C84.9102 117.255 85.2699 117.399 85.6963 117.399C86.0186 117.399 86.3083 117.318 86.5654 117.155C86.8258 116.989 86.9626 116.755 86.9756 116.452H87.9277C87.8561 116.986 87.6136 117.398 87.2002 117.688C86.79 117.977 86.2887 118.122 85.6963 118.122ZM87.0537 114.909C86.9788 114.411 86.8112 114.038 86.5508 113.791C86.2904 113.544 85.9714 113.42 85.5938 113.42C85.2259 113.42 84.9102 113.544 84.6465 113.791C84.3828 114.035 84.2152 114.408 84.1436 114.909H87.0537ZM91.5111 118.122C90.0951 118.122 89.3546 117.565 89.2895 116.452H90.2123C90.2188 117.084 90.6485 117.399 91.5014 117.399C91.8822 117.399 92.1719 117.321 92.3705 117.165C92.5723 117.006 92.6732 116.807 92.6732 116.569C92.6732 116.335 92.5756 116.171 92.3803 116.076C92.185 115.979 91.7813 115.853 91.1693 115.7C90.5606 115.547 90.1146 115.376 89.8314 115.188C89.5515 114.999 89.4115 114.667 89.4115 114.191C89.4115 113.762 89.5857 113.407 89.934 113.127C90.2855 112.844 90.7543 112.702 91.3402 112.702C92.6977 112.702 93.391 113.186 93.4203 114.152H92.5023C92.4698 113.664 92.1036 113.42 91.4037 113.42C91.0945 113.42 90.8373 113.479 90.6322 113.596C90.4304 113.713 90.3295 113.884 90.3295 114.108C90.3295 114.31 90.4076 114.457 90.5639 114.548C90.7201 114.636 91.1107 114.756 91.7357 114.909C92.364 115.059 92.8295 115.235 93.1322 115.437C93.4382 115.638 93.5912 115.987 93.5912 116.481C93.5912 116.953 93.4024 117.346 93.0248 117.658C92.6505 117.967 92.1459 118.122 91.5111 118.122ZM97.4627 118.122C96.701 118.122 96.089 117.884 95.6268 117.409C95.1645 116.931 94.9334 116.265 94.9334 115.412C94.9334 114.566 95.1564 113.903 95.6023 113.425C96.0516 112.943 96.6375 112.702 97.3602 112.702C98.0991 112.702 98.6883 112.938 99.1277 113.41C99.5704 113.882 99.7918 114.549 99.7918 115.412V115.632H95.8904C95.9295 116.231 96.0939 116.675 96.3836 116.965C96.6766 117.255 97.0363 117.399 97.4627 117.399C97.785 117.399 98.0747 117.318 98.3318 117.155C98.5922 116.989 98.729 116.755 98.742 116.452H99.6941C99.6225 116.986 99.38 117.398 98.9666 117.688C98.5564 117.977 98.0551 118.122 97.4627 118.122ZM98.8201 114.909C98.7452 114.411 98.5776 114.038 98.3172 113.791C98.0568 113.544 97.7378 113.42 97.3602 113.42C96.9923 113.42 96.6766 113.544 96.4129 113.791C96.1492 114.035 95.9816 114.408 95.91 114.909H98.8201ZM104.708 116.638V115.49H104.078C102.744 115.49 102.076 115.853 102.076 116.579C102.076 116.843 102.174 117.046 102.369 117.189C102.565 117.329 102.828 117.399 103.16 117.399C103.463 117.399 103.756 117.331 104.039 117.194C104.322 117.058 104.545 116.872 104.708 116.638ZM104.708 117.468C104.239 117.904 103.636 118.122 102.897 118.122C102.382 118.122 101.959 117.984 101.627 117.707C101.295 117.427 101.129 117.067 101.129 116.628C101.129 115.417 102.172 114.812 104.259 114.812H104.708C104.708 114.44 104.689 114.172 104.65 114.006C104.611 113.837 104.501 113.697 104.322 113.586C104.143 113.475 103.859 113.42 103.468 113.42C102.648 113.42 102.224 113.713 102.198 114.299H101.28C101.349 113.234 102.094 112.702 103.517 112.702C104.181 112.702 104.698 112.834 105.07 113.098C105.441 113.361 105.626 113.879 105.626 114.65V118H104.708V117.468ZM110.284 113.659C110.154 113.62 109.966 113.601 109.722 113.601C109.254 113.601 108.851 113.846 108.516 114.338V118H107.593V112.819H108.516V113.542C108.904 112.982 109.353 112.702 109.864 112.702C109.994 112.702 110.134 112.715 110.284 112.741V113.659ZM113.623 118.122C112.887 118.122 112.298 117.886 111.855 117.414C111.416 116.939 111.196 116.271 111.196 115.412C111.196 114.549 111.416 113.882 111.855 113.41C112.298 112.938 112.887 112.702 113.623 112.702C114.189 112.702 114.661 112.845 115.039 113.132C115.42 113.418 115.645 113.832 115.713 114.372H114.766C114.753 114.063 114.635 113.827 114.414 113.664C114.196 113.501 113.932 113.42 113.623 113.42C113.184 113.42 112.827 113.588 112.554 113.923C112.28 114.255 112.144 114.751 112.144 115.412C112.144 116.07 112.28 116.566 112.554 116.901C112.827 117.233 113.184 117.399 113.623 117.399C113.932 117.399 114.196 117.318 114.414 117.155C114.635 116.993 114.753 116.758 114.766 116.452H115.713C115.645 116.993 115.42 117.406 115.039 117.692C114.661 117.979 114.189 118.122 113.623 118.122ZM118.046 113.479C118.505 112.961 119.021 112.702 119.594 112.702C120.763 112.702 121.347 113.339 121.347 114.611V118H120.424V114.65C120.424 114.227 120.348 113.923 120.195 113.737C120.045 113.552 119.798 113.459 119.453 113.459C118.984 113.459 118.515 113.736 118.046 114.289V118H117.123V110.842H118.046V113.479Z" fill="black"/>
<path d="M132.101 65.0528L121.581 54.5314C124.123 51.1823 125.709 47.1678 126.116 42.9589C126.615 37.7935 125.328 32.5747 122.493 28.2633C122.182 27.7901 121.546 27.6587 121.073 27.9701C120.6 28.2814 120.469 28.9175 120.78 29.3907C126.145 37.5489 125.019 48.4901 118.104 55.4056C110.028 63.4827 96.8875 63.4827 88.8115 55.4056C80.7349 47.3286 80.7349 34.186 88.8115 26.1089C96.8875 18.0318 110.028 18.0318 118.102 26.1062L118.158 26.1628C118.557 26.5644 119.206 26.5671 119.608 26.1676C120.01 25.7687 120.012 25.1193 119.613 24.7177L119.554 24.6584C110.678 15.7818 96.237 15.7818 87.361 24.6584C87.0822 24.9372 86.8125 25.2213 86.5514 25.5107H64.0254C63.4593 25.5107 63 25.97 63 26.5361V31.0713C63 31.638 63.4593 32.0973 64.0254 32.0973C64.592 32.0973 65.0508 31.638 65.0508 31.0713V27.5621H84.9065C84.123 28.6627 83.449 29.8174 82.8845 31.0121H70.1094C69.5433 31.0121 69.084 31.4708 69.084 32.0375C69.084 32.6041 69.5433 33.0628 70.1094 33.0628H82.0359C81.7416 33.8864 81.4965 34.7232 81.3 35.5697H70.1094C69.5433 35.5697 69.084 36.0285 69.084 36.5951C69.084 37.1612 69.5433 37.6205 70.1094 37.6205H80.9208C80.806 38.452 80.7371 39.2889 80.7141 40.1268H70.1094C69.5433 40.1268 69.084 40.5861 69.084 41.1527C69.084 41.7188 69.5433 42.1781 70.1094 42.1781H80.7499C80.9347 45.1571 81.6989 48.1061 83.0453 50.8389H81.3208C80.7542 50.8389 80.2954 51.2982 80.2954 51.8648V82.2206C80.2954 82.7872 80.7542 83.2465 81.3208 83.2465H89.5239C90.0906 83.2465 90.5493 82.7872 90.5493 82.2206V59.512C91.4727 60.1481 92.4324 60.7088 93.4204 61.1932V82.2206C93.4204 82.7872 93.8797 83.2465 94.4458 83.2465H102.649C103.216 83.2465 103.674 82.7872 103.674 82.2206V63.5115C104.474 63.5035 105.272 63.4549 106.067 63.3641V79.2037C106.067 79.7704 106.526 80.2296 107.093 80.2296C107.659 80.2296 108.118 79.7704 108.118 79.2037V63.0341C111.359 62.3612 114.481 60.978 117.231 58.8839L127.749 69.4033C128.331 69.9843 129.103 70.3047 129.925 70.3047C130.747 70.3047 131.519 69.9843 132.101 69.4033C133.299 68.2048 133.3 66.2534 132.101 65.0528ZM88.4985 81.1952H82.3462V52.8902H84.1935C85.0806 54.2985 86.1359 55.6305 87.361 56.8561C87.7306 57.2257 88.1108 57.5787 88.4985 57.9173V81.1952ZM95.4717 81.1952V62.0755C97.4605 62.8173 99.5327 63.2712 101.624 63.4389V81.1952H95.4717ZM130.651 67.9528C130.457 68.1466 130.199 68.2534 129.925 68.2534C129.651 68.2534 129.393 68.1466 129.2 67.9528L118.812 57.5643C119.064 57.3341 119.311 57.0991 119.554 56.8561C119.797 56.6137 120.033 56.3664 120.263 56.1138L130.65 66.5028C131.05 66.9028 131.051 67.5538 130.651 67.9528Z" fill="black"/>
<path d="M107.093 82.5991C106.527 82.5991 106.067 83.0578 106.067 83.6245V85.9492H65.0508V35.5149C65.0508 34.9483 64.592 34.4895 64.0254 34.4895C63.4593 34.4895 63 34.9483 63 35.5149V86.9746C63 87.5412 63.4593 88 64.0254 88H107.093C107.66 88 108.118 87.5412 108.118 86.9746V83.6245C108.118 83.0578 107.66 82.5991 107.093 82.5991Z" fill="black"/>
<path d="M67.4434 60.0677V82.2199C67.4434 82.786 67.9026 83.2453 68.4688 83.2453H76.6724C77.2385 83.2453 77.6978 82.786 77.6978 82.2199V60.0677C77.6978 59.5016 77.2385 59.0423 76.6724 59.0423H68.4688C67.9026 59.0423 67.4434 59.5016 67.4434 60.0677ZM69.4941 61.0936H75.647V81.194H69.4941V61.0936Z" fill="black"/>
<path d="M77.7768 46.736C78.3435 46.736 78.8022 46.2767 78.8022 45.7101C78.8022 45.144 78.3435 44.6847 77.7768 44.6847H70.1094C69.5433 44.6847 69.084 45.144 69.084 45.7101C69.084 46.2767 69.5433 46.736 70.1094 46.736H77.7768Z" fill="black"/>
<path d="M103.458 22.1C98.4678 22.1 93.7809 24.0386 90.2615 27.5586C86.7421 31.0785 84.8034 35.766 84.8034 40.7567C84.8034 45.7475 86.7421 50.4349 90.2615 53.9549C93.7815 57.4749 98.4678 59.4135 103.458 59.4135C108.448 59.4135 113.135 57.4749 116.655 53.9549C120.174 50.4349 122.112 45.7475 122.112 40.7567C122.112 35.766 120.174 31.0785 116.655 27.5586C113.135 24.0386 108.448 22.1 103.458 22.1ZM115.204 52.5044C112.072 55.6372 107.9 57.3622 103.458 57.3622C99.0152 57.3622 94.8443 55.6372 91.712 52.5044C88.5792 49.3716 86.8542 45.1996 86.8542 40.7567C86.8542 36.3134 88.5792 32.1413 91.712 29.0085C94.95 25.77 99.2043 24.1502 103.458 24.1502C107.712 24.1502 111.966 25.77 115.204 29.0085C118.336 32.1413 120.061 36.3134 120.061 40.7567C120.061 45.1996 118.336 49.3716 115.204 52.5044Z" fill="black"/>
<path d="M663.485 104.842H666.156C666.742 104.842 667.232 104.897 667.625 105.008C668.023 105.115 668.337 105.351 668.568 105.716C668.799 106.077 668.914 106.482 668.914 106.932C668.914 107.654 668.685 108.203 668.226 108.577C667.767 108.951 667.103 109.139 666.234 109.139H664.432V112H663.485V104.842ZM664.432 108.289H666.244C666.852 108.289 667.285 108.175 667.542 107.947C667.803 107.719 667.933 107.391 667.933 106.961C667.933 106.674 667.861 106.421 667.718 106.199C667.575 105.978 667.393 105.838 667.171 105.779C666.953 105.721 666.637 105.691 666.224 105.691H664.432V108.289ZM673.323 107.659C673.193 107.62 673.006 107.601 672.762 107.601C672.293 107.601 671.891 107.846 671.555 108.338V112H670.633V106.819H671.555V107.542C671.943 106.982 672.392 106.702 672.903 106.702C673.033 106.702 673.173 106.715 673.323 106.741V107.659ZM676.662 106.702C677.401 106.702 677.99 106.938 678.43 107.41C678.873 107.882 679.094 108.549 679.094 109.412C679.094 110.271 678.873 110.939 678.43 111.414C677.99 111.886 677.401 112.122 676.662 112.122C675.927 112.122 675.337 111.886 674.895 111.414C674.455 110.939 674.236 110.271 674.236 109.412C674.236 108.549 674.455 107.882 674.895 107.41C675.337 106.938 675.927 106.702 676.662 106.702ZM676.662 111.399C677.102 111.399 677.458 111.233 677.732 110.901C678.005 110.566 678.142 110.07 678.142 109.412C678.142 108.751 678.005 108.255 677.732 107.923C677.458 107.588 677.102 107.42 676.662 107.42C676.223 107.42 675.866 107.588 675.593 107.923C675.32 108.255 675.183 108.751 675.183 109.412C675.183 110.07 675.32 110.566 675.593 110.901C675.866 111.233 676.223 111.399 676.662 111.399ZM682.741 112.01C682.539 112.049 682.319 112.068 682.082 112.068C681.704 112.068 681.427 112.002 681.252 111.868C681.076 111.731 680.967 111.557 680.924 111.346C680.882 111.134 680.861 110.846 680.861 110.481V107.542H680.221V106.819H680.861V105.53H681.779V106.819H682.619V107.542H681.779V110.53C681.779 110.885 681.823 111.111 681.911 111.209C682.002 111.303 682.126 111.351 682.282 111.351C682.441 111.351 682.594 111.338 682.741 111.312V112.01ZM686.212 106.702C686.951 106.702 687.54 106.938 687.979 107.41C688.422 107.882 688.644 108.549 688.644 109.412C688.644 110.271 688.422 110.939 687.979 111.414C687.54 111.886 686.951 112.122 686.212 112.122C685.476 112.122 684.887 111.886 684.444 111.414C684.005 110.939 683.785 110.271 683.785 109.412C683.785 108.549 684.005 107.882 684.444 107.41C684.887 106.938 685.476 106.702 686.212 106.702ZM686.212 111.399C686.651 111.399 687.008 111.233 687.281 110.901C687.555 110.566 687.691 110.07 687.691 109.412C687.691 108.751 687.555 108.255 687.281 107.923C687.008 107.588 686.651 107.42 686.212 107.42C685.772 107.42 685.416 107.588 685.143 107.923C684.869 108.255 684.732 108.751 684.732 109.412C684.732 110.07 684.869 110.566 685.143 110.901C685.416 111.233 685.772 111.399 686.212 111.399ZM692.29 112.01C692.089 112.049 691.869 112.068 691.631 112.068C691.254 112.068 690.977 112.002 690.801 111.868C690.625 111.731 690.516 111.557 690.474 111.346C690.432 111.134 690.411 110.846 690.411 110.481V107.542H689.771V106.819H690.411V105.53H691.329V106.819H692.168V107.542H691.329V110.53C691.329 110.885 691.372 111.111 691.46 111.209C691.551 111.303 691.675 111.351 691.831 111.351C691.991 111.351 692.144 111.338 692.29 111.312V112.01ZM693.955 113.25C694.411 113.25 694.783 112.833 695.073 112L693.115 106.819H694.111L695.483 110.872L696.855 106.819H697.851L695.893 112C695.705 112.495 695.543 112.876 695.41 113.143C695.28 113.413 695.107 113.639 694.892 113.821C694.681 114.007 694.42 114.1 694.111 114.1C693.88 114.1 693.681 114.077 693.515 114.031V113.182C693.659 113.227 693.805 113.25 693.955 113.25ZM700.185 107.439C700.595 106.948 701.088 106.702 701.664 106.702C702.341 106.702 702.865 106.943 703.237 107.425C703.608 107.903 703.793 108.551 703.793 109.368C703.793 110.218 703.585 110.89 703.168 111.385C702.755 111.876 702.232 112.122 701.601 112.122C701.041 112.122 700.569 111.948 700.185 111.6V113.992H699.262V106.819H700.185V107.439ZM700.185 110.77C700.579 111.189 701.031 111.399 701.542 111.399C701.939 111.399 702.255 111.23 702.489 110.892C702.724 110.55 702.841 110.042 702.841 109.368C702.841 108.73 702.73 108.247 702.509 107.918C702.288 107.586 701.978 107.42 701.581 107.42C701.07 107.42 700.605 107.716 700.185 108.309V110.77ZM707.63 112.122C706.869 112.122 706.257 111.884 705.795 111.409C705.332 110.931 705.101 110.265 705.101 109.412C705.101 108.566 705.324 107.903 705.77 107.425C706.219 106.943 706.805 106.702 707.528 106.702C708.267 106.702 708.856 106.938 709.296 107.41C709.738 107.882 709.96 108.549 709.96 109.412V109.632H706.058C706.097 110.231 706.262 110.675 706.551 110.965C706.844 111.255 707.204 111.399 707.63 111.399C707.953 111.399 708.242 111.318 708.5 111.155C708.76 110.989 708.897 110.755 708.91 110.452H709.862C709.79 110.986 709.548 111.398 709.134 111.688C708.724 111.977 708.223 112.122 707.63 112.122ZM708.988 108.909C708.913 108.411 708.745 108.038 708.485 107.791C708.225 107.544 707.906 107.42 707.528 107.42C707.16 107.42 706.844 107.544 706.581 107.791C706.317 108.035 706.149 108.408 706.078 108.909H708.988Z" fill="black"/>
<path d="M702.039 18H671.961C669.134 18 666.834 20.2999 666.834 23.127V82.873C666.834 85.7001 669.134 88 671.961 88H702.039C704.866 88 707.166 85.7001 707.166 82.873V23.127C707.166 20.2999 704.866 18 702.039 18ZM705.115 73.6445H676.062C675.496 73.6445 675.037 74.1036 675.037 74.6699C675.037 75.2362 675.496 75.6953 676.062 75.6953H705.115V82.873C705.115 84.5693 703.735 85.9492 702.039 85.9492H671.961C670.265 85.9492 668.885 84.5693 668.885 82.873V75.6953H671.961C672.527 75.6953 672.986 75.2362 672.986 74.6699C672.986 74.1036 672.527 73.6445 671.961 73.6445H668.885V28.2539H705.115V73.6445ZM705.115 26.2031H668.885V23.127C668.885 21.4307 670.265 20.0508 671.961 20.0508H702.039C703.735 20.0508 705.115 21.4307 705.115 23.127V26.2031Z" fill="black"/>
<path d="M691.102 22.1016H687C686.434 22.1016 685.975 22.5607 685.975 23.127C685.975 23.6932 686.434 24.1523 687 24.1523H691.102C691.668 24.1523 692.127 23.6932 692.127 23.127C692.127 22.5607 691.668 22.1016 691.102 22.1016Z" fill="black"/>
<path d="M687 77.7461C685.304 77.7461 683.924 79.126 683.924 80.8223C683.924 82.5185 685.304 83.8984 687 83.8984C688.696 83.8984 690.076 82.5185 690.076 80.8223C690.076 79.126 688.696 77.7461 687 77.7461ZM687 81.8477C686.435 81.8477 685.975 81.3877 685.975 80.8223C685.975 80.2568 686.435 79.7969 687 79.7969C687.565 79.7969 688.025 80.2568 688.025 80.8223C688.025 81.3877 687.565 81.8477 687 81.8477Z" fill="black"/>
<path d="M682.898 24.1523C683.465 24.1523 683.924 23.6933 683.924 23.127C683.924 22.5606 683.465 22.1016 682.898 22.1016C682.332 22.1016 681.873 22.5606 681.873 23.127C681.873 23.6933 682.332 24.1523 682.898 24.1523Z" fill="black"/>
<g clip-path="url(#clip0)">
<path d="M331 65.0093L314.598 47.5186V58.8565H308C308.694 56.8904 309.5 54.6048 309.5 52.5C309.5 42.3221 302.215 34.2454 292.037 34.2454C281.859 34.2454 273.579 42.5258 273.579 52.7038C273.579 54.8603 273.952 56.9311 274.635 58.8565H261V71.1621H314.598V82.5L331 65.0093ZM263.5 68.7201V61.2201H275.5C276.5 63.7201 279 67.2201 282.5 68.7201H263.5ZM289.5 68.7201C281.584 68.7201 276 60.6199 276 52.7038C276 44.7876 282.5 36 292.037 36.5C299.953 36.5 307.5 43.2391 307.5 52.5C307.5 54.636 306.407 56.9443 305.5 58.8565H298C300 57.5 301 55.0105 301 52.7038C301 48 298.051 43.7201 292.037 43.7201C286.5 43.7201 283 47.5186 283 52.2201C283 57.8745 286.383 61.2201 292.037 61.2201H317V53.7201L327.5 65.0093L317 76.7201V68.7201H289.5ZM292.037 58.8565C288 58.8565 285.5 56.0964 285.5 52.7038C285.5 48 288.5 46 292.037 46C296 46 298.5 49.1074 298.5 52.5C298.5 55.8927 295.43 58.8565 292.037 58.8565Z" fill="black"/>
<path d="M289.986 22.7198H292.036V30.9235H289.986V22.7198Z" fill="black"/>
<path d="M278.374 25.8414L280.273 25.0545L283.415 32.6347L281.516 33.4216L278.374 25.8414Z" fill="black"/>
<path d="M268.831 33.1803L270.285 31.7272L276.085 37.5272L274.631 38.9803L268.831 33.1803Z" fill="black"/>
<path d="M298.789 31.8545L301.931 24.2743L303.825 25.0592L300.683 32.6395L298.789 31.8545Z" fill="black"/>
<path d="M306.533 36.0844L312.333 30.2844L313.783 31.7339L307.983 37.534L306.533 36.0844Z" fill="black"/>
</g>
<path d="M277.855 112H276.903V104.842H277.855V112ZM282.058 112.01C281.857 112.049 281.637 112.068 281.399 112.068C281.022 112.068 280.745 112.002 280.569 111.868C280.393 111.731 280.284 111.557 280.242 111.346C280.2 111.134 280.179 110.846 280.179 110.481V107.542H279.539V106.819H280.179V105.53H281.096V106.819H281.936V107.542H281.096V110.53C281.096 110.885 281.14 111.111 281.228 111.209C281.319 111.303 281.443 111.351 281.599 111.351C281.759 111.351 281.912 111.338 282.058 111.312V112.01ZM285.632 112.122C284.87 112.122 284.258 111.884 283.796 111.409C283.334 110.931 283.103 110.265 283.103 109.412C283.103 108.566 283.326 107.903 283.772 107.425C284.221 106.943 284.807 106.702 285.529 106.702C286.268 106.702 286.858 106.938 287.297 107.41C287.74 107.882 287.961 108.549 287.961 109.412V109.632H284.06C284.099 110.231 284.263 110.675 284.553 110.965C284.846 111.255 285.206 111.399 285.632 111.399C285.954 111.399 286.244 111.318 286.501 111.155C286.762 110.989 286.898 110.755 286.911 110.452H287.863C287.792 110.986 287.549 111.398 287.136 111.688C286.726 111.977 286.224 112.122 285.632 112.122ZM286.989 108.909C286.915 108.411 286.747 108.038 286.487 107.791C286.226 107.544 285.907 107.42 285.529 107.42C285.162 107.42 284.846 107.544 284.582 107.791C284.319 108.035 284.151 108.408 284.079 108.909H286.989ZM292.287 107.659C292.157 107.62 291.969 107.601 291.725 107.601C291.256 107.601 290.854 107.846 290.519 108.338V112H289.596V106.819H290.519V107.542C290.907 106.982 291.356 106.702 291.867 106.702C291.997 106.702 292.137 106.715 292.287 106.741V107.659ZM296.808 110.638V109.49H296.178C294.843 109.49 294.176 109.853 294.176 110.579C294.176 110.843 294.273 111.046 294.469 111.189C294.664 111.329 294.928 111.399 295.26 111.399C295.562 111.399 295.855 111.331 296.139 111.194C296.422 111.058 296.645 110.872 296.808 110.638ZM296.808 111.468C296.339 111.904 295.735 112.122 294.996 112.122C294.482 112.122 294.059 111.984 293.727 111.707C293.395 111.427 293.229 111.067 293.229 110.628C293.229 109.417 294.272 108.812 296.358 108.812H296.808C296.808 108.44 296.788 108.172 296.749 108.006C296.71 107.837 296.601 107.697 296.422 107.586C296.243 107.475 295.958 107.42 295.567 107.42C294.747 107.42 294.324 107.713 294.298 108.299H293.38C293.448 107.234 294.194 106.702 295.616 106.702C296.28 106.702 296.798 106.834 297.169 107.098C297.54 107.361 297.726 107.879 297.726 108.65V112H296.808V111.468ZM301.704 112.01C301.503 112.049 301.283 112.068 301.045 112.068C300.668 112.068 300.391 112.002 300.215 111.868C300.039 111.731 299.93 111.557 299.888 111.346C299.846 111.134 299.825 110.846 299.825 110.481V107.542H299.185V106.819H299.825V105.53H300.743V106.819H301.582V107.542H300.743V110.53C300.743 110.885 300.787 111.111 300.874 111.209C300.966 111.303 301.089 111.351 301.246 111.351C301.405 111.351 301.558 111.338 301.704 111.312V112.01ZM303.999 112H303.076V106.819H303.999V112ZM303.999 105.838H303.076V104.842H303.999V105.838ZM308.061 106.702C308.8 106.702 309.389 106.938 309.828 107.41C310.271 107.882 310.492 108.549 310.492 109.412C310.492 110.271 310.271 110.939 309.828 111.414C309.389 111.886 308.8 112.122 308.061 112.122C307.325 112.122 306.736 111.886 306.293 111.414C305.854 110.939 305.634 110.271 305.634 109.412C305.634 108.549 305.854 107.882 306.293 107.41C306.736 106.938 307.325 106.702 308.061 106.702ZM308.061 111.399C308.5 111.399 308.857 111.233 309.13 110.901C309.404 110.566 309.54 110.07 309.54 109.412C309.54 108.751 309.404 108.255 309.13 107.923C308.857 107.588 308.5 107.42 308.061 107.42C307.621 107.42 307.265 107.588 306.991 107.923C306.718 108.255 306.581 108.751 306.581 109.412C306.581 110.07 306.718 110.566 306.991 110.901C307.265 111.233 307.621 111.399 308.061 111.399ZM313.05 107.479C313.509 106.961 314.025 106.702 314.598 106.702C315.767 106.702 316.351 107.339 316.351 108.611V112H315.428V108.65C315.428 108.227 315.352 107.923 315.199 107.737C315.049 107.552 314.802 107.459 314.457 107.459C313.988 107.459 313.519 107.736 313.05 108.289V112H312.128V106.819H313.05V107.479Z" fill="black"/>
<path d="M467.478 112.122C466.648 112.122 466.026 111.961 465.613 111.639C465.203 111.316 464.943 110.937 464.832 110.501C464.724 110.065 464.671 109.559 464.671 108.982V104.842H465.618V108.968C465.618 109.909 465.776 110.527 466.092 110.823C466.407 111.119 466.87 111.268 467.478 111.268C468.087 111.268 468.549 111.119 468.865 110.823C469.181 110.527 469.339 109.909 469.339 108.968V104.842H470.291V108.982C470.291 109.848 470.187 110.486 469.978 110.896C469.773 111.307 469.462 111.614 469.046 111.819C468.629 112.021 468.107 112.122 467.478 112.122ZM474.226 112.122C472.81 112.122 472.069 111.565 472.004 110.452H472.927C472.933 111.084 473.363 111.399 474.216 111.399C474.597 111.399 474.887 111.321 475.085 111.165C475.287 111.006 475.388 110.807 475.388 110.569C475.388 110.335 475.29 110.171 475.095 110.076C474.9 109.979 474.496 109.853 473.884 109.7C473.275 109.547 472.829 109.376 472.546 109.188C472.266 108.999 472.126 108.667 472.126 108.191C472.126 107.762 472.3 107.407 472.649 107.127C473 106.844 473.469 106.702 474.055 106.702C475.412 106.702 476.106 107.186 476.135 108.152H475.217C475.184 107.664 474.818 107.42 474.118 107.42C473.809 107.42 473.552 107.479 473.347 107.596C473.145 107.713 473.044 107.884 473.044 108.108C473.044 108.31 473.122 108.457 473.279 108.548C473.435 108.636 473.825 108.756 474.45 108.909C475.079 109.059 475.544 109.235 475.847 109.437C476.153 109.638 476.306 109.987 476.306 110.481C476.306 110.953 476.117 111.346 475.739 111.658C475.365 111.967 474.861 112.122 474.226 112.122ZM480.177 112.122C479.416 112.122 478.804 111.884 478.341 111.409C477.879 110.931 477.648 110.265 477.648 109.412C477.648 108.566 477.871 107.903 478.317 107.425C478.766 106.943 479.352 106.702 480.075 106.702C480.814 106.702 481.403 106.938 481.842 107.41C482.285 107.882 482.506 108.549 482.506 109.412V109.632H478.605C478.644 110.231 478.809 110.675 479.098 110.965C479.391 111.255 479.751 111.399 480.177 111.399C480.5 111.399 480.789 111.318 481.046 111.155C481.307 110.989 481.444 110.755 481.457 110.452H482.409C482.337 110.986 482.095 111.398 481.681 111.688C481.271 111.977 480.77 112.122 480.177 112.122ZM481.535 108.909C481.46 108.411 481.292 108.038 481.032 107.791C480.771 107.544 480.452 107.42 480.075 107.42C479.707 107.42 479.391 107.544 479.128 107.791C478.864 108.035 478.696 108.408 478.625 108.909H481.535ZM486.832 107.659C486.702 107.62 486.515 107.601 486.271 107.601C485.802 107.601 485.4 107.846 485.064 108.338V112H484.142V106.819H485.064V107.542C485.452 106.982 485.901 106.702 486.412 106.702C486.542 106.702 486.682 106.715 486.832 106.741V107.659ZM496.538 105.691H494.17V112H493.218V105.691H490.869V104.842H496.538V105.691ZM500.243 112.122C499.482 112.122 498.87 111.884 498.407 111.409C497.945 110.931 497.714 110.265 497.714 109.412C497.714 108.566 497.937 107.903 498.383 107.425C498.832 106.943 499.418 106.702 500.141 106.702C500.88 106.702 501.469 106.938 501.908 107.41C502.351 107.882 502.572 108.549 502.572 109.412V109.632H498.671C498.71 110.231 498.875 110.675 499.164 110.965C499.457 111.255 499.817 111.399 500.243 111.399C500.566 111.399 500.855 111.318 501.112 111.155C501.373 110.989 501.51 110.755 501.523 110.452H502.475C502.403 110.986 502.161 111.398 501.747 111.688C501.337 111.977 500.836 112.122 500.243 112.122ZM501.601 108.909C501.526 108.411 501.358 108.038 501.098 107.791C500.837 107.544 500.518 107.42 500.141 107.42C499.773 107.42 499.457 107.544 499.194 107.791C498.93 108.035 498.762 108.408 498.691 108.909H501.601ZM506.058 112.122C504.642 112.122 503.902 111.565 503.837 110.452H504.759C504.766 111.084 505.196 111.399 506.048 111.399C506.429 111.399 506.719 111.321 506.918 111.165C507.119 111.006 507.22 110.807 507.22 110.569C507.22 110.335 507.123 110.171 506.927 110.076C506.732 109.979 506.328 109.853 505.716 109.7C505.108 109.547 504.662 109.376 504.379 109.188C504.099 108.999 503.959 108.667 503.959 108.191C503.959 107.762 504.133 107.407 504.481 107.127C504.833 106.844 505.301 106.702 505.887 106.702C507.245 106.702 507.938 107.186 507.967 108.152H507.049C507.017 107.664 506.651 107.42 505.951 107.42C505.642 107.42 505.384 107.479 505.179 107.596C504.977 107.713 504.877 107.884 504.877 108.108C504.877 108.31 504.955 108.457 505.111 108.548C505.267 108.636 505.658 108.756 506.283 108.909C506.911 109.059 507.377 109.235 507.679 109.437C507.985 109.638 508.138 109.987 508.138 110.481C508.138 110.953 507.949 111.346 507.572 111.658C507.198 111.967 506.693 112.122 506.058 112.122ZM511.819 112.01C511.618 112.049 511.398 112.068 511.16 112.068C510.783 112.068 510.506 112.002 510.33 111.868C510.154 111.731 510.045 111.557 510.003 111.346C509.961 111.134 509.939 110.846 509.939 110.481V107.542H509.3V106.819H509.939V105.53H510.857V106.819H511.697V107.542H510.857V110.53C510.857 110.885 510.901 111.111 510.989 111.209C511.08 111.303 511.204 111.351 511.36 111.351C511.52 111.351 511.673 111.338 511.819 111.312V112.01ZM514.114 112H513.191V106.819H514.114V112ZM514.114 105.838H513.191V104.842H514.114V105.838ZM516.999 107.479C517.458 106.961 517.974 106.702 518.547 106.702C519.715 106.702 520.3 107.339 520.3 108.611V112H519.377V108.65C519.377 108.227 519.3 107.923 519.147 107.737C518.998 107.552 518.75 107.459 518.405 107.459C517.936 107.459 517.468 107.736 516.999 108.289V112H516.076V106.819H516.999V107.479ZM526.442 111.6C526.442 113.266 525.69 114.1 524.186 114.1C523.535 114.1 523.02 113.958 522.643 113.675C522.268 113.392 522.081 113.011 522.081 112.532H523.033C523.033 113.099 523.414 113.382 524.176 113.382C524.606 113.382 524.938 113.263 525.172 113.025C525.406 112.791 525.524 112.329 525.524 111.639V111.38C525.113 111.875 524.62 112.122 524.044 112.122C523.367 112.122 522.843 111.881 522.472 111.399C522.101 110.918 521.915 110.268 521.915 109.451C521.915 108.605 522.122 107.936 522.535 107.444C522.952 106.95 523.474 106.702 524.103 106.702C524.663 106.702 525.136 106.875 525.524 107.22V106.819H526.442V111.6ZM525.524 110.511V108.05C525.127 107.63 524.672 107.42 524.161 107.42C523.767 107.42 523.452 107.591 523.214 107.933C522.98 108.271 522.863 108.777 522.863 109.451C522.863 110.089 522.973 110.574 523.195 110.906C523.419 111.235 523.728 111.399 524.122 111.399C524.637 111.399 525.104 111.103 525.524 110.511Z" fill="black"/>
<g clip-path="url(#clip1)">
<path d="M484.505 72.3561C485.123 71.2558 485.477 69.9884 485.477 68.6392V65.5141C485.477 61.314 482.06 57.897 477.86 57.897C473.659 57.897 470.242 61.314 470.242 65.5141V68.6392C470.242 69.9884 470.596 71.2559 471.214 72.3562C467.693 74.6151 465.555 78.4678 465.555 82.7016V86.6329C465.555 87.388 466.167 88.0001 466.922 88.0001H488.797C489.552 88.0001 490.164 87.388 490.164 86.6329V82.7016C490.164 78.4692 488.026 74.6151 484.505 72.3561ZM472.977 65.5141C472.977 62.8217 475.167 60.6313 477.859 60.6313C480.552 60.6313 482.742 62.8217 482.742 65.5141V68.6392C482.742 71.3316 480.552 73.522 477.859 73.522C475.167 73.522 472.976 71.3316 472.976 68.6392V65.5141H472.977ZM487.43 85.2657H468.289V82.7016C468.289 79.2988 470.068 76.2111 472.978 74.4807C474.301 75.5881 476.003 76.2564 477.86 76.2564C479.716 76.2564 481.418 75.5881 482.741 74.4807C485.65 76.2113 487.43 79.3 487.43 82.7016V85.2657Z" fill="black"/>
<path d="M501.475 44.2955C502.058 43.4204 503.192 42.2469 504.224 41.2143C505.184 40.2549 505.937 39.13 506.463 37.871C506.988 36.6138 507.254 35.2905 507.254 33.938C507.254 31.1995 506.187 28.6245 504.25 26.6877C502.313 24.7508 499.739 23.6842 497 23.6842C494.261 23.6842 491.686 24.7509 489.75 26.6877C487.813 28.6245 486.746 31.1994 486.746 33.938C486.746 36.1996 488.586 38.0395 490.848 38.0395C493.109 38.0395 494.949 36.1996 494.949 33.938C494.949 33.39 495.162 32.875 495.55 32.4878C495.937 32.1005 496.452 31.8873 497 31.8873C497.548 31.8873 498.063 32.1006 498.45 32.4878C498.838 32.875 499.051 33.39 499.051 33.938C499.051 34.2165 498.999 34.4806 498.898 34.7236C498.795 34.9708 498.635 35.2032 498.424 35.4141C496.56 37.2783 495.466 38.5399 494.649 39.7688C493.455 41.5635 492.898 43.2663 492.898 45.1275C492.898 46.1772 493.295 47.1357 493.946 47.862C493.295 48.5884 492.898 49.5472 492.898 50.5974C492.898 52.859 494.738 54.699 497 54.699C499.262 54.699 501.102 52.859 501.102 50.5974V50.5963C501.102 49.5466 500.705 48.5881 500.054 47.862C500.705 47.1357 501.102 46.1772 501.102 45.1276C501.102 45.0041 501.167 44.7598 501.475 44.2955ZM496.925 41.2833C497.636 40.2154 498.63 39.0752 500.358 37.3476C500.822 36.8833 501.18 36.3549 501.421 35.7774C501.663 35.1991 501.785 34.5802 501.785 33.9378C501.785 32.6594 501.288 31.4578 500.384 30.5541C499.48 29.6505 498.278 29.1527 497 29.1527C495.722 29.1527 494.52 29.6503 493.616 30.5541C492.713 31.4578 492.215 32.6594 492.215 33.9378C492.215 34.6917 491.602 35.305 490.848 35.305C490.094 35.305 489.481 34.6917 489.481 33.9378C489.481 31.9296 490.263 30.0414 491.683 28.621C493.104 27.2006 494.992 26.4183 497 26.4183C499.008 26.4183 500.897 27.2006 502.317 28.6209C503.737 30.0414 504.52 31.9296 504.52 33.9377C504.52 34.9266 504.324 35.8953 503.94 36.8169C503.552 37.7456 502.997 38.5745 502.291 39.2807C500.671 40.9005 499.775 41.9146 499.199 42.7807C498.632 43.6334 498.367 44.3791 498.367 45.1273C498.367 45.8812 497.754 46.4945 497 46.4945C496.246 46.4945 495.633 45.8812 495.633 45.1273C495.633 43.8122 496.032 42.6267 496.925 41.2833ZM498.367 50.5973C498.367 51.3512 497.754 51.9645 497 51.9645C496.246 51.9645 495.633 51.3512 495.633 50.5962C495.633 49.8423 496.246 49.229 497 49.229C497.754 49.229 498.367 49.8423 498.367 50.5962V50.5973Z" fill="black"/>
<path d="M518.191 39.1913C518.191 27.5063 508.685 18 497 18C493.594 18 490.34 18.7842 487.329 20.331C486.657 20.6761 486.393 21.5003 486.738 22.172C487.083 22.8435 487.907 23.1083 488.579 22.7633C491.199 21.417 494.032 20.7344 497 20.7344C507.177 20.7344 515.457 29.0142 515.457 39.1913C515.457 49.3685 507.177 57.6483 497 57.6483C486.823 57.6483 478.543 49.3685 478.543 39.1913C478.543 36.2234 479.226 33.3895 480.572 30.7689C480.917 30.0972 480.653 29.2731 479.981 28.928C479.31 28.5829 478.485 28.8476 478.14 29.5192C476.593 32.5303 475.809 35.7844 475.809 39.1913C475.809 50.8762 485.315 60.3826 497 60.3826C508.685 60.3826 518.191 50.8764 518.191 39.1913Z" fill="black"/>
<path d="M522.786 72.3561C523.404 71.2558 523.758 69.9884 523.758 68.6392V65.5141C523.758 61.314 520.341 57.897 516.141 57.897C511.94 57.897 508.523 61.314 508.523 65.5141V68.6392C508.523 69.9884 508.878 71.2559 509.496 72.3562C505.974 74.6151 503.836 78.4678 503.836 82.7016V86.6329C503.836 87.388 504.448 88.0001 505.203 88.0001H527.078C527.833 88.0001 528.445 87.388 528.445 86.6329V82.7016C528.445 78.4692 526.307 74.6151 522.786 72.3561ZM511.258 65.5141C511.258 62.8217 513.448 60.6313 516.14 60.6313C518.833 60.6313 521.023 62.8217 521.023 65.5141V68.6392C521.023 71.3316 518.833 73.522 516.14 73.522C513.448 73.522 511.258 71.3316 511.258 68.6392V65.5141H511.258ZM525.711 85.2657H506.57V82.7016C506.57 79.2988 508.349 76.2111 511.259 74.4807C512.582 75.5881 514.284 76.2564 516.141 76.2564C517.997 76.2564 519.7 75.5881 521.022 74.4807C523.932 76.2113 525.711 79.3 525.711 82.7016V85.2657Z" fill="black"/>
<path d="M482.982 26.5408C483.354 26.5408 483.724 26.39 483.994 26.0933L483.995 26.0926C484.503 25.534 484.461 24.6697 483.902 24.1618C483.344 23.6539 482.479 23.6953 481.971 24.2541C481.463 24.8127 481.504 25.6774 482.063 26.1853C482.325 26.4234 482.654 26.5408 482.982 26.5408Z" fill="black"/>
</g>
<path d="M431.354 61.3536C431.549 61.1583 431.549 60.8417 431.354 60.6464L428.172 57.4645C427.976 57.2692 427.66 57.2692 427.464 57.4645C427.269 57.6597 427.269 57.9763 427.464 58.1716L430.293 61L427.464 63.8284C427.269 64.0237 427.269 64.3403 427.464 64.5355C427.66 64.7308 427.976 64.7308 428.172 64.5355L431.354 61.3536ZM361 61.5H431V60.5H361V61.5Z" fill="black"/>
<path d="M626.354 61.3536C626.549 61.1583 626.549 60.8417 626.354 60.6464L623.172 57.4645C622.976 57.2692 622.66 57.2692 622.464 57.4645C622.269 57.6597 622.269 57.9763 622.464 58.1716L625.293 61L622.464 63.8284C622.269 64.0237 622.269 64.3403 622.464 64.5355C622.66 64.7308 622.976 64.7308 623.172 64.5355L626.354 61.3536ZM556 61.5H626V60.5H556V61.5Z" fill="black"/>
<path d="M233.354 61.3536C233.549 61.1583 233.549 60.8417 233.354 60.6464L230.172 57.4645C229.976 57.2692 229.66 57.2692 229.464 57.4645C229.269 57.6597 229.269 57.9763 229.464 58.1716L232.293 61L229.464 63.8284C229.269 64.0237 229.269 64.3403 229.464 64.5355C229.66 64.7308 229.976 64.7308 230.172 64.5355L233.354 61.3536ZM163 61.5H233V60.5H163V61.5Z" fill="black"/>
<defs>
<clipPath id="clip0">
<rect width="70" height="70" fill="white" transform="translate(261 18)"/>
</clipPath>
<clipPath id="clip1">
<rect width="70" height="70" fill="white" transform="translate(462 18)"/>
</clipPath>
</defs>
</svg>
