<svg width="791" height="118" viewBox="0 0 791 118" fill="none" xmlns="http://www.w3.org/2000/svg">
<path d="M92.2422 47.2227C92.2422 46.4675 91.6302 45.8555 90.875 45.8555C90.1198 45.8555 89.5078 46.4675 89.5078 47.2227C89.5078 51.7461 85.8282 55.4258 81.3047 55.4258C80.5495 55.4258 79.9375 56.0378 79.9375 56.793C79.9375 57.5481 80.5495 58.1602 81.3047 58.1602C87.3358 58.1602 92.2422 53.2538 92.2422 47.2227Z" fill="#1A90B1"/>
<path d="M63.7588 60.549C63.0362 61.639 56.6953 71.3172 56.6953 75.3867C56.6953 80.0555 60.4519 84 64.8984 84C69.345 84 73.1016 80.0555 73.1016 75.3867C73.1016 71.3172 66.7607 61.639 66.0381 60.549C65.7844 60.1671 65.3567 59.9375 64.8984 59.9375C64.4402 59.9375 64.0124 60.1671 63.7588 60.549V60.549ZM70.3672 75.3867C70.3672 78.5184 67.8117 81.2656 64.8984 81.2656C61.9852 81.2656 59.4297 78.5184 59.4297 75.3867C59.4297 73.2799 62.4327 67.7812 64.8984 63.8335C67.3642 67.7812 70.3672 73.2799 70.3672 75.3867Z" fill="black"/>
<path d="M49.8594 36.6953C49.4102 36.6953 48.9899 36.9159 48.7346 37.2854C47.87 38.5367 40.2891 49.651 40.2891 54.4688C40.2891 59.7458 44.5824 64.0391 49.8594 64.0391C55.1364 64.0391 59.4297 59.7458 59.4297 54.4688C59.4297 49.651 51.8487 38.5367 50.9841 37.2854C50.7288 36.9159 50.3085 36.6953 49.8594 36.6953ZM49.8594 61.3047C46.09 61.3047 43.0234 58.2381 43.0234 54.4688C43.0234 51.8246 46.8468 45.1121 49.8594 40.5138C52.872 45.1115 56.6953 51.823 56.6953 54.4688C56.6953 58.2381 53.6288 61.3047 49.8594 61.3047Z" fill="black"/>
<path d="M67.6328 45.8555C67.6328 46.6106 67.0208 47.2227 66.2656 47.2227C65.5105 47.2227 64.8984 46.6106 64.8984 45.8555C64.8984 45.1003 65.5105 44.4883 66.2656 44.4883C67.0208 44.4883 67.6328 45.1003 67.6328 45.8555Z" fill="#1A90B1"/>
<path d="M82.4572 14.6313C82.2057 14.2382 81.7715 14 81.3047 14C80.8379 14 80.4037 14.2382 80.1522 14.6313C79.7586 15.2481 70.4655 29.8492 66.5861 40.1432C66.3196 40.8497 66.6769 41.6385 67.3834 41.9045C68.0894 42.171 68.8782 41.8143 69.1447 41.1077C72.1323 33.1791 78.6611 22.2453 81.3084 17.9451C85.9825 25.5036 94.9766 41.2765 94.9766 47.2227C94.9766 54.7614 88.8435 60.8945 81.3047 60.8945C75.201 60.8945 69.7877 56.7956 68.1402 50.9263C67.9362 50.1995 67.1815 49.7755 66.4542 49.9795C65.7273 50.1835 65.3038 50.9386 65.5073 51.6655C67.4849 58.7092 73.9812 63.6289 81.3047 63.6289C90.3511 63.6289 97.7109 56.2691 97.7109 47.2227C97.7109 39.6866 86.3569 20.7286 82.4572 14.6313V14.6313Z" fill="#1A90B1"/>
<path d="M65.4961 102.842L63.5137 110H62.6055L60.8867 103.779L59.1631 110H58.2549L56.2773 102.842H57.2734L58.7041 108.672L60.3154 102.842H61.4531L63.0645 108.672L64.4951 102.842H65.4961ZM69.5586 108.638V107.49H68.9287C67.5941 107.49 66.9268 107.853 66.9268 108.579C66.9268 108.843 67.0244 109.046 67.2197 109.189C67.415 109.329 67.6787 109.399 68.0107 109.399C68.3135 109.399 68.6064 109.331 68.8896 109.194C69.1729 109.058 69.3958 108.872 69.5586 108.638ZM69.5586 109.468C69.0898 109.904 68.486 110.122 67.7471 110.122C67.2327 110.122 66.8096 109.984 66.4775 109.707C66.1455 109.427 65.9795 109.067 65.9795 108.628C65.9795 107.417 67.0228 106.812 69.1094 106.812H69.5586C69.5586 106.44 69.5391 106.172 69.5 106.006C69.4609 105.837 69.3519 105.697 69.1729 105.586C68.9938 105.475 68.709 105.42 68.3184 105.42C67.498 105.42 67.0749 105.713 67.0488 106.299H66.1309C66.1992 105.234 66.9447 104.702 68.3672 104.702C69.0312 104.702 69.5488 104.834 69.9199 105.098C70.291 105.361 70.4766 105.879 70.4766 106.65V110H69.5586V109.468ZM73.8555 110.01C73.6536 110.049 73.4339 110.068 73.1963 110.068C72.8187 110.068 72.542 110.002 72.3662 109.868C72.1904 109.731 72.0814 109.557 72.0391 109.346C71.9967 109.134 71.9756 108.846 71.9756 108.481V105.542H71.3359V104.819H71.9756V103.53H72.8936V104.819H73.7334V105.542H72.8936V108.53C72.8936 108.885 72.9375 109.111 73.0254 109.209C73.1165 109.303 73.2402 109.351 73.3965 109.351C73.556 109.351 73.709 109.338 73.8555 109.312V110.01ZM76.8291 110.122C76.0674 110.122 75.4554 109.884 74.9932 109.409C74.5309 108.931 74.2998 108.265 74.2998 107.412C74.2998 106.566 74.5228 105.903 74.9688 105.425C75.418 104.943 76.0039 104.702 76.7266 104.702C77.4655 104.702 78.0547 104.938 78.4941 105.41C78.9368 105.882 79.1582 106.549 79.1582 107.412V107.632H75.2568C75.2959 108.231 75.4603 108.675 75.75 108.965C76.043 109.255 76.4027 109.399 76.8291 109.399C77.1514 109.399 77.4411 109.318 77.6982 109.155C77.9587 108.989 78.0954 108.755 78.1084 108.452H79.0605C78.9889 108.986 78.7464 109.398 78.333 109.688C77.9229 109.977 77.4215 110.122 76.8291 110.122ZM78.1865 106.909C78.1117 106.411 77.944 106.038 77.6836 105.791C77.4232 105.544 77.1042 105.42 76.7266 105.42C76.3587 105.42 76.043 105.544 75.7793 105.791C75.5156 106.035 75.348 106.408 75.2764 106.909H78.1865ZM82.8838 105.659C82.7536 105.62 82.5664 105.601 82.3223 105.601C81.8535 105.601 81.4515 105.846 81.1162 106.338V110H80.1934V104.819H81.1162V105.542C81.5036 104.982 81.9528 104.702 82.4639 104.702C82.5941 104.702 82.734 104.715 82.8838 104.741V105.659Z" fill="black"/>
<path d="M213.072 110H212.101L208.351 104.351V110H207.452V102.842H208.419L212.169 108.491V102.842H213.072V110ZM216.656 104.702C217.395 104.702 217.984 104.938 218.424 105.41C218.867 105.882 219.088 106.549 219.088 107.412C219.088 108.271 218.867 108.939 218.424 109.414C217.984 109.886 217.395 110.122 216.656 110.122C215.921 110.122 215.331 109.886 214.889 109.414C214.449 108.939 214.229 108.271 214.229 107.412C214.229 106.549 214.449 105.882 214.889 105.41C215.331 104.938 215.921 104.702 216.656 104.702ZM216.656 109.399C217.096 109.399 217.452 109.233 217.726 108.901C217.999 108.566 218.136 108.07 218.136 107.412C218.136 106.751 217.999 106.255 217.726 105.923C217.452 105.588 217.096 105.42 216.656 105.42C216.217 105.42 215.86 105.588 215.587 105.923C215.313 106.255 215.177 106.751 215.177 107.412C215.177 108.07 215.313 108.566 215.587 108.901C215.86 109.233 216.217 109.399 216.656 109.399ZM222.135 110.01C221.933 110.049 221.713 110.068 221.476 110.068C221.098 110.068 220.821 110.002 220.646 109.868C220.47 109.731 220.361 109.557 220.318 109.346C220.276 109.134 220.255 108.846 220.255 108.481V105.542H219.615V104.819H220.255V103.53H221.173V104.819H222.013V105.542H221.173V108.53C221.173 108.885 221.217 109.111 221.305 109.209C221.396 109.303 221.52 109.351 221.676 109.351C221.835 109.351 221.988 109.338 222.135 109.312V110.01ZM223.829 110H222.906V104.819H223.829V110ZM223.829 103.838H222.906V102.842H223.829V103.838ZM226.271 105.542V110H225.353V105.542H224.591V104.819H225.353V104.36C225.353 103.267 225.836 102.72 226.803 102.72C227.099 102.72 227.328 102.739 227.491 102.778V103.579C227.309 103.547 227.123 103.53 226.935 103.53C226.71 103.53 226.542 103.594 226.432 103.721C226.324 103.844 226.271 104.061 226.271 104.37V104.819H227.252V105.542H226.271ZM228.897 110H227.975V104.819H228.897V110ZM228.897 103.838H227.975V102.842H228.897V103.838ZM232.359 110.122C231.624 110.122 231.035 109.886 230.592 109.414C230.152 108.939 229.933 108.271 229.933 107.412C229.933 106.549 230.152 105.882 230.592 105.41C231.035 104.938 231.624 104.702 232.359 104.702C232.926 104.702 233.398 104.845 233.775 105.132C234.156 105.418 234.381 105.832 234.449 106.372H233.502C233.489 106.063 233.372 105.827 233.15 105.664C232.932 105.501 232.669 105.42 232.359 105.42C231.92 105.42 231.563 105.588 231.29 105.923C231.017 106.255 230.88 106.751 230.88 107.412C230.88 108.07 231.017 108.566 231.29 108.901C231.563 109.233 231.92 109.399 232.359 109.399C232.669 109.399 232.932 109.318 233.15 109.155C233.372 108.993 233.489 108.758 233.502 108.452H234.449C234.381 108.993 234.156 109.406 233.775 109.692C233.398 109.979 232.926 110.122 232.359 110.122ZM238.541 108.638V107.49H237.911C236.576 107.49 235.909 107.853 235.909 108.579C235.909 108.843 236.007 109.046 236.202 109.189C236.397 109.329 236.661 109.399 236.993 109.399C237.296 109.399 237.589 109.331 237.872 109.194C238.155 109.058 238.378 108.872 238.541 108.638ZM238.541 109.468C238.072 109.904 237.468 110.122 236.729 110.122C236.215 110.122 235.792 109.984 235.46 109.707C235.128 109.427 234.962 109.067 234.962 108.628C234.962 107.417 236.005 106.812 238.092 106.812H238.541C238.541 106.44 238.521 106.172 238.482 106.006C238.443 105.837 238.334 105.697 238.155 105.586C237.976 105.475 237.691 105.42 237.301 105.42C236.48 105.42 236.057 105.713 236.031 106.299H235.113C235.182 105.234 235.927 104.702 237.35 104.702C238.014 104.702 238.531 104.834 238.902 105.098C239.273 105.361 239.459 105.879 239.459 106.65V110H238.541V109.468ZM242.838 110.01C242.636 110.049 242.416 110.068 242.179 110.068C241.801 110.068 241.524 110.002 241.349 109.868C241.173 109.731 241.064 109.557 241.021 109.346C240.979 109.134 240.958 108.846 240.958 108.481V105.542H240.318V104.819H240.958V103.53H241.876V104.819H242.716V105.542H241.876V108.53C241.876 108.885 241.92 109.111 242.008 109.209C242.099 109.303 242.223 109.351 242.379 109.351C242.538 109.351 242.691 109.338 242.838 109.312V110.01ZM244.532 110H243.609V104.819H244.532V110ZM244.532 103.838H243.609V102.842H244.532V103.838ZM247.994 104.702C248.733 104.702 249.322 104.938 249.762 105.41C250.204 105.882 250.426 106.549 250.426 107.412C250.426 108.271 250.204 108.939 249.762 109.414C249.322 109.886 248.733 110.122 247.994 110.122C247.258 110.122 246.669 109.886 246.227 109.414C245.787 108.939 245.567 108.271 245.567 107.412C245.567 106.549 245.787 105.882 246.227 105.41C246.669 104.938 247.258 104.702 247.994 104.702ZM247.994 109.399C248.434 109.399 248.79 109.233 249.063 108.901C249.337 108.566 249.474 108.07 249.474 107.412C249.474 106.751 249.337 106.255 249.063 105.923C248.79 105.588 248.434 105.42 247.994 105.42C247.555 105.42 247.198 105.588 246.925 105.923C246.651 106.255 246.515 106.751 246.515 107.412C246.515 108.07 246.651 108.566 246.925 108.901C247.198 109.233 247.555 109.399 247.994 109.399ZM252.384 105.479C252.843 104.961 253.359 104.702 253.932 104.702C255.1 104.702 255.685 105.339 255.685 106.611V110H254.762V106.65C254.762 106.227 254.685 105.923 254.532 105.737C254.382 105.552 254.135 105.459 253.79 105.459C253.321 105.459 252.853 105.736 252.384 106.289V110H251.461V104.819H252.384V105.479Z" fill="black"/>
<path d="M257.747 62.743L254.559 60.6174V42.1641C254.559 30.4165 244.813 20.7393 233.331 19.6997V16C233.331 14.8674 233.133 14 232 14C230.867 14 230.79 14.8674 230.79 16V19.6997C219.309 20.7393 209.441 30.4165 209.441 42.1641V60.6174L206.253 62.743C205.682 63.1233 205.34 63.7634 205.34 64.4492V72.6523C205.34 73.7849 206.258 74.7031 207.391 74.7031H220.909C225.14 74.7031 226.283 74.7031 231.806 74.7031C237.329 74.7031 236.5 74.7031 243.091 74.7031H256.609C257.742 74.7031 258.66 73.7849 258.66 72.6523V64.4492C258.66 63.7634 258.317 63.1232 257.747 62.743ZM256 72C254.097 72 210.24 72 208 72V65.5L211 63.5C211.571 63.1198 212 62.1856 212 61.5V42.1641C212 31.9869 221.823 22.5 232 22.5C242.177 22.5 252 31.9869 252 42.1641V61.5C252 62.1858 252.429 63.1198 253 63.5L256 65.5V72Z" fill="black"/>
<path d="M220.921 74.7645C220.917 74.7462 220.912 74.7261 220.906 74.7H223.62C223.624 74.7191 223.649 74.7337 223.63 74.7471C223.649 74.7873 223.66 74.8159 223.69 74.9193C224.742 77.5 226.34 79.3314 228.4 80.5C229.164 80.9236 230.25 81.4 231.92 81.5C233.513 81.5 234.919 80.92 236 80.23C237 79.48 237.27 79.3 238 78.5C238.69 77.7688 239.6 76.5 240.17 74.9193C240.189 74.8519 240.21 74.7847 240.237 74.7178L240.24 74.7H243.094C243.088 74.7391 243.079 74.7783 243.069 74.8176C243.055 74.8782 243.04 74.939 243.04 75C242.504 77.2636 241.5 79 240.58 80C239.606 81.1706 238.52 82.0192 237.25 82.7C235.808 83.4731 234.125 84 232 84C229.773 84 228.102 83.4723 226.5 82.5607C223.691 80.9624 221.626 78.184 220.97 75C220.944 74.8586 220.934 74.8194 220.921 74.7645Z" fill="#1A90B1"/>
<path d="M376.841 102.842L374.858 110H373.95L372.231 103.779L370.508 110H369.6L367.622 102.842H368.618L370.049 108.672L371.66 102.842H372.798L374.409 108.672L375.84 102.842H376.841ZM380.903 108.638V107.49H380.273C378.939 107.49 378.271 107.853 378.271 108.579C378.271 108.843 378.369 109.046 378.564 109.189C378.76 109.329 379.023 109.399 379.355 109.399C379.658 109.399 379.951 109.331 380.234 109.194C380.518 109.058 380.741 108.872 380.903 108.638ZM380.903 109.468C380.435 109.904 379.831 110.122 379.092 110.122C378.577 110.122 378.154 109.984 377.822 109.707C377.49 109.427 377.324 109.067 377.324 108.628C377.324 107.417 378.368 106.812 380.454 106.812H380.903C380.903 106.44 380.884 106.172 380.845 106.006C380.806 105.837 380.697 105.697 380.518 105.586C380.339 105.475 380.054 105.42 379.663 105.42C378.843 105.42 378.42 105.713 378.394 106.299H377.476C377.544 105.234 378.289 104.702 379.712 104.702C380.376 104.702 380.894 104.834 381.265 105.098C381.636 105.361 381.821 105.879 381.821 106.65V110H380.903V109.468ZM385.2 110.01C384.998 110.049 384.779 110.068 384.541 110.068C384.163 110.068 383.887 110.002 383.711 109.868C383.535 109.731 383.426 109.557 383.384 109.346C383.341 109.134 383.32 108.846 383.32 108.481V105.542H382.681V104.819H383.32V103.53H384.238V104.819H385.078V105.542H384.238V108.53C384.238 108.885 384.282 109.111 384.37 109.209C384.461 109.303 384.585 109.351 384.741 109.351C384.901 109.351 385.054 109.338 385.2 109.312V110.01ZM388.174 110.122C387.412 110.122 386.8 109.884 386.338 109.409C385.876 108.931 385.645 108.265 385.645 107.412C385.645 106.566 385.868 105.903 386.313 105.425C386.763 104.943 387.349 104.702 388.071 104.702C388.81 104.702 389.399 104.938 389.839 105.41C390.282 105.882 390.503 106.549 390.503 107.412V107.632H386.602C386.641 108.231 386.805 108.675 387.095 108.965C387.388 109.255 387.747 109.399 388.174 109.399C388.496 109.399 388.786 109.318 389.043 109.155C389.303 108.989 389.44 108.755 389.453 108.452H390.405C390.334 108.986 390.091 109.398 389.678 109.688C389.268 109.977 388.766 110.122 388.174 110.122ZM389.531 106.909C389.456 106.411 389.289 106.038 389.028 105.791C388.768 105.544 388.449 105.42 388.071 105.42C387.703 105.42 387.388 105.544 387.124 105.791C386.86 106.035 386.693 106.408 386.621 106.909H389.531ZM394.229 105.659C394.098 105.62 393.911 105.601 393.667 105.601C393.198 105.601 392.796 105.846 392.461 106.338V110H391.538V104.819H392.461V105.542C392.848 104.982 393.298 104.702 393.809 104.702C393.939 104.702 394.079 104.715 394.229 104.741V105.659ZM402.998 107.92C402.998 108.59 402.77 109.105 402.314 109.463C401.859 109.821 401.196 110 400.327 110H397.646V102.842H400.195C400.957 102.842 401.556 103.005 401.992 103.33C402.428 103.656 402.646 104.102 402.646 104.668C402.646 105.358 402.303 105.869 401.616 106.201C402.078 106.318 402.424 106.535 402.651 106.851C402.882 107.163 402.998 107.52 402.998 107.92ZM398.594 105.84H400.186C400.71 105.84 401.095 105.757 401.343 105.591C401.59 105.422 401.714 105.142 401.714 104.751C401.714 104.399 401.593 104.136 401.353 103.96C401.112 103.781 400.693 103.691 400.098 103.691H398.594V105.84ZM398.594 109.15H400.317C401.45 109.15 402.017 108.74 402.017 107.92C402.017 107.493 401.885 107.183 401.621 106.987C401.361 106.789 400.885 106.689 400.195 106.689H398.594V109.15ZM406.294 104.702C407.033 104.702 407.622 104.938 408.062 105.41C408.504 105.882 408.726 106.549 408.726 107.412C408.726 108.271 408.504 108.939 408.062 109.414C407.622 109.886 407.033 110.122 406.294 110.122C405.558 110.122 404.969 109.886 404.526 109.414C404.087 108.939 403.867 108.271 403.867 107.412C403.867 106.549 404.087 105.882 404.526 105.41C404.969 104.938 405.558 104.702 406.294 104.702ZM406.294 109.399C406.733 109.399 407.09 109.233 407.363 108.901C407.637 108.566 407.773 108.07 407.773 107.412C407.773 106.751 407.637 106.255 407.363 105.923C407.09 105.588 406.733 105.42 406.294 105.42C405.854 105.42 405.498 105.588 405.225 105.923C404.951 106.255 404.814 106.751 404.814 107.412C404.814 108.07 404.951 108.566 405.225 108.901C405.498 109.233 405.854 109.399 406.294 109.399ZM411.772 110.01C411.571 110.049 411.351 110.068 411.113 110.068C410.736 110.068 410.459 110.002 410.283 109.868C410.107 109.731 409.998 109.557 409.956 109.346C409.914 109.134 409.893 108.846 409.893 108.481V105.542H409.253V104.819H409.893V103.53H410.811V104.819H411.65V105.542H410.811V108.53C410.811 108.885 410.854 109.111 410.942 109.209C411.034 109.303 411.157 109.351 411.313 109.351C411.473 109.351 411.626 109.338 411.772 109.312V110.01ZM414.556 110.01C414.354 110.049 414.134 110.068 413.896 110.068C413.519 110.068 413.242 110.002 413.066 109.868C412.891 109.731 412.782 109.557 412.739 109.346C412.697 109.134 412.676 108.846 412.676 108.481V105.542H412.036V104.819H412.676V103.53H413.594V104.819H414.434V105.542H413.594V108.53C413.594 108.885 413.638 109.111 413.726 109.209C413.817 109.303 413.94 109.351 414.097 109.351C414.256 109.351 414.409 109.338 414.556 109.312V110.01ZM416.25 110H415.327V102.842H416.25V110ZM419.814 110.122C419.053 110.122 418.441 109.884 417.979 109.409C417.516 108.931 417.285 108.265 417.285 107.412C417.285 106.566 417.508 105.903 417.954 105.425C418.403 104.943 418.989 104.702 419.712 104.702C420.451 104.702 421.04 104.938 421.479 105.41C421.922 105.882 422.144 106.549 422.144 107.412V107.632H418.242C418.281 108.231 418.446 108.675 418.735 108.965C419.028 109.255 419.388 109.399 419.814 109.399C420.137 109.399 420.426 109.318 420.684 109.155C420.944 108.989 421.081 108.755 421.094 108.452H422.046C421.974 108.986 421.732 109.398 421.318 109.688C420.908 109.977 420.407 110.122 419.814 110.122ZM421.172 106.909C421.097 106.411 420.929 106.038 420.669 105.791C420.409 105.544 420.09 105.42 419.712 105.42C419.344 105.42 419.028 105.544 418.765 105.791C418.501 106.035 418.333 106.408 418.262 106.909H421.172Z" fill="black"/>
<path fill-rule="evenodd" clip-rule="evenodd" d="M402.069 27.8875L404.411 31.4007C406.812 35.0016 408.081 39.1926 408.081 43.5202V79.6867C408.081 82.0649 406.146 83.9999 403.768 83.9999H386.232C383.854 83.9999 381.919 82.065 381.919 79.6867V43.5202C381.919 39.1925 383.188 35.0016 385.589 31.4007L387.931 27.8875C388.3 27.3339 388.495 26.6897 388.495 26.0246V22.3609C387.842 21.9987 387.399 21.303 387.399 20.5051V17.2173C387.399 15.4433 388.842 14 390.616 14H399.384C401.158 14 402.601 15.4433 402.601 17.2173V20.5051C402.601 21.303 402.158 21.9987 401.505 22.3609V26.0246C401.505 26.6897 401.7 27.3339 402.069 27.8875ZM403.768 81.9492C405.015 81.9492 406.03 80.9344 406.03 79.6868V43.52C406.03 39.5985 404.88 35.801 402.705 32.5381L400.363 29.0248C399.768 28.1333 399.454 27.0957 399.454 26.0244V22.6264H396.096C395.53 22.6264 395.071 22.1673 395.071 21.601C395.071 21.0347 395.53 20.5756 396.096 20.5756H400.48C400.519 20.5756 400.55 20.544 400.55 20.5051V17.2173C400.55 16.5741 400.027 16.0508 399.384 16.0508H390.616C389.973 16.0508 389.45 16.574 389.45 17.2173V20.5052C389.45 20.5442 389.481 20.5758 389.52 20.5758H391.712C392.278 20.5758 392.737 21.0349 392.737 21.6012C392.737 22.1674 392.278 22.6265 391.712 22.6265H390.546V26.0246C390.546 27.0959 390.231 28.1334 389.637 29.025L387.295 32.5384C385.12 35.8013 383.97 39.5987 383.97 43.5202V79.6868C383.97 80.9342 384.985 81.9492 386.232 81.9492H393.974H396.025H403.768Z" fill="black"/>
<path fill-rule="evenodd" clip-rule="evenodd" d="M396.027 69.201V81.9423H393.976V69.2008C389.85 65.672 387.4 60.206 387.4 54.4728C387.4 48.5648 390.001 42.9403 394.357 39.4272C394.733 39.1242 395.269 39.1242 395.645 39.4272C396.965 40.4915 398.137 41.7552 399.13 43.1831C399.453 43.6481 399.338 44.2871 398.873 44.6102C398.408 44.9335 397.769 44.8183 397.446 44.3534C396.73 43.3237 395.91 42.3912 395.002 41.5726C392.748 43.6061 391.091 46.311 390.2 49.3169L393.976 53.0933V47.8972C393.976 47.3309 394.435 46.8718 395.001 46.8718C395.568 46.8718 396.027 47.3309 396.027 47.8972V53.0933L399.811 49.3087C399.72 49.0004 399.622 48.6942 399.514 48.391C399.324 47.8575 399.603 47.2711 400.136 47.0812C400.67 46.8915 401.256 47.1701 401.446 47.7036C402.213 49.8603 402.602 52.1378 402.602 54.4729C402.602 60.2061 400.153 65.6721 396.027 69.201ZM393.976 62.5693V66.3557C391.987 64.1958 390.578 61.4656 389.903 58.4966L393.976 62.5693ZM400.099 58.4966L396.027 62.5693V66.3557C398.016 64.1958 399.425 61.4656 400.099 58.4966ZM400.552 54.4729C400.552 54.7021 400.546 54.9307 400.537 55.1587L396.027 59.6691V55.9935L400.34 51.6798C400.48 52.5965 400.552 53.5292 400.552 54.4729ZM393.976 59.6691V55.9935L389.666 51.684C389.524 52.5991 389.451 53.5318 389.451 54.4728C389.451 54.7021 389.457 54.9305 389.465 55.1586L393.976 59.6691Z" fill="#1A90B1"/>
<path d="M545.875 102.842H548.546C549.132 102.842 549.622 102.897 550.016 103.008C550.413 103.115 550.727 103.351 550.958 103.716C551.189 104.077 551.305 104.482 551.305 104.932C551.305 105.654 551.075 106.203 550.616 106.577C550.157 106.951 549.493 107.139 548.624 107.139H546.822V110H545.875V102.842ZM546.822 106.289H548.634C549.243 106.289 549.675 106.175 549.933 105.947C550.193 105.719 550.323 105.391 550.323 104.961C550.323 104.674 550.252 104.421 550.108 104.199C549.965 103.978 549.783 103.838 549.562 103.779C549.343 103.721 549.028 103.691 548.614 103.691H546.822V106.289ZM555.113 105.659C554.983 105.62 554.796 105.601 554.552 105.601C554.083 105.601 553.681 105.846 553.346 106.338V110H552.423V104.819H553.346V105.542C553.733 104.982 554.182 104.702 554.693 104.702C554.824 104.702 554.964 104.715 555.113 104.741V105.659ZM556.676 110H555.753V104.819H556.676V110ZM556.676 103.838H555.753V102.842H556.676V103.838ZM560.138 110.122C559.402 110.122 558.813 109.886 558.37 109.414C557.931 108.939 557.711 108.271 557.711 107.412C557.711 106.549 557.931 105.882 558.37 105.41C558.813 104.938 559.402 104.702 560.138 104.702C560.704 104.702 561.176 104.845 561.554 105.132C561.935 105.418 562.159 105.832 562.228 106.372H561.28C561.267 106.063 561.15 105.827 560.929 105.664C560.711 105.501 560.447 105.42 560.138 105.42C559.698 105.42 559.342 105.588 559.068 105.923C558.795 106.255 558.658 106.751 558.658 107.412C558.658 108.07 558.795 108.566 559.068 108.901C559.342 109.233 559.698 109.399 560.138 109.399C560.447 109.399 560.711 109.318 560.929 109.155C561.15 108.993 561.267 108.758 561.28 108.452H562.228C562.159 108.993 561.935 109.406 561.554 109.692C561.176 109.979 560.704 110.122 560.138 110.122ZM565.24 110.122C564.479 110.122 563.867 109.884 563.404 109.409C562.942 108.931 562.711 108.265 562.711 107.412C562.711 106.566 562.934 105.903 563.38 105.425C563.829 104.943 564.415 104.702 565.138 104.702C565.877 104.702 566.466 104.938 566.905 105.41C567.348 105.882 567.569 106.549 567.569 107.412V107.632H563.668C563.707 108.231 563.871 108.675 564.161 108.965C564.454 109.255 564.814 109.399 565.24 109.399C565.562 109.399 565.852 109.318 566.109 109.155C566.37 108.989 566.507 108.755 566.52 108.452H567.472C567.4 108.986 567.158 109.398 566.744 109.688C566.334 109.977 565.833 110.122 565.24 110.122ZM566.598 106.909C566.523 106.411 566.355 106.038 566.095 105.791C565.834 105.544 565.515 105.42 565.138 105.42C564.77 105.42 564.454 105.544 564.19 105.791C563.927 106.035 563.759 106.408 563.688 106.909H566.598Z" fill="black"/>
<path d="M580.749 24.2512C574.138 17.6405 565.349 14 556 14C546.651 14 537.862 17.6405 531.251 24.2512C524.641 30.8618 521 39.6512 521 49C521 58.3488 524.641 67.1382 531.251 73.7488C537.862 80.3595 546.651 84 556 84C565.349 84 574.138 80.3595 580.749 73.7488C587.359 67.1382 591 58.3488 591 49C591 39.6512 587.359 30.8618 580.749 24.2512ZM556 81C538.963 81 524 66.0375 524 49C524 31.9625 538.963 17 556 17C573.037 17 588 31.9625 588 49C588 66.0375 573.037 81 556 81Z" fill="black"/>
<path d="M558.197 46.8202H553.949C551.446 46.8202 548 45.3202 548 41.8202C548 38.3202 551.446 35.8202 553.949 35.8202H562.5C563.633 35.8202 564.5 35.6528 564.5 34.5202C564.5 33.3876 563.722 33.0898 562.59 33.0898H557.5V28.5508C557.5 27.4182 557.133 26.5 556 26.5C554.867 26.5 554.5 27.4182 554.5 28.5508V33.0898H553.803C549.039 33.0898 545.163 36.9661 545.163 41.7305C545.163 46.4948 549.185 49.6259 553.949 49.6259H558.197C560.7 49.6259 562.736 52.4072 562.736 54.91C562.736 57.4128 560.7 59.4491 558.197 59.4491H549.41C548.278 59.4491 547.5 59.6876 547.5 60.8202C547.5 61.9528 548.367 62.3202 549.5 62.3202H554.5V68.0898C554.5 69.2224 554.867 70.1406 556 70.1406C557.133 70.1406 557.5 69.2224 557.5 68.0898V63.8202V62.3202C562.264 62.3202 565.5 59.5846 565.5 54.8202C565.5 50.8202 563 47.1373 558.197 46.8202Z" fill="#1A90B1"/>
<path d="M689.597 105H684.26V97.8418H689.431V98.6914H685.207V100.879H689.157V101.729H685.207V104.15H689.597V105ZM691.73 100.479C692.189 99.9609 692.705 99.7021 693.278 99.7021C694.447 99.7021 695.031 100.339 695.031 101.611V105H694.108V101.65C694.108 101.227 694.032 100.923 693.879 100.737C693.729 100.552 693.482 100.459 693.137 100.459C692.668 100.459 692.199 100.736 691.73 101.289V105H690.808V99.8193H691.73V100.479ZM700.563 99.8193L698.605 105H697.785L695.827 99.8193H696.823L698.195 103.872L699.567 99.8193H700.563ZM702.297 105H701.374V99.8193H702.297V105ZM702.297 98.8379H701.374V97.8418H702.297V98.8379ZM706.35 100.659C706.219 100.62 706.032 100.601 705.788 100.601C705.319 100.601 704.917 100.846 704.582 101.338V105H703.659V99.8193H704.582V100.542C704.969 99.9821 705.419 99.7021 705.93 99.7021C706.06 99.7021 706.2 99.7152 706.35 99.7412V100.659ZM709.089 99.7021C709.828 99.7021 710.417 99.9382 710.856 100.41C711.299 100.882 711.521 101.549 711.521 102.412C711.521 103.271 711.299 103.939 710.856 104.414C710.417 104.886 709.828 105.122 709.089 105.122C708.353 105.122 707.764 104.886 707.321 104.414C706.882 103.939 706.662 103.271 706.662 102.412C706.662 101.549 706.882 100.882 707.321 100.41C707.764 99.9382 708.353 99.7021 709.089 99.7021ZM709.089 104.399C709.528 104.399 709.885 104.233 710.158 103.901C710.432 103.566 710.568 103.07 710.568 102.412C710.568 101.751 710.432 101.255 710.158 100.923C709.885 100.588 709.528 100.42 709.089 100.42C708.649 100.42 708.293 100.588 708.02 100.923C707.746 101.255 707.609 101.751 707.609 102.412C707.609 103.07 707.746 103.566 708.02 103.901C708.293 104.233 708.649 104.399 709.089 104.399ZM713.479 100.479C713.938 99.9609 714.453 99.7021 715.026 99.7021C716.195 99.7021 716.779 100.339 716.779 101.611V105H715.856V101.65C715.856 101.227 715.78 100.923 715.627 100.737C715.477 100.552 715.23 100.459 714.885 100.459C714.416 100.459 713.947 100.736 713.479 101.289V105H712.556V99.8193H713.479V100.479ZM725.124 105H724.201V101.65C724.201 101.221 724.139 100.915 724.016 100.732C723.892 100.55 723.685 100.459 723.396 100.459C722.95 100.459 722.512 100.736 722.082 101.289V105H721.164V101.65C721.164 101.221 721.102 100.915 720.979 100.732C720.855 100.55 720.646 100.459 720.354 100.459C719.908 100.459 719.471 100.736 719.045 101.289V105H718.122V99.8193H719.045V100.479C719.481 99.9609 719.965 99.7021 720.495 99.7021C721.254 99.7021 721.737 100.015 721.945 100.64C722.29 100.233 722.583 99.9756 722.824 99.8682C723.065 99.7575 723.301 99.7021 723.532 99.7021C724.593 99.7021 725.124 100.339 725.124 101.611V105ZM728.654 105.122C727.893 105.122 727.281 104.884 726.818 104.409C726.356 103.931 726.125 103.265 726.125 102.412C726.125 101.566 726.348 100.903 726.794 100.425C727.243 99.943 727.829 99.7021 728.552 99.7021C729.291 99.7021 729.88 99.9382 730.319 100.41C730.762 100.882 730.983 101.549 730.983 102.412V102.632H727.082C727.121 103.231 727.285 103.675 727.575 103.965C727.868 104.255 728.228 104.399 728.654 104.399C728.977 104.399 729.266 104.318 729.523 104.155C729.784 103.989 729.921 103.755 729.934 103.452H730.886C730.814 103.986 730.572 104.398 730.158 104.688C729.748 104.977 729.247 105.122 728.654 105.122ZM730.012 101.909C729.937 101.411 729.769 101.038 729.509 100.791C729.248 100.544 728.929 100.42 728.552 100.42C728.184 100.42 727.868 100.544 727.604 100.791C727.341 101.035 727.173 101.408 727.102 101.909H730.012ZM732.941 100.479C733.4 99.9609 733.916 99.7021 734.489 99.7021C735.658 99.7021 736.242 100.339 736.242 101.611V105H735.319V101.65C735.319 101.227 735.243 100.923 735.09 100.737C734.94 100.552 734.693 100.459 734.348 100.459C733.879 100.459 733.41 100.736 732.941 101.289V105H732.019V99.8193H732.941V100.479ZM739.597 105.01C739.395 105.049 739.175 105.068 738.938 105.068C738.56 105.068 738.283 105.002 738.107 104.868C737.932 104.731 737.823 104.557 737.78 104.346C737.738 104.134 737.717 103.846 737.717 103.481V100.542H737.077V99.8193H737.717V98.5303H738.635V99.8193H739.475V100.542H738.635V103.53C738.635 103.885 738.679 104.111 738.767 104.209C738.858 104.303 738.981 104.351 739.138 104.351C739.297 104.351 739.45 104.338 739.597 104.312V105.01ZM743.649 103.638V102.49H743.02C741.685 102.49 741.018 102.853 741.018 103.579C741.018 103.843 741.115 104.046 741.311 104.189C741.506 104.329 741.77 104.399 742.102 104.399C742.404 104.399 742.697 104.331 742.98 104.194C743.264 104.058 743.487 103.872 743.649 103.638ZM743.649 104.468C743.181 104.904 742.577 105.122 741.838 105.122C741.324 105.122 740.9 104.984 740.568 104.707C740.236 104.427 740.07 104.067 740.07 103.628C740.07 102.417 741.114 101.812 743.2 101.812H743.649C743.649 101.44 743.63 101.172 743.591 101.006C743.552 100.837 743.443 100.697 743.264 100.586C743.085 100.475 742.8 100.42 742.409 100.42C741.589 100.42 741.166 100.713 741.14 101.299H740.222C740.29 100.234 741.035 99.7021 742.458 99.7021C743.122 99.7021 743.64 99.834 744.011 100.098C744.382 100.361 744.567 100.879 744.567 101.65V105H743.649V104.468ZM746.857 105H745.935V97.8418H746.857V105ZM685.344 116.122C684.331 116.122 683.522 115.79 682.917 115.126C682.315 114.459 682.014 113.557 682.014 112.421C682.014 111.285 682.315 110.385 682.917 109.721C683.522 109.053 684.331 108.72 685.344 108.72C686.122 108.72 686.784 108.93 687.331 109.35C687.878 109.77 688.186 110.323 688.254 111.01H687.277C687.238 110.557 687.041 110.198 686.687 109.931C686.335 109.664 685.891 109.53 685.354 109.53C684.628 109.53 684.053 109.781 683.63 110.282C683.207 110.78 682.995 111.493 682.995 112.421C682.995 113.345 683.205 114.058 683.625 114.56C684.045 115.061 684.615 115.312 685.334 115.312C685.894 115.312 686.346 115.175 686.691 114.901C687.036 114.628 687.232 114.237 687.277 113.729H688.254C688.186 114.491 687.886 115.08 687.355 115.497C686.825 115.914 686.154 116.122 685.344 116.122ZM691.55 110.702C692.289 110.702 692.878 110.938 693.317 111.41C693.76 111.882 693.981 112.549 693.981 113.412C693.981 114.271 693.76 114.939 693.317 115.414C692.878 115.886 692.289 116.122 691.55 116.122C690.814 116.122 690.225 115.886 689.782 115.414C689.343 114.939 689.123 114.271 689.123 113.412C689.123 112.549 689.343 111.882 689.782 111.41C690.225 110.938 690.814 110.702 691.55 110.702ZM691.55 115.399C691.989 115.399 692.346 115.233 692.619 114.901C692.893 114.566 693.029 114.07 693.029 113.412C693.029 112.751 692.893 112.255 692.619 111.923C692.346 111.588 691.989 111.42 691.55 111.42C691.11 111.42 690.754 111.588 690.48 111.923C690.207 112.255 690.07 112.751 690.07 113.412C690.07 114.07 690.207 114.566 690.48 114.901C690.754 115.233 691.11 115.399 691.55 115.399ZM695.939 111.479C696.398 110.961 696.914 110.702 697.487 110.702C698.656 110.702 699.24 111.339 699.24 112.611V116H698.317V112.65C698.317 112.227 698.241 111.923 698.088 111.737C697.938 111.552 697.691 111.459 697.346 111.459C696.877 111.459 696.408 111.736 695.939 112.289V116H695.017V110.819H695.939V111.479ZM702.434 116.122C701.018 116.122 700.277 115.565 700.212 114.452H701.135C701.141 115.084 701.571 115.399 702.424 115.399C702.805 115.399 703.094 115.321 703.293 115.165C703.495 115.006 703.596 114.807 703.596 114.569C703.596 114.335 703.498 114.171 703.303 114.076C703.107 113.979 702.704 113.853 702.092 113.7C701.483 113.547 701.037 113.376 700.754 113.188C700.474 112.999 700.334 112.667 700.334 112.191C700.334 111.762 700.508 111.407 700.856 111.127C701.208 110.844 701.677 110.702 702.263 110.702C703.62 110.702 704.313 111.186 704.343 112.152H703.425C703.392 111.664 703.026 111.42 702.326 111.42C702.017 111.42 701.76 111.479 701.555 111.596C701.353 111.713 701.252 111.884 701.252 112.108C701.252 112.31 701.33 112.457 701.486 112.548C701.643 112.636 702.033 112.756 702.658 112.909C703.286 113.059 703.752 113.235 704.055 113.437C704.361 113.638 704.514 113.987 704.514 114.481C704.514 114.953 704.325 115.346 703.947 115.658C703.573 115.967 703.068 116.122 702.434 116.122ZM707.683 116.122C706.947 116.122 706.358 115.886 705.915 115.414C705.476 114.939 705.256 114.271 705.256 113.412C705.256 112.549 705.476 111.882 705.915 111.41C706.358 110.938 706.947 110.702 707.683 110.702C708.249 110.702 708.721 110.845 709.099 111.132C709.479 111.418 709.704 111.832 709.772 112.372H708.825C708.812 112.063 708.695 111.827 708.474 111.664C708.256 111.501 707.992 111.42 707.683 111.42C707.243 111.42 706.887 111.588 706.613 111.923C706.34 112.255 706.203 112.751 706.203 113.412C706.203 114.07 706.34 114.566 706.613 114.901C706.887 115.233 707.243 115.399 707.683 115.399C707.992 115.399 708.256 115.318 708.474 115.155C708.695 114.993 708.812 114.758 708.825 114.452H709.772C709.704 114.993 709.479 115.406 709.099 115.692C708.721 115.979 708.249 116.122 707.683 116.122ZM711.506 116H710.583V110.819H711.506V116ZM711.506 109.838H710.583V108.842H711.506V109.838ZM714.968 110.702C715.707 110.702 716.296 110.938 716.735 111.41C717.178 111.882 717.399 112.549 717.399 113.412C717.399 114.271 717.178 114.939 716.735 115.414C716.296 115.886 715.707 116.122 714.968 116.122C714.232 116.122 713.643 115.886 713.2 115.414C712.761 114.939 712.541 114.271 712.541 113.412C712.541 112.549 712.761 111.882 713.2 111.41C713.643 110.938 714.232 110.702 714.968 110.702ZM714.968 115.399C715.407 115.399 715.764 115.233 716.037 114.901C716.311 114.566 716.447 114.07 716.447 113.412C716.447 112.751 716.311 112.255 716.037 111.923C715.764 111.588 715.407 111.42 714.968 111.42C714.528 111.42 714.172 111.588 713.898 111.923C713.625 112.255 713.488 112.751 713.488 113.412C713.488 114.07 713.625 114.566 713.898 114.901C714.172 115.233 714.528 115.399 714.968 115.399ZM721.716 115.341C721.257 115.862 720.741 116.122 720.168 116.122C718.999 116.122 718.415 115.484 718.415 114.208V110.819H719.338V114.169C719.338 114.592 719.413 114.896 719.562 115.082C719.712 115.268 719.96 115.36 720.305 115.36C720.819 115.36 721.289 115.084 721.716 114.53V110.819H722.634V116H721.716V115.341ZM725.852 116.122C724.436 116.122 723.695 115.565 723.63 114.452H724.553C724.559 115.084 724.989 115.399 725.842 115.399C726.223 115.399 726.512 115.321 726.711 115.165C726.913 115.006 727.014 114.807 727.014 114.569C727.014 114.335 726.916 114.171 726.721 114.076C726.525 113.979 726.122 113.853 725.51 113.7C724.901 113.547 724.455 113.376 724.172 113.188C723.892 112.999 723.752 112.667 723.752 112.191C723.752 111.762 723.926 111.407 724.274 111.127C724.626 110.844 725.095 110.702 725.681 110.702C727.038 110.702 727.731 111.186 727.761 112.152H726.843C726.81 111.664 726.444 111.42 725.744 111.42C725.435 111.42 725.178 111.479 724.973 111.596C724.771 111.713 724.67 111.884 724.67 112.108C724.67 112.31 724.748 112.457 724.904 112.548C725.061 112.636 725.451 112.756 726.076 112.909C726.704 113.059 727.17 113.235 727.473 113.437C727.779 113.638 727.932 113.987 727.932 114.481C727.932 114.953 727.743 115.346 727.365 115.658C726.991 115.967 726.486 116.122 725.852 116.122ZM729.924 111.479C730.383 110.961 730.899 110.702 731.472 110.702C732.64 110.702 733.225 111.339 733.225 112.611V116H732.302V112.65C732.302 112.227 732.225 111.923 732.072 111.737C731.923 111.552 731.675 111.459 731.33 111.459C730.861 111.459 730.393 111.736 729.924 112.289V116H729.001V110.819H729.924V111.479ZM736.77 116.122C736.008 116.122 735.396 115.884 734.934 115.409C734.471 114.931 734.24 114.265 734.24 113.412C734.24 112.566 734.463 111.903 734.909 111.425C735.358 110.943 735.944 110.702 736.667 110.702C737.406 110.702 737.995 110.938 738.435 111.41C738.877 111.882 739.099 112.549 739.099 113.412V113.632H735.197C735.236 114.231 735.401 114.675 735.69 114.965C735.983 115.255 736.343 115.399 736.77 115.399C737.092 115.399 737.382 115.318 737.639 115.155C737.899 114.989 738.036 114.755 738.049 114.452H739.001C738.929 114.986 738.687 115.398 738.273 115.688C737.863 115.977 737.362 116.122 736.77 116.122ZM738.127 112.909C738.052 112.411 737.884 112.038 737.624 111.791C737.364 111.544 737.045 111.42 736.667 111.42C736.299 111.42 735.983 111.544 735.72 111.791C735.456 112.035 735.288 112.408 735.217 112.909H738.127ZM741.984 116.122C740.568 116.122 739.828 115.565 739.763 114.452H740.686C740.692 115.084 741.122 115.399 741.975 115.399C742.355 115.399 742.645 115.321 742.844 115.165C743.046 115.006 743.146 114.807 743.146 114.569C743.146 114.335 743.049 114.171 742.854 114.076C742.658 113.979 742.255 113.853 741.643 113.7C741.034 113.547 740.588 113.376 740.305 113.188C740.025 112.999 739.885 112.667 739.885 112.191C739.885 111.762 740.059 111.407 740.407 111.127C740.759 110.844 741.228 110.702 741.813 110.702C743.171 110.702 743.864 111.186 743.894 112.152H742.976C742.943 111.664 742.577 111.42 741.877 111.42C741.568 111.42 741.311 111.479 741.105 111.596C740.904 111.713 740.803 111.884 740.803 112.108C740.803 112.31 740.881 112.457 741.037 112.548C741.193 112.636 741.584 112.756 742.209 112.909C742.837 113.059 743.303 113.235 743.605 113.437C743.911 113.638 744.064 113.987 744.064 114.481C744.064 114.953 743.876 115.346 743.498 115.658C743.124 115.967 742.619 116.122 741.984 116.122ZM746.984 116.122C745.568 116.122 744.828 115.565 744.763 114.452H745.686C745.692 115.084 746.122 115.399 746.975 115.399C747.355 115.399 747.645 115.321 747.844 115.165C748.046 115.006 748.146 114.807 748.146 114.569C748.146 114.335 748.049 114.171 747.854 114.076C747.658 113.979 747.255 113.853 746.643 113.7C746.034 113.547 745.588 113.376 745.305 113.188C745.025 112.999 744.885 112.667 744.885 112.191C744.885 111.762 745.059 111.407 745.407 111.127C745.759 110.844 746.228 110.702 746.813 110.702C748.171 110.702 748.864 111.186 748.894 112.152H747.976C747.943 111.664 747.577 111.42 746.877 111.42C746.568 111.42 746.311 111.479 746.105 111.596C745.904 111.713 745.803 111.884 745.803 112.108C745.803 112.31 745.881 112.457 746.037 112.548C746.193 112.636 746.584 112.756 747.209 112.909C747.837 113.059 748.303 113.235 748.605 113.437C748.911 113.638 749.064 113.987 749.064 114.481C749.064 114.953 748.876 115.346 748.498 115.658C748.124 115.967 747.619 116.122 746.984 116.122Z" fill="black"/>
<g clip-path="url(#clip0)">
<path d="M740.285 49.3146C740.091 48.7828 739.508 48.512 738.984 48.7089C738.46 48.906 738.193 49.4969 738.387 50.0286C739.411 52.8285 739.93 55.2288 739.93 57.163C739.93 70.8288 728.971 81.9466 715.5 81.9466C702.03 81.9466 691.07 70.8288 691.07 57.163C691.07 52.7633 693.657 46.2308 698.758 37.7467C699.049 37.2626 698.898 36.6308 698.421 36.3355C697.943 36.0401 697.321 36.1931 697.03 36.6775C691.732 45.4882 689.046 52.3807 689.046 57.163C689.046 71.9611 700.913 84.0002 715.5 84.0002C730.087 84.0002 741.954 71.9611 741.954 57.163C741.954 54.9843 741.392 52.3438 740.285 49.3146V49.3146Z" fill="black"/>
<path d="M699.711 34.2695C699.882 34.383 700.074 34.4373 700.265 34.4373C700.595 34.4373 700.918 34.2738 701.112 33.9727C705.412 27.3089 710.1 21.1379 713.275 17.1347C713.82 16.4476 714.631 16.0536 715.5 16.0536C716.369 16.0536 717.18 16.4476 717.725 17.1347C720.166 20.212 723.845 25.0098 727.511 30.3915C727.829 30.858 728.459 30.9749 728.919 30.6525C729.379 30.3301 729.494 29.6906 729.176 29.224C725.476 23.7915 721.764 18.9513 719.302 15.8474C718.37 14.6733 716.985 14 715.5 14C714.015 14 712.63 14.6733 711.698 15.8474C708.494 19.8865 703.763 26.1146 699.419 32.8481C699.113 33.3225 699.244 33.959 699.711 34.2695V34.2695Z" fill="black"/>
<path d="M714.488 48.1265V52.8961C712.835 50.7865 710.286 49.4299 707.43 49.4299H700.353C698.939 49.4299 697.789 50.5966 697.789 52.0307V57.5968C697.789 62.6395 701.833 66.7423 706.804 66.7423H714.488V76.4319C714.488 76.999 714.941 77.4587 715.5 77.4587C716.059 77.4587 716.512 76.999 716.512 76.4319V71.6551H719.774C723.33 71.6551 726.222 68.7208 726.222 65.1141V63.1806C726.222 62.172 725.413 61.3515 724.419 61.3515H720.936C719.224 61.3515 717.668 62.0328 716.512 63.1403V56.0141H723.532C727.264 56.0141 730.845 54.6185 733.615 52.0844C734.03 51.7046 734.063 51.0553 733.689 50.6341C733.315 50.213 732.675 50.1798 732.26 50.5593C729.862 52.7526 726.763 53.9604 723.532 53.9604H718.051L736.57 36.2655V40.7335C736.57 42.9942 735.997 45.2259 734.914 47.1877C734.641 47.6823 734.815 48.3081 735.302 48.5852C735.79 48.8623 736.407 48.686 736.68 48.1914C737.932 45.9238 738.594 43.345 738.594 40.7335V35.0776C738.594 33.8472 737.607 32.8462 736.395 32.8462H729.55C721.245 32.8462 714.488 39.7008 714.488 48.1265V48.1265ZM699.814 57.5968V52.788L706.574 58.9823C706.768 59.1597 707.01 59.247 707.252 59.247C707.528 59.247 707.804 59.1329 708.003 58.9085C708.378 58.4876 708.345 57.8384 707.931 57.4583L701.41 51.4836H707.43C711.284 51.4836 714.42 54.665 714.42 58.5755V63.4045L711.132 60.3914C710.717 60.0115 710.077 60.0442 709.702 60.4652C709.328 60.8861 709.36 61.5353 709.775 61.9154L712.802 64.6888H706.804C702.95 64.6886 699.814 61.5072 699.814 57.5968V57.5968ZM720.936 63.4051H724.197V65.1141C724.197 67.5885 722.213 69.6015 719.774 69.6015H716.512V67.8925C716.512 65.4181 718.496 63.4051 720.936 63.4051V63.4051ZM729.55 34.8998H735.047L716.512 52.6097V48.1265C716.512 40.8332 722.361 34.8998 729.55 34.8998V34.8998Z" fill="#1A90B1"/>
</g>
<defs>
<clipPath id="clip0">
<rect width="69" height="70" fill="white" transform="translate(681 14)"/>
</clipPath>
</defs>
</svg>
