<svg width="791" height="135" viewBox="0 0 791 135" fill="none" xmlns="http://www.w3.org/2000/svg">
<path d="M696.485 101.842H699.156C699.742 101.842 700.232 101.897 700.625 102.008C701.023 102.115 701.337 102.351 701.568 102.716C701.799 103.077 701.914 103.482 701.914 103.932C701.914 104.654 701.685 105.203 701.226 105.577C700.767 105.951 700.103 106.139 699.234 106.139H697.432V109H696.485V101.842ZM697.432 105.289H699.244C699.852 105.289 700.285 105.175 700.542 104.947C700.803 104.719 700.933 104.391 700.933 103.961C700.933 103.674 700.861 103.421 700.718 103.199C700.575 102.978 700.393 102.838 700.171 102.779C699.953 102.721 699.637 102.691 699.224 102.691H697.432V105.289ZM706.323 104.659C706.193 104.62 706.006 104.601 705.762 104.601C705.293 104.601 704.891 104.846 704.555 105.338V109H703.633V103.819H704.555V104.542C704.943 103.982 705.392 103.702 705.903 103.702C706.033 103.702 706.173 103.715 706.323 103.741V104.659ZM709.662 103.702C710.401 103.702 710.99 103.938 711.43 104.41C711.873 104.882 712.094 105.549 712.094 106.412C712.094 107.271 711.873 107.939 711.43 108.414C710.99 108.886 710.401 109.122 709.662 109.122C708.927 109.122 708.337 108.886 707.895 108.414C707.455 107.939 707.236 107.271 707.236 106.412C707.236 105.549 707.455 104.882 707.895 104.41C708.337 103.938 708.927 103.702 709.662 103.702ZM709.662 108.399C710.102 108.399 710.458 108.233 710.732 107.901C711.005 107.566 711.142 107.07 711.142 106.412C711.142 105.751 711.005 105.255 710.732 104.923C710.458 104.588 710.102 104.42 709.662 104.42C709.223 104.42 708.866 104.588 708.593 104.923C708.32 105.255 708.183 105.751 708.183 106.412C708.183 107.07 708.32 107.566 708.593 107.901C708.866 108.233 709.223 108.399 709.662 108.399ZM715.741 109.01C715.539 109.049 715.319 109.068 715.082 109.068C714.704 109.068 714.427 109.002 714.252 108.868C714.076 108.731 713.967 108.557 713.924 108.346C713.882 108.134 713.861 107.846 713.861 107.481V104.542H713.221V103.819H713.861V102.53H714.779V103.819H715.619V104.542H714.779V107.53C714.779 107.885 714.823 108.111 714.911 108.209C715.002 108.303 715.126 108.351 715.282 108.351C715.441 108.351 715.594 108.338 715.741 108.312V109.01ZM719.212 103.702C719.951 103.702 720.54 103.938 720.979 104.41C721.422 104.882 721.644 105.549 721.644 106.412C721.644 107.271 721.422 107.939 720.979 108.414C720.54 108.886 719.951 109.122 719.212 109.122C718.476 109.122 717.887 108.886 717.444 108.414C717.005 107.939 716.785 107.271 716.785 106.412C716.785 105.549 717.005 104.882 717.444 104.41C717.887 103.938 718.476 103.702 719.212 103.702ZM719.212 108.399C719.651 108.399 720.008 108.233 720.281 107.901C720.555 107.566 720.691 107.07 720.691 106.412C720.691 105.751 720.555 105.255 720.281 104.923C720.008 104.588 719.651 104.42 719.212 104.42C718.772 104.42 718.416 104.588 718.143 104.923C717.869 105.255 717.732 105.751 717.732 106.412C717.732 107.07 717.869 107.566 718.143 107.901C718.416 108.233 718.772 108.399 719.212 108.399ZM725.29 109.01C725.089 109.049 724.869 109.068 724.631 109.068C724.254 109.068 723.977 109.002 723.801 108.868C723.625 108.731 723.516 108.557 723.474 108.346C723.432 108.134 723.411 107.846 723.411 107.481V104.542H722.771V103.819H723.411V102.53H724.329V103.819H725.168V104.542H724.329V107.53C724.329 107.885 724.372 108.111 724.46 108.209C724.551 108.303 724.675 108.351 724.831 108.351C724.991 108.351 725.144 108.338 725.29 108.312V109.01ZM726.955 110.25C727.411 110.25 727.783 109.833 728.073 109L726.115 103.819H727.111L728.483 107.872L729.855 103.819H730.851L728.893 109C728.705 109.495 728.543 109.876 728.41 110.143C728.28 110.413 728.107 110.639 727.892 110.821C727.681 111.007 727.42 111.1 727.111 111.1C726.88 111.1 726.681 111.077 726.515 111.031V110.182C726.659 110.227 726.805 110.25 726.955 110.25ZM733.185 104.439C733.595 103.948 734.088 103.702 734.664 103.702C735.341 103.702 735.865 103.943 736.237 104.425C736.608 104.903 736.793 105.551 736.793 106.368C736.793 107.218 736.585 107.89 736.168 108.385C735.755 108.876 735.232 109.122 734.601 109.122C734.041 109.122 733.569 108.948 733.185 108.6V110.992H732.262V103.819H733.185V104.439ZM733.185 107.77C733.579 108.189 734.031 108.399 734.542 108.399C734.939 108.399 735.255 108.23 735.489 107.892C735.724 107.55 735.841 107.042 735.841 106.368C735.841 105.73 735.73 105.247 735.509 104.918C735.288 104.586 734.978 104.42 734.581 104.42C734.07 104.42 733.605 104.716 733.185 105.309V107.77ZM740.63 109.122C739.869 109.122 739.257 108.884 738.795 108.409C738.332 107.931 738.101 107.265 738.101 106.412C738.101 105.566 738.324 104.903 738.77 104.425C739.219 103.943 739.805 103.702 740.528 103.702C741.267 103.702 741.856 103.938 742.296 104.41C742.738 104.882 742.96 105.549 742.96 106.412V106.632H739.058C739.097 107.231 739.262 107.675 739.551 107.965C739.844 108.255 740.204 108.399 740.63 108.399C740.953 108.399 741.242 108.318 741.5 108.155C741.76 107.989 741.897 107.755 741.91 107.452H742.862C742.79 107.986 742.548 108.398 742.134 108.688C741.724 108.977 741.223 109.122 740.63 109.122ZM741.988 105.909C741.913 105.411 741.745 105.038 741.485 104.791C741.225 104.544 740.906 104.42 740.528 104.42C740.16 104.42 739.844 104.544 739.581 104.791C739.317 105.035 739.149 105.408 739.078 105.909H741.988Z" fill="black"/>
<path d="M735.039 18H704.961C702.134 18 699.834 20.2999 699.834 23.127V82.873C699.834 85.7001 702.134 88 704.961 88H735.039C737.866 88 740.166 85.7001 740.166 82.873V23.127C740.166 20.2999 737.866 18 735.039 18ZM738.115 73.6445H709.062C708.496 73.6445 708.037 74.1036 708.037 74.6699C708.037 75.2362 708.496 75.6953 709.062 75.6953H738.115V82.873C738.115 84.5693 736.735 85.9492 735.039 85.9492H704.961C703.265 85.9492 701.885 84.5693 701.885 82.873V75.6953H704.961C705.527 75.6953 705.986 75.2362 705.986 74.6699C705.986 74.1036 705.527 73.6445 704.961 73.6445H701.885V28.2539H738.115V73.6445ZM738.115 26.2031H701.885V23.127C701.885 21.4307 703.265 20.0508 704.961 20.0508H735.039C736.735 20.0508 738.115 21.4307 738.115 23.127V26.2031Z" fill="black"/>
<path d="M724.102 22.1016H720C719.434 22.1016 718.975 22.5607 718.975 23.127C718.975 23.6932 719.434 24.1523 720 24.1523H724.102C724.668 24.1523 725.127 23.6932 725.127 23.127C725.127 22.5607 724.668 22.1016 724.102 22.1016Z" fill="black"/>
<path d="M720 77.7461C718.304 77.7461 716.924 79.126 716.924 80.8223C716.924 82.5185 718.304 83.8984 720 83.8984C721.696 83.8984 723.076 82.5185 723.076 80.8223C723.076 79.126 721.696 77.7461 720 77.7461ZM720 81.8477C719.435 81.8477 718.975 81.3877 718.975 80.8223C718.975 80.2568 719.435 79.7969 720 79.7969C720.565 79.7969 721.025 80.2568 721.025 80.8223C721.025 81.3877 720.565 81.8477 720 81.8477Z" fill="black"/>
<path d="M715.898 24.1523C716.465 24.1523 716.924 23.6933 716.924 23.127C716.924 22.5606 716.465 22.1016 715.898 22.1016C715.332 22.1016 714.873 22.5606 714.873 23.127C714.873 23.6933 715.332 24.1523 715.898 24.1523Z" fill="black"/>
<g clip-path="url(#clip0)">
<path d="M430 65.0093L413.598 47.5186V58.8565H407C407.694 56.8904 408.5 54.6048 408.5 52.5C408.5 42.3221 401.215 34.2454 391.037 34.2454C380.859 34.2454 372.579 42.5258 372.579 52.7037C372.579 54.8602 372.952 56.9311 373.635 58.8565H360V71.1621H413.598V82.5L430 65.0093ZM362.5 68.72V61.22H374.5C375.5 63.72 378 67.22 381.5 68.72H362.5ZM388.5 68.72C380.584 68.72 375 60.6199 375 52.7037C375 44.7876 381.5 36 391.037 36.5C398.953 36.5 406.5 43.239 406.5 52.5C406.5 54.636 405.407 56.9442 404.5 58.8565H397C399 57.5 400 55.0105 400 52.7037C400 48 397.051 43.72 391.037 43.72C385.5 43.72 382 47.5186 382 52.22C382 57.8744 385.383 61.22 391.037 61.22H416V53.72L426.5 65.0093L416 76.72V68.72H388.5ZM391.037 58.8565C387 58.8565 384.5 56.0964 384.5 52.7037C384.5 48 387.5 46 391.037 46C395 46 397.5 49.1074 397.5 52.5C397.5 55.8926 394.43 58.8565 391.037 58.8565Z" fill="black"/>
<path d="M388.986 22.7198H391.036V30.9236H388.986V22.7198Z" fill="#1A90B1"/>
<path d="M377.374 25.8413L379.273 25.0544L382.415 32.6346L380.516 33.4215L377.374 25.8413Z" fill="#1A90B1"/>
<path d="M367.831 33.1803L369.285 31.7272L375.085 37.5272L373.631 38.9803L367.831 33.1803Z" fill="#1A90B1"/>
<path d="M397.789 31.8545L400.931 24.2743L402.825 25.0592L399.683 32.6395L397.789 31.8545Z" fill="#1A90B1"/>
<path d="M405.533 36.0845L411.333 30.2845L412.783 31.734L406.983 37.534L405.533 36.0845Z" fill="#1A90B1"/>
</g>
<path d="M376.855 109H375.903V101.842H376.855V109ZM381.058 109.01C380.857 109.049 380.637 109.068 380.399 109.068C380.022 109.068 379.745 109.002 379.569 108.868C379.393 108.731 379.284 108.557 379.242 108.346C379.2 108.134 379.179 107.846 379.179 107.481V104.542H378.539V103.819H379.179V102.53H380.096V103.819H380.936V104.542H380.096V107.53C380.096 107.885 380.14 108.111 380.228 108.209C380.319 108.303 380.443 108.351 380.599 108.351C380.759 108.351 380.912 108.338 381.058 108.312V109.01ZM384.632 109.122C383.87 109.122 383.258 108.884 382.796 108.409C382.334 107.931 382.103 107.265 382.103 106.412C382.103 105.566 382.326 104.903 382.772 104.425C383.221 103.943 383.807 103.702 384.529 103.702C385.268 103.702 385.858 103.938 386.297 104.41C386.74 104.882 386.961 105.549 386.961 106.412V106.632H383.06C383.099 107.231 383.263 107.675 383.553 107.965C383.846 108.255 384.206 108.399 384.632 108.399C384.954 108.399 385.244 108.318 385.501 108.155C385.762 107.989 385.898 107.755 385.911 107.452H386.863C386.792 107.986 386.549 108.398 386.136 108.688C385.726 108.977 385.224 109.122 384.632 109.122ZM385.989 105.909C385.915 105.411 385.747 105.038 385.487 104.791C385.226 104.544 384.907 104.42 384.529 104.42C384.162 104.42 383.846 104.544 383.582 104.791C383.319 105.035 383.151 105.408 383.079 105.909H385.989ZM391.287 104.659C391.157 104.62 390.969 104.601 390.725 104.601C390.256 104.601 389.854 104.846 389.519 105.338V109H388.596V103.819H389.519V104.542C389.907 103.982 390.356 103.702 390.867 103.702C390.997 103.702 391.137 103.715 391.287 103.741V104.659ZM395.808 107.638V106.49H395.178C393.843 106.49 393.176 106.853 393.176 107.579C393.176 107.843 393.273 108.046 393.469 108.189C393.664 108.329 393.928 108.399 394.26 108.399C394.562 108.399 394.855 108.331 395.139 108.194C395.422 108.058 395.645 107.872 395.808 107.638ZM395.808 108.468C395.339 108.904 394.735 109.122 393.996 109.122C393.482 109.122 393.059 108.984 392.727 108.707C392.395 108.427 392.229 108.067 392.229 107.628C392.229 106.417 393.272 105.812 395.358 105.812H395.808C395.808 105.44 395.788 105.172 395.749 105.006C395.71 104.837 395.601 104.697 395.422 104.586C395.243 104.475 394.958 104.42 394.567 104.42C393.747 104.42 393.324 104.713 393.298 105.299H392.38C392.448 104.234 393.194 103.702 394.616 103.702C395.28 103.702 395.798 103.834 396.169 104.098C396.54 104.361 396.726 104.879 396.726 105.65V109H395.808V108.468ZM400.704 109.01C400.503 109.049 400.283 109.068 400.045 109.068C399.668 109.068 399.391 109.002 399.215 108.868C399.039 108.731 398.93 108.557 398.888 108.346C398.846 108.134 398.825 107.846 398.825 107.481V104.542H398.185V103.819H398.825V102.53H399.743V103.819H400.582V104.542H399.743V107.53C399.743 107.885 399.787 108.111 399.874 108.209C399.966 108.303 400.089 108.351 400.246 108.351C400.405 108.351 400.558 108.338 400.704 108.312V109.01ZM402.999 109H402.076V103.819H402.999V109ZM402.999 102.838H402.076V101.842H402.999V102.838ZM407.061 103.702C407.8 103.702 408.389 103.938 408.828 104.41C409.271 104.882 409.492 105.549 409.492 106.412C409.492 107.271 409.271 107.939 408.828 108.414C408.389 108.886 407.8 109.122 407.061 109.122C406.325 109.122 405.736 108.886 405.293 108.414C404.854 107.939 404.634 107.271 404.634 106.412C404.634 105.549 404.854 104.882 405.293 104.41C405.736 103.938 406.325 103.702 407.061 103.702ZM407.061 108.399C407.5 108.399 407.857 108.233 408.13 107.901C408.404 107.566 408.54 107.07 408.54 106.412C408.54 105.751 408.404 105.255 408.13 104.923C407.857 104.588 407.5 104.42 407.061 104.42C406.621 104.42 406.265 104.588 405.991 104.923C405.718 105.255 405.581 105.751 405.581 106.412C405.581 107.07 405.718 107.566 405.991 107.901C406.265 108.233 406.621 108.399 407.061 108.399ZM412.05 104.479C412.509 103.961 413.025 103.702 413.598 103.702C414.767 103.702 415.351 104.339 415.351 105.611V109H414.428V105.65C414.428 105.227 414.352 104.923 414.199 104.737C414.049 104.552 413.802 104.459 413.457 104.459C412.988 104.459 412.519 104.736 412.05 105.289V109H411.128V103.819H412.05V104.479Z" fill="black"/>
<path d="M529.478 109.122C528.648 109.122 528.026 108.961 527.613 108.639C527.203 108.316 526.943 107.937 526.832 107.501C526.724 107.065 526.671 106.559 526.671 105.982V101.842H527.618V105.968C527.618 106.909 527.776 107.527 528.092 107.823C528.407 108.119 528.87 108.268 529.478 108.268C530.087 108.268 530.549 108.119 530.865 107.823C531.181 107.527 531.339 106.909 531.339 105.968V101.842H532.291V105.982C532.291 106.848 532.187 107.486 531.978 107.896C531.773 108.307 531.462 108.614 531.046 108.819C530.629 109.021 530.107 109.122 529.478 109.122ZM536.226 109.122C534.81 109.122 534.069 108.565 534.004 107.452H534.927C534.933 108.084 535.363 108.399 536.216 108.399C536.597 108.399 536.887 108.321 537.085 108.165C537.287 108.006 537.388 107.807 537.388 107.569C537.388 107.335 537.29 107.171 537.095 107.076C536.9 106.979 536.496 106.853 535.884 106.7C535.275 106.547 534.829 106.376 534.546 106.188C534.266 105.999 534.126 105.667 534.126 105.191C534.126 104.762 534.3 104.407 534.649 104.127C535 103.844 535.469 103.702 536.055 103.702C537.412 103.702 538.106 104.186 538.135 105.152H537.217C537.184 104.664 536.818 104.42 536.118 104.42C535.809 104.42 535.552 104.479 535.347 104.596C535.145 104.713 535.044 104.884 535.044 105.108C535.044 105.31 535.122 105.457 535.279 105.548C535.435 105.636 535.825 105.756 536.45 105.909C537.079 106.059 537.544 106.235 537.847 106.437C538.153 106.638 538.306 106.987 538.306 107.481C538.306 107.953 538.117 108.346 537.739 108.658C537.365 108.967 536.861 109.122 536.226 109.122ZM542.177 109.122C541.416 109.122 540.804 108.884 540.341 108.409C539.879 107.931 539.648 107.265 539.648 106.412C539.648 105.566 539.871 104.903 540.317 104.425C540.766 103.943 541.352 103.702 542.075 103.702C542.814 103.702 543.403 103.938 543.842 104.41C544.285 104.882 544.506 105.549 544.506 106.412V106.632H540.605C540.644 107.231 540.809 107.675 541.098 107.965C541.391 108.255 541.751 108.399 542.177 108.399C542.5 108.399 542.789 108.318 543.046 108.155C543.307 107.989 543.444 107.755 543.457 107.452H544.409C544.337 107.986 544.095 108.398 543.681 108.688C543.271 108.977 542.77 109.122 542.177 109.122ZM543.535 105.909C543.46 105.411 543.292 105.038 543.032 104.791C542.771 104.544 542.452 104.42 542.075 104.42C541.707 104.42 541.391 104.544 541.128 104.791C540.864 105.035 540.696 105.408 540.625 105.909H543.535ZM548.832 104.659C548.702 104.62 548.515 104.601 548.271 104.601C547.802 104.601 547.4 104.846 547.064 105.338V109H546.142V103.819H547.064V104.542C547.452 103.982 547.901 103.702 548.412 103.702C548.542 103.702 548.682 103.715 548.832 103.741V104.659ZM558.538 102.691H556.17V109H555.218V102.691H552.869V101.842H558.538V102.691ZM562.243 109.122C561.482 109.122 560.87 108.884 560.407 108.409C559.945 107.931 559.714 107.265 559.714 106.412C559.714 105.566 559.937 104.903 560.383 104.425C560.832 103.943 561.418 103.702 562.141 103.702C562.88 103.702 563.469 103.938 563.908 104.41C564.351 104.882 564.572 105.549 564.572 106.412V106.632H560.671C560.71 107.231 560.875 107.675 561.164 107.965C561.457 108.255 561.817 108.399 562.243 108.399C562.566 108.399 562.855 108.318 563.112 108.155C563.373 107.989 563.51 107.755 563.523 107.452H564.475C564.403 107.986 564.161 108.398 563.747 108.688C563.337 108.977 562.836 109.122 562.243 109.122ZM563.601 105.909C563.526 105.411 563.358 105.038 563.098 104.791C562.837 104.544 562.518 104.42 562.141 104.42C561.773 104.42 561.457 104.544 561.194 104.791C560.93 105.035 560.762 105.408 560.691 105.909H563.601ZM568.058 109.122C566.642 109.122 565.902 108.565 565.837 107.452H566.759C566.766 108.084 567.196 108.399 568.048 108.399C568.429 108.399 568.719 108.321 568.918 108.165C569.119 108.006 569.22 107.807 569.22 107.569C569.22 107.335 569.123 107.171 568.927 107.076C568.732 106.979 568.328 106.853 567.716 106.7C567.108 106.547 566.662 106.376 566.379 106.188C566.099 105.999 565.959 105.667 565.959 105.191C565.959 104.762 566.133 104.407 566.481 104.127C566.833 103.844 567.301 103.702 567.887 103.702C569.245 103.702 569.938 104.186 569.967 105.152H569.049C569.017 104.664 568.651 104.42 567.951 104.42C567.642 104.42 567.384 104.479 567.179 104.596C566.977 104.713 566.877 104.884 566.877 105.108C566.877 105.31 566.955 105.457 567.111 105.548C567.267 105.636 567.658 105.756 568.283 105.909C568.911 106.059 569.377 106.235 569.679 106.437C569.985 106.638 570.138 106.987 570.138 107.481C570.138 107.953 569.949 108.346 569.572 108.658C569.198 108.967 568.693 109.122 568.058 109.122ZM573.819 109.01C573.618 109.049 573.398 109.068 573.16 109.068C572.783 109.068 572.506 109.002 572.33 108.868C572.154 108.731 572.045 108.557 572.003 108.346C571.961 108.134 571.939 107.846 571.939 107.481V104.542H571.3V103.819H571.939V102.53H572.857V103.819H573.697V104.542H572.857V107.53C572.857 107.885 572.901 108.111 572.989 108.209C573.08 108.303 573.204 108.351 573.36 108.351C573.52 108.351 573.673 108.338 573.819 108.312V109.01ZM576.114 109H575.191V103.819H576.114V109ZM576.114 102.838H575.191V101.842H576.114V102.838ZM578.999 104.479C579.458 103.961 579.974 103.702 580.547 103.702C581.715 103.702 582.3 104.339 582.3 105.611V109H581.377V105.65C581.377 105.227 581.3 104.923 581.147 104.737C580.998 104.552 580.75 104.459 580.405 104.459C579.936 104.459 579.468 104.736 578.999 105.289V109H578.076V103.819H578.999V104.479ZM588.442 108.6C588.442 110.266 587.69 111.1 586.186 111.1C585.535 111.1 585.02 110.958 584.643 110.675C584.268 110.392 584.081 110.011 584.081 109.532H585.033C585.033 110.099 585.414 110.382 586.176 110.382C586.606 110.382 586.938 110.263 587.172 110.025C587.406 109.791 587.524 109.329 587.524 108.639V108.38C587.113 108.875 586.62 109.122 586.044 109.122C585.367 109.122 584.843 108.881 584.472 108.399C584.101 107.918 583.915 107.268 583.915 106.451C583.915 105.605 584.122 104.936 584.535 104.444C584.952 103.95 585.474 103.702 586.103 103.702C586.663 103.702 587.136 103.875 587.524 104.22V103.819H588.442V108.6ZM587.524 107.511V105.05C587.127 104.63 586.672 104.42 586.161 104.42C585.767 104.42 585.452 104.591 585.214 104.933C584.98 105.271 584.863 105.777 584.863 106.451C584.863 107.089 584.973 107.574 585.195 107.906C585.419 108.235 585.728 108.399 586.122 108.399C586.637 108.399 587.104 108.103 587.524 107.511Z" fill="black"/>
<g clip-path="url(#clip1)">
<path d="M546.505 72.3561C547.123 71.2558 547.477 69.9884 547.477 68.6392V65.5141C547.477 61.314 544.06 57.897 539.859 57.897C535.659 57.897 532.242 61.314 532.242 65.5141V68.6392C532.242 69.9884 532.596 71.2559 533.214 72.3562C529.693 74.6151 527.555 78.4678 527.555 82.7016V86.6329C527.555 87.388 528.167 88.0001 528.922 88.0001H550.797C551.552 88.0001 552.164 87.388 552.164 86.6329V82.7016C552.164 78.4692 550.026 74.6151 546.505 72.3561ZM534.977 65.5141C534.977 62.8217 537.167 60.6313 539.859 60.6313C542.552 60.6313 544.742 62.8217 544.742 65.5141V68.6392C544.742 71.3316 542.552 73.522 539.859 73.522C537.167 73.522 534.976 71.3316 534.976 68.6392V65.5141H534.977ZM549.43 85.2657H530.289V82.7016C530.289 79.2988 532.068 76.2111 534.978 74.4807C536.301 75.5881 538.003 76.2564 539.859 76.2564C541.716 76.2564 543.418 75.5881 544.741 74.4807C547.65 76.2113 549.43 79.3 549.43 82.7016V85.2657Z" fill="black"/>
<path d="M563.475 44.2955C564.058 43.4204 565.192 42.2469 566.224 41.2143C567.184 40.2549 567.937 39.13 568.463 37.871C568.988 36.6138 569.254 35.2905 569.254 33.938C569.254 31.1995 568.187 28.6245 566.25 26.6876C564.313 24.7507 561.739 23.6842 559 23.6842C556.261 23.6842 553.686 24.7509 551.75 26.6876C549.813 28.6245 548.746 31.1994 548.746 33.938C548.746 36.1996 550.586 38.0395 552.848 38.0395C555.109 38.0395 556.949 36.1996 556.949 33.938C556.949 33.39 557.162 32.875 557.55 32.4878C557.937 32.1005 558.452 31.8873 559 31.8873C559.548 31.8873 560.063 32.1006 560.45 32.4878C560.838 32.875 561.051 33.39 561.051 33.938C561.051 34.2165 560.999 34.4806 560.898 34.7236C560.795 34.9707 560.635 35.2032 560.424 35.4141C558.56 37.2783 557.466 38.5399 556.649 39.7687C555.455 41.5635 554.898 43.2663 554.898 45.1274C554.898 46.1772 555.295 47.1357 555.946 47.8619C555.295 48.5883 554.898 49.5471 554.898 50.5974C554.898 52.859 556.738 54.699 559 54.699C561.262 54.699 563.102 52.859 563.102 50.5974V50.5963C563.102 49.5466 562.705 48.5881 562.054 47.8619C562.705 47.1357 563.102 46.1772 563.102 45.1276C563.102 45.0041 563.167 44.7598 563.475 44.2955ZM558.925 41.2833C559.636 40.2154 560.63 39.0752 562.358 37.3476C562.822 36.8833 563.18 36.3549 563.421 35.7774C563.663 35.1991 563.785 34.5801 563.785 33.9378C563.785 32.6594 563.288 31.4578 562.384 30.554C561.48 29.6505 560.278 29.1527 559 29.1527C557.722 29.1527 556.52 29.6503 555.616 30.554C554.713 31.4578 554.215 32.6594 554.215 33.9378C554.215 34.6917 553.602 35.305 552.848 35.305C552.094 35.305 551.481 34.6917 551.481 33.9378C551.481 31.9296 552.263 30.0413 553.683 28.621C555.104 27.2006 556.992 26.4183 559 26.4183C561.008 26.4183 562.897 27.2006 564.317 28.6208C565.737 30.0414 566.52 31.9296 566.52 33.9377C566.52 34.9266 566.324 35.8952 565.94 36.8169C565.552 37.7456 564.997 38.5745 564.291 39.2807C562.671 40.9005 561.775 41.9145 561.199 42.7807C560.632 43.6334 560.367 44.379 560.367 45.1273C560.367 45.8812 559.754 46.4945 559 46.4945C558.246 46.4945 557.633 45.8812 557.633 45.1273C557.633 43.8122 558.032 42.6267 558.925 41.2833V41.2833ZM560.367 50.5973C560.367 51.3511 559.754 51.9645 559 51.9645C558.246 51.9645 557.633 51.3511 557.633 50.5962C557.633 49.8423 558.246 49.229 559 49.229C559.754 49.229 560.367 49.8423 560.367 50.5962V50.5973Z" fill="#1A90B1"/>
<path d="M580.191 39.1913C580.191 27.5063 570.685 18 559 18C555.594 18 552.34 18.7842 549.329 20.331C548.657 20.6761 548.393 21.5003 548.738 22.172C549.083 22.8435 549.907 23.1083 550.579 22.7633C553.199 21.417 556.032 20.7344 559 20.7344C569.177 20.7344 577.457 29.0142 577.457 39.1913C577.457 49.3685 569.177 57.6483 559 57.6483C548.823 57.6483 540.543 49.3685 540.543 39.1913C540.543 36.2234 541.226 33.3895 542.572 30.7689C542.917 30.0972 542.653 29.2731 541.981 28.928C541.31 28.5829 540.485 28.8476 540.14 29.5192C538.593 32.5303 537.809 35.7844 537.809 39.1913C537.809 50.8762 547.315 60.3826 559 60.3826C570.685 60.3826 580.191 50.8764 580.191 39.1913Z" fill="black"/>
<path d="M584.786 72.3561C585.404 71.2558 585.758 69.9884 585.758 68.6392V65.5141C585.758 61.314 582.341 57.897 578.141 57.897C573.94 57.897 570.523 61.314 570.523 65.5141V68.6392C570.523 69.9884 570.878 71.2559 571.496 72.3562C567.974 74.6151 565.836 78.4678 565.836 82.7016V86.6329C565.836 87.388 566.448 88.0001 567.203 88.0001H589.078C589.833 88.0001 590.445 87.388 590.445 86.6329V82.7016C590.445 78.4692 588.307 74.6151 584.786 72.3561ZM573.258 65.5141C573.258 62.8217 575.448 60.6313 578.14 60.6313C580.833 60.6313 583.023 62.8217 583.023 65.5141V68.6392C583.023 71.3316 580.833 73.522 578.14 73.522C575.448 73.522 573.258 71.3316 573.258 68.6392V65.5141H573.258ZM587.711 85.2657H568.57V82.7016C568.57 79.2988 570.349 76.2111 573.259 74.4807C574.582 75.5881 576.284 76.2564 578.141 76.2564C579.997 76.2564 581.7 75.5881 583.022 74.4807C585.932 76.2113 587.711 79.3 587.711 82.7016V85.2657Z" fill="black"/>
<path d="M544.982 26.5408C545.354 26.5408 545.724 26.3899 545.994 26.0933L545.995 26.0926C546.503 25.534 546.461 24.6696 545.902 24.1617C545.344 23.6538 544.479 23.6952 543.971 24.254C543.463 24.8126 543.504 25.6774 544.063 26.1853C544.325 26.4233 544.654 26.5408 544.982 26.5408Z" fill="black"/>
</g>
<path d="M187.659 109H186.707V101.842H187.659V109ZM190.773 104.479C191.232 103.961 191.748 103.702 192.321 103.702C193.49 103.702 194.074 104.339 194.074 105.611V109H193.151V105.65C193.151 105.227 193.075 104.923 192.922 104.737C192.772 104.552 192.525 104.459 192.18 104.459C191.711 104.459 191.242 104.736 190.773 105.289V109H189.851V103.819H190.773V104.479ZM198.029 109.01C197.827 109.049 197.607 109.068 197.37 109.068C196.992 109.068 196.715 109.002 196.539 108.868C196.364 108.731 196.255 108.557 196.212 108.346C196.17 108.134 196.149 107.846 196.149 107.481V104.542H195.509V103.819H196.149V102.53H197.067V103.819H197.907V104.542H197.067V107.53C197.067 107.885 197.111 108.111 197.199 108.209C197.29 108.303 197.413 108.351 197.57 108.351C197.729 108.351 197.882 108.338 198.029 108.312V109.01ZM201.602 109.122C200.841 109.122 200.229 108.884 199.766 108.409C199.304 107.931 199.073 107.265 199.073 106.412C199.073 105.566 199.296 104.903 199.742 104.425C200.191 103.943 200.777 103.702 201.5 103.702C202.239 103.702 202.828 103.938 203.267 104.41C203.71 104.882 203.931 105.549 203.931 106.412V106.632H200.03C200.069 107.231 200.234 107.675 200.523 107.965C200.816 108.255 201.176 108.399 201.602 108.399C201.925 108.399 202.214 108.318 202.471 108.155C202.732 107.989 202.869 107.755 202.882 107.452H203.834C203.762 107.986 203.52 108.398 203.106 108.688C202.696 108.977 202.195 109.122 201.602 109.122ZM202.96 105.909C202.885 105.411 202.717 105.038 202.457 104.791C202.196 104.544 201.877 104.42 201.5 104.42C201.132 104.42 200.816 104.544 200.553 104.791C200.289 105.035 200.121 105.408 200.05 105.909H202.96ZM208.257 104.659C208.127 104.62 207.94 104.601 207.696 104.601C207.227 104.601 206.825 104.846 206.489 105.338V109H205.567V103.819H206.489V104.542C206.877 103.982 207.326 103.702 207.837 103.702C207.967 103.702 208.107 103.715 208.257 103.741V104.659ZM213.686 103.819L211.728 109H210.908L208.95 103.819H209.946L211.318 107.872L212.69 103.819H213.686ZM216.02 109H215.097V103.819H216.02V109ZM216.02 102.838H215.097V101.842H216.02V102.838ZM220.184 109.122C219.422 109.122 218.81 108.884 218.348 108.409C217.886 107.931 217.655 107.265 217.655 106.412C217.655 105.566 217.878 104.903 218.324 104.425C218.773 103.943 219.359 103.702 220.081 103.702C220.82 103.702 221.41 103.938 221.849 104.41C222.292 104.882 222.513 105.549 222.513 106.412V106.632H218.612C218.651 107.231 218.815 107.675 219.105 107.965C219.398 108.255 219.758 108.399 220.184 108.399C220.506 108.399 220.796 108.318 221.053 108.155C221.314 107.989 221.45 107.755 221.463 107.452H222.415C222.344 107.986 222.101 108.398 221.688 108.688C221.278 108.977 220.776 109.122 220.184 109.122ZM221.541 105.909C221.467 105.411 221.299 105.038 221.038 104.791C220.778 104.544 220.459 104.42 220.081 104.42C219.714 104.42 219.398 104.544 219.134 104.791C218.871 105.035 218.703 105.408 218.631 105.909H221.541ZM230.638 103.819L229.08 109H228.201L227.078 105.191L225.96 109H225.081L223.518 103.819H224.539L225.491 107.77L226.658 103.819H227.498L228.67 107.77L229.622 103.819H230.638ZM240.714 108.521L240.002 109.122L239.381 108.341C238.815 108.862 238.105 109.122 237.253 109.122C236.595 109.122 236.051 108.919 235.622 108.512C235.195 108.105 234.982 107.612 234.982 107.032C234.982 106.59 235.119 106.202 235.392 105.87C235.666 105.538 236.082 105.214 236.642 104.898C236.134 104.247 235.88 103.722 235.88 103.321C235.88 102.866 236.048 102.485 236.383 102.179C236.722 101.873 237.148 101.72 237.663 101.72C238.141 101.72 238.537 101.869 238.849 102.169C239.165 102.465 239.323 102.825 239.323 103.248C239.323 103.626 239.207 103.953 238.976 104.229C238.745 104.503 238.393 104.776 237.921 105.05L239.362 106.842C239.502 106.484 239.582 106.08 239.601 105.631H240.553C240.511 106.383 240.321 107.042 239.982 107.608L240.714 108.521ZM237.453 104.469C237.788 104.286 238.034 104.106 238.19 103.927C238.346 103.744 238.424 103.525 238.424 103.268C238.424 103.02 238.343 102.822 238.18 102.672C238.021 102.519 237.832 102.442 237.614 102.442C237.379 102.442 237.183 102.516 237.023 102.662C236.864 102.805 236.784 102.994 236.784 103.229C236.784 103.492 236.93 103.81 237.223 104.181L237.453 104.469ZM238.864 107.682L237.121 105.499C236.707 105.743 236.406 105.974 236.217 106.192C236.029 106.407 235.934 106.666 235.934 106.969C235.934 107.333 236.06 107.654 236.31 107.931C236.564 108.204 236.881 108.341 237.262 108.341C237.92 108.341 238.454 108.121 238.864 107.682ZM248.579 109.122C247.57 109.122 246.815 108.896 246.314 108.443C245.816 107.991 245.554 107.41 245.528 106.7H246.441C246.49 107.234 246.711 107.63 247.105 107.887C247.502 108.141 247.981 108.268 248.54 108.268C249.071 108.268 249.497 108.159 249.82 107.94C250.145 107.722 250.308 107.426 250.308 107.052C250.308 106.658 250.14 106.371 249.805 106.192C249.47 106.013 248.892 105.838 248.072 105.665C247.255 105.489 246.667 105.247 246.309 104.938C245.954 104.628 245.777 104.216 245.777 103.702C245.777 103.123 246.008 102.647 246.47 102.276C246.936 101.905 247.552 101.72 248.321 101.72C249.128 101.72 249.779 101.907 250.274 102.281C250.769 102.656 251.031 103.185 251.06 103.868H250.137C250.043 103.002 249.45 102.569 248.36 102.569C247.832 102.569 247.424 102.669 247.134 102.867C246.844 103.066 246.7 103.329 246.7 103.658C246.7 103.958 246.815 104.182 247.046 104.332C247.281 104.482 247.715 104.627 248.35 104.767C248.988 104.907 249.494 105.045 249.869 105.182C250.243 105.318 250.564 105.532 250.83 105.821C251.097 106.108 251.231 106.493 251.231 106.979C251.231 107.594 250.985 108.105 250.494 108.512C250.005 108.919 249.367 109.122 248.579 109.122ZM256.308 108.341C255.849 108.862 255.333 109.122 254.761 109.122C253.592 109.122 253.008 108.484 253.008 107.208V103.819H253.93V107.169C253.93 107.592 254.005 107.896 254.155 108.082C254.305 108.268 254.552 108.36 254.897 108.36C255.412 108.36 255.882 108.084 256.308 107.53V103.819H257.226V109H256.308V108.341ZM261.884 104.659C261.754 104.62 261.567 104.601 261.322 104.601C260.854 104.601 260.452 104.846 260.116 105.338V109H259.194V103.819H260.116V104.542C260.504 103.982 260.953 103.702 261.464 103.702C261.594 103.702 261.734 103.715 261.884 103.741V104.659ZM267.313 103.819L265.355 109H264.535L262.577 103.819H263.573L264.945 107.872L266.317 103.819H267.313ZM270.926 109.122C270.164 109.122 269.552 108.884 269.09 108.409C268.628 107.931 268.396 107.265 268.396 106.412C268.396 105.566 268.619 104.903 269.065 104.425C269.515 103.943 270.101 103.702 270.823 103.702C271.562 103.702 272.151 103.938 272.591 104.41C273.034 104.882 273.255 105.549 273.255 106.412V106.632H269.354C269.393 107.231 269.557 107.675 269.847 107.965C270.14 108.255 270.499 108.399 270.926 108.399C271.248 108.399 271.538 108.318 271.795 108.155C272.055 107.989 272.192 107.755 272.205 107.452H273.157C273.086 107.986 272.843 108.398 272.43 108.688C272.02 108.977 271.518 109.122 270.926 109.122ZM272.283 105.909C272.208 105.411 272.041 105.038 271.78 104.791C271.52 104.544 271.201 104.42 270.823 104.42C270.455 104.42 270.14 104.544 269.876 104.791C269.612 105.035 269.445 105.408 269.373 105.909H272.283ZM275.183 110.25C275.639 110.25 276.011 109.833 276.301 109L274.343 103.819H275.339L276.711 107.872L278.083 103.819H279.079L277.121 109C276.933 109.495 276.772 109.876 276.638 110.143C276.508 110.413 276.335 110.639 276.121 110.821C275.909 111.007 275.649 111.1 275.339 111.1C275.108 111.1 274.91 111.077 274.744 111.031V110.182C274.887 110.227 275.033 110.25 275.183 110.25Z" fill="black"/>
<g clip-path="url(#clip2)">
<path d="M239.876 41.3755H228.74C228.174 41.3755 227.715 40.9165 227.715 40.3501C227.715 39.7837 228.174 39.3247 228.74 39.3247H239.876C240.442 39.3247 240.901 39.7837 240.901 40.3501C240.901 40.9165 240.442 41.3755 239.876 41.3755Z" fill="#1A90B1"/>
<path d="M251.011 36.1122H228.74C228.174 36.1122 227.715 35.6532 227.715 35.0868C227.715 34.5204 228.174 34.0614 228.74 34.0614H251.011C251.577 34.0614 252.036 34.5204 252.036 35.0868C252.036 35.6532 251.577 36.1122 251.011 36.1122Z" fill="#1A90B1"/>
<path d="M239.876 58.5592H228.74C228.174 58.5592 227.715 58.1002 227.715 57.5338C227.715 56.9674 228.174 56.5084 228.74 56.5084H239.876C240.442 56.5084 240.901 56.9674 240.901 57.5338C240.901 58.1002 240.442 58.5592 239.876 58.5592Z" fill="#1A90B1"/>
<path d="M251.011 53.2958H228.74C228.174 53.2958 227.715 52.8368 227.715 52.2704C227.715 51.704 228.174 51.245 228.74 51.245H251.011C251.577 51.245 252.036 51.704 252.036 52.2704C252.036 52.8368 251.577 53.2958 251.011 53.2958Z" fill="#1A90B1"/>
<path d="M239.876 75.743H228.74C228.174 75.743 227.715 75.2841 227.715 74.7177C227.715 74.1512 228.174 73.6923 228.74 73.6923H239.876C240.442 73.6923 240.901 74.1512 240.901 74.7177C240.901 75.2841 240.442 75.743 239.876 75.743Z" fill="#1A90B1"/>
<path d="M251.011 70.4796H228.74C228.174 70.4796 227.715 70.0206 227.715 69.4542C227.715 68.8878 228.174 68.4288 228.74 68.4288H251.011C251.577 68.4288 252.036 68.8878 252.036 69.4542C252.036 70.0206 251.577 70.4796 251.011 70.4796Z" fill="#1A90B1"/>
<path d="M240.866 27.6593H223.134C221.448 27.6593 220.077 26.2882 220.077 24.6027V21.0568C220.077 19.3713 221.448 18 223.134 18H240.866C242.552 18 243.923 19.3713 243.923 21.0568V24.6027C243.923 26.2882 242.552 27.6593 240.866 27.6593ZM223.134 20.0508C222.579 20.0508 222.128 20.5021 222.128 21.0568V24.6027C222.128 25.1574 222.579 25.6085 223.134 25.6085H240.866C241.421 25.6085 241.872 25.1572 241.872 24.6027V21.0568C241.872 20.502 241.421 20.0508 240.866 20.0508H223.134Z" fill="black"/>
<path d="M219.274 42.7499H214.717C213.199 42.7499 211.964 41.515 211.964 39.997V35.4399C211.964 33.9219 213.199 32.6869 214.717 32.6869H219.274C220.792 32.6869 222.027 33.9219 222.027 35.4399V39.9971C222.027 41.515 220.792 42.7499 219.274 42.7499ZM214.717 34.7377C214.329 34.7377 214.014 35.0527 214.014 35.4399V39.9971C214.014 40.3843 214.329 40.6993 214.717 40.6993H219.274C219.661 40.6993 219.976 40.3843 219.976 39.9971V35.4399C219.976 35.0527 219.661 34.7377 219.274 34.7377H214.717Z" fill="#1A90B1"/>
<path d="M219.274 59.9337H214.717C213.199 59.9337 211.964 58.6987 211.964 57.1807V52.6235C211.964 51.1055 213.199 49.8705 214.717 49.8705H219.274C220.792 49.8705 222.027 51.1055 222.027 52.6235V57.1807C222.027 58.6987 220.792 59.9337 219.274 59.9337ZM214.717 51.9213C214.329 51.9213 214.014 52.2363 214.014 52.6235V57.1807C214.014 57.5679 214.329 57.8829 214.717 57.8829H219.274C219.661 57.8829 219.976 57.5679 219.976 57.1807V52.6235C219.976 52.2363 219.661 51.9213 219.274 51.9213H214.717Z" fill="#1A90B1"/>
<path d="M219.274 77.1175H214.717C213.199 77.1175 211.964 75.8825 211.964 74.3644V69.8073C211.964 68.2892 213.199 67.0542 214.717 67.0542H219.274C220.792 67.0542 222.027 68.2892 222.027 69.8073V74.3644C222.027 75.8825 220.792 77.1175 219.274 77.1175ZM214.717 69.1051C214.329 69.1051 214.014 69.4203 214.014 69.8074V74.3645C214.014 74.7517 214.329 75.0669 214.717 75.0669H219.274C219.661 75.0669 219.976 74.7517 219.976 74.3645V69.8074C219.976 69.4203 219.661 69.1051 219.274 69.1051H214.717Z" fill="#1A90B1"/>
<path d="M253.814 88H210.186C207.737 88 205.744 86.0073 205.744 83.5579V26.2463C205.744 23.797 207.737 21.8043 210.186 21.8043H216.331C216.898 21.8043 217.357 22.2633 217.357 22.8297C217.357 23.3961 216.898 23.8551 216.331 23.8551H210.186C208.868 23.8551 207.795 24.9278 207.795 26.2463V83.5577C207.795 84.8764 208.868 85.9491 210.186 85.9491H253.814C255.132 85.9491 256.205 84.8762 256.205 83.5577V26.2463C256.205 24.9277 255.132 23.8551 253.814 23.8551H247.669C247.102 23.8551 246.643 23.3961 246.643 22.8297C246.643 22.2633 247.102 21.8043 247.669 21.8043H253.814C256.263 21.8043 258.256 23.797 258.256 26.2463V83.5577C258.256 86.0073 256.263 88 253.814 88Z" fill="black"/>
</g>
<path d="M173.398 58.3536C173.593 58.1583 173.593 57.8417 173.398 57.6464L170.216 54.4645C170.021 54.2692 169.704 54.2692 169.509 54.4645C169.314 54.6597 169.314 54.9763 169.509 55.1716L172.337 58L169.509 60.8284C169.314 61.0237 169.314 61.3403 169.509 61.5355C169.704 61.7308 170.021 61.7308 170.216 61.5355L173.398 58.3536ZM128 58.5H173.044V57.5H128V58.5Z" fill="black"/>
<path d="M336.398 58.3536C336.593 58.1583 336.593 57.8417 336.398 57.6464L333.216 54.4645C333.021 54.2692 332.704 54.2692 332.509 54.4645C332.314 54.6597 332.314 54.9763 332.509 55.1716L335.337 58L332.509 60.8284C332.314 61.0237 332.314 61.3403 332.509 61.5355C332.704 61.7308 333.021 61.7308 333.216 61.5355L336.398 58.3536ZM291 58.5H336.044V57.5H291V58.5Z" fill="black"/>
<path d="M499.398 60.3536C499.593 60.1583 499.593 59.8417 499.398 59.6464L496.216 56.4645C496.021 56.2692 495.704 56.2692 495.509 56.4645C495.314 56.6597 495.314 56.9763 495.509 57.1716L498.337 60L495.509 62.8284C495.314 63.0237 495.314 63.3403 495.509 63.5355C495.704 63.7308 496.021 63.7308 496.216 63.5355L499.398 60.3536ZM454 60.5H499.044V59.5H454V60.5Z" fill="black"/>
<path d="M661.398 59.3536C661.593 59.1583 661.593 58.8417 661.398 58.6464L658.216 55.4645C658.021 55.2692 657.704 55.2692 657.509 55.4645C657.314 55.6597 657.314 55.9763 657.509 56.1716L660.337 59L657.509 61.8284C657.314 62.0237 657.314 62.3403 657.509 62.5355C657.704 62.7308 658.021 62.7308 658.216 62.5355L661.398 59.3536ZM616 59.5H661.044V58.5H616V59.5Z" fill="black"/>
<path d="M45.9531 106.92C45.9531 107.59 45.7253 108.105 45.2695 108.463C44.8138 108.821 44.1514 109 43.2822 109H40.6016V101.842H43.1504C43.9121 101.842 44.5111 102.005 44.9473 102.33C45.3835 102.656 45.6016 103.102 45.6016 103.668C45.6016 104.358 45.2581 104.869 44.5713 105.201C45.0335 105.318 45.3786 105.535 45.6064 105.851C45.8376 106.163 45.9531 106.52 45.9531 106.92ZM41.5488 104.84H43.1406C43.6647 104.84 44.0505 104.757 44.2979 104.591C44.5452 104.422 44.6689 104.142 44.6689 103.751C44.6689 103.399 44.5485 103.136 44.3076 102.96C44.0667 102.781 43.6484 102.691 43.0527 102.691H41.5488V104.84ZM41.5488 108.15H43.2725C44.4053 108.15 44.9717 107.74 44.9717 106.92C44.9717 106.493 44.8398 106.183 44.5762 105.987C44.3158 105.789 43.8405 105.689 43.1504 105.689H41.5488V108.15ZM51.0307 107.638V106.49H50.4008C49.0661 106.49 48.3988 106.853 48.3988 107.579C48.3988 107.843 48.4965 108.046 48.6918 108.189C48.8871 108.329 49.1508 108.399 49.4828 108.399C49.7855 108.399 50.0785 108.331 50.3617 108.194C50.6449 108.058 50.8679 107.872 51.0307 107.638ZM51.0307 108.468C50.5619 108.904 49.9581 109.122 49.2191 109.122C48.7048 109.122 48.2816 108.984 47.9496 108.707C47.6176 108.427 47.4516 108.067 47.4516 107.628C47.4516 106.417 48.4949 105.812 50.5814 105.812H51.0307C51.0307 105.44 51.0111 105.172 50.9721 105.006C50.933 104.837 50.824 104.697 50.6449 104.586C50.4659 104.475 50.1811 104.42 49.7904 104.42C48.9701 104.42 48.5469 104.713 48.5209 105.299H47.6029C47.6713 104.234 48.4167 103.702 49.8393 103.702C50.5033 103.702 51.0209 103.834 51.392 104.098C51.7631 104.361 51.9486 104.879 51.9486 105.65V109H51.0307V108.468ZM56.0154 109.122C55.2798 109.122 54.6906 108.886 54.2479 108.414C53.8084 107.939 53.5887 107.271 53.5887 106.412C53.5887 105.549 53.8084 104.882 54.2479 104.41C54.6906 103.938 55.2798 103.702 56.0154 103.702C56.5818 103.702 57.0538 103.845 57.4314 104.132C57.8123 104.418 58.0369 104.832 58.1053 105.372H57.158C57.145 105.063 57.0278 104.827 56.8064 104.664C56.5883 104.501 56.3247 104.42 56.0154 104.42C55.576 104.42 55.2195 104.588 54.9461 104.923C54.6727 105.255 54.5359 105.751 54.5359 106.412C54.5359 107.07 54.6727 107.566 54.9461 107.901C55.2195 108.233 55.576 108.399 56.0154 108.399C56.3247 108.399 56.5883 108.318 56.8064 108.155C57.0278 107.993 57.145 107.758 57.158 107.452H58.1053C58.0369 107.993 57.8123 108.406 57.4314 108.692C57.0538 108.979 56.5818 109.122 56.0154 109.122ZM63.798 109H62.6994L61.0148 106.368L60.4387 106.939V109H59.5158V101.842H60.4387V105.899L62.4357 103.819H63.5979L61.635 105.748L63.798 109ZM69.315 108.6C69.315 110.266 68.5631 111.1 67.0592 111.1C66.4081 111.1 65.8938 110.958 65.5162 110.675C65.1419 110.392 64.9547 110.011 64.9547 109.532H65.9068C65.9068 110.099 66.2877 110.382 67.0494 110.382C67.4791 110.382 67.8111 110.263 68.0455 110.025C68.2799 109.791 68.3971 109.329 68.3971 108.639V108.38C67.9869 108.875 67.4938 109.122 66.9176 109.122C66.2405 109.122 65.7164 108.881 65.3453 108.399C64.9742 107.918 64.7887 107.268 64.7887 106.451C64.7887 105.605 64.9954 104.936 65.4088 104.444C65.8255 103.95 66.3479 103.702 66.9762 103.702C67.5361 103.702 68.0097 103.875 68.3971 104.22V103.819H69.315V108.6ZM68.3971 107.511V105.05C67.9999 104.63 67.5458 104.42 67.0348 104.42C66.6409 104.42 66.3251 104.591 66.0875 104.933C65.8531 105.271 65.7359 105.777 65.7359 106.451C65.7359 107.089 65.8466 107.574 66.068 107.906C66.2926 108.235 66.6018 108.399 66.9957 108.399C67.51 108.399 67.9771 108.103 68.3971 107.511ZM73.9727 104.659C73.8424 104.62 73.6553 104.601 73.4111 104.601C72.9424 104.601 72.5404 104.846 72.2051 105.338V109H71.2822V103.819H72.2051V104.542C72.5924 103.982 73.0417 103.702 73.5527 103.702C73.6829 103.702 73.8229 103.715 73.9727 103.741V104.659ZM77.3119 103.702C78.0508 103.702 78.64 103.938 79.0795 104.41C79.5222 104.882 79.7436 105.549 79.7436 106.412C79.7436 107.271 79.5222 107.939 79.0795 108.414C78.64 108.886 78.0508 109.122 77.3119 109.122C76.5762 109.122 75.987 108.886 75.5443 108.414C75.1049 107.939 74.8852 107.271 74.8852 106.412C74.8852 105.549 75.1049 104.882 75.5443 104.41C75.987 103.938 76.5762 103.702 77.3119 103.702ZM77.3119 108.399C77.7514 108.399 78.1078 108.233 78.3812 107.901C78.6547 107.566 78.7914 107.07 78.7914 106.412C78.7914 105.751 78.6547 105.255 78.3812 104.923C78.1078 104.588 77.7514 104.42 77.3119 104.42C76.8725 104.42 76.516 104.588 76.2426 104.923C75.9691 105.255 75.8324 105.751 75.8324 106.412C75.8324 107.07 75.9691 107.566 76.2426 107.901C76.516 108.233 76.8725 108.399 77.3119 108.399ZM84.66 108.341C84.201 108.862 83.685 109.122 83.1121 109.122C81.9435 109.122 81.3592 108.484 81.3592 107.208V103.819H82.282V107.169C82.282 107.592 82.3569 107.896 82.5066 108.082C82.6564 108.268 82.9038 108.36 83.2488 108.36C83.7632 108.36 84.2335 108.084 84.66 107.53V103.819H85.5779V109H84.66V108.341ZM88.468 104.479C88.927 103.961 89.4429 103.702 90.0158 103.702C91.1844 103.702 91.7688 104.339 91.7688 105.611V109H90.8459V105.65C90.8459 105.227 90.7694 104.923 90.6164 104.737C90.4667 104.552 90.2193 104.459 89.8742 104.459C89.4055 104.459 88.9367 104.736 88.468 105.289V109H87.5451V103.819H88.468V104.479ZM96.9928 107.511V105.05C96.5956 104.63 96.1415 104.42 95.6305 104.42C95.2366 104.42 94.9208 104.591 94.6832 104.933C94.4488 105.271 94.3316 105.777 94.3316 106.451C94.3316 107.089 94.4423 107.574 94.6637 107.906C94.8883 108.235 95.1975 108.399 95.5914 108.399C96.1057 108.399 96.5729 108.103 96.9928 107.511ZM96.9928 108.38C96.5826 108.875 96.0895 109.122 95.5133 109.122C94.8362 109.122 94.3121 108.881 93.941 108.399C93.5699 107.918 93.3844 107.268 93.3844 106.451C93.3844 105.605 93.5911 104.936 94.0045 104.444C94.4212 103.95 94.9436 103.702 95.5719 103.702C96.1318 103.702 96.6054 103.875 96.9928 104.22V101.842H97.9107V109H96.9928V108.38ZM52.7564 120H51.7311L51.0572 118.091C50.9368 117.752 50.7366 117.476 50.4566 117.261C50.1767 117.046 49.8544 116.938 49.4898 116.938H47.7369V120H46.7896V112.842H49.9586C50.512 112.842 50.9645 112.896 51.316 113.003C51.6676 113.11 51.954 113.337 52.1754 113.682C52.3967 114.027 52.5074 114.416 52.5074 114.849C52.5074 115.343 52.3642 115.757 52.0777 116.089C51.7913 116.421 51.399 116.637 50.901 116.738V116.758C51.399 116.917 51.7783 117.349 52.0387 118.052L52.7564 120ZM47.7369 116.089H49.8512C50.4404 116.089 50.8668 115.996 51.1305 115.811C51.3974 115.625 51.5309 115.304 51.5309 114.849C51.5309 114.035 51.0198 113.628 49.9977 113.628H47.7369V116.089ZM56.6963 120.122C55.9346 120.122 55.3226 119.884 54.8604 119.409C54.3981 118.931 54.167 118.265 54.167 117.412C54.167 116.566 54.39 115.903 54.8359 115.425C55.2852 114.943 55.8711 114.702 56.5938 114.702C57.3327 114.702 57.9219 114.938 58.3613 115.41C58.804 115.882 59.0254 116.549 59.0254 117.412V117.632H55.124C55.1631 118.231 55.3275 118.675 55.6172 118.965C55.9102 119.255 56.2699 119.399 56.6963 119.399C57.0186 119.399 57.3083 119.318 57.5654 119.155C57.8258 118.989 57.9626 118.755 57.9756 118.452H58.9277C58.8561 118.986 58.6136 119.398 58.2002 119.688C57.79 119.977 57.2887 120.122 56.6963 120.122ZM58.0537 116.909C57.9788 116.411 57.8112 116.038 57.5508 115.791C57.2904 115.544 56.9714 115.42 56.5938 115.42C56.2259 115.42 55.9102 115.544 55.6465 115.791C55.3828 116.035 55.2152 116.408 55.1436 116.909H58.0537ZM62.5111 120.122C61.0951 120.122 60.3546 119.565 60.2895 118.452H61.2123C61.2188 119.084 61.6485 119.399 62.5014 119.399C62.8822 119.399 63.1719 119.321 63.3705 119.165C63.5723 119.006 63.6732 118.807 63.6732 118.569C63.6732 118.335 63.5756 118.171 63.3803 118.076C63.185 117.979 62.7813 117.853 62.1693 117.7C61.5606 117.547 61.1146 117.376 60.8314 117.188C60.5515 116.999 60.4115 116.667 60.4115 116.191C60.4115 115.762 60.5857 115.407 60.934 115.127C61.2855 114.844 61.7543 114.702 62.3402 114.702C63.6977 114.702 64.391 115.186 64.4203 116.152H63.5023C63.4698 115.664 63.1036 115.42 62.4037 115.42C62.0945 115.42 61.8373 115.479 61.6322 115.596C61.4304 115.713 61.3295 115.884 61.3295 116.108C61.3295 116.31 61.4076 116.457 61.5639 116.548C61.7201 116.636 62.1107 116.756 62.7357 116.909C63.364 117.059 63.8295 117.235 64.1322 117.437C64.4382 117.638 64.5912 117.987 64.5912 118.481C64.5912 118.953 64.4024 119.346 64.0248 119.658C63.6505 119.967 63.1459 120.122 62.5111 120.122ZM68.4627 120.122C67.701 120.122 67.089 119.884 66.6268 119.409C66.1645 118.931 65.9334 118.265 65.9334 117.412C65.9334 116.566 66.1564 115.903 66.6023 115.425C67.0516 114.943 67.6375 114.702 68.3602 114.702C69.0991 114.702 69.6883 114.938 70.1277 115.41C70.5704 115.882 70.7918 116.549 70.7918 117.412V117.632H66.8904C66.9295 118.231 67.0939 118.675 67.3836 118.965C67.6766 119.255 68.0363 119.399 68.4627 119.399C68.785 119.399 69.0747 119.318 69.3318 119.155C69.5922 118.989 69.729 118.755 69.742 118.452H70.6941C70.6225 118.986 70.38 119.398 69.9666 119.688C69.5564 119.977 69.0551 120.122 68.4627 120.122ZM69.8201 116.909C69.7452 116.411 69.5776 116.038 69.3172 115.791C69.0568 115.544 68.7378 115.42 68.3602 115.42C67.9923 115.42 67.6766 115.544 67.4129 115.791C67.1492 116.035 66.9816 116.408 66.91 116.909H69.8201ZM75.7082 118.638V117.49H75.0783C73.7437 117.49 73.0764 117.853 73.0764 118.579C73.0764 118.843 73.174 119.046 73.3693 119.189C73.5646 119.329 73.8283 119.399 74.1604 119.399C74.4631 119.399 74.7561 119.331 75.0393 119.194C75.3225 119.058 75.5454 118.872 75.7082 118.638ZM75.7082 119.468C75.2395 119.904 74.6356 120.122 73.8967 120.122C73.3824 120.122 72.9592 119.984 72.6271 119.707C72.2951 119.427 72.1291 119.067 72.1291 118.628C72.1291 117.417 73.1724 116.812 75.259 116.812H75.7082C75.7082 116.44 75.6887 116.172 75.6496 116.006C75.6105 115.837 75.5015 115.697 75.3225 115.586C75.1434 115.475 74.8586 115.42 74.468 115.42C73.6477 115.42 73.2245 115.713 73.1984 116.299H72.2805C72.3488 115.234 73.0943 114.702 74.5168 114.702C75.1809 114.702 75.6984 114.834 76.0695 115.098C76.4406 115.361 76.6262 115.879 76.6262 116.65V120H75.7082V119.468ZM81.2838 115.659C81.1536 115.62 80.9664 115.601 80.7223 115.601C80.2535 115.601 79.8515 115.846 79.5162 116.338V120H78.5934V114.819H79.5162V115.542C79.9036 114.982 80.3528 114.702 80.8639 114.702C80.9941 114.702 81.1341 114.715 81.2838 114.741V115.659ZM84.623 120.122C83.8874 120.122 83.2982 119.886 82.8555 119.414C82.416 118.939 82.1963 118.271 82.1963 117.412C82.1963 116.549 82.416 115.882 82.8555 115.41C83.2982 114.938 83.8874 114.702 84.623 114.702C85.1895 114.702 85.6615 114.845 86.0391 115.132C86.4199 115.418 86.6445 115.832 86.7129 116.372H85.7656C85.7526 116.063 85.6354 115.827 85.4141 115.664C85.196 115.501 84.9323 115.42 84.623 115.42C84.1836 115.42 83.8271 115.588 83.5537 115.923C83.2803 116.255 83.1436 116.751 83.1436 117.412C83.1436 118.07 83.2803 118.566 83.5537 118.901C83.8271 119.233 84.1836 119.399 84.623 119.399C84.9323 119.399 85.196 119.318 85.4141 119.155C85.6354 118.993 85.7526 118.758 85.7656 118.452H86.7129C86.6445 118.993 86.4199 119.406 86.0391 119.692C85.6615 119.979 85.1895 120.122 84.623 120.122ZM89.0463 115.479C89.5053 114.961 90.0212 114.702 90.5941 114.702C91.7628 114.702 92.3471 115.339 92.3471 116.611V120H91.4242V116.65C91.4242 116.227 91.3477 115.923 91.1947 115.737C91.045 115.552 90.7976 115.459 90.4525 115.459C89.9838 115.459 89.515 115.736 89.0463 116.289V120H88.1234V112.842H89.0463V115.479Z" fill="black"/>
<path d="M103.101 65.0528L92.5812 54.5314C95.1228 51.1823 96.7095 47.1678 97.1164 42.9589C97.6147 37.7935 96.3281 32.5747 93.4934 28.2633C93.182 27.7901 92.5459 27.6587 92.0733 27.9701C91.6001 28.2814 91.4688 28.9175 91.7801 29.3907C97.1447 37.5489 96.0194 48.4901 89.1045 55.4056C81.0279 63.4827 67.8875 63.4827 59.8115 55.4056C51.7349 47.3286 51.7349 34.186 59.8115 26.1089C67.8875 18.0318 81.0285 18.0318 89.1018 26.1062L89.1579 26.1628C89.5574 26.5644 90.2062 26.5671 90.6079 26.1676C91.01 25.7687 91.0121 25.1193 90.6132 24.7177L90.5544 24.6584C81.6784 15.7818 67.237 15.7818 58.361 24.6584C58.0822 24.9372 57.8125 25.2213 57.5514 25.5107H35.0254C34.4593 25.5107 34 25.97 34 26.5361V31.0713C34 31.638 34.4593 32.0973 35.0254 32.0973C35.592 32.0973 36.0508 31.638 36.0508 31.0713V27.5621H55.9065C55.123 28.6627 54.449 29.8174 53.8845 31.0121H41.1094C40.5433 31.0121 40.084 31.4708 40.084 32.0375C40.084 32.6041 40.5433 33.0628 41.1094 33.0628H53.0359C52.7416 33.8864 52.4965 34.7232 52.3 35.5697H41.1094C40.5433 35.5697 40.084 36.0285 40.084 36.5951C40.084 37.1612 40.5433 37.6205 41.1094 37.6205H51.9208C51.806 38.452 51.7371 39.2889 51.7141 40.1268H41.1094C40.5433 40.1268 40.084 40.5861 40.084 41.1527C40.084 41.7188 40.5433 42.1781 41.1094 42.1781H51.7499C51.9347 45.1571 52.6989 48.1061 54.0453 50.8389C53.4786 50.8389 54 51 54.5 51.5L55.6733 53.6204C56.0111 54.0882 56.6257 54.8594 57.0304 55.4056L59.4985 57.9173C59.8863 58.2559 61 59 61.5 59.5L61.5493 59.512C62.4727 60.1481 63.4324 60.7088 64.4204 61.1932L65 61.5C65 62.0666 65.9056 62.0755 66.4717 62.0755L68.8985 62.8092C69.5 63 71.5 63.5 74 63.5L74.6743 63.5115C75.4738 63.5035 76.2722 63.4549 77.0674 63.3641V79.2037C77.0674 79.7704 77.5261 80.2296 78.0928 80.2296C78.6589 80.2296 79.1182 79.7704 79.1182 79.2037V63.0341C82.3594 62.3612 85.4809 60.978 88.2313 58.8839L98.749 69.4033C99.3306 69.9843 100.103 70.3047 100.925 70.3047C101.747 70.3047 102.519 69.9843 103.101 69.4033C104.299 68.2048 104.3 66.2534 103.101 65.0528ZM57.7738 56.2467L55.9391 54L55.1935 52.8902C56.2112 54.3332 57.1359 55.6305 58.361 56.8561C58.7306 57.2257 59.1108 57.5787 59.4985 57.9173L57.7738 56.2467ZM68 62.5844L66.4717 62.0755C68.4605 62.8173 70.5327 63.2712 72.624 63.4389L69.797 63.0341L68 62.5844ZM101.651 67.9528C101.457 68.1466 101.199 68.2534 100.925 68.2534C100.651 68.2534 100.393 68.1466 100.2 67.9528L89.8121 57.5643C90.0637 57.3341 90.3115 57.0991 90.5544 56.8561C90.7969 56.6137 91.033 56.3664 91.2631 56.1138L101.65 66.5028C102.05 66.9028 102.051 67.5538 101.651 67.9528Z" fill="url(#paint0_linear)"/>
<path d="M78.0929 82.599C77.5268 82.599 77.0675 83.0578 77.0675 83.6244V85.9492H36.0508V35.5149C36.0508 34.9483 35.592 34.4895 35.0254 34.4895C34.4593 34.4895 34 34.9483 34 35.5149V86.9745C34 87.5412 34.4593 87.9999 35.0254 87.9999H78.0929C78.6595 87.9999 79.1183 87.5412 79.1183 86.9745V83.6244C79.1183 83.0578 78.6595 82.599 78.0929 82.599V82.599Z" fill="black"/>
<path d="M38.4434 60.0677V82.2199C38.4434 82.786 38.9026 83.2453 39.4688 83.2453H47.6724C48.2385 83.2453 48.6978 82.786 48.6978 82.2199V60.0677C48.6978 59.5016 48.2385 59.0424 47.6724 59.0424H39.4688C38.9026 59.0424 38.4434 59.5016 38.4434 60.0677V60.0677ZM40.4941 61.0937H46.647V81.194H40.4941V61.0937Z" fill="#1A90B1"/>
<path d="M48.7768 46.736C49.3435 46.736 49.8022 46.2767 49.8022 45.7101C49.8022 45.144 49.3435 44.6847 48.7768 44.6847H41.1094C40.5433 44.6847 40.084 45.144 40.084 45.7101C40.084 46.2767 40.5433 46.736 41.1094 46.736H48.7768Z" fill="black"/>
<path d="M74.4581 22.1C69.4678 22.1 64.7809 24.0386 61.2615 27.5586C57.7421 31.0786 55.8034 35.766 55.8034 40.7567C55.8034 45.7475 57.7421 50.4349 61.2615 53.9549C64.7815 57.4749 69.4678 59.4135 74.4581 59.4135C79.4483 59.4135 84.1347 57.4749 87.6546 53.9549C91.1741 50.4349 93.1122 45.7475 93.1122 40.7567C93.1122 35.766 91.1741 31.0786 87.6546 27.5586C84.1347 24.0386 79.4483 22.1 74.4581 22.1V22.1ZM86.2041 52.5044C83.0719 55.6372 78.9004 57.3622 74.4581 57.3622C70.0152 57.3622 65.8443 55.6372 62.712 52.5044C59.5792 49.3716 57.8542 45.1996 57.8542 40.7567C57.8542 36.3134 59.5792 32.1413 62.712 29.0085C65.95 25.77 70.2043 24.1502 74.4581 24.1502C78.7118 24.1502 82.9661 25.77 86.2041 29.0085C89.3364 32.1413 91.0614 36.3134 91.0614 40.7567C91.0614 45.1996 89.3364 49.3716 86.2041 52.5044V52.5044Z" fill="black"/>
<path d="M54.1046 50.8L52.3 50.8C51.7477 50.8 51.3 51.2478 51.3 51.8V82.3C51.3 82.8523 51.7477 83.3 52.3 83.3H60.6C61.1523 83.3 61.6 82.8523 61.6 82.3V59.4573C60.8569 58.9415 60.1458 58.3831 59.47 57.7855V81.2H53.35V52.9H55.2935C54.862 52.2233 54.4648 51.5225 54.1046 50.8Z" fill="#1A90B1"/>
<path d="M66.48 62.0481C65.7809 61.786 65.097 61.4929 64.43 61.1704V82.3C64.43 82.8523 64.8777 83.3 65.43 83.3H73.73C74.2823 83.3 74.73 82.8523 74.73 82.3V63.5976C74.0121 63.5875 73.3017 63.5466 72.6 63.476V81.2H66.48V62.0481Z" fill="#1A90B1"/>
<defs>
<linearGradient id="paint0_linear" x1="89.5" y1="56" x2="63.5" y2="82.5" gradientUnits="userSpaceOnUse">
<stop offset="0.696983"/>
<stop offset="0.697511"/>
<stop offset="0.697511" stop-color="#06CAA6"/>
</linearGradient>
<clipPath id="clip0">
<rect width="70" height="70" fill="white" transform="translate(360 18)"/>
</clipPath>
<clipPath id="clip1">
<rect width="70" height="70" fill="white" transform="translate(524 18)"/>
</clipPath>
<clipPath id="clip2">
<rect width="70" height="70" fill="white" transform="translate(197 18)"/>
</clipPath>
</defs>
</svg>
