<svg width="791" height="191" viewBox="0 0 791 191" fill="none" xmlns="http://www.w3.org/2000/svg">
<circle cx="637.5" cy="104.5" r="86.5" fill="#1A90B1" fill-opacity="0.3"/>
<circle cx="314.5" cy="104.5" r="86.5" fill="#1A90B1" fill-opacity="0.3"/>
<path d="M534.485 148.842H537.156C537.742 148.842 538.232 148.897 538.625 149.008C539.023 149.115 539.337 149.351 539.568 149.716C539.799 150.077 539.914 150.482 539.914 150.932C539.914 151.654 539.685 152.203 539.226 152.577C538.767 152.951 538.103 153.139 537.234 153.139H535.432V156H534.485V148.842ZM535.432 152.289H537.244C537.852 152.289 538.285 152.175 538.542 151.947C538.803 151.719 538.933 151.391 538.933 150.961C538.933 150.674 538.861 150.421 538.718 150.199C538.575 149.978 538.393 149.838 538.171 149.779C537.953 149.721 537.637 149.691 537.224 149.691H535.432V152.289ZM544.323 151.659C544.193 151.62 544.006 151.601 543.762 151.601C543.293 151.601 542.891 151.846 542.555 152.338V156H541.633V150.819H542.555V151.542C542.943 150.982 543.392 150.702 543.903 150.702C544.033 150.702 544.173 150.715 544.323 150.741V151.659ZM547.662 150.702C548.401 150.702 548.99 150.938 549.43 151.41C549.873 151.882 550.094 152.549 550.094 153.412C550.094 154.271 549.873 154.939 549.43 155.414C548.99 155.886 548.401 156.122 547.662 156.122C546.927 156.122 546.337 155.886 545.895 155.414C545.455 154.939 545.236 154.271 545.236 153.412C545.236 152.549 545.455 151.882 545.895 151.41C546.337 150.938 546.927 150.702 547.662 150.702ZM547.662 155.399C548.102 155.399 548.458 155.233 548.732 154.901C549.005 154.566 549.142 154.07 549.142 153.412C549.142 152.751 549.005 152.255 548.732 151.923C548.458 151.588 548.102 151.42 547.662 151.42C547.223 151.42 546.866 151.588 546.593 151.923C546.32 152.255 546.183 152.751 546.183 153.412C546.183 154.07 546.32 154.566 546.593 154.901C546.866 155.233 547.223 155.399 547.662 155.399ZM553.741 156.01C553.539 156.049 553.319 156.068 553.082 156.068C552.704 156.068 552.427 156.002 552.252 155.868C552.076 155.731 551.967 155.557 551.924 155.346C551.882 155.134 551.861 154.846 551.861 154.481V151.542H551.221V150.819H551.861V149.53H552.779V150.819H553.619V151.542H552.779V154.53C552.779 154.885 552.823 155.111 552.911 155.209C553.002 155.303 553.126 155.351 553.282 155.351C553.441 155.351 553.594 155.338 553.741 155.312V156.01ZM557.212 150.702C557.951 150.702 558.54 150.938 558.979 151.41C559.422 151.882 559.644 152.549 559.644 153.412C559.644 154.271 559.422 154.939 558.979 155.414C558.54 155.886 557.951 156.122 557.212 156.122C556.476 156.122 555.887 155.886 555.444 155.414C555.005 154.939 554.785 154.271 554.785 153.412C554.785 152.549 555.005 151.882 555.444 151.41C555.887 150.938 556.476 150.702 557.212 150.702ZM557.212 155.399C557.651 155.399 558.008 155.233 558.281 154.901C558.555 154.566 558.691 154.07 558.691 153.412C558.691 152.751 558.555 152.255 558.281 151.923C558.008 151.588 557.651 151.42 557.212 151.42C556.772 151.42 556.416 151.588 556.143 151.923C555.869 152.255 555.732 152.751 555.732 153.412C555.732 154.07 555.869 154.566 556.143 154.901C556.416 155.233 556.772 155.399 557.212 155.399ZM563.29 156.01C563.089 156.049 562.869 156.068 562.631 156.068C562.254 156.068 561.977 156.002 561.801 155.868C561.625 155.731 561.516 155.557 561.474 155.346C561.432 155.134 561.411 154.846 561.411 154.481V151.542H560.771V150.819H561.411V149.53H562.329V150.819H563.168V151.542H562.329V154.53C562.329 154.885 562.372 155.111 562.46 155.209C562.551 155.303 562.675 155.351 562.831 155.351C562.991 155.351 563.144 155.338 563.29 155.312V156.01ZM564.955 157.25C565.411 157.25 565.783 156.833 566.073 156L564.115 150.819H565.111L566.483 154.872L567.855 150.819H568.851L566.893 156C566.705 156.495 566.543 156.876 566.41 157.143C566.28 157.413 566.107 157.639 565.892 157.821C565.681 158.007 565.42 158.1 565.111 158.1C564.88 158.1 564.681 158.077 564.515 158.031V157.182C564.659 157.227 564.805 157.25 564.955 157.25ZM571.185 151.439C571.595 150.948 572.088 150.702 572.664 150.702C573.341 150.702 573.865 150.943 574.237 151.425C574.608 151.903 574.793 152.551 574.793 153.368C574.793 154.218 574.585 154.89 574.168 155.385C573.755 155.876 573.232 156.122 572.601 156.122C572.041 156.122 571.569 155.948 571.185 155.6V157.992H570.262V150.819H571.185V151.439ZM571.185 154.77C571.579 155.189 572.031 155.399 572.542 155.399C572.939 155.399 573.255 155.23 573.489 154.892C573.724 154.55 573.841 154.042 573.841 153.368C573.841 152.73 573.73 152.247 573.509 151.918C573.288 151.586 572.978 151.42 572.581 151.42C572.07 151.42 571.605 151.716 571.185 152.309V154.77ZM578.63 156.122C577.869 156.122 577.257 155.884 576.795 155.409C576.332 154.931 576.101 154.265 576.101 153.412C576.101 152.566 576.324 151.903 576.77 151.425C577.219 150.943 577.805 150.702 578.528 150.702C579.267 150.702 579.856 150.938 580.296 151.41C580.738 151.882 580.96 152.549 580.96 153.412V153.632H577.058C577.097 154.231 577.262 154.675 577.551 154.965C577.844 155.255 578.204 155.399 578.63 155.399C578.953 155.399 579.242 155.318 579.5 155.155C579.76 154.989 579.897 154.755 579.91 154.452H580.862C580.79 154.986 580.548 155.398 580.134 155.688C579.724 155.977 579.223 156.122 578.63 156.122ZM579.988 152.909C579.913 152.411 579.745 152.038 579.485 151.791C579.225 151.544 578.906 151.42 578.528 151.42C578.16 151.42 577.844 151.544 577.581 151.791C577.317 152.035 577.149 152.408 577.078 152.909H579.988Z" fill="black"/>
<path d="M573.039 64H542.961C540.134 64 537.834 66.2999 537.834 69.127V128.873C537.834 131.7 540.134 134 542.961 134H573.039C575.866 134 578.166 131.7 578.166 128.873V69.127C578.166 66.2999 575.866 64 573.039 64ZM576.115 119.645H547.062C546.496 119.645 546.037 120.104 546.037 120.67C546.037 121.236 546.496 121.695 547.062 121.695H576.115V128.873C576.115 130.569 574.735 131.949 573.039 131.949H542.961C541.265 131.949 539.885 130.569 539.885 128.873V121.695H542.961C543.527 121.695 543.986 121.236 543.986 120.67C543.986 120.104 543.527 119.645 542.961 119.645H539.885V74.2539H576.115V119.645ZM576.115 72.2031H539.885V69.127C539.885 67.4307 541.265 66.0508 542.961 66.0508H573.039C574.735 66.0508 576.115 67.4307 576.115 69.127V72.2031Z" fill="black"/>
<path d="M562.102 68.1016H558C557.434 68.1016 556.975 68.5607 556.975 69.127C556.975 69.6932 557.434 70.1523 558 70.1523H562.102C562.668 70.1523 563.127 69.6932 563.127 69.127C563.127 68.5607 562.668 68.1016 562.102 68.1016Z" fill="black"/>
<path d="M558 123.746C556.304 123.746 554.924 125.126 554.924 126.822C554.924 128.519 556.304 129.898 558 129.898C559.696 129.898 561.076 128.519 561.076 126.822C561.076 125.126 559.696 123.746 558 123.746ZM558 127.848C557.435 127.848 556.975 127.388 556.975 126.822C556.975 126.257 557.435 125.797 558 125.797C558.565 125.797 559.025 126.257 559.025 126.822C559.025 127.388 558.565 127.848 558 127.848Z" fill="black"/>
<path d="M553.898 70.1523C554.465 70.1523 554.924 69.6933 554.924 69.127C554.924 68.5606 554.465 68.1016 553.898 68.1016C553.332 68.1016 552.873 68.5606 552.873 69.127C552.873 69.6933 553.332 70.1523 553.898 70.1523Z" fill="black"/>
<path d="M691.478 156.122C690.648 156.122 690.026 155.961 689.613 155.639C689.203 155.316 688.943 154.937 688.832 154.501C688.724 154.065 688.671 153.559 688.671 152.982V148.842H689.618V152.968C689.618 153.909 689.776 154.527 690.092 154.823C690.407 155.119 690.87 155.268 691.478 155.268C692.087 155.268 692.549 155.119 692.865 154.823C693.181 154.527 693.339 153.909 693.339 152.968V148.842H694.291V152.982C694.291 153.848 694.187 154.486 693.978 154.896C693.773 155.307 693.462 155.614 693.046 155.819C692.629 156.021 692.107 156.122 691.478 156.122ZM698.226 156.122C696.81 156.122 696.069 155.565 696.004 154.452H696.927C696.933 155.084 697.363 155.399 698.216 155.399C698.597 155.399 698.887 155.321 699.085 155.165C699.287 155.006 699.388 154.807 699.388 154.569C699.388 154.335 699.29 154.171 699.095 154.076C698.9 153.979 698.496 153.853 697.884 153.7C697.275 153.547 696.829 153.376 696.546 153.188C696.266 152.999 696.126 152.667 696.126 152.191C696.126 151.762 696.3 151.407 696.649 151.127C697 150.844 697.469 150.702 698.055 150.702C699.412 150.702 700.106 151.186 700.135 152.152H699.217C699.184 151.664 698.818 151.42 698.118 151.42C697.809 151.42 697.552 151.479 697.347 151.596C697.145 151.713 697.044 151.884 697.044 152.108C697.044 152.31 697.122 152.457 697.279 152.548C697.435 152.636 697.825 152.756 698.45 152.909C699.079 153.059 699.544 153.235 699.847 153.437C700.153 153.638 700.306 153.987 700.306 154.481C700.306 154.953 700.117 155.346 699.739 155.658C699.365 155.967 698.861 156.122 698.226 156.122ZM704.177 156.122C703.416 156.122 702.804 155.884 702.341 155.409C701.879 154.931 701.648 154.265 701.648 153.412C701.648 152.566 701.871 151.903 702.317 151.425C702.766 150.943 703.352 150.702 704.075 150.702C704.814 150.702 705.403 150.938 705.842 151.41C706.285 151.882 706.506 152.549 706.506 153.412V153.632H702.605C702.644 154.231 702.809 154.675 703.098 154.965C703.391 155.255 703.751 155.399 704.177 155.399C704.5 155.399 704.789 155.318 705.046 155.155C705.307 154.989 705.444 154.755 705.457 154.452H706.409C706.337 154.986 706.095 155.398 705.681 155.688C705.271 155.977 704.77 156.122 704.177 156.122ZM705.535 152.909C705.46 152.411 705.292 152.038 705.032 151.791C704.771 151.544 704.452 151.42 704.075 151.42C703.707 151.42 703.391 151.544 703.128 151.791C702.864 152.035 702.696 152.408 702.625 152.909H705.535ZM710.832 151.659C710.702 151.62 710.515 151.601 710.271 151.601C709.802 151.601 709.4 151.846 709.064 152.338V156H708.142V150.819H709.064V151.542C709.452 150.982 709.901 150.702 710.412 150.702C710.542 150.702 710.682 150.715 710.832 150.741V151.659ZM720.538 149.691H718.17V156H717.218V149.691H714.869V148.842H720.538V149.691ZM724.243 156.122C723.482 156.122 722.87 155.884 722.407 155.409C721.945 154.931 721.714 154.265 721.714 153.412C721.714 152.566 721.937 151.903 722.383 151.425C722.832 150.943 723.418 150.702 724.141 150.702C724.88 150.702 725.469 150.938 725.908 151.41C726.351 151.882 726.572 152.549 726.572 153.412V153.632H722.671C722.71 154.231 722.875 154.675 723.164 154.965C723.457 155.255 723.817 155.399 724.243 155.399C724.566 155.399 724.855 155.318 725.112 155.155C725.373 154.989 725.51 154.755 725.523 154.452H726.475C726.403 154.986 726.161 155.398 725.747 155.688C725.337 155.977 724.836 156.122 724.243 156.122ZM725.601 152.909C725.526 152.411 725.358 152.038 725.098 151.791C724.837 151.544 724.518 151.42 724.141 151.42C723.773 151.42 723.457 151.544 723.194 151.791C722.93 152.035 722.762 152.408 722.691 152.909H725.601ZM730.058 156.122C728.642 156.122 727.902 155.565 727.837 154.452H728.759C728.766 155.084 729.196 155.399 730.048 155.399C730.429 155.399 730.719 155.321 730.918 155.165C731.119 155.006 731.22 154.807 731.22 154.569C731.22 154.335 731.123 154.171 730.927 154.076C730.732 153.979 730.328 153.853 729.716 153.7C729.108 153.547 728.662 153.376 728.379 153.188C728.099 152.999 727.959 152.667 727.959 152.191C727.959 151.762 728.133 151.407 728.481 151.127C728.833 150.844 729.301 150.702 729.887 150.702C731.245 150.702 731.938 151.186 731.967 152.152H731.049C731.017 151.664 730.651 151.42 729.951 151.42C729.642 151.42 729.384 151.479 729.179 151.596C728.977 151.713 728.877 151.884 728.877 152.108C728.877 152.31 728.955 152.457 729.111 152.548C729.267 152.636 729.658 152.756 730.283 152.909C730.911 153.059 731.377 153.235 731.679 153.437C731.985 153.638 732.138 153.987 732.138 154.481C732.138 154.953 731.949 155.346 731.572 155.658C731.198 155.967 730.693 156.122 730.058 156.122ZM735.819 156.01C735.618 156.049 735.398 156.068 735.16 156.068C734.783 156.068 734.506 156.002 734.33 155.868C734.154 155.731 734.045 155.557 734.003 155.346C733.961 155.134 733.939 154.846 733.939 154.481V151.542H733.3V150.819H733.939V149.53H734.857V150.819H735.697V151.542H734.857V154.53C734.857 154.885 734.901 155.111 734.989 155.209C735.08 155.303 735.204 155.351 735.36 155.351C735.52 155.351 735.673 155.338 735.819 155.312V156.01ZM738.114 156H737.191V150.819H738.114V156ZM738.114 149.838H737.191V148.842H738.114V149.838ZM740.999 151.479C741.458 150.961 741.974 150.702 742.547 150.702C743.715 150.702 744.3 151.339 744.3 152.611V156H743.377V152.65C743.377 152.227 743.3 151.923 743.147 151.737C742.998 151.552 742.75 151.459 742.405 151.459C741.936 151.459 741.468 151.736 740.999 152.289V156H740.076V150.819H740.999V151.479ZM750.442 155.6C750.442 157.266 749.69 158.1 748.186 158.1C747.535 158.1 747.02 157.958 746.643 157.675C746.268 157.392 746.081 157.011 746.081 156.532H747.033C747.033 157.099 747.414 157.382 748.176 157.382C748.606 157.382 748.938 157.263 749.172 157.025C749.406 156.791 749.524 156.329 749.524 155.639V155.38C749.113 155.875 748.62 156.122 748.044 156.122C747.367 156.122 746.843 155.881 746.472 155.399C746.101 154.918 745.915 154.268 745.915 153.451C745.915 152.605 746.122 151.936 746.535 151.444C746.952 150.95 747.474 150.702 748.103 150.702C748.663 150.702 749.136 150.875 749.524 151.22V150.819H750.442V155.6ZM749.524 154.511V152.05C749.127 151.63 748.672 151.42 748.161 151.42C747.767 151.42 747.452 151.591 747.214 151.933C746.98 152.271 746.863 152.777 746.863 153.451C746.863 154.089 746.973 154.574 747.195 154.906C747.419 155.235 747.728 155.399 748.122 155.399C748.637 155.399 749.104 155.103 749.524 154.511Z" fill="black"/>
<g clip-path="url(#clip0)">
<path d="M708.505 118.356C709.123 117.256 709.477 115.988 709.477 114.639V111.514C709.477 107.314 706.06 103.897 701.86 103.897C697.659 103.897 694.242 107.314 694.242 111.514V114.639C694.242 115.988 694.596 117.256 695.214 118.356C691.693 120.615 689.555 124.468 689.555 128.702V132.633C689.555 133.388 690.167 134 690.922 134H712.797C713.552 134 714.164 133.388 714.164 132.633V128.702C714.164 124.469 712.026 120.615 708.505 118.356ZM696.977 111.514C696.977 108.822 699.167 106.631 701.859 106.631C704.552 106.631 706.742 108.822 706.742 111.514V114.639C706.742 117.332 704.552 119.522 701.859 119.522C699.167 119.522 696.976 117.332 696.976 114.639V111.514H696.977ZM711.43 131.266H692.289V128.702C692.289 125.299 694.068 122.211 696.978 120.481C698.301 121.588 700.003 122.256 701.86 122.256C703.716 122.256 705.418 121.588 706.741 120.481C709.65 122.211 711.43 125.3 711.43 128.702V131.266Z" fill="black"/>
<path d="M725.475 90.2955C726.058 89.4204 727.192 88.2469 728.224 87.2143C729.184 86.2549 729.937 85.13 730.463 83.871C730.988 82.6138 731.254 81.2905 731.254 79.938C731.254 77.1995 730.187 74.6245 728.25 72.6876C726.313 70.7507 723.739 69.6842 721 69.6842C718.261 69.6842 715.686 70.7509 713.75 72.6876C711.813 74.6245 710.746 77.1994 710.746 79.938C710.746 82.1996 712.586 84.0395 714.848 84.0395C717.109 84.0395 718.949 82.1996 718.949 79.938C718.949 79.39 719.162 78.875 719.55 78.4878C719.937 78.1005 720.452 77.8873 721 77.8873C721.548 77.8873 722.063 78.1006 722.45 78.4878C722.838 78.875 723.051 79.39 723.051 79.938C723.051 80.2165 722.999 80.4806 722.898 80.7236C722.795 80.9707 722.635 81.2032 722.424 81.4141C720.56 83.2783 719.466 84.5399 718.649 85.7687C717.455 87.5635 716.898 89.2663 716.898 91.1274C716.898 92.1772 717.295 93.1357 717.946 93.8619C717.295 94.5883 716.898 95.5471 716.898 96.5974C716.898 98.859 718.738 100.699 721 100.699C723.262 100.699 725.102 98.859 725.102 96.5974V96.5963C725.102 95.5466 724.705 94.5881 724.054 93.8619C724.705 93.1357 725.102 92.1772 725.102 91.1276C725.102 91.0041 725.167 90.7598 725.475 90.2955ZM720.925 87.2833C721.636 86.2154 722.63 85.0752 724.358 83.3476C724.822 82.8833 725.18 82.3549 725.421 81.7774C725.663 81.1991 725.785 80.5801 725.785 79.9378C725.785 78.6594 725.288 77.4578 724.384 76.554C723.48 75.6505 722.278 75.1527 721 75.1527C719.722 75.1527 718.52 75.6503 717.616 76.554C716.713 77.4578 716.215 78.6594 716.215 79.9378C716.215 80.6917 715.602 81.305 714.848 81.305C714.094 81.305 713.481 80.6917 713.481 79.9378C713.481 77.9296 714.263 76.0413 715.683 74.621C717.104 73.2006 718.992 72.4183 721 72.4183C723.008 72.4183 724.897 73.2006 726.317 74.6208C727.737 76.0414 728.52 77.9296 728.52 79.9377C728.52 80.9266 728.324 81.8952 727.94 82.8169C727.552 83.7456 726.997 84.5745 726.291 85.2807C724.671 86.9005 723.775 87.9145 723.199 88.7807C722.632 89.6334 722.367 90.379 722.367 91.1273C722.367 91.8812 721.754 92.4945 721 92.4945C720.246 92.4945 719.633 91.8812 719.633 91.1273C719.633 89.8122 720.032 88.6267 720.925 87.2833ZM722.367 96.5973C722.367 97.3511 721.754 97.9645 721 97.9645C720.246 97.9645 719.633 97.3511 719.633 96.5962C719.633 95.8423 720.246 95.229 721 95.229C721.754 95.229 722.367 95.8423 722.367 96.5962V96.5973Z" fill="#1A90B1"/>
<path d="M742.191 85.1913C742.191 73.5063 732.685 64 721 64C717.594 64 714.34 64.7842 711.329 66.331C710.657 66.6761 710.393 67.5003 710.738 68.172C711.083 68.8435 711.907 69.1083 712.579 68.7633C715.199 67.417 718.032 66.7344 721 66.7344C731.177 66.7344 739.457 75.0142 739.457 85.1913C739.457 95.3685 731.177 103.648 721 103.648C710.823 103.648 702.543 95.3685 702.543 85.1913C702.543 82.2234 703.226 79.3895 704.572 76.7689C704.917 76.0972 704.653 75.2731 703.981 74.928C703.31 74.5829 702.485 74.8476 702.14 75.5192C700.593 78.5303 699.809 81.7844 699.809 85.1913C699.809 96.8762 709.315 106.383 721 106.383C732.685 106.383 742.191 96.8764 742.191 85.1913Z" fill="black"/>
<path d="M746.786 118.356C747.404 117.256 747.758 115.988 747.758 114.639V111.514C747.758 107.314 744.341 103.897 740.141 103.897C735.94 103.897 732.523 107.314 732.523 111.514V114.639C732.523 115.988 732.878 117.256 733.496 118.356C729.974 120.615 727.836 124.468 727.836 128.702V132.633C727.836 133.388 728.448 134 729.203 134H751.078C751.833 134 752.445 133.388 752.445 132.633V128.702C752.445 124.469 750.307 120.615 746.786 118.356ZM735.258 111.514C735.258 108.822 737.448 106.631 740.14 106.631C742.833 106.631 745.023 108.822 745.023 111.514V114.639C745.023 117.332 742.833 119.522 740.14 119.522C737.448 119.522 735.258 117.332 735.258 114.639V111.514H735.258ZM749.711 131.266H730.57V128.702C730.57 125.299 732.349 122.211 735.259 120.481C736.582 121.588 738.284 122.256 740.141 122.256C741.997 122.256 743.7 121.588 745.022 120.481C747.932 122.211 749.711 125.3 749.711 128.702V131.266Z" fill="black"/>
<path d="M706.982 72.5408C707.354 72.5408 707.724 72.3899 707.994 72.0933L707.995 72.0926C708.503 71.534 708.461 70.6696 707.902 70.1617C707.344 69.6538 706.479 69.6952 705.971 70.254C705.463 70.8126 705.504 71.6774 706.063 72.1853C706.325 72.4233 706.654 72.5408 706.982 72.5408Z" fill="black"/>
</g>
<path d="M187.659 156H186.707V148.842H187.659V156ZM190.773 151.479C191.232 150.961 191.748 150.702 192.321 150.702C193.49 150.702 194.074 151.339 194.074 152.611V156H193.151V152.65C193.151 152.227 193.075 151.923 192.922 151.737C192.772 151.552 192.525 151.459 192.18 151.459C191.711 151.459 191.242 151.736 190.773 152.289V156H189.851V150.819H190.773V151.479ZM198.029 156.01C197.827 156.049 197.607 156.068 197.37 156.068C196.992 156.068 196.715 156.002 196.539 155.868C196.364 155.731 196.255 155.557 196.212 155.346C196.17 155.134 196.149 154.846 196.149 154.481V151.542H195.509V150.819H196.149V149.53H197.067V150.819H197.907V151.542H197.067V154.53C197.067 154.885 197.111 155.111 197.199 155.209C197.29 155.303 197.413 155.351 197.57 155.351C197.729 155.351 197.882 155.338 198.029 155.312V156.01ZM201.602 156.122C200.841 156.122 200.229 155.884 199.766 155.409C199.304 154.931 199.073 154.265 199.073 153.412C199.073 152.566 199.296 151.903 199.742 151.425C200.191 150.943 200.777 150.702 201.5 150.702C202.239 150.702 202.828 150.938 203.267 151.41C203.71 151.882 203.931 152.549 203.931 153.412V153.632H200.03C200.069 154.231 200.234 154.675 200.523 154.965C200.816 155.255 201.176 155.399 201.602 155.399C201.925 155.399 202.214 155.318 202.471 155.155C202.732 154.989 202.869 154.755 202.882 154.452H203.834C203.762 154.986 203.52 155.398 203.106 155.688C202.696 155.977 202.195 156.122 201.602 156.122ZM202.96 152.909C202.885 152.411 202.717 152.038 202.457 151.791C202.196 151.544 201.877 151.42 201.5 151.42C201.132 151.42 200.816 151.544 200.553 151.791C200.289 152.035 200.121 152.408 200.05 152.909H202.96ZM208.257 151.659C208.127 151.62 207.94 151.601 207.696 151.601C207.227 151.601 206.825 151.846 206.489 152.338V156H205.567V150.819H206.489V151.542C206.877 150.982 207.326 150.702 207.837 150.702C207.967 150.702 208.107 150.715 208.257 150.741V151.659ZM213.686 150.819L211.728 156H210.908L208.95 150.819H209.946L211.318 154.872L212.69 150.819H213.686ZM216.02 156H215.097V150.819H216.02V156ZM216.02 149.838H215.097V148.842H216.02V149.838ZM220.184 156.122C219.422 156.122 218.81 155.884 218.348 155.409C217.886 154.931 217.655 154.265 217.655 153.412C217.655 152.566 217.878 151.903 218.324 151.425C218.773 150.943 219.359 150.702 220.081 150.702C220.82 150.702 221.41 150.938 221.849 151.41C222.292 151.882 222.513 152.549 222.513 153.412V153.632H218.612C218.651 154.231 218.815 154.675 219.105 154.965C219.398 155.255 219.758 155.399 220.184 155.399C220.506 155.399 220.796 155.318 221.053 155.155C221.314 154.989 221.45 154.755 221.463 154.452H222.415C222.344 154.986 222.101 155.398 221.688 155.688C221.278 155.977 220.776 156.122 220.184 156.122ZM221.541 152.909C221.467 152.411 221.299 152.038 221.038 151.791C220.778 151.544 220.459 151.42 220.081 151.42C219.714 151.42 219.398 151.544 219.134 151.791C218.871 152.035 218.703 152.408 218.631 152.909H221.541ZM230.638 150.819L229.08 156H228.201L227.078 152.191L225.96 156H225.081L223.518 150.819H224.539L225.491 154.77L226.658 150.819H227.498L228.67 154.77L229.622 150.819H230.638ZM240.714 155.521L240.002 156.122L239.381 155.341C238.815 155.862 238.105 156.122 237.253 156.122C236.595 156.122 236.051 155.919 235.622 155.512C235.195 155.105 234.982 154.612 234.982 154.032C234.982 153.59 235.119 153.202 235.392 152.87C235.666 152.538 236.082 152.214 236.642 151.898C236.134 151.247 235.88 150.722 235.88 150.321C235.88 149.866 236.048 149.485 236.383 149.179C236.722 148.873 237.148 148.72 237.663 148.72C238.141 148.72 238.537 148.869 238.849 149.169C239.165 149.465 239.323 149.825 239.323 150.248C239.323 150.626 239.207 150.953 238.976 151.229C238.745 151.503 238.393 151.776 237.921 152.05L239.362 153.842C239.502 153.484 239.582 153.08 239.601 152.631H240.553C240.511 153.383 240.321 154.042 239.982 154.608L240.714 155.521ZM237.453 151.469C237.788 151.286 238.034 151.106 238.19 150.927C238.346 150.744 238.424 150.525 238.424 150.268C238.424 150.02 238.343 149.822 238.18 149.672C238.021 149.519 237.832 149.442 237.614 149.442C237.379 149.442 237.183 149.516 237.023 149.662C236.864 149.805 236.784 149.994 236.784 150.229C236.784 150.492 236.93 150.81 237.223 151.181L237.453 151.469ZM238.864 154.682L237.121 152.499C236.707 152.743 236.406 152.974 236.217 153.192C236.029 153.407 235.934 153.666 235.934 153.969C235.934 154.333 236.06 154.654 236.31 154.931C236.564 155.204 236.881 155.341 237.262 155.341C237.92 155.341 238.454 155.121 238.864 154.682ZM248.579 156.122C247.57 156.122 246.815 155.896 246.314 155.443C245.816 154.991 245.554 154.41 245.528 153.7H246.441C246.49 154.234 246.711 154.63 247.105 154.887C247.502 155.141 247.981 155.268 248.54 155.268C249.071 155.268 249.497 155.159 249.82 154.94C250.145 154.722 250.308 154.426 250.308 154.052C250.308 153.658 250.14 153.371 249.805 153.192C249.47 153.013 248.892 152.838 248.072 152.665C247.255 152.489 246.667 152.247 246.309 151.938C245.954 151.628 245.777 151.216 245.777 150.702C245.777 150.123 246.008 149.647 246.47 149.276C246.936 148.905 247.552 148.72 248.321 148.72C249.128 148.72 249.779 148.907 250.274 149.281C250.769 149.656 251.031 150.185 251.06 150.868H250.137C250.043 150.002 249.45 149.569 248.36 149.569C247.832 149.569 247.424 149.669 247.134 149.867C246.844 150.066 246.7 150.329 246.7 150.658C246.7 150.958 246.815 151.182 247.046 151.332C247.281 151.482 247.715 151.627 248.35 151.767C248.988 151.907 249.494 152.045 249.869 152.182C250.243 152.318 250.564 152.532 250.83 152.821C251.097 153.108 251.231 153.493 251.231 153.979C251.231 154.594 250.985 155.105 250.494 155.512C250.005 155.919 249.367 156.122 248.579 156.122ZM256.308 155.341C255.849 155.862 255.333 156.122 254.761 156.122C253.592 156.122 253.008 155.484 253.008 154.208V150.819H253.93V154.169C253.93 154.592 254.005 154.896 254.155 155.082C254.305 155.268 254.552 155.36 254.897 155.36C255.412 155.36 255.882 155.084 256.308 154.53V150.819H257.226V156H256.308V155.341ZM261.884 151.659C261.754 151.62 261.567 151.601 261.322 151.601C260.854 151.601 260.452 151.846 260.116 152.338V156H259.194V150.819H260.116V151.542C260.504 150.982 260.953 150.702 261.464 150.702C261.594 150.702 261.734 150.715 261.884 150.741V151.659ZM267.313 150.819L265.355 156H264.535L262.577 150.819H263.573L264.945 154.872L266.317 150.819H267.313ZM270.926 156.122C270.164 156.122 269.552 155.884 269.09 155.409C268.628 154.931 268.396 154.265 268.396 153.412C268.396 152.566 268.619 151.903 269.065 151.425C269.515 150.943 270.101 150.702 270.823 150.702C271.562 150.702 272.151 150.938 272.591 151.41C273.034 151.882 273.255 152.549 273.255 153.412V153.632H269.354C269.393 154.231 269.557 154.675 269.847 154.965C270.14 155.255 270.499 155.399 270.926 155.399C271.248 155.399 271.538 155.318 271.795 155.155C272.055 154.989 272.192 154.755 272.205 154.452H273.157C273.086 154.986 272.843 155.398 272.43 155.688C272.02 155.977 271.518 156.122 270.926 156.122ZM272.283 152.909C272.208 152.411 272.041 152.038 271.78 151.791C271.52 151.544 271.201 151.42 270.823 151.42C270.455 151.42 270.14 151.544 269.876 151.791C269.612 152.035 269.445 152.408 269.373 152.909H272.283ZM275.183 157.25C275.639 157.25 276.011 156.833 276.301 156L274.343 150.819H275.339L276.711 154.872L278.083 150.819H279.079L277.121 156C276.933 156.495 276.772 156.876 276.638 157.143C276.508 157.413 276.335 157.639 276.121 157.821C275.909 158.007 275.649 158.1 275.339 158.1C275.108 158.1 274.91 158.077 274.744 158.031V157.182C274.887 157.227 275.033 157.25 275.183 157.25Z" fill="black"/>
<g clip-path="url(#clip1)">
<path d="M239.876 87.3755H228.74C228.174 87.3755 227.715 86.9165 227.715 86.3501C227.715 85.7837 228.174 85.3247 228.74 85.3247H239.876C240.442 85.3247 240.901 85.7837 240.901 86.3501C240.901 86.9165 240.442 87.3755 239.876 87.3755Z" fill="#1A90B1"/>
<path d="M251.011 82.1122H228.74C228.174 82.1122 227.715 81.6532 227.715 81.0868C227.715 80.5204 228.174 80.0614 228.74 80.0614H251.011C251.577 80.0614 252.036 80.5204 252.036 81.0868C252.036 81.6532 251.577 82.1122 251.011 82.1122Z" fill="#1A90B1"/>
<path d="M239.876 104.559H228.74C228.174 104.559 227.715 104.1 227.715 103.534C227.715 102.967 228.174 102.508 228.74 102.508H239.876C240.442 102.508 240.901 102.967 240.901 103.534C240.901 104.1 240.442 104.559 239.876 104.559Z" fill="#1A90B1"/>
<path d="M251.011 99.2958H228.74C228.174 99.2958 227.715 98.8368 227.715 98.2704C227.715 97.704 228.174 97.245 228.74 97.245H251.011C251.577 97.245 252.036 97.704 252.036 98.2704C252.036 98.8368 251.577 99.2958 251.011 99.2958Z" fill="#1A90B1"/>
<path d="M239.876 121.743H228.74C228.174 121.743 227.715 121.284 227.715 120.718C227.715 120.151 228.174 119.692 228.74 119.692H239.876C240.442 119.692 240.901 120.151 240.901 120.718C240.901 121.284 240.442 121.743 239.876 121.743Z" fill="#1A90B1"/>
<path d="M251.011 116.48H228.74C228.174 116.48 227.715 116.021 227.715 115.454C227.715 114.888 228.174 114.429 228.74 114.429H251.011C251.577 114.429 252.036 114.888 252.036 115.454C252.036 116.021 251.577 116.48 251.011 116.48Z" fill="#1A90B1"/>
<path d="M240.866 73.6593H223.134C221.448 73.6593 220.077 72.2882 220.077 70.6027V67.0568C220.077 65.3713 221.448 64 223.134 64H240.866C242.552 64 243.923 65.3713 243.923 67.0568V70.6027C243.923 72.2882 242.552 73.6593 240.866 73.6593ZM223.134 66.0508C222.579 66.0508 222.128 66.5021 222.128 67.0568V70.6027C222.128 71.1574 222.579 71.6085 223.134 71.6085H240.866C241.421 71.6085 241.872 71.1572 241.872 70.6027V67.0568C241.872 66.502 241.421 66.0508 240.866 66.0508H223.134Z" fill="black"/>
<path d="M219.274 88.7499H214.717C213.199 88.7499 211.964 87.515 211.964 85.997V81.4399C211.964 79.9219 213.199 78.6869 214.717 78.6869H219.274C220.792 78.6869 222.027 79.9219 222.027 81.4399V85.9971C222.027 87.515 220.792 88.7499 219.274 88.7499ZM214.717 80.7377C214.329 80.7377 214.014 81.0527 214.014 81.4399V85.9971C214.014 86.3843 214.329 86.6993 214.717 86.6993H219.274C219.661 86.6993 219.976 86.3843 219.976 85.9971V81.4399C219.976 81.0527 219.661 80.7377 219.274 80.7377H214.717Z" fill="#1A90B1"/>
<path d="M219.274 105.934H214.717C213.199 105.934 211.964 104.699 211.964 103.181V98.6235C211.964 97.1055 213.199 95.8705 214.717 95.8705H219.274C220.792 95.8705 222.027 97.1055 222.027 98.6235V103.181C222.027 104.699 220.792 105.934 219.274 105.934ZM214.717 97.9213C214.329 97.9213 214.014 98.2363 214.014 98.6235V103.181C214.014 103.568 214.329 103.883 214.717 103.883H219.274C219.661 103.883 219.976 103.568 219.976 103.181V98.6235C219.976 98.2363 219.661 97.9213 219.274 97.9213H214.717Z" fill="#1A90B1"/>
<path d="M219.274 123.118H214.717C213.199 123.118 211.964 121.883 211.964 120.364V115.807C211.964 114.289 213.199 113.054 214.717 113.054H219.274C220.792 113.054 222.027 114.289 222.027 115.807V120.364C222.027 121.883 220.792 123.118 219.274 123.118ZM214.717 115.105C214.329 115.105 214.014 115.42 214.014 115.807V120.365C214.014 120.752 214.329 121.067 214.717 121.067H219.274C219.661 121.067 219.976 120.752 219.976 120.365V115.807C219.976 115.42 219.661 115.105 219.274 115.105H214.717Z" fill="#1A90B1"/>
<path d="M253.814 134H210.186C207.737 134 205.744 132.007 205.744 129.558V72.2463C205.744 69.797 207.737 67.8043 210.186 67.8043H216.331C216.898 67.8043 217.357 68.2633 217.357 68.8297C217.357 69.3961 216.898 69.8551 216.331 69.8551H210.186C208.868 69.8551 207.795 70.9278 207.795 72.2463V129.558C207.795 130.876 208.868 131.949 210.186 131.949H253.814C255.132 131.949 256.205 130.876 256.205 129.558V72.2463C256.205 70.9277 255.132 69.8551 253.814 69.8551H247.669C247.102 69.8551 246.643 69.3961 246.643 68.8297C246.643 68.2633 247.102 67.8043 247.669 67.8043H253.814C256.263 67.8043 258.256 69.797 258.256 72.2463V129.558C258.256 132.007 256.263 134 253.814 134Z" fill="black"/>
</g>
<path d="M173.398 104.354C173.593 104.158 173.593 103.842 173.398 103.646L170.216 100.464C170.021 100.269 169.704 100.269 169.509 100.464C169.314 100.66 169.314 100.976 169.509 101.172L172.337 104L169.509 106.828C169.314 107.024 169.314 107.34 169.509 107.536C169.704 107.731 170.021 107.731 170.216 107.536L173.398 104.354ZM128 104.5H173.044V103.5H128V104.5Z" fill="black"/>
<path d="M336.398 104.354C336.593 104.158 336.593 103.842 336.398 103.646L333.216 100.464C333.021 100.269 332.704 100.269 332.509 100.464C332.314 100.66 332.314 100.976 332.509 101.172L335.337 104L332.509 106.828C332.314 107.024 332.314 107.34 332.509 107.536C332.704 107.731 333.021 107.731 333.216 107.536L336.398 104.354ZM291 104.5H336.044V103.5H291V104.5Z" fill="black"/>
<path d="M499.398 104.354C499.593 104.158 499.593 103.842 499.398 103.646L496.216 100.464C496.021 100.269 495.704 100.269 495.509 100.464C495.314 100.66 495.314 100.976 495.509 101.172L498.337 104L495.509 106.828C495.314 107.024 495.314 107.34 495.509 107.536C495.704 107.731 496.021 107.731 496.216 107.536L499.398 104.354ZM454 104.5H499.044V103.5H454V104.5Z" fill="black"/>
<path d="M661.398 104.354C661.593 104.158 661.593 103.842 661.398 103.646L658.216 100.464C658.021 100.269 657.704 100.269 657.509 100.464C657.314 100.66 657.314 100.976 657.509 101.172L660.337 104L657.509 106.828C657.314 107.024 657.314 107.34 657.509 107.536C657.704 107.731 658.021 107.731 658.216 107.536L661.398 104.354ZM616 104.5H661.044V103.5H616V104.5Z" fill="black"/>
<path d="M45.9531 152.92C45.9531 153.59 45.7253 154.105 45.2695 154.463C44.8138 154.821 44.1514 155 43.2822 155H40.6016V147.842H43.1504C43.9121 147.842 44.5111 148.005 44.9473 148.33C45.3835 148.656 45.6016 149.102 45.6016 149.668C45.6016 150.358 45.2581 150.869 44.5713 151.201C45.0335 151.318 45.3786 151.535 45.6064 151.851C45.8376 152.163 45.9531 152.52 45.9531 152.92ZM41.5488 150.84H43.1406C43.6647 150.84 44.0505 150.757 44.2979 150.591C44.5452 150.422 44.6689 150.142 44.6689 149.751C44.6689 149.399 44.5485 149.136 44.3076 148.96C44.0667 148.781 43.6484 148.691 43.0527 148.691H41.5488V150.84ZM41.5488 154.15H43.2725C44.4053 154.15 44.9717 153.74 44.9717 152.92C44.9717 152.493 44.8398 152.183 44.5762 151.987C44.3158 151.789 43.8405 151.689 43.1504 151.689H41.5488V154.15ZM51.0307 153.638V152.49H50.4008C49.0661 152.49 48.3988 152.853 48.3988 153.579C48.3988 153.843 48.4965 154.046 48.6918 154.189C48.8871 154.329 49.1508 154.399 49.4828 154.399C49.7855 154.399 50.0785 154.331 50.3617 154.194C50.6449 154.058 50.8679 153.872 51.0307 153.638ZM51.0307 154.468C50.5619 154.904 49.9581 155.122 49.2191 155.122C48.7048 155.122 48.2816 154.984 47.9496 154.707C47.6176 154.427 47.4516 154.067 47.4516 153.628C47.4516 152.417 48.4949 151.812 50.5814 151.812H51.0307C51.0307 151.44 51.0111 151.172 50.9721 151.006C50.933 150.837 50.824 150.697 50.6449 150.586C50.4659 150.475 50.1811 150.42 49.7904 150.42C48.9701 150.42 48.5469 150.713 48.5209 151.299H47.6029C47.6713 150.234 48.4167 149.702 49.8393 149.702C50.5033 149.702 51.0209 149.834 51.392 150.098C51.7631 150.361 51.9486 150.879 51.9486 151.65V155H51.0307V154.468ZM56.0154 155.122C55.2798 155.122 54.6906 154.886 54.2479 154.414C53.8084 153.939 53.5887 153.271 53.5887 152.412C53.5887 151.549 53.8084 150.882 54.2479 150.41C54.6906 149.938 55.2798 149.702 56.0154 149.702C56.5818 149.702 57.0538 149.845 57.4314 150.132C57.8123 150.418 58.0369 150.832 58.1053 151.372H57.158C57.145 151.063 57.0278 150.827 56.8064 150.664C56.5883 150.501 56.3247 150.42 56.0154 150.42C55.576 150.42 55.2195 150.588 54.9461 150.923C54.6727 151.255 54.5359 151.751 54.5359 152.412C54.5359 153.07 54.6727 153.566 54.9461 153.901C55.2195 154.233 55.576 154.399 56.0154 154.399C56.3247 154.399 56.5883 154.318 56.8064 154.155C57.0278 153.993 57.145 153.758 57.158 153.452H58.1053C58.0369 153.993 57.8123 154.406 57.4314 154.692C57.0538 154.979 56.5818 155.122 56.0154 155.122ZM63.798 155H62.6994L61.0148 152.368L60.4387 152.939V155H59.5158V147.842H60.4387V151.899L62.4357 149.819H63.5979L61.635 151.748L63.798 155ZM69.315 154.6C69.315 156.266 68.5631 157.1 67.0592 157.1C66.4081 157.1 65.8938 156.958 65.5162 156.675C65.1419 156.392 64.9547 156.011 64.9547 155.532H65.9068C65.9068 156.099 66.2877 156.382 67.0494 156.382C67.4791 156.382 67.8111 156.263 68.0455 156.025C68.2799 155.791 68.3971 155.329 68.3971 154.639V154.38C67.9869 154.875 67.4938 155.122 66.9176 155.122C66.2405 155.122 65.7164 154.881 65.3453 154.399C64.9742 153.918 64.7887 153.268 64.7887 152.451C64.7887 151.605 64.9954 150.936 65.4088 150.444C65.8255 149.95 66.3479 149.702 66.9762 149.702C67.5361 149.702 68.0097 149.875 68.3971 150.22V149.819H69.315V154.6ZM68.3971 153.511V151.05C67.9999 150.63 67.5458 150.42 67.0348 150.42C66.6409 150.42 66.3251 150.591 66.0875 150.933C65.8531 151.271 65.7359 151.777 65.7359 152.451C65.7359 153.089 65.8466 153.574 66.068 153.906C66.2926 154.235 66.6018 154.399 66.9957 154.399C67.51 154.399 67.9771 154.103 68.3971 153.511ZM73.9727 150.659C73.8424 150.62 73.6553 150.601 73.4111 150.601C72.9424 150.601 72.5404 150.846 72.2051 151.338V155H71.2822V149.819H72.2051V150.542C72.5924 149.982 73.0417 149.702 73.5527 149.702C73.6829 149.702 73.8229 149.715 73.9727 149.741V150.659ZM77.3119 149.702C78.0508 149.702 78.64 149.938 79.0795 150.41C79.5222 150.882 79.7436 151.549 79.7436 152.412C79.7436 153.271 79.5222 153.939 79.0795 154.414C78.64 154.886 78.0508 155.122 77.3119 155.122C76.5762 155.122 75.987 154.886 75.5443 154.414C75.1049 153.939 74.8852 153.271 74.8852 152.412C74.8852 151.549 75.1049 150.882 75.5443 150.41C75.987 149.938 76.5762 149.702 77.3119 149.702ZM77.3119 154.399C77.7514 154.399 78.1078 154.233 78.3812 153.901C78.6547 153.566 78.7914 153.07 78.7914 152.412C78.7914 151.751 78.6547 151.255 78.3812 150.923C78.1078 150.588 77.7514 150.42 77.3119 150.42C76.8725 150.42 76.516 150.588 76.2426 150.923C75.9691 151.255 75.8324 151.751 75.8324 152.412C75.8324 153.07 75.9691 153.566 76.2426 153.901C76.516 154.233 76.8725 154.399 77.3119 154.399ZM84.66 154.341C84.201 154.862 83.685 155.122 83.1121 155.122C81.9435 155.122 81.3592 154.484 81.3592 153.208V149.819H82.282V153.169C82.282 153.592 82.3569 153.896 82.5066 154.082C82.6564 154.268 82.9038 154.36 83.2488 154.36C83.7632 154.36 84.2335 154.084 84.66 153.53V149.819H85.5779V155H84.66V154.341ZM88.468 150.479C88.927 149.961 89.4429 149.702 90.0158 149.702C91.1844 149.702 91.7688 150.339 91.7688 151.611V155H90.8459V151.65C90.8459 151.227 90.7694 150.923 90.6164 150.737C90.4667 150.552 90.2193 150.459 89.8742 150.459C89.4055 150.459 88.9367 150.736 88.468 151.289V155H87.5451V149.819H88.468V150.479ZM96.9928 153.511V151.05C96.5956 150.63 96.1415 150.42 95.6305 150.42C95.2366 150.42 94.9208 150.591 94.6832 150.933C94.4488 151.271 94.3316 151.777 94.3316 152.451C94.3316 153.089 94.4423 153.574 94.6637 153.906C94.8883 154.235 95.1975 154.399 95.5914 154.399C96.1057 154.399 96.5729 154.103 96.9928 153.511ZM96.9928 154.38C96.5826 154.875 96.0895 155.122 95.5133 155.122C94.8362 155.122 94.3121 154.881 93.941 154.399C93.5699 153.918 93.3844 153.268 93.3844 152.451C93.3844 151.605 93.5911 150.936 94.0045 150.444C94.4212 149.95 94.9436 149.702 95.5719 149.702C96.1318 149.702 96.6054 149.875 96.9928 150.22V147.842H97.9107V155H96.9928V154.38ZM52.7564 166H51.7311L51.0572 164.091C50.9368 163.752 50.7366 163.476 50.4566 163.261C50.1767 163.046 49.8544 162.938 49.4898 162.938H47.7369V166H46.7896V158.842H49.9586C50.512 158.842 50.9645 158.896 51.316 159.003C51.6676 159.11 51.954 159.337 52.1754 159.682C52.3967 160.027 52.5074 160.416 52.5074 160.849C52.5074 161.343 52.3642 161.757 52.0777 162.089C51.7913 162.421 51.399 162.637 50.901 162.738V162.758C51.399 162.917 51.7783 163.349 52.0387 164.052L52.7564 166ZM47.7369 162.089H49.8512C50.4404 162.089 50.8668 161.996 51.1305 161.811C51.3974 161.625 51.5309 161.304 51.5309 160.849C51.5309 160.035 51.0198 159.628 49.9977 159.628H47.7369V162.089ZM56.6963 166.122C55.9346 166.122 55.3226 165.884 54.8604 165.409C54.3981 164.931 54.167 164.265 54.167 163.412C54.167 162.566 54.39 161.903 54.8359 161.425C55.2852 160.943 55.8711 160.702 56.5938 160.702C57.3327 160.702 57.9219 160.938 58.3613 161.41C58.804 161.882 59.0254 162.549 59.0254 163.412V163.632H55.124C55.1631 164.231 55.3275 164.675 55.6172 164.965C55.9102 165.255 56.2699 165.399 56.6963 165.399C57.0186 165.399 57.3083 165.318 57.5654 165.155C57.8258 164.989 57.9626 164.755 57.9756 164.452H58.9277C58.8561 164.986 58.6136 165.398 58.2002 165.688C57.79 165.977 57.2887 166.122 56.6963 166.122ZM58.0537 162.909C57.9788 162.411 57.8112 162.038 57.5508 161.791C57.2904 161.544 56.9714 161.42 56.5938 161.42C56.2259 161.42 55.9102 161.544 55.6465 161.791C55.3828 162.035 55.2152 162.408 55.1436 162.909H58.0537ZM62.5111 166.122C61.0951 166.122 60.3546 165.565 60.2895 164.452H61.2123C61.2188 165.084 61.6485 165.399 62.5014 165.399C62.8822 165.399 63.1719 165.321 63.3705 165.165C63.5723 165.006 63.6732 164.807 63.6732 164.569C63.6732 164.335 63.5756 164.171 63.3803 164.076C63.185 163.979 62.7813 163.853 62.1693 163.7C61.5606 163.547 61.1146 163.376 60.8314 163.188C60.5515 162.999 60.4115 162.667 60.4115 162.191C60.4115 161.762 60.5857 161.407 60.934 161.127C61.2855 160.844 61.7543 160.702 62.3402 160.702C63.6977 160.702 64.391 161.186 64.4203 162.152H63.5023C63.4698 161.664 63.1036 161.42 62.4037 161.42C62.0945 161.42 61.8373 161.479 61.6322 161.596C61.4304 161.713 61.3295 161.884 61.3295 162.108C61.3295 162.31 61.4076 162.457 61.5639 162.548C61.7201 162.636 62.1107 162.756 62.7357 162.909C63.364 163.059 63.8295 163.235 64.1322 163.437C64.4382 163.638 64.5912 163.987 64.5912 164.481C64.5912 164.953 64.4024 165.346 64.0248 165.658C63.6505 165.967 63.1459 166.122 62.5111 166.122ZM68.4627 166.122C67.701 166.122 67.089 165.884 66.6268 165.409C66.1645 164.931 65.9334 164.265 65.9334 163.412C65.9334 162.566 66.1564 161.903 66.6023 161.425C67.0516 160.943 67.6375 160.702 68.3602 160.702C69.0991 160.702 69.6883 160.938 70.1277 161.41C70.5704 161.882 70.7918 162.549 70.7918 163.412V163.632H66.8904C66.9295 164.231 67.0939 164.675 67.3836 164.965C67.6766 165.255 68.0363 165.399 68.4627 165.399C68.785 165.399 69.0747 165.318 69.3318 165.155C69.5922 164.989 69.729 164.755 69.742 164.452H70.6941C70.6225 164.986 70.38 165.398 69.9666 165.688C69.5564 165.977 69.0551 166.122 68.4627 166.122ZM69.8201 162.909C69.7452 162.411 69.5776 162.038 69.3172 161.791C69.0568 161.544 68.7378 161.42 68.3602 161.42C67.9923 161.42 67.6766 161.544 67.4129 161.791C67.1492 162.035 66.9816 162.408 66.91 162.909H69.8201ZM75.7082 164.638V163.49H75.0783C73.7437 163.49 73.0764 163.853 73.0764 164.579C73.0764 164.843 73.174 165.046 73.3693 165.189C73.5646 165.329 73.8283 165.399 74.1604 165.399C74.4631 165.399 74.7561 165.331 75.0393 165.194C75.3225 165.058 75.5454 164.872 75.7082 164.638ZM75.7082 165.468C75.2395 165.904 74.6356 166.122 73.8967 166.122C73.3824 166.122 72.9592 165.984 72.6271 165.707C72.2951 165.427 72.1291 165.067 72.1291 164.628C72.1291 163.417 73.1724 162.812 75.259 162.812H75.7082C75.7082 162.44 75.6887 162.172 75.6496 162.006C75.6105 161.837 75.5015 161.697 75.3225 161.586C75.1434 161.475 74.8586 161.42 74.468 161.42C73.6477 161.42 73.2245 161.713 73.1984 162.299H72.2805C72.3488 161.234 73.0943 160.702 74.5168 160.702C75.1809 160.702 75.6984 160.834 76.0695 161.098C76.4406 161.361 76.6262 161.879 76.6262 162.65V166H75.7082V165.468ZM81.2838 161.659C81.1536 161.62 80.9664 161.601 80.7223 161.601C80.2535 161.601 79.8515 161.846 79.5162 162.338V166H78.5934V160.819H79.5162V161.542C79.9036 160.982 80.3528 160.702 80.8639 160.702C80.9941 160.702 81.1341 160.715 81.2838 160.741V161.659ZM84.623 166.122C83.8874 166.122 83.2982 165.886 82.8555 165.414C82.416 164.939 82.1963 164.271 82.1963 163.412C82.1963 162.549 82.416 161.882 82.8555 161.41C83.2982 160.938 83.8874 160.702 84.623 160.702C85.1895 160.702 85.6615 160.845 86.0391 161.132C86.4199 161.418 86.6445 161.832 86.7129 162.372H85.7656C85.7526 162.063 85.6354 161.827 85.4141 161.664C85.196 161.501 84.9323 161.42 84.623 161.42C84.1836 161.42 83.8271 161.588 83.5537 161.923C83.2803 162.255 83.1436 162.751 83.1436 163.412C83.1436 164.07 83.2803 164.566 83.5537 164.901C83.8271 165.233 84.1836 165.399 84.623 165.399C84.9323 165.399 85.196 165.318 85.4141 165.155C85.6354 164.993 85.7526 164.758 85.7656 164.452H86.7129C86.6445 164.993 86.4199 165.406 86.0391 165.692C85.6615 165.979 85.1895 166.122 84.623 166.122ZM89.0463 161.479C89.5053 160.961 90.0212 160.702 90.5941 160.702C91.7628 160.702 92.3471 161.339 92.3471 162.611V166H91.4242V162.65C91.4242 162.227 91.3477 161.923 91.1947 161.737C91.045 161.552 90.7976 161.459 90.4525 161.459C89.9838 161.459 89.515 161.736 89.0463 162.289V166H88.1234V158.842H89.0463V161.479Z" fill="black"/>
<path d="M103.101 111.053L92.5812 100.531C95.1228 97.1823 96.7094 93.1678 97.1164 88.9589C97.6147 83.7935 96.3281 78.5747 93.4934 74.2633C93.182 73.7901 92.5459 73.6587 92.0733 73.9701C91.6001 74.2814 91.4688 74.9175 91.7801 75.3907C97.1447 83.5489 96.0194 94.4901 89.1045 101.406C81.0279 109.483 67.8875 109.483 59.8115 101.406C51.7349 93.3286 51.7349 80.186 59.8115 72.1089C67.8875 64.0318 81.0285 64.0318 89.1018 72.1062L89.1579 72.1628C89.5574 72.5644 90.2062 72.5671 90.6079 72.1676C91.01 71.7687 91.0121 71.1193 90.6132 70.7177L90.5544 70.6584C81.6784 61.7818 67.237 61.7818 58.361 70.6584C58.0822 70.9372 57.8125 71.2213 57.5514 71.5107H35.0254C34.4593 71.5107 34 71.97 34 72.5361V77.0713C34 77.638 34.4593 78.0973 35.0254 78.0973C35.592 78.0973 36.0508 77.638 36.0508 77.0713V73.5621H55.9065C55.123 74.6627 54.449 75.8174 53.8845 77.0121H41.1094C40.5433 77.0121 40.084 77.4708 40.084 78.0375C40.084 78.6041 40.5433 79.0628 41.1094 79.0628H53.0359C52.7416 79.8864 52.4965 80.7232 52.3 81.5697H41.1094C40.5433 81.5697 40.084 82.0285 40.084 82.5951C40.084 83.1612 40.5433 83.6205 41.1094 83.6205H51.9208C51.806 84.452 51.7371 85.2889 51.7141 86.1268H41.1094C40.5433 86.1268 40.084 86.5861 40.084 87.1527C40.084 87.7188 40.5433 88.1781 41.1094 88.1781H51.7499C51.9347 91.1571 52.6989 94.1061 54.0453 96.8389C53.4786 96.8389 54 97 54.5 97.5L55.6733 99.6204C56.0111 100.088 56.6257 100.859 57.0304 101.406L59.4985 103.917C59.8863 104.256 61 105 61.5 105.5L61.5493 105.512C62.4727 106.148 63.4324 106.709 64.4204 107.193L65 107.5C65 108.067 65.9056 108.075 66.4717 108.075L68.8985 108.809C69.5 109 71.5 109.5 74 109.5L74.6743 109.512C75.4738 109.504 76.2722 109.455 77.0674 109.364V125.204C77.0674 125.77 77.5261 126.23 78.0928 126.23C78.6589 126.23 79.1182 125.77 79.1182 125.204V109.034C82.3594 108.361 85.4809 106.978 88.2313 104.884L98.749 115.403C99.3306 115.984 100.103 116.305 100.925 116.305C101.747 116.305 102.519 115.984 103.101 115.403C104.299 114.205 104.3 112.253 103.101 111.053ZM57.7738 102.247L55.9391 100L55.1935 98.8902C56.2112 100.333 57.1359 101.63 58.361 102.856C58.7306 103.226 59.1108 103.579 59.4985 103.917L57.7738 102.247ZM68 108.584L66.4717 108.075C68.4605 108.817 70.5327 109.271 72.624 109.439L69.797 109.034L68 108.584ZM101.651 113.953C101.457 114.147 101.199 114.253 100.925 114.253C100.651 114.253 100.393 114.147 100.2 113.953L89.8121 103.564C90.0637 103.334 90.3115 103.099 90.5544 102.856C90.7969 102.614 91.033 102.366 91.2631 102.114L101.65 112.503C102.05 112.903 102.051 113.554 101.651 113.953Z" fill="url(#paint0_linear)"/>
<path d="M78.0929 128.599C77.5268 128.599 77.0675 129.058 77.0675 129.624V131.949H36.0508V81.5149C36.0508 80.9483 35.592 80.4895 35.0254 80.4895C34.4593 80.4895 34 80.9483 34 81.5149V132.975C34 133.541 34.4593 134 35.0254 134H78.0929C78.6595 134 79.1183 133.541 79.1183 132.975V129.624C79.1183 129.058 78.6595 128.599 78.0929 128.599Z" fill="black"/>
<path d="M38.4434 106.068V128.22C38.4434 128.786 38.9026 129.245 39.4688 129.245H47.6724C48.2385 129.245 48.6978 128.786 48.6978 128.22V106.068C48.6978 105.502 48.2385 105.042 47.6724 105.042H39.4688C38.9026 105.042 38.4434 105.502 38.4434 106.068ZM40.4941 107.094H46.647V127.194H40.4941V107.094Z" fill="#1A90B1"/>
<path d="M48.7768 92.736C49.3435 92.736 49.8022 92.2767 49.8022 91.7101C49.8022 91.144 49.3435 90.6847 48.7768 90.6847H41.1094C40.5433 90.6847 40.084 91.144 40.084 91.7101C40.084 92.2767 40.5433 92.736 41.1094 92.736H48.7768Z" fill="black"/>
<path d="M74.4581 68.1C69.4678 68.1 64.7809 70.0386 61.2615 73.5586C57.7421 77.0786 55.8034 81.766 55.8034 86.7567C55.8034 91.7475 57.7421 96.4349 61.2615 99.9549C64.7815 103.475 69.4678 105.414 74.4581 105.414C79.4483 105.414 84.1347 103.475 87.6546 99.9549C91.1741 96.4349 93.1122 91.7475 93.1122 86.7567C93.1122 81.766 91.1741 77.0786 87.6546 73.5586C84.1347 70.0386 79.4483 68.1 74.4581 68.1ZM86.2041 98.5044C83.0719 101.637 78.9004 103.362 74.4581 103.362C70.0152 103.362 65.8443 101.637 62.712 98.5044C59.5792 95.3716 57.8542 91.1996 57.8542 86.7567C57.8542 82.3134 59.5792 78.1413 62.712 75.0085C65.95 71.77 70.2043 70.1502 74.4581 70.1502C78.7118 70.1502 82.9661 71.77 86.2041 75.0085C89.3364 78.1413 91.0614 82.3134 91.0614 86.7567C91.0614 91.1996 89.3364 95.3716 86.2041 98.5044Z" fill="black"/>
<path d="M54.1046 96.8L52.3 96.8C51.7477 96.8 51.3 97.2478 51.3 97.8V128.3C51.3 128.852 51.7477 129.3 52.3 129.3H60.6C61.1523 129.3 61.6 128.852 61.6 128.3V105.457C60.8569 104.942 60.1458 104.383 59.47 103.785V127.2H53.35V98.9H55.2935C54.862 98.2233 54.4648 97.5225 54.1046 96.8Z" fill="#1A90B1"/>
<path d="M66.48 108.048C65.7809 107.786 65.097 107.493 64.43 107.17V128.3C64.43 128.852 64.8777 129.3 65.43 129.3H73.73C74.2823 129.3 74.73 128.852 74.73 128.3V109.598C74.0121 109.588 73.3017 109.547 72.6 109.476V127.2H66.48V108.048Z" fill="#1A90B1"/>
<path d="M376.428 156H375.476V148.842H376.428V156ZM381.901 154.511V152.05C381.504 151.63 381.05 151.42 380.539 151.42C380.145 151.42 379.829 151.591 379.592 151.933C379.357 152.271 379.24 152.777 379.24 153.451C379.24 154.089 379.351 154.574 379.572 154.906C379.797 155.235 380.106 155.399 380.5 155.399C381.014 155.399 381.481 155.103 381.901 154.511ZM381.901 155.38C381.491 155.875 380.998 156.122 380.422 156.122C379.745 156.122 379.221 155.881 378.85 155.399C378.479 154.918 378.293 154.268 378.293 153.451C378.293 152.605 378.5 151.936 378.913 151.444C379.33 150.95 379.852 150.702 380.48 150.702C381.04 150.702 381.514 150.875 381.901 151.22V148.842H382.819V156H381.901V155.38ZM386.989 156.122C386.227 156.122 385.615 155.884 385.153 155.409C384.69 154.931 384.459 154.265 384.459 153.412C384.459 152.566 384.682 151.903 385.128 151.425C385.578 150.943 386.163 150.702 386.886 150.702C387.625 150.702 388.214 150.938 388.654 151.41C389.096 151.882 389.318 152.549 389.318 153.412V153.632H385.416C385.455 154.231 385.62 154.675 385.91 154.965C386.203 155.255 386.562 155.399 386.989 155.399C387.311 155.399 387.601 155.318 387.858 155.155C388.118 154.989 388.255 154.755 388.268 154.452H389.22C389.149 154.986 388.906 155.398 388.493 155.688C388.082 155.977 387.581 156.122 386.989 156.122ZM388.346 152.909C388.271 152.411 388.104 152.038 387.843 151.791C387.583 151.544 387.264 151.42 386.886 151.42C386.518 151.42 386.203 151.544 385.939 151.791C385.675 152.035 385.508 152.408 385.436 152.909H388.346ZM394.234 154.638V153.49H393.604C392.27 153.49 391.602 153.853 391.602 154.579C391.602 154.843 391.7 155.046 391.895 155.189C392.091 155.329 392.354 155.399 392.686 155.399C392.989 155.399 393.282 155.331 393.565 155.194C393.848 155.058 394.071 154.872 394.234 154.638ZM394.234 155.468C393.765 155.904 393.162 156.122 392.423 156.122C391.908 156.122 391.485 155.984 391.153 155.707C390.821 155.427 390.655 155.067 390.655 154.628C390.655 153.417 391.698 152.812 393.785 152.812H394.234C394.234 152.44 394.215 152.172 394.176 152.006C394.137 151.837 394.027 151.697 393.848 151.586C393.669 151.475 393.385 151.42 392.994 151.42C392.174 151.42 391.75 151.713 391.724 152.299H390.806C390.875 151.234 391.62 150.702 393.043 150.702C393.707 150.702 394.224 150.834 394.596 151.098C394.967 151.361 395.152 151.879 395.152 152.65V156H394.234V155.468ZM399.131 156.01C398.929 156.049 398.71 156.068 398.472 156.068C398.094 156.068 397.818 156.002 397.642 155.868C397.466 155.731 397.357 155.557 397.315 155.346C397.272 155.134 397.251 154.846 397.251 154.481V151.542H396.612V150.819H397.251V149.53H398.169V150.819H399.009V151.542H398.169V154.53C398.169 154.885 398.213 155.111 398.301 155.209C398.392 155.303 398.516 155.351 398.672 155.351C398.832 155.351 398.985 155.338 399.131 155.312V156.01ZM401.425 156H400.503V150.819H401.425V156ZM401.425 149.838H400.503V148.842H401.425V149.838ZM405.487 150.702C406.226 150.702 406.815 150.938 407.255 151.41C407.698 151.882 407.919 152.549 407.919 153.412C407.919 154.271 407.698 154.939 407.255 155.414C406.815 155.886 406.226 156.122 405.487 156.122C404.752 156.122 404.162 155.886 403.72 155.414C403.28 154.939 403.061 154.271 403.061 153.412C403.061 152.549 403.28 151.882 403.72 151.41C404.162 150.938 404.752 150.702 405.487 150.702ZM405.487 155.399C405.927 155.399 406.283 155.233 406.557 154.901C406.83 154.566 406.967 154.07 406.967 153.412C406.967 152.751 406.83 152.255 406.557 151.923C406.283 151.588 405.927 151.42 405.487 151.42C405.048 151.42 404.691 151.588 404.418 151.923C404.145 152.255 404.008 152.751 404.008 153.412C404.008 154.07 404.145 154.566 404.418 154.901C404.691 155.233 405.048 155.399 405.487 155.399ZM410.477 151.479C410.936 150.961 411.452 150.702 412.025 150.702C413.193 150.702 413.778 151.339 413.778 152.611V156H412.855V152.65C412.855 152.227 412.778 151.923 412.625 151.737C412.476 151.552 412.228 151.459 411.883 151.459C411.414 151.459 410.946 151.736 410.477 152.289V156H409.554V150.819H410.477V151.479Z" fill="black"/>
<g clip-path="url(#clip2)">
<path d="M393 72.9842C393.568 72.9842 394.028 72.5242 394.028 71.9564V65.0277C394.028 64.46 393.568 64 393 64C392.432 64 391.972 64.46 391.972 65.0277V71.9564C391.972 72.5242 392.432 72.9842 393 72.9842Z" fill="black"/>
<path d="M373.825 80.3249C374.227 80.7261 374.877 80.7261 375.279 80.3249C375.68 79.9234 375.68 79.2727 375.279 78.8714L370.379 73.9718C369.978 73.5707 369.327 73.5705 368.926 73.9718C368.525 74.3733 368.525 75.0239 368.926 75.4253L373.825 80.3249Z" fill="black"/>
<path d="M366.911 97.0181H359.982C359.414 97.0181 358.954 97.4781 358.954 98.0458C358.954 98.6135 359.414 99.0735 359.982 99.0735H366.911C367.478 99.0735 367.938 98.6135 367.938 98.0458C367.938 97.4781 367.478 97.0181 366.911 97.0181Z" fill="black"/>
<path d="M373.825 115.767L368.926 120.666C368.525 121.068 368.525 121.718 368.926 122.12C369.327 122.521 369.978 122.521 370.379 122.12L375.279 117.22C375.68 116.819 375.68 116.168 375.279 115.767C374.877 115.366 374.227 115.366 373.825 115.767Z" fill="black"/>
<path d="M412.175 115.767C411.773 115.366 411.123 115.366 410.721 115.767C410.32 116.168 410.32 116.819 410.721 117.22L415.621 122.12C416.022 122.521 416.673 122.521 417.074 122.12C417.475 121.718 417.475 121.068 417.074 120.666L412.175 115.767Z" fill="black"/>
<path d="M426.018 97.0181H419.089C418.522 97.0181 418.062 97.4781 418.062 98.0458C418.062 98.6135 418.522 99.0735 419.089 99.0735H426.018C426.586 99.0735 427.046 98.6135 427.046 98.0458C427.046 97.4781 426.586 97.0181 426.018 97.0181Z" fill="black"/>
<path d="M415.621 73.9718L410.721 78.8714C410.32 79.2729 410.32 79.9235 410.721 80.3249C411.123 80.7261 411.773 80.7261 412.175 80.3249L417.074 75.4253C417.475 75.0238 417.475 74.3732 417.074 73.9718C416.673 73.5706 416.022 73.5706 415.621 73.9718Z" fill="black"/>
<path d="M413.303 95.9683C413.303 84.6123 404.195 75.3735 393 75.3735C389.079 75.3735 385.272 76.5099 381.993 78.6598C378.803 80.7516 376.26 83.6943 374.638 87.1699C374.398 87.6843 374.621 88.2958 375.135 88.5358C375.65 88.776 376.261 88.5532 376.501 88.0389C379.507 81.5937 385.984 77.429 393 77.429C403.062 77.429 411.247 85.7457 411.247 95.9683C411.247 100.824 409.413 105.414 406.081 108.894C404.161 110.9 402.526 112.816 402.106 115.501H384.163C383.633 112.713 381.732 110.758 380.023 109.002C376.625 105.509 374.753 100.88 374.753 95.9683C374.753 94.7555 374.869 93.5425 375.098 92.3628C375.206 91.8056 374.842 91.2663 374.284 91.1581C373.727 91.0509 373.188 91.4143 373.08 91.9716C372.826 93.2798 372.697 94.6245 372.697 95.9683C372.697 101.419 374.776 106.557 378.55 110.436C380.718 112.663 382.252 114.441 382.252 117.047C382.252 117.056 382.253 117.066 382.253 117.075L382.312 123.106C382.312 125.063 383.356 126.78 384.915 127.731V128.861C384.915 131.695 387.221 134 390.054 134H396.358C399.191 134 401.496 131.695 401.496 128.861V127.731C403.056 126.78 404.1 125.063 404.1 123.106C404.1 123.106 404.093 116.388 404.079 116.321C404.274 113.939 405.718 112.246 407.566 110.316C411.265 106.451 413.303 101.356 413.303 95.9683ZM399.441 128.861C399.441 130.561 398.057 131.944 396.357 131.944H390.054C388.354 131.944 386.971 130.561 386.971 128.861V128.465C387.217 128.5 387.469 128.519 387.724 128.519H398.687C398.943 128.519 399.194 128.5 399.441 128.465V128.861ZM398.687 126.463H387.724C385.873 126.463 384.367 124.957 384.367 123.106V123.037H394.782C395.349 123.037 395.809 122.577 395.809 122.01C395.809 121.442 395.349 120.982 394.782 120.982H384.367V117.556H402.012L402.044 120.982H399.578C399.01 120.982 398.55 121.442 398.55 122.01C398.55 122.577 399.01 123.037 399.578 123.037H402.044V123.106C402.044 124.957 400.538 126.463 398.687 126.463Z" fill="black"/>
<path d="M399.682 96.1043C399.334 96.5525 399.415 97.1982 399.863 97.5463C400.311 97.8945 400.957 97.8134 401.305 97.3649L403.34 94.7447C403.879 94.0509 404.115 93.1888 404.005 92.3172C403.895 91.4455 403.453 90.6688 402.759 90.13C402.065 89.5912 401.203 89.3536 400.332 89.4647C399.46 89.5744 398.683 90.0168 398.145 90.7108L391.507 99.2593L387.697 95.0444C386.481 93.6993 384.397 93.5943 383.052 94.8099C382.401 95.399 382.017 96.2065 381.973 97.0839C381.929 97.9612 382.229 98.8033 382.818 99.4551L389.258 106.581C390.555 108.085 393.117 107.992 394.296 106.392L398.363 101.154C398.712 100.706 398.63 100.06 398.182 99.7118C397.734 99.3637 397.088 99.4447 396.74 99.8932L392.672 105.132C392.231 105.732 391.267 105.767 390.783 105.202L384.343 98.0769C383.887 97.5723 383.926 96.791 384.431 96.3349C384.935 95.8794 385.717 95.9184 386.173 96.423L390.804 101.547C391.208 102.016 392.011 101.989 392.379 101.489L399.768 91.9716C400.164 91.4396 400.984 91.3365 401.499 91.7538C402.031 92.1496 402.134 92.9692 401.716 93.4844L399.682 96.1043Z" fill="#1A90B1"/>
</g>
<path d="M618.855 9H617.903V1.8418H618.855V9ZM623.058 9.00977C622.857 9.04883 622.637 9.06836 622.399 9.06836C622.022 9.06836 621.745 9.00163 621.569 8.86816C621.393 8.73145 621.284 8.55729 621.242 8.3457C621.2 8.13411 621.179 7.84603 621.179 7.48145V4.54199H620.539V3.81934H621.179V2.53027H622.096V3.81934H622.936V4.54199H622.096V7.53027C622.096 7.88509 622.14 8.11133 622.228 8.20898C622.319 8.30339 622.443 8.35059 622.599 8.35059C622.759 8.35059 622.912 8.33757 623.058 8.31152V9.00977ZM626.632 9.12207C625.87 9.12207 625.258 8.88444 624.796 8.40918C624.334 7.93066 624.103 7.26497 624.103 6.41211C624.103 5.56576 624.326 4.90332 624.772 4.4248C625.221 3.94303 625.807 3.70215 626.529 3.70215C627.268 3.70215 627.858 3.93815 628.297 4.41016C628.74 4.88216 628.961 5.54948 628.961 6.41211V6.63184H625.06C625.099 7.23079 625.263 7.67513 625.553 7.96484C625.846 8.25456 626.206 8.39941 626.632 8.39941C626.954 8.39941 627.244 8.31803 627.501 8.15527C627.762 7.98926 627.898 7.75488 627.911 7.45215H628.863C628.792 7.986 628.549 8.39779 628.136 8.6875C627.726 8.97721 627.224 9.12207 626.632 9.12207ZM627.989 5.90918C627.915 5.41113 627.747 5.03841 627.487 4.79102C627.226 4.54362 626.907 4.41992 626.529 4.41992C626.162 4.41992 625.846 4.54362 625.582 4.79102C625.319 5.03516 625.151 5.40788 625.079 5.90918H627.989ZM633.287 4.65918C633.157 4.62012 632.969 4.60059 632.725 4.60059C632.256 4.60059 631.854 4.84635 631.519 5.33789V9H630.596V3.81934H631.519V4.54199C631.907 3.9821 632.356 3.70215 632.867 3.70215C632.997 3.70215 633.137 3.71517 633.287 3.74121V4.65918ZM637.808 7.6377V6.49023H637.178C635.843 6.49023 635.176 6.85319 635.176 7.5791C635.176 7.84277 635.273 8.04622 635.469 8.18945C635.664 8.32943 635.928 8.39941 636.26 8.39941C636.562 8.39941 636.855 8.33105 637.139 8.19434C637.422 8.05762 637.645 7.87207 637.808 7.6377ZM637.808 8.46777C637.339 8.90397 636.735 9.12207 635.996 9.12207C635.482 9.12207 635.059 8.98372 634.727 8.70703C634.395 8.42708 634.229 8.06738 634.229 7.62793C634.229 6.41699 635.272 5.81152 637.358 5.81152H637.808C637.808 5.44043 637.788 5.17188 637.749 5.00586C637.71 4.83659 637.601 4.69661 637.422 4.58594C637.243 4.47526 636.958 4.41992 636.567 4.41992C635.747 4.41992 635.324 4.71289 635.298 5.29883H634.38C634.448 4.23438 635.194 3.70215 636.616 3.70215C637.28 3.70215 637.798 3.83398 638.169 4.09766C638.54 4.36133 638.726 4.87891 638.726 5.65039V9H637.808V8.46777ZM642.704 9.00977C642.503 9.04883 642.283 9.06836 642.045 9.06836C641.668 9.06836 641.391 9.00163 641.215 8.86816C641.039 8.73145 640.93 8.55729 640.888 8.3457C640.846 8.13411 640.825 7.84603 640.825 7.48145V4.54199H640.185V3.81934H640.825V2.53027H641.743V3.81934H642.582V4.54199H641.743V7.53027C641.743 7.88509 641.787 8.11133 641.874 8.20898C641.966 8.30339 642.089 8.35059 642.246 8.35059C642.405 8.35059 642.558 8.33757 642.704 8.31152V9.00977ZM644.999 9H644.076V3.81934H644.999V9ZM644.999 2.83789H644.076V1.8418H644.999V2.83789ZM649.061 3.70215C649.8 3.70215 650.389 3.93815 650.828 4.41016C651.271 4.88216 651.492 5.54948 651.492 6.41211C651.492 7.27148 651.271 7.9388 650.828 8.41406C650.389 8.88607 649.8 9.12207 649.061 9.12207C648.325 9.12207 647.736 8.88607 647.293 8.41406C646.854 7.9388 646.634 7.27148 646.634 6.41211C646.634 5.54948 646.854 4.88216 647.293 4.41016C647.736 3.93815 648.325 3.70215 649.061 3.70215ZM649.061 8.39941C649.5 8.39941 649.857 8.2334 650.13 7.90137C650.404 7.56608 650.54 7.06966 650.54 6.41211C650.54 5.7513 650.404 5.25488 650.13 4.92285C649.857 4.58757 649.5 4.41992 649.061 4.41992C648.621 4.41992 648.265 4.58757 647.991 4.92285C647.718 5.25488 647.581 5.7513 647.581 6.41211C647.581 7.06966 647.718 7.56608 647.991 7.90137C648.265 8.2334 648.621 8.39941 649.061 8.39941ZM654.05 4.47852C654.509 3.96094 655.025 3.70215 655.598 3.70215C656.767 3.70215 657.351 4.33854 657.351 5.61133V9H656.428V5.65039C656.428 5.22721 656.352 4.92285 656.199 4.7373C656.049 4.55176 655.802 4.45898 655.457 4.45898C654.988 4.45898 654.519 4.73568 654.05 5.28906V9H653.128V3.81934H654.05V4.47852Z" fill="#1A90B1"/>
<path d="M295.855 9H294.903V1.8418H295.855V9ZM300.058 9.00977C299.857 9.04883 299.637 9.06836 299.399 9.06836C299.022 9.06836 298.745 9.00163 298.569 8.86816C298.393 8.73145 298.284 8.55729 298.242 8.3457C298.2 8.13411 298.179 7.84603 298.179 7.48145V4.54199H297.539V3.81934H298.179V2.53027H299.096V3.81934H299.936V4.54199H299.096V7.53027C299.096 7.88509 299.14 8.11133 299.228 8.20898C299.319 8.30339 299.443 8.35059 299.599 8.35059C299.759 8.35059 299.912 8.33757 300.058 8.31152V9.00977ZM303.632 9.12207C302.87 9.12207 302.258 8.88444 301.796 8.40918C301.334 7.93066 301.103 7.26497 301.103 6.41211C301.103 5.56576 301.326 4.90332 301.772 4.4248C302.221 3.94303 302.807 3.70215 303.529 3.70215C304.268 3.70215 304.858 3.93815 305.297 4.41016C305.74 4.88216 305.961 5.54948 305.961 6.41211V6.63184H302.06C302.099 7.23079 302.263 7.67513 302.553 7.96484C302.846 8.25456 303.206 8.39941 303.632 8.39941C303.954 8.39941 304.244 8.31803 304.501 8.15527C304.762 7.98926 304.898 7.75488 304.911 7.45215H305.863C305.792 7.986 305.549 8.39779 305.136 8.6875C304.726 8.97721 304.224 9.12207 303.632 9.12207ZM304.989 5.90918C304.915 5.41113 304.747 5.03841 304.487 4.79102C304.226 4.54362 303.907 4.41992 303.529 4.41992C303.162 4.41992 302.846 4.54362 302.582 4.79102C302.319 5.03516 302.151 5.40788 302.079 5.90918H304.989ZM310.287 4.65918C310.157 4.62012 309.969 4.60059 309.725 4.60059C309.256 4.60059 308.854 4.84635 308.519 5.33789V9H307.596V3.81934H308.519V4.54199C308.907 3.9821 309.356 3.70215 309.867 3.70215C309.997 3.70215 310.137 3.71517 310.287 3.74121V4.65918ZM314.808 7.6377V6.49023H314.178C312.843 6.49023 312.176 6.85319 312.176 7.5791C312.176 7.84277 312.273 8.04622 312.469 8.18945C312.664 8.32943 312.928 8.39941 313.26 8.39941C313.562 8.39941 313.855 8.33105 314.139 8.19434C314.422 8.05762 314.645 7.87207 314.808 7.6377ZM314.808 8.46777C314.339 8.90397 313.735 9.12207 312.996 9.12207C312.482 9.12207 312.059 8.98372 311.727 8.70703C311.395 8.42708 311.229 8.06738 311.229 7.62793C311.229 6.41699 312.272 5.81152 314.358 5.81152H314.808C314.808 5.44043 314.788 5.17188 314.749 5.00586C314.71 4.83659 314.601 4.69661 314.422 4.58594C314.243 4.47526 313.958 4.41992 313.567 4.41992C312.747 4.41992 312.324 4.71289 312.298 5.29883H311.38C311.448 4.23438 312.194 3.70215 313.616 3.70215C314.28 3.70215 314.798 3.83398 315.169 4.09766C315.54 4.36133 315.726 4.87891 315.726 5.65039V9H314.808V8.46777ZM319.704 9.00977C319.503 9.04883 319.283 9.06836 319.045 9.06836C318.668 9.06836 318.391 9.00163 318.215 8.86816C318.039 8.73145 317.93 8.55729 317.888 8.3457C317.846 8.13411 317.825 7.84603 317.825 7.48145V4.54199H317.185V3.81934H317.825V2.53027H318.743V3.81934H319.582V4.54199H318.743V7.53027C318.743 7.88509 318.787 8.11133 318.874 8.20898C318.966 8.30339 319.089 8.35059 319.246 8.35059C319.405 8.35059 319.558 8.33757 319.704 8.31152V9.00977ZM321.999 9H321.076V3.81934H321.999V9ZM321.999 2.83789H321.076V1.8418H321.999V2.83789ZM326.061 3.70215C326.8 3.70215 327.389 3.93815 327.828 4.41016C328.271 4.88216 328.492 5.54948 328.492 6.41211C328.492 7.27148 328.271 7.9388 327.828 8.41406C327.389 8.88607 326.8 9.12207 326.061 9.12207C325.325 9.12207 324.736 8.88607 324.293 8.41406C323.854 7.9388 323.634 7.27148 323.634 6.41211C323.634 5.54948 323.854 4.88216 324.293 4.41016C324.736 3.93815 325.325 3.70215 326.061 3.70215ZM326.061 8.39941C326.5 8.39941 326.857 8.2334 327.13 7.90137C327.404 7.56608 327.54 7.06966 327.54 6.41211C327.54 5.7513 327.404 5.25488 327.13 4.92285C326.857 4.58757 326.5 4.41992 326.061 4.41992C325.621 4.41992 325.265 4.58757 324.991 4.92285C324.718 5.25488 324.581 5.7513 324.581 6.41211C324.581 7.06966 324.718 7.56608 324.991 7.90137C325.265 8.2334 325.621 8.39941 326.061 8.39941ZM331.05 4.47852C331.509 3.96094 332.025 3.70215 332.598 3.70215C333.767 3.70215 334.351 4.33854 334.351 5.61133V9H333.428V5.65039C333.428 5.22721 333.352 4.92285 333.199 4.7373C333.049 4.55176 332.802 4.45898 332.457 4.45898C331.988 4.45898 331.519 4.73568 331.05 5.28906V9H330.128V3.81934H331.05V4.47852Z" fill="#1A90B1"/>
<defs>
<linearGradient id="paint0_linear" x1="89.5" y1="102" x2="63.5" y2="128.5" gradientUnits="userSpaceOnUse">
<stop offset="0.696983"/>
<stop offset="0.697511"/>
<stop offset="0.697511" stop-color="#06CAA6"/>
</linearGradient>
<clipPath id="clip0">
<rect width="70" height="70" fill="white" transform="translate(686 64)"/>
</clipPath>
<clipPath id="clip1">
<rect width="70" height="70" fill="white" transform="translate(197 64)"/>
</clipPath>
<clipPath id="clip2">
<rect width="70" height="70" fill="white" transform="translate(358 64)"/>
</clipPath>
</defs>
</svg>
